<svg width="64" height="64" fill="none" xmlns="http://www.w3.org/2000/svg"><path d="M58.666 5h-8v2.667h8a2.667 2.667 0 012.667 2.666v37.334a2.667 2.667 0 01-2.666 2.666H5.332a2.667 2.667 0 01-2.666-2.666V10.332a2.667 2.667 0 012.666-2.666h8V5h-8A5.333 5.333 0 000 10.333v37.334A5.333 5.333 0 005.333 53h53.333A5.333 5.333 0 0064 47.667V10.333A5.333 5.333 0 0058.666 5zM50.03 56H12.97C10.779 56 9 57.79 9 60s1.778 4 3.97 4h37.06c2.192 0 3.97-1.79 3.97-4s-1.778-4-3.97-4zm0 5.333H12.97A1.329 1.329 0 0111.648 60c0-.736.593-1.333 1.324-1.333H50.03c.731 0 1.324.597 1.324 1.333s-.593 1.333-1.324 1.333z" fill="#4D627C"/><path d="M40.643 51H24.357c-.75 0-1.357.597-1.357 1.333v5.334c0 .736.608 1.333 1.357 1.333h16.286c.75 0 1.357-.597 1.357-1.333v-5.334c0-.736-.608-1.333-1.357-1.333zm-1.357 5.333H25.714v-2.666h13.572v2.666zM44 43a1.38 1.38 0 00-.943.366L40.781 45.5H23.22l-2.276-2.134A1.38 1.38 0 0020 43H0v2.5h19.448l2.276 2.134c.25.234.59.366.943.366h18.666c.354 0 .693-.132.943-.366l2.276-2.134H64V43H44z" fill="#4D627C"/><path d="M51.088 10.819a32.53 32.53 0 01-13.975-8.511 6.818 6.818 0 00-10.227 0 32.53 32.53 0 01-13.974 8.51A1.343 1.343 0 0012 12.095c0 .253.224 25.262 19.635 30.854a1.292 1.292 0 00.73 0C51.776 37.356 52 12.347 52 12.094c0-.579-.367-1.092-.912-1.275zM32 40.256c-15.093-4.627-17.045-22.843-17.297-27.221a34.674 34.674 0 0014.156-8.919 4.167 4.167 0 016.283 0 34.672 34.672 0 0014.155 8.923c-.252 4.374-2.204 22.59-17.297 27.217z" fill="#4D627C"/><path d="M46.183 14.42A35.755 35.755 0 0133.673 6l-1.987 1.786a37.949 37.949 0 0012.5 8.66c-.89 5.631-3.573 14.452-11.693 17.8-8.602-3.548-11.106-13.247-11.828-18.779l-2.665.34c.812 6.224 3.712 17.23 14.014 21.106a1.352 1.352 0 00.96 0c10.302-3.867 13.209-14.886 14.015-21.105a1.323 1.323 0 00-.806-1.388zM8 37H5v3h3v-3zm6 0h-3v3h3v-3zm-6-5H5v3h3v-3zm51 5h-3v3h3v-3zm-5 0h-3v3h3v-3zm5-5h-3v3h3v-3z" fill="#4D627C"/></svg>