<svg width="270" height="270" fill="none" xmlns="http://www.w3.org/2000/svg"><g clip-path="url(#clip0_2382_4931)" fill="#153051"><path d="M157.5 33.31c.656-.715 1.3-1.446 1.712-2.264.206-.422.346-.807.379-1.256a2.59 2.59 0 00-.206-1.214c-.157-.373-.412-.688-.709-.85a1.079 1.079 0 00-.461-.152c-.298-.038-.346-.016-.574.011-.823.114-1.657.569-2.833.737-.557.114-1.505-.087-1.987-.71-.531-.596-.58-1.397-.602-1.874-.021-.541-.021-.872-.162-1.175a1.626 1.626 0 00-.59-.601c-.596-.352-1.311-.417-2.059-.206-.763.2-1.538.634-2.383 1.094l-2.545 1.392.98-2.768 1.11-3.13.553-1.566a5.22 5.22 0 00.206-.655c.043-.179.037-.32.027-.325-.017 0 .054.135.124.173.065.038-.011-.01-.179-.005l-.314.01-.292.033a4.961 4.961 0 00-.623.141 4.389 4.389 0 00-2.085 1.403l-1.019 1.273-1.012-1.306c-.602-.78-.899-1.782-.943-2.643-.043-.872.087-1.646.217-2.361.135-.715.287-1.376.39-1.993.049-.293.092-.661.081-.753-.038-.136.06.184.211.227.022 0-.146-.06-.536-.086a7.233 7.233 0 00-.839-.022 6.37 6.37 0 00-1.707.314c-1.11.357-2.155.986-2.941 1.858l-.736.823-.764-.666c-.455-.396-.829-1.018-.872-1.609a3.759 3.759 0 01.141-1.446c.227-.812.531-1.462.742-2.085.097-.303.184-.596.206-.84.049-.265-.011-.406-.049-.552a.555.555 0 01-.07-.092s-.044-.06-.006-.027l-.092-.087s-.108-.087-.189-.12a1.952 1.952 0 00-.748-.13 6.48 6.48 0 00-.964.088 8.071 8.071 0 00-.942.21 8.065 8.065 0 00-1.82.786 7.743 7.743 0 00-2.817 2.795l-.243.412-.423-.185c-.536-.227-.834-.758-.926-1.202a2.749 2.749 0 01.043-1.327c.211-.78.569-1.424.547-1.982-.011-.342-.081-.542-.233-.829a2.255 2.255 0 00-.617-.672 2.619 2.619 0 00-1.766-.525c-1.31.103-2.48.975-3.417 1.988-.97 1.034-1.799 2.28-2.985 3.31l-.715.617-.168-.954-.92-5.189c-.174-.834-.271-1.82-.515-2.42-.141-.32-.254-.445-.471-.531-.098-.033-.401-.038-.666.086-.119.044-.32.157-.363.2-.157.13-.385.277-.482.396-.19.206-.428.488-.612.818-.379.644-.65 1.414-.905 2.231-.26.818-.504 1.69-.877 2.584-.374.883-.91 1.814-1.739 2.557l-1.143 1.028-.655-1.44-1.549-3.402-.775-1.7c-.249-.52-.547-1.251-.731-1.544-.097-.168-.227-.276-.189-.233.065.06.346.109.482.011.13-.173-.472.64-.574.926-.434.91-.667 2.01-.862 3.212-.2 1.197-.368 2.502-.79 3.856-.141.38-.174.59-.445 1.116-.135.25-.362.59-.779.872-.38.266-.96.39-1.398.336-.877-.125-1.251-.482-1.609-.742l-.752-.66-5.574-4.978 2.291-.217c-.13.206-.243.417-.314.677a3.938 3.938 0 00-.081.92c.022.7.19 1.523.38 2.4.194.883.41 1.842.454 2.936a7.49 7.49 0 01-.13 1.744 5.68 5.68 0 01-.731 1.776l-.385.618-.715.065c-1.592.146-2.805-.59-3.629-1.127-.85-.558-1.565-1.105-2.101-1.278-.222-.098-.53-.076-.525-.108-.087.027-.287.07-.282.08 0 .012.01-.01-.043.023-.082.032-.152.102-.239.173-.325.325-.6 1.018-.623 1.695-.037.655.158 1.522.38 2.432.216.91.476 1.982.438 3.12-.016 1.137-.335 2.242-.78 3.212-.45.975-1.045 1.836-1.684 2.627-1.31 1.576-2.887 2.767-4.3 3.959-1.425 1.197-2.774 2.426-3.667 3.943-.894 1.533-1.403 3.336-2.096 5.14-.347.893-.753 1.798-1.322 2.605-.569.807-1.343 1.49-2.242 1.874l-.13-.26c1.63-.948 2.35-2.746 2.838-4.506.509-1.771.801-3.716 1.706-5.53.915-1.83 2.323-3.288 3.694-4.615 1.392-1.338 2.751-2.573 3.786-3.98 1.05-1.387 1.787-2.969 1.738-4.475 0-.758-.216-1.549-.476-2.459-.25-.915-.569-1.895-.585-3.141.016-1.197.303-2.437 1.235-3.542.243-.266.52-.526.856-.72.146-.104.373-.206.59-.293.216-.087.254-.087.39-.135.937-.228 1.598-.109 2.27.092 1.272.433 2.047 1.104 2.794 1.549.742.487 1.322.671 1.646.617l-1.099.688c.12-.227.222-.46.276-.742.044-.287.065-.612.044-.97-.05-.72-.228-1.543-.417-2.431-.185-.894-.407-1.858-.445-2.974a6.914 6.914 0 01.18-1.782 5.32 5.32 0 01.844-1.771l1.002-1.408 1.29 1.191 5.48 5.075.634.59c.125.13.282.152.033.098-.352-.081-.759.347-.677.303.027-.021.168-.411.249-.617.352-1.018.547-2.183.78-3.434.233-1.24.525-2.61 1.197-3.943.189-.347.422-.742.585-.953l.135-.19c.135-.178.152-.195.249-.308.163-.18.374-.385.688-.564.672-.428 1.668-.346 2.253.06.569.379.818.785 1.035 1.154.411.801.53 1.245.801 1.863l.699 1.733 1.403 3.46-1.798-.41c1.018-.83 1.587-2.416 2.22-4.074.325-.834.688-1.717 1.251-2.556a5.735 5.735 0 011.073-1.197c.216-.184.374-.266.563-.401.32-.206.52-.287.813-.39.552-.168 1.191-.26 1.906.06.601.27 1.04.92 1.186 1.419.32 1.061.304 1.857.444 2.746l.65 5.226-.883-.33c1.062-.872 1.912-2.074 2.958-3.163.536-.553 1.121-1.056 1.803-1.463.342-.2.699-.373 1.084-.503a4.51 4.51 0 011.191-.239 3.762 3.762 0 012.362.7c.341.243.639.552.866.925.222.342.374.867.379 1.257.017.937-.406 1.625-.541 2.253-.152.569.049 1.251.368 1.327l-.639.25c.72-1.35 1.793-2.492 3.055-3.364a9.181 9.181 0 012.052-1.056 8.741 8.741 0 011.138-.336 7.794 7.794 0 011.17-.184c.422-.022.877-.006 1.37.157.255.092.46.184.742.406l.108.092c.098.097.109.12.163.184l.26.33c.276.493.39 1.073.352 1.528-.016.476-.114.877-.211 1.262-.206.753-.455 1.424-.569 2.01a1.825 1.825 0 00-.038.682c.022.146.087.135.152.222l-1.506.157a8.75 8.75 0 013.808-2.768 8.994 8.994 0 012.334-.52 9.322 9.322 0 011.23-.016c.292.032.834.01 1.478.32.802.33 1.235 1.364 1.208 1.917.022.601-.054.92-.103 1.305-.114.748-.271 1.43-.384 2.075-.244 1.3-.266 2.361.211 2.962l-2.031-.032a6.926 6.926 0 013.374-2.194c.325-.092.661-.162.997-.206l.53-.048.206-.006h.309c.385.022.872.07 1.408.401.547.325.921.98.991 1.527.125 1.051-.238 1.739-.417 2.237l-.612 1.544-1.224 3.087-1.56-1.375c.872-.445 1.836-.921 2.979-1.149 1.138-.244 2.513-.081 3.548.666.531.38.975.862 1.24 1.61.211.611.163 1.283.157 1.705-.005.477.011.726.141.878.125.157.233.249.634.233.764-.038 1.733-.45 2.86-.499.254-.021.693.022.877.076.336.07.623.206.883.395.52.374.834.91 1.002 1.452.168.547.206 1.1.103 1.663-.092.514-.336 1.045-.607 1.468-.569.872-1.348 1.51-2.09 2.139l-.212-.233zM68.804 46.374s-.813.731-2.33 1.853c-.346.281-.855.6-1.202.904-.406.347-.812.726-1.105 1.132-.135.184-.265.46-.297.585-.076.228-.044.2-.06.32-.01.097-.01.2.005.298a.916.916 0 00.185.47c.108.104.092.077.26.114.119.06.834-.151 1.809-.449a3.05 3.05 0 011.002-.108c.346.021.682.08 1.013.2.33.12.671.287 1.001.574.325.276.683.737.77 1.349a2.148 2.148 0 01-.385 1.549c-.238.341-.552.596-.704.72a12.98 12.98 0 01-1.284.872c-.834.482-1.684.975-2.55 1.474-.802.503-1.566 1.072-2.026 1.879-.499.753-.57 1.836.167 2.063.39.158.905.18 1.5.336.293.076.678.233.932.596.12.136.212.45.233.542.044.276.011.482-.049.688-.303.79-.866 1.126-1.343 1.462-.493.303-.872.552-1.278.867a11.177 11.177 0 00-2.042 2.134c-.276.368-.612.84-.693 1.11-.152.346-.239.731-.206.942.081.26-.01.011.054.065-.103-.032.347-.005 1.002-.021l.271.016c.114.01.282.038.374.065.222.049.433.119.655.222.423.211.932.53 1.257 1.257.346.72.092 1.635-.152 2.014l-.157.266-.157.222-.217.309c-1.516 1.96-3.336 2.968-4.831 3.937-.758.477-1.43.953-2.026 1.42-.552.433-1.191 1.066-1.343 1.37-.12.194-.179.411-.19.45.011.037-.184-.153-.151-.077-.076.017.26.07.65.087.368.016 1.072.103 1.538.53.558.445.693 1.165.639 1.615-.049.471-.206.818-.363 1.126-.298.58-.796 1.105-1.148 1.354a79.803 79.803 0 01-2.307 1.869l-.217-.2s.58-.916 1.668-2.46c.303-.416.46-.709.612-1.17.06-.205.087-.427.06-.568-.033-.146-.092-.114-.076-.054-.043-.006-.06.016-.374.049-.298.021-.693.167-1.468-.044-.666-.14-1.424-.986-1.478-1.727-.114-.726.021-1.3.222-1.837.092-.243.254-.552.4-.78.158-.238.288-.395.44-.6.297-.38.628-.743.969-1.079.688-.682 1.473-1.25 2.231-1.803 1.506-1.105 3.125-2.07 4.138-3.26l.352-.423c.022-.049-.113.32.033.563.303.433.173.108-.005.146-.358-.081-.992.098-2.064-.373-.385-.19-.878-.602-1.121-1.09a2.74 2.74 0 01-.304-1.402c.044-.845.315-1.484.65-2.074.412-.672.786-1.002 1.203-1.436a13.023 13.023 0 012.8-2.014c.997-.575 2.199-.867 2.47-1.365.027-.05.022-.109.043-.098-.027-.168-.016-.114-.049-.195-.037-.081-.157-.184-.368-.254-.417-.147-.98-.174-1.565-.423-.618-.211-1.138-.97-1.121-1.603-.044-.64.151-1.235.362-1.75.483-1.045 1.214-1.928 1.988-2.648.77-.726 1.56-1.343 2.243-1.96.368-.337.595-.57.931-.932.2-.19.228-.26.25-.304-.006-.01-.087.092-.066.233.087.341.12.179-.097.136a1.016 1.016 0 00-.282-.044c-.049.006-.081-.021-.287.027-.688.087-1.587.64-3.076.298-.612-.146-1.3-.693-1.587-1.24a3.277 3.277 0 01-.428-1.657c0-.266.032-.526.087-.78.043-.233.195-.59.249-.683a4.11 4.11 0 01.796-1.094c1.143-1.105 2.318-1.473 3.168-1.836 1.744-.71 2.79-1.03 2.79-1.03l.157.266z"/><path d="M53.72 88.36c-1.181 1.241-2.378 2.682-2.335 4.236 0 .109.043.44.092.515.049.135.125.314.222.455.19.292.45.552.742.736.287.185.612.288.878.298a.814.814 0 00.639-.249l1.007 1.132a14.72 14.72 0 00-3.894 6.159c-.374 1.159-.634 2.345-.726 3.542-.108.541.125 1.051.033.845-.017-.017-.05-.038-.07-.054l-.022-.011h-.006c-.168-.054-.038-.011-.07-.027l.027.005c.021.005.119.038.076.016-.163-.038-.006-.011.065-.032.21-.016.53-.136 1.17-.125a1.93 1.93 0 011.18.455c.407.341.57.758.645 1.132.065.358.043.634.016.861-.032.244-.049.336-.092.585-.157.775-.412 1.452-.672 2.086-.53 1.262-1.029 2.339-1.12 3.341-.044.499-.028.916.135 1.322.092.233.395.628.671.769.33.163.434.184.759.076.21-.07.509-.233.958-.385.401-.151 1.262-.298 1.983.147l.888.547-.341.937a169.616 169.616 0 01-1.647 4.273c-.547 1.435-1.17 2.817-1.468 4.165-.146.677-.21 1.343-.135 1.983.027.157.043.319.087.471l.048.195.098.271c.103.227.244.492.455.731.78.948 2.28 1.495 3.157.725l.84-.731.114 1.078c.119 1.127-.32 2.102-.737 2.925-.439.829-.866 1.592-1.018 2.394-.168.796.081 1.538.704 1.961.292.2.634.26.899.14.168-.038.352-.265.9-.222.297.044.546.331.59.558.054.222.032.379.032.493-.2 3.651-.433 7.301-.53 10.957l-1.198-.471 4.534-6.012 1.126-1.495.498 1.863c.759 2.844.07 5.606-.292 8.049-.179 1.213-.27 2.415-.157 3.542.114 1.121.444 2.134 1.034 2.909l-2.047-.136a18.599 18.599 0 004.003-6.711l.915-2.724 1.663 2.389c1.116 1.603 1.646 3.482 1.88 5.226.232 1.755.227 3.434.28 5.027.033.79.066 1.576.158 2.318.038.363.103.758.163 1.072.048.238.151.52.265.726.108.211.244.352.254.357.044-.021-.265-.016-.113-.032-.266.097-.092.081-.016-.092.108-.179.227-.477.335-.818l.195-.618c.114-.319.222-.536.358-.796.287-.498.628-1.013 1.316-1.457.671-.482 1.896-.568 2.665-.081.774.466 1.078 1.002 1.327 1.381a18.825 18.825 0 012.144 4.815c.25.834.401 1.761.553 2.459.152.726.374 1.289.66 1.555 0 .016.152.113.039.048.075.044.195.125.238.141-.016-.021.049.022.146.033.173.032.401.005.618-.076.45-.163.758-.536.79-.834l.19-1.75 1.403.851c.471.281.883.628 1.218 1.034.32.412.57.84.759 1.273.373.861.552 1.701.73 2.497.174.796.326 1.565.559 2.264.114.347.254.666.417.969.173.287.374.537.601.753.25.184.493.379.785.45.277.081.547.081.742-.011.396-.146.753-1.067 1.257-1.733.255-.352.552-.699.942-.964.407-.26.824-.455 1.398-.352.487.103.883.4 1.148.78.276.368.325 1.002-.049 1.343l-.216-.195c.433-.58-.374-1.3-.975-1.322-.239-.043-.623.13-.85.347-.26.222-.466.52-.65.839-.185.325-.342.683-.51 1.051-.173.369-.39.856-.904 1.192-.51.325-1.1.368-1.603.276-.526-.07-.954-.347-1.37-.612a4.934 4.934 0 01-1.003-1.045 7.86 7.86 0 01-.644-1.203c-.342-.812-.564-1.619-.802-2.383-.233-.764-.466-1.489-.79-2.091a3.985 3.985 0 00-.542-.763 2.764 2.764 0 00-.666-.472l1.587-.899c-.066 1.365-1.03 2.378-2.07 2.833a3.59 3.59 0 01-1.776.298 3.068 3.068 0 01-1.03-.282l-.297-.157c-.276-.184-.298-.206-.444-.325-.953-.839-1.278-1.912-1.517-2.746-.233-.883-.373-1.57-.628-2.291a15.982 15.982 0 00-2.031-4.013c-.195-.293-.38-.455-.32-.396.055.076.352.038.347.022 0 0-.163.163-.265.374a2.785 2.785 0 00-.136.319l-.162.553c-.13.433-.282.91-.58 1.446-.325.525-.726 1.159-1.77 1.538-.624.26-1.82.163-2.454-.325-.667-.449-1.046-.98-1.317-1.489a5.747 5.747 0 01-.563-1.571 19.367 19.367 0 01-.2-1.349c-.109-.877-.136-1.727-.168-2.567-.103-3.309.065-6.478-1.452-8.709l2.578-.342a21.34 21.34 0 01-4.815 7.605l-1.12 1.137-.927-1.273c-.948-1.305-1.327-2.87-1.398-4.3-.075-1.446.114-2.822.369-4.133.509-2.572 1.23-4.966.79-7.214l1.625.368-4.934 5.687-1.424 1.641.227-2.107c.396-3.639.656-7.284.948-10.93.033-.287-.06-.167.136-.086.075-.016-.147.049-.396.162-.596.244-1.256.071-1.711-.233a2.644 2.644 0 01-1.024-1.267c-.195-.515-.195-1.094-.114-1.587.173-1.013.661-1.874 1.024-2.676.368-.801.639-1.614.514-2.334l.948.347c-.704.671-1.77.91-2.664.715-.905-.174-1.707-.634-2.351-1.268a4.427 4.427 0 01-.829-1.153l-.119-.26c-.076-.174-.081-.228-.125-.352-.075-.212-.119-.428-.167-.645-.174-.872-.152-1.749-.038-2.573.243-1.663.785-3.125 1.213-4.576.444-1.463.893-2.92 1.376-4.366l.541 1.484c.146.098.298.038.092.103l-.834.379-.298.114c-.173.054-.276.076-.422.108a3.455 3.455 0 01-.818.038 3.613 3.613 0 01-1.452-.46c-.85-.509-1.435-1.159-1.841-2.129-.32-.807-.39-1.733-.282-2.518.206-1.609.9-2.904 1.381-4.025.244-.563.45-1.11.564-1.608.06-.222.092-.596.086-.488.022.06.038.157.184.298.125.114.293.13.282.125-.016-.022-.336.032-.769.076-.255.01-.422.048-.91-.055-.125-.027-.103-.027-.162-.043l-.027-.011-.136-.049-.13-.059a2 2 0 01-.476-.325c-.57-.542-.694-1.143-.759-1.598a4.492 4.492 0 01.027-1.251c.174-1.392.504-2.757 1.046-4.041a16.597 16.597 0 014.863-6.575l1.008 1.132c-.25.206-.531.374-.845.471-.314.087-.64.12-.937.082-.607-.07-1.11-.347-1.522-.677a3.569 3.569 0 01-.97-1.23 2.885 2.885 0 01-.254-.764c-.06-.346-.054-.46-.038-.785.087-1.007.569-1.89 1.143-2.594.58-.715 1.278-1.279 1.977-1.82l.205.184z"/><path d="M179.29 145.995a58.07 58.07 0 01.254-4.23c-.325.022-.65.06-.975.065a4.936 4.936 0 01-2.004-.357 63.652 63.652 0 00-.335 4.425 68.643 68.643 0 00-.049 2.41v.644a3.142 3.142 0 01-.146-.086l-2.026-1.175-2.502-1.452.162 2.892a68.26 68.26 0 01-.086 9.045c-.921-.996-1.734-2.096-2.367-3.293l-2.015-3.791-.596 4.219-1.208 8.542c-.097.731-.173 1.429-.325 1.744-.049.14-.173.243-.173.243-.043.033-.141.071-.303.049a1.2 1.2 0 01-.504-.179c-.092-.038-.336-.265-.455-.444-.303-.406-.536-.991-.775-1.663l-3.526-9.781 1.349 10.28a12.15 12.15 0 01-.027 3.374 11.673 11.673 0 01-.672 2.47c-.086.227-.2.46-.325.655-.124.201-.27.374-.406.488-.124.113-.282.162-.303.173.038.016-.081.005-.152 0 .06.005-.032-.005-.032-.005-.049-.006-.092-.038-.147-.071-.108-.07-.222-.222-.314-.411-.189-.385-.222-.829-.195-1.452.017-.596.082-1.3-.124-2.069l-.894-3.353-.525 3.402-.699 4.522c-.233 1.495-.455 3.039-.737 4.49a4.64 4.64 0 01-.308.975c-.147.304-.298.515-.547.71-.45.357-1.127.444-1.766.298a2.936 2.936 0 01-.91-.369 4.335 4.335 0 01-.812-.639c-.51-.493-.943-1.094-1.387-1.711l-.661-.921-.146 1.11c-.125.943-.32 1.869-.612 2.741-.152.433-.33.856-.553 1.246-.238.411-.449.72-.796 1.078-.563.595-1.413 1.007-2.247 1.11-.84.114-1.685-.103-2.205-.661l-.59-.634-.336.834c-.639 1.577-1.571 3.229-2.876 3.77-.157.054-.33.109-.45.119-.065.027-.498.033-.525.017-.325-.033-.672-.147-1.029-.315-.731-.319-1.479-.893-2.573-1.191a4.008 4.008 0 00-1.722-.092 2.754 2.754 0 00-.943.352c-.135.07-.335.238-.46.352l-.119.119c-.13.146-.136.157-.195.244-.368.552-.509.937-.634 1.002-.108.103-.265.151-.525.162-.255 0-.569-.076-.861-.206-.239-.097-.58-.33-.899-.579-.661-.488-1.414-1.23-2.611-1.619l-.883-.288-.504.84-1.218 2.031c-1.474-.514-2.876-1.246-4.09-2.221l-.937-.752-.828.882-2.129 2.259c-.211.233-.455.487-.607.644a3.821 3.821 0 01-.33-.449l-.428-.65-.85-1.3-1.706-2.594-1.696-2.578-.547 3.006c-.444 2.437-1.115 4.831-1.906 7.182a9.257 9.257 0 01-2.54-4.626 8.336 8.336 0 01-.184-1.392c-.028-.498-.082-1.121-.293-1.711-.114-.298-.255-.623-.569-.937a1.53 1.53 0 00-.601-.374 1.53 1.53 0 00-.422-.076c-.147-.005-.147.005-.228.011a1.546 1.546 0 00-1.181.747c-.205.363-.254.672-.303.954-.087.557-.103 1.034-.222 1.408-.103.346-.292.558-.574.59-.303.043-.726-.119-1.072-.368-.342-.255-.661-.607-.835-.981-.184-.411-.297-.909-.417-1.397-.119-.493-.249-1.002-.45-1.495-.189-.487-.514-.98-.914-1.305l-.206.206c.693.709.796 1.722.937 2.713.075.504.14 1.018.32 1.555.205.574.557 1.029.99 1.419.444.368.986.704 1.706.704.77.005 1.425-.612 1.636-1.224.239-.585.293-1.132.412-1.565.054-.217.13-.407.184-.477.038-.071.092-.038.054-.043.044 0 .168-.011.152.005-.022.016-.06-.005-.049.005 0 0 .006.011.027.038.049.049.125.201.174.379.108.38.135.78.129 1.295-.005.471.044 1.11.125 1.63.087.542.206 1.083.379 1.609a11.18 11.18 0 003.732 5.427l1.083.856.553-1.327c.828-1.993 1.478-4.057 2.052-6.142l.158.249.834 1.311.417.655c.135.211.335.52.574.785.244.276.569.591 1.105.813.552.222 1.251.2 1.776-.065.499-.244.769-.536.981-.748l.547-.568 1.354-1.436c1.516 1.024 3.201 1.798 4.983 2.21l.953.222.455-.812 1.126-2.021c.336.206.705.461 1.116.748.406.271.818.547 1.419.769a4.386 4.386 0 001.766.271c.628-.044 1.387-.298 1.885-.872.509-.585.617-1.105.758-1.289 0 0 .06-.082.005-.022l.114-.125c.044-.032.011-.016.071-.054a.909.909 0 01.303-.14c.26-.065.601-.065.948.005.666.108 1.424.579 2.35.942.466.179.992.336 1.566.352.422-.005.438-.005.812-.07.325-.054.574-.157.834-.265 1.019-.488 1.679-1.317 2.183-2.129.368-.612.645-1.246.899-1.879.775.433 1.69.536 2.497.39a5.007 5.007 0 002.8-1.501 6.42 6.42 0 00.899-1.256c.249-.45.444-.926.602-1.403.205-.607.335-1.23.449-1.847.255.341.531.682.84.997.287.292.606.563.964.785.335.222.785.412 1.191.509.829.206 1.82.146 2.6-.433.368-.266.683-.677.867-1.062.195-.395.314-.801.411-1.191l.926-4.566c.125.178.271.352.455.514.19.157.407.298.656.379.141.049.211.071.417.103.087.006.119.022.309.022 1.18-.049 1.798-.775 2.242-1.354.222-.309.401-.628.558-.97a13.735 13.735 0 00.942-2.838c.016-.07.016-.146.027-.216.022.016.033.032.054.043a3.56 3.56 0 001.49.601 2.888 2.888 0 001.793-.276c.633-.331 1.002-.813 1.262-1.316.465-.997.482-1.761.628-2.443l.823-4.945a18.74 18.74 0 003.098 3.114l1.983 1.56.373-2.529c.472-3.185.699-6.408.667-9.63.2.124.438.254.855.433.38.119.753.271 1.512.119l.2-.054c.168-.054.384-.152.487-.217.244-.146.461-.335.612-.52.618-.785.667-1.413.737-1.955.049-.585.011-.964.011-1.343a54.441 54.441 0 010-2.286zm4.457-77.859c.244.678.455 1.36.634 2.053.211.72.385 1.349-.043 1.609-.233.168-1.062.087-1.766-.022-.379-.032-.791-.119-1.316.07a1.38 1.38 0 00-.856 1.376c.049.547.287.921.482 1.257l.574.937 1.127 1.863a46.645 46.645 0 012.036 3.791 27.48 27.48 0 011.566 4.225 5.01 5.01 0 011.099 2.519 9.057 9.057 0 011.972 1.728l.227-.396-.043-.384c-.379-3.147-1.609-6.045-3.185-8.58-.78-1.278-1.625-2.491-2.486-3.688l-1.305-1.771c-.417-.58-.986-1.203-1.019-1.598a.35.35 0 01.185-.374c.157-.087.503-.087.845-.054.346.032.714.092 1.121.108.411-.01.845.027 1.375-.373.093-.082.13-.136.201-.206.151-.2.162-.255.222-.401.087-.25.097-.493.087-.71-.022-.444-.13-.807-.217-1.159a23.981 23.981 0 00-.607-2.134 41.974 41.974 0 00-3.515-8.173 51.352 51.352 0 00-4.977-7.36 78.562 78.562 0 00-2.909-3.37l-3.049-3.135a277.526 277.526 0 00-6.245-6.126 180.628 180.628 0 00-6.511-5.877l-.211.2a176.67 176.67 0 005.465 6.863 289.587 289.587 0 005.731 6.613l2.941 3.234 2.794 3.26c1.858 2.194 3.765 4.35 5.428 6.679 1.668 2.329 3.157 4.81 4.148 7.506zM91.07 264.167c-.737 0-1.473-.211-2.183-.623-1.478-.861-2.697-2.594-3.098-4.414-.292-1.311-.309-2.627-.325-3.905-.016-1.241-.032-2.416-.287-3.537-.731-3.234-3.456-5.855-5.644-7.962l-8.162-7.854c-1.527-1.467-3.109-2.989-4.355-4.798-1.603-2.319-2.556-4.935-3.471-7.643-2.72-8.048-4.978-16.655-3.126-25.088.558-2.54 1.485-4.983 2.46-7.469 3.358-8.541 7.252-17.375 14.596-23.306a.974.974 0 011.37.146.97.97 0 01-.146 1.371c-6.976 5.633-10.746 14.206-14.012 22.504-.947 2.416-1.841 4.777-2.366 7.177-1.75 7.967.444 16.265 3.07 24.042.873 2.568 1.772 5.043 3.234 7.155 1.138 1.652 2.643 3.098 4.106 4.501l8.162 7.854c2.378 2.285 5.335 5.134 6.196 8.937.298 1.321.32 2.654.336 3.937.016 1.23.032 2.394.282 3.51.287 1.294 1.159 2.562 2.177 3.158.606.352 1.202.444 1.793.265.503-.152 1.018-.525 1.57-1.137 2.302-2.541 2.952-6.505 1.582-9.647-1.457-3.347-4.636-5.394-8-7.566-1.43-.921-2.908-1.874-4.246-2.941-4.127-3.283-6.993-7.637-10.042-12.582-1.262-2.048-2.296-3.77-3.12-5.709-2.015-4.745-2.556-10.448-1.646-17.429a64.553 64.553 0 012.025-9.69c2.297-7.886 6.142-15.355 9.96-22.25a.976.976 0 111.707.948c-3.764 6.792-7.55 14.142-9.793 21.849a62.7 62.7 0 00-1.966 9.397c-.86 6.63-.368 12.002 1.506 16.417.77 1.809 1.766 3.466 2.984 5.443 2.952 4.783 5.71 8.996 9.593 12.078 1.267 1.008 2.702 1.934 4.089 2.828 3.455 2.231 7.035 4.538 8.725 8.422 1.669 3.818.878 8.644-1.922 11.731-.797.883-1.598 1.436-2.443 1.696a3.84 3.84 0 01-1.17.184z"/><path d="M149.381 270c-3.379 0-6.407-1.706-8.931-3.391-.742-.498-1.5-1.056-1.896-1.96-.319-.731-.303-1.506-.292-2.075.168-7.924 1.316-15.896 2.432-23.604 1.37-9.484 2.789-19.292 2.34-28.96-.369-7.908-1.907-15.588-4.106-24.693a.972.972 0 01.72-1.175.978.978 0 011.176.72c2.22 9.213 3.78 17.002 4.154 25.061.46 9.852-.975 19.753-2.356 29.329-1.105 7.648-2.248 15.561-2.41 23.366-.011.52-.006.942.13 1.256.184.423.666.769 1.191 1.116 2.34 1.56 5.173 3.141 8.076 3.06 2.556-.07 5.427-1.977 5.459-4.598.006-.623-.189-1.425-.752-1.804-.764-.525-1.967-.07-2.611.677-.818.943-1.143 2.34-1.43 3.575a.964.964 0 01-1.17.726.972.972 0 01-.726-1.17c.325-1.381.726-3.098 1.858-4.409 1.213-1.403 3.483-2.167 5.178-1.013 1.018.693 1.62 1.977 1.609 3.439-.044 3.776-3.835 6.424-7.35 6.522-.108 0-.206.005-.293.005z"/><path d="M148.899 263.755a.963.963 0 01-.644-.244c-.396-.352-1.035-.52-1.717-.698-1.062-.282-2.27-.602-2.963-1.75-.585-.958-.482-2.08-.417-2.816.347-3.932.91-7.897 1.452-11.732.276-1.971.558-3.943.807-5.92.433-3.401.79-6.803 1.142-10.209l1.577-15.171c.27-2.595.547-5.276.693-7.919a79.26 79.26 0 00-2.919-26.052.97.97 0 01.671-1.202.96.96 0 011.203.671 81.062 81.062 0 012.989 26.691c-.146 2.687-.428 5.395-.698 8.016l-1.577 15.171c-.357 3.423-.714 6.841-1.148 10.253a434.957 434.957 0 01-.812 5.942c-.536 3.808-1.094 7.745-1.441 11.629-.059.644-.087 1.256.146 1.641.287.471.986.655 1.793.872.829.216 1.766.466 2.508 1.121a.976.976 0 01-.645 1.706zM121.981 64.443a4.66 4.66 0 01-2.4-.693c-1.105-.661-1.912-1.68-2.556-2.584-5.249-7.41-6.668-17.332-3.705-25.917.433-2.908 2.865-3.872 4.647-4.576 4.279-1.696 9.099 1.153 11.109 4.771 2.226 4.008 1.971 8.829 1.581 12.106-.725 6.158-2.41 10.978-5.145 14.748-.493.677-1.062 1.36-1.879 1.771a3.698 3.698 0 01-1.652.374zm-1.311-32.335c-.666 0-1.333.12-1.977.374-2.215.877-3.244 1.538-3.45 3.125l-.049.195c-2.8 8.021-1.489 17.305 3.423 24.237.553.78 1.175 1.566 1.972 2.042.731.445 1.587.537 2.177.244.422-.211.774-.623 1.175-1.175 2.535-3.488 4.1-8.016 4.788-13.833.358-3.012.601-7.42-1.348-10.93-1.295-2.324-3.992-4.28-6.711-4.28z"/><path d="M109.745 67.27c-1.625 0-3.32-1.03-4.761-2.936-2.404-3.174-3.937-7.257-4.436-11.818-.4-3.667-.157-7.75.748-12.479.736-3.862 2.215-6.044 4.533-6.678 1.544-.423 3.315-.006 4.848 1.148 1.267.948 2.199 2.253 3.017 3.401l-1.582 1.133c-.774-1.084-1.581-2.205-2.605-2.98-1.029-.774-2.21-1.088-3.163-.823-1.506.412-2.562 2.15-3.131 5.167-.866 4.54-1.105 8.428-.726 11.9.461 4.214 1.864 7.962 4.052 10.854.574.753 2.047 2.475 3.623 2.112.683-.162 1.306-.742 1.771-1.234a15.459 15.459 0 003.201-5.092l1.82.699a17.423 17.423 0 01-3.612 5.736c-.65.682-1.549 1.51-2.736 1.787-.281.07-.568.103-.861.103zm8.054-19.9c-1.181 2.465-.921 5.211.146 7.686.726 1.68 2.313 3.586 4.22 2.124 2.881-2.21 3.304-12.268-1.744-12.1-2.308.076-2.514 3.287-2.535 4.961-.022 1.603.011 5.416 2.215 5.709 2.221.298 2.204-3.039 2.394-4.41.19-1.402-.07-4.202-2.053-4.267a.952.952 0 00-.839.482c-.796 1.517-.542 3.726-.488 5.373.044 1.251 1.988 1.256 1.95 0-.038-1.17-.347-3.315.222-4.393-.281.163-.563.32-.839.482-.434-.016.216 1.121.233 1.279.048.563-.174 1.24-.255 1.809-.06.395-.022 1.17-.233 1.467-.162.233-.043-.428-.087-.774-.13-1.05-.303-2.026-.254-3.098.027-.601-.027-1.473.309-1.999-.006-.552.205-.688.633-.4.65.075 1.019.508 1.105 1.288.374.997.434 2.194.358 3.25-.044.629-.266 2.903-.916 3.304-.931.563-1.57-.71-1.798-1.322a9.434 9.434 0 01-.493-2.101c-.151-1.191-.086-2.27.439-3.374.536-1.116-1.143-2.107-1.69-.975z"/><path d="M106.393 48.227c-1.235 2.86-.986 8.34 1.652 10.485 3.276 2.67 4.073-4.219 4.029-6.088-.038-1.69-.466-3.823-1.803-4.988-.867-.758-2.102-.931-2.871.022-1.035 1.278-.812 3.802-.574 5.28.179 1.1.574 3.575 1.95 3.857.422.087.877-.054 1.099-.45.981-1.744.52-4.522.174-6.38-.228-1.23-2.107-.71-1.88.52.222 1.197.677 3.716.022 4.875.368-.152.731-.298 1.099-.45.504.515.444.244-.178-.812a9.625 9.625 0 01-.358-1.343 8.821 8.821 0 01-.103-2.508c.26-2.578 1.224.406 1.37 1.25.19 1.079.098 2.194-.086 3.261-.044.255-.39 2.33-.585 2.346-.488.054-.991-1.463-1.148-1.912-.58-1.706-.867-4.284-.13-5.996.492-1.127-1.187-2.118-1.679-.97zM90.122 64.41c4.723 8.233 15.799 15.865 25.673 14.808 9.814-1.05 19.141-8.79 24.059-16.953.65-1.077-1.034-2.058-1.684-.985-4.545 7.55-12.441 13.92-21.221 15.75-9.452 1.972-20.652-5.79-25.142-13.605-.629-1.084-2.313-.103-1.685.985z"/><path d="M111.847 84.905c-.878 0-1.755-.292-2.416-.888-.942-.85-1.311-2.037-1.419-3.342a4.962 4.962 0 01-.309.439c-.753.964-1.814 1.511-2.838 1.44-1.468-.097-2.502-1.348-2.876-2.55-.217-.694-.271-1.409-.254-2.107-.78.823-1.712 1.413-2.817 1.408-1.576-.06-2.724-1.479-3.05-2.855-.232-.975-.15-1.96 0-2.892-1.034.526-2.23.742-3.368.574-.287-.038-.66-.119-.959-.379-.287-.254-.417-.585-.514-.872-.31-.904-1.16-3.975.85-5.633a.489.489 0 01.688.065.494.494 0 01-.065.688c-1.219.997-1.083 3.017-.553 4.566.06.173.13.363.233.455.103.092.304.13.46.152a4.689 4.689 0 003.613-1.024.48.48 0 01.564-.043.49.49 0 01.227.52c-.238 1.142-.504 2.437-.227 3.607.233.991 1.061 2.063 2.139 2.101 1.186.076 2.129-1.05 2.984-2.231a.492.492 0 01.883.336c-.108 1.104-.222 2.247.098 3.282.265.856 1.007 1.803 2.009 1.869.872.048 1.576-.52 2.004-1.067.536-.694.845-1.566 1.138-2.41a.474.474 0 01.563-.315c.238.049.401.27.384.515-.146 1.82-.195 3.85 1.062 4.988.991.904 2.746.84 3.678-.125.92-.958 1.034-2.48 1.023-3.986 0-.265.212-.487.477-.493.287.044.487.206.498.471.038 1.127.677 2.243 1.636 2.838a3.55 3.55 0 003.271.228c.618-.276 1.089-.71 1.322-1.219.401-.872.152-1.944-.163-3.06a.484.484 0 01.325-.596c.25-.07.526.065.607.314.287.878.997 1.61 1.944 2.015.937.396 1.934.407 2.746.017.813-.39 1.447-1.214 1.701-2.2.217-.86.125-1.722-.254-2.404a6.046 6.046 0 01-.206-.32.487.487 0 01.812-.536c.081.108.152.222.217.336.558.79 1.37 1.349 2.221 1.516 1.007.2 2.096-.2 2.648-.953.39-.541.574-1.316.547-2.29a8.096 8.096 0 00-.969-3.592.488.488 0 01.855-.466 8.979 8.979 0 011.089 4.03c.033 1.197-.211 2.172-.737 2.892-.774 1.073-2.231 1.614-3.623 1.338a4.196 4.196 0 01-1.522-.634c.016.434-.032.883-.141 1.327-.325 1.284-1.137 2.319-2.22 2.838-1.067.51-2.362.51-3.554 0a4.81 4.81 0 01-1.148-.693 3.434 3.434 0 01-.298 1.533c-.335.726-.98 1.332-1.814 1.7a4.519 4.519 0 01-4.181-.292 4.405 4.405 0 01-1.3-1.25c-.174.85-.504 1.635-1.122 2.269-.66.693-1.63 1.05-2.599 1.05zm13.984-68.916c.883.985 1.631 2.085 2.313 3.228.309.569.721 1.246.45 2.101-.157.417-.612.715-1.062.715-.439.006-.801-.162-1.121-.352-.645-.422-1.072-.893-1.533-1.397-.444-.498-.861-1.002-1.305-1.457-.861-.905-1.928-1.658-3.066-1.723l.493-.628.374 1.208.184.607c.054.2.152.455.125.807a1.132 1.132 0 01-.185.493.965.965 0 01-.455.362c-.33.13-.612.103-.866.066-.526-.087-.921-.33-1.289-.504-1.538-.742-2.99-1.641-4.371-2.633l.39-.032c.027-.016 0-.103.027.005.032.082.097.19.162.32a.985.985 0 01.13.487.705.705 0 01-.26.531c-.536.423-1.191.33-1.668.179-1.007-.293-1.933-.818-2.654-1.538a6.669 6.669 0 002.735 1.175c.477.114.97.038 1.235-.195.055-.049.071-.12.065-.13-.005-.092-.027-.12-.086-.233-.054-.097-.136-.2-.206-.346-.081-.109-.141-.499.087-.7l.184-.162.206.125c1.424.872 2.903 1.646 4.403 2.367.395.178.742.368 1.056.4.157.028.314.011.379-.021.027-.006.054-.043.033-.016.032-.049.032-.054.038-.092.021-.147-.179-.656-.293-1.03l-.39-1.202-.222-.693.72.065c1.539.135 2.73 1.1 3.64 2.085.461.498.872 1.018 1.295 1.511.417.466.861 1.008 1.305 1.333.233.162.493.287.715.297a.518.518 0 00.504-.287c.195-.422-.027-1.083-.309-1.646-.542-1.203-1.202-2.334-1.907-3.45zm28.16 24.449c1.012 1.326 2.036 2.637 3.152 3.872.547.623 1.105 1.24 1.679 1.836l.872.889c.298.319.579.503.915.964.157.265.255.628 0 .996-.227.309-.531.401-.791.45-.552.086-.991-.065-1.435-.222-.866-.347-1.549-.937-2.166-1.517-1.181-1.159-2.384-2.421-3.824-2.4l.368-.79 1.663 2.02c.536.672 1.154 1.338 1.587 2.205.211.428.368.926.363 1.451-.049.271.086.466-.293.937-.503.369-.877.114-1.088.033l-2.313-1.24c-.352-.234-.867-.423-.791-.38-.054-.103.06.536.222.85.314.764.845 1.5 1.089 2.41.065.19.13.645-.26.84-.314.136-.569.054-.802-.027a6.202 6.202 0 01-1.175-.65 6.068 6.068 0 01-1.793-1.923 6.802 6.802 0 001.934 1.701 6.28 6.28 0 001.159.515c.173.054.39.06.476 0 .049-.017.082-.125-.005-.32-.249-.78-.791-1.462-1.192-2.29a4.85 4.85 0 01-.26-.65c-.048-.196-.211-.58.13-.96.407-.324.77-.157.997-.086l.617.292 2.335 1.16c.157.097.287.032.141.097-.071.14.021-.152 0-.303 0-.352-.114-.71-.293-1.057-.357-.698-.942-1.327-1.505-1.998l-1.685-1.999-.666-.79h1.029c.991 0 1.879.454 2.573.985.709.531 1.289 1.18 1.868 1.744.58.569 1.186 1.089 1.874 1.376.325.135.721.238.997.211.325-.087.363-.092.282-.287-.136-.227-.515-.574-.77-.877l-.834-.943a42.262 42.262 0 01-1.592-1.95c-.997-1.354-1.955-2.73-2.789-4.175zm-21.969-3.028c2.367-1.836 5.221-3.093 8.233-3.537l.769-.114-.558.558-3.807 3.802-.103-.574c1.083.444 2.323.433 3.596.628 1.251.212 2.692.677 3.466 1.977l.271.455-.509.174-2.416.807-1.207.406c-.428.14-.791.244-.954.428-.086.119-.032.038-.048.032-.033-.027.086.07.292.152l1.17.504c.401.184.812.395 1.197.704.385.298.726.758.867 1.278l.07.265-.19.2c-.384.407-.931.542-1.37.57-.449.027-.856-.022-1.24-.055-.666-.075-1.425.114-1.511.504l-.26-.558a19.507 19.507 0 015.578 3.683c.195.2.407.358.629.677.103.147.189.396.184.59 0 .282-.092.472-.217.645-.52.699-1.446.585-1.939.417l-3.147-.953a3.922 3.922 0 00-.568-.152l-.092.044.016-.006s-.011.006-.011.027a.48.48 0 00.038.239c.135.433.558.72.969 1.148a9.534 9.534 0 011.88 2.773c.108.265.222.569.135.92-.086.37-.482.553-.769.559-.59.021-1.121-.07-1.668-.18a8.57 8.57 0 01-3.017-1.299 8.423 8.423 0 003.055 1.1c.525.08 1.094.13 1.592.08.553-.043.574-.557.309-1.012a10.146 10.146 0 00-1.907-2.556c-.341-.347-.904-.683-1.148-1.317a1.081 1.081 0 01-.081-.563.656.656 0 01.33-.477l.092-.048c.558-.157.753.054 1.03.086l3.163.845c.509.141.91.103 1.077-.157.174-.108-.048-.422-.509-.812a18.517 18.517 0 00-5.362-3.456l-.374-.157.114-.4c.163-.575.699-.927 1.138-1.051.455-.141.899-.157 1.332-.125.769.076 1.522.108 1.825-.244l-.119.46c-.157-.6-.785-1.04-1.527-1.375l-1.159-.515c-.174-.097-.482-.162-.726-.574-.238-.395-.005-.948.217-1.116.449-.427.958-.514 1.327-.644l1.213-.39 2.421-.78-.238.623c-.515-.926-1.696-1.398-2.849-1.598-1.181-.222-2.497-.249-3.738-.796l-.487-.217.384-.357 3.938-3.672.211.444c-2.941.308-5.828 1.332-8.303 3.033zm-33.494 2.302c-.829-1.3-2.085-2.237-3.423-2.936a20.895 20.895 0 00-2.074-.931l-1.067-.401c-.352-.114-.753-.314-.964-.25-.222.066-.195.288-.038.607.146.293.427.51.71.786l1.662 1.576 3.325 3.157.363.347-.438.238c-1.186.64-2.448.352-3.515.228-.547-.076-1.084-.146-1.571-.108-.244.016-.471.07-.677.157-.2.086-.368.222-.52.379l-.081-.64 4.598 3.04 1.16.763-1.398.081-3.505.168c-.59.032-1.18.022-1.592.179-.206.075-.341.184-.406.314.016-.027-.06.135-.049.14.005.017-.005.028-.005.071a.523.523 0 00.048.227c.147.347.575.71 1.019.927.46.211 1.034.395 1.565.53 1.089.271 2.22.385 3.342.32l.281-.016.157.276c.12.206.125.585-.032.807-.14.228-.314.341-.471.428-.32.168-.623.238-.948.27l-.802.044a10.059 10.059 0 00-2.248.45 1.659 1.659 0 00-.568.297.756.756 0 00-.152.168c-.081.157-.065.147-.086.244-.05.32.184.748.509.986.162.12.373.206.585.26.222.06.46.087.71.103.969.076 2.23-.168 3.314.606l.601.434-.71.206a6.755 6.755 0 00-3.834 2.908l-.179-.428 5.021 1.306.184.048-.043.179c-.098.417-.466.64-.758.758-.31.136-.618.19-.845.352-.233.152-.45.401-.401.634.038.25.347.368.639.466 1.18.417 2.405.72 3.65.904a18.95 18.95 0 01-3.71-.72c-.276-.087-.693-.179-.812-.596-.087-.417.211-.726.466-.92.287-.217.612-.282.872-.418.27-.124.487-.303.52-.53l.14.222-5.064-1.116-.379-.081.2-.347a7.428 7.428 0 014.117-3.304l-.108.634c-.737-.526-1.804-.352-2.92-.374-.552-.016-1.213-.124-1.75-.504-.52-.39-.925-1.002-.86-1.76.01-.168.113-.433.162-.514.12-.212.222-.32.363-.445.265-.233.563-.362.84-.46a10.43 10.43 0 011.63-.412 8.67 8.67 0 01.828-.108l.802-.049a1.57 1.57 0 00.585-.168.421.421 0 00.125-.097s0 .076-.011.038l.439.26a12.008 12.008 0 01-3.624-.314 10.794 10.794 0 01-1.76-.58c-.585-.303-1.16-.682-1.5-1.419-.076-.19-.13-.4-.12-.628 0-.103.022-.239.06-.363.043-.136.038-.108.108-.27.206-.396.59-.645.932-.76.699-.237 1.31-.183 1.88-.221l3.509-.13-.228.834-4.582-3.087-.417-.282.341-.352c.233-.244.51-.455.824-.59a3.2 3.2 0 01.948-.217c.623-.043 1.202.049 1.754.13 1.09.173 2.2.395 3.044-.054l-.075.58-3.234-3.25-1.62-1.625c-.249-.26-.584-.531-.78-.937a1.3 1.3 0 01-.162-.683.67.67 0 01.179-.406c.07-.076.114-.092.146-.12a.563.563 0 01.211-.086c.57-.065.862.206 1.225.32l1.056.46a19.81 19.81 0 012.052 1.05c1.327.754 2.552 1.772 3.315 3.11zM93.794 92.38c-.346 2.745-.628 5.497-1.023 8.243-.212 1.37-.482 2.757-.959 4.095-.12.335-.254.66-.4.991-.077.151-.19.444-.548.579-.374.125-.677-.054-.85-.184-.64-.574-.926-1.3-1.127-2.009-.368-1.441-.32-2.828-.547-4.16a25.122 25.122 0 00-.374-2.004c-.167-.612-.292-1.462-.547-1.75-.07-.086-.113-.07-.043-.064.043.005.054-.05-.005.054-.103.216-.244.617-.347.893l-.645 1.961c-.433 1.311-1.018 2.757-2.231 3.732l-.563.449-.152-.698-1.127-5.173.753.103-.915 1.609-.46.807c-.163.271-.277.525-.51.839-.205.336-.774.537-1.164.379a1.41 1.41 0 01-.85-.769c-.282-.693-.266-1.289-.282-1.944.103-2.59 1.37-4.831 2.567-6.97-1.05 2.209-2.107 4.549-2.052 6.97.027.563.075 1.246.297 1.69.114.222.288.379.493.428.206.043.325 0 .472-.185.13-.189.276-.503.417-.769l.427-.823.85-1.646.5-.97.248 1.072 1.203 5.151-.715-.249c.97-.796 1.49-2.042 1.89-3.33l.623-1.989c.135-.373.222-.622.417-1.029.092-.2.385-.53.78-.552.428-.016.688.233.84.406.313.374.406.829.481 1.138l.239 1.029c.146.688.265 1.38.357 2.08.212 1.397.163 2.816.471 4.067.152.618.434 1.219.807 1.598.087.076.141.07.109.076-.017.021.048-.027.119-.174.146-.298.287-.606.412-.915.509-1.251.823-2.584 1.088-3.932l1.576-8.152zM73.19 65.894l-.46.655c-.297.412-.671 1.03-1.094 1.771-.427.743-.834 1.653-1.197 2.644-.048.119-.048.206-.043.151.005-.048-.097-.124-.005-.075.157.032.509.075.747.102a9.276 9.276 0 001.647.022c.276-.016.547-.043.823-.081l.417-.065c.195-.016.52-.081.834.26.385.59.152.98.065 1.273-.12.292-.255.552-.406.807-.293.52-.758.915-.84 1.191-.119.217.147.401.596.498.78.185 1.511.158 1.993.05.488-.104.764-.217.764-.217s-.228.19-.71.395c-.476.19-1.218.428-2.16.309-.201-.027-.483-.06-.759-.222-.298-.147-.52-.607-.422-.97.184-.704.585-1.018.79-1.462.244-.374.412-1.138.374-1.04.006.01.027.032.076.054l-.043-.022.054.022c.027.005.005 0-.049.01l-.433.082a8.426 8.426 0 01-.905.103c-.606.032-1.218.01-1.809-.06-.325-.043-.536-.065-.92-.173-.168-.032-.542-.282-.58-.617-.043-.33.065-.51.114-.64.444-1.023 1.018-1.9 1.532-2.621 1.057-1.43 2.01-2.134 2.01-2.134zm-16.649 33.44a38.43 38.43 0 00-.395 6.348 30.71 30.71 0 00.238 3.152c.044.52.25.796.499.775.33.01.785-.239 1.175-.537l1.289-.942.645-.471c.097-.071.21-.168.4-.26.157-.081.51-.201.85.032.299.233.326.482.364.634.027.119.054.271.07.45.027.314.005.612-.027.904-.076.58-.244 1.1-.368 1.603-.065.249-.12.493-.152.731-.049.233-.027.526-.033.45-.13-.092-.048.005.271-.098.2-.054.412-.135.618-.249.818-.455 1.457-1.289 1.998-2.161l.818-1.316-.049 1.544a5.81 5.81 0 001.03 3.542c.119.173.249.336.39.498.162.13.037.119.178.054.103-.097.233-.319.369-.492a7.402 7.402 0 011.484-1.42 6.68 6.68 0 012.442-1.094 7.347 7.347 0 00-2.258 1.327 6.6 6.6 0 00-1.262 1.457c-.13.185-.2.363-.401.591a.63.63 0 01-.51.211c-.243-.027-.367-.168-.454-.249a6.353 6.353 0 01-1.197-1.712 6.326 6.326 0 01-.628-2.735l.769.222c-.564.932-1.224 1.885-2.27 2.508a3.77 3.77 0 01-.855.357c-.163.006-.726.314-1.22-.249-.308-.541-.145-.828-.145-1.11a7.59 7.59 0 01.151-.834c.125-.536.266-1.035.341-1.517a3.34 3.34 0 00.038-.688c.022-.146-.146-.606-.032-.4.265.065.038.005-.179.222l-.655.46-1.31.915c-.461.309-.97.672-1.723.667a1.206 1.206 0 01-.585-.179 1.192 1.192 0 01-.407-.412c-.195-.341-.216-.666-.238-.942a32.225 32.225 0 01-.054-3.234c.06-2.161.412-4.3.98-6.353zm84.413 9.224s.373 1.37.65 3.488c.119 1.056.254 2.296.287 3.634 0 .173.016.406-.12.693-.113.271-.476.499-.736.515-.515.081-.964-.152-1.246-.282a7.08 7.08 0 01-1.825-1.338c-.526-.525-.97-1.099-1.392-1.657l-.612-.834-.282-.385c-.076-.097-.054-.021.038-.054-.049-.097-.146.834-.152 1.381-.048.629-.032 1.132-.135 1.755-.065.32-.292.645-.628.742-.314.092-.591.022-.813-.076-.46-.2-.682-.568-.855-.812-.32-.531-.569-.785-.569-.785s.309.195.715.666c.211.222.46.498.828.59.385.103.753-.022.78-.428.033-.428-.027-1.072-.038-1.657l-.032-.932a1.712 1.712 0 01.07-.601c.071-.195.152-.482.547-.65.423-.152.78.119.91.282l.342.417.633.812c.423.542.856 1.073 1.333 1.544.46.477.996.894 1.532 1.175.336.174.542.249.721.239.092-.028.092.054.119-.309.027-1.311.054-2.54.022-3.591a518.244 518.244 0 00-.092-3.542zm-12.978 21.73c.352 1.376.607 2.773.818 4.176.108.704.195 1.408.255 2.118.059.72.124 1.392.141 2.15-.006.379-.109.877-.483 1.202-.33.374-1.099.369-1.435-.005-.639-.688-.791-1.295-1.164-1.928l-.97-1.885-.487-.943-.228-.433c-.038-.081-.065-.016.033-.027.038-.065-.217.26-.206.444a9.481 9.481 0 00-.06 1.013c-.005.682.055 1.392.033 2.134-.049.764-.103 1.462-.558 2.313-.087.173-.45.357-.677.287-.233-.049-.32-.114-.46-.211-.141-.12-.266-.206-.428-.38a3.962 3.962 0 01-.699-.969c-.71-1.354-.899-2.795-1.657-3.835a.959.959 0 00-.217-.254c-.022.027.146-.049.081-.022-.076.114-.168.596-.26.899l-.531 2.053-.07.265-.265-.016a.944.944 0 01-.672-.374 1.72 1.72 0 01-.287-.568c-.114-.396-.141-.732-.2-1.089a23.191 23.191 0 01-.217-2.134 28.738 28.738 0 01.049-4.263c.043 1.419.135 2.833.335 4.225.103.699.223 1.392.353 2.08.07.341.129.709.232.991.103.298.287.509.439.488l-.33.249.428-2.08c.103-.374.07-.618.298-1.143.092-.298.693-.52.985-.303.282.151.412.352.52.493.926 1.272 1.138 2.762 1.777 3.894.151.276.346.552.541.736.076.093.239.212.374.32 0 0 .071.033.016.011-.054-.033-.233.065-.222.086.201-.411.342-1.159.347-1.798.032-.671-.011-1.375 0-2.107a9.09 9.09 0 01.081-1.105c.125-.482.195-.937.932-1.218.46-.098.78.206.91.433.13.222.173.341.26.509l.471.953.937 1.902c.325.59.596 1.392.921 1.749.265.33.769-.027.78-.677a30.587 30.587 0 00-.033-2.085l-.108-2.113c-.081-1.402-.244-2.805-.423-4.208zm33.63 11.071c.525 2.67.915 5.351 1.235 8.043.048.655.265 1.338-.011 2.226-.13.45-.661.91-1.213.883-.575-.022-.937-.341-1.208-.612-.547-.601-.834-1.148-1.235-1.717l-1.11-1.701.568.092c-.227.109-.303.585-.265 1.078.021.509.065 1.17-.428 1.679-.255.255-.661.287-.942.19a1.903 1.903 0 01-.721-.439 1.985 1.985 0 01-.628-1.435c.108.509.411.942.807 1.218.384.271.926.396 1.126.109.109-.125.174-.336.185-.553a2.932 2.932 0 00-.055-.704c-.037-.265-.07-.541-.037-.856.027-.303.162-.687.476-.931l.32-.249.249.341 1.197 1.641c.406.52.78 1.17 1.159 1.56.195.2.428.325.542.314.135-.011.227-.049.308-.249.174-.412.038-1.121.006-1.798-.19-2.703-.325-5.411-.325-8.13zm-74.496 2.339s.266 2.253.542 5.633l.212 2.73.113 1.489c.006.12.033.25.011.466a.91.91 0 01-.12.347c-.07.141-.308.298-.508.281-.46-.065-.493-.259-.601-.314l-.298-.276a10.034 10.034 0 01-2.01-2.746c-.568-1.013-.72-2.318-1.24-3.028-.12-.168-.325-.346-.385-.352 0 0-.043-.005.017 0-.022 0-.103-.005-.07 0 .043-.005.005.006.005.006-.022.005-.07.054-.114.119-.211.292-.076.726-.081 1.43-.044.352-.05.726-.526 1.099a.77.77 0 01-.47.109 1.206 1.206 0 01-.326-.082 2.982 2.982 0 01-.422-.195c-.553-.308-.965-.736-1.327-1.137-.347-.39-.726-.845-.986-1.089-.06-.054-.103-.043-.043-.054.075-.027.054-.065.016.022l-.266.671c-.086.228-.173.45-.26.672-.102.168-.092.558-.617.753-.59.032-.682-.368-.823-.477a8.304 8.304 0 01-.401-.541c-.986-1.484-1.18-2.985-1.197-3.976 0-1.007.173-1.554.173-1.554s-.086.568.016 1.543c.093.964.477 2.356 1.457 3.667.125.163.244.314.396.477.14.189.33.287.238.243.114-.335.228-.687.347-1.045l.233-.715c.048-.135.178-.417.514-.498.314-.065.526.065.666.152.52.411.78.79 1.154 1.175.352.374.715.726 1.121.937.087.043.184.092.325.141.114.032.054.005-.005.038-.027.038.114-.195.092-.38.032-.384-.238-1.148.173-1.863.103-.173.239-.352.466-.476a.943.943 0 01.406-.125c.103-.011.087 0 .141-.005.125.005.146.016.222.032.488.163.683.428.91.699.406.569.552 1.175.71 1.706.151.531.33 1.024.563 1.5a9.255 9.255 0 001.782 2.54l.276.266c.087.108.233.152.043.103-.21.032-.206.179-.184.081.016-.038.006-.168.006-.303-.011-.509-.017-1.008-.028-1.495-.016-.97-.032-1.89-.048-2.741-.038-3.396.01-5.66.01-5.66zm24.628 18.264c.217.791.385 1.587.553 2.378l.222 1.197.114.595c0 .179.205.569-.315.965-.216.146-.612.054-.725-.06a1.235 1.235 0 01-.32-.341l-.325-.547-.601-1.057c-.195-.341-.401-.736-.58-1.023-.184-.303-.406-.455-.487-.423l.401-.433-.168 1.771c-.033.309-.049.563-.108.916-.011.162-.179.579-.575.633-.362.027-.525-.135-.666-.238a12.304 12.304 0 01-2.356-2.741 27.448 27.448 0 002.757 2.205c.092.065.206.076.146.059-.081.006-.097.087-.076-.032l.022-.861.081-1.777.017-.368.384-.065c.347-.06.715.081.926.254.228.174.379.374.515.569.249.406.401.737.601 1.105l.558 1.078.26.52c.076.157.157.086-.076.13-.141.168 0 .048-.049-.147l-.032-.606-.071-1.213c-.016-.813-.043-1.625-.027-2.443zm50.599 98.424a.487.487 0 01-.276-.888c.855-.59 1.912-.671 2.843-.742l.32-.027a18.141 18.141 0 005.178-1.213.489.489 0 01.357.91 19.14 19.14 0 01-5.459 1.278l-.325.027c-.889.065-1.728.13-2.367.569a.463.463 0 01-.271.086zm7.864 3.581a.444.444 0 01-.119-.017 18.098 18.098 0 00-4.441-.568.49.49 0 01-.488-.488c0-.271.217-.487.488-.487 1.576.005 3.152.206 4.68.596.26.065.417.33.352.59a.482.482 0 01-.472.374zm-18.588-28.23h-.011a.485.485 0 01-.477-.498c.071-3.705.401-7.448.986-11.114a.497.497 0 01.558-.407.49.49 0 01.406.558 78.83 78.83 0 00-.975 10.984.49.49 0 01-.487.477zm2.768 2.622h-.033a.487.487 0 01-.455-.52l.233-3.7c.022-.362.032-.677-.092-.888a.495.495 0 01.189-.666.496.496 0 01.667.19c.27.482.233 1.029.205 1.429l-.232 3.7a.478.478 0 01-.482.455zm37.583-69.605a.496.496 0 01-.341-.135c-1.403-1.354-3.093-2.302-4.88-3.299-1.208-.677-2.454-1.37-3.591-2.204-.493-.358-1.013-.818-1.132-1.49a.483.483 0 01.395-.563c.26-.054.52.13.563.396.06.335.396.617.748.877 1.094.796 2.312 1.479 3.493 2.139 1.76.986 3.586 2.004 5.081 3.451.189.184.2.492.01.687a.492.492 0 01-.346.141zm4.929-3.683a.497.497 0 01-.26-.076 74.567 74.567 0 00-10.416-5.416.488.488 0 11.379-.899 75.287 75.287 0 0110.557 5.487c.227.14.298.444.151.671a.47.47 0 01-.411.233zm-93.485 84.082a.453.453 0 01-.184-.038c-1.598-.644-3.358-.958-5.064-.953h-.006a.488.488 0 01-.005-.975c1.841.022 3.726.33 5.443 1.029a.492.492 0 01.271.634.498.498 0 01-.455.303zm-4.176-4.636a.49.49 0 01-.455-.315.48.48 0 01.282-.628 4.46 4.46 0 012.508-.195.478.478 0 01.373.574.475.475 0 01-.574.374 3.563 3.563 0 00-1.96.152.402.402 0 01-.174.038zm77.388-136.306l-5.032-10.155c-.461-.926-.937-1.89-1.251-2.887-.607-1.94-.607-4.068-.601-6.126.005-1.17.005-2.621.693-3.629.162-.238.585-.4 1.126-.45.098-.01.201-.01.298-.01.802 0 1.641.255 1.993.623l.076.07c.959.753 1.674 1.825 2.367 2.86l5.254 7.859c.639.953 1.3 1.939 1.858 2.968.146.265.265.547.401.818a4.624 4.624 0 011.857.536 23.418 23.418 0 00-.969-2.053c-.591-1.094-1.273-2.107-1.928-3.087l-5.254-7.859c-.715-1.067-1.522-2.275-2.643-3.168-.824-.824-2.356-1.1-3.429-1.019-1.013.082-1.798.472-2.22 1.084-.937 1.38-.943 3.081-.943 4.446-.005 2.172-.005 4.41.672 6.57.346 1.11.872 2.167 1.338 3.098l5.297 10.681a5.346 5.346 0 011.04-1.17zm14.569 9.365a5.549 5.549 0 01-1.186 1.121c1.457 4.907 2.654 10.172 2.026 15.344-.098.823-.526 1.696-.932 1.674-.227-.006-.509-.211-.839-.607-.78-.953-1.354-2.101-1.901-3.212l-7.139-14.396c-.46.152-.937.265-1.43.287-.022 0-.038-.005-.059-.005l7.317 14.764c.59 1.187 1.197 2.416 2.085 3.494.228.276.915 1.116 1.928 1.143h.054c1.225 0 2.151-1.154 2.367-2.963.688-5.703-.693-11.401-2.291-16.644z"/><path d="M191.352 136.029c.092 1.489.347 2.941.78 4.366.444-.19.888-.374 1.338-.564-.558-1.153-1.111-2.313-1.669-3.466-.406-.845-1.668-.108-1.262.736.558 1.154 1.111 2.313 1.669 3.467.357.747 1.576.222 1.337-.563a17.16 17.16 0 01-.725-3.976c-.065-.937-1.528-.942-1.468 0zm-21.156-22.239c.06-.136.948-1.598.276-.434-.325.564.325-.01.861-.395.84-2.865 1.663-5.741 2.535-8.596.369-1.202-1.516-1.717-1.879-.52-.959 3.142-1.863 6.305-2.779 9.457.304.466.851-.054.986.488z"/><path d="M207.292 132.844c-.184-.097-.347-.227-.509-.352a387.02 387.02 0 00-2.952 6.873c-.666 1.598-2.47 8.385-3.705 8.71-.736.195-3.304-1.712-4.089-2.048-2.232-.958-4.544-1.728-6.862-2.448-4.956-1.527-10.01-2.762-15.068-3.894a315.308 315.308 0 00-6.403-1.37c-3.645-.743-2.464-3.321-1.646-6.44 1.175-4.485 1.349-6.971 2.611-11.429-.027-.076-.038-.162-.06-.238-.46 1.137-.271.098-1.538.552-1.148 4.117-2.286 8.244-3.358 12.382-1.479 5.698-.352 6.25 4.896 7.344 5.6 1.165 11.179 2.449 16.687 3.992 5.4 1.511 10.058 3.873 15.128 6.001.19.082.585.027.753-.097 1.619-1.235 1.901-3.824 2.594-5.671 1.441-3.818 3.077-7.566 4.718-11.309a1.42 1.42 0 01.049-.103 5.138 5.138 0 01-1.246-.455zm12.262-34.29c-6.456-1.912-13.14-2.87-19.65-4.55a136.31 136.31 0 01-9.213-2.73c-2.589-.866-5.698-2.686-8.444-2.778a.96.96 0 00-.839.482c-.699 1.273-.997 2.773-1.436 4.149-.379 1.197 1.501 1.711 1.88.52 1.451-4.566 6.678-1.008 9.982.054a136.483 136.483 0 0011.802 3.207c3.483.78 7.003 1.397 10.475 2.23 1.451.348 3.645.532 4.929 1.301 1.82 1.089 1.386 1.581 1.067 2.995-.748 3.32-3.25 6.938-4.685 10.026-1.094 2.35-2.156 4.712-3.239 7.068.2.021.401.038.606.081.434.097.834.298 1.219.531 1.695-3.7 3.412-7.393 5.135-11.082 1.072-2.291 2.339-4.571 3.244-6.933 1.137-2.968.005-3.731-2.833-4.571zm-50.875-11.932c-3.526-.812-4.907 3.727-4.127 6.494.612 2.183 2.373 4.203 3.57 6.088 1.056 1.658 1.901 3.922 3.959 4.42 1.219.292 1.738-1.582.52-1.88-1.647-.395-3.44-4.533-4.252-5.811-.558-.872-1.229-1.739-1.614-2.708-.238-.596-.883-5.26 1.43-4.723 1.219.281 1.739-1.598.514-1.88z"/><path d="M217.864 98.31c-.021-.975-.238-2.172-1.186-2.67-.942-.493-2.118-.211-2.897.45-1.501 1.261-2.167 4.446.032 5.302 1.17.455 1.674-1.43.52-1.88-.439-.167 1.517-4.045 1.582-1.202.032 1.257 1.982 1.257 1.949 0zm-7.631-1.814c.124-1.165.022-2.427-1.343-2.724-1.219-.266-2.156.65-2.611 1.678-.439.986-1.083 2.941-.292 3.89.725.871 2.459.644 2.908-.396.493-1.137-1.186-2.134-1.684-.986.13-.07.26-.065.4.022l.049-.439c.065-.406.179-.818.341-1.197.076-.184.369-.677.396-.682-.109.005-.109.688-.119.834-.125 1.246 1.825 1.24 1.955 0zm-6.104-1.132c.265-.959.271-2.178-.748-2.703-.926-.477-1.96.043-2.448.883-.829 1.43-1.137 5.692 1.625 4.918 1.208-.336.693-2.215-.52-1.88.39-.108.244-.915.309-1.234a4.24 4.24 0 01.179-.64c-.19-.238-.277-.19-.277.141-.336 1.208 1.544 1.723 1.88.515zm-5.411-1.116c.184-1.11.13-2.405-1.083-2.892-1.181-.477-2.275.406-2.735 1.435-.499 1.11-.742 2.708-.466 3.91.287 1.268 1.787 1.176 2.702.71 1.116-.568.13-2.253-.985-1.684-.206.14-.287.157-.249.049.151.195.297.39.449.585-.141-.618-.043-1.457.092-2.059.071-.314.163-.623.325-.899a.337.337 0 00.087-.292 1.33 1.33 0 01-.016.617c-.201 1.23 1.679 1.755 1.879.52zm-6.213-1.955c.439-2.22-2.41-3.754-3.78-1.75-.98 1.436-1.397 4.848.926 5.254 1.224.217 1.755-1.663.52-1.88-.439-.075-.254-.953-.195-1.272.038-.211.092-.439.168-.64-.157.396.672-1.185.482-.227-.238 1.224 1.636 1.75 1.879.515zm-5.075-2.199c.038-1.045-.395-2.226-1.554-2.443-1.159-.217-1.966.688-2.351 1.668-.368.943-.79 2.248-.503 3.266.308 1.073 1.359 1.365 2.339 1.441 1.252.098 1.246-1.852 0-1.95-.341-.027-.39.022-.471-.276-.054-.195.13-.737.179-.926.076-.298.146-.623.282-.894.173-.363.146-.347.13.12-.044 1.245 1.906 1.245 1.949-.006zm23.177 19.488c-1.338-.721-2.687-1.36-4.117-1.864-2.329-.817-4.257-2.074-6.505-3.038-2.93-1.262-6.163-1.587-9.126-2.692-1.175-.439-1.684 1.446-.52 1.88 3.223 1.202 6.781 1.457 9.879 3.076 3.082 1.609 6.332 2.67 9.403 4.317 1.105.601 2.091-1.084.986-1.679zm-3.12 5.313c-2.113-1.685-4.886-2.053-7.312-3.179-2.589-1.203-5.703-1.669-8.108-3.104-.428-.255-.834-.141-1.111.13.206.531.32 1.089.347 1.657 2.156 1.214 4.696 1.495 6.949 2.541 2.329 1.083 5.893 1.771 7.854 3.336.975.769 2.361-.601 1.381-1.381zm-4.035 5.042c-3.196-1.191-6.234-2.708-9.273-4.241-1.116-.563-2.107 1.116-.986 1.685 3.19 1.614 6.386 3.19 9.739 4.441 1.18.434 1.69-1.446.52-1.885zm-3.131 10.059a23.27 23.27 0 00-2.334-1.122c-.65-.265-1.901-.417-2.356-.953-.813-.959-2.188.428-1.376 1.376.558.661 1.43.796 2.21 1.067 1.002.347 1.95.796 2.876 1.305 1.094.618 2.08-1.067.98-1.673zm8.58 3.379c-1.49 3.699-2.86 7.437-3.971 11.26-.541 1.864-.769 3.797-1.164 5.693-.336 1.619-.011 1.608-1.165 1.646-.433.017-2.074-1.056-2.464-1.245-3.531-1.679-7.209-3.066-10.876-4.409-7.897-2.898-15.989-5.27-23.831-8.303-.585-.228-.84.715-.26.937 12.598 4.869 26.669 7.61 38.303 14.656.255.152.656.016.715-.292 1.306-6.879 3.548-13.438 6.094-19.894a4.968 4.968 0 01-1.381-.049zm6.115-11.401c2.746-6.543 5.427-13.118 7.382-19.959.173-.607-.769-.861-.937-.26-1.907 6.673-4.599 13.069-7.366 19.439.33.222.644.477.921.78z"/><path d="M208.061 123.09c.612 2.518 4.122 3.851 6.407 4.23 2.281.379 4.588-1.062 3.315-3.602-1.083-2.161-4.062-3.878-6.391-4.192-2.031-.277-4.598.948-3.385 3.325.568 1.116 2.253.13 1.684-.985-.449-.883 3.055.054 3.299.178a9.437 9.437 0 012.589 1.928c.731.786.233 1.62-.862 1.42a9.905 9.905 0 01-1.576-.434c-1.067-.39-2.914-1.191-3.206-2.394-.293-1.213-2.172-.698-1.874.526z"/><path d="M208.548 121.898c-1.473.152-2.594 1.143-2.773 2.665-.206 1.739 1.04 3.261 2.313 4.268 2.714 2.145 7.409 2.762 8.986-1.013.482-1.153-1.403-1.663-1.88-.52-.85 2.042-3.678 1.409-5.107.553-.807-.482-4.073-3.748-1.533-4.008 1.229-.125 1.24-2.075-.006-1.945z"/><path d="M205.716 125.311c-1.316 1.029-2.194 3.233-1.728 4.885.536 1.89 2.351 2.838 4.051 3.483 1.815.682 3.895 1.641 5.747.547 1.554-.916 2.031-2.643 1.679-4.328-.255-1.229-2.134-.709-1.879.52.736 3.521-3.418 1.993-5.027 1.381-1.007-.384-2.377-.931-2.692-2.118-.276-1.034.428-2.366 1.224-2.989.986-.775-.4-2.145-1.375-1.381zM70.922 94.465c8.373 17.159 24.958 27.347 43.86 28.972 9.847.845 20.17 1.164 29.909-.775 10.713-2.134 20.387-7.604 30.975-10.188 1.219-.298.705-2.177-.52-1.879-8.931 2.177-17.142 6.385-25.949 8.942-9.5 2.762-19.412 2.741-29.21 2.275-10.61-.504-19.747-2.454-28.868-8.065-8.536-5.254-14.126-11.271-18.518-20.268-.547-1.12-2.227-.135-1.68.986z"/><path d="M67.834 102.503c8.628 16.958 23.631 27.309 42.55 29.854 22.099 2.979 43.661-4.539 63.847-12.668 1.148-.461.645-2.351-.52-1.88-18.675 7.523-38.352 14.537-58.815 13.064-19.959-1.435-36.3-11.498-45.383-29.35-.568-1.122-2.247-.141-1.679.98zm111.342 10.101a.97.97 0 01-.471-1.825l4.858-2.654c.975-.531 2.075-1.138 2.698-2.026.714-1.024.742-2.535.065-3.591-.174-.271-.293-.352-.353-.379-.043-.022-.151-.043-.33-.032-.888.07-1.674.812-2.502 1.603l-.531.498c-.688.623-1.43 1.17-2.145 1.695-.655.482-1.311.964-1.923 1.506-.937.84-2.069 2.161-2.139 3.705-.027.536-.504 1.002-1.018.926a.973.973 0 01-.926-1.018c.102-2.221 1.576-3.981 2.789-5.07.655-.585 1.359-1.105 2.063-1.625.71-.52 1.376-1.013 1.988-1.571l.499-.465c.991-.943 2.112-2.01 3.688-2.129.477-.038.905.027 1.278.195.461.2.851.563 1.197 1.1 1.105 1.717 1.062 4.089-.108 5.762-.883 1.262-2.259 2.015-3.358 2.616l-4.859 2.654a.873.873 0 01-.46.125z"/><path d="M189.629 120.225c-.617 0-1.186-.092-1.608-.163l-5.286-.866c-3.099-.504-5.834-.829-8.109.325a.976.976 0 01-.882-1.739c3.027-1.538 6.656-.942 9.305-.509l5.286.867c1.013.167 2.015.254 2.535-.223.211-.249.433-1.429.33-1.809-.173-.373-1.527-1.559-1.982-1.7-.499-.163-.813-.688-.677-1.192.135-.504.596-.818 1.121-.704.996.222 3.136 2.047 3.418 3.093.249.92-.049 2.962-.889 3.748-.742.688-1.695.872-2.562.872z"/><path d="M180.416 115.924a.97.97 0 01-.964-.872.971.971 0 01.867-1.072 42.03 42.03 0 008.677-1.874c1.023-.342 1.57-.704 1.668-1.121.049-.195.005-.461-.119-.748-.271-.634-1.04-1.257-1.955-1.587-.813-.292-1.598-.319-2.113-.059a.975.975 0 01-1.305-.434.966.966 0 01.433-1.305c.997-.504 2.329-.515 3.656-.033 1.441.526 2.589 1.512 3.077 2.649.292.682.373 1.37.227 1.977-.401 1.668-2.259 2.28-2.957 2.513a43.99 43.99 0 01-9.078 1.961c-.043.005-.081.005-.114.005z"/></g><defs><clipPath id="clip0_2382_4931"><path fill="#fff" transform="translate(48)" d="M0 0h174.826v270H0z"/></clipPath></defs></svg>