<svg width="49" height="39" fill="none" xmlns="http://www.w3.org/2000/svg"><path fill="#F5F5F5" d="M0 0h49v39H0z"/><g clip-path="url(#clip0_0_1)" fill="#F9FCFF"><path d="M30.747 5.253l.004 11.881V18c0 7.04-5.71 12.749-12.75 12.749-7.039 0-12.748-5.71-12.748-12.75 0-7.043 5.71-12.749 12.749-12.749 2.803 0 5.396.907 7.5 2.438V1.632A17.98 17.98 0 0017.999 0C8.06 0 0 8.06 0 18.002c0 9.94 8.059 17.999 17.998 17.999 9.94 0 17.998-8.06 17.998-17.999.004-4.977-1.989-9.493-5.249-12.749z"/><path d="M17.998 10.502a7.5 7.5 0 00-7.5 7.5 7.5 7.5 0 007.5 7.501 7.5 7.5 0 007.5-7.5 7.5 7.5 0 00-7.5-7.501z"/></g><g clip-path="url(#clip1_0_1)"><path d="M43.498 28.631c-.366 0-.73.035-1.09.103-.27-1.271-1.144-2.356-2.371-2.943a4.741 4.741 0 00-3.921-.067c-1.13-2.934-4.57-4.448-7.684-3.383-3.113 1.065-4.72 4.307-3.59 7.24-2.728.081-4.882 2.208-4.841 4.779.04 2.57 2.262 4.636 4.99 4.64h18.507C46.536 39 49 36.679 49 33.816c0-2.864-2.464-5.185-5.502-5.185z" fill="#A3D4F7"/></g><defs><clipPath id="clip0_0_1"><path fill="#fff" d="M0 0h36v36H0z"/></clipPath><clipPath id="clip1_0_1"><path fill="#fff" transform="translate(20 22)" d="M0 0h29v17H0z"/></clipPath></defs></svg>