<svg width="58" height="44" fill="none" xmlns="http://www.w3.org/2000/svg"><g clip-path="url(#clip0_465_9515)"><path fill="#fff" d="M0 .001h58v44H0z"/><path d="M58 21.02v1.963c-.018.107-.041.212-.053.318-.099.854-.163 1.714-.3 2.562a21.327 21.327 0 01-2.841 7.685c-2.175 3.596-5.115 6.338-8.81 8.21a20.182 20.182 0 01-6.796 2.063c-.525.063-1.05.119-1.575.178H17.25c-.103-.02-.205-.051-.309-.057a16.98 16.98 0 01-5.915-1.463c-4.102-1.846-7.16-4.838-9.163-8.956a17.99 17.99 0 01-1.692-5.794L0 26.259v-1.906c.02-.106.05-.211.056-.317a17.945 17.945 0 011.115-5.318c1.73-4.597 4.746-8.007 9.033-10.214 2.224-1.145 4.595-1.747 7.074-1.88a19.112 19.112 0 013.634.17.45.45 0 00.343-.114 21.522 21.522 0 015.939-4.426A20.356 20.356 0 0134.023.183c.563-.066 1.128-.12 1.692-.18h1.737c.114.017.228.038.342.052.86.103 1.726.168 2.578.314 2.66.46 5.136 1.441 7.428 2.9 3.513 2.237 6.19 5.265 8.02 9.077a21.597 21.597 0 012.007 6.994c.062.56.115 1.12.173 1.68zM25.57 8.312c.035.047.044.07.058.076a23.09 23.09 0 013.408 2.12c.068.05.236.03.318-.024 2.954-1.925 6.156-2.589 9.596-1.961 3.37.614 6.114 2.346 8.21 5.113 2.373 3.13 3.277 6.671 2.622 10.61-.439 2.64-1.467 5.009-3.215 6.993-3.189 3.617-7.182 5.113-11.883 4.48-2.893-.39-5.391-1.674-7.459-3.823-2.654-2.757-5.324-5.496-7.986-8.245-.354-.366-.75-.661-1.26-.725-.892-.113-1.702.345-2.087 1.17-.344.736-.3 1.565.446 2.32 2.967 2.995 5.908 6.018 8.871 9.016.507.516 1.051.992 1.628 1.424 2.164 1.617 4.605 2.511 7.248 2.871 2.075.282 4.133.222 6.176-.25 3.896-.9 7.124-2.946 9.666-6.102 2.099-2.608 3.368-5.605 3.81-8.97a18.075 18.075 0 00-.158-5.768c-.59-3.108-1.868-5.889-3.916-8.256-3.908-4.513-8.825-6.528-14.676-6.078-2.251.172-4.38.852-6.384 1.931a16.817 16.817 0 00-3.033 2.078zM24.14 39.82l-.241-.23c-1.213-1.179-2.433-2.35-3.631-3.542-.232-.231-.446-.343-.774-.336-1.214.03-2.43.036-3.625-.242-5.948-1.383-9.402-8.034-7.21-13.887 1.729-4.614 6.516-7.425 11.236-6.558 2.115.388 3.972 1.31 5.497 2.926 1.859 1.974 3.773 3.891 5.652 5.845.427.444.919.647 1.511.56.766-.112 1.375-.487 1.652-1.26.271-.76.14-1.48-.42-2.062-1.972-2.055-3.897-4.161-5.948-6.128-3.98-3.818-8.672-4.953-13.862-3.33-6.98 2.182-11.066 9.595-9.471 16.91 1.453 6.666 7.121 11.344 13.753 11.35 1.852.002 3.704.001 5.556 0 .091 0 .183-.008.325-.016z" fill="#CDD9E8"/></g><defs><clipPath id="clip0_465_9515"><path fill="#fff" transform="translate(0 .001)" d="M0 0h58v44H0z"/></clipPath></defs></svg>