<svg width="36" height="36" fill="none" xmlns="http://www.w3.org/2000/svg"><g clip-path="url(#clip0_569_58332)"><path d="M24.137 10.104a11.274 11.274 0 00-1.048-2.62l.899-2.095-3.144-3.068-2.096.898c-.823-.45-1.646-.823-2.619-1.048L15.38.001h-4.415l-.824 2.17c-.898.225-1.796.599-2.62 1.048L5.427 2.32 2.358 5.389l.898 2.096c-.45.823-.824 1.647-1.048 2.62l-2.17.823v4.415l2.17.824a11.27 11.27 0 001.048 2.62l-.898 2.095L5.5 23.95l2.096-.899c.823.45 1.646.824 2.62 1.048l.822 2.17h4.341l.824-2.17a11.273 11.273 0 002.62-1.048l2.095.899 3.143-3.07-.898-2.095c.45-.823.823-1.646 1.048-2.62l2.17-.822v-4.416l-2.245-.824zm-11.002 8.383a5.366 5.366 0 01-5.389-5.389 5.366 5.366 0 015.39-5.389 5.366 5.366 0 015.388 5.39 5.366 5.366 0 01-5.389 5.388z" fill="#9AAABD"/><path d="M16.952 16.915a5.33 5.33 0 01-7.56 0l-1.945 1.946c3.143 3.144 8.307 3.144 11.45 0 3.144-3.143 3.144-8.233 0-11.45l-1.945 1.945a5.33 5.33 0 010 7.56z" fill="#CDD9E8"/><path d="M7.447 7.41c-3.144 3.144-3.144 8.233 0 11.451l1.946-1.946a5.33 5.33 0 010-7.559 5.33 5.33 0 017.559 0l1.946-1.946c-3.143-3.143-8.308-3.143-11.451 0z" fill="#6F8196"/><path d="M25.41 30.687a3.63 3.63 0 000-1.273l.748-.748-.749-1.871h-1.047c-.225-.3-.6-.599-.899-.898v-1.048l-1.87-.749-.75.749a3.63 3.63 0 00-1.271 0l-.749-.749-1.871.749v1.048c-.3.224-.599.598-.898.898h-1.048l-.748 1.87.748.75a3.635 3.635 0 000 1.272l-.748.748.748 1.871h1.048c.224.3.599.599.898.898v1.048l1.871.748.748-.748c.45.075.824.075 1.273 0l.748.748 1.871-.748v-1.048c.3-.224.6-.599.898-.898h1.048l.749-1.871-.749-.748zm-5.988 1.571c-1.273-.524-1.871-1.946-1.347-3.143.524-1.272 1.945-1.871 3.143-1.347 1.272.524 1.871 1.946 1.347 3.143-.524 1.273-1.946 1.871-3.143 1.347z" fill="#9AAABD"/><path d="M35.214 20.882a3.63 3.63 0 000-1.272l.748-.749-.748-1.87h-1.048c-.224-.3-.599-.6-.898-.899v-1.048l-1.871-.748-.748.748a3.635 3.635 0 00-1.273 0l-.748-.748-1.871.748v1.048c-.3.225-.599.599-.899.898h-1.047l-.749 1.871.749.749a3.63 3.63 0 000 1.272l-.749.749.749 1.87h1.047c.225.3.6.6.899.899v1.048l1.87.748.75-.748c.448.075.823.075 1.271 0l.749.748 1.871-.748V24.4c.3-.225.599-.599.898-.898h1.048l.748-1.871-.748-.749zm-6.062 1.647c-1.273-.524-1.871-1.946-1.348-3.144.524-1.272 1.947-1.87 3.144-1.347 1.272.524 1.871 1.946 1.347 3.143-.449 1.273-1.871 1.872-3.143 1.348z" fill="#6F8196"/></g><defs><clipPath id="clip0_569_58332"><path fill="#fff" d="M0 0h36v36H0z"/></clipPath></defs></svg>