<svg width="270" height="181" fill="none" xmlns="http://www.w3.org/2000/svg"><g clip-path="url(#clip0_2188_775)" fill="#153051"><path d="M110.42 153.296c-.506-.366-1.119-.366-1.631-.186-.259.09-.495.231-.692.399a2.664 2.664 0 00-.529.591c-.298.45-.518.968-.72 1.513-.191.563-.417 1.12-.445 1.564-.011.22.023.394.102.518.084.141.174.225.377.338.185.101.427.185.675.247.309.079.523.113.81.152 1.08.163 2.205.045 3.252-.281l.073-.023a.623.623 0 01.399 1.182c-.32.118-.585.444-.754.911-.157.467-.219 1.018-.236 1.57-.017.534.096.889.608 1.074.472.18 1.074.023 1.637-.123-.484.315-1.035.647-1.733.579a1.53 1.53 0 01-.506-.135 1.278 1.278 0 01-.456-.343c-.259-.31-.332-.687-.383-.996-.09-.613-.118-1.243.023-1.913.073-.332.186-.675.394-.996a2.23 2.23 0 01.9-.782l.467 1.159c-1.215.512-2.566.659-3.876.501a6.948 6.948 0 01-.962-.202 4.019 4.019 0 01-1.008-.406c-.326-.18-.703-.517-.888-.922-.203-.417-.22-.872-.175-1.249.118-.765.428-1.317.692-1.862.281-.552.602-1.137 1.075-1.621.242-.247.495-.467.804-.63.31-.157.636-.253.968-.292.658-.068 1.384.14 1.738.664zm-27.494-8.31s-.22.09-.422.377c-.213.281-.365.754-.602 1.361-.225.597-.506 1.272-.708 1.986-.197.704-.327 1.474-.225 2.144.044.332.14.579.337.838.203.259.439.518.731.754a7.8 7.8 0 001.7 1.063 8.817 8.817 0 001.412.507c.365.09.58.14.58.14s-.21.073-.592.135c-.382.057-.95.102-1.626-.011a5.773 5.773 0 01-2.205-.844c-.349-.23-.748-.512-1.069-.917-.332-.399-.59-.956-.652-1.468-.113-1.03.106-1.975.455-2.768.343-.793.777-1.429 1.165-1.952.371-.512.754-.979 1.125-1.182.36-.208.602-.152.596-.163zm19.534-17.795s-.321-.107-.771.101c-.456.197-.945.692-1.457 1.413-.512.703-1.064 1.552-1.384 2.514a4.482 4.482 0 00-.192.726 5.8 5.8 0 00-.09.771 5.147 5.147 0 00.158 1.57c.23 1.04.76 2.025 1.412 2.796.36.41.692.731 1.08 1.04.377.299.76.557 1.131.771.748.428 1.435.703 1.924.878.495.174.788.259.788.259s-.304.033-.839.016a7.737 7.737 0 01-2.205-.421 7.282 7.282 0 01-1.39-.642 6.887 6.887 0 01-1.378-1.052c-.9-.861-1.564-2.036-1.885-3.33a6.496 6.496 0 01-.14-1.975 5.18 5.18 0 01.163-.957 5.93 5.93 0 01.315-.905c.5-1.137 1.255-1.975 1.935-2.605.659-.636 1.401-1.086 1.981-1.142.59-.056.844.202.844.174zm-20.063-11.663c-1.271.209-2.475.771-3.223 1.705a3.802 3.802 0 00-.484.737 3.855 3.855 0 00-.253.793 3.052 3.052 0 00.101 1.626c.163.495.495.934.906 1.21.427.292.956.461 1.502.54 1.108.146 2.267-.191 3.466-.58l.016-.005a.687.687 0 01.62 1.209c-.676.49-1.103 1.317-1.244 2.206a4.219 4.219 0 00.197 2.02c.073.208.191.433.281.602a5.245 5.245 0 00.917 1.102c.36.321.777.58 1.221.81.889.456 1.918.664 2.97.67-1.023.275-2.137.214-3.195-.09a5.315 5.315 0 01-1.508-.72 6.035 6.035 0 01-.67-.535 5.86 5.86 0 01-.556-.636 5.368 5.368 0 01-.462-.776 5.447 5.447 0 01-.303-.833 5.295 5.295 0 01-.141-1.76c.096-1.182.653-2.391 1.676-3.162l.636 1.198c-1.22.445-2.633.838-4.107.625a4.355 4.355 0 01-2.064-.856 3.478 3.478 0 01-1.26-1.912 4.09 4.09 0 01.067-2.195 3.85 3.85 0 01.467-1.001c.174-.259.439-.574.686-.799 1.058-.928 2.453-1.316 3.741-1.193z"/><path d="M96.744 178.933c-.332.563-1.013.878-1.649 1.024-.652.146-1.271.231-1.93.298-.652.056-1.344.062-2.059-.084a4.059 4.059 0 01-1.316-.518c-.073-.045-.124-.067-.22-.141a4.86 4.86 0 01-.466-.382c-1.137-1.08-1.626-2.566-1.778-3.961a9.04 9.04 0 01.506-4.242l2.065 1.272a5.08 5.08 0 01-2.031 1.462l-.552.18c-.23.051-.5.113-.703.13a4.54 4.54 0 01-1.266-.023c-1.66-.253-3.077-1.181-4.05-2.492a5.965 5.965 0 01-.647-1.125c-.062-.158-.113-.27-.18-.467-.062-.208-.14-.439-.169-.625a7.246 7.246 0 01-.13-2.329 8.508 8.508 0 011.615-4.146l1.75 1.89a5.227 5.227 0 01-5.553-.332c-.804-.602-1.328-1.4-1.682-2.171-.09-.197-.169-.405-.23-.563a6.074 6.074 0 01-.203-.619 7.513 7.513 0 01-.248-1.226 8.366 8.366 0 01.068-2.459c.135-.815.427-1.558.81-2.278.765-1.401 1.997-2.498 3.387-3.061a7.523 7.523 0 00-2.408 3.494 6.964 6.964 0 00-.32 2.003 6.806 6.806 0 00.247 1.969c.09.315.202.624.32.923.062.157.13.287.192.422.09.174.157.309.242.438.326.546.714.968 1.142 1.21.872.534 2.126.523 2.886-.006a1.295 1.295 0 011.806.327c.309.444.303 1.007.028 1.434l-.085.13c-.557.877-.956 1.884-1.03 2.886-.039.5 0 .99.113 1.446.023.129.062.191.085.292l.152.422c.045.09.174.36.298.518.506.731 1.361 1.311 2.21 1.446.215.045.423.05.625.05l.237-.011c.09-.011.382-.101.36-.084a2.605 2.605 0 001.074-.659l.062-.067a1.224 1.224 0 011.727-.028c.377.365.467.911.27 1.367-.427.984-.686 2.081-.68 3.184.01 1.103.247 2.205.849 2.999.58.782 1.67 1.17 2.897 1.288.608.056 1.255.129 1.857.135.59-.034 1.226-.096 1.705-.54zm-17.491-55.202c-1.53.726-2.684 1.857-3.511 3.162a10.23 10.23 0 00-1.04 2.059 12.2 12.2 0 00-.659 2.194c-.124.72-.236 1.463-.197 2.144a4.33 4.33 0 00.467 1.811c.146.282.304.507.512.737.208.237.45.462.726.675.551.422 1.204.816 1.89 1.238l.079.045a1.36 1.36 0 01.456 1.873 1.377 1.377 0 01-.94.636c-.298.051-.658.27-1.001.675-.175.197-.327.439-.484.687-.147.225-.32.579-.433.815-.507 1.126-.771 2.38-.681 3.59.028.298.079.602.157.889.029.135.102.32.113.405.067.152.14.365.197.472.101.237.275.529.456.777.185.253.399.495.624.725.928.918 2.21 1.553 3.674 1.705-1.418.428-3.078.158-4.456-.669a5.549 5.549 0 01-.973-.726 6.066 6.066 0 01-.844-.951c-.147-.191-.214-.315-.32-.478-.13-.248-.215-.388-.305-.596a7.513 7.513 0 01-.4-1.199c-.399-1.648-.196-3.353.36-4.906.164-.433.282-.737.485-1.142.191-.382.433-.748.714-1.114.557-.708 1.407-1.429 2.532-1.676l-.405 2.554c-.743-.405-1.52-.866-2.256-1.485a8.504 8.504 0 01-1.064-1.047 6.129 6.129 0 01-.855-1.327c-.472-.974-.596-2.037-.562-3.005.045-.978.22-1.884.529-2.756.58-1.694 1.507-3.286 2.768-4.546a8.75 8.75 0 012.138-1.564 8.195 8.195 0 011.215-.478 8.667 8.667 0 011.294-.203z"/><path d="M80.473 106.606c-1.327.073-2.503.675-3.398 1.541a8.049 8.049 0 00-2.008 3.072c-.203.574-.36 1.159-.405 1.744a4.504 4.504 0 00.18 1.694c.157.495.456 1.001.838 1.367.383.371.838.641 1.328.731l.017.006a.686.686 0 01.545.804.686.686 0 01-.573.551c-1.064.158-2.07.355-2.763.884-.349.264-.619.635-.85 1.074a8.878 8.878 0 00-.601 1.418c-.32.979-.495 2.003-.259 2.999.22.979.889 1.918 1.924 2.318-1.125-.124-2.065-1.047-2.52-2.127-.45-1.103-.405-2.352-.141-3.466a9.96 9.96 0 01.534-1.654c.248-.54.597-1.102 1.103-1.536 1.03-.883 2.29-1.068 3.353-1.26l-.005 1.362a3.81 3.81 0 01-2.076-1.109 4.681 4.681 0 01-1.16-1.974c-.213-.715-.236-1.486-.14-2.2.101-.72.31-1.407.608-2.042.59-1.266 1.48-2.397 2.61-3.196a5.989 5.989 0 011.857-.877 4.038 4.038 0 012.002-.124zM94.144 71.99c-1.429.517-2.526 1.597-3.077 2.824a4.434 4.434 0 00-.304.956 5.785 5.785 0 00-.101.979 4.45 4.45 0 00.366 1.857.833.833 0 01-.422 1.097l-.073.028-.164.056a7.441 7.441 0 00-3.2 1.992 8.033 8.033 0 00-1.132 1.485 6.823 6.823 0 00-.697 1.682l-.107.484c-.017.135-.034.27-.056.4a8.09 8.09 0 00-.068.905 7.247 7.247 0 00.22 1.806c.309 1.176.889 2.279 1.693 3.156l.04.045a1.353 1.353 0 01-.394 2.127c-.856.427-1.62.332-2.082.304a11.14 11.14 0 00-.585-.045c.005 0-.096 0 .005-.006l-.084.006-.169.01-.146.023c-.523.102-1.136.433-1.688.957-.275.253-.54.551-.782.866-.27.349-.478.653-.697 1.013a8.547 8.547 0 00-1.019 2.194 7.204 7.204 0 00-.242 1.159 6.262 6.262 0 00-.05 1.204 6.22 6.22 0 00.607 2.335c.175.365.411.72.664 1.023.293.332.58.608.934.889.692.535 1.491.991 2.307 1.418-.9-.186-1.806-.399-2.672-.81a5.93 5.93 0 01-1.244-.754 6.055 6.055 0 01-1.058-1.086c-.624-.804-1.007-1.772-1.226-2.773a7.906 7.906 0 01-.169-1.519c.006-.54.05-1.035.14-1.542.18-1.007.518-1.975.968-2.88.22-.434.507-.9.771-1.294.287-.428.602-.839.968-1.227.726-.765 1.665-1.53 2.937-1.806a6.05 6.05 0 01.529-.084l.168-.011.085-.006.174-.006c.315 0 .568.023.776.034.44.04.625-.017.591-.022l-.349 2.171a9.387 9.387 0 01-1.507-2.047 9.668 9.668 0 01-.872-2.369 9.854 9.854 0 01-.248-2.504c.017-.421.056-.843.118-1.26l.147-.67.168-.568A9.345 9.345 0 0185.6 80.08c1.254-1.058 2.768-1.812 4.382-2.07l-.664 1.175a6.088 6.088 0 01-.118-2.582c.068-.422.186-.833.349-1.221a8.79 8.79 0 01.27-.568 5.83 5.83 0 01.332-.535c.934-1.378 2.481-2.205 3.994-2.29zm13.66 20.214c-1.339-.186-2.7.078-3.747.793-.258.18-.506.365-.725.585a4.547 4.547 0 00-.569.714 4.468 4.468 0 00-.618 1.682 4.158 4.158 0 00.129 1.733c.051.135.09.27.157.394l.045.096s.029.056.012.022l.033.056.124.22c.135.202.321.427.529.619.821.77 2.048 1.153 3.072.85a.697.697 0 01.444 1.322l-.033.011a5.845 5.845 0 00-.799.36 4.949 4.949 0 00-.72.523 5.117 5.117 0 00-1.114 1.412c-.602 1.058-.805 2.335-.529 3.516.073.293.163.518.304.658.151.158.421.293.725.422.321.141.591.237.917.344.315.09.63.174.957.236 1.294.281 2.661.225 4-.062-1.249.591-2.673.816-4.09.748a8.597 8.597 0 01-1.064-.135 8.693 8.693 0 01-1.04-.264c-.338-.101-.715-.231-1.081-.529-.376-.315-.562-.754-.68-1.108a5.329 5.329 0 01-.231-2.262c.079-.76.298-1.497.636-2.177.686-1.35 1.873-2.493 3.37-3.005l.405 1.339c-1.598.417-3.269-.157-4.366-1.254a4.984 4.984 0 01-.726-.962l-.112-.225-.068-.147-.056-.135c-.079-.18-.129-.365-.186-.55a4.83 4.83 0 01-.022-2.268 5.092 5.092 0 01.945-2.008c.253-.31.484-.54.782-.782a5.27 5.27 0 01.923-.58c1.299-.596 2.796-.692 4.067-.203zm-2.098-23.832s.112-.169.365-.45c.259-.276.67-.675 1.317-1.001a5.01 5.01 0 011.131-.411c.427-.085.9-.203 1.479-.034.135.04.298.14.4.214.146.118.242.242.326.388.158.287.219.613.219.928.017.642-.286 1.26-.5 1.778-.225.518-.343 1.103-.147 1.446.13.304.619.248 1.418.174 1.553-.067 3.286.782 4.04 2.465.332.804.478 1.94-.321 2.84-.394.428-.911.62-1.362.72a3.192 3.192 0 01-.348.063l-.31.033c-.23.017-.433.029-.647.029-.838 0-1.626-.085-2.329-.023-.681.062-1.356.298-1.744.698-.394.371-.484.94-.416 1.688.056.708.264 1.62.039 2.582-.107.472-.349.996-.787 1.367-.062.05-.085.079-.186.14l-.124.08a2.521 2.521 0 01-.411.185 2.659 2.659 0 01-.765.13c-.973.01-1.772-.366-2.419-.563-.658-.208-1.299-.259-1.665-.034-.383.186-.608.855-.883 1.502-.276.647-.49 1.232-.805 1.89-.163.321-.427.687-.804.884-.389.202-.743.225-1.047.264-.596.062-1.21.13-1.806.045-.585-.079-1.164-.32-1.564-.692-.894-.816-.675-1.958-.365-2.57.331-.665.77-1.03 1.04-1.295l.434-.388-.377.439c-.237.287-.597.726-.844 1.35-.242.596-.265 1.564.45 2.065.709.545 1.76.483 2.93.264.625-.09.924-.225 1.143-.76.214-.528.433-1.22.658-1.856.118-.326.214-.647.371-1.024.147-.354.428-.81.839-1.08.894-.58 1.873-.377 2.633-.186.787.231 1.434.473 2.031.445.562-.045.86-.315 1.001-.906.141-.596 0-1.288-.096-2.16-.039-.428-.061-.9.045-1.407a2.8 2.8 0 01.743-1.39c.765-.742 1.727-1 2.622-1.08.894-.067 1.704.04 2.441.04.715.005 1.469-.085 1.733-.388.31-.27.343-.929.124-1.474-.461-1.114-1.705-1.913-2.897-1.913-.282-.011-.659.04-1.075-.011-.411-.034-.962-.321-1.148-.771-.371-.872-.022-1.626.225-2.172.282-.568.512-1.012.552-1.485.033-.49-.079-.844-.456-1.018-.354-.152-.833-.119-1.226-.073-.405.05-.771.151-1.086.28a5.032 5.032 0 00-1.379.81c-.275.237-.41.39-.41.39z"/><path d="M100.462 85.599a.707.707 0 01-.585-.316c-2.695-4.05-3.623-9.03-4.45-13.423l-.827-4.422c-1.001-5.345-2.036-10.875-1.637-16.456.09-1.215.27-2.475 1.018-3.5.557-.77 1.384-1.119 2.104-.9.428.136.72.434.951.704 1.89 2.245 2.43 5.13 2.954 7.921.23 1.238.467 2.515.821 3.697.315 1.068.771 2.2 1.429 3.56 1.48 3.067 3.111 5.497 4.973 7.421 2.2 2.273 4.771 3.837 7.432 4.535a.694.694 0 01.501.855.696.696 0 01-.855.5c-2.909-.759-5.705-2.458-8.085-4.91-1.969-2.032-3.685-4.58-5.232-7.787-.692-1.435-1.17-2.633-1.513-3.77-.371-1.254-.619-2.57-.855-3.842-.512-2.734-.99-5.316-2.644-7.274-.051-.062-.203-.242-.299-.276-.1-.04-.354.113-.551.383-.506.697-.67 1.614-.754 2.779-.388 5.4.63 10.841 1.615 16.096l.827 4.422c.799 4.258 1.704 9.091 4.236 12.905a.7.7 0 01-.197.974.607.607 0 01-.377.124zm21.154-21.362s-.09-.253-.152-.748a5.555 5.555 0 01.146-2.042 5.767 5.767 0 011.463-2.6c.377-.382.9-.793 1.395-1.024a5.87 5.87 0 011.756-.54c1.209-.146 2.464.09 3.448.687.501.298.917.641 1.238 1.108.27.377.512.748.731 1.091.254.428.383.749.495 1.098.113.331.147.646.147.9 0 .253-.057.444-.096.568-.045.118-.073.185-.073.185s.034-.286-.113-.714a3.352 3.352 0 00-.354-.72 7.422 7.422 0 00-.619-.799c-.287-.287-.602-.596-.911-.934-.242-.27-.642-.506-1.024-.697a4.932 4.932 0 00-2.689-.383 4.55 4.55 0 00-1.322.354c-.467.22-.811.422-1.171.72a6.21 6.21 0 00-1.547 1.975 7.588 7.588 0 00-.748 2.515zm-2.279 13.575c-.36-.821-.562-1.716-.641-2.633a6.802 6.802 0 01.332-2.784c.135-.405.377-.9.63-1.289a6.12 6.12 0 01.928-1.13c.72-.67 1.626-1.176 2.65-1.373 1.002-.175 1.986-.045 2.881.118.444.079.945.18 1.451.433.523.253.957.698 1.232 1.148.552.911.754 1.806.928 2.75.158.935.158 1.891.029 2.82l-.771-.501c.934-.467 1.991-.968 3.15-.99.585 0 1.154.146 1.643.421.49.27.889.726 1.024 1.244-.264-.467-.709-.765-1.17-.928a2.862 2.862 0 00-1.44-.107c-.962.168-1.812.72-2.706 1.266a.506.506 0 01-.771-.456v-.05a10.186 10.186 0 00-.22-2.487c-.18-.788-.467-1.638-.843-2.245-.203-.304-.417-.507-.704-.642-.292-.14-.675-.225-1.097-.31-.844-.168-1.648-.28-2.413-.162-.732.095-1.463.433-2.071.94a5.096 5.096 0 00-.844.855c-.258.337-.444.63-.641 1.046-.354.72-.557 1.57-.653 2.419-.078.86-.016 1.744.107 2.627zm19.32-18.115c-.006.028-.073-.366.377-.737.416-.338.99-.765 1.733-1.255a15.772 15.772 0 012.683-1.446c1.047-.438 2.251-.76 3.511-.81.607-.017 1.299.006 1.986.293.697.292 1.153.821 1.507 1.294a7.214 7.214 0 011.238 2.908c.175.906.13 1.671.056 2.183-.078.518-.168.8-.168.8s-.023-.3-.107-.794a9.653 9.653 0 00-.552-1.964 8.618 8.618 0 00-1.434-2.362c-.315-.377-.687-.664-1.058-.81-.377-.153-.878-.18-1.418-.147-2.143.056-4.264.928-5.867 1.57-.805.32-1.48.585-1.953.776-.472.175-.534.5-.534.5zm28.304 11.465c-.225-1.704-1.148-3.212-2.419-4.152a5.836 5.836 0 00-4.417-1.046c-.748.13-1.091.473-1.468 1.17-.18.366-.326.687-.416 1.052a5.428 5.428 0 00-.203 1.12c-.163 1.525.304 3.1 1.232 4.304l.028.034a.621.621 0 01-.118.877.624.624 0 01-.759 0 5.585 5.585 0 00-2.042-1.001 3.073 3.073 0 00-1.081-.073 2.559 2.559 0 00-.506.123 2.68 2.68 0 00-.456.237 1.96 1.96 0 00-.394.371c-.112.14-.208.298-.286.467a2.073 2.073 0 00-.068 1.66c.073.185.169.36.287.523.236.326.551.619.94.799a2.341 2.341 0 01-1.143-.625 2.575 2.575 0 01-.68-1.17 2.657 2.657 0 01.332-2.087c.112-.192.32-.433.467-.569a3.33 3.33 0 01.63-.438c.225-.113.461-.203.709-.254a3.978 3.978 0 011.457-.033c.95.14 1.811.529 2.582 1.058l-.85.916c-1.254-1.428-1.822-3.37-1.659-5.243a6.995 6.995 0 01.827-2.7c.23-.411.517-.85.979-1.193.461-.349 1.007-.5 1.479-.563a6.38 6.38 0 015.148 1.643c1.333 1.25 2.014 3.083 1.868 4.793zm25.581 2.622s.191.04.54.169c.349.135.861.366 1.39.844a5.13 5.13 0 011.434 2.126c.169.479.276 1.024.276 1.604a2.18 2.18 0 01-.214.956 1.328 1.328 0 01-.922.715c-.822.163-1.531-.338-2.003-.732-.49-.393-.99-.72-1.575-.995a6.517 6.517 0 00-.844-.332c-.096.017.107-.028.056-.012.006-.005-.034.051-.006.006l-.062.118c-.039.084-.016.068-.039.13-.141.45.107 1.175-.107 2.165a2.01 2.01 0 01-.141.372c-.039.067-.05.101-.112.202-.034.045-.039.062-.101.141a1.84 1.84 0 01-.67.518 2.214 2.214 0 01-1.569.118c-1.002-.293-1.66-1.199-1.941-2.009-.299-.793-.467-1.524-.833-1.884-.309-.35-.945-.434-1.339-.203-.405.174-.844.99-1.603 1.564-.709.535-1.638 1.007-2.751.776-.574-.129-1.098-.54-1.317-1.114-.208-.534-.191-1.035-.124-1.48.073-.444.186-.804.248-1.124.084-.287.022-.72.067-.552.175.057-.315-.067-.607-.056-.338-.011-.681-.005-1.035 0-.709.011-1.429.045-2.195-.079-.731-.123-1.445-.433-2.002-.917-.563-.467-.951-1.232-.895-1.94.129-1.514 1.339-2.28 2.295-2.538.985-.276 1.835-.253 2.532-.259 1.395.028 2.172.214 2.172.214s-.794-.062-2.161.056c-.675.068-1.524.147-2.374.478-.81.293-1.676 1.103-1.676 2.048-.017.974 1.08 1.733 2.273 1.851.585.057 1.26 0 1.969-.056.36-.028.731-.056 1.119-.05.225.005.372.01.608.033.225.04.54.056.883.388.304.315.326.726.326.934.006.237-.022.462-.05.67-.068.416-.169.782-.208 1.091-.04.304-.017.602.067.777a.524.524 0 00.388.315c.445.1 1.081-.135 1.592-.546.265-.208.462-.428.715-.743.253-.303.563-.692 1.063-.962a2.53 2.53 0 013.01.484c.726.816.838 1.71 1.097 2.346.225.636.602 1.091 1.08 1.255a.97.97 0 00.642-.029.736.736 0 00.219-.146c0 .011.045-.056.068-.084-.012.022.017-.034.022-.045.028-.04.04-.09.062-.146.174-.456-.073-1.227.197-2.16a1.98 1.98 0 01.163-.36l.068-.113c.078-.118.095-.13.157-.203.107-.112.27-.236.484-.292.214-.051.394-.023.529.01.456.153.709.293 1.052.473a8.703 8.703 0 011.688 1.21c.461.433.883.703 1.282.647.36-.023.557-.45.608-.928a4.072 4.072 0 00-.101-1.418 4.785 4.785 0 00-1.125-2.082c-.462-.49-.906-.798-1.233-.967a3.503 3.503 0 00-.506-.248z"/><path d="M191.558 78.487a.708.708 0 01-.704-.68c-.039-1.502.152-2.988.344-4.428l.073-.568c1.074-8.546.754-15.303-1.013-21.266-.09-.31-.186-.597-.343-.743-.152-.14-.439-.18-.698-.096-.281.09-.562.304-.832.636-.766.945-1.041 2.284-1.283 3.466l-1.379 6.712c-.213 1.04-.433 2.115-.99 3.105-.135.236-.281.467-.433.692a9.666 9.666 0 00-.405.653 7.762 7.762 0 00-.411.934c-.107.264-.208.528-.332.787-.422.9-1.035 1.694-1.569 2.397-1.412 1.845-2.881 3.752-4.642 5.384a.697.697 0 01-.99-.04.697.697 0 01.04-.99c1.676-1.552 3.099-3.415 4.483-5.21.518-.674 1.058-1.378 1.418-2.137.107-.23.203-.467.293-.703.146-.366.292-.737.478-1.08.141-.26.304-.513.467-.76.129-.197.259-.394.377-.602.444-.805.647-1.772.838-2.706l1.378-6.712c.259-1.271.586-2.858 1.57-4.067.445-.552.951-.917 1.497-1.086.742-.236 1.535-.085 2.064.4.422.387.602.894.743 1.378 1.823 6.154 2.16 13.097 1.058 21.834l-.074.574c-.18 1.39-.365 2.824-.326 4.213a.703.703 0 01-.681.72c-.005-.01-.011-.01-.016-.01zm12.315 19.505s.163-.213.574-.478c.405-.258 1.08-.534 1.94-.545.85-.034 1.846.202 2.785.59.957.388 2.037 1.019 2.673 2.178a3.37 3.37 0 01.365 1.895c-.056.681-.467 1.311-.894 1.694-.433.405-.912.636-1.328.832a8.867 8.867 0 01-1.226.473c-.782.248-1.429.36-1.924.388-.518.023-.732-.236-.721-.225 0 0 .265.124.67-.05.399-.169.99-.479 1.648-.856.636-.388 1.474-.866 2.009-1.445.27-.299.388-.602.422-.957.028-.354-.068-.759-.259-1.114-.349-.72-1.148-1.271-1.941-1.704-.833-.445-1.609-.771-2.329-.912a4.298 4.298 0 00-1.772.006c-.45.107-.692.23-.692.23zm-9.199 34.639c.034-.388.27-.776.608-1.012.332-.248.714-.405 1.103-.524a11.675 11.675 0 012.362-.405c.805-.039 1.7.017 2.51.49.815.444 1.401 1.316 1.575 2.205.096.445.118.906.073 1.356a4.393 4.393 0 01-.349 1.311c-.365.816-.922 1.508-1.541 2.076-1.244 1.153-2.768 1.795-4.057 2.537l-.551-1.204c1.17-.36 2.397 0 3.241.749.208.196.393.416.551.652.163.265.253.467.354.776.158.541.186 1.098.085 1.632a3.61 3.61 0 01-.642 1.457 2.975 2.975 0 01-.545.557c-.22.175-.439.298-.67.411-.928.422-1.997.444-2.863.034.928.18 1.884-.006 2.604-.501a3.05 3.05 0 00.473-.411c.169-.186.259-.321.377-.512a2.76 2.76 0 00.349-1.164c.022-.405-.023-.805-.169-1.159a2.148 2.148 0 00-.276-.484 2.326 2.326 0 00-.393-.388c-.58-.467-1.418-.636-2.048-.389a.664.664 0 01-.861-.371.661.661 0 01.281-.81l.034-.017c1.378-.816 2.729-1.468 3.797-2.413 1.053-.929 1.767-2.189 1.542-3.483-.113-.63-.399-1.193-.928-1.558-.518-.366-1.227-.523-1.958-.574-.731-.028-1.53-.045-2.262.039-.714.096-1.536.327-1.806 1.097zm-6.605-32.219a1.44 1.44 0 01.428-.94c.253-.258.574-.433.906-.568.669-.264 1.389-.337 2.098-.32.715.028 1.474.19 2.133.652.675.461 1.068 1.232 1.254 1.958a6.15 6.15 0 01.146 2.216 7.25 7.25 0 01-.585 2.138 7.115 7.115 0 01-2.965 3.275.694.694 0 01-.95-.265.694.694 0 01.264-.951l.006-.005a6.28 6.28 0 012.194-.749c.771-.101 1.536-.118 2.351.119.411.129.805.332 1.142.635.304.265.591.653.76.923a5.44 5.44 0 01.799 2.177c.101.76.067 1.53-.135 2.262a5.13 5.13 0 01-.422 1.052 4.908 4.908 0 01-.63.923c-.985 1.097-2.38 1.805-3.786 1.794 1.355-.309 2.542-1.114 3.234-2.216.186-.282.321-.529.451-.85a4.816 4.816 0 00.208-2.773 4.924 4.924 0 00-.72-1.66 3.081 3.081 0 00-.586-.653 1.704 1.704 0 00-.68-.332c-.518-.14-1.176-.14-1.767-.045a5.105 5.105 0 00-1.71.608l-.681-1.221c1.052-.568 1.902-1.513 2.447-2.605a6.123 6.123 0 00.569-1.738 7.16 7.16 0 00.073-.895c-.006-.354-.011-.613-.068-.922-.101-.591-.343-1.114-.754-1.48-.416-.377-1.012-.59-1.642-.698-.63-.106-1.294-.146-1.924 0-.631.136-1.283.467-1.458 1.154zm-84.49-34.504c-.253-.985-.118-2.121.377-3.106.473-1.001 1.317-1.862 2.397-2.407l.377-.164.472-.152a5.936 5.936 0 012.701-.096c1.187.254 2.34.85 3.212 1.812l-2.368.743c.135-1.8.832-3.5 1.845-4.889a11.314 11.314 0 011.721-1.896c.164-.146.338-.281.484-.394.186-.14.366-.275.54-.394.36-.242.737-.467 1.137-.67a6.368 6.368 0 012.65-.674c.472-.006.95.04 1.406.174.158.045.433.146.653.236.208.096.41.197.596.316.771.455 1.339 1.091 1.828 1.721.479.647.861 1.334 1.204 2.037-1.237-.945-2.447-1.952-3.707-2.33a3.476 3.476 0 00-.461-.112c-.147-.017-.237-.034-.456-.045-.298-.006-.585 0-.872.067-.58.119-1.125.406-1.671.737a7.566 7.566 0 00-1.136.9 7.32 7.32 0 00-.366.372 11.14 11.14 0 00-1.277 1.553c-.749 1.097-1.266 2.306-1.44 3.55l-.017.14a1.315 1.315 0 01-1.474 1.12c-.36-.05-.67-.248-.872-.518a3.593 3.593 0 00-1.756-1.237 4.454 4.454 0 00-1.125-.237 3.969 3.969 0 00-.579.006l-.248.023c-.101.022-.276.073-.326.067-.771.157-1.514.63-2.138 1.26a5.775 5.775 0 00-.805 1.108c-.219.428-.41.873-.506 1.379z"/><path d="M128.187 57.486a8.993 8.993 0 011.3-3.224 11.2 11.2 0 012.368-2.638 14.456 14.456 0 014.703-2.571c.287-.107.591-.18.855-.26.293-.072.608-.151.906-.207a12.215 12.215 0 013.685-.203c1.249.113 2.515.45 3.685 1.08 1.17.625 2.189 1.626 2.881 2.729.703 1.097 1.159 2.233 1.597 3.291l-2.081-.5c1.395-1.317 2.903-2.673 4.72-3.748.456-.264.928-.517 1.423-.731.327-.14.45-.186.737-.292a9.03 9.03 0 01.816-.254c1.063-.287 2.189-.422 3.331-.315 1.136.113 2.301.45 3.319 1.097.129.085.242.152.388.26l.332.258c.242.203.445.388.647.596.4.411.737.85 1.047 1.289.303.438.573.883.827 1.316.275.5.455.872.68 1.322l1.294 2.577-2.003-.293c1.272-1.198 2.639-2.475 4.394-3.308 1.722-.85 3.871-1.176 5.795-.517a5.35 5.35 0 011.975 1.192l.14.135.141.158.208.247c.675.878.99 1.778 1.193 2.695.354 1.823.247 3.545.45 5.204l-.613-.253c1.53-.883 3.398-.968 4.906-.32-1.598-.35-3.275.056-4.462.984a.372.372 0 01-.529-.067.311.311 0 01-.067-.136l-.017-.056c-.45-1.716-.563-3.477-1.058-4.996-.225-.742-.613-1.462-1.035-1.913l-.231-.224c-.022-.023-.112-.113-.078-.08l-.102-.078a3.62 3.62 0 00-.422-.287 3.74 3.74 0 00-.962-.371c-.675-.18-1.417-.186-2.132-.062a5.72 5.72 0 00-1.041.287c-.348.13-.686.292-1.012.478-1.311.754-2.493 1.856-3.657 3.077a1.243 1.243 0 01-1.98-.253l-.023-.045-1.395-2.52-.675-1.221a15.49 15.49 0 00-.72-1.114 7.79 7.79 0 00-.782-.94 4.723 4.723 0 00-.417-.37c-.05-.04-.129-.108-.236-.18l-.214-.136c-.607-.377-1.339-.585-2.115-.653a7.478 7.478 0 00-2.38.22 7.656 7.656 0 00-1.165.393c-.388.164-.77.355-1.147.569-1.514.855-2.898 2.081-4.355 3.32l-.045.039a1.282 1.282 0 01-2.036-.54c-.388-1.07-.76-2.076-1.261-2.932a5.956 5.956 0 00-1.946-2.047c-1.632-1.053-3.831-1.306-5.947-1.098-.27.023-.512.068-.782.102-.292.062-.551.095-.81.163-.529.124-1.052.264-1.564.456-1.029.36-2.031.815-2.959 1.412-1.851 1.17-3.454 2.846-4.287 5.007zm64.501 10.745c1.638-.737 3.595-.94 5.418-.405a7.06 7.06 0 012.521 1.345c.742.613 1.384 1.384 1.805 2.278.434.895.642 1.885.698 2.83a14.04 14.04 0 01-.107 2.825c-.264 1.856-1.035 3.82-2.616 5.102l-.022.017a.652.652 0 01-.929-.906 5.258 5.258 0 012.83-1.85 5.433 5.433 0 011.677-.164c.281.017.557.056.832.118.282.068.524.152.816.27.22.102.461.231.715.394.23.158.444.327.647.512.399.377.72.822.967 1.288.501.94.715 2.031.507 3.033a4.845 4.845 0 00-.94-2.762 5.034 5.034 0 00-1.007-1.008 4.656 4.656 0 00-.591-.37 5.306 5.306 0 00-.652-.27 6.05 6.05 0 00-.642-.141 4.536 4.536 0 00-.675-.04c-.45.011-.9.09-1.327.236-.85.287-1.615.816-2.105 1.525l-.945-.883c1.199-1.052 1.834-2.656 2.082-4.315a13.19 13.19 0 00.135-2.543c-.034-.844-.158-1.654-.473-2.386a6.151 6.151 0 00-1.389-1.997 7.05 7.05 0 00-2.082-1.373c-1.57-.658-3.392-.753-5.148-.36z"/><path d="M201.167 86.853a82.91 82.91 0 012.931-1.66c1.001-.506 2.064-1.057 3.375-1.158a4.56 4.56 0 011.531.135c.135.04.253.062.444.14.675.254 1.221.63 1.699 1.058.956.866 1.615 1.795 2.318 2.678.343.467.681.95.996 1.48.157.264.309.534.444.821.18.383.236.54.36.833.484 1.3.642 2.514.613 3.803a12.055 12.055 0 01-.725 3.702 11.852 11.852 0 01-1.936 3.24l-.438-2.098a9.108 9.108 0 012.351 1.71 10.2 10.2 0 011.688 2.307c.444.838.788 1.732.956 2.666.085.467.135.934.164 1.407.011.489 0 .906-.062 1.457l-.102.619-.18.714c-.14.445-.309.872-.506 1.289a8.537 8.537 0 01-1.525 2.233c-.613.653-1.305 1.221-2.07 1.643a8.473 8.473 0 01-1.181.546c-.411.14-.822.247-1.238.326a9.727 9.727 0 001.069-.647c.332-.248.652-.495.951-.771.292-.281.562-.579.821-.878.253-.309.478-.63.692-.956.203-.337.377-.681.546-1.029.157-.349.292-.709.405-1.069.107-.366.185-.732.242-1.097l.05-.512.034-.625a10.66 10.66 0 00-.084-1.046 8.262 8.262 0 00-.248-1.058 8.806 8.806 0 00-.894-1.969 7.698 7.698 0 00-1.373-1.632c-.27-.23-.54-.45-.822-.652a9.31 9.31 0 00-.894-.523 1.368 1.368 0 01-.613-1.834c.039-.085.09-.164.146-.237l.023-.028a9.58 9.58 0 002.036-5.3c.051-.933-.096-1.952-.309-2.767l-.253-.715a10.28 10.28 0 00-.304-.67 15.82 15.82 0 00-.777-1.344c-.579-.928-1.13-1.89-1.761-2.588-.315-.349-.663-.664-1.007-.86-.056-.046-.202-.108-.326-.164-.039-.017-.18-.079-.276-.101a3.15 3.15 0 00-.663-.124c-.934-.079-2.003.158-3.061.467-1.08.287-2.166.58-3.257.838z"/><path d="M213.487 115.776s.299-.056.85.028c.534.085 1.328.355 2.093.968.388.298.771.669 1.114 1.12.326.416.652.962.894 1.479.512 1.086.822 2.217 1.064 3.381.219 1.193.348 2.588-.186 3.944a4.168 4.168 0 01-1.182 1.654c-.472.394-.888.608-1.31.827a7.422 7.422 0 01-2.093.709c-.523.09-.833.09-.833.09s.208-.214.574-.585c.36-.36.844-.878 1.373-1.491.247-.304.545-.669.742-.99.203-.326.299-.613.36-.968.124-.697.006-1.631-.197-2.65-.106-.528-.208-1.063-.315-1.586a31.296 31.296 0 00-.326-1.468 12.145 12.145 0 00-.394-1.3 7.872 7.872 0 00-.489-1.103 6.78 6.78 0 00-1.137-1.536 5.09 5.09 0 00-.602-.523z"/><path d="M208.137 126.229a6.42 6.42 0 013.443.647 6.141 6.141 0 011.547 1.035c.473.439.929.979 1.188 1.699.061.18.112.372.146.563.011.112.028.169.034.326.005.079.016.113.011.236a4.106 4.106 0 01-.18 1.171c-.214.709-.552 1.288-.9 1.789l-.991 1.401c-.32.455-.647.917-.984 1.361l-.332-1.98a10.736 10.736 0 013.781 3.994c.438.816.782 1.682.99 2.588.062.281.084.4.124.658.039.242.073.484.09.709.05.456.056.917.05 1.373a10.417 10.417 0 01-.456 2.672c-.247.867-.652 1.671-1.125 2.419a6.575 6.575 0 01-1.851 1.93c-.742.495-1.671.771-2.498.608.816-.203 1.435-.704 1.902-1.283.489-.58.799-1.255 1.063-1.952.501-1.424.692-2.909.563-4.349a9.304 9.304 0 00-.141-1.063c-.033-.18-.073-.338-.112-.495a6.555 6.555 0 00-.158-.529c-.225-.664-.495-1.317-.861-1.919-.697-1.221-1.687-2.267-2.829-3.072l-.062-.045a1.34 1.34 0 01-.327-1.862l.057-.073c.354-.433.72-.855 1.085-1.283l1.075-1.249c.321-.393.608-.759.776-1.102.085-.158.147-.372.18-.467.012-.023.012-.124.023-.186.006.017.006-.067.011-.095a1.93 1.93 0 00-.017-.259c-.045-.36-.219-.782-.495-1.17a7.203 7.203 0 00-1.012-1.126 8.004 8.004 0 00-2.808-1.62z"/><path d="M210.061 151.129c.816-.011 1.665.304 2.357.827.355.259.664.58.94.929.264.337.523.737.703 1.136.372.81.597 1.671.715 2.537.095.856.129 1.801-.203 2.819a3.686 3.686 0 01-.591 1.12c-.061.078-.106.146-.236.287a4.58 4.58 0 01-1.344.984 6.741 6.741 0 01-2.836.636 13.49 13.49 0 01-2.655-.22 11.106 11.106 0 01-2.543-.782l-.045-.016a1.38 1.38 0 01-.709-1.818 1.376 1.376 0 011.541-.793c1.868.388 3.297 1.755 3.894 3.404.151.416.253.844.303 1.288l.023.332.005.203-.005.129c0 .135-.023.428-.051.653a5.664 5.664 0 01-.956 2.312 5.419 5.419 0 01-2.858 2.093 4.984 4.984 0 01-1.17.219c-1.525.101-3.01-.427-4.012-1.384 1.294.473 2.645.501 3.787.124.281-.101.562-.225.782-.343.326-.175.472-.304.708-.495a4.59 4.59 0 00.991-1.3c.236-.484.36-.996.371-1.485-.006-.113.006-.158-.006-.36l-.005-.13s-.006-.095-.006-.011l-.006-.045-.028-.169a3.188 3.188 0 00-.23-.664c-.428-.849-1.227-1.535-2.043-1.659l.794-2.628c.652.259 1.333.451 2.014.614.697.152 1.378.23 2.087.236.669-.006 1.316-.051 1.828-.248a2.14 2.14 0 00.619-.343c.017 0 .096-.084.163-.157a.515.515 0 00.096-.113c.073-.09.141-.197.208-.315.253-.472.372-1.159.394-1.885.039-.725.011-1.451-.152-2.143-.09-.354-.163-.675-.321-1.018a4.6 4.6 0 00-.54-.94 4.129 4.129 0 00-1.772-1.418zm-38.009 9.424c1.232-.225 2.577-.388 3.871.18.653.321 1.17.844 1.497 1.519.337.658.32 1.603-.13 2.278a3.506 3.506 0 01-.759.828l-.411.303-.467.282a7.75 7.75 0 01-1.935.708c-1.328.299-2.645.293-3.916.304l.124-1.384c1.536.282 2.846 1.266 3.595 2.583.371.663.585 1.423.607 2.194.012.382-.028.782-.157 1.181a2.54 2.54 0 01-.67 1.052c-.264.265-.635.507-.905.658a4.832 4.832 0 01-1.024.434 5.462 5.462 0 01-2.127.168c-1.39-.191-2.723-.872-3.488-1.986a5.072 5.072 0 003.527 1.283 4.646 4.646 0 001.784-.354c.287-.13.512-.237.771-.411.292-.197.467-.343.658-.557.337-.382.433-.844.388-1.418a3.427 3.427 0 00-.529-1.569 4.004 4.004 0 00-2.672-1.885h-.011a.7.7 0 01-.563-.81.695.695 0 01.698-.574c1.254.023 2.481.011 3.64-.191a6.44 6.44 0 001.642-.507l.36-.185.372-.237c.225-.157.422-.326.568-.517.287-.366.343-.838.186-1.339-.158-.495-.535-.962-.979-1.266-.962-.664-2.29-.698-3.545-.765zm-49.418-58.476c-.602-5.103-.18-12.77 4.794-15.657 7.358-4.27 11.291 5.654 11.803 11.156.484 5.227 1.429 13.086-3.73 16.417-3.173 2.048-7.607 1.586-9.637-1.744-1.863-3.055-2.83-6.639-3.23-10.172-.101-.883-1.502-.895-1.401 0 .771 6.785 3.494 16.113 12.017 14.284 8.496-1.823 7.978-12.096 7.382-18.78-.524-5.873-3.556-14.43-11.083-13.366-7.871 1.114-9.041 11.65-8.316 17.862.107.889 1.508.9 1.401 0z"/><path d="M126.291 111.928c-1.283-4.99-3.752-16.372 4.737-16.096 4.585.152 6.284 4.928 6.509 8.799.18 3.173-.574 6.234-1.794 9.137-.349.832 1.007 1.192 1.35.371 2.571-6.138 3.555-19.42-6.065-19.713-9.62-.293-7.617 11.91-6.087 17.868.225.877 1.575.506 1.35-.366z"/><path d="M132.074 115.062c-.849-1.306-1.479-2.706-1.755-4.248-.225-1.26-.501-6.627 2.532-5.305 2.318 1.007 2.053 3.764 1.626 5.778-.169.793-.321 1.806-.945 2.379-1.126 1.036-1.891.642-2.211-.618-.321-1.266-.771-3.145-.422-4.445.686-2.543 1.907-1.873 2.385-.298.281.934.366 2.025.163 2.982-.129.635-.484 2.458-1.665 1.535-.405-.32-.197-2.582-.163-3.043.067-.473.129-.945.197-1.418-.057.416-.023.827.09 1.221.05.456.737 2.954.067 3.347.281.034.568.074.85.107-.642-.658-1.114-3.268-.321-3.527.844.275 1.125.017.838-.782 0-.512.023-1.03.079-1.542l-1.305.355c.118.512.231 1.018.349 1.53.005.9 1.406.906 1.401 0-.006-.861-.164-1.468-.541-2.234-.332-.675-1.254-.275-1.305.355-.073.934-.63 4.765 1.424 4.225.225-.062.438-.259.489-.489.281-1.261-.433-4.496-2.335-3.123-1.614 1.165-.956 5.007.237 6.234a.714.714 0 00.849.107c1.71-1.013.979-5.238.017-6.56-1.581-2.178-2.402 1.046-2.481 2.199-.107 1.593-.084 6.167 2.796 4.828 2.29-1.069 2.205-5.03 1.502-6.988-.793-2.217-2.537-3.027-4.281-1.063-1.581 1.778-.855 6.588.264 8.472 1.109 1.868 3.443.614 4.366-.782 1.451-2.199 1.975-6.256.444-8.512-1.502-2.205-4.731-2.216-5.98.242-1.53 3.005-.158 7.179 1.542 9.795.478.748 1.693.045 1.203-.714zm-12.613-25.97s-.022-.112-.056-.332c-.023-.219-.068-.54-.034-.956a6.357 6.357 0 011.193-3.212c.838-1.182 2.171-2.29 3.735-3.134 1.542-.855 3.325-1.603 5.221-1.963.951-.175 1.93-.226 2.892-.141.484.034.956.13 1.412.253.236.067.433.135.692.22l.608.258c1.71.805 2.869 2.076 3.719 3.207.849 1.142 1.339 2.217 1.693 2.948.332.748.484 1.187.484 1.187s-.242-.394-.664-1.091a21.14 21.14 0 00-1.975-2.678 11.167 11.167 0 00-1.569-1.514 9.21 9.21 0 00-2.031-1.21l-.614-.23-.585-.157a9.287 9.287 0 00-1.26-.192 9.571 9.571 0 00-2.616.163c-1.761.316-3.443.996-4.979 1.745-1.519.753-2.847 1.637-3.696 2.677-.861 1.03-1.317 2.099-1.457 2.88-.163.8-.113 1.272-.113 1.272zm33.311 11.64c-.534-4.613.107-10.042 2.121-14.272 2.054-4.304 7.736-8.006 12.012-4.467 2.453 2.03 4.045 5.108 4.894 8.129 1.823 6.515.208 14.183-3.088 19.983-2.645 4.653-7.657 4.332-11.292.827-2.813-2.717-4.304-6.357-4.647-10.2-.078-.888-1.479-.9-1.401 0 .58 6.538 6.65 17.362 14.814 13.913 3.347-1.412 4.765-5.676 5.884-8.81 1.581-4.422 2.352-9.21 1.564-13.879-.686-4.056-2.548-8.248-5.738-10.954-3.128-2.655-6.132-2.436-9.48-.315-6.318 4-7.859 13.041-7.049 20.04.112.889 1.513.9 1.406.005z"/><path d="M156.547 109.655c-.911-2.925-1.063-5.958-.832-8.996.281-3.73 2.177-9.997 7.347-8.726 4.118 1.013 4.945 7.303 5.131 10.662.186 3.341-.36 6.599-1.384 9.772-.276.861 1.075 1.226 1.35.371 1.795-5.564 3.516-21.913-5.851-22.33-9.209-.41-8.889 13.919-7.111 19.618.264.861 1.615.496 1.35-.371z"/><path d="M161.335 113.008c-1.075-1.373-1.603-3.004-1.705-4.737-.095-1.564-.022-5.868 3.095-4.248 1.839.957 1.839 4.361 1.451 6.082-.152.67-.608 2.228-1.316 2.532-1.542.664-1.739-1.547-1.896-2.267-.158-.704-.355-1.413-.473-2.121-.051-.231-.096-.456-.146-.687-.585-2.104.253-2.498 2.509-1.181.332.59.236 4.652-.546 5.012l-1.277-.652a5.935 5.935 0 01-.202-1.665c-.012-.698-.135-2.003.315-2.453.095-.675.185-.529.258.427.029.377.051.76.057 1.142.017.692.27 2.026-.355 2.532.388.101.782.208 1.17.309-.202-.613-1.125-2.987-.63-3.426-.281.034-.568.073-.849.107.484.225.726 2.391.81 2.869.596 3.449.236-.939.669-1.62l-.793.321c.023.253.04.506.062.759.045.9 1.446.9 1.401 0-.045-.894-.129-1.823-1.086-2.109-.304-.091-.624.061-.793.32-.675 1.063-.681 6.712 1.62 5.469 1.463-.794.107-6.617-1.181-7.213-.304-.141-.597-.112-.85.107-1.108.973-.095 3.696.27 4.788.175.534.754.647 1.17.309.929-.754.788-2.036.777-3.145-.011-1.018.169-3.032-.799-3.78-2.228-1.733-2.644 3.263-2.65 4.287-.005 1.412.844 5.361 3.111 4.298 1.024-.478 1.266-1.992 1.491-2.943.371-1.552.591-3.201.062-4.742-.675-1.969-2.97-3.297-4.529-1.35-.832 1.035-.793 2.357-.574 3.6.287 1.592.518 3.522 1.159 5.007 1.159 2.678 3.663 1.277 4.732-.692 1.254-2.318 1.356-6.453-.445-8.568-1.727-2.02-4.748-1.812-5.772.743-1.226 3.066-.281 7.06 1.682 9.569.563.709 1.547-.287.996-.99zm1.547-36.405c.011.017.113-.315.602-.625.478-.304 1.311-.512 2.25-.478.957.011 2.082.157 3.219.63 1.142.45 2.216 1.288 3.032 2.301 1.66 2.053 2.222 4.647 2.413 6.481.18 1.862.147 3.1.147 3.1s-.293-1.198-.737-2.993c-.45-1.767-1.159-4.113-2.639-5.93a7.519 7.519 0 00-2.593-2.12c-.974-.479-1.998-.732-2.881-.873-.894-.146-1.637-.135-2.121.062-.484.186-.692.445-.692.445zm-15.454 41.277c-.293 0-.602-.062-.923-.18-.743-.281-1.345-.742-1.918-1.192-.254-.197-.507-.394-.766-.569l-.354-.225c-.18-.112-.354-.225-.529-.349-.681-.483-1.153-1.046-1.406-1.67-.338-.816-.27-1.733.18-2.403.557-.832 1.688-1.237 2.813-1.007.821.169 1.507.619 2.087 1.08.107-.123.214-.281.326-.455.175-.265.349-.529.568-.749.287-.298.619-.506.878-.652.754-.428 1.446-.613 2.087-.608.929.023 1.756.529 2.104 1.283.22.473.231.968.22 1.395a4.553 4.553 0 01-.113 1.041c-.146.596-.478 1.103-.748 1.474-.866 1.193-1.935 2.16-3.134 3.218a2.73 2.73 0 01-.607.428c-.242.084-.495.14-.765.14zm-3.539-6.261c-.399 0-.816.135-1.03.45-.185.275-.202.703-.045 1.085.158.377.467.737.929 1.064.152.107.303.202.461.304.129.084.264.163.394.253.292.197.568.41.849.63.518.405 1.007.782 1.553.99.259.096.473.118.596.068.074-.034.18-.13.265-.203 1.142-1.001 2.149-1.913 2.931-2.987.208-.287.433-.63.523-.991.056-.219.068-.467.073-.725.006-.282 0-.574-.09-.777-.123-.264-.484-.461-.872-.472-.394-.023-.832.129-1.356.427-.174.102-.399.237-.568.411-.157.163-.275.354-.399.546-.265.399-.557.849-1.075 1.136a.702.702 0 01-.72-.022.661.661 0 01-.349-.158c-.495-.411-1.086-.849-1.721-.979a1.08 1.08 0 00-.349-.05zm-23.494 12.742c6.391 1.007 12.405-.05 18.774-.568 6.441-.523 12.827-.495 19.269-1.255 6.678-.787 13.389-1.462 20.022-2.61a107.39 107.39 0 002.661-.489c1.379.776 1.981 1.856 1.812 3.251.287 1.744-.135 4.062-.456 5.739-.635 3.28-1.918 6.352-3.69 9.181-1.722 2.757-3.708 5.581-5.953 7.939-2.593 2.717-6.289 4.011-9.631 5.564-6.234 2.897-12.422 3.842-19.258 2.953-7.06-.922-13.395-3.887-17.356-9.918-1.958-2.976-3.814-6.003-4.697-9.491-.878-3.488-.878-7.128-.895-10.701-.006-.9-1.406-.906-1.401 0 .028 5.654.298 11.173 2.976 16.276 2.223 4.236 4.906 8.58 9.097 11.083 8.794 5.249 20.799 6.104 30.161 1.964 2.864-1.266 5.823-2.526 8.557-4.051 2.571-1.435 4.248-3.618 6.025-5.907 3.415-4.405 6.324-8.979 7.421-14.521.461-2.329 1.784-9.356-.608-10.92-1.226-.799-4.573.597-5.8.805-3.724.624-7.471 1.085-11.224 1.53-7.566.9-15.049 1.851-22.672 1.98-7.663.13-15.089 2.02-22.757.81-.883-.135-1.266 1.216-.377 1.356z"/><path d="M120.845 120.176s-.399.106-1.035.393c-.641.276-1.491.81-2.34 1.621a8.638 8.638 0 00-1.199 1.445c-.36.546-.692 1.204-.945 1.857-.523 1.35-.788 2.897-.776 4.456a16.338 16.338 0 00.652 4.529c.411 1.412.945 2.7 1.542 3.73.591 1.035 1.153 1.867 1.598 2.413.433.557.703.861.703.861s-.332-.236-.855-.726c-.512-.495-1.249-1.215-1.947-2.239-.697-1.013-1.423-2.284-1.924-3.764a14.989 14.989 0 01-.821-4.81c.011-1.671.315-3.364.973-4.81a8.603 8.603 0 011.181-1.947c.45-.568.94-1.046 1.429-1.44a7.471 7.471 0 012.661-1.367c.692-.191 1.103-.202 1.103-.202zm23.562 15.853c-.557 0-1.064-.219-1.458-.416-1.963-1.001-3.718-2.779-5.074-5.125-.636-1.097-1.148-2.245-1.604-3.409-.163 1.716-.41 3.437-.849 5.119-.535 2.071-1.71 3.263-3.111 3.207-1.035-.045-1.801-.759-2.408-1.451a25.21 25.21 0 01-5.114-9.109.7.7 0 111.339-.416 23.818 23.818 0 004.827 8.596c.416.473.911.957 1.418.979h.033c.811 0 1.401-1.159 1.66-2.16.686-2.628.872-5.424 1.058-8.13a.7.7 0 011.361-.18c.726 2.116 1.474 4.299 2.599 6.251 1.221 2.115 2.78 3.702 4.501 4.579.27.141.625.293.9.259.338-.039.698-.366 1.058-.973 1.84-3.055 1.845-7.061 1.857-10.273a.7.7 0 011.361-.231 32.559 32.559 0 005.328 9.694c.315.399.636.77 1.012.956.923.45 2.138-.248 2.819-1.131.99-1.283 1.446-3.043 1.283-4.968-.135-1.569-.653-3.229-1.637-5.226a.7.7 0 01.309-.934.705.705 0 01.94.298 49.19 49.19 0 005.412 8.237c.619.765 1.294 1.547 2.138 1.997.827.439 1.755.472 2.362.079.698-.45 1.064-1.407 1.154-3.01a26.54 26.54 0 00-.867-8.366.7.7 0 011.322-.45 49.896 49.896 0 002.628 5.361c.911 1.604 1.766 2.819 2.982 3.556.607.366 1.479.63 2.109.281.597-.332.889-1.142 1.114-1.969a38.512 38.512 0 001.35-8.534.7.7 0 01.698-.67h.034a.7.7 0 01.669.732 40.075 40.075 0 01-1.401 8.849c-.292 1.069-.737 2.234-1.783 2.819-.979.545-2.295.433-3.516-.304-1.564-.945-2.599-2.509-3.477-4.062a50.992 50.992 0 01-.512-.923c.101 1.249.113 2.51.039 3.764-.073 1.311-.337 3.168-1.789 4.107-1.052.675-2.503.67-3.786-.017-1.074-.574-1.856-1.479-2.565-2.351a50.246 50.246 0 01-2.543-3.421c0 .017 0 .028.005.045.197 2.273-.36 4.383-1.569 5.941-1.047 1.356-2.943 2.312-4.546 1.53-.636-.315-1.086-.832-1.491-1.344a33.936 33.936 0 01-4.264-6.909c-.147 2.56-.591 5.255-1.981 7.567-.602 1.007-1.288 1.547-2.087 1.643a1.862 1.862 0 01-.247.016z"/><path d="M124.603 124.468a51.864 51.864 0 00-1.159 4.585c-.343 1.699-.399 4.006-2.16 4.856-.81.393-.101 1.597.709 1.209 1.524-.737 2.081-2.194 2.436-3.769.489-2.183.889-4.355 1.53-6.509.253-.867-1.097-1.238-1.356-.372zm22.735 30.6a.692.692 0 01-.659-.467 50.226 50.226 0 00-3.015-6.92c-.371-.703-.754-1.373-1.317-1.767-.945-.652-2.306-.427-3.234.085-1.126.624-1.998 1.671-2.842 2.678-.793.956-1.507 1.89-1.519 2.891-.005.388-.382.692-.708.692a.696.696 0 01-.692-.703 29.013 29.013 0 00-1.131-8.219c-.372-1.294-.839-1.998-1.457-2.206-.895-.298-1.913.546-2.206.816a6.783 6.783 0 00-1.744 2.61.69.69 0 01-.9.411.7.7 0 01-.411-.9 8.21 8.21 0 012.11-3.151c1.17-1.08 2.476-1.49 3.601-1.114 1.446.484 2.036 2.026 2.363 3.145a30.206 30.206 0 011.052 5.553c.185-.242.377-.478.579-.72.883-1.058 1.885-2.262 3.235-3.01 1.598-.883 3.449-.889 4.715-.011.827.574 1.322 1.435 1.76 2.262a52.115 52.115 0 012.448 5.344 28.293 28.293 0 012.351-4.461c.85-1.311 2.06-2.869 3.91-3.229 1.323-.259 2.797.174 4.057 1.187.973.787 1.716 1.817 2.363 2.762a8.608 8.608 0 01.017-2.121c.264-1.969 1.547-4.214 3.814-4.793 1.508-.389 3.28.067 4.748 1.215.484.371.906.793 1.305 1.238a9.388 9.388 0 01.096-2.234c.343-1.98 1.457-3.612 2.987-4.377 1.863-.928 4.197-.36 5.199 1.266a.697.697 0 01-.231.962.698.698 0 01-.962-.231c-.613-.995-2.194-1.339-3.381-.748-1.131.563-1.964 1.817-2.228 3.359-.259 1.524.028 3.139.349 4.517a.702.702 0 01-1.26.557c-.805-1.159-1.638-2.357-2.729-3.206-1.131-.878-2.453-1.238-3.544-.962-1.632.416-2.583 2.171-2.78 3.623-.241 1.783.304 3.645.839 5.249a.704.704 0 01-.355.849.706.706 0 01-.889-.231l-1.974-2.88c-.67-.979-1.362-1.986-2.268-2.712-.933-.754-1.997-1.08-2.908-.905-1.328.258-2.301 1.53-2.999 2.61a27.214 27.214 0 00-2.875 5.918c-.112.287-.377.495-.68.479zm-67.894-49.486a.7.7 0 01-.298-.068A133.92 133.92 0 0152.31 88.766c-.293-.236-.698-.557-.934-1.035-.304-.602-.247-1.25-.208-1.722a90.713 90.713 0 012.076-13.282c.208-.884.444-1.823.827-2.7.472-1.081 1.148-2.032 1.8-2.949.484-.68.945-1.328 1.322-2.02 1.61-2.925 1.666-6.29 1.722-9.856.04-2.296.078-4.67.562-6.943 1.182-5.513 5.131-10.318 10.313-12.54.725-.31 1.862-.523 2.7-.101.45.225.748.602.86 1.091.113.478-.01.923-.134 1.3a22.325 22.325 0 01-3.224 6.352c-.433.59-.827 1.17-1.012 1.699a22.207 22.207 0 019.626-3.241c1.845-.163 3.116.394 3.521 1.547.175.5.158 1.08-.056 1.733-.574 1.755-2.07 3.19-4.45 4.27-.613.276-1.249.523-1.879.765-.366.14-.72.276-1.075.422l4.383.298c1.446.096 3.06.31 3.994 1.575.49.67.664 1.53.484 2.42-.225 1.125-.99 2.194-1.986 2.79-1.519.906-3.347.957-4.956.996l-.186.006c-2.762.073-6.655.478-8.5 3.083-.856 1.21-1.176 2.779-1.39 4.292-.659 4.613-.568 9.379-.484 13.98 0 .231.006.552.107.704.112.174.433.292.754.4a148.18 148.18 0 0016.793 4.517c.377.079.625.45.546.827a.71.71 0 01-.827.546 149.473 149.473 0 01-16.951-4.563c-.41-.135-1.103-.366-1.491-.968-.315-.49-.326-1.063-.332-1.44-.084-4.658-.174-9.474.5-14.2.243-1.688.608-3.454 1.638-4.906 2.205-3.116 6.537-3.589 9.603-3.673l.192-.006c1.507-.04 3.071-.079 4.275-.799.659-.394 1.182-1.125 1.334-1.868.073-.354.09-.866-.242-1.31-.574-.782-1.829-.929-2.96-1.008l-6.93-.466a.708.708 0 01-.63-.524.707.707 0 01.292-.765c1.12-.731 2.357-1.21 3.55-1.67.608-.237 1.215-.468 1.806-.738 2.008-.911 3.252-2.064 3.696-3.431.113-.35.135-.63.068-.833-.203-.58-1.21-.698-2.07-.613a20.739 20.739 0 00-10.02 3.701.7.7 0 01-1.047-.298c-.664-1.541.45-3.071 1.193-4.084a21.038 21.038 0 003.026-5.958c.051-.157.135-.416.102-.557-.017-.067-.04-.112-.13-.157-.303-.152-.973-.096-1.513.135-4.77 2.047-8.405 6.47-9.497 11.544-.455 2.138-.495 4.445-.534 6.672-.062 3.578-.124 7.28-1.896 10.51-.422.765-.923 1.474-1.412 2.16-.642.9-1.243 1.75-1.66 2.7-.337.777-.546 1.61-.748 2.459a88.758 88.758 0 00-2.048 13.075c-.034.4-.05.748.068.984.1.203.343.4.557.568a132.606 132.606 0 0026.554 16.574c.349.164.5.58.337.934a.695.695 0 01-.635.411z"/><path d="M97.323 48.4a.704.704 0 01-.703-.686c-.045-2.25.292-4.484.613-6.65.13-.85.253-1.7.36-2.554.788-6.408.304-12.968-.157-19.309-.012-.202-.029-.427-.096-.546-.096-.163-.377-.298-.641-.41-3.15-1.3-6.673-1.469-10.009-1.53-7.91-.141-15.966.287-23.753.703-.23.011-.478.022-.602.101-.264.158-.315.822-.337 1.069a79.625 79.625 0 001.586 22.898.697.697 0 01-.534.832.697.697 0 01-.833-.534 81.23 81.23 0 01-1.614-23.303c.039-.529.123-1.626 1.007-2.16.427-.259.9-.282 1.243-.304 7.826-.416 15.91-.844 23.86-.709 3.47.062 7.145.242 10.52 1.632.512.208 1.03.478 1.333 1.018.22.394.248.816.27 1.13.467 6.409.957 13.036.152 19.585-.106.86-.236 1.727-.365 2.588-.315 2.104-.642 4.286-.602 6.419a.706.706 0 01-.687.714c-.005.006-.005.006-.01.006zM67.59 63.415c8.844.299 17.767.597 26.61 1.3.9.073.895-1.328 0-1.4-8.855-.704-17.755-.997-26.61-1.3-.9-.029-.9 1.372 0 1.4z"/><path d="M66.183 19.91c.586 1.3 1.019 3.713 2.853 3.634 1.592-.073 1.946-1.811 2.104-3.06l-1.378.185c.287.951.36 2.408 1.322 2.948.208.119.5.141.709 0 .765-.528 1.035-1.277 1.322-2.149-.388.102-.782.209-1.17.31 2.047 2.059 2.947 1.429 3.578-1.272l-1.283.17c.472.927.714 2.745 2.183 2.677 1.232-.056 1.31-1.339 1.974-2.104-.365-.045-.731-.096-1.102-.14 1.614 3.032 2.768 2.565 4.371-.096l-1.283-.17c1.109 4.007 3.427 3.77 4.35-.235h-1.351c.4.962.68 1.924 1.333 2.74.152.19.456.236.681.18 1.103-.282 1.947-1.109 2.751-1.874-.388-.101-.782-.208-1.17-.31.281.9.276 2.538 1.609 2.628.816.056 1.665-.709 1.407-1.564.264.86 1.614.495 1.35-.371-.04-.135-.085-.276-.124-.411-.068-.214-.253-.456-.49-.49-.86-.129-.68.085-1.355.282-.861.253-.535 1.21-1.047-.445a.708.708 0 00-1.17-.31c-1.052.997-1.885.884-2.425-.427-.242-.58-1.181-.748-1.35 0 .022 1.21-.529 1.289-1.648.237-.164-.585-.974-.681-1.283-.17-.653 1.081-1.34 1.25-1.952.096-.203-.377-.81-.478-1.103-.14.118-.14-1.12 1.26-.765 1.198-.484.085-1.07-1.232-1.198-1.485-.27-.535-1.148-.405-1.283.169-.192.821-.523 1.372-1.238.652-.388-.388-1.007-.18-1.17.31-.473.534-.692.264-.653-.805-.242-.804-1.282-.568-1.378.186-.467 3.764-2.273-1.114-2.346-1.277-.338-.827-1.547-.113-1.181.703zm2.617 7.82c.18 1.474.618 3.938 2.317 4.372.237.061.512.005.681-.18.9-.968 1.114-2.195 1.334-3.489h-1.35c.404 1.143.612 3.1 1.856 3.652.304.135.596.118.85-.107.894-.8 1.198-1.958 1.45-3.1l-1.282.169c.422.9 1.024 2.863 2.357 2.886 1.418.022 1.502-1.654 1.908-2.56l-1.283-.169c.287.95.748 1.986 1.896 1.997 1.378.012 1.513-1.384 2.098-2.357-.365.045-.731.096-1.102.14a4.82 4.82 0 01.984 1.74c.124.314.343.483.675.511 1.424.14 1.283-.804 2.374-1.536-.343-.14-.686-.281-1.03-.416.535 1.48 1.047 3.724 3.14 3.398.41-.062.81-.737.99-.776 1.03-.22.884.478 2.06-.08.815-.382.106-1.591-.71-1.209-.36-.073-.714-.14-1.074-.213a.696.696 0 00-.709 0c-1.063.725-1.93-.338-2.352-1.491-.146-.394-.624-.692-1.03-.417.159-.107-1.828 1.317-1.186 1.35.517.023-1.322-2.03-1.154-1.845-.309-.337-.877-.23-1.102.14 0 0-1.007 2.11-1.435.693-.157-.523-1.024-.748-1.282-.169-.794 1.778-1.041 1.39-1.846-.326-.253-.546-1.153-.4-1.282.168-.484 2.172-.996.856-1.458-.444-.208-.585-1.226-.742-1.35 0-.292 1.722-1.091 3.618-1.58-.332-.08-.883-1.48-.894-1.374 0zm7.718 9.019c.068 1.462.023 4.967 1.88 5.451 1.895.495 2.52-2.65 2.79-3.797h-1.35c.18.94.405 1.811 1.052 2.526.163.185.45.242.68.18 1.114-.298 1.491-1.576 2.015-2.504l-1.283-.168c.185 1.046.169 3.1 1.682 3.094 1.4-.006 1.89-1.874 2.324-2.909h-1.35c.404 1.047.894 2.965 2.227 3.196 1.395.236 1.829-1.435 2.189-2.43h-1.35c.258.46.404.956.433 1.485.152.888 1.502.512 1.35-.372a3.52 3.52 0 00-.433-1.485c-.27-.636-1.097-.686-1.35 0-.816 2.233-1.204.557-1.716-.765-.26-.675-1.08-.647-1.35 0-1.013 2.442-1.019 1.412-1.3-.186-.107-.607-1.002-.664-1.283-.169-.523.934-.889 1.66-1.187.13-.13-.681-1.198-.653-1.35 0-.163.697-.602 2.93-1.457 1.935-.569-.658-.422-2.408-.462-3.212-.04-.895-1.44-.9-1.4 0zm5.896 11.561c-.106 1.001.006 3.353 1.334 3.617 1.429.287 2.132-2.07 2.464-3.032l-1.283.169c.523.922.8 2.346 2.16 2.29 1.126-.051 1.587-1.266 1.98-2.127-.365.045-.73.096-1.102.14.512.591.439 1.497 1.114 1.986.54.394 1.097.36 1.665.051.794-.433.085-1.643-.708-1.21-.051.029-.89-1.592-1.08-1.817-.276-.32-.918-.253-1.103.141-.265.568-.231 1.035-.884.895-.556-.124-.579-.602-.838-1.058-.31-.551-1.091-.383-1.283.169-.168.49-.55 1.924-1.21 2.042.226.062.457.118.682.18-.614-.664-.608-1.61-.518-2.436.112-.895-1.288-.889-1.39 0zm-7.443 62.397a.685.685 0 01-.461-.174c-5.22-4.619-11.893-7.736-18.785-8.782a75.639 75.639 0 00-3.41-.411c-2.29-.242-4.658-.49-6.925-1.165-2.065-.613-4.14-1.597-6.532-3.083-3.15-1.963-5.339-3.91-6.874-6.11-3.871-5.552-3.663-12.81-3.162-19.178.073-.923.14-1.795-.05-2.605-.153-.624-.558-1.39-1.255-1.66-1.03-.4-2.262.484-2.712 1.53-.535 1.25-.372 2.763-.23 4.102l.686 6.402c.084.81.185 1.722-.085 2.622-.281.934-1.074 1.918-2.233 2.025a.7.7 0 11-.124-1.395c.478-.045.872-.551 1.018-1.03.186-.63.107-1.361.034-2.076l-.686-6.402c-.152-1.434-.344-3.218.332-4.799.72-1.67 2.706-2.987 4.506-2.284 1.018.394 1.806 1.384 2.11 2.639.247 1.03.163 2.053.084 3.043-.478 6.127-.692 13.097 2.914 18.268 1.424 2.042 3.483 3.865 6.47 5.727 2.279 1.423 4.248 2.352 6.194 2.931 2.15.636 4.45.878 6.673 1.114 1.158.124 2.323.242 3.47.416 7.157 1.086 14.082 4.321 19.506 9.114a.702.702 0 01.062.99.757.757 0 01-.535.231zm-48.957-3.719c2.858.096 5.885.175 8.434 1.632 2.002 1.142 3.325 3.083 5.187 4.411 3.46 2.464 7.049 1.26 10.925.798 3.32-.399 5.868.524 8.535 2.442 2.57 1.851 3.719 4.141 5.463 6.633 2.081 2.982 5.097 4.923 8.562 5.902.867.247 1.238-1.103.372-1.351-3.117-.883-5.835-2.571-7.725-5.254-1.12-1.592-1.811-3.404-3.167-4.838-2.644-2.797-6.538-5.171-10.464-5.081-2.425.051-4.766.912-7.19.951-3.612.062-5.43-2.34-7.944-4.478-3.156-2.689-6.982-3.027-10.976-3.156-.912-.04-.912 1.361-.012 1.389z"/><path d="M7.707 81.104c-.433-1.71-.82-3.421-1.085-5.165-.569-3.73.596-3.094 3.955-3.443 1.75-.18 3.51-.298 5.271-.355 2.47-.078 3.73-.022 4.777 2.436 1.22 2.853 1.08 6.712 1.316 9.806.242 3.174.557 6.33.945 9.486.445 3.617.9 7.229 1.35 10.841l.507 4.068c.281 2.256.945 2.632-1.243 3.319-1.705.534-3.596.765-5.356 1.063-1.137.191-5.53 1.57-6.577.878-1.941-1.289-2.06-8.478-2.262-10.493-.09-.888-1.49-.9-1.4 0 .241 2.448.579 4.872 1.08 7.286.264 1.266.275 3.499 1.474 4.36.905.653 2.852.068 3.82-.051a98.473 98.473 0 006.92-1.119c4.708-.934 5.524-.54 4.94-5.238-.693-5.541-1.402-11.077-2.071-16.619-.574-4.743-.67-9.536-1.379-14.262-.405-2.706-.298-6.92-3.55-7.184-2.79-.225-5.8.09-8.573.383-1.233.129-3.815-.023-4.833.748-2.194 1.665.101 7.629.613 9.632.23.872 1.58.5 1.361-.377z"/><path d="M16.574 70.825c-.338-2.312-.636-4.63-.878-6.954-.045-.444-.433-2.363-.146-2.75.006-.007 2.008-.293 2.279-.226 1.057.248.815.512.917 1.778.067.85.129 1.705.18 2.56.118 1.991.185 3.983.208 5.974l.703-.703c-1.744.045-2.205-.337-2.627-1.958-.214-.827-.456-1.66-.647-2.492-.169-.737-.844-3.094-.315-3.809 1.142-.557 1.693-.332 1.648.692.107.495.186.99.242 1.491a22.96 22.96 0 01.202 3.106c-.005.866.04 2.458.012.619-.028-2.054-.63-4.26-.928-6.296-.09-.619-1.002-.647-1.283-.169-1.395 2.414-.068 6.06.945 8.383.287.664 1.305.293 1.305-.354.006-2.572.72-6.11-.624-8.428-.45-.782-1.666-.073-1.21.709 1.137 1.963.439 5.513.433 7.719l1.306-.355c-.782-1.794-2.031-5.091-.946-6.97l-1.282-.17c.275 1.874.512 3.753.821 5.616.169 1.03.32 2.267 1.125 3.026.169.158.45.27.681.18 1.969-.776 1.035-5.316.816-6.903-.26-1.884-.636-5.356-3.42-3.809-2.386 1.328-1.07 5.205-.575 7.213.276 1.108.028 2.7.906 3.567.799.788 2.38.827 3.41.799.376-.011.703-.315.703-.704a131.626 131.626 0 00-.265-6.83c-.101-1.507.068-3.482-.58-4.866-.095-.202-.382-.366-.607-.349-.67.057-1.294.31-1.958.417-.647.106-1.462-.029-2.07.174-.743.242-.889.484-.996 1.243-.202 1.463.259 3.196.428 4.664.213 1.851.461 3.697.731 5.536.13.89 1.48.512 1.356-.371zM7.286 88.327H7.1c-1.288-.022-2.453-.298-3.415-.799a.685.685 0 01-.675-.197c-.383-.394-.85-.94-1.08-1.626-.27-.804-.147-1.665.337-2.244.304-.372.698-.574 1.035-.754l.164-.085c.225-.123.444-.258.663-.399.192-.118.383-.242.58-.355 2.7-1.541 6.194-1.552 8.9-.022.957.54 1.508 1.17 1.677 1.918.09.4.073.822-.051 1.266a3.366 3.366 0 01-.906 1.514c-.905.866-2.149 1.102-3.145 1.288-1.26.253-2.56.495-3.898.495zm-3.72-2.487a.68.68 0 01.203.102c1.075.782 2.414.967 3.353.984 1.266.034 2.549-.22 3.798-.456 1.035-.196 1.873-.388 2.436-.928.253-.242.433-.546.529-.877.062-.214.073-.417.034-.58-.08-.337-.417-.68-1.002-1.012-2.284-1.289-5.238-1.283-7.516.022-.18.101-.355.214-.535.326a14.1 14.1 0 01-.737.44l-.18.095c-.247.13-.483.253-.607.405-.169.202-.203.568-.09.906.073.197.185.393.315.573z"/><path d="M6.712 92.969c-1.592 0-3.123-.254-4.546-.766-.478-.174-1.018-.416-1.378-.9-.225-.298-.36-.658-.434-1.136-.135-.923.034-1.823.473-2.543.512-.833 1.4-1.378 2.312-1.43a.711.711 0 01.737.665.7.7 0 01-.664.737c-.455.022-.922.326-1.192.765-.27.439-.366 1.007-.282 1.603.034.237.09.4.17.507.14.185.432.309.725.416 3.015 1.086 6.639.866 10.205-.602.867-.36 1.311-.72 1.407-1.136.079-.35-.135-.794-.5-1.064-.36-.27-.873-.422-1.56-.461a.692.692 0 01-.652-.743.68.68 0 01.743-.652c.962.061 1.716.303 2.3.731.817.602 1.233 1.603 1.036 2.492-.264 1.182-1.4 1.778-2.233 2.127-2.24.923-4.507 1.39-6.667 1.39z"/><path d="M6.633 98.842c-1.885 0-3.663-.355-5.243-1.058-.411-.185-.872-.433-1.148-.906-.23-.404-.253-.838-.248-1.17A6.507 6.507 0 011.7 91.45a.702.702 0 011.03.95 5.048 5.048 0 00-1.334 3.33c0 .085-.005.333.062.45.079.142.371.27.5.327 2.78 1.238 6.29 1.25 9.891.028.608-.208 1.238-.45 1.705-.855.439-.377.692-.883.658-1.322-.028-.41-.298-.838-.737-1.176-.456-.354-1.046-.59-1.62-.821a.698.698 0 01-.388-.912.698.698 0 01.911-.388c.63.253 1.345.54 1.958 1.013.748.58 1.215 1.378 1.271 2.183.062.889-.365 1.823-1.147 2.492-.653.557-1.424.867-2.166 1.12-1.924.647-3.843.973-5.66.973z"/><path d="M6.24 103.602c-1.497 0-3.033-.124-4.4-.833-.338-.174-.822-.467-1.092-.99-.191-.366-.225-.754-.23-1.013a4.534 4.534 0 011.57-3.55.698.698 0 01.99.079.692.692 0 01-.08.984 3.162 3.162 0 00-1.08 2.442c.006.191.034.326.074.411.061.124.225.253.489.388 1.3.675 2.92.703 4.461.669 1.834-.033 3.758-.129 5.424-.872.562-.253.928-.512 1.153-.821.225-.309.287-.703.146-.956-.078-.147-.247-.293-.41-.422a7.372 7.372 0 00-1.604-.968.699.699 0 01-.36-.923.706.706 0 01.923-.36 8.698 8.698 0 011.913 1.154c.264.213.568.478.765.844.4.73.304 1.687-.236 2.447-.372.517-.923.928-1.722 1.283-1.907.849-3.994.956-5.97.995a28.39 28.39 0 01-.725.012zm36 61.48c-.254 0-.495-.023-.72-.068-2.915-.562-4.299-3.657-4.867-5.446-.152-.483-.292-.984-.433-1.479-.388-1.384-.76-2.706-1.446-3.815a31.743 31.743 0 01-7.106 8.164c-.596.483-1.603.984-2.475.799a1.506 1.506 0 01-1.052-.805c-.214-.422-.203-.872-.158-1.255.405-3.831 2.999-7.043 5.396-9.749.22-.254.45-.524.607-.794-1.474.372-2.801 1.368-4.191 2.414-1.744 1.311-3.544 2.661-5.784 2.841-.196.017-.804.068-1.226-.371-.4-.422-.354-.985-.337-1.176.1-1.182.663-2.228 1.074-2.914 1.255-2.071 3.044-3.837 5.125-5.103-1.35.135-2.711.394-4.118.658-1.958.371-3.983.76-6.025.777-.748 0-1.576-.062-2.194-.647-.434-.4-.653-.94-.642-1.548.023-1.125.81-2.194 1.486-2.773 2.194-1.89 5.232-2.824 8.1-2.487.687.079 1.374.225 2.037.366.99.208 1.953.422 2.841.394-1.254-.878-2.779-1.424-4.37-1.998-2.127-.765-4.327-1.552-5.959-3.223-.388-.4-.905-1.018-.928-1.845-.028-.957.68-1.863 1.71-2.206.839-.276 1.682-.169 2.408-.05 2.875.472 5.643 1.445 8.321 2.385 1.04.366 2.082.731 3.128 1.069 3.167 1.024 7.32 2.087 11.303 1.215 1.766-.388 3.493-1.153 5.159-1.896l.309-.141c8.208-3.656 17.047-6.852 26.037-5.524a.698.698 0 11-.203 1.384c-8.641-1.283-17.249 1.851-25.266 5.418l-.31.14c-1.732.771-3.521 1.57-5.434 1.986-4.315.94-8.692-.174-12.028-1.249-1.058-.343-2.11-.714-3.168-1.08-2.621-.923-5.327-1.873-8.084-2.329-.563-.096-1.21-.175-1.744 0-.377.124-.76.472-.754.838.006.248.18.546.529.9 1.406 1.441 3.364 2.144 5.429 2.886 2.138.771 4.354 1.564 5.986 3.252a.7.7 0 01-.264 1.148c-1.649.596-3.331.236-4.957-.113-.658-.14-1.283-.275-1.907-.348-2.492-.287-5.12.517-7.027 2.154-.568.49-.985 1.221-.996 1.739-.005.275.107.416.197.495.264.247.765.27 1.227.27 1.918-.017 3.882-.394 5.777-.754 2.481-.473 5.041-.962 7.635-.703a.7.7 0 01.152 1.361c-3.016 1.018-5.688 3.162-7.33 5.885-.541.894-.822 1.631-.879 2.307v.033c.017 0 .04 0 .062-.005 1.84-.147 3.398-1.322 5.052-2.56 1.767-1.328 3.601-2.706 5.885-2.836a.698.698 0 01.732.591c.185 1.176-.681 2.149-1.143 2.672-2.357 2.662-4.686 5.548-5.052 8.968-.01.101-.039.36.017.467.389.135.974-.101 1.401-.444a30.435 30.435 0 007.308-8.692.701.701 0 011.137-.124c1.305 1.474 1.828 3.353 2.34 5.17.135.484.27.962.416 1.435.473 1.496 1.598 4.067 3.798 4.495.523.095 1.266.05 1.654-.417.546-.663.169-1.839-.22-2.796l-2.008-4.939c-.585-1.44-1.316-3.235-1.075-5.086.265-2.042 1.733-3.949 3.922-5.103 1.806-.951 3.786-1.311 5.997-1.654a315.15 315.15 0 0122.993-2.689c.377-.022.726.259.754.641a.696.696 0 01-.641.754 312.937 312.937 0 00-22.892 2.678c-1.7.265-3.815.591-5.559 1.508-1.789.94-2.976 2.453-3.184 4.045-.197 1.48.433 3.016.985 4.377l2.008 4.94c.535 1.316 1.018 2.981 0 4.213-.59.749-1.474 1.002-2.278 1.002zM203.861 80.09a.701.701 0 01-.511-1.181c3.234-3.448 6.576-7.015 9.091-11.088l.501-.827c.484-.805.984-1.638 1.569-2.414.327-.427.681-.844 1.041-1.26 1.002-1.17 1.952-2.279 2.183-3.623.169-.98-.073-2.003-.326-2.875-.619-2.11-1.604-4.152-2.554-6.127-.794-1.654-1.615-3.364-2.245-5.142-.175-.5-.338-1.001-.501-1.508-.264-.815-.534-1.665-.866-2.458-.304-.72-.659-1.407-1.035-2.132-.203-.394-.406-.782-.602-1.182-1.829-3.724-2.448-7.179-1.84-10.267.765-3.888 3.707-6.96 7.15-7.466.906-.135 1.593.006 2.093.428.642.54.861 1.468.619 2.61-.377 1.744-1.339 3.252-2.267 4.71-1.058 1.653-2.059 3.217-2.149 4.995a.7.7 0 01-.737.664.704.704 0 01-.664-.737c.112-2.15 1.26-3.944 2.368-5.677.906-1.418 1.761-2.75 2.082-4.247.129-.591.073-1.058-.152-1.244-.169-.14-.506-.18-.984-.112-3.196.472-5.429 3.55-5.981 6.352-.545 2.779.034 5.935 1.722 9.378.191.388.388.77.585 1.153.377.72.759 1.463 1.086 2.24.354.849.635 1.727.905 2.57.158.49.316.98.484 1.469.602 1.705 1.407 3.381 2.189 5.001.973 2.026 1.98 4.124 2.633 6.34.287.968.585 2.24.365 3.506-.298 1.733-1.417 3.038-2.503 4.304-.338.393-.675.793-.99 1.198-.54.714-1.002 1.474-1.486 2.284l-.512.844c-2.593 4.197-5.986 7.814-9.265 11.314a.677.677 0 01-.496.208z"/><path d="M212.548 88.333a.702.702 0 01-.49-1.204l7.213-7.01c3.966-3.86 8.073-7.854 10.948-12.664.737-1.238 1.615-2.88 1.828-4.647.293-2.442-.675-4.9-1.659-6.987-1.255-2.65-2.768-5.244-4.237-7.747-1.485-2.532-3.015-5.154-4.298-7.865-.242-.507-.472-1.053-.456-1.671.068-2.262 2.982-2.813 3.939-2.988a28.403 28.403 0 008.77-3.206c.355-.203.743-.44.85-.732.124-.349-.191-.81-.551-1.007-.467-.259-1.069-.287-1.818-.27a22.67 22.67 0 00-8.506 1.992.699.699 0 01-.883-.27.696.696 0 01.152-.912c2.683-2.21 5.457-4.495 7.285-7.477.293-.472.912-1.654.411-2.312-.416-.551-1.468-.473-1.902-.41-2.509.348-4.838 1.912-6.239 4.044a70.561 70.561 0 01-1.046 2.2.704.704 0 01-.889.343.707.707 0 01-.411-.86 9.967 9.967 0 011.137-2.414 94.413 94.413 0 003.133-7.77c.597-1.687.614-2.728.068-3.37-.276-.32-.737-.545-1.3-.64-1.834-.316-3.561.793-4.568 1.929-1.232 1.384-1.958 3.207-2.594 4.95a.707.707 0 01-.782.45.705.705 0 01-.579-.691 35.764 35.764 0 00-2.931-14.29c-.799-1.84-1.688-2.79-2.718-2.909-1.136-.123-2.171.89-2.548 1.913-.456 1.25-.293 2.7-.101 3.967a50.422 50.422 0 004.275 14.048.7.7 0 11-1.265.602 51.892 51.892 0 01-4.394-14.437c-.214-1.44-.4-3.105.168-4.658.574-1.564 2.144-3.032 4.023-2.824 1.57.18 2.824 1.4 3.843 3.741a37.189 37.189 0 012.919 11.657c.445-.872.968-1.705 1.632-2.453 1.609-1.812 3.848-2.723 5.851-2.38.624.107 1.502.389 2.127 1.114 1.181 1.379.669 3.37.191 4.743a97.07 97.07 0 01-1.671 4.405 10.153 10.153 0 014.473-1.8c1.445-.203 2.593.135 3.212.95.731.962.613 2.34-.332 3.888-1.249 2.037-2.92 3.78-4.658 5.34a23.859 23.859 0 015.372-.806c.856-.033 1.75.006 2.543.44.878.483 1.593 1.597 1.193 2.711-.292.805-1.063 1.243-1.474 1.474a29.786 29.786 0 01-9.204 3.364c-1.834.344-2.774.9-2.796 1.654-.011.304.141.647.321 1.03 1.254 2.655 2.773 5.249 4.242 7.758 1.479 2.532 3.009 5.148 4.292 7.854 1.069 2.267 2.121 4.956 1.784 7.752-.242 2.031-1.204 3.849-2.014 5.199-2.965 4.968-7.14 9.024-11.174 12.95l-7.212 7.01a.71.71 0 01-.495.209zm1.817 14.824c4.512-2.374 9.761-2.042 14.374-4.13 3.618-1.642 8.079-4.224 9.812-7.983.973-2.11 1.21-4.478 1.935-6.666.349-1.047.9-3.353 1.75-4.09 2.543-2.217 4.782.72 5.873 2.47 1.362 2.182 2.476 5.445 2.47 8.056-.005 2.3-1.069 5.294-3.291 2.633-.923-1.109-1.395-3.387-1.946-4.732-.338-.821-1.694-.461-1.351.372.704 1.699 1.795 7.353 4.18 7.65 1.486.187 2.751-1.692 3.241-2.829 2.048-4.726-1.137-13.159-5.716-15.488-6.217-3.162-6.903 8.765-8.473 12.056-1.98 4.14-8.011 7.291-12.321 8.4-3.825.984-7.685 1.198-11.24 3.072-.799.421-.09 1.631.703 1.209z"/><path d="M249.465 82.926a.705.705 0 01-.703-.67.7.7 0 01.669-.73 72.23 72.23 0 0012.946-1.75c1.479-.338 3.145-.793 4.169-1.907.281-.304.337-.495.337-.608 0-.366-.641-.686-1.271-.833-4.968-1.181-10.318-.045-15.038.957-1.818.388-3.41.799-4.389 1.924a.702.702 0 01-1.057-.923c1.367-1.575 3.555-2.036 5.153-2.38 4.866-1.03 10.374-2.2 15.651-.945 1.486.355 2.341 1.153 2.346 2.189.006.528-.225 1.035-.703 1.558-1.294 1.412-3.201 1.941-4.889 2.33a73.42 73.42 0 01-13.198 1.783c-.006.005-.011.005-.023.005z"/><path d="M267.114 77.79c-.253 3.82.219 7.724.433 11.539.208 3.724.816 7.96-.698 11.488-1.777 4.135-6.076 5.519-10.284 5.772-6.577.394-6.931-5.491-7.027-10.532-.016-.9-1.417-.906-1.4 0 .067 3.635-.096 9.148 3.628 11.202 3.263 1.794 8.749.624 11.865-.974 3.764-1.929 5.244-5.598 5.514-9.643.41-6.278-1.041-12.574-.625-18.846.057-.906-1.344-.906-1.406-.006z"/><path d="M216.357 117.577c5.626-1.756 11.06-3.618 16.079-6.752 5.344-3.341 10.7-6.019 16.866-7.544.872-.219.507-1.57-.371-1.35a52.768 52.768 0 00-15.308 6.475c-5.615 3.5-11.32 5.851-17.638 7.82-.855.265-.489 1.621.372 1.351zm38.549-74.91c-.377 1.21-.76 2.42-1.137 3.629-.298.962-.602 1.924-1.086 2.807-.298.54-.658 1.047-.933 1.598-.372.737-.586 1.547-.766 2.352-.23 1.046-.41 2.149-.118 3.184.929 3.297 5.913 4.107 6.774 7.426.096.366.129.748.051 1.114-.107.478-.406.889-.659 1.311-1.057 1.76-1.406 3.848-1.738 5.88 1.249.427 2.43-.67 3.572-1.329 1.227-.703 2.881-1.125 3.297-2.48.287-.929-.163-1.908-.607-2.774-.524-1.03-1.047-2.065-1.57-3.095-.394-.77-.782-1.541-1.232-2.278-.692-1.13-1.519-2.183-2.059-3.387-2.048-4.546.349-10.21-1.806-14.706"/><path d="M254.231 42.481c-.946 3.016-2.234 5.716-3.382 8.614-.815 2.048-1.271 4.551-.101 6.543 1.108 1.879 3.274 2.48 4.67 4.028 2.272 2.515-.299 7.122-.799 10.12-.079.468.185.85.675.89 2.104.152 5.221-1.575 6.678-3.027 1.744-1.733.602-3.764-.332-5.637-1.851-3.702-4.867-7.258-5.125-11.494-.225-3.702.472-7.235-.957-10.774-.332-.827-1.688-.466-1.35.372 1.924 4.77-.225 10.07 1.84 14.79.956 2.183 2.503 4.135 3.595 6.262.934 1.823 2.661 3.989.439 6.087-.844.794-3.899 2.082-4.788 2.02.225.298.45.59.675.889.743-4.49 4.366-8.163.124-11.736-2.926-2.464-5.598-3.809-4.124-8.383.416-1.288 1.288-2.407 1.817-3.656.748-1.773 1.221-3.702 1.795-5.53.27-.867-1.08-1.233-1.35-.378zm-15.989 136.075c-.782 0-1.604-.315-2.251-.906-.855-.782-1.305-1.868-1.637-2.824a24.52 24.52 0 01-1.328-8.94c.034-.827.102-1.665.175-2.509.23-2.745.45-5.339-.67-7.589-.703-1.424-1.879-2.549-3.223-3.775-4.299-3.899-9.047-7.691-14.634-9.047a.701.701 0 11.332-1.361c5.891 1.429 10.808 5.35 15.241 9.373 1.401 1.271 2.729 2.548 3.539 4.185 1.294 2.605 1.046 5.514.81 8.332-.068.822-.141 1.637-.169 2.442a23.224 23.224 0 001.249 8.433c.287.833.636 1.682 1.255 2.245.484.439 1.311.726 1.901.394.653-.366.906-1.317.81-2.993a188.59 188.59 0 00-.315-4.765c-.135-1.581-.332-3.972 1.154-5.491.253-.259.545-.479.838-.692.315-.231.613-.45.81-.709.501-.67.411-1.654.321-2.701-.028-.309-.057-.624-.068-.922-.129-3.044 1.463-6.2 4.152-8.237 2.92-2.211 6.374-2.739 8.765-2.796.569-.011 1.131 0 1.699.006 1.609.028 3.134.056 4.535-.439 1.119-.394 1.918-1.12 2.132-1.941.394-1.525-1.153-3.032-2.762-3.792-4.248-2.008-9.919-1.648-15.179.968l-.478.242c-1.362.692-2.763 1.412-4.372 1.305-1.62-.101-3.004-1.03-4.118-1.783l-20.18-13.576a.703.703 0 01-.191-.973.704.704 0 01.973-.191l20.18 13.575c1.024.686 2.183 1.468 3.421 1.547 1.209.062 2.408-.523 3.657-1.159l.489-.247c5.722-2.847 11.696-3.207 16.4-.979 2.183 1.029 4.118 3.105 3.522 5.412-.332 1.271-1.458 2.363-3.022 2.909-1.642.579-3.364.545-5.024.517-.551-.011-1.097-.022-1.642-.006-2.183.051-5.334.524-7.95 2.51-2.329 1.766-3.707 4.467-3.595 7.06.012.282.04.568.062.861.107 1.204.231 2.565-.596 3.662-.321.428-.732.732-1.097.996-.231.169-.467.338-.664.54-.956.985-.906 2.639-.76 4.394.135 1.598.231 3.201.321 4.805.051.911.191 3.325-1.525 4.292a2.563 2.563 0 01-1.293.338z"/><path d="M254.838 154.528c-.866 0-1.727-.017-2.593-.045a.7.7 0 01-.676-.726.683.683 0 01.726-.675c3.944.14 7.938-.051 11.854-.574.771-.101 1.519-.219 2.149-.529.625-.304 1.063-.793 1.187-1.305.192-.838-.461-1.699-1.204-2.054-.315-.146-.675-.247-1.052-.348-.624-.169-1.266-.344-1.845-.771a.707.707 0 01-.152-.979.702.702 0 01.979-.152c.366.27.861.405 1.384.546.422.112.855.23 1.283.433 1.44.681 2.289 2.245 1.969 3.634-.214.94-.923 1.756-1.936 2.251-.815.399-1.682.534-2.576.652a70.44 70.44 0 01-9.497.642z"/><path d="M264.52 159.732c-3.606 0-7.544-.456-11.96-1.379a.7.7 0 01-.541-.827.693.693 0 01.827-.54c5.227 1.092 9.756 1.508 13.835 1.288.68-.039 1.417-.135 1.738-.556.355-.473.113-1.294-.259-1.857a9.717 9.717 0 00-.635-.827c-.394-.478-.799-.973-1.075-1.581a.701.701 0 01.343-.928.701.701 0 01.928.343c.203.444.535.849.889 1.277.254.309.501.613.721.945.607.923 1.029 2.386.208 3.471-.67.884-1.778 1.058-2.78 1.114-.731.034-1.474.057-2.239.057z"/><path d="M263.727 164.851c-3.876 0-7.781-.624-11.443-1.834-.231-.073-.771-.253-.985-.793a.706.706 0 01.394-.911.693.693 0 01.889.343c0-.023.051 0 .146.028a35.343 35.343 0 0013.722 1.654c.585-.045.675-.163.686-.186.012-.017.029-.084.029-.281a3.946 3.946 0 00-1.176-2.712.7.7 0 01.973-1.007 5.296 5.296 0 011.603 3.696c.006.27-.017.625-.191.957-.433.816-1.435.894-1.811.922-.94.085-1.891.124-2.836.124z"/><path d="M262.399 169.915c-.731 0-1.434-.22-1.935-.377l-11.865-3.73a.696.696 0 01-.456-.878.698.698 0 01.878-.456l11.865 3.73c.804.253 1.637.473 2.211.158.473-.259.698-.861.743-1.334.067-.652-.102-1.372-.254-2.008a.703.703 0 011.368-.321c.163.704.371 1.581.281 2.47-.107 1.075-.658 1.98-1.463 2.419a2.87 2.87 0 01-1.373.327z"/><path d="M256.695 174.286c-.434 0-.867-.045-1.294-.169-.557-.163-1.047-.444-1.469-.692a398.362 398.362 0 01-13.221-8.017.706.706 0 01-.219-.967.707.707 0 01.968-.22 393.595 393.595 0 0013.176 7.989c.376.219.765.445 1.153.557.574.163 1.232.118 1.907.045.686-.073 1.429-.208 1.727-.647.203-.304.208-.754.214-1.277.006-.596.011-1.277.349-1.896a.703.703 0 01.951-.281.696.696 0 01.281.95c-.169.316-.175.766-.18 1.238-.006.653-.011 1.39-.45 2.042-.613.923-1.733 1.159-2.746 1.266a9.574 9.574 0 01-1.147.079zM186.061 55.697c1.226 1.558 3.994 1.631 5.654.866.411-.186.056-.793-.354-.608-1.39.642-3.787.54-4.805-.753-.281-.355-.771.146-.495.495zm-.703 4.293c.343 1.164 1.564 1.513 2.616 1.867 1.547.518 3.026.647 4.624.276.439-.102.253-.777-.185-.675-1.131.264-2.245.28-3.37-.012-.917-.236-2.706-.63-3.005-1.642-.129-.434-.804-.254-.68.185zm-1.514 4.725c.462 1.187 1.896 1.649 2.999 2.093 1.722.692 3.488 1.024 5.339.895.445-.034.45-.732 0-.704a10.627 10.627 0 01-3.876-.422c-.951-.28-3.37-.978-3.786-2.053-.158-.41-.839-.23-.676.191zm-2.121 4.388c2.617 2.476 6.031 3.37 9.514 3.86.439.062.63-.613.186-.675-3.348-.473-6.678-1.294-9.204-3.68-.327-.31-.827.186-.496.495zm-2.475 3.123c2.228 3.432 7.826 4.416 11.595 4.54.45.017.45-.687 0-.703-3.46-.118-8.923-1.007-10.993-4.197-.242-.372-.85-.017-.602.36zM93.706 53.503c1.71.31 3.2-.417 4.658-1.232.394-.22.04-.827-.355-.608-1.271.715-2.61 1.435-4.118 1.165-.444-.085-.63.59-.185.675zm.224 3.966c1.913.225 3.68-.034 5.385-.95.4-.215.045-.822-.355-.608-1.603.866-3.24 1.063-5.03.855-.444-.05-.438.652 0 .703zm.524 4.748c2.166.62 4.174-.236 5.935-1.49.366-.26.017-.867-.354-.608-1.604 1.142-3.404 1.986-5.395 1.417-.434-.118-.62.557-.186.681zm1.142 5.806c2.796.445 5.288.079 7.46-1.845.337-.298-.158-.793-.495-.495-1.975 1.755-4.248 2.07-6.78 1.665-.438-.067-.63.608-.185.675zm1.018 5.547c1.677.434 3.14-.123 4.67-.815 1.524-.687 3.325-1.362 4.354-2.74.27-.36-.337-.71-.607-.355-.822 1.097-2.369 1.677-3.573 2.24-1.502.697-2.965 1.423-4.664.99-.433-.107-.619.568-.18.68zm1.649 6.386c2.222.725 4.236-1.002 5.901-2.29 1.874-1.452 3.651-3.016 4.58-5.232.174-.416-.501-.597-.675-.186-.777 1.845-2.273 3.196-3.792 4.439-1.502 1.232-3.753 3.274-5.829 2.6-.427-.147-.613.528-.185.669zm139.579-30.38c-.624-1.986-1.367-4.484-.63-6.532.731-2.025 2.374-3.28 3.511-5.002 1.631-2.475 1.277-5.558 2.689-8.135.219-.393-.388-.748-.608-.354-.922 1.688-1.052 3.41-1.508 5.243-.652 2.6-2.396 3.927-3.758 6.014-1.839 2.82-1.333 5.89-.371 8.951.135.434.816.248.675-.185zm-31.477-4.332c.276-2.042-1.407-3.651-2.881-4.838-2.166-1.739-4.686-2.937-6.61-4.985-.309-.332-.805.169-.495.495 1.305 1.39 2.864 2.42 4.45 3.466 1.75 1.153 5.198 3.2 4.866 5.67-.067.445.608.636.67.192zm-.444 7.083a7.58 7.58 0 00-3.539-1.958c-.439-.107-.625.568-.186.675a6.835 6.835 0 013.229 1.778c.321.31.816-.186.496-.495zM9.806 80.996c.05-1.125-.737-4.517.096-5.445.4-.45 3.15-.355 4.005-.411 1.345-.085 2.549-.41 3.573.388 1.541 1.204 1.592 5.952 1.806 7.657.123.99.439 2.155.343 3.15-.27 2.78-2.262 2.65-4.41 2.853-.445.045-.45.742 0 .703 1.214-.118 3.943.023 4.922-.906.686-.652.214-2.424.14-3.173-.168-1.783-.41-3.56-.663-5.333-.22-1.575-.225-4.163-1.43-5.463-1.535-1.665-5.44-.585-7.454-.281-3.522.529-1.496 3.263-1.626 6.267-.022.445.681.445.698-.005zm5.468 12.71c.586-.726 1.103-1.165 2.037-1.362.456-.095.934-.152 1.39-.225.253-.05.512-.084.77-.107.642-.163.957.26.951 1.272-.529.765-2.233.067-2.993-.045-.675-.096-1.328.033-1.991-.028l.348.348c-.106-1.04 3.882-.872 3.432-.77.146.078.287.163.433.242.113.016.22.028.332.045.197-.113.389-.225.585-.344l-.152-.151-.495.495c.057.05.113.107.17.157.325.31.826-.186.494-.495-.056-.05-.112-.107-.169-.157-.326-.31-.82.18-.495.495.051.05.102.1.152.152.248.241.675 0 .585-.344-.152-.551-.399-1.125-1.046-.906-.546.18-.821.71-.636 1.233a.36.36 0 00.434.242c.86-.186.534-1.345-.304-1.244-.878.102-1.126 1.097-.248 1.424 1.114.416 1.334-.805.456-1.356-.636-.394-1.947.191-1.328 1.007.478.63 1.294-.208.793-.765-.562-.625-2.126.028-1.637.911.405.737 1.452.113 1.193-.636-.326-.94-1.862-.427-1.395.45.433.816 1.66-.045.934-.76-.794-.781-2.915-.185-2.785 1.059.022.202.146.331.349.348.421.04.838-.062 1.26-.045.613.017 1.21.175 1.811.276.523.09 1.193.281 1.705.14.799-.219 1.373-1.372 1.052-2.16-.416-1.03-1.665-.855-2.532-.72-1.738.27-2.835.4-3.966 1.806-.27.371.22.867.506.518zm-.118 3.314c.045.534.107 1.063.192 1.592.05.337.061.72.399.888.36.175 1.063.006 1.446-.016.456-.029 1.024-.017 1.457-.18.77-.287.36-1.221.186-1.79-.18-.59-.467-1.603-1.148-1.8-.41-.118-.838.068-1.215.203-.32.112-.732.152-.996.371-.534.433-.304 1.496-.118 2.06.18.556.782 1.124 1.418.86.309-.13.37-.366.32-.686-.079-.518-.388-.929-.405-1.48-.23.034-.461.062-.686.096a5.05 5.05 0 00.624 1.732c.124.214.377.209.552.073.697-.556.258-1.93.185-2.66-.22.056-.433.117-.652.174.371.59.377 1.294.866 1.823.163.174.546.106.585-.152.062-.44.09-.861.068-1.305-.023-.445-.715-.456-.704 0 .017.703.107 1.395.265 2.081.101.439.776.253.675-.186a9.817 9.817 0 01-.236-1.895h-.704a5.74 5.74 0 01-.039 1.119c.197-.05.388-.101.585-.152-.422-.456-.433-1.159-.76-1.682-.168-.27-.691-.191-.652.174l.118 1.182c.028.281.163.765-.101.979.186.022.366.045.551.073a4.611 4.611 0 01-.557-1.564c-.067-.394-.697-.298-.686.096.011.388.13.675.203 1.046.033.079.067.152.1.23-.084-.05-.174-.1-.258-.151-.101-.141-.101-.535-.118-.692-.034-.26-.118-.49.135-.687.112-.084.366-.1.5-.146.175-.062.36-.18.546-.203.512-.073.552.08.732.428.19.366.315.765.422 1.165.039.14.185.495.073.641-.09.118-.855.101-.996.112-.315.023-1.063.197-1.266-.095-.084-.124-.118-.805-.135-.906-.028-.247-.05-.5-.073-.754-.034-.461-.737-.467-.698-.017zm5.936-.518l.658 5.08c.04.293.27.872-.068.979-.382.124-.4-.231-.512-.535-.287-.776-.332-1.772-.46-2.587-.13-.833-.496-1.958-.378-2.802.135-.928.506-.94.63-.011.045.337-.017.72-.017 1.063a28.673 28.673 0 00.422 4.855c.197-.113.389-.225.585-.343-.77-.94-.76-2.796-.973-3.966-.011-.074-.31-1.739-.31-1.739-.236.04-.207 1.604-.236 1.84-.05.45.653.444.704 0 .078-.715.472-2.442-.203-3.004-.416-.35-.782-.186-1.024.23-.382.664.32 2.43.45 3.15.23 1.3.23 2.932 1.097 3.99.248.298.636-.034.585-.344a27.624 27.624 0 01-.399-4.67c.006-.916.062-1.704-.32-2.553-.063-.13-.26-.209-.395-.163-.348.118-1.018.225-1.26.579-.343.512.034 1.688.107 2.245.13.995.276 1.991.45 2.981.14.794.175 1.88.602 2.572.085.14.242.191.394.163.63-.13 1.198-.422 1.339-1.03.174-.737-.253-1.935-.349-2.69-.14-1.096-.281-2.193-.427-3.285-.045-.45-.749-.455-.692-.005zm-10.369 7.527c.214.867.152 1.502 1.052 1.71 1.3.304 3.184-.157 4.45-.506.743-.202 2.717-.647 3.111-1.412.377-.731-.14-2.655-.472-3.291-.338-.647-.98-.619-1.682-.456-.962.22-1.08.658-1.457 1.412-.822 1.632-3.061 1.148-4.316 2.177-.585.484-.472.968-.033 1.576.185.253.675.202.652-.175l-.034-.574c-.219.057-.433.119-.652.175.13.169.253.343.382.512.18.242.54.219.642-.085.101-.258.174-.523.22-.793l-.586.152c.101.141.197.287.298.428.18.337.614.135.653-.175.028-.259.062-.512.09-.77-.197.084-.4.163-.597.247.175.304.355.608.53.917.112.383.669.304.686-.096.011-.376.034-.759.067-1.136-.197.084-.4.163-.596.248.101.191.197.388.298.579.101.411.647.276.687-.096.067-.258.129-.517.196-.776l-.585.152c.169.292.338.585.501.878.09.388.692.298.686-.096a3.493 3.493 0 01.057-.996c-.197.085-.4.163-.597.248l.304.624h.703c-.084-.382-.09-.489-.017-.337.231-.034.462-.062.687-.096.045-.045.084-.09.13-.129h.674l-.14-.158.585-.152c-.04-.157-.073-.315-.113-.472h.675c.068-.608.135-1.221.209-1.829l-.552-.422c-.202.13-.41.253-.613.383.101.174.202.349.304.529.405-.636.332-.321.298-.974h-.703c.01.158.017.321.028.478.197-.084.4-.163.596-.247a3.414 3.414 0 01-.163-.141c-.276-.242-.636-.005-.585.343v-.022c-.287.343.208.844.495.495.208-.247.225-.337.18-.658-.197.112-.388.225-.585.343.056.045.107.09.163.141.214.185.619.078.596-.248-.01-.157-.017-.321-.028-.478-.028-.45-.726-.45-.703 0 .146 2.644 2.335 1.339 1.4-.467-.055-.113-.185-.169-.303-.174-.602-.017-1.03.832-1.3 1.26-.146.225.046.529.304.529.63 0 .923-.169 1.221-.726.18-.343-.264-.72-.551-.422-.495.523-.99 1.592-.23 2.149.472.343 1.265.101 1.214-.551-.045-.602-.697-.754-1.102-.377-.591.551-.17 1.811.422 2.166a.349.349 0 00.354 0c.608-.422.799-1.474.045-1.891-.748-.41-1.373.321-1.091 1.013.129.326.55.338.675 0 .236-.624-.203-1.226-.878-1.013-.923.293-.641 1.227-.18 1.801.163.202.54.09.585-.152.355-1.789-1.806-1.851-1.21.157.09.31.614.36.676 0 .1-.574.01-1.687-.816-1.671-.883.017-.872 1.244-.664 1.806.13.344.72.332.686-.095-.033-.467-.185-1.114-.804-1.08-.743.045-.636.905-.585 1.412.045.438.72.455.703 0-.022-.501-.13-.771-.506-1.12-.242-.225-.557-.045-.597.248a3.27 3.27 0 00-.056.995c.23-.033.461-.061.687-.095-.119-.523-.293-.827-.687-1.187-.202-.192-.495-.09-.585.152-.186.495-.163.438-.22.962.231-.034.462-.062.687-.096-.13-.523-.118-.489-.478-.889-.22-.242-.58-.034-.597.248-.033.377-.05.759-.067 1.136.23-.034.461-.062.686-.096a2.751 2.751 0 00-.709-1.226c-.23-.242-.562-.034-.596.248-.028.258-.062.511-.09.77.22-.056.433-.118.653-.174-.158-.304-.175-.315-.405-.574-.175-.191-.53-.096-.585.152a3.85 3.85 0 01-.22.793l.641-.084c-.129-.169-.253-.343-.382-.512-.186-.253-.675-.208-.653.174l.034.574c.22-.056.433-.118.653-.174-.636-.872 3.516-1.891 3.91-2.133.76-.478 1.08-2.638 2.115-1.71.354.315.895 1.626.72 2.121-.315.889-1.879 1.176-2.683 1.395-1.424.394-4.164 1.255-4.642-.714-.107-.433-.782-.248-.675.191z"/><path d="M11.308 103.86c.31-.478 2.031-.433 2.622-.624.315-.101.619-.242.94-.332.343-.101.798-.039 1.097-.231.691-.433.416-1.175.078-1.862-.152-.309-.67-.163-.652.175.028.5.09.962.196 1.451l.676-.186a3.914 3.914 0 01-.22-1.08c.41-.332.861-.467 1.356-.399.45.005.45-.692 0-.703-.703-.012-1.243.112-1.879.393-.107.051-.174.192-.174.304 0 .591.073 1.103.241 1.665.13.434.771.254.676-.185a4.834 4.834 0 01-.17-1.266c-.219.056-.432.118-.652.174.09.18-.095.833-.18.912-.118.112-.596.157-.76.208-.703.231-1.288.467-2.047.518-.765.05-1.294.016-1.744.703-.253.394.349.742.596.365zm.141 3.809c.63 2.025.512 4.861 3.1 4.523 3.071-.399 6.087-1.221 9.13-1.631.197-.028.276-.265.242-.433a97.517 97.517 0 00-1.159-5.508.36.36 0 00-.337-.259c-2.408.141-4.77.878-7.111 1.423-1.244.287-3.432.231-3.809 1.728-.113.438.563.624.675.185.31-1.221 5.525-1.749 6.622-2.003.872-.202 2.728-.939 3.477-.107.371.411.81 3.061.753 3.539-.213 1.8-3.274 1.356-4.776 1.581-1.508.219-2.56.771-4.05.276-1.294-.433-1.126-.439-1.469-1.542-.203-.652-.405-1.305-.613-1.958-.135-.427-.81-.247-.675.186zm14.042 9.3a23.176 23.176 0 003.387 4.433c.315.321.81-.174.495-.495a22.285 22.285 0 01-3.28-4.287c-.23-.394-.832-.039-.602.349zm-3.516-.147c.095.439.191.873.287 1.311.095.439.77.254.675-.185l-.287-1.311c-.096-.439-.77-.253-.675.185zm-4.107.49c.287.625-.13 1.789-.236 2.442-.113.709-.231 1.423-.344 2.132-.073.439.602.63.676.186.168-1.064.343-2.133.512-3.196.107-.664.28-1.283-.006-1.913-.186-.416-.788-.056-.602.349zm36.495-57.075c-.129-5.34 1.66-9.16 3.54-13.98.522-1.345.854-2.712.224-4.085-.664-1.446-2.233-2.025-2.75-3.657-.136-.427-.817-.247-.676.186.349 1.086.979 1.406 1.564 2.318 2.459 3.83.467 5.519-.866 8.872-1.322 3.32-1.823 6.785-1.739 10.34.017.456.715.456.703.006zm-3.893-6.915c-.545 1.694-.917 3.37-.804 5.16.13 2.104.95 4.084-.09 6.104-.208.4.4.754.607.354.692-1.35.692-2.582.53-4.073-.299-2.684-.406-4.731.438-7.359.13-.433-.546-.613-.68-.186zm190.849 84.243c1.463-2.362 6.678-2.745 9.041-2.863 2.537-.13 5.08.039 7.612.214.45.033.45-.67 0-.704-3.516-.242-7.089-.483-10.588.085-2.138.349-5.429.911-6.667 2.914-.242.383.366.737.602.354zm3.049-5.789c.405-1.423 1.716-2.188 2.869-2.97 1.137-.771 2.268-1.542 3.404-2.307.371-.253.023-.861-.354-.607-1.491 1.012-3.016 1.991-4.473 3.043-.968.698-1.783 1.474-2.121 2.656-.124.433.551.618.675.185zm-.433-4.973c.473-.968.743-1.823 1.491-2.644.591-.647 1.193-1.255 1.631-2.014.225-.394-.382-.749-.607-.355-.495.867-1.238 1.508-1.868 2.273-.624.748-.833 1.536-1.249 2.391-.202.4.405.754.602.349zm2.914-20.023c-3.392.647-6.689 1.964-9.969 3.038-.427.141-.242.816.186.675 3.274-1.074 6.576-2.396 9.969-3.038.439-.084.253-.759-.186-.675zM43.905 153.813c.04 1.907 1.57 2.937 2.486 4.501 1.565 2.661 1.947 5.851 2.262 8.861.045.444.748.45.703 0-.242-2.301-.506-4.642-1.277-6.836a13.579 13.579 0 00-1.08-2.38c-.726-1.237-2.363-2.649-2.391-4.146-.011-.45-.709-.45-.703 0zm3.133-1.958c1.036.366 2.11 1.587 2.932 2.296.821.708 1.614 1.44 2.385 2.211.32.32.816-.175.495-.496a44.606 44.606 0 00-3.004-2.734c-.793-.664-1.632-1.603-2.622-1.946-.427-.152-.613.523-.185.669zm3.095-3.032a33.66 33.66 0 013.848 1.018c.427.141.613-.534.185-.675a33.664 33.664 0 00-3.848-1.018c-.438-.09-.624.585-.185.675z"/></g><defs><clipPath id="clip0_2188_775"><path fill="#fff" transform="translate(0 .5)" d="M0 0h270v179.788H0z"/></clipPath></defs></svg>