<svg width="36" height="36" fill="none" xmlns="http://www.w3.org/2000/svg"><path d="M30.747 5.253l.004 11.881V18c0 7.04-5.71 12.749-12.75 12.749-7.039 0-12.748-5.71-12.748-12.75 0-7.043 5.71-12.749 12.749-12.749 2.803 0 5.396.907 7.5 2.438V1.632A17.98 17.98 0 0017.999 0C8.06 0 0 8.06 0 18.002c0 9.94 8.059 17.999 17.998 17.999 9.94 0 17.998-8.06 17.998-17.999.004-4.977-1.989-9.493-5.249-12.749z" fill="#F9FCFF"/><path d="M17.998 10.502a7.5 7.5 0 00-7.5 7.5 7.5 7.5 0 007.5 7.501 7.5 7.5 0 007.5-7.5 7.5 7.5 0 00-7.5-7.501z" fill="#F9FCFF"/></svg>