<svg width="28" height="26" fill="none" xmlns="http://www.w3.org/2000/svg"><g clip-path="url(#clip0_569_58294)" fill="#007EE5"><path d="M8.238 0L.002 5.37l5.695 4.553L14 4.803 8.238 0zM.002 14.476l8.236 5.369L14 15.042l-8.304-5.12-5.695 4.554zM14 15.042l5.763 4.803L28 14.476l-5.694-4.553L14 15.043z"/><path d="M27.998 5.37L19.763 0 14 4.803l8.304 5.12 5.694-4.554zM14.017 16.075l-5.78 4.788-2.473-1.612v1.807L14.017 26l8.253-4.94v-1.808l-2.473 1.612-5.78-4.788z"/></g><defs><clipPath id="clip0_569_58294"><path fill="#fff" d="M0 0h28v26H0z"/></clipPath></defs></svg>