<svg width="160" height="32" fill="none" xmlns="http://www.w3.org/2000/svg"><g clip-path="url(#clip0_465_9517)"><path fill="#fff" d="M0 .501h160v31H0z"/><path d="M18.56 6.326l-9.28 5.826 9.28 5.825-9.28 5.825L0 17.945l9.28-5.825L0 6.326 9.28.501l9.28 5.825zm-9.328 19.35l9.28-5.826 9.28 5.826-9.28 5.825-9.28-5.825zm9.328-7.73l9.28-5.826-9.28-5.794L27.792.501l9.28 5.825-9.28 5.826 9.28 5.825-9.28 5.825-9.232-5.857zm25.792-11.62h7.504c4.784 0 8.736 2.724 8.736 8.943v1.307c0 6.266-3.696 9.084-8.592 9.084h-7.648V6.326zm4.192 3.511v12.296h3.216c2.72 0 4.544-1.747 4.544-5.636v-1.024c0-3.888-1.92-5.636-4.688-5.636h-3.072zm14.272.189h3.36l.544 3.637c.64-2.472 2.272-3.794 5.232-3.794h1.04v4.172h-1.728c-3.408 0-4.24 1.165-4.24 4.471v7.195H62.88V10.026h-.064zm11.008 8.155v-.44c0-5.243 3.408-8.109 8.048-8.109 4.736 0 8.048 2.866 8.048 8.109v.44c0 5.149-3.216 7.92-8.048 7.92-5.136-.048-8.048-2.756-8.048-7.92zm11.856-.047v-.393c0-2.913-1.488-4.66-3.856-4.66-2.32 0-3.856 1.605-3.856 4.66v.393c0 2.818 1.488 4.424 3.856 4.424 2.368-.047 3.856-1.606 3.856-4.424zm6.416-8.108h3.456l.4 2.96c.832-1.984 2.608-3.354 5.232-3.354 4.048 0 6.72 2.866 6.72 8.171v.441c0 5.149-2.96 7.872-6.72 7.872-2.512 0-4.24-1.117-5.088-2.912v7.919h-4.048l.048-21.097zm11.6 8.108v-.346c0-3.117-1.632-4.66-3.808-4.66-2.32 0-3.856 1.747-3.856 4.66v.299c0 2.77 1.488 4.518 3.808 4.518 2.384-.047 3.856-1.543 3.856-4.47zm10.336 4.676l-.352 2.866h-3.552V4.782h4.048v8.014c.896-2.047 2.672-3.165 5.184-3.165 3.808.048 6.624 2.63 6.624 7.825v.488c0 5.196-2.672 8.171-6.72 8.171-2.672-.063-4.4-1.275-5.232-3.306zm7.696-4.865v-.393c0-2.866-1.584-4.472-3.808-4.472-2.272 0-3.856 1.795-3.856 4.519v.346c0 2.913 1.536 4.613 3.808 4.613 2.432 0 3.856-1.495 3.856-4.613zm6.032.236v-.44c0-5.243 3.408-8.109 8.048-8.109 4.736 0 8.048 2.866 8.048 8.109v.44c0 5.149-3.264 7.92-8.048 7.92-5.136-.048-8.048-2.756-8.048-7.92zm11.888-.047v-.393c0-2.913-1.488-4.66-3.856-4.66-2.32 0-3.856 1.605-3.856 4.66v.393c0 2.818 1.488 4.424 3.856 4.424 2.384-.047 3.856-1.606 3.856-4.424zm9.632-.582l-5.584-7.526h4.784l3.216 4.707 3.264-4.707h4.736l-5.664 7.478L160 25.675h-4.688l-3.648-5.195-3.552 5.195h-4.896l6.064-8.123z" fill="#CDD9E8"/></g><defs><clipPath id="clip0_465_9517"><path fill="#fff" transform="translate(0 .501)" d="M0 0h160v31H0z"/></clipPath></defs></svg>