<svg width="64" height="64" fill="none" xmlns="http://www.w3.org/2000/svg"><path d="M61.334 32.176v17.206c0 2.193-1.791 3.971-4 3.971H6.666c-2.21 0-4-1.778-4-3.97V17.617c0-2.193 1.79-3.97 4-3.97H24V11H6.667C2.987 11.005.004 13.965 0 17.618v31.764C.004 53.035 2.987 55.996 6.667 56h50.666c3.68-.004 6.663-2.965 6.667-6.618V32.176h-2.666zM46 61H19v3h27v-3z" fill="#4D627C"/><path d="M26 55h-3v8h3v-8zm16 0h-3v8h3v-8zm20.678-41.786H59.04c-.074-.183-.15-.366-.23-.55l2.575-2.573a1.322 1.322 0 000-1.87l-5.607-5.606a1.321 1.321 0 00-1.869 0L51.335 5.19c-.184-.08-.366-.157-.55-.23V1.32a1.32 1.32 0 00-1.32-1.321h-7.93c-.73 0-1.32.592-1.32 1.321v3.64a17.37 17.37 0 00-.55.232L37.09 2.615a1.322 1.322 0 00-1.868 0l-5.607 5.607a1.322 1.322 0 000 1.869l2.575 2.574c-.08.184-.157.366-.23.55h-3.64a1.32 1.32 0 00-1.321 1.32v7.93c0 .73.592 1.32 1.322 1.32h3.637c.074.185.15.367.232.55l-2.576 2.575a1.321 1.321 0 000 1.868l5.607 5.607a1.322 1.322 0 001.868 0l2.575-2.575c.183.08.366.157.55.231v3.638c0 .73.591 1.321 1.32 1.321h7.93c.729 0 1.32-.592 1.32-1.322v-3.637c.184-.074.367-.151.55-.232l2.575 2.576a1.321 1.321 0 001.868 0l5.607-5.607a1.321 1.321 0 000-1.869l-2.576-2.574c.081-.184.158-.366.232-.55h3.638a1.32 1.32 0 001.321-1.32v-7.93c0-.73-.592-1.32-1.322-1.32zm-1.321 7.929h-3.248a1.32 1.32 0 00-1.26.925 11.796 11.796 0 01-.807 1.925 1.322 1.322 0 00.236 1.548l2.304 2.303-3.739 3.738-2.303-2.304a1.321 1.321 0 00-1.547-.237c-.617.325-1.261.595-1.925.806a1.321 1.321 0 00-.925 1.26v3.25h-5.286V31.11c0-.577-.375-1.087-.925-1.26a11.795 11.795 0 01-1.925-.807 1.322 1.322 0 00-1.548.237l-2.303 2.303-3.738-3.738 2.304-2.303a1.321 1.321 0 00.237-1.548 11.804 11.804 0 01-.806-1.925 1.322 1.322 0 00-1.261-.925h-3.25v-5.286h3.249a1.32 1.32 0 001.26-.925c.212-.664.481-1.309.806-1.925a1.322 1.322 0 00-.236-1.548l-2.303-2.303 3.738-3.738 2.303 2.304a1.321 1.321 0 001.548.237 11.817 11.817 0 011.925-.806c.55-.173.925-.684.925-1.26v-3.25h5.286v3.25c0 .576.374 1.087.925 1.26.664.211 1.308.48 1.925.806a1.322 1.322 0 001.547-.237l2.304-2.304 3.738 3.738-2.305 2.303a1.321 1.321 0 00-.236 1.548c.325.617.595 1.26.806 1.925.173.55.683.925 1.26.925h3.25v5.286z" fill="#4D627C"/><path d="M45.5 12a6.5 6.5 0 100 13 6.508 6.508 0 006.5-6.5 6.5 6.5 0 00-6.5-6.5zm0 10.4a3.9 3.9 0 110-7.8 3.9 3.9 0 010 7.8zm-8.408 15.657l-5.795 5.724-12.544-12.39a1.362 1.362 0 00-1.909 0l-5.004 4.942H7V39h5.4c.357 0 .7-.14.954-.39l4.445-4.392L30.341 46.61a1.358 1.358 0 001.909 0L39 39.943l-1.908-1.886zM9.2 16A4.2 4.2 0 005 20.2V23h2.8v-2.8a1.4 1.4 0 011.4-1.4H12V16H9.2zm8.8 0h-3v3h3v-3z" fill="#4D627C"/></svg>