<svg width="85" height="85" fill="none" xmlns="http://www.w3.org/2000/svg"><path d="M73.917 25.104H61.22c.345-1.995 1.572-3.107 4.066-4.373l2.34-1.19c4.182-2.148 6.407-4.565 6.407-8.517 0-2.493-.959-4.45-2.877-5.87-1.88-1.419-4.182-2.11-6.829-2.11-2.11 0-4.028.538-5.793 1.65-1.726 1.075-3.03 2.456-3.836 4.182l3.683 3.683c1.42-2.877 3.491-4.297 6.215-4.297 2.302 0 3.721 1.19 3.721 2.84 0 1.38-.69 2.531-3.337 3.874l-1.497.73c-3.26 1.649-5.524 3.528-6.829 5.677-1.304 2.11-1.956 4.834-1.956 8.095v.882h19.22v-5.256zM72.22 36.43H51.192L40.68 54.64h21.027L72.22 72.85l10.513-18.21L72.22 36.43z" fill="#FB4F37"/><path d="M42.49 66.78c-13.388 0-24.28-10.892-24.28-24.28 0-13.388 10.892-24.28 24.28-24.28L50.803.825A42.691 42.691 0 0042.49.01C19.024.01 0 19.033 0 42.5c0 23.467 19.024 42.49 42.49 42.49a42.296 42.296 0 0025.024-8.15l-9.205-15.944c-4.253 3.663-9.78 5.884-15.819 5.884z" fill="#FB4F37"/></svg>