<svg width="32" height="32" fill="none" xmlns="http://www.w3.org/2000/svg"><circle cx="15.5" cy="15.501" r="15.5" fill="#43BE83"/><path d="M16 32C7.177 32 0 24.824 0 16 0 7.178 7.177 0 16 0s16 7.178 16 16c0 8.823-7.177 16-16 16zm0-30C8.28 2 2 8.28 2 16s6.28 14 14 14 14-6.28 14-14S23.72 2 16 2z" fill="#43BE83"/><path d="M14.332 22a.977.977 0 01-.706-.302L9.293 17.23a1.055 1.055 0 010-1.46.979.979 0 011.415 0l3.626 3.74 7.959-8.207a.979.979 0 011.414 0c.39.402.39 1.055 0 1.458l-8.666 8.937a.986.986 0 01-.709.302z" fill="#fff"/></svg>