<svg width="48" height="48" fill="none" xmlns="http://www.w3.org/2000/svg"><g clip-path="url(#clip0_586_45136)" fill="#2F74C8"><path d="M38 33v6a1 1 0 01-1 1H3a1 1 0 01-1-1V15a1 1 0 011-1h12v-2H3a3 3 0 00-3 3v24a3 3 0 003 3h34a3 3 0 003-3v-6h-2z"/><path d="M25 41v5H15v-5h-2v6a1 1 0 001 1h12a1 1 0 001-1v-6h-2z"/><path d="M29 46H11v2h18v-2zM45 0H17a3 3 0 00-3 3v28a3 3 0 003 3h28a3 3 0 003-3V3a3 3 0 00-3-3zm1 31a1 1 0 01-1 1H17a1 1 0 01-1-1V3a1 1 0 011-1h28a1 1 0 011 1v28z"/><path d="M20 4h-2v2h2V4zm4 0h-2v2h2V4zm4 0h-2v2h2V4zm12 4H15v2h25V8zM13 34H1v2h12v-2zM7 16a3 3 0 00-3 3v2h2v-2a1 1 0 011-1h2v-2H7zm-1 7H4v2h2v-2zm21-11h-6a3 3 0 00-3 3v2a3 3 0 003 3h6a3 3 0 003-3v-2a3 3 0 00-3-3zm1 5a1 1 0 01-1 1h-6a1 1 0 01-1-1v-2a1 1 0 011-1h6a1 1 0 011 1v2zm13-5h-6a3 3 0 00-3 3v2a3 3 0 003 3h6a3 3 0 003-3v-2a3 3 0 00-3-3zm1 5a1 1 0 01-1 1h-6a1 1 0 01-1-1v-2a1 1 0 011-1h6a1 1 0 011 1v2zm-15 5h-6a3 3 0 00-3 3v2a3 3 0 003 3h6a3 3 0 003-3v-2a3 3 0 00-3-3zm1 5a1 1 0 01-1 1h-6a1 1 0 01-1-1v-2a1 1 0 011-1h6a1 1 0 011 1v2zm13-5h-6a3 3 0 00-3 3v2a3 3 0 003 3h6a3 3 0 003-3v-2a3 3 0 00-3-3zm1 5a1 1 0 01-1 1h-6a1 1 0 01-1-1v-2a1 1 0 011-1h6a1 1 0 011 1v2zm2-19h-2v2h2V8z"/></g><defs><clipPath id="clip0_586_45136"><path fill="#fff" d="M0 0h48v48H0z"/></clipPath></defs></svg>