<svg width="270" height="228" fill="none" xmlns="http://www.w3.org/2000/svg"><g clip-path="url(#clip0_2210_1347)" fill="#153051"><path d="M104.731 47.755c6.614-1.082 13.368-2.003 20.076-1.279 5.812.627 11.427 3.8 17.307 2.153 6.479-1.811 12.752-3.234 19.542-3.11 3.297.062 7.339.03 10.444 1.19 2.241.839 2.521 2.044 2.495 4.285-.026 2.34-.3 4.695-.709 6.998-.533 3.012-1.32 6.045-2.5 8.87-1.78 4.27-5.377 5.6-9.776 5.885-2.987.197-6.025-.243-8.845-1.237-4.146-1.454-6.045-3.747-7.774-7.696-1.273-2.903-3.069-11.22-7.597-10.46-3.69.616-3.996 7.624-5.062 10.233-1.682 4.114-4.544 7.08-9.124 7.69-4.286.575-8.224-.74-10.615-4.482-1.827-2.857-3.261-6.19-4.405-9.357-.957-2.65-4.854-7.479-3.069-9.983.487-.684-.641-1.336-1.123-.658-1.242 1.744-.88 3.556.083 5.362.952 1.79 1.962 3.209 2.691 5.155.658 1.75 1.33 3.457 2.127 5.144 2.464 5.238 5.093 9.787 11.423 10.243 6.215.445 10.863-2.91 13.197-8.535.59-1.418 1.015-2.898 1.429-4.373.522-1.879 1.242-7.468 5.149-3.721 1.072 1.024 1.755 3.762 2.329 5.082.927 2.127 1.708 4.415 2.873 6.423 2.882 4.984 9.864 6.567 15.236 6.505 6.004-.072 10.248-1.873 12.416-7.633 1.289-3.421 2.122-7.04 2.578-10.662.3-2.407 1.304-6.744-.28-8.907-1.392-1.9-4.834-1.858-6.904-2.143a56.415 56.415 0 00-12.038-.367 57.611 57.611 0 00-11.847 2.168c-2.846.839-5.305 1.61-8.301 1.118-2.215-.362-4.343-1.154-6.521-1.666-8.323-1.962-16.929-.854-25.252.512-.823.135-.471 1.387.347 1.253z"/><path d="M110.362 49.923c-1.444 6.045-.455 14.486 5.129 18.31 6.102 4.183 12.4 2.195 15.733-4.124 2.609-4.943 2.148-12.7-3.214-15.506-2.877-1.506-6.49-1.713-9.673-1.682-2.779.026-6.329.243-7.908 2.847-.434.72.689 1.371 1.123.657 2.34-3.86 12.484-2.443 15.801-.699 4.813 2.526 4.953 9.839 2.505 14.145-1.247 2.194-3.209 4.668-5.776 5.227-3.209.699-7.225-.926-9.378-3.291-3.705-4.074-4.301-10.429-3.084-15.537.196-.818-1.061-1.165-1.258-.347z"/><path d="M118.198 56.91c-.052 3.224 1.159 7.862 4.715 8.897 3.327.968 5.134-2.407 5.424-5.202.3-2.872-.544-7.012-3.603-8.156-3.1-1.154-5.982 1.407-6.526 4.373-.077.409.554.585.626.17.508-2.773 3.478-5.356 6.34-3.617 2.407 1.46 2.899 5.409 2.412 7.908-.631 3.23-3.695 5.704-6.562 2.505-1.667-1.858-2.221-4.471-2.179-6.883.015-.414-.637-.414-.647.005z"/><path d="M122.173 57.785c-.694 1.392-.611 2.945-.042 4.373.425 1.071 1.486 2.34 2.795 2.132 1.537-.243 1.03-2.732 1.025-3.804-.011-1.444-.28-2.825-1.776-3.436-1.619-.657-2.261.497-2.442 1.977-.192 1.599.512 2.98 1.532 4.197.895 1.066 1.697.254 1.858-.818.201-1.34-.088-3.286-1.165-4.243-.243-.213-.507-.223-.787-.104-1.371.585-.258 3.576.145 4.482.342.766 1.465.104 1.123-.657a6.198 6.198 0 01-.465-1.475c-.021-.125-.099-1.253-.15-1.227-.264-.036-.528-.067-.787-.104.476.425.704 1.274.792 1.869.057.388.196 1.408-.088 1.677.212-.057.424-.114.631-.166-.336-.062-.828-1.17-.994-1.449-.351-.6-.429-1.123-.351-1.806.119-.994.683-1.367 1.35-.388.357.522.269 1.283.269 1.878 0 .564-.005 1.129-.01 1.693-.005.165.021.569-.052.6-.233.104-.833-.543-.952-.72-.714-1.055-.906-2.685-.342-3.83.373-.745-.745-1.402-1.117-.651zm28.221-5.523c-2.489 2.8-3.255 8.328-.885 11.397 2.071 2.676 5.787 5.641 9.037 3.027 6.304-5.056-.057-19.94-8.089-14.475-.347.233-.021.797.326.564 6.992-4.762 12.359 7.494 8.136 12.524-3.049 3.634-7.51.466-9.342-2.618-1.636-2.748-.714-7.722 1.273-9.958.285-.316-.176-.776-.456-.46z"/><path d="M153.143 56.465c-.482 1.092-1.092 2.458-.828 3.68a2.702 2.702 0 002.059 2.039c2.272.476 2.495-3.173 1.791-4.57-.393-.781-1.304-1.252-2.174-1.082-1.128.223-1.314 1.506-1.299 2.5.011.72.394 2.122 1.351 2.07 1.051-.051 1.335-1.687 1.253-2.474-.037-.326-.27-.683-.652-.652-.28.026-.451.047-.72.135-.792.259-.455 1.516.347 1.258.124-.032.248-.057.373-.088l-.653-.653c.042.373.078 1-.279 1.258.166-.02.336-.041.502-.067-.321-.068-.528-2.614.538-1.91.595.393.471 1.765.352 2.34-.098.465-.119.786-.642.605a1.404 1.404 0 01-.828-.807c-.315-.87.28-2.143.632-2.935.336-.75-.782-1.413-1.123-.647zm47.619 126.287c-3.027 7.261-1.464 14.17 1.574 21.131 1.625 3.727 3.534 7.375 4.606 11.319.352 1.294.724 3.162.217 4.451-.6 1.516-3.1 2.008-4.487 2.396a109.63 109.63 0 01-7.748 1.832 117.12 117.12 0 01-16.825 2.117c-4.648.243-9.513.471-14.072-.636-1.915-.466-3.815-1.17-5.424-2.335-.766-.553-2.386-1.842-2.691-2.862-.886-2.929 3.358-3.938 5.056-4.606 4.632-1.816 9.445-3.022 14.362-3.736.574-.083.605-.932.155-1.191-5.827-3.328-10.527-6.987-10.573-14.232-.052-7.557 4.244-12.334 9.253-17.468.585-.6-.336-1.521-.921-.921-5.569 5.709-10.014 10.941-9.611 19.32.347 7.267 5.274 11.045 11.195 14.429l.155-1.19c-4.917.719-9.73 1.925-14.362 3.737-2.07.807-6.681 1.847-6.485 4.813.176 2.691 3.52 5.051 5.652 6.112 3.059 1.527 6.557 2.024 9.942 2.179 10.103.471 20.526-.937 30.323-3.333 2.785-.683 7.479-1.268 8.555-4.513.896-2.702-.833-6.324-1.821-8.793-3.691-9.197-8.964-17.597-4.767-27.663.316-.782-.942-1.118-1.258-.357zm-85.328.217c-3.468 2.593-3.571 7.215-3.183 11.19.533 5.392 2.588 10.402 5.823 14.724.186-.326.372-.652.564-.978-4.534.051-7.634 3.084-9.88 6.764-1.879 3.074-3.97 6.521-.466 9.197 5.118 3.913 14.362 1.749 20.257.849 3.731-.57 7.463-1.206 11.148-2.034 2.432-.544 5.149-1.004 7.157-2.583 3.587-2.815 1.946-5.843-.652-8.669-5.677-6.179-2.66-13.078 1.248-19.346.445-.714-.684-1.366-1.123-.657-3.494 5.6-7.277 13.348-2.48 19.403.658.828 1.476 1.475 2.179 2.256 1.688 1.869 1.724 5.078-.636 6.47-.673.398-1.403.636-2.138.869-2.375.761-4.865 1.232-7.307 1.703-5.316 1.03-10.755 2.018-16.164 2.376-3.167.207-8.26.553-10.718-1.755-2.702-2.531.285-6.868 1.993-9.155 1.883-2.526 4.311-4.363 7.587-4.4.45-.005.869-.569.564-.978-2.474-3.307-4.27-6.981-5.16-11.034-.859-3.913-1.666-10.32 2.05-13.099.657-.487.005-1.615-.663-1.113zm86.079-9.202c-.502 0-1.077-.233-1.672-.698-1.118-.865-2.272-1.755-3.261-2.857-2.09-2.329-3.177-5.352-3.969-8.002a65.937 65.937 0 01-2.738-17.814c-.103-6.645.792-13.394 2.671-20.055a.647.647 0 01.802-.45.649.649 0 01.45.802c-1.842 6.542-2.722 13.162-2.619 19.683a64.706 64.706 0 002.686 17.467c.746 2.51 1.77 5.367 3.69 7.504.906 1.015 2.019 1.869 3.085 2.697.492.378.864.476.952.398.068-.062.068-.357-.196-.9l-2.997-6.252a.65.65 0 01.088-.699.647.647 0 01.668-.212l6.914 1.884c.073.021.135.031.181.036-.346-.559-1.076-.823-1.909-1.128-.896-.326-1.915-.699-2.536-1.563a.661.661 0 01-.068-.642.645.645 0 01.518-.383 18.747 18.747 0 009.316-3.856c-.73-.093-1.517-.005-2.334.078-.59.062-1.196.124-1.801.124-.187 0-.616 0-.948-.31-.32-.301-.352-.715-.367-.911-.15-1.92.005-3.846.16-5.709.073-.921.15-1.842.187-2.764.284-6.774-1.398-13.487-3.028-19.982a.653.653 0 01.476-.792.662.662 0 01.792.476c1.651 6.583 3.354 13.389 3.064 20.35a71.692 71.692 0 01-.192 2.811c-.144 1.811-.3 3.684-.16 5.501v.021a28.4 28.4 0 001.682-.119c1.366-.145 2.779-.29 4.104.336.197.093.337.28.368.497a.646.646 0 01-.213.58 20.1 20.1 0 01-9.409 4.704c.259.114.539.218.828.321 1.036.378 2.205.802 2.692 1.977.15.368.165.704.041 1.004-.253.606-.921.828-1.796.59l-5.543-1.506 2.386 4.969c.507 1.06.482 1.868-.077 2.406a1.336 1.336 0 01-.968.388zM100.384 89.024c-9.544-8.426-21.572-14.259-34.22-16.065-2.454-.352-4.953-.502-7.386.067-1.516.357-5.046 1.284-5.802 2.847-1.754 3.602 7.712 2.375 8.892 2.386a94.354 94.354 0 00-.564-.978c-1.186 1.599-2.314 4.678.678 4.776-.207-.274-.42-.548-.627-.822-.496 1.858-.709 6.96 1.853 7.784 1 .32 1.392-.384 2.453-.197 2.303.403 4.938 2.81 6.998 3.912 7.696 4.12 16.199 8.069 24.738 10.01.818.186 1.165-1.071.347-1.258-7.55-1.713-14.864-5.092-21.768-8.519a79.523 79.523 0 01-4.156-2.189c-1.816-1.035-4.352-3.178-6.464-3.498-.445-.068-.968.067-1.299.036-.217.507-.466.517-.756.03a52.814 52.814 0 00-.31-.553c-.968-1.439-.797-3.649-.378-5.212a.657.657 0 00-.626-.823c-.523-1.133-.373-2.075.445-2.815.305-.414-.114-.973-.564-.978-.803-.005-6.5.517-6.935-.068-1.34-1.8 5.874-2.903 6.702-2.94 4.637-.206 9.57 1.155 13.958 2.532a65.768 65.768 0 0123.87 13.471c.626.539 1.552-.377.921-.936zm34.655 5.346a15.24 15.24 0 01-4.234-.574c-2.049-.595-3.907-1.656-5.294-2.515-2.666-1.651-4.606-3.22-6.102-4.933-1.92-2.204-3.105-4.689-3.416-7.178a.652.652 0 111.294-.166c.279 2.231 1.356 4.472 3.105 6.485 1.408 1.615 3.25 3.105 5.807 4.684 1.315.813 3.069 1.822 4.969 2.37 2.805.813 6.117.678 9.574-.388 3.116-.957 6.04-2.53 9.011-4.192 1.076-.6 2.292-1.283 3.312-2.158 1.133-.973 2.013-2.174 2.727-3.214.932-1.361 2.055-3.178 2.495-5.16a.65.65 0 111.273.28c-.486 2.2-1.692 4.155-2.691 5.615-.719 1.05-1.703 2.391-2.955 3.468-1.118.957-2.396 1.676-3.525 2.308-3.038 1.697-6.029 3.302-9.264 4.3-2.096.642-4.145.968-6.086.968z"/><path d="M153.034 99.013c-.688 0-1.103-.57-1.325-.88-.544-.75-1.201-1.408-1.899-2.107a33.293 33.293 0 01-1.056-1.086c-1.351-1.465-2.07-2.79-2.267-4.167a.649.649 0 01.554-.735.656.656 0 01.735.554c.155 1.103.771 2.2 1.935 3.468.331.357.673.704 1.02 1.045.698.699 1.423 1.423 2.029 2.262.062.083.227.31.305.347 0-.238-.042-.461-.088-.699a103.008 103.008 0 01-1.397-9.834.653.653 0 01.59-.709c.362-.01.672.228.709.59.3 3.24.766 6.506 1.381 9.704.063.337.14.746.037 1.17-.15.616-.658 1.056-1.227 1.071-.015.006-.026.006-.036.006z"/><path d="M148.94 100.017c-.373 0-.771-.207-1.113-.6a44.304 44.304 0 01-4.921-6.9.65.65 0 111.128-.652 43.079 43.079 0 004.616 6.506v-3.447a.65.65 0 01.652-.652.65.65 0 01.653.652v3.856c0 .197.005.673-.373.999a.98.98 0 01-.642.238zm-24.568-.44h-.057c-.517-.02-1.221-.326-1.635-1.65a24.322 24.322 0 01-1.01-9.13.671.671 0 01.704-.596.65.65 0 01.595.704 23.033 23.033 0 00.958 8.638c.166.533.357.73.445.735-.01-.02.16-.062.248-.192.114-.17.182-.413.254-.672a16.522 16.522 0 012.298-4.917.653.653 0 01.906-.166.65.65 0 01.165.906 15.33 15.33 0 00-2.101 4.461c-.109.394-.212.761-.435 1.103-.321.481-.828.776-1.335.776zm-8.058-7.344a.828.828 0 01-.854-.735c-.523-2.857.026-5.936 1.506-8.446a.651.651 0 011.118.662 11.13 11.13 0 00-1.434 7.008c.207-.207.394-.533.559-.818a13.438 13.438 0 012.795-3.39.655.655 0 01.921.062.655.655 0 01-.062.921 12.199 12.199 0 00-2.526 3.064c-.388.663-.916 1.568-1.925 1.667-.026 0-.062.005-.098.005zm19.931 7.851c-.616 0-1.232-.43-1.641-1.17-.399-.724-.626-1.495-.849-2.246-.264-.88-.507-1.713-.999-2.386a.652.652 0 011.051-.77c.626.853.916 1.837 1.195 2.784.213.714.415 1.392.741 1.987.207.373.45.528.512.497.062-.02.191-.264.16-.87l-.155-3.503a.65.65 0 01.621-.678c.394-.052.663.264.678.62l.155 3.504c.068 1.491-.543 1.998-1.066 2.169a1.375 1.375 0 01-.403.062zM64.326 72.731c-1.397-3.648-4.207-7.075-6.324-10.314A651.709 651.709 0 0047.34 46.564c-.636-.916-3.747-6.894-5.419-5.682-.983.714-.025 2.008.342 2.8 1.175 2.51 2.329 5.03 3.504 7.54 3.524 7.546 6.982 15.195 11.106 22.441.415.73 1.538.073 1.123-.657C54.881 67.53 52.2 61.8 49.504 56.113a1300.872 1300.872 0 01-4.037-8.607c-.725-1.558-1.336-3.944-2.448-5.269-.233-.279-.73-.817-.58-.196.103.419.807 1.025 1.066 1.377 1.206 1.614 2.35 3.28 3.494 4.937a680.58 680.58 0 019.357 13.922c2.21 3.37 5.263 7.002 6.712 10.801.3.771 1.558.435 1.258-.347zm79.501-19.63c-1.041-4.114 8.306-3.742 10.402-3.856a181.24 181.24 0 018.566-.253c1.485-.01 3.028-.104 4.508.041 2.603.248 3.571 2.376 3.705 4.715a23.274 23.274 0 01-1.247 8.87c-1.304 3.794-3.157 6.392-7.308 7.101a16.54 16.54 0 01-9.14-1.035c-5.796-2.432-7.375-10.143-9.445-15.459-.3-.77-1.558-.434-1.258.347 1.584 4.063 2.806 8.762 5.321 12.38 2.148 3.09 5.403 4.534 9.057 5.093 3.281.501 7.794.357 10.506-1.88 2.774-2.292 4.032-7.028 4.549-10.392.425-2.748.973-7.126-.962-9.476-2.127-2.582-7.292-1.63-10.118-1.584-4.731.078-9.787-.026-14.445.86-2.5.476-4.637 2.116-3.939 4.875.197.812 1.455.466 1.248-.347zm32.207-2.422c2.391-1.201 4.973-1.305 7.509-1.983 1.786-.476 3.509-1.159 5.207-1.883 2.588-1.103 5.108-2.381 7.779-3.271 2.691-.9 5.413-2.024 7.044.936.274.487.533.979.771 1.48.02 1.74-.673 2.459-2.091 2.143-1.046.357-2.578.187-3.67.306-2.298.253-4.585.616-6.857 1.03-5.217.942-10.398 2.08-15.589 3.146-.817.171-.471 1.424.347 1.258 7.52-1.548 15.066-3.41 22.715-4.192 1.615-.166 5.233.398 6.537-1.015 1.17-1.262-.129-3.126-.766-4.331-.875-1.657-1.439-3.147-3.437-3.189-2.789-.062-5.832 1.274-8.337 2.324-3.142 1.32-6.19 2.909-9.477 3.85-2.805.803-5.698.938-8.337 2.262-.751.378-.093 1.501.652 1.129zm-71.08-.74c.098.57.233 1.128.409 1.677.419-.114.838-.233 1.257-.347-.279-.797-.554-1.594-.833-2.396.719-.59 1.522-.818 2.407-.689-.254.042 4.575-.502 3.519-1.252-.316-.228-.895-.005-.958.388-.15-.114-.295-.228-.445-.342-.533-.372-1.237.358-.89.89.43.658.859 1.31 1.289 1.967l.89-.89c-.787-.585-1.439-1.278-2.432-1.366-.544-.047-.741.574-.565.978l.637 1.454c.373-.217.75-.44 1.123-.657-.264-.352-.533-.704-.797-1.061-.342.264-.683.528-1.025.787.342.59.683 1.175 1.03 1.764.321-.243.637-.491.958-.734-1.305-.772-2.246-1.77-3.634-2.423l-.326 1.212c.777.067 1.553.14 2.329.206.621.057.922-.962.326-1.21-1.081-.461-3.084-.653-4.031.258-.994.958.181 3.002.693 3.892.342-.264.683-.528 1.025-.787-.538-.693-1.071-1.387-1.61-2.08-.346-.445-1.143-.072-1.112.46.098 1.61 1.123 2.687 1.754 4.157.306.714 1.325.175 1.191-.503-.27-1.335-.337-2.39-.28-3.715l-1.278.17c.347 1.201.667 2.391.962 3.608.171.709 1.31.564 1.279-.171l-.156-3.975-1.278.17c.181.963.362 1.926.549 2.889.419-.114.838-.233 1.257-.347a7.495 7.495 0 01-.207-2.37l-1.211.326c.461 1.05.72 2.148.787 3.296.098.808 1.299.865 1.304 0 0-1.236 0-2.473.005-3.71-.372.155-.74.305-1.112.46.201.9.315 1.812.341 2.733.062.849 1.206.823 1.304 0l.42-1.594-1.191-.155.156 1.718c.015.76 1.035.854 1.278.17.14-.388.279-.77.414-1.159-.419-.114-.839-.233-1.258-.346-.196 1.34-.414 2.593-.321 3.954h1.305l-.249-2.743c-.072-.828-1.247-.844-1.304 0a23.636 23.636 0 00.129 4.482l1.279-.171a51.089 51.089 0 00-1.429-3.737c-.31-.735-1.294-.16-1.19.502.212 1.367.554 2.697.869 4.037.42-.114.839-.233 1.258-.347-.626-1.521-1.273-2.97-2.2-4.342-.403-.595-1.387-.238-1.19.502a19.19 19.19 0 001.139 3.147c.31.678 1.387.196 1.19-.502-.367-1.294-.285-1.072-.895-2.272-.181-.357-.756-.44-1.025-.13-1.19 1.387 1.589 5.47 2.21 6.713.347.688 1.33.186 1.19-.502-.217-1.05-.429-2.101-.647-3.157-.398.165-.792.336-1.19.502a40.553 40.553 0 011.392 3.416c.285.797 1.403.476 1.258-.347-.187-1.04-.368-2.086-.554-3.126-.129-.72-1.315-.554-1.278.17a25.9 25.9 0 00.377 3.282c.13.73 1.294.549 1.279-.17a10.49 10.49 0 00-.109-1.797c-.067-.662-1.149-.957-1.278-.17-.337 2.07.486 3.477 1.459 5.263.404.74 1.506.083 1.123-.657-.315-.611-.631-1.217-.947-1.827-.336-.652-1.407-.202-1.19.502a20.866 20.866 0 001.382 3.4c.383.745 1.506.088 1.123-.657a12.653 12.653 0 01-1.247-3.09c-.399.166-.792.336-1.191.502.316.61.632 1.216.947 1.827.373-.217.751-.44 1.123-.657-.703-1.3-1.589-2.655-1.33-4.26l-1.278-.17c.088.595.124 1.195.109 1.795l1.278-.17a15.956 15.956 0 01-.331-2.935l-1.279.17c.187 1.041.368 2.087.554 3.127.419-.114.839-.233 1.258-.347a45.947 45.947 0 00-1.522-3.726c-.326-.704-1.33-.181-1.19.502.217 1.05.429 2.101.647 3.157.398-.166.792-.337 1.19-.502-.383-.761-2.655-4.855-2.417-5.134-.341-.042-.683-.088-1.025-.13.254.652.513 1.31.766 1.962.399-.166.792-.337 1.191-.502a11.989 11.989 0 01-1.009-2.836c-.399.165-.792.336-1.191.502.87 1.283 1.48 2.598 2.07 4.031.311.756 1.455.492 1.258-.346-.321-1.346-.657-2.676-.869-4.037-.399.165-.792.336-1.191.502a48.4 48.4 0 011.294 3.426c.217.652 1.372.595 1.278-.17a23.635 23.635 0 01-.129-4.483h-1.304l.248 2.743c.073.823 1.361.844 1.304 0-.088-1.237.094-2.38.275-3.607.119-.818-.968-1.15-1.258-.347-.14.388-.279.771-.414 1.16l1.278.17c-.02-1.009-.031-1.066-.201-2.06-.088-.522-.973-.662-1.191-.155-.455 1.071-.46 1.092-.595 2.251h1.304c-.083-1.138.197-2.784-.724-3.654-.404-.383-1.113-.113-1.113.461 0 1.237 0 2.474-.005 3.711h1.304c-.171-1.392-.414-2.655-.968-3.949-.264-.626-1.201-.264-1.211.326-.015.952.067 1.79.254 2.717.165.823 1.413.471 1.257-.346-.181-.963-.362-1.926-.548-2.888-.135-.72-1.31-.554-1.279.17l.156 3.975 1.278-.17a80.503 80.503 0 00-.963-3.608c-.207-.714-1.247-.559-1.278.17a16.475 16.475 0 00.326 4.064c.399-.166.792-.337 1.19-.502-.465-1.077-1.506-2.32-1.578-3.504l-1.113.46c.538.694 1.072 1.387 1.61 2.08.46.596 1.382-.165 1.025-.786-1.496-1.408-1.698-2.168-.601-2.282a4.89 4.89 0 012.158-.088l.326-1.211c-.776-.068-1.552-.14-2.329-.207-.631-.057-.905.942-.326 1.21 1.346.632 2.371 1.672 3.634 2.423.481.285 1.117-.186.957-.735-.29-.983-.652-1.604-1.361-2.34-.497-.517-1.475.187-1.025.787.264.352.533.704.797 1.061.507.673 1.46.114 1.123-.657l-.636-1.454c-.187.326-.373.652-.564.978.548.046 1.387.895 1.775 1.185.528.394 1.231-.367.89-.89l-1.289-1.967-.89.89c.637.446.797.71 1.397.823.254.052.616-.026.735-.3.15-.352.15-.481.228-.963l-.957.389c.419.3.522.341 1.024.31.28-.015.559-.191.627-.476.636-2.593-4.493-1.056-5.507-.999-3.53.212-2.873 1.76-1.843 4.72.275.782 1.481.471 1.258-.346a14.453 14.453 0 01-.409-1.677c-.171-.808-1.423-.461-1.252.357z"/><path d="M111.459 64.886v.083c0 .838 1.304.838 1.304 0v-.083c0-.839-1.304-.839-1.304 0z"/><path d="M111.309 65.155c.466 1.226 1.066 2.194 1.972 3.146.512.539 1.392-.15 1.025-.786a12.054 12.054 0 01-1.061-2.143c-.399.166-.792.337-1.191.502.492 1.056.787 2.33 1.838 2.935.533.305 1.045-.197.957-.735a5.988 5.988 0 00-.476-1.915c-.419.114-.838.233-1.258.346a83.58 83.58 0 001.439 3.592c.186.44.927.41 1.123 0 .311-.641.352-.678.264-1.387l-1.211.326c.098.213.192.425.29.637.222.492 1.102.383 1.19-.155.047-.275.093-.544.135-.818.057-.337-.083-.714-.456-.802a106.72 106.72 0 00-.346-.3c-.321-.653-1.455-.192-1.191.502 1.222 3.214 4.161 2.98 7.287 3.395 2.226.295 4.855-.404 6.584-1.915.377-.326.16-.963-.285-1.087-.078-.02-.16-.041-.238-.067a.66.66 0 00-.632.165c-.326.326-.383.337-.227.476-.331-.3-.771-.217-1.025.13-.181.264-.373.522-.574.776l.89-.233c-.792-.424-.854-.455-1.6-.403-.998.067-2.437.828-3.519 1.009-2.117.352-3.172.098-4.446-1.812-.243.321-.491.637-.735.958 1.367.372 2.697.807 4.017 1.314.781.3 1.123-.957.346-1.257a42.273 42.273 0 00-4.016-1.315c-.522-.145-1.056.471-.735.958 1.129 1.687 1.915 2.732 4.011 2.675 1.739-.046 4.902-1.599 6.025-1.004.341.181.667.057.89-.233.202-.253.393-.507.574-.776-.341.041-.683.088-1.024.13.993.9 1.961-.166 1.676-.244-.093-.362-.191-.724-.284-1.087-.818.715-2.754 1.346-3.851 1.569-1.982.408-7.018-.306-7.846-2.474-.398.165-.792.336-1.19.502.326.657.414.74 1.123.9-.15-.269-.306-.533-.456-.802-.046.274-.093.543-.134.818l1.19-.156c-.098-.212-.191-.424-.29-.636-.258-.57-1.294-.305-1.211.326-.026.243-.057.486-.083.73h1.124a49.568 49.568 0 01-1.31-3.282c-.29-.77-1.527-.455-1.257.347a5.98 5.98 0 01.476 1.915c.321-.243.636-.492.957-.735-.673-.388-1.082-1.847-1.371-2.468-.306-.663-1.47-.182-1.191.502.352.853.73 1.65 1.191 2.453.341-.264.683-.528 1.024-.787a5.841 5.841 0 01-1.635-2.572c-.305-.766-1.563-.43-1.263.352z"/><path d="M128.119 67.727a.585.585 0 01-.057-.047c-.165.399-.336.792-.502 1.19-.026.156-.057.306-.083.461.223.715 1.237.56 1.279-.17.02-.368.041-.74.067-1.108a98.09 98.09 0 00-.978.564c.155.114.305.228.46.347.337.248.87-.016.958-.388.062-.264.124-.533.191-.797h-1.257c.103.31.202.62.305.931.233.71 1.227.564 1.278-.17.021-.316.042-.637.068-.953h-1.304l.046.554c.047.585.906.963 1.211.326.518-1.071 1.46-1.822 1.977-2.914.528-1.112.828-2.36 1.201-3.53.792-2.5 1.149-4.663.538-7.26-.181-.761-1.211-.518-1.278.17a4.796 4.796 0 00.026 2.086c.083.678 1.076.942 1.278.17.176-.584.311-1.174.404-1.775h-1.258c.207.668.357 1.351.45 2.045.125.709 1.041.517 1.258 0l.311-.745-1.279-.171c-.031.269-.057.538-.088.807l1.279.17c0-.134.005-.268.005-.403.01-.838-1.294-.838-1.304 0 0 .135-.006.27-.006.404-.01.745 1.066.87 1.279.17.17-.569.176-.563.134-1.153-.057-.766-.999-.844-1.278-.171l-.311.745h1.258a12.517 12.517 0 00-.45-2.044c-.156-.595-1.134-.647-1.258 0-.093.6-.228 1.19-.404 1.775l1.279.17a4.721 4.721 0 01-.026-2.085l-1.278.17c.636 2.702.01 4.855-.803 7.412-.377 1.196-.709 2.34-1.428 3.375-.476.688-.989 1.164-1.351 1.914.404.11.807.218 1.211.326l-.046-.553c-.068-.834-1.243-.844-1.305 0-.02.315-.041.636-.067.952l1.278-.17c-.103-.311-.201-.622-.305-.932-.191-.58-1.102-.658-1.258 0-.062.264-.124.533-.191.797.321-.13.637-.26.957-.388a26.643 26.643 0 01-.46-.347c-.425-.321-.952.124-.978.564-.021.367-.042.74-.068 1.107l1.279-.17c-.171-.554-.197-1.206-.828-1.367-.761-.196-1.061.761-.502 1.19.02.016.041.032.057.047.672.507 1.319-.626.667-1.128z"/><path d="M111.314 46.942c.078.114.156.228.233.337.254.367.683.414 1.025.129.109-.093.223-.186.331-.274-.341-.042-.683-.088-1.025-.13l.497.761c.332.507.973.357 1.191-.155.051-.12.098-.238.15-.362l-1.191.155c.083.134.166.274.249.409.295.486 1.025.378 1.19-.155l-.383-.337c.254.72 1.196.549 1.279-.17-.125.103-.254.206-.378.31.352.57 1.169.305 1.211-.326.015-.212.026-.425.041-.642a98.09 98.09 0 00-.978.564c.212.135 1.273.518.875.295a.66.66 0 00.89-.233l.217-.372-.89.232c.233.125 1.123.176 1.237.27.274.217.652.274.921 0 .062-.068.13-.13.192-.197-.342-.041-.683-.088-1.025-.13.047.078.093.161.14.239.207.357.729.434 1.024.129.29.098.58.197.875.295.373.155.844.062.958-.388-.094 0-.182.005-.275.005.145.621 1.108.621 1.258 0l-.047.274c.389.56 1.134.31 1.211-.326l-.248.109c.388.305.926.212 1.087-.29.041-.13.088-.264.129-.393-.321.13-.636.259-.957.388.227.16.45.32.678.486.207.15.626.11.786-.103.14.088.275.176.414.264.451.724 1.47.093 1.124-.657l-.264.848c.253.554 1.024.321 1.19-.155l.078.456c.284.559 1.268.315 1.211-.326-.078-.87-3.163-1.227-3.918-1.227-.839.005-.839 1.283 0 1.304 4.368.104 6.904 2.904 8.26 6.728.279.782 1.454.476 1.258-.347-.337-1.412-.761-3.048-1.812-4.135-.409-.424-1.019-.698-1.485-1.024-2.723-1.895.874.626 1.506 1.366l.921-.921a22.478 22.478 0 01-2.246-2.645l-.89.89a6.99 6.99 0 012.251 1.61c.487.455 1.221 0 1.087-.632-.073-.341-.145-.683-.223-1.024-.398.165-.792.336-1.19.502a15.63 15.63 0 002.039 2.344c.373.352 1.17.135 1.113-.46-.104-1.046-.088-1.01-.378-2.019-.362.212-.725.424-1.087.631.306.347.611.7.916 1.046.456.704 1.517.088 1.123-.657.978 1.847 1.481 3.291.181 5.04-.424.575-1.061 1.067-1.511 1.651.399.166.792.337 1.191.503.667-1.73 1.64-2.981 1.79-4.845.052-.631-.942-.905-1.211-.326l-1.242 2.624 1.211.326c.166-1.526.326-3.053.492-4.58h-1.304c-.078.86-.031 4.492-.984 5.098.326.186.652.372.978.564-.025-1.89.534-3.954.037-5.776-.202-.735-1.227-.538-1.279.17-.145 1.89-.336 3.748-.735 5.6l1.279.172a62.146 62.146 0 01-.445-5.114c-.016-.336-.285-.673-.652-.652-.057.005-.109.005-.166.01-.217.016-.466.11-.564.321-.388.839-.295 1.879-.362 2.774l1.278-.17c-.124-.72-.254-1.434-.378-2.154-.109-.626-1.139-.62-1.258 0l-.124.668c-.15.818 1.103 1.17 1.258.347l.124-.668h-1.258c.125.72.254 1.434.378 2.153.135.766 1.227.513 1.279-.17.025-.368.057-.74.082-1.108-.828-.357-1.107-.166-.843.574-.254.616.264 2.63.336 3.194.083.662 1.108.962 1.279.17.429-1.971.631-3.933.781-5.946l-1.278.17c.445 1.63-.109 3.732-.083 5.435.005.476.554.833.978.564 1.604-1.02 1.475-4.544 1.63-6.22.078-.84-1.211-.824-1.304 0-.166 1.526-.326 3.053-.492 4.58-.067.636.942.895 1.211.325l1.243-2.623c-.404-.11-.808-.218-1.211-.326-.125 1.593-1.175 3.027-1.745 4.497-.289.75.787 1.03 1.191.502 1.18-1.537 2.417-1.832 2.551-3.763.088-1.231-.3-3.23-1.257-4.088-1.061-.953-3.038-.399-2.21 1.164.372-.217.75-.44 1.123-.657-.513-.792-.409-.688-1.123-1.31-.471-.408-1.279-.025-1.087.632.109.559.222 1.113.331 1.672.373-.156.74-.306 1.113-.461a9.395 9.395 0 01-1.837-2.08c-.425-.596-1.351-.249-1.191.502.073.341.145.683.223 1.024.362-.212.724-.424 1.087-.631a11.196 11.196 0 00-2.516-1.812c-.528-.284-1.299.332-.89.89a24.906 24.906 0 002.453 2.91c.595.605 1.46-.29.922-.922-.994-1.165-3.075-3.323-4.772-2.955-.218.046-.394.243-.456.455-.227.808.207 1.32.73 1.946.606.735.745.585 1.418 1.232 1.387 1.335 2.251 2.5 2.702 4.384.419-.114.838-.233 1.257-.347-1.568-4.425-4.508-7.567-9.517-7.686v1.305c1.33-.006 2.867 1.257 4.026.263.171-.15.223-.424.166-.631l-.078-.29c-.083-.295-.341-.45-.626-.476-.088-.005-.171-.015-.259-.02-.331-.032-.678.32-.652.651.01.145.026.29.036.435l1.211-.326c-.471-.921-.874-1.18-1.853-1.014-.227.036-.383.253-.455.455-.047.14-.098.28-.145.42l1.19-.156c-.341-.75-.414-.807-1.211-.999a.66.66 0 00-.734.3c-.29.466-.27.673-.042 1.165.373-.217.751-.44 1.123-.657-.823-1.336-1.589-.57-2.349-1.113-.363-.259-.839.026-.958.388-.041.13-.088.264-.129.393.362-.093.724-.191 1.087-.29-.911-.724-1.827-.33-1.972.813l1.211-.326c-.502-.72-.916-1.05-1.791-.797a.65.65 0 00-.455.456c-.031.124-.057.253-.088.377h1.257c-.326-1.392-1.889-1.407-2.236-.005l.958-.388c-.973-.414-1.656-.921-2.448-.093.341.041.683.088 1.025.13-.047-.078-.094-.161-.14-.239a.66.66 0 00-1.025-.13c.606-.615-.481-.118-.776-.273-.311-.166-.709-.078-.89.232l-.218.373.89-.233c-.331-.181-.755-.217-.874-.295-.44-.285-.947.098-.978.564-.016.212-.026.425-.042.642l1.211-.326c-.279-.45-.367-.74-.792-.978a.661.661 0 00-.657 0c-.538.32-.528.73-.595 1.325l1.278-.171c-.036-.104-.072-.207-.108-.316-.104-.295-.321-.445-.627-.476-.833-.083-1.154.373-1.387 1.123l1.191-.155-.249-.409c-.315-.523-.983-.342-1.19.155-.052.12-.098.238-.15.362l1.19-.155-.497-.76c-.248-.373-.688-.41-1.024-.13-.109.093-.223.186-.332.274.342.042.684.088 1.025.13-.078-.114-.155-.228-.233-.337-.466-.73-1.594-.077-1.118.616z"/><path d="M135.598 49.385c.315.466.626.931.942 1.402.476.704 1.464.099 1.123-.657-.192-.424-.378-.844-.57-1.268-.341.264-.683.528-1.024.787.274.259.548.523.823.781.44.42 1.325.01 1.086-.631-.119-.326-.243-.652-.362-.978-.321.243-.636.491-.957.735.186.16.378.315.564.476.367.419 1.144.093 1.113-.46-.011-.208-.021-.41-.037-.617-.372.156-.74.306-1.112.46.336.265.667.606 1.055.788.264.124.575.119.787-.104.285-.295.238-.486.362-.854-.207.16-.419.321-.626.476.601-.046 1.32.125 1.625.673.28.518 1.02.357 1.191-.155-.316.952.119 1.268.548 2.101l.89-.89c-.983-.642-1.397-1.858-2.303-2.598-.45-.368-1.33-.042-1.087.631.43 1.19.854 2.38 1.284 3.571.398-.165.792-.336 1.19-.502l-2.489-3.592c-.388-.559-1.475-.232-1.19.502l1.195 3.095c.362-.212.725-.424 1.087-.631-.606-.75-1.02-1.558-1.434-2.417-.289-.59-1.221-.29-1.211.326.016.911.145 1.698.435 2.557.399-.166.792-.337 1.19-.502-.471-.968-.942-1.936-1.418-2.904-.3-.61-1.19-.274-1.211.326-.036.942.135 1.75.394 2.65.398-.165.791-.336 1.19-.502a12.14 12.14 0 00-.999-1.36c-.254-.306-.854-.229-1.025.128-.269.585-.124.85-.041 1.475.098.735.026 1.372.362 2.055.223.45.885.393 1.123 0 .611-1.01 2.629 1.811 2.8 2.07.461.689 1.553.073 1.123-.657a9.849 9.849 0 01-1.071-2.614c-.399.166-.792.337-1.19.502.574.973 1.04 1.977 1.49 3.013.274.631 1.196.258 1.211-.327.042-1.335-.512-2.556-.476-3.892l-1.211.327c.274.58.497 1.18.657 1.795.228.75 1.191.523 1.279-.17a3.96 3.96 0 00.062-1.129l-1.279.171c.233.771.466 1.542.704 2.314.202.667 1.367.584 1.279-.171-.052-.466-.099-.642-.445-.958-.425-.393-1.082-.103-1.113.461-.083 1.428.372 2.536.999 3.799.372-.218.75-.44 1.123-.657l-1.299-2.495c-.337-.647-1.429-.202-1.191.502l1.274 3.773c.222.657 1.33.6 1.278-.17a69.122 69.122 0 00-.347-3.717l-1.278.17c.295 1.17.595 2.34.89 3.505.176.683 1.03.548 1.258 0 .207-.502.201-.487.155-1.025-.073-.823-1.273-.849-1.304 0-.006.207-.016.414-.021.621-.031.839 1.273.839 1.304 0 .005-.207.016-.414.021-.621h-1.304l-.109.678h1.258c-.295-1.17-.596-2.34-.891-3.504-.176-.688-1.371-.57-1.278.171.15 1.237.264 2.474.347 3.716l1.278-.17-1.273-3.774c-.399.166-.792.337-1.19.502.434.834.864 1.662 1.299 2.495.388.745 1.49.088 1.123-.657-.518-1.046-.89-1.941-.818-3.142l-1.113.46c.021.011.042.026.062.037l1.279-.17c-.233-.772-.466-1.543-.704-2.314-.207-.689-1.289-.58-1.278.17.031.378.01.756-.063 1.129l1.279-.171a17.943 17.943 0 00-.792-2.106c-.274-.627-1.201-.264-1.211.325-.031 1.336.517 2.557.476 3.892l1.211-.325c-.45-1.036-.916-2.04-1.49-3.013-.378-.636-1.372-.217-1.191.502a11.08 11.08 0 001.201 2.925l1.123-.658c-.833-1.247-3.618-4.435-5.046-2.07h1.123c-.031-.067-.368-2.122-.321-2.22-.342.041-.683.088-1.025.13a7 7 0 01.792 1.096c.383.611 1.403.228 1.191-.502-.223-.776-.378-1.495-.347-2.303l-1.211.326c.471.968.942 1.936 1.418 2.904.321.657 1.428.196 1.19-.502a6.998 6.998 0 01-.388-2.215l-1.211.326c.471.962.968 1.847 1.641 2.68.398.497 1.319-.04 1.086-.63l-1.195-3.096c-.399.166-.792.337-1.19.502l2.489 3.592c.393.564 1.454.238 1.19-.502-.429-1.19-.854-2.38-1.283-3.571-.363.212-.725.424-1.087.631 1.019.828 1.444 2.07 2.567 2.8.58.378 1.17-.346.89-.89-.29-.564-2.189-4.01-2.924-1.79l1.19-.156c-.636-1.16-1.464-1.423-2.748-1.32-.3.026-.533.187-.626.477-.036.113-.217.476-.026.279.264-.036.528-.067.787-.104a6.71 6.71 0 01-.792-.584c-.404-.316-1.144-.16-1.113.46.011.207.021.41.036.616l1.113-.46c-.341-.394-.378-.415-.828-.678-.461-.27-1.159.186-.957.734.119.326.243.652.362.979.362-.213.724-.425 1.087-.632-.275-.259-.549-.523-.823-.781-.564-.533-1.315.134-1.025.786.192.425.378.844.569 1.268.373-.217.751-.44 1.123-.657-.315-.466-.626-.931-.942-1.402-.45-.663-1.578-.01-1.112.688z"/><path d="M142.843 59.26a27.51 27.51 0 001.843 4.611c.331.657 1.413.202 1.19-.502a66.214 66.214 0 01-1.273-4.652c-.419.113-.838.232-1.258.346.523 1.268 1.051 2.541 1.574 3.81.321.78 1.371.486 1.257-.347a15.906 15.906 0 00-.895-3.494c-.295-.776-1.434-.486-1.258.347.461 2.122.984 4.15 2.164 5.993.455.71 1.501.088 1.123-.657a10.862 10.862 0 00-1.382-2.08c-.352-.42-1.159-.089-1.113.46.13 1.392 1.154 2.577 1.853 3.747.43.72 1.522.078 1.123-.657a16.045 16.045 0 00-2.225-3.142c-.218-.243-.709-.264-.921 0-1.02 1.263.926 3.67 1.661 4.627.414.533 1.433.27 1.19-.502-.176-.549-.347-1.102-.523-1.651-.398.166-.791.337-1.19.502.476 1.108 1.113 1.853 2.065 2.578.311.238.901 0 .958-.389.212-1.423-.766-2.872-1.486-4.037-.44-.714-1.506-.088-1.123.658.906 1.76 1.837 3.731 3.312 5.087.404.368 1.124.124 1.113-.46-.02-1.108-1.754-1.708-2.66-1.858-.279-.047-.59.03-.735.3-.776 1.449 1.843 2.675 3.007 2.179 1.817-.777.264-2.79-.957-3.24-.611-.228-1.108.667-.632 1.087a20.688 20.688 0 002.371 1.816c.703.46 1.356-.662.657-1.123a18.235 18.235 0 01-2.107-1.615c-.212.363-.424.725-.631 1.087.875.523.989.735.336.637-.32.02-.626-.036-.916-.176-.243.098-.491.202-.735.3.109.016 1.708.606 1.708.6l1.113-.46c-1.371-1.253-2.272-3.188-3.11-4.824l-1.123.657c.496.803 1.495 2.066 1.35 3.039.321-.13.637-.26.958-.389-.771-.585-1.227-1.237-1.599-2.111-.29-.678-1.413-.197-1.191.502.176.548.347 1.102.523 1.65.398-.165.792-.336 1.19-.501-.186-.244-2.06-2.805-1.863-3.049h-.921a14.98 14.98 0 012.018 2.878c.373-.217.751-.44 1.123-.657-.502-.844-1.578-2.076-1.671-3.09l-1.113.46c.497.596.833 1.14 1.18 1.817.373-.217.75-.44 1.123-.657-1.118-1.75-1.594-3.675-2.034-5.683-.419.114-.838.233-1.258.347.435 1.149.725 2.277.896 3.493.419-.114.838-.233 1.257-.346-.522-1.268-1.05-2.542-1.573-3.81-.31-.755-1.454-.491-1.258.347a65.669 65.669 0 001.274 4.653c.398-.166.792-.336 1.19-.502a25.227 25.227 0 01-1.708-4.3c-.243-.803-1.496-.462-1.258.346zm11.459.144c-.16-.44-.642-1.95-.217-2.354.232-.218.91.43 1.035.657.212.383.279.89.269 1.32a2.86 2.86 0 01-.228 1.076c-.186.409-.285.631-.585.274-.191-.222-.574-2.122-.052-2.215-.165-.02-.336-.041-.502-.067.415.186.016 1.863-.046 2.132-.186.818 1.066 1.165 1.258.347.217-.931.584-2.567-.176-3.354-.611-.626-1.46-.274-1.802.435-.621 1.289.068 5.527 2.241 4.089 1.615-1.066 1.574-4.177.223-5.424-.611-.57-1.993-.745-2.634-.114-.782.766-.347 2.665-.037 3.535.28.792 1.538.455 1.253-.337zm-13.658-10.226c.429.704.797 1.589 1.402 2.163.197.186.549.27.787.104 1.02-.704.29-2.195.057-3.152-.399.165-.792.336-1.19.502.176.388.346.781.522 1.17.285.641 1.175.248 1.211-.327.031-.434.057-.87.088-1.304-.372.155-.74.305-1.112.46.248.285.502.57.75.855.259.352.901.491 1.123 0 .073-.156.14-.306.212-.46-.403-.11-.807-.218-1.211-.327-.026.3-.046.6-.072.9.372-.155.74-.305 1.113-.46-.782-.828-1.827-.575-2.122.528-.187.688.869 1.19 1.19.502.849-1.832 5.144-2.07 6.852-2.448 2.448-.544 4.824-1.025 7.344-1.035v-1.304c-2.442.113-4.963.186-7.349.703-.843.187-1.946.342-2.184 1.367-.052.217-.01.476.166.631.869.782 2.148.388 3.183.337 2.386-.12 4.637-.207 6.992-.684.729-.15.548-1.283-.171-1.278-2.169.016-4.218-.357-6.361.098.114.42.233.839.347 1.258 3.183-.699 5.243-2.505 8.56-.585.166-.398.337-.792.502-1.19a12.592 12.592 0 00-4.596.088l.803.802c.005-.036 2.774.683 2.981.76v-1.257c-.518.052-1.041.099-1.558.15-.838.016-.838 1.32 0 1.305.921-.016.994-.032 1.905-.197.698-.124.533-1.05 0-1.258-.958-.362-4.213-1.532-4.581.145-.114.507.306.9.802.802a8.5 8.5 0 013.903-.088c.688.109 1.185-.792.502-1.19-3.83-2.22-5.533-.43-9.559.455-.818.181-.471 1.429.346 1.258 1.998-.424 4.001-.036 6.014-.052l-.17-1.278c-2.205.45-4.752.662-6.863.76 1.558-.072 4.347-.465 6.397-.558.833-.036.843-1.304 0-1.304-3.183.01-6.169.745-9.259 1.428-2.065.455-5.072.549-6.066 2.696.399.166.792.337 1.19.502-.015.016-.036.032-.051.047.414.44 1.071.072 1.112-.46.026-.3.047-.601.073-.901.052-.626-.947-.911-1.211-.326-.073.155-.14.305-.212.46h1.123c-.388-.527-.487-.657-.953-1.117-.419-.415-1.076-.089-1.112.46-.031.435-.057.87-.088 1.304l1.211-.326c-.176-.388-.347-.781-.523-1.17-.31-.693-1.356-.19-1.19.503.326 1.335.931 1.205.129-.114-.44-.725-1.563-.067-1.128.647z"/><path d="M147.745 47.542a6.481 6.481 0 01-2.133.57c.166.398.337.791.502 1.19 1.398-.833 14.813-3.882 15.221-2.665.249.734 1.186.538 1.279-.171.02-.171.041-.337.067-.507.093-.725-1.149-.896-1.278-.171l.202 1.066-.891.233c.042.057.083.119.125.176.398-.166.791-.337 1.19-.502.031.248.067.497.098.75.363-.212.725-.424 1.087-.631l-.6-.062c.15-.27.305-.533.455-.802.362.522.73 1.045 1.092 1.568.207-.275.419-.549.626-.823.037-.099.073-.197.104-.295l.89.233c-.269-.27-.543-.539-.812-.808-.042.342-.088.684-.13 1.025.709-.543 1.926 1.45 3.033.673.248-.17.368-.435.3-.735-.378-1.61-1.796-1.056-2.556-.052-.254.331.015.87.388.958.833.196 1.666.393 2.494.59.72.17 1.134-.792.502-1.19a9.204 9.204 0 01-1.94-1.434c-.207.274-.42.548-.627.823 1.548.15 5.864.859 6.734 2.23.957 1.517.584 4.4.419 6.16l1.278-.172c-.352-1.987.259-4.704-.699-6.48-.31-.574-1.211-.3-1.211.327 0 1.847 0 3.695.006 5.537l1.278-.17c-.295-1.49-.585-2.982-.88-4.472-.145-.745-1.258-.538-1.278.17-.036 1.026.01 1.993.098 3.013l1.278-.17c-.6-2.589-1.966-4.535-4.155-6.03l-.658 1.123c1.004.512 3.556 1.371 3.623 2.634l1.211-.326a23.494 23.494 0 01-2.044-3.297c-.342.264-.683.528-1.025.787.668.76 1.278 1.775 2.189 2.251.197.104.461.135.658 0a3.49 3.49 0 00.186-.13 81.633 81.633 0 01-.978-.563c.227 2.075.29 4.099.181 6.18-.036.724 1.123.895 1.278.17.124-.574.243-1.149.368-1.718l-1.279-.171c.104 1.553.037 2.743-.295 4.316l1.279.171a5.807 5.807 0 01.165-2.805l-1.278-.17a7.878 7.878 0 01-.626 2.69c.419.114.838.233 1.257.347.213-1.402.295-2.748.218-4.171-.037-.694-1.129-.932-1.279-.171-.196.983-.388 1.967-.584 2.95l1.278.17c.103-.972.207-1.94.305-2.913.083-.776-1.04-.813-1.278-.17-.404 1.102-.342.832-.383 2.002h1.304c.016-.89.078-1.728.192-2.613h-1.305a13.36 13.36 0 01-.113 2.225c-.078.833 1.226.828 1.304 0 .098-.74.14-1.48.114-2.225.01-.865-1.201-.808-1.305 0-.113.88-.176 1.723-.191 2.613-.016.839 1.273.833 1.304 0 .114-.554.228-1.107.337-1.656l-1.279-.17c-.103.972-.207 1.94-.305 2.913-.078.725 1.138.89 1.278.17.197-.983.388-1.966.585-2.95l-1.278-.17a17.93 17.93 0 01-.171 3.825c-.124.817.968 1.149 1.258.346a12.6 12.6 0 00.672-3.038c.078-.73-1.118-.88-1.278-.17-.254 1.112-.326 2.003-.212 3.151.067.673 1.118.948 1.278.171.331-1.573.445-3.053.342-4.663-.047-.693-1.118-.931-1.279-.17-.124.574-.243 1.148-.367 1.718l1.278.17c.104-2.08.047-4.109-.181-6.18-.046-.444-.528-.869-.978-.563.212-.145-1.428-1.89-1.454-1.92-.508-.58-1.346.16-1.025.786a23.49 23.49 0 002.044 3.297c.347.471 1.253.383 1.211-.326-.108-2.013-2.722-2.97-4.269-3.763-.751-.383-1.346.653-.658 1.124 1.926 1.314 3.038 3.007 3.556 5.248.16.703 1.34.569 1.278-.171a25.44 25.44 0 01-.098-3.012l-1.279.17c.295 1.49.585 2.982.88 4.472.145.73 1.279.549 1.279-.17 0-1.848 0-3.696-.006-5.539-.403.11-.807.218-1.211.327.756 1.402.264 4.476.565 6.163.139.772 1.216.502 1.278-.17.155-1.651.688-5.75-.694-7.153-1.682-1.703-5.522-2.318-7.758-2.536-.434-.041-.724.45-.626.823.305 1.17 1.579 1.605 2.536 2.21.166-.398.336-.792.502-1.19l-2.495-.59.389.957c1.03-1.361-1.962-2.634-2.759-2.66a.653.653 0 00-.626.476c-.44 1.625.994 2.691 2.412 2.055.212-.093.31-.347.321-.564.01-.181.02-.363.025-.544a.654.654 0 00-.32-.564l-.44-.254c-.182-.103-.477-.134-.658 0-.17.13-.341.26-.507.389-.362.28-.414.662-.129 1.024 1.713 2.21 3.338-1.014 1.092-1.278-.212-.026-.466.14-.564.32-.078.151-.156.296-.228.446-.098.191-.14.471 0 .657.103.135.202.27.305.404.228.295.539.404.89.233l.456-.223c.207-.098.316-.346.321-.564.005-.17.005-.341.01-.507.005-.212-.124-.471-.321-.564-2.318-1.056-3.633 2.122-1.226 2.329.44.036.719-.445.626-.823-.311-1.294-2.013-2.267-2.79-.75-.103.201-.134.455 0 .657.057.088.119.176.176.269.176.269.43.342.735.3.093-.015.192-.026.285-.041.222-.031.388-.26.455-.456.476-1.418-1.107-2.458-2.111-1.335-.192.212-.259.533-.104.787.073.119.145.243.218.362.165.269.439.347.734.3l.389-.062c.336-.052.559-.497.455-.802-.605-1.817-3.012-.44-1.573 1.33.46.57 1.169-.078 1.087-.632-.358-2.427-3.572-1.806-2.479.254.362.678 1.335.197 1.19-.502-.119-.564-.207-.704-.725-.952-.346-.171-.662-.067-.89.233-.088.113-.176.227-.264.346-.14.187-.098.466 0 .658.073.14.145.28.212.419a.634.634 0 00.564.32c1.232-.004 1.455-.662 1.662-1.805l-1.279-.171c-.02.17-.041.336-.067.507l1.279-.17c-.782-2.294-4.006-1.18-5.787-.824-2.23.445-4.414 1.103-6.661 1.48-1.687.285-3.188.337-4.688 1.232-.663.399-.202 1.315.502 1.19a6.357 6.357 0 002.132-.569c.797-.295.46-1.552-.331-1.268z"/><path d="M172.038 56.76a1247.45 1247.45 0 01-.952 4.089l1.278.17c.156-1.335.42-2.422.849-3.664l-1.278-.17a19.267 19.267 0 01-.145 3.773c-.109.802 1.02 1.18 1.258.346.264-.926.543-1.847.838-2.764l-1.278-.17c-.052.673-.099 1.34-.15 2.013-.13.807 1.081 1.18 1.257.347.15-.704.295-1.408.445-2.112-.419-.114-.838-.233-1.257-.347a39.298 39.298 0 01-1.786 6.553l1.278.17c.052-1.428.218-2.815.508-4.212.165-.813-1.035-1.165-1.258-.347a53.873 53.873 0 00-.988 4.415l1.278.17a29.17 29.17 0 01.031-2.851c.046-.725-1.128-.896-1.278-.171-.27 1.299-.544 2.603-.813 3.902l1.278.17c-.015-.382-.031-.765-.041-1.148-.031-.844-1.242-.833-1.304 0-.031.9-.156 1.79-.373 2.66-.145.678.875 1.216 1.19.502a12.736 12.736 0 011.662-2.8c-.399-.165-.792-.336-1.191-.502-1.283 4.363-5.056 6.216-9.383 6.78-3.519.46-8.596.233-11.003-2.624-.212.362-.424.725-.631 1.087.854.336 1.713.678 2.567 1.014.699.275 1.128-.828.502-1.19-.311-.181-.621-.357-.932-.538-.217.372-.44.75-.657 1.123 5.941 2.96 14.854 2.629 18.828-3.194l-1.211-.325c.233 1.024-.051 1.764-.854 2.215-.388-.3-.926-.218-1.086.284-.409 1.268-1.517 1.605-2.749 1.946-.693.192-.574 1.31.171 1.279 1.196-.047 5.31-.477 4.881-2.366-.078-.341-.477-.548-.803-.455l-.445.124c-.802.228-.46 1.486.347 1.258l.445-.124c-.269-.15-.533-.306-.802-.456-1.18.368-2.391.606-3.623.714l.171 1.279c2.272-.632 2.94-.616 3.659-2.852-.362.093-.725.192-1.087.285 2.226 1.728 2.945-1.424 3.074-3.137.052-.693-.879-.817-1.211-.326-3.472 5.093-11.857 5.316-17.048 2.728-.745-.373-1.392.704-.657 1.123.31.181.621.357.932.538.165-.398.336-.792.502-1.19l-2.567-1.015c-.663-.264-1.005.647-.632 1.087 2.81 3.333 8.731 3.618 12.721 2.92 4.829-.844 8.442-2.878 9.844-7.655.223-.761-.771-1.051-1.19-.502a12.853 12.853 0 00-1.661 2.8c.398.165.791.336 1.19.501.212-1.009.347-1.982.419-3.006h-1.304c.015.383.031.765.041 1.148.026.704 1.123.922 1.279.171.269-1.299.543-2.603.812-3.902l-1.278-.17a29.17 29.17 0 00-.031 2.85c.026.7 1.144.927 1.278.172.264-1.49.59-2.95.989-4.415-.42-.114-.839-.233-1.258-.347a27.01 27.01 0 00-.554 4.56c-.026.776 1.035.828 1.279.17a38.915 38.915 0 001.785-6.552c.15-.812-1.082-1.174-1.258-.346-.15.704-.295 1.407-.445 2.111.42.114.839.233 1.258.347.186-1.2.192-1.144.197-2.36 0-.75-1.056-.864-1.279-.17a85.066 85.066 0 00-.838 2.763c.419.114.838.233 1.258.347a21.49 21.49 0 00.191-4.12c-.036-.74-1.04-.875-1.278-.17a18.803 18.803 0 00-.896 4.01c-.082.73 1.113.88 1.279.171.315-1.361.631-2.722.952-4.089.186-.802-1.071-1.148-1.258-.33zm.901-8.68c-.031-.015-.067-.025-.098-.04.129.098.258.201.388.3l-.047-.094v.657a1.77 1.77 0 01-.098.094h-.657c-.192-.176-.182-.352.02-.523.166-.02.337-.041.502-.067-.031-.01-.062-.026-.093-.037.129.099.259.202.388.3-.015-.03-.031-.062-.046-.098.02.166.041.337.067.502.005-.036.01-.072.021-.103-.099.13-.202.259-.301.388.047-.026.088-.057.135-.083-.166.02-.336.042-.502.067l-.031-.47c.155-.063.305-.13.461-.192l.388.497c-.342.041-.683.088-1.025.13-.016-.032-.036-.063-.052-.1.021-.165.042-.335.068-.501-.016.036-.032.067-.047.103.129-.098.259-.202.388-.3-.031.005-.067.01-.098.02.243.1.491.203.735.301-.016.093-.037.192-.052.285-.155.062-.305.13-.461.191.052-.005.104-.005.156-.01-.156-.062-.306-.13-.461-.192a7.435 7.435 0 01-.088-.315c.098-.13.202-.26.3-.389-.062.088-.119.176-.181.264.129-.098.259-.201.388-.3-.046.254-.093.502-.14.756-.129-.098-.258-.202-.388-.3.057-.031.109-.062.166-.088-.078.833 1.227.828 1.304 0 .119-1.248-1.682-1.361-2.122-.357-.419.947.652 2.003 1.542 1.34.766-.57.389-2.256-.719-1.863-1.004.357-.756 1.884.243 2.065 1.123.202 1.796-1.294.865-1.967-.797-.58-1.972.14-1.579 1.123.435 1.098 2.003.554 1.687-.584-.264-.958-1.697-1.01-1.868.03-.233 1.444 2.055 1.527 1.806.156-.248-1.377-2.381-.337-1.511.817.191.254.419.358.735.3.73-.134.714-.936.316-1.397-.27-.31-.839-.222-1.025.13-.249.481-.254 1.107.3 1.382a.824.824 0 001.175-.596c.098-.548-.254-1.133-.818-1.216-.569-.083-1.092.404-.952.989a.788.788 0 001.195.47c.414-.279.492-.91.259-1.33-.269-.476-.952-.584-1.309-.134-.394.497-.073 1.05.44 1.252.766.306 1.102-.952.331-1.262zm-67.333 1.248a.656.656 0 01.409.052c.186.083.165.238.17.015.063-.155.13-.305.192-.46.222-.104.171-.114-.155-.037a.5.5 0 01-.451-.16c-.062.155-.129.305-.191.46-.14.078-.14.156.01.234.311.765 1.574.43 1.258-.347-.3-.74-1.325-1.558-2.107-.885-.76.657.156 1.703.854 1.915.684.207 2.148.067 1.879-.994-.233-.916-1.418-1.2-2.21-1.05-.828.155-.481 1.412.342 1.257zm95.524-6.221c-.026-.083-.057-.165-.088-.248-.399.165-.792.336-1.191.502.321.46 1.393 1.558 1.403 2.117l1.211-.327c-.492-1.009-.745-1.821-.947-2.887-.399.165-.792.336-1.19.502.284.46.543.931.771 1.418.284.564 1.268.31 1.211-.326l-.062-.746-1.211.326c.336.425.631.875.895 1.351.378.621 1.403.223 1.19-.502l-.341-1.17c-.363.213-.725.425-1.087.632.875 1.102 1.392 2.215 1.718 3.581.362-.212.725-.424 1.087-.631-.719-.895-1.154-2.112-1.651-3.136-.326-.684-1.366-.197-1.19.502.336 1.33.869 2.582 1.112 3.933.15-.27.306-.533.456-.802-1.144.274-2.236-.062-3.333.326.165.398.336.792.502 1.19 1.744-1.107 3.369-.926 2.774-3.42-.181-.772-1.196-.503-1.278.17a25.46 25.46 0 00-.073.61c-.155.586-.083.761.223.534-.083-.326-.326-1.517-.513-2.112-.248-.797-.346-1.325-.957-1.889-.45-.414-1.31-.015-1.087.632a19.77 19.77 0 01.88 3.731c.398-.166.792-.336 1.19-.502-.528-1.139-.471-3.783-1.749-4.29-1.61-.642-4.327 1.33-5.74 1.8-.843.28-3.064.358-3.178 1.569-.098 1.071 1.387.988 1.983 1.34.491.29 1.102-.191.957-.735-.041-.274-.078-.543-.119-.817-.326.186-.652.372-.978.564.274.248.549.491.828.74.419.424 1.071.083 1.113-.46l-.554.046c.321.347.988.186 1.087-.285.062-.29.119-.585.181-.875-.321.13-.637.26-.958.389 1.507 1.154 2.355 1.149 2.49-.87-.326.187-.652.373-.978.564.559.42.512.456 1.076.57.275.057.601-.031.735-.3.243-.477.347-1.015.497-1.527l-1.19.155c.372.554.476.937.874 1.439.388.491 1.066.03 1.113-.46.041-.394.067-.788.083-1.18-.373.154-.74.304-1.113.46.243.3.487.595.735.895.383.471 1.082.052 1.113-.46l.031-.606-1.279.17c.275.793.57 1.533.973 2.257.704 1.258-.574-1.185-.719-1.413-.378-.584-1.475-.217-1.19.502.269.673 1.061 2.06.936 2.79.27-.15.534-.305.803-.456-.678-.165-1.708-2.008-2.122-2.53-.451-.564-1.185.072-1.087.631l.512 2.935c.13.734 1.279.543 1.279-.171 0-1.211.398-2.314.584-3.494l-1.278-.17a23.52 23.52 0 01-.269 2.877l.957-.388c-1.946-.844-1.599.026-3.524.787-.761.3-.481 1.48.347 1.257a21.065 21.065 0 002.075-.672c.782-.295.481-1.408-.347-1.258-.833.155-2.882.864-3.586.3-.332-.27-.326-1.397-.414-1.9-.42.114-.839.233-1.258.347.336.978.756 1.853 1.315 2.728.377.585 1.133.29 1.211-.326.103-.487.129-.973.067-1.465h-1.304c.067.74.124.87.595 1.444.383.466 1.092.057 1.113-.46a8.879 8.879 0 00-.197-2.252c-.419.114-.839.233-1.258.347.197.486.337.988.43 1.5.419-.113.838-.232 1.257-.346a4.82 4.82 0 01-.408-1.542c-.399.165-.792.336-1.191.502.368.642.611 1.299 1.237 1.703.295.186.725.062.89-.233.254-.45.223-.622.352-1.274h-1.257c.16.523.321 1.046.481 1.574.212.699 1.263.57 1.278-.171a37.69 37.69 0 00-.02-2.153l-1.211.326c.284.538.574 1.071.859 1.61.336.631 1.138.253 1.211-.327.098-.403.103-.812.015-1.216l-1.211.326c-1.211-1.8-2.282-1.36-3.291.456h1.123c-.233-.502-.233-.56-.57-.896-.258-.258-.657-.232-.921 0-.036.032-.067.063-.103.094-.223.191-.233.543-.104.786l.052.099c.398.74 1.521.082 1.123-.658-.016.202-.036.399-.052.6h-.921l.367.632c.207.445.901.404 1.124 0l.522-1.128.466.59c.285.124.528.419.844.502.321.083.657.119.967-.01.761-.321.932-1.051.487-1.719-.326-.481-1.284-.367-1.211.326.088.41.083.813-.016 1.216l1.211-.326c-.284-.538-.574-1.07-.859-1.61-.3-.563-1.237-.31-1.211.327.026.72.031 1.434.021 2.153l1.278-.17c-.16-.523-.321-1.046-.481-1.574-.176-.58-1.123-.663-1.258 0-.072.32-.15.642-.222.962l.89-.232a10.501 10.501 0 01-.771-1.237c-.388-.673-1.315-.197-1.191.502a4.85 4.85 0 00.409 1.542c.28.781 1.444.481 1.258-.347a7.409 7.409 0 00-.43-1.5c-.269-.793-1.428-.477-1.257.346a5.05 5.05 0 01.15 1.905c.372-.156.74-.306 1.113-.461-.073-.176-.14-.347-.213-.523-.077-.817-1.335-.849-1.304 0a4.5 4.5 0 01-.067 1.465l1.211-.326a10.472 10.472 0 01-1.185-2.417c-.275-.797-1.403-.476-1.258.347.14.766-.233 2.53.719 2.991 1.051.507 3.742-.269 4.886-.481-.114-.42-.233-.839-.347-1.258-.688.259-1.361.476-2.075.673.114.42.233.838.347 1.258.636-.254 1.796-1.232 2.52-.922.342.145.885.073.958-.388a25.87 25.87 0 00.315-3.219c.026-.72-1.164-.906-1.278-.17-.207 1.298-.631 2.515-.631 3.84l1.278-.171-.512-2.935c-.363.212-.725.425-1.087.632.683.864 1.542 2.582 2.696 2.867.316.078.74-.099.802-.456.187-1.138-.533-2.463-.936-3.483-.399.166-.792.337-1.191.502.492.761.885 2.309 1.807 2.697.248.103.59.134.786-.104 1.04-1.263-.031-3.188-.466-4.44-.243-.694-1.237-.575-1.278.17l-.031.606 1.113-.46c-.244-.3-.487-.596-.735-.896-.383-.466-1.087-.052-1.113.46-.01.394-.041.787-.083 1.18l1.113-.46c-.181-.228-.486-.9-.668-1.175-.305-.46-1.03-.404-1.19.155.036.606-.093.766-.393.482-.43-.321-.953.124-.978.564.465.455.512.538.144.248a12.06 12.06 0 01-.672-.507c-.326-.248-.88.01-.958.388-.062.29-.119.585-.181.875.362-.098.725-.192 1.087-.29-.259-.28-.368-.424-.709-.543-.264-.093-.606.062-.735.3-.212.388-.192.647-.228 1.123l1.113-.46c-.44-.45-.585-.565-1.087-.943-.398-.3-.994.11-.978.565.015.533.031.652.165 1.164.321-.243.637-.492.958-.735-.621-.367-.916.01-.311-.155 1.155-.31 2.298-.735 3.401-1.196.885-.367 1.915-1.273 2.789-.455.451.42.683 2.432 1.025 3.167.342.735 1.278.155 1.19-.502a19.583 19.583 0 00-.879-3.731c-.363.212-.725.424-1.087.631 1.325 1.222.605 3.856 2.562 4.658.253.104.61-.067.735-.3.393-.745.144-1.61.243-2.422l-1.279.17c.254 1.082-1.532 1.538-2.178 1.947-.596.377-.223 1.449.502 1.19 1.035-.368 2.241-.062 3.333-.326.362-.088.512-.46.455-.802-.238-1.351-.776-2.609-1.113-3.934-.398.166-.792.337-1.19.502.564 1.175 1.035 2.386 1.853 3.4.434.539 1.226-.051 1.087-.63-.378-1.58-1.046-2.889-2.055-4.157-.419-.523-1.258.047-1.087.632l.342 1.17c.398-.166.792-.337 1.19-.503a10.568 10.568 0 00-.895-1.35c-.337-.466-1.274-.378-1.211.325l.062.746 1.211-.326a13.58 13.58 0 00-.771-1.418c-.389-.663-1.325-.202-1.191.502.218 1.143.57 2.158 1.077 3.198.29.59 1.221.29 1.211-.326-.016-1.05-1.015-1.961-1.579-2.774-.393-.57-1.449-.243-1.19.502.031.083.057.166.088.248.285.772 1.542.435 1.263-.362z"/><path d="M175.081 52.428c.114.26.223.518.337.782.264.616 1.216.274 1.211-.326-.01-1.139.005-.994-.248-2.107-.399.166-.792.337-1.191.502l.487.89c.305.56 1.242.316 1.211-.325a65.99 65.99 0 01-.042-1.015l-1.278.17c.212.477.357.969.445 1.481.078.337.476.559.802.456.093-.026.181-.057.275-.083-.213-.363-.425-.725-.632-1.087.124-.042.254-.078.378-.12v1.258c3.742-.61 7.437-1.526 11.189-2.153 3.861-.646 4.984-3.105 8.033-5.15.429-.289.429-1.065-.156-1.19-1.925-.403-3.845.352-5.636 1.093-1.102.455-2.018 1.22-3.136 1.645-1.594.606-3.411.658-5.077 1.056-.828.197-8.379 1.765-5.238 3.892.259.176.57.072.787-.103.466-.373.481-.45.621-1.04a83.96 83.96 0 00-1.087.29c.155.19.311.387.466.579.3.372 1.004.165 1.087-.285.046-.259.098-.512.145-.771-.363.093-.725.191-1.087.285l.6.569c.445.42 1.041.083 1.113-.46l.093-.72-1.113.46c.43.466.518.678 1.051.823a.662.662 0 00.735-.3c.207-.362.202-.652.254-1.092-.327.187-.653.373-.979.564l.513.326c.346.223.859.01.957-.388.052-.202.099-.403.15-.6l-1.19.155c.331.507.409.74.88 1.014.284.171.74.083.89-.232.207-.43.197-.71.243-1.232l-1.211.326c.135.233.274.466.409.699.285.486 1.035.377 1.19-.156.068-.233.14-.47.207-.703l-1.19.155c.186.29.367.585.554.874.357.565 1.169.31 1.211-.326l.077-1.19c-.372.155-.74.305-1.112.46.362.415.409.518.802.751.31.181.704.062.89-.233.331-.523.249-.517.362-1.33l-1.19.155c.305.6.368.777.683 1.19.145.187.425.208.632.166.797-.15.843-.807.854-1.51l-1.211.325c.175.243.357.487.533.73.393.533 1.143.331 1.211-.326l.093-.89-1.211.326.528 1.035c.207.409.926.445 1.123 0 .29-.657.336-.834.424-1.548l-1.211.326c.688 1.036 1.853.896 2.226-.305-.363.093-.725.192-1.087.285.098.13.202.253.3.383.331.424.937.119 1.087-.285.098-.264.196-.528.295-.787l-1.191.156c.301.543.337.584.756 1.04.414.45 1.066.062 1.113-.46.031-.342.062-.69.088-1.03l-1.113.46c.16.197.326.388.486.585.342.409.937.13 1.087-.29.171-.393.29-.797.357-1.221h-1.257c.165.527.222.662.595 1.05.212.223.528.228.787.104.626-.3.476-.72.895-1.19-.342-.042-.683-.089-1.025-.13.171.362.347.724.518 1.087.227.481 1.107.393 1.19-.156a7.244 7.244 0 01.337-1.614h-1.258c.078.233.15.465.228.704.253.791 1.48.465 1.257-.347l-.155-.564c-.145-.528-.916-.652-1.19-.155-.466.838-.813 1.376-.549 2.35-.083-.317-.471-.58-.802-.456-2.469.957-5.471 1.397-8.043 1.982-2.22.502-4.932.621-6.671 2.22-.342.31-.197 1.004.285 1.087.786.14.74.155 1.537.073.823-.083.833-1.387 0-1.305-.399-.01-.792-.015-1.191-.026.093.363.192.725.285 1.087 1.796-1.65 6.236-1.904 8.514-2.432 1.821-.42 3.892-.761 5.62-1.429-.269-.15-.533-.305-.802-.455.129.481.228.626.688.828.197.088.466.15.658 0 1.123-.87.807-1.47 1.583-2.867l-1.19-.156.155.565c.419-.114.839-.233 1.258-.347-.078-.233-.15-.466-.228-.704-.191-.595-1.081-.642-1.257 0a7.125 7.125 0 00-.337 1.615l1.191-.156c-.171-.362-.347-.724-.518-1.086-.176-.368-.761-.43-1.025-.13-.507.575-.212.259-.103.61-.187-.579-1.108-.656-1.258 0a4.995 4.995 0 01-.357 1.222c.362-.093.725-.191 1.087-.284-.161-.197-.326-.389-.487-.585-.398-.476-1.066-.047-1.112.46-.031.342-.063.689-.088 1.03.372-.155.74-.305 1.112-.46-.186-.259-.367-.518-.553-.777-.29-.527-1.004-.341-1.191.156a85.19 85.19 0 01-.295.786 83.96 83.96 0 001.087-.29c-.098-.129-.202-.253-.3-.382-.321-.41-.958-.135-1.087.29.052 0 .104-.006.155-.006-.378-.569-1.138-.3-1.211.326-.083.295-.165.596-.243.89h1.123l-.528-1.035c-.321-.631-1.154-.253-1.211.326l-.093.89 1.211-.325c-.176-.244-.357-.487-.533-.73-.368-.497-1.206-.362-1.211.326.083-.166.171-.337.253-.502-.238-.46-1.112-.404-1.19.155-.078.337-.15.678-.228 1.014l.891-.232a45.094 45.094 0 01-.539-.544c-.398-.455-1.076-.062-1.112.46l-.078 1.191 1.211-.326c-.186-.29-.367-.585-.554-.874-.3-.471-1.03-.394-1.19.155-.067.233-.14.47-.207.704l1.19-.156c-.134-.233-.274-.465-.409-.698-.346-.595-1.154-.285-1.211.326-.02.191-.046.383-.067.574l.89-.233-.409-.548c-.295-.45-1.05-.414-1.19.155-.052.202-.098.404-.15.6l.957-.388-.512-.326c-.461-.29-.926.104-.978.564l.186-.357c-.424-.46-1.045-.052-1.113.46l-.093.72 1.113-.46-.6-.57c-.332-.31-.994-.217-1.087.29-.047.259-.099.512-.145.771.362-.098.724-.191 1.087-.29-.156-.191-.311-.388-.466-.58-.311-.382-.983-.155-1.087.29-.103.435 4.342-.859 4.855-.993 1.749-.46 3.622-.507 5.341-1.046 2.675-.838 5.362-3.535 8.394-2.903l-.155-1.19c-1.035.693-1.822 1.532-2.696 2.411-1.791 1.796-3.602 2.386-6.05 2.759-3.416.517-6.765 1.449-10.165 2.003-.714.119-.518 1.045 0 1.257.046.021.098.042.145.057.207.088.481-.02.631-.165a2.4 2.4 0 01.114-.109c.455-.445-.005-1.283-.631-1.087-.094.026-.181.057-.275.083.269.15.533.305.803.456a5.929 5.929 0 00-.446-1.48c-.238-.648-1.314-.611-1.278.17.016.337.031.673.042 1.014l1.211-.326-.487-.89c-.362-.667-1.346-.202-1.19.502l.202 1.76 1.211-.326c-.114-.259-.223-.518-.337-.782-.321-.776-1.444-.119-1.113.647z"/><path d="M189.112 47.982c.078.533.228 1.247.663 1.62.274.233.647.259.921 0 .3-.285.367-.61.523-1.014l-1.191.155c.187.238.332.502.44.781.171.363.766.435 1.025.13.062-.073.124-.15.192-.223-.342-.041-.684-.088-1.025-.13.248.373.383.508.817.622.368.098.668-.124.803-.456l.372-.636h-1.123c.073.176.145.352.218.523.16.6 1.118.641 1.257 0 .13-.611.145-.652.104-1.273l-1.279.17c.119.533.316.885.663 1.3.378.46 1.097.061 1.113-.461.015-.46.036-.911.062-1.372l-1.113.46c.409.508.787 1.352 1.584 1.093.719-.238.662-1.082.631-1.703l-1.278.17c.134.55.315 1 .59 1.486.279.492 1.04.378 1.19-.155.176-.621.181-.688.207-1.33-.372.155-.74.305-1.113.46.994 1.025 1.765.239 2.128-.859h-1.258c.248.611.564 1.838 1.475 1.682.869-.145.828-1.294.859-1.946l-1.211.327c.109.144.223.29.331.434.274.357.668.42 1.025.13l-.217.186c.269.792 1.526.45 1.257-.347-.331-.983-1.081-1.464-1.961-.76.341.04.683.087 1.024.129-.108-.145-.222-.29-.331-.435-.383-.497-1.18-.362-1.211.326-.026.481.828 1.413.223-.083-.238-.58-1.041-.652-1.258 0 .016.093.031.192.052.285-.404-.42-1.092-.088-1.113.46-.052.327-.103.658-.16.984l1.19-.155a2.968 2.968 0 01-.461-1.175c-.17-.704-1.314-.57-1.278.17.036.704.419.202.005-.31-.383-.476-1.076-.046-1.113.46-.031.456-.051.912-.062 1.372l1.113-.46c-.109-.244-.217-.487-.326-.725-.155-.71-1.325-.564-1.278.17-.021.311-.037.622-.057.927h1.257c-.098-.383-.15-.497-.346-.833-.264-.45-.844-.383-1.123 0-.285.393-.321.497-.502.947.269-.15.533-.305.802-.455-.011-.01-.026-.016-.036-.026-.218-.321-.735-.471-1.025-.13-.062.073-.124.15-.192.223.342.041.683.088 1.025.13a2.996 2.996 0 00-.44-.782c-.331-.492-.983-.368-1.19.155-.062.145-.124.295-.192.44h.922a2.11 2.11 0 01-.327-1.046c-.144-.802-1.397-.45-1.273.373zm-67.954-2.892a9.397 9.397 0 00-.874-6.574.357.357 0 01.144-.486.364.364 0 01.389.03l.015.011 4.177 3.266-.797.212a8.28 8.28 0 00.357-3.654 7.74 7.74 0 00-.419-1.78l-.368-.932a1.894 1.894 0 01-.109-.74l.011-.108.026-.135.036-.135a1.49 1.49 0 01.264-.47c.435-.497.999-.59 1.454-.58.471.02.921.155 1.33.455.187.12.42.42.487.513.145.212.238.388.321.574.16.373.258.735.341 1.066.083.332.15.637.238.911.083.254.181.445.326.626.14.182.316.321.461.389.15.056.202.04.274.01l-.45.476c.476-1.371.668-2.841.58-4.285a11.24 11.24 0 00-1.072-4.156.99.99 0 01.471-1.315.983.983 0 011.268.388l.011.021a12.107 12.107 0 004 4.11l-1.609.76c.062-.662.083-1.325.067-1.992a17.98 17.98 0 00-.207-1.982 18.723 18.723 0 00-.466-1.941 18.546 18.546 0 00-.709-1.869 19.01 19.01 0 00-.942-1.765 18.85 18.85 0 00-1.159-1.625c-.424-.507-.88-.993-1.361-1.449a17.588 17.588 0 00-1.537-1.242l-.016-.01a1.152 1.152 0 01-.041-1.843 3.44 3.44 0 011.444-.657c.528-.104 1.03-.057 1.485.031.916.197 1.641.621 2.298 1.087.321.238.626.497.911.776.145.14.279.28.419.435l.347.388a23.86 23.86 0 011.361 1.734 21.784 21.784 0 013.509 7.934l-2.169.13c.347-3.453.761-6.9 1.149-10.352l.006-.046a.928.928 0 011.635-.487 16.627 16.627 0 013.431 6.972l-1.361-.352a4.928 4.928 0 001.361-3.25v-.063a.712.712 0 011.418-.077c.078.595.808 1.102 1.605 1.138a2.04 2.04 0 001.076-.227c.249-.16.352-.228.508-.389.15-.144.284-.305.398-.486.481-.714.694-1.651.694-2.572-.011-.187-.021-.502-.052-.72-.042-.222-.057-.44-.124-.672-.099-.461-.28-.901-.477-1.33-.822-1.708-2.329-3.116-4.135-3.722-.45-.15-.905-.233-1.439-.33-.502-.11-1.128-.286-1.573-.762-.409-.445-.735-1.18-.305-1.904.409-.621 1.149-.725 1.666-.74 2.127-.006 4.213.672 5.968 1.826 1.749 1.16 3.188 2.826 4 4.793.223.497.342.994.57 1.211.217.197.429.202.709-.062.264-.264.471-.688.553-1.092a8.24 8.24 0 00-1.718-6.728.55.55 0 01.3-.885l.016-.005c1.232-.27 2.5.14 3.431.885.937.74 1.63 1.894 1.641 3.193l-1.222-.305 1.346-2.645a.683.683 0 01.926-.3.684.684 0 01.352.419l.006.02c.17.59.341 1.134.6 1.553.259.43.58.673.973.771.373.094.631-.036.787-.295.207-.305.331-.895.486-1.506a79.141 79.141 0 001.439-7.194l.072-.476a6.87 6.87 0 01.14-.574c.119-.373.274-.74.569-1.128.259-.368.875-.854 1.631-.797.088.005.165.02.248.036.062.015.036 0 .171.041l.057.016a1.79 1.79 0 01.466.238c.263.186.445.409.579.61.259.389.388.818.482 1.077a13.5 13.5 0 01.631 2.955c.062.668.078 1.34.041 2.013-.036.7-.145 1.315-.16 1.833-.026.502.062.952.217 1.138.187.29.43.357.43.321l-.89.694a14.132 14.132 0 015.615-6.718 1.199 1.199 0 011.77.631l.005.02a24.551 24.551 0 011.242 6.952l-1.589-1.17a23.284 23.284 0 004.131-1.646 1.27 1.27 0 011.795.756l.006.026 1.112 3.674-1.77-.828 8.105-3.581a1.364 1.364 0 011.258.088c1.268.786 2.096 2.07 2.427 3.4.316 1.335.243 2.79-.419 4.099-.171.32-.357.637-.601.921-.098.13-.269.321-.346.393a6.991 6.991 0 01-.337.327c-.471.434-.895.76-1.273 1.087-.372.315-.688.63-.849.874-.16.264-.134.295-.124.45l-1.987-.926a19.78 19.78 0 012.106-.895 20.338 20.338 0 012.2-.606 20.732 20.732 0 012.256-.305 20.8 20.8 0 012.272-.016c.756.047 1.506.135 2.252.264.745.14 1.48.321 2.204.544.72.233 1.429.512 2.122.823.689.326 1.351.698 1.998 1.102a1.325 1.325 0 01-.429 2.417c-1.465.31-2.842.207-4.068.155l-.901-.031-.424-.005-.425.01c-.538.026-1.076.093-1.558.233-.481.135-.91.331-1.252.59-.176.14-.311.259-.461.456-.113.14-.103.145-.176.248a4.014 4.014 0 00-.16.295c-.399.823-.487 1.956-.45 3.12l-1.641-1.034 1.325-.497 1.356-.404 1.377-.31 1.392-.223 1.397-.13 1.403-.04 1.402.04 1.398.13 1.382.217 1.366.3 1.346.384 1.319.47 1.284.554 1.242.642 1.195.725 1.144.802a.888.888 0 01-.605 1.61l-.036-.006-1.072-.119-1.081-.026-1.087.063-1.082.15-1.071.232-1.051.316-1.03.394-.999.465-.962.538-.922.611-.874.678-.823.74-.761.803-.699.859-.631.91-.554.963-.476-.74 7.375.047h.021a.31.31 0 01.217.533l-4.28 4.166a.135.135 0 01-.186 0 .133.133 0 01-.005-.176l4.016-4.425.233.533-7.37.347a.503.503 0 01-.471-.735l.543-1.071.632-1.025.714-.968.792-.906.859-.838.921-.771.978-.704 1.03-.632 1.071-.553 1.113-.476 1.149-.394 1.175-.305 1.201-.212 1.216-.12 1.226-.015 1.227.088-.642 1.604-1.071-.688-1.113-.616-1.154-.538-1.18-.471-1.211-.399-1.232-.32-1.247-.244-1.263-.165-1.268-.088-1.268-.01-1.263.067-1.247.155-1.242.228-1.221.31-1.196.388-1.164.466-.021.01a1.182 1.182 0 01-1.62-1.045c-.057-1.31-.057-2.758.574-4.233.083-.182.171-.363.275-.539.093-.16.269-.424.352-.528.222-.305.538-.62.854-.874a6.023 6.023 0 012.08-1.066 9.406 9.406 0 012.132-.373l.513-.026.512-.005.973.02c1.263.047 2.412.089 3.4-.134l-.429 2.417a17.16 17.16 0 00-1.687-.906 17.984 17.984 0 00-1.801-.678 17.75 17.75 0 00-1.879-.44 19.793 19.793 0 00-1.92-.201 18.477 18.477 0 00-1.926.036c-.641.057-1.273.155-1.904.274a18.74 18.74 0 00-1.848.502c-.6.218-1.185.46-1.759.745l-.057.026a1.358 1.358 0 01-1.931-.957c-.088-.45-.119-.947 0-1.413a3.44 3.44 0 01.523-1.196c.445-.647.926-1.071 1.361-1.449.435-.372.859-.704 1.18-.999a2.97 2.97 0 00.243-.233c.114-.113.114-.124.181-.207.114-.124.197-.274.28-.424.326-.616.383-1.434.207-2.179-.186-.745-.616-1.387-1.175-1.744l1.258.088-8.157 3.473-.015.005a1.298 1.298 0 01-1.703-.688c-.021-.047-.036-.104-.052-.15l-1.061-3.701 1.806.781a25.807 25.807 0 01-4.601 1.765l-.015.006a1.25 1.25 0 01-1.579-1.17 22.201 22.201 0 00-1.035-6.268l1.781.652a12.085 12.085 0 00-4.782 5.533l-.006.016a1.12 1.12 0 01-.879.672 2.465 2.465 0 01-1.631-.362 3.103 3.103 0 01-1.004-1.025c-.528-.864-.548-1.713-.512-2.437.046-.72.171-1.325.207-1.863a10.99 10.99 0 00.005-1.693 10.632 10.632 0 00-.254-1.677 9.71 9.71 0 00-.217-.812c-.098-.326-.166-.497-.243-.626-.036-.057-.057-.078-.047-.068l.016.005c0 .01.103.037.041.016l-.057-.02c.099.03.031.01.057.02.005.005.011 0 .021 0 .124.01.165-.088.057.031-.088.098-.192.3-.264.518a2.493 2.493 0 00-.093.326l-.083.44a80.448 80.448 0 01-1.729 7.307c-.186.57-.284 1.237-.776 1.967a2.398 2.398 0 01-.492.518l-.114.082-.088.057-.082.047c-.109.062-.223.103-.342.15-.471.15-.947.13-1.356.015-.823-.212-1.496-.854-1.837-1.506-.363-.657-.528-1.314-.689-1.915l1.284.14-1.428 2.604-.011.02a.64.64 0 01-.874.254.646.646 0 01-.337-.58 2.626 2.626 0 00-.285-1.221 3.277 3.277 0 00-.817-1.035c-.678-.585-1.605-.896-2.448-.735l.321-.885c1.33 1.713 1.987 3.87 1.951 6.003a10.25 10.25 0 01-.176 1.594c-.135.585-.378 1.113-.833 1.569-.228.217-.554.429-.963.45a1.253 1.253 0 01-.331-.026c-.119-.026-.093-.026-.244-.073a1.317 1.317 0 01-.455-.32c-.481-.534-.538-1.093-.745-1.507-.715-1.795-2.019-3.353-3.633-4.445-1.61-1.108-3.551-1.734-5.487-1.703-.46.015-.864.119-1.019.399-.124.18-.036.605.238.874.512.56 1.63.502 2.665.849 2.065.647 3.789 2.174 4.772 4.094.233.486.45.988.58 1.516.083.254.124.544.176.818.041.284.057.481.083.797.041 1.097-.15 2.24-.761 3.245-.15.248-.331.486-.538.704a4.218 4.218 0 01-.678.564 3.3 3.3 0 01-1.833.502c-.621-.016-1.242-.17-1.795-.528a2.649 2.649 0 01-1.175-1.64l1.423-.14a6.436 6.436 0 01-1.625 4.321.787.787 0 01-1.351-.326l-.005-.026a14.955 14.955 0 00-3.297-6.128l1.641-.538c-.269 3.478-.513 6.966-.818 10.444a1.098 1.098 0 01-2.158.166l-.011-.036c-.615-2.541-1.744-4.958-3.25-7.085a20.594 20.594 0 00-1.206-1.522l-.346-.383-.301-.31a7.654 7.654 0 00-.667-.565c-.466-.336-.973-.595-1.413-.688-.456-.098-.73-.031-.999.155l-.057-1.858a19.42 19.42 0 011.78 1.465 19.171 19.171 0 011.558 1.692c.471.6.911 1.227 1.315 1.879.388.657.74 1.335 1.056 2.029.3.699.564 1.418.786 2.142.213.735.378 1.475.502 2.231.109.756.171 1.517.192 2.282a18.8 18.8 0 01-.124 2.288v.01a1.044 1.044 0 01-1.61.75 14.16 14.16 0 01-4.58-4.895l1.749-.906c1.397 3.105 1.465 6.713.259 9.849v.005a.842.842 0 01-.45.471c-.539.238-1.201.16-1.641-.078a2.894 2.894 0 01-1.02-.895 3.54 3.54 0 01-.543-1.138 15.18 15.18 0 01-.228-1.015 5.006 5.006 0 00-.227-.828c-.047-.119-.109-.233-.145-.3-.125-.176-.099-.145-.176-.217a.941.941 0 00-.508-.192c-.191-.02-.336.047-.341.062-.016.016.01-.01.005-.052-.01.01-.021.073-.031.104 0-.01-.026.114 0-.016v.016a.67.67 0 00.031.233c.067.217.228.59.326.921a9.28 9.28 0 01.409 2.08 9.282 9.282 0 01-.637 4.13l-.01.027a.504.504 0 01-.792.191l-3.99-3.493.548-.44a9.579 9.579 0 01.487 6.96.136.136 0 01-.16.094c-.073-.031-.114-.104-.099-.166z"/><path d="M149.929 37.109c-.73.026-1.434.051-2.138.15-.704.088-1.402.186-2.085.352-.684.165-1.351.362-2.009.59-.336.119-.626.238-.993.383a2.786 2.786 0 01-.658.16 1.426 1.426 0 01-.864-.186.574.574 0 01-.186-.782l.021-.03.01-.016c.875-1.211 1.935-2.453 3.411-3.162a5.806 5.806 0 011.148-.404c.394-.093.797-.14 1.196-.14.802 0 1.615.223 2.277.668l-.352.227a2.74 2.74 0 00-.202-.719 4.792 4.792 0 00-.388-.668c-.305-.424-.688-.802-1.066-1.19a12.95 12.95 0 01-1.097-1.252 3.91 3.91 0 01-.435-.761 3.19 3.19 0 01-.212-.89.336.336 0 01.3-.368c.099-.01.186.02.254.083l.036.031a9.496 9.496 0 004.715 2.257c.202.056.424.02.331.04.176-.082.026-.02.067-.035l.031-.083a1.36 1.36 0 00.011-.445 3.1 3.1 0 00-.13-.57c-.269-.89-.533-1.78-.781-2.68a.696.696 0 011.128-.71c.523.446 1.04.901 1.548 1.362l.352.31c.082.073.16.088.113.083.037.005.011.01.068-.01a.534.534 0 00.155-.15c.031-.057.026-.026.062-.13.01-.026.031-.098.041-.155.026-.124.042-.27.052-.435.011-.15.021-.378.042-.538.02-.192.057-.388.098-.57.171-.74.476-1.454.937-2.049l.036-.046a.445.445 0 01.797.315l-.217 2.515c-.047.42-.083.808-.026 1.201.057.383.217.756.59.916a.074.074 0 01.036.088c-.01.026-.041.042-.072.042-.466-.073-.798-.528-.917-.953-.144-.424-.181-.89-.201-1.304l-.104-2.526.839.27c-.306.543-.534 1.128-.616 1.739-.021.155-.037.3-.042.45-.01.181 0 .3 0 .492 0 .18 0 .372-.026.59-.031.222-.082.46-.201.693-.12.233-.285.445-.523.616-.223.17-.595.295-.906.259-.393-.037-.626-.197-.818-.331-.186-.14-.3-.244-.434-.358-.528-.44-1.056-.88-1.569-1.335l1.124-.709c.253.895.481 1.796.709 2.702.056.222.129.522.144.797.021.284.016.59-.093.942a1.52 1.52 0 01-.3.528c-.119.155-.471.341-.512.341-.538.166-.797.042-1.046.005a9.35 9.35 0 01-4.979-2.944l.596-.254c0 .233.026.466.093.698.072.228.176.461.305.678.254.45.621.839.978 1.243.363.398.73.807 1.061 1.263.337.445.611.967.725 1.552a.222.222 0 01-.176.264.244.244 0 01-.161-.026l-.015-.01c-.595-.357-1.315-.44-1.993-.357-.341.041-.678.13-.998.243a7.4 7.4 0 00-.471.202c-.13.067-.301.16-.44.248-1.154.75-2.06 1.848-2.976 2.997l-.15-.828c.026.046.253.057.564-.052a21.64 21.64 0 011.04-.326 13.059 13.059 0 012.179-.424 13.074 13.074 0 014.378.186c.037.005.057.041.052.078a.103.103 0 01-.072.062zm49.617 11.049c.047.958.373 1.858.849 2.645a5.256 5.256 0 001.935 1.863c.197.104.425.212.601.28a5.064 5.064 0 001.935.336c.87-.01 1.734-.223 2.459-.642l1.356-.781-.331 1.588-1.331 6.423c-.119.554-.212 1.015-.175 1.34 0 .135.088.311.067.27l.119.166c.031.036.021-.006.021 0 0 0 .051.04.093.046.16.083.538.088.936-.01a4.3 4.3 0 001.186-.523l2.546-1.63-.994 2.893c-.502 1.465-.755 2.98-.217 3.949-.01-.016.057.098-.016-.021l.042.067.083.13c.072.119.067.057.093.098.046.052.16.15.259.207.207.135.46.233.703.27.244.04.477.015.621-.042.145-.062.202-.114.254-.228l1.998 1.196a13.18 13.18 0 00-1.454 2.572c-.368.885-.715 1.946-.766 2.691-.026.393.051.688.144.807 0 .016.104.099.031.052l.166.114c.052.036.031 0 .042.016.036.02.243.088.434.103.404.062.947.047 1.574.109a4.18 4.18 0 011.071.243c.393.16.787.445 1.061.813l.668.89-.932.523c-.999.564-1.936 1.112-2.577 1.837a3.882 3.882 0 00-.42.57 2.55 2.55 0 00-.248.6 2.514 2.514 0 00-.005 1.314c.057.202.139.393.259.549.098.145.295.295.383.357.326.145.382.16.615.191.207.01.425.005.647-.067.916-.259 1.822-.994 2.578-1.801l1.63-1.734-.776 2.225c-.285.808-.803 1.413-1.242 1.972-.223.28-.435.554-.606.834-.186.295-.29.553-.321.843-.072.585.124 1.3.528 1.543.181.124.44.124.678.025.254-.103.518-.315.797-.553a39.26 39.26 0 003.131-2.956c.249-.258.487-.527.725-.797.222-.264.491-.559.673-.807.17-.238.31-.543.357-.802.041-.295-.005-.373-.119-.424l.59-.13-.616.958-.461 1.045c-.108.367-.233.73-.331 1.102l-.223 1.139a25.23 25.23 0 00-.212 2.35 76.58 76.58 0 00-.052 2.406c-.02 1.62-.036 3.282-.336 4.974a12.62 12.62 0 01-.735 2.53c-.191.41-.424.803-.642 1.207l-.833 1.097-.916-1.713a10.74 10.74 0 003.271-1.19l1.863-1.051-.243 2.173-.373 3.318-1.299-1.32a2.05 2.05 0 00.953-.393l2.846-2.153-1.004 3.467c-.497 1.729-.166 3.727.854 5.181.129.197.31.424.497.735.181.305.393.709.466 1.258.025.3.041.512-.068.921l-.057.197a3.995 3.995 0 01-.212.455c-.316.512-.605.75-.895.978-.569.435-1.087.699-1.423.937-.171.109-.28.238-.213.171.083-.057.114-.456.052-.487l-.823-.755 2.816.89 2.52.802-2.106 1.61c-.973.745-1.579 2.065-1.506 3.286l-.311-.813c1.589 1.921 3.949 3.271 6.449 3.572l4.119.502-3.617 1.987a26.014 26.014 0 00-2.992 1.936c-.476.351-.942.724-1.397 1.112-.435.378-.937.823-1.258 1.17a2.39 2.39 0 00-.346.471c-.031.041-.068.186-.063.119-.01.057-.036.197-.025.186 0 0-.006 0 0 .042-.011.233.15.595.429.869.067.073.145.135.218.197a.833.833 0 00.093.072l.181.109c.16.093.404.202.642.274.486.161 1.055.259 1.666.357l2.112.337-1.48 1.454c-1.025 1.009-1.864 2.127-1.926 3.245-.01-.046.005.15.005.217.006.094.016.099.021.151.016.103.057.238.104.357.098.243.253.481.44.672.186.192.403.337.615.404a.9.9 0 00.606 0l.321 1.486a.47.47 0 00-.342.108 1.037 1.037 0 00-.305.435 1.457 1.457 0 00-.098.6c.005.197.077.394.155.518.103.15.15.197.217.269.078.078.166.15.264.217.192.13.419.228.663.306.486.15 1.04.186 1.578.114l4.544-.606-4.259 1.542c-.994.357-1.879 1.067-2.515 1.967-.627.901-1.036 1.993-1.051 3.131l-.259.011c-.253-2.392 1.139-4.907 3.442-6.02l.284.937a4.765 4.765 0 01-2.044.042 3.511 3.511 0 01-1.019-.383 2.637 2.637 0 01-.466-.332 3.496 3.496 0 01-.394-.408c-.553-.725-.61-1.594-.383-2.366.119-.388.327-.771.658-1.086a1.974 1.974 0 011.314-.554l3.846-.073-3.52 1.558a2.695 2.695 0 01-.812.223c-.285.02-.564 0-.833-.062a3.266 3.266 0 01-1.362-.725 3.866 3.866 0 01-.905-1.175 3.418 3.418 0 01-.347-1.138c-.01-.13-.021-.12-.026-.358-.026-.983.305-1.915.74-2.675.44-.771.973-1.424 1.517-2.019l.631 1.791c-.626-.067-1.299-.14-2.013-.331a5.723 5.723 0 01-1.097-.414l-.228-.119-.295-.187a4.14 4.14 0 01-.502-.403c-.611-.585-1.123-1.387-1.196-2.412-.01-.114-.01-.274.005-.43.011-.17.021-.181.031-.279.068-.373.135-.523.233-.766.192-.435.445-.787.694-1.077.512-.584.942-.978 1.433-1.444.482-.445.979-.874 1.491-1.283a28.263 28.263 0 013.255-2.21l.508 2.489c-3.209-.341-6.258-1.935-8.302-4.466l-.295-.362-.021-.451a6.768 6.768 0 012.593-5.61l.414 2.412-2.794-.952-.642-.218-.181-.538c-.104-.316-.202-.611-.166-1.025a2.07 2.07 0 01.347-1.004c.357-.523.699-.73.978-.921.564-.362 1.025-.59 1.32-.813.145-.093.253-.238.227-.186-.015.026-.025.073-.015.098l.062-.196c-.031.15-.005.083-.01.119.036.005-.161-.378-.513-.875a8.715 8.715 0 01-1.024-7.292l1.847 1.314a4.44 4.44 0 01-2.085.792l-1.527.161.227-1.486.502-3.302 1.62 1.124a12.893 12.893 0 01-3.98 1.262l-2.655.388 1.739-2.1.668-.808c.176-.305.368-.6.538-.916.135-.337.3-.657.425-1.004.103-.357.233-.704.321-1.077.362-1.475.486-3.064.61-4.668l.197-2.438c.088-.823.202-1.645.362-2.468.093-.41.207-.818.311-1.227.129-.404.29-.802.435-1.2.186-.389.388-.767.584-1.145l.746-1.05.217-.31.373.18c.253.125.496.399.574.689.083.285.062.543.016.771a3.07 3.07 0 01-.554 1.154c-.259.331-.492.564-.745.844l-.756.797a38.292 38.292 0 01-3.23 2.986c-.279.228-.569.497-.988.683-.419.187-.973.207-1.408-.067-.429-.264-.673-.678-.807-1.077a3.03 3.03 0 01-.14-1.252c.041-.435.223-.86.409-1.185.191-.347.414-.657.631-.953.435-.59.844-1.143 1.015-1.723l.849.492c-.803.885-1.651 1.811-2.956 2.292a3.086 3.086 0 01-1.061.182c-.352.01-.859-.135-1.061-.223a2.685 2.685 0 01-.967-.714 3 3 0 01-.565-.973c-.253-.694-.279-1.418-.155-2.122a4.37 4.37 0 01.347-1.03c.155-.31.342-.6.549-.87.838-1.076 1.92-1.77 2.887-2.411l-.264 1.413a.676.676 0 00-.227-.13 2.327 2.327 0 00-.513-.067c-.445-.016-.983.041-1.651-.005a3.456 3.456 0 01-1.128-.27 3.634 3.634 0 01-.321-.16l-.171-.109a2.408 2.408 0 01-.548-.502c-.59-.734-.694-1.573-.688-2.246.01-.683.155-1.34.31-1.873a15.6 15.6 0 01.575-1.651 14.702 14.702 0 011.707-3.049l1.998 1.196a2.96 2.96 0 01-.647.854 2.98 2.98 0 01-.9.533c-.637.228-1.258.233-1.827.135a4.116 4.116 0 01-1.584-.647 3.627 3.627 0 01-.683-.596 3.319 3.319 0 01-.295-.383l-.083-.129-.041-.067c-.099-.166-.052-.098-.088-.16-.507-.994-.585-2.097-.476-3.049.113-.963.393-1.832.698-2.65l1.553 1.263a6.227 6.227 0 01-1.837.725c-.663.124-1.439.201-2.278-.202a2.533 2.533 0 01-.584-.41 2.838 2.838 0 01-.264-.294l-.114-.171c-.311-.507-.357-.875-.388-1.289-.021-.776.181-1.381.315-1.889l1.734-6.335 1.03.808a6.25 6.25 0 01-4.725.243 6.036 6.036 0 01-1.413-.714 6.008 6.008 0 01-1.998-2.345 5.728 5.728 0 01-.559-2.94l.233-.015z"/><path d="M228.363 144.893c-.906 1.962-.569 4.363.714 5.978.166.197.357.404.528.564.192.171.394.331.601.481.424.29.885.523 1.366.694.963.336 2.013.414 2.981.191l.181 1.02a9.62 9.62 0 00-5.144 2.857 7.21 7.21 0 00-.471.554 4.21 4.21 0 00-.378.579c-.217.394-.342.797-.336 1.17 0 .031.01.129.005.103l.031.187c.015.041.036.114.072.196.067.156.176.301.295.414.254.239.523.301.699.239l2.075-.777-1.206 1.941a12.7 12.7 0 00-1.883 7.442l-.415-.724c.254.155.616.212.958.14.347-.073.647-.264.802-.497l2.324-3.489-.58 4.203c-.176 1.268-.641 2.365-.988 3.374l-.243.746-.099.357a8.36 8.36 0 00-.083.362 4.929 4.929 0 00-.082 1.371c.036.435.15.834.336 1.144.098.15.197.306.336.414.119.104.068.042.145.099.068.036.135.072.212.093.301.108.684.119.958.021.295-.099.378-.233.43-.378l1.837.968c-1.035 1.226-1.817 2.66-2.138 4.166a4.842 4.842 0 00-.093.528c-.026.217-.052.45-.041.585-.011.305.036.703.098 1.05.15.704.425 1.398.833 1.92.404.533.906.859 1.434.942.114.011.31.026.367.021l.326-.031c.063-.021.094-.036.145-.047.218-.072.513-.186.746-.372 1.009-.746 1.702-2.303 1.93-3.789l2.112.74a16.786 16.786 0 00-2.298 8.302c-.016.729.036 1.454.119 2.179.052.362.088.719.16 1.076.031.171.068.399.083.44.005.026.01.026-.026-.026a.593.593 0 00-.238-.176c-.336-.077-.259-.01-.274-.021.072-.036.202-.093.233-.113.031-.026.057-.026.108-.073a2.12 2.12 0 00.539-.585c.331-.502.579-1.174.802-1.884l1.837.518c-.714 2.479-.419 5.279.818 7.587l-1.304-.134a18.717 18.717 0 003.229-4.948l1.299.466c-.321.999-.616 1.956-.559 2.862.005.108.026.248.037.326a2.792 2.792 0 00.32.916c.213.367.508.662.865.807l-.673.202a4.777 4.777 0 00.833-1.816l.456-2.034.574 1.966c.259.89.098 1.656.233 2.221.109.548.497.812 1.066.766.274-.026.554-.125.787-.28.222-.155.419-.388.569-.652.311-.544.456-1.221.559-1.92.43-2.847.559-5.745.393-8.628l.673.259c-.776.725-.647 2.06-.129 3.064.129.259.284.502.455.725.197.258.378.455.595.683l1.331 1.33c.45.466.885.957 1.242 1.563a5.696 5.696 0 01.698 1.899 5.934 5.934 0 01-.652 3.959l-.823-.439c2.133-4.374 3.147-9.254 3.126-14.083l1.305.031a27.326 27.326 0 002.184 11.526l-1.382-.285 5.077-5.175 1.087 1.578c-.088.052-.114.083-.166.187a1.183 1.183 0 00-.067.481c.015.414.176.916.404 1.304.3.518.672 1.061.983 1.749.15.347.29.735.352 1.18a3.08 3.08 0 01-.13 1.413l-1.547.549c.129.093.326.083.367.057.052-.021.047-.016.047-.016l.016-.02c0-.006.01-.021.01-.031.01-.052-.016.103-.005.046.005-.015.005.083.031.171.046.191.191.486.362.838l.492 1.015 1.956 4.052.409.849-.776.585c-.383.284-.916.44-1.346.429a3.185 3.185 0 01-1.04-.191c-.544-.186-.942-.378-1.227-.435-.14-.036-.233-.041-.264-.031h-.015c-.021.005.186-.041.098-.021h-.005l-.083.021c-.031.01-.166.036-.119.036.062-.01.078-.031.057-.01-.026.01-.145.181-.197.466-.046.279-.046.626.016.942.026.145.072.3.15.538l.212.662c.145.471.295.994.357 1.615.062.616-.026 1.387-.393 2.05l-.694 1.247-1.123-.859c-.657-.502-1.775-.528-2.448-.067l-.165.119c-.026.025-.052.046-.078.067a2.336 2.336 0 00-.554.797 2.152 2.152 0 00-.134 1.252l.734 3.421-2.789-2.158a22.913 22.913 0 00-5.025-2.945l-.632-.253c-.052-.021-.072-.011.021-.005.046 0 .119 0 .217-.026a.668.668 0 00.145-.057l.036-.021.078-.047-.005.006-.011.005-.036.026c.331-.238.306-.357.352-.435.016-.073.01-.052.01-.01 0 .057.047.362.083.615l.445 3.059.44 2.997-2.618-1.718a293.5 293.5 0 01-4.441-2.976l1.873-.466a2.959 2.959 0 00-.424 1.77l.28 3.141-2.469-1.93c-.595-.466-1.563-.683-2.686-.782-.58-.051-1.154-.108-1.568-.077-.446.031-.642.145-.694.207l-2.608 3.395.238-4.311c.01-.181-.083-.435-.264-.637a1.115 1.115 0 00-.306-.238 1.065 1.065 0 00-.155-.062c-.021-.01-.171-.026-.072-.026l-.218-.005c0 .005-.005.005-.005.005-.052.01-.109.021-.165.041a1.243 1.243 0 00-.337.192c-.212.176-.341.414-.357.6l-.295 3.08-2.034-2.34a2.174 2.174 0 00-1.242-.698l1.454-.813-.755 1.869-.715 1.77-1.402-1.284-3.116-2.852 1.765.006a6.861 6.861 0 00-1.34 1.651l-1.274 2.199-1.045-2.308-1.439-3.168 1.542.694a3.868 3.868 0 00-1.299.657l-1.516 1.175-.492-1.817-1.475-5.444 2.065.455-2.458 2.785-1.506 1.702-.497-2.189-1.087-4.782 1.584.719-1.449.741-1.413.724-.166-1.553-.662-6.101 1.646.667-1.889 1.501-1.77 1.408.165-2.231a18.65 18.65 0 00-.766-6.873c-.341-1.118-.818-2.215-1.216-3.431-.388-1.196-.694-2.531-.533-3.908l1.087.683-1.222.715-1.05.61v-1.19c0-2.143-.269-4.28-.751-6.376l.642.409-1.304.202-.518.082-.093-.486-1.009-5.398.331.295a1.32 1.32 0 00-1.03.321l-.378.336-.165-.45c-.171-.476-.668-.802-1.227-.896a2.507 2.507 0 00-1.661.285c-.28.166-.487.337-.709.559a5.253 5.253 0 00-.58.714c-.352.513-.637 1.077-.921 1.646l-.238-.109c.253-.584.512-1.174.854-1.733.171-.28.362-.549.585-.797.212-.244.491-.492.75-.663a3.019 3.019 0 012.003-.466c.688.073 1.444.471 1.76 1.201l-.544-.114a2.021 2.021 0 011.563-.574l.264.015.067.28 1.299 5.336-.605-.404 1.294-.274.497-.104.15.518a28.365 28.365 0 011.045 6.624l-1.05-.574 1.195-.756 1.201-.761-.114 1.444c-.083 1.067.191 2.159.59 3.251.398 1.086.932 2.21 1.351 3.405a20.183 20.183 0 011.112 7.525l-1.604-.823 1.853-1.542 1.402-1.17.244 1.833.802 6.086-1.579-.828 1.429-.777 1.237-.672.347 1.387 1.195 4.756-2.003-.487 2.396-2.841 1.429-1.692.636 2.148 1.6 5.408-2.008-.642a6.43 6.43 0 012.137-1.149l1.061-.331.481 1.025 1.475 3.152-2.318-.104a9.483 9.483 0 011.842-2.293l.88-.802.885.802 3.131 2.837-2.122.486.746-1.868.398-.994 1.056.176a4.86 4.86 0 012.805 1.547l-2.324.735c.109-.973.621-1.796 1.294-2.36a3.87 3.87 0 011.159-.667c.218-.078.44-.135.673-.171.14-.016.285-.031.43-.036h.217c.388.026.518.062.776.124.228.067.44.15.647.253.409.207.766.487 1.066.813.596.647.999 1.532.979 2.515l-2.371-.921a3.201 3.201 0 011.279-.875c.45-.165.869-.232 1.257-.258.787-.052 1.403.026 2.014.072.626.057 1.299.145 1.997.326.694.186 1.434.492 2.086.983l-2.189 1.212a5.686 5.686 0 01.807-3.458l.74-1.216 1.134.751a325.974 325.974 0 014.689 3.167l-2.179 1.278-.409-3.064c-.026-.258-.078-.46-.098-.921 0-.217.005-.455.093-.776.114-.326.217-.678.755-1.077l.047-.031.098-.062.078-.041c.103-.052.217-.093.321-.124a1.78 1.78 0 01.595-.068c.352.016.585.093.771.161a25.15 25.15 0 016.366 3.685l-2.06 1.262a4.72 4.72 0 01.321-2.758c.186-.424.43-.818.73-1.18.15-.176.315-.347.491-.502l.321-.254.254-.17a4.742 4.742 0 015.269.217l-1.817.393c.083-.155.129-.341.109-.652-.021-.305-.114-.688-.238-1.102l-.207-.668c-.063-.207-.151-.492-.207-.807a4.95 4.95 0 01.005-1.832c.129-.616.398-1.362 1.128-1.915.166-.125.388-.254.668-.352.15-.057.139-.042.217-.062l.083-.021.114-.026h.02l.042-.005.077-.01a2.99 2.99 0 011.113.093c.621.165 1.061.393 1.397.507.166.062.29.083.321.083.037-.005-.036.015-.036.031l-.367 1.428-1.869-4.094-.465-1.024c-.145-.332-.347-.704-.482-1.242a2.707 2.707 0 01-.067-.942c.015-.151.01-.088.036-.233a2.03 2.03 0 01.383-.808c.233-.295.528-.538.932-.688.393-.155.999-.15 1.454.14l-1.547.548c.098-.248.072-.595-.13-1.071-.191-.466-.512-.978-.833-1.553-.383-.704-.611-1.438-.637-2.282a3.1 3.1 0 01.269-1.356c.109-.233.27-.466.466-.663.202-.196.435-.346.673-.46l5.408-2.541-4.326 4.119-5.248 5-.927.885-.455-1.17a29.315 29.315 0 01-1.915-12.224l1.304.031c-.093 5.036-1.387 9.994-3.586 14.486l-.823-.44a5.057 5.057 0 00.579-3.343 5.208 5.208 0 00-.212-.839 5.128 5.128 0 00-.362-.792c-.28-.486-.673-.957-1.092-1.397l-1.325-1.351a10.9 10.9 0 01-.637-.745 5.62 5.62 0 01-.538-.875c-.295-.616-.486-1.288-.481-1.997-.005-.704.253-1.465.786-1.998l.611-.611.062.87a42.887 42.887 0 01-.274 8.808c-.104.735-.238 1.517-.642 2.257-.207.367-.476.719-.849.983a2.615 2.615 0 01-1.242.466 2.084 2.084 0 01-1.376-.316c-.43-.29-.684-.766-.782-1.2-.181-.865-.046-1.6-.248-2.112l1.024-.067a5.903 5.903 0 01-.947 2.272l-.248.357-.424-.155c-.642-.239-1.149-.72-1.481-1.253a4.1 4.1 0 01-.398-.849 4.316 4.316 0 01-.119-.45c-.036-.181-.052-.305-.073-.461-.114-1.221.218-2.344.497-3.364l1.299.466a20.25 20.25 0 01-3.291 5.465l-.725.865-.58-.999a12.041 12.041 0 01-1.257-8.861l1.837.518c-.217.766-.461 1.589-.947 2.407a4.378 4.378 0 01-.999 1.143c-.093.083-.238.171-.373.254-.134.083-.186.098-.279.15-.362.145-.683.331-1.397.119a1.517 1.517 0 01-.689-.528 2.093 2.093 0 01-.279-.543c-.109-.331-.119-.482-.171-.694-.093-.403-.16-.807-.217-1.216-.099-.818-.171-1.635-.161-2.458 0-3.287.854-6.573 2.505-9.44l3.012-5.233-.905 5.973c-.151.978-.415 1.93-.849 2.841-.43.906-1.035 1.796-1.941 2.489-.456.358-.978.606-1.599.772a11.13 11.13 0 01-.497.098l-.326.026c-.378.021-.626-.016-.942-.052-1.222-.207-2.236-.978-2.867-1.853-.658-.88-1.02-1.868-1.217-2.872-.082-.518-.139-.994-.113-1.568.005-.311.036-.513.062-.725.041-.321.082-.507.139-.766.445-1.925 1.434-3.638 2.671-5.072l3.126-3.612-1.289 4.58c-.129.45-.388.885-.724 1.201-.342.326-.735.512-1.129.641a3.62 3.62 0 01-2.851-.326 3.64 3.64 0 01-.528-.388 3.632 3.632 0 01-.694-.88c-.372-.647-.538-1.356-.59-2.018a7.093 7.093 0 01.145-1.936l.109-.45.129-.445.285-.833c.393-1.072.802-2.045.937-2.981l1.744.714c-.518.683-1.268 1.076-2.034 1.206-.766.129-1.599 0-2.293-.466l-.398-.269-.011-.456a14.37 14.37 0 012.417-8.363l.865 1.159c-.415.119-.87.088-1.243-.052a2.506 2.506 0 01-.947-.616 2.773 2.773 0 01-.745-1.459l-.026-.207c-.01-.161-.005-.192-.01-.295.015-.694.264-1.32.569-1.843.155-.263.331-.507.512-.734a10.376 10.376 0 016.511-3.597l.181 1.019a6.386 6.386 0 01-3.488-.404 6.473 6.473 0 01-1.516-.874 7.67 7.67 0 01-.652-.585 6.674 6.674 0 01-.565-.673 6.163 6.163 0 01-1.123-3.224c-.062-1.139.182-2.293.72-3.271l.217.098zM109.513 62.94c-.217.212-.46.408-.74.59-.274.165-.564.31-.864.424a5.089 5.089 0 01-1.91.31c-1.299-.03-2.639-.538-3.581-1.557l.75-.622a15.376 15.376 0 012.769 4.56 16.715 16.715 0 011.159 5.258l.119 2.184-1.547-1.61c-.704-.734-1.444-1.412-2.231-1.883-.792-.476-1.578-.647-2.251-.44l.357-1.718a14.1 14.1 0 014.208 5.418c.15.358.305.704.429 1.129.119.419.218.916.166 1.47a2.646 2.646 0 01-.751 1.63c-.424.44-1.133.818-1.977.673-.698-.156-1.097-.482-1.097-.445 0 0 .042.015.114-.006.057-.005.388-.155.455-.564.037-.28-.082-.409-.025-.32l.284.377.647.854 1.289 1.708 1.185 1.573-1.951.285a6.763 6.763 0 01-2.878-.207l1.424-.724c.025-.047.005-.052.02.036.021.093.078.243.161.414l.305.62c.114.254.249.503.337.953.113.409-.021 1.211-.456 1.62-.357.435-1.04.668-1.532.61-.497-.036-.828-.196-1.123-.351a5.01 5.01 0 01-.73-.497 280.933 280.933 0 01-4.342-3.504l1.398-1.35a37.522 37.522 0 015.542 13.016l.321 1.5-1.206-.89c-1.604-1.185-3.23-2.308-5.05-2.934l.543-.595a57.796 57.796 0 003.395 6.945l.222.383-.403.181c-1.01.45-2.226.28-3.075-.44l.699-.352a5.97 5.97 0 001.428 3.39l.642.735-.983.021a9.598 9.598 0 01-2.241-.217l.533-.683c.621 1.216 1.413 2.339 2.282 3.379l.337.399-.394.372c-.419.399-.983.595-1.47.652-.491.068-.947.052-1.371.047l-.585.005a5.248 5.248 0 00-.574.057 4.625 4.625 0 00-1.072.316 4.68 4.68 0 00-1.77 1.299c-.227.259-.48.657-.455.719 0 .031 0-.031.01.026-.01-.072 0-.026.016-.015.036.046.134.139.28.243.315.222.688.476.998.662l1.072.616c.734.404 1.495.802 2.256 1.263.756.461 1.516.994 2.21 1.677.347.341.662.73.942 1.149.274.429.497.89.673 1.377l.59 1.609-1.755-.233c-2.955-.393-5.884-1.081-8.695-2.122l1.273-1.966 4.26 4.445 1.998 2.086-2.95.01a12.304 12.304 0 01-4.4-.797l1.636-1.806a6.812 6.812 0 001.79 2.163l.068 2.019c.026-.01.047-.078.041-.036 0 .036.021.15.078.243.052.098.14.171.17.186.042.011-.035-.02-.072-.01l.978 2.551-4.864 2.464-.627.31a6.222 6.222 0 01-.812.301 3.6 3.6 0 01-1.066.145 2.47 2.47 0 01-1.413-.461c-.12-.078-.212-.176-.31-.269l-.12-.13-.026-.031-.051-.067a3.089 3.089 0 01-.239-.388l-.124-.285c-.134-.362-.18-.641-.227-.859-.042-.212-.089-.367-.083-.357-.026-.005.186.264.388.3l1.75-.937c-.032.171-.058.259.077.502.124.228.378.523.714.782a6.71 6.71 0 001.144.719l1.413.668c1.956.906 3.902 1.822 5.843 2.759l2.034.983-1.863 1.185c-2.298 1.465-5.233 1.61-7.629.424l1.2-1.868a10.717 10.717 0 013.323 5.227l.492 1.77-1.723-.502a5.661 5.661 0 00-2.681-.093L90.54 133l4.037 1.941 2.153 1.035-2.288.481a15.148 15.148 0 00-3.928 1.418c-.6.326-1.273.704-1.723 1.092-.233.207-.435.435-.549.658-.104.227-.135.403-.052.61.067.181.29.409.56.601.279.207.563.377.874.548.62.332 1.299.616 1.967.947.678.332 1.335.73 1.883 1.274.549.533.984 1.231 1.093 1.997l-.254.047c-.17-.683-.616-1.253-1.16-1.682-.543-.435-1.174-.761-1.837-1.015-.667-.264-1.366-.486-2.065-.791a8.196 8.196 0 01-1.03-.533c-.33-.213-.709-.456-.973-.937-.258-.451-.238-1.077-.051-1.511.18-.451.46-.792.755-1.087.3-.301.637-.539.937-.756.31-.223.631-.43.957-.626a16.615 16.615 0 014.208-1.817l-.135 1.517-4.145-1.693-2.515-1.03 2.675-.745a7.15 7.15 0 013.65-.036l-1.233 1.268a8.59 8.59 0 00-2.805-4.078l-7.204-5.725 8.405 3.856c1.672.766 3.814.559 5.279-.481l.176 2.168a416.395 416.395 0 01-5.916-2.603c-.512-.233-.942-.409-1.516-.688a9.5 9.5 0 01-1.6-.978c-.517-.394-1.034-.88-1.448-1.589a3.4 3.4 0 01-.43-1.237c-.083-.461-.02-.942.088-1.377l.326-1.314 1.423.372c.632.166 1.17.797 1.32 1.201.181.419.228.704.274.931.042.223.083.378.109.44.005.011.01.016.01.021a.241.241 0 00-.072-.098l.052.067.026.031.015.016-.072-.088c-.016-.021-.037-.031-.057-.052-.099-.073-.187-.073-.156-.067.026 0 .125-.006.254-.042a2.82 2.82 0 00.44-.165l.574-.285 4.695-2.355.978 2.552a2.848 2.848 0 01-1.046.015 2.907 2.907 0 01-.92-.362 3.22 3.22 0 01-1.15-1.253 3.253 3.253 0 01-.373-1.651c.021-.31.094-.636.228-.952.145-.316.352-.6.6-.838l.068 2.018a9.33 9.33 0 01-2.422-3.059l-1.532-3.084 3.167 1.278a9.828 9.828 0 003.468.704l-.953 2.101-4.067-4.43-3.5-3.809 4.778 1.842c2.634 1.015 5.362 1.801 8.162 2.267l-1.165 1.377a4.773 4.773 0 00-.414-.926 6.04 6.04 0 00-.642-.844c-.496-.533-1.123-1.009-1.796-1.465-.672-.455-1.392-.89-2.122-1.345a32.666 32.666 0 01-1.102-.715c-.398-.274-.72-.517-1.082-.807-.191-.16-.414-.347-.61-.657a1.634 1.634 0 01-.238-.601 1.6 1.6 0 01.015-.605c.223-.776.57-1.035.885-1.418a6.32 6.32 0 013.784-1.905c.258-.031.501-.041.698-.041.27 0 .466.015.689.026.848.062 1.614.088 2.028-.28l-.057.771c-.88-1.138-1.614-2.375-2.256-3.654l-.46-.92.993.237a8.775 8.775 0 002.013.233l-.341.761a6.83 6.83 0 01-1.579-3.928l-.067-1.04.766.688c.57.512 1.485.657 2.194.347l-.186.564c-.632-1.144-1.268-2.283-1.848-3.452-.59-1.165-1.128-2.355-1.666-3.546l-.399-.88.942.285c2.013.606 3.742 1.77 5.429 2.836l-.88.611a36.185 36.185 0 00-6.024-12.147l-3.96-5.211 5.363 3.86a256.485 256.485 0 014.497 3.302c.176.135.295.207.43.275.119.062.227.077.196.067-.025-.02-.227.041-.284.109-.104.077-.145.372-.124.33.005-.015-.063-.185-.145-.351l-.316-.626c-.114-.249-.243-.528-.331-.885a2.494 2.494 0 01.046-1.34l.352-1.041 1.072.316a4.408 4.408 0 001.873.124l-.766 1.858-1.273-1.724-.637-.864-.346-.481a2.2 2.2 0 01-.249-.487 1.84 1.84 0 01-.088-.388c-.01-.077-.01-.14-.01-.243l.015-.166.006-.036c.129-.771.781-1.18 1.18-1.268a2.026 2.026 0 011.169.026c.678.27.849.43.864.404-.129-.021-.113.036-.041-.031a.452.452 0 00.124-.28c.052-.305-.134-.91-.383-1.527a12.265 12.265 0 00-.88-1.754 12.165 12.165 0 00-2.561-2.981l-1.512-1.268 1.869-.456a4.39 4.39 0 011.035-.129c.347.01.688.057 1.009.14.647.17 1.206.466 1.703.797.993.673 1.759 1.49 2.468 2.313l-1.428.575c0-1.63-.269-3.276-.792-4.84a17.093 17.093 0 00-.962-2.287 16.123 16.123 0 00-1.294-2.132l.75-.621c.657.859 1.744 1.413 2.888 1.537a5.09 5.09 0 001.723-.109 4.125 4.125 0 001.584-.766l.15.243z"/><path d="M94.24 144.055a4.702 4.702 0 011.646 2.22 4.99 4.99 0 01.156 2.852 4.921 4.921 0 01-.58 1.361c-.259.424-.58.807-.947 1.144a5.095 5.095 0 01-2.717 1.293l.087-1.35c.715.145 1.569-.119 2.64-.249a4.59 4.59 0 01.849-.015c.29.02.59.067.89.16.3.093.61.233.9.445.285.202.554.523.704.808.383.719.352 1.449.218 2.054a5.211 5.211 0 01-.71 1.61c-.579.875-1.138 1.558-1.21 2.137l-1.403-1.138c.756-.326 1.527-.58 2.49-.58.476.01 1.045.093 1.594.461.269.186.512.44.672.719l.114.212.026.052.016.026.041.119.02.062c.032.114.047.093.094.347a2.23 2.23 0 01-.041 1.035 2.95 2.95 0 01-.316.756 7.183 7.183 0 01-.745 1.019c-.477.549-.875 1.04-.979 1.372l-.424-1.305c1.465.999 3.39 1.336 5.108.953l2.531-.57-1.247 2.267a38.7 38.7 0 00-2.034 4.322 37.7 37.7 0 00-1.455 4.57l-.538-1.077c.601.321 1.392.378 2.127.166.735-.207 1.403-.683 1.776-1.32l1.423-2.427.036 2.758.057 4.12c.005.352 0 .694.052.854.026.083.041.114.067.135.114.082.041.02.036.031l.026.01c.088.005.331-.15.497-.368a2.53 2.53 0 00.414-.74l.388-1.097.523 1.004 1.578 3.023-.486-.207a1.39 1.39 0 00.9-.746l.28-.6.409.497c.579.709.579 1.49.885 1.956a.553.553 0 00.222.223.975.975 0 00.337.114c.114.015.233 0 .279-.031.047-.037.047-.021.057-.088l.756.176a.88.88 0 00.015.714c.104.238.3.455.539.621.476.336 1.128.476 1.625.295.331-.119.538-.249.802-.45a4.16 4.16 0 00.667-.678c.409-.508.746-1.103 1.077-1.713l.947-1.745-.036 2.003c-.021 1.015.367 1.998.895 2.93.528.936 1.201 1.832 1.822 2.81.16.259.295.492.45.787.14.274.264.543.383.828.228.564.409 1.159.507 1.79.094.627.109 1.299-.046 1.983a4.314 4.314 0 01-.368.998c-.17.321-.388.611-.631.88l-1.299-1.216a13.215 13.215 0 002.479-4.886l2.376-8.979-.327 9.305c-.036 1.077.12 2.065.528 2.381-.155-.114.254.192.099.057-.057-.031.026.005.057 0a.733.733 0 00.305-.041c.098-.031.166-.104.14-.083-.037.005-.083.212-.057.253l2.075-1.035c.083.109.3.213.554.213.254 0 .466-.114.533-.213l1.599-2.422.544 3.012c.031.187.114.373.196.487.088.119.15.145.166.145.015.005-.155-.042-.083-.021h.01l.032.005.062.016c.046.01-.052-.021-.073-.016l-.041-.005v-.005s-.026.005-.062.072a.487.487 0 00-.052.316l2.044-1.221a21.443 21.443 0 015.621 6.516l-2.236-.254c1.356-1.563 2.422-3.395 3.064-5.362l2.557 1.077c-.233.434-.28 1.019-.161 1.573.119.554.43 1.061.833 1.356l-1.858.243a9.808 9.808 0 001.605-2.712l.999-2.536 1.376 2.319c.238.404.466.761.689 1.02.227.263.429.403.6.47l.01.006h.006c.077.02-.109-.026-.088-.021l.046.01.088.021c.093.026-.01-.015-.01-.005-.031 0 .026.005.046 0a.521.521 0 00.192-.062c.057-.031.078-.068.062-.031-.016.026-.026.17.005.222l2.283-.957 1.045 2.122-2.044-.135 1.438-1.992 1.139-1.574.807 1.662a.689.689 0 00.363.336c.186.088.44.135.693.119.254-.015.502-.093.689-.207a.872.872 0 00.372-.419l1.18-2.976.777 3.007a8.412 8.412 0 002.427 4.083l-1.185.088 3.566-3.783.916-.973.227 1.268a11.516 11.516 0 001.051 3.121l-.947.119a8.011 8.011 0 012.003-3.199l.331-.326.207.378.75 1.351-.357-.093.989-.487.191-.093.083.171c.197.404.233.864.119 1.278l-.253-.057a1.466 1.466 0 00-.218-1.024l.275.077-.927.601-.207.134-.155-.222-.88-1.274.543.052a7.15 7.15 0 00-1.506 3.012l-.264 1.175-.683-1.056a11.245 11.245 0 01-1.449-3.353l1.144.295-3.287 4.026-.512.626-.673-.538a9.902 9.902 0 01-3.296-4.813l1.951.031a3.195 3.195 0 01-.445.875 3.42 3.42 0 01-.684.657 3.566 3.566 0 01-1.651.621 3.63 3.63 0 01-1.77-.217 3.482 3.482 0 01-.843-.492 3.317 3.317 0 01-.663-.776l1.946.088-1.361 2.044-1.092 1.635-.957-1.77-1.123-2.08 2.282-.958c.083.264.129.554.109.844-.026.29-.099.569-.212.802a2.633 2.633 0 01-.911 1.04 3.1 3.1 0 01-1.155.482 2.8 2.8 0 01-1.055 0l-.088-.021-.047-.01-.155-.047c-.766-.238-1.351-.73-1.765-1.195-.419-.471-.719-.947-.988-1.377l2.375-.217a12.64 12.64 0 01-1.972 3.488l-.797.999-1.056-.756c-1.009-.724-1.661-1.796-1.935-2.924a5.001 5.001 0 01.393-3.494l2.557 1.077a17.999 17.999 0 01-3.649 6.309l-1.325 1.475-.911-1.729a18.838 18.838 0 00-4.782-5.827l2.044-1.222c.083.456-.02.968-.227 1.33a2.308 2.308 0 01-.777.828 2.486 2.486 0 01-.967.378 2.448 2.448 0 01-.565.026 2.27 2.27 0 01-.331-.052l-.228-.062c-.652-.217-1.138-.688-1.438-1.149a3.651 3.651 0 01-.549-1.459l2.143.59c-.658.761-1.594 1.066-2.448 1.04-.854-.021-1.77-.378-2.376-1.164l2.076-1.03c.072.305.093.641.02.983a2.055 2.055 0 01-.429.864 2.6 2.6 0 01-1.284.808 3.01 3.01 0 01-1.377.067 2.386 2.386 0 01-.75-.264 2.02 2.02 0 01-.316-.202l-.082-.067-.099-.083-.031-.031-.057-.057c-.621-.631-.89-1.444-.993-2.122-.104-.693-.083-1.33-.052-1.92l2.049.326a14.192 14.192 0 01-3.146 5.476l-1.3-1.216c.145-.14.275-.29.383-.461.104-.176.192-.362.254-.569.124-.414.155-.885.114-1.372a6.497 6.497 0 00-.316-1.475 9.812 9.812 0 00-.279-.724 9.618 9.618 0 00-.352-.704c-.528-.953-1.165-1.905-1.687-2.961-.518-1.045-.932-2.256-.839-3.514l.911.259c-.357.611-.74 1.242-1.232 1.811a5.26 5.26 0 01-.838.792c-.295.223-.709.44-1.046.544-.848.274-1.718.046-2.38-.42a2.336 2.336 0 01-.802-.967 1.769 1.769 0 01-.145-.663c0-.233.051-.46.134-.673l.994-2.51-.238 2.691a.943.943 0 01-.14.435.862.862 0 01-.342.306c-.258.129-.507.134-.734.113a1.654 1.654 0 01-.937-.424c-.13-.134-.114-.119-.218-.274-.419-.725-.465-1.455-.823-1.822l.689-.104a2.224 2.224 0 01-1.434 1.222l-.315.088-.171-.295-1.708-2.95.916-.093a3.62 3.62 0 01-.538 1.076c-.249.321-.533.678-1.129.833a1.283 1.283 0 01-.486-.005 1.237 1.237 0 01-.425-.186 1.363 1.363 0 01-.533-.683c-.176-.492-.155-.854-.191-1.185l-.347-4.13 1.46.331c-.533 1.076-1.501 1.858-2.588 2.251-1.087.399-2.355.44-3.51-.062l-.672-.295.135-.787a30.706 30.706 0 013.353-9.616l1.284 1.693c-2.386.574-4.943.057-6.935-1.346l-.73-.512.305-.792c.388-1.004.994-1.563 1.429-2.086a4.55 4.55 0 00.522-.673.928.928 0 00.104-.212c.02-.046 0-.093.031-.01.047.077-.026-.114-.036-.166l-.02-.062v-.016c.015.047-.037-.103.035.099l-.005-.005-.01-.026a.136.136 0 00-.036-.057c-.037-.036-.187-.098-.414-.109-.456-.026-1.077.114-1.62.337l-1.807.734.404-1.868c.14-.657.45-1.206.756-1.651l.455-.621.414-.548c.233-.316.42-.658.513-.984.103-.316.082-.616.02-.755a.772.772 0 00-.207-.29 1.232 1.232 0 00-.372-.212 2.528 2.528 0 00-.518-.125 3.624 3.624 0 00-.59-.026c-.828.011-1.894.306-3.08-.005l-4.16-1.092 4.249-.259c.745-.046 1.49-.346 2.127-.812a4.121 4.121 0 001.17-1.33c.082-.145.175-.357.248-.544.274-.75.305-1.614.109-2.427-.202-.812-.6-1.599-1.243-2.2l.176-.17zm16.821-27.622c-.378.083-.668.362-.88.668-.217.31-.373.657-.554.993l-1.061 2.029a236.046 236.046 0 01-2.137 4.047l-.508-.232c.352-.999 1.103-1.838 2.034-2.34.916-.481 2.102-.73 3.163-.207.507.233 1.04.787 1.03 1.491.01.315-.109.657-.259.905a3.398 3.398 0 01-.528.653c-.388.383-.766.641-1.004.983-.259.336-.362.693-.243.926l-.694-.155 6.03-5.315.527-.466.249.657a30.879 30.879 0 011.532 5.595l-.694-.29c2.102-1.408 3.727-3.488 4.689-5.833l.575-1.407.15 1.495a5.6 5.6 0 001.164 2.883l-.491.005a21.806 21.806 0 002.851-4.647l.295-.642.068.688c.17 1.791.714 3.556 1.547 5.176a13.49 13.49 0 01-1.92-5.129l.362.046c-.657 1.745-1.589 3.385-2.707 4.891l-.232.311-.259-.305a6.318 6.318 0 01-1.429-3.189l.73.088c-.906 2.547-2.67 4.757-4.886 6.304l-.569.393-.129-.688a30.193 30.193 0 00-1.553-5.408l.771.191-6.086 5.248-.456.388-.238-.543a1.46 1.46 0 01-.051-1.014c.088-.311.248-.565.419-.787.347-.456.792-.756 1.102-1.066.161-.156.3-.316.404-.482.098-.17.15-.31.15-.481.016-.305-.202-.605-.559-.797-.719-.404-1.692-.274-2.495.114-.807.393-1.485 1.092-1.816 1.936l-.507-.233c.766-1.32 1.552-2.624 2.344-3.934l1.18-1.961c.197-.326.388-.663.637-.963.233-.279.554-.543.942-.59zm69.45-49.995c4.181 2.593 8.296 5.284 12.405 7.986l1.491.978-1.775-.29c-2.138-.347-4.286-.642-6.449-.776l.373-.725 3.98 4.777.714.86-1.118-.073c-1.009-.062-1.931-.45-2.748-.864-.823-.415-1.594-.875-2.391-1.18-.373-.14-.86-.306-1.124-.296-.129.016-.124.021-.16.083-.047.083-.067.28-.078.497a3.45 3.45 0 00.725 2.236l-.637.57a12.06 12.06 0 00-3.053-2.19c-.264-.13-.611-.3-.818-.357-.197-.026-.171-.047-.269.212a1.73 1.73 0 00-.031.414c0 .124.015.275.041.414.052.285.156.57.285.849.533 1.108 1.428 2.153 1.91 3.41a11.24 11.24 0 01.823 3.867l.005.191-.166-.077a17.91 17.91 0 01-2.701-1.553c.9.517 1.837.963 2.789 1.34l-.16.114a10.827 10.827 0 00-1.025-3.69 11.37 11.37 0 00-.963-1.65c-.367-.534-.766-1.062-1.076-1.678a4.454 4.454 0 01-.373-.988 3.045 3.045 0 01-.077-.554c-.006-.192-.011-.331.026-.559.041-.197.113-.44.346-.636.238-.197.564-.202.766-.156.425.109.663.238.994.378a11.507 11.507 0 013.323 2.277l-.637.57a4.305 4.305 0 01-.942-2.81c.016-.234.005-.498.15-.834.14-.367.6-.616.921-.606.332-.015.585.057.813.12a5.9 5.9 0 01.688.222c1.775.683 3.245 1.822 4.881 1.946l-.404.787-3.923-4.824-.657-.807 1.03.088c2.189.18 4.373.45 6.526.906l-.285.693c-4.011-2.831-8.022-5.672-11.965-8.612zm-48.95-38.915c-21.975-1.868-44.002-2.882-66.06-2.929-10.838-.026-21.68.16-32.513.487-5.589.165-11.173.367-16.763.595-2.846.114-7.587-1.092-8.596 2.256-.777 2.578-.885 5.549-1.3 8.214-.496 3.162-.983 6.33-1.459 9.497a635.543 635.543 0 00-2.194 15.961C1.236 73.224.207 84.904.03 96.616c-.088 5.724.036 11.454.409 17.173.336 5.144.538 10.609 1.884 15.614.864 3.219 2.293 5.859 5.827 6.231 5.46.575 11.2.15 16.697.238 22.187.347 44.374.911 66.561 1.154.42.006.42-.646 0-.652-18.072-.201-36.145-.6-54.218-.942a3287.016 3287.016 0 00-21.085-.336c-2.417-.031-5.626.502-7.955-.114-6.707-1.77-6.298-11.914-6.77-17.389-.475-5.497-.698-11.009-.724-16.526-.093-21.95 2.997-43.753 6.397-65.387.342-2.169.223-5.636 1.2-7.577 1.253-2.484 6.232-1.708 8.603-1.806a1523.61 1523.61 0 0116.126-.57c9.865-.294 19.735-.476 29.61-.486 23.025-.026 46.025.983 68.963 2.935.419.036.419-.616.005-.652z"/></g><defs><clipPath id="clip0_2210_1347"><path fill="#fff" d="M0 0h270v227.494H0z"/></clipPath></defs></svg>