<svg width="270" height="270" fill="none" xmlns="http://www.w3.org/2000/svg"><g clip-path="url(#clip0_465_9501)" fill="#153051"><path d="M90.097 192.398c-2.189 0-4.25-.259-6.17-.781a1.018 1.018 0 01-.718-1.249 1.02 1.02 0 011.25-.718c3.085.839 6.613.934 10.49.29 3.659-.611 7.298-1.819 10.425-2.905 1.007-.348 5.178-2.742 6.033-3.465l9.196-7.731c2.685-2.257 5.733-4.82 7.009-8.242.179-.475.132-.622.126-.628-.026.011-.311-.015-.754.127a8.88 8.88 0 00-3.95 2.589c-.464.538-1.197 1.187-2.04 1.239-.459.048-.886-.116-1.229-.427-.622-.559-.628-1.339-.628-1.867a1.5 1.5 0 00-.2.507c-.063.374-.021.807.026 1.271.032.29.058.58.064.87.063 2.188-1.002 4.493-2.922 6.312-1.64 1.556-3.612 2.584-5.521 3.575l-7.916 4.119c-1.202.627-2.446 1.276-3.791 1.73-1.572.532-3.175.775-4.725 1.012-3.428.522-8.116 1.234-11.923-.87a1.016 1.016 0 11.986-1.777c2.958 1.64 6.565 1.26 10.631.643 1.46-.221 2.98-.453 4.377-.928 1.197-.406 2.32-.991 3.507-1.608l7.915-4.119c1.783-.928 3.623-1.888 5.057-3.243 1.498-1.424 2.331-3.169 2.284-4.783-.005-.243-.032-.485-.058-.733-.053-.548-.116-1.165-.005-1.809.195-1.16 1.133-2.394 2.489-2.394h.031c.274 0 .543.063.786.185.944.49.939 1.492.939 2.03v.058c.095-.079.205-.19.321-.322a10.781 10.781 0 014.868-3.195c1.323-.422 2.436-.19 3.037.643.696.965.259 2.125.116 2.51-1.46 3.929-4.867 6.792-7.604 9.091l-9.197 7.731c-1.06.886-5.426 3.391-6.676 3.829-3.206 1.113-6.945 2.357-10.763 2.99-1.783.29-3.517.443-5.173.443zm-53.52 7.984c-5.917 0-13.131-.396-19.908-2.542-1.213-.385-2.536-.954-3.143-2.241a1.019 1.019 0 011.84-.87c.275.58 1.124.917 1.92 1.17 7.31 2.316 15.225 2.526 21.337 2.437 6.613-.09 14.317-.559 21.31-3.365 7.277-2.921 12.688-8.115 14.839-14.248.49-1.387.686-2.511.617-3.523a1.15 1.15 0 00-.285.179c-.754.659-1.26 1.603-1.793 2.605-.453.839-.917 1.709-1.566 2.484-.422.501-1.181.986-1.935.891a1.474 1.474 0 01-1.16-.764c-.259-.475-.196-.95-.159-1.229a5.72 5.72 0 00.048-.733c-.005.026-.016.047-.021.074-.222.77-.443 1.54-.728 2.288-1.587 4.145-5.136 7.621-9.988 9.793-4.26 1.904-8.996 2.605-13.474 3.075-3.29.348-6.66.601-10.019.754-3.776.168-6.95.174-10.125-.375-3.829-.659-7.019-2.051-9.492-4.129a1.018 1.018 0 011.313-1.556c2.162 1.82 5.11 3.091 8.527 3.681 2.995.517 6.038.512 9.687.348 3.317-.153 6.645-.4 9.893-.743 4.989-.528 9.081-1.218 12.862-2.906 4.298-1.919 7.547-5.078 8.923-8.664.263-.696.47-1.408.67-2.12.153-.543.31-1.081.485-1.614.443-1.323 1.329-1.418 1.682-1.429.749.021 1.34.58 1.587 1.493.174.664.264 1.36.259 2.051.337-.49.633-1.044.938-1.619.596-1.118 1.219-2.273 2.252-3.175.475-.411 1.266-.822 2.062-.727a1.73 1.73 0 011.223.717c.27.385.333.796.364 1.144.1 1.324-.126 2.721-.722 4.414-2.347 6.687-8.18 12.319-16 15.462-7.298 2.932-15.24 3.422-22.043 3.512-.675-.005-1.366 0-2.078 0zm-4.441-57.439c-.801 0-1.445-.221-1.92-.659-.648-.596-.806-1.424-.906-1.977-.127-.681-.322-1.709.195-2.648.2-.363.495-.685.87-.954.411-.29.886-.464 1.36-.533.222-.063.438-.105.639-.137a10.306 10.306 0 011.508-.126c.38-.011.838.021 1.276.263.954.538 1.086 1.662 1.139 2.141.08.67.185 1.577-.184 2.442-.502 1.171-1.74 1.951-3.407 2.141a3.03 3.03 0 01-.57.047zm22.518-3.343c-.29 0-.575-.031-.844-.095a2.485 2.485 0 01-.965-.427c-.38-.29-.596-.664-.728-.928a4.418 4.418 0 01-.443-1.519 2.775 2.775 0 01-.443-1.577c.037-1.07.691-2.093 1.704-2.663.801-.448 1.782-.606 2.831-.474 1.145.147 2.036.627 2.58 1.381.506.702.611 1.519.653 2.147.032.548.032 1.271-.306 1.946-.285.574-.775 1.06-1.503 1.476-.838.48-1.713.733-2.536.733zM44.44 161.274c-3.402 0-6.598-.628-9.366-1.867-4.193-1.867-7.457-5.157-8.96-9.039a1.018 1.018 0 111.898-.738c1.314 3.38 4.188 6.265 7.89 7.91 3.29 1.466 7.261 1.994 11.485 1.524.939-.105 1.698-.232 2.384-.411 2.61-.686 5.189-2.384 7.894-5.178a22.808 22.808 0 001.603-1.815 16.296 16.296 0 003.111-6.755 1.026 1.026 0 011.203-.796c.548.111.907.649.796 1.202a18.39 18.39 0 01-3.507 7.605 24.435 24.435 0 01-1.745 1.977c-2.964 3.069-5.86 4.941-8.839 5.727-.785.206-1.634.353-2.673.469a27.065 27.065 0 01-3.175.185zm67.315 3.085h-.048l-6.391-.311c-.259-.011-.649-.032-1.039-.248-.728-.395-.928-1.192-1.023-1.577-2.189-8.696-4.14-17.207-4.045-25.787.005-.406.01-1.018.348-1.582.285-.474.723-.764.986-.938a24.2 24.2 0 013.792-2.036c.369-.158 1.503-.643 2.431.069.612.469.744 1.186.812 1.571a730.5 730.5 0 014.266 25.581c.153 1.018.311 2.073.781 2.901.163.29.169.622.047.902a.935.935 0 01.095.485c-.026.548-.474.97-1.012.97zm-6.244-30.76c-.048.032-.174.069-.38.153a22.104 22.104 0 00-3.47 1.862c-.1.063-.311.205-.358.284-.058.095-.058.412-.064.565-.094 8.347 1.746 16.379 3.982 25.265.047.195.09.316.116.358l5.157.18c-.379-.955-.532-1.957-.664-2.864-1.26-8.48-2.69-17.06-4.256-25.513a2.144 2.144 0 00-.063-.29z"/><path d="M115.33 168.33c-.332 0-.675-.042-1.023-.169-1.139-.411-1.719-1.492-2.057-2.267a14.71 14.71 0 01-.938-3.038.989.989 0 01.179-.791c-.543-.838-.2-1.904.464-2.468.549-.464 1.229-.596 1.672-.685 3.391-.681 6.861-1.197 10.214-1.693 3.955-.591 8.048-1.197 12.003-2.073.522-.116 1.086-.242 1.719-.163.564.068 1.039.285 1.519.522a39.778 39.778 0 013.865 2.199c.28.179.454.485.464.812l.121 2.874c.016.364.043 1.039-.406 1.603-.353.443-.838.601-1.128.696a30.83 30.83 0 01-6.349 1.345l-.391.042c-.49.048-.986.09-1.466.195-.464.095-.917.248-1.365.396-.422.137-.839.274-1.271.385-1.029.258-2.068.337-3.069.411l-.438.032c-3.692.3-7.362.97-11.122 1.693-.332.063-.749.142-1.197.142zm-2.141-6.186c.058.1.1.211.127.327.168.897.443 1.777.806 2.616.291.675.581 1.055.881 1.16.29.1.749.016 1.155-.063 3.813-.733 7.552-1.419 11.343-1.719l.443-.037c.96-.074 1.867-.143 2.732-.359.379-.095.754-.216 1.128-.343.522-.168 1.044-.337 1.582-.453.559-.116 1.124-.174 1.693-.232l.38-.037a28.49 28.49 0 005.917-1.255c.047-.016.147-.048.2-.074-.053 0-.063-.148-.069-.206l-.094-2.341a36.575 36.575 0 00-3.228-1.804c-.322-.163-.612-.295-.865-.327-.279-.037-.638.043-1.017.127-4.035.891-8.164 1.508-12.15 2.099-3.328.495-6.772 1.007-10.12 1.677-.243.047-.57.11-.728.226.142.338.1.728-.116 1.018z"/><path d="M115.994 165.029c-.348 0-.701-.032-1.054-.106-1.698-.364-3.275-1.993-2.906-3.849a1.01 1.01 0 011.197-.802c.549.105.912.643.802 1.197-.122.628.627 1.318 1.334 1.466.991.211 2.151-.158 3.169-.48 3.57-1.134 7.615-2.415 11.734-2.694.891-.059 1.798-.074 2.71-.09 2.785-.048 5.416-.095 7.583-1.377a1.016 1.016 0 111.034 1.751c-2.626 1.551-5.653 1.609-8.58 1.656-.875.016-1.751.032-2.61.09-3.876.263-7.631 1.455-11.254 2.605-.923.285-2.014.633-3.159.633z"/><path d="M125.07 161.601c-.364 0-.712-.195-.896-.533-2.832-5.252-3.091-11.902-.67-17.36.121-.274.411-.923 1.118-1.16.353-.116 1.271-.269 2.157.907 3.39 4.498 4.498 10.842 2.953 16.97a1.027 1.027 0 01-1.234.738 1.019 1.019 0 01-.739-1.234c1.382-5.473.443-11.1-2.499-15.103-2.046 4.963-1.756 10.711.712 15.277a1.023 1.023 0 01-.412 1.382 1.148 1.148 0 01-.49.116z"/><path d="M124.195 144.879c-.206 0-.412-.063-.591-.19a22.37 22.37 0 00-6.987-3.343c-1.772-.491-1.767-1.646-1.719-1.988.042-.333.189-.591.279-.744a20.634 20.634 0 012.152-3.006c.49-.574 1.06-1.155 1.851-1.471.58-.232 1.16-.269 1.671-.295l.391-.027a6.184 6.184 0 001.851-.458c.49-.217.917-.406 1.423-.438.491-.042.965.095 1.387.248a14.79 14.79 0 015.68 3.633c.132.132.443.454.511.944.095.628-.274 1.097-.411 1.276a18.87 18.87 0 01-6.038 5.131.956.956 0 01-.512.122 1.033 1.033 0 01-.938.606zm-7.098-5.511c.021.006.042.011.068.021a24.534 24.534 0 017.146 3.312c.089-.137.216-.253.369-.337a16.734 16.734 0 005.221-4.362 12.785 12.785 0 00-4.673-2.91c-.216-.08-.443-.143-.58-.138-.147.011-.358.101-.585.201-.955.406-1.783.612-2.637.691l-.453.031c-.396.027-.765.048-1.044.158-.38.148-.734.523-1.06.902a19.622 19.622 0 00-1.772 2.431zm61.678-82.503a1.015 1.015 0 01-.976-1.292 15.241 15.241 0 011.63-3.739c.796-1.313 1.677-2.294 2.689-2.995 2.025-1.403 4.773-1.75 7.346-.917 2.194.706 4.198 2.21 5.801 4.345a1.017 1.017 0 01-1.624 1.223c-.944-1.25-2.537-2.9-4.799-3.628-1.951-.627-4.077-.38-5.564.654-.775.538-1.461 1.313-2.109 2.384a13.035 13.035 0 00-1.408 3.227 1.036 1.036 0 01-.986.738z"/><path d="M179.597 53.422c-.205 0-.411-.064-.59-.185a46.704 46.704 0 00-2.347-1.56 1.016 1.016 0 01-.322-1.404c.301-.48.934-.622 1.403-.321.828.517 1.645 1.06 2.447 1.624.459.327.564.96.243 1.419a1.02 1.02 0 01-.834.427zm2.716-2.637a1.01 1.01 0 01-.97-.717 20.37 20.37 0 00-1.123-2.858 1.016 1.016 0 01.469-1.361 1.022 1.022 0 011.361.47c.49 1.001.907 2.061 1.239 3.148a1.018 1.018 0 01-.675 1.27.997.997 0 01-.301.048zm4.256-1.64c-.491 0-.923-.353-1.002-.854a1.016 1.016 0 01.311-.913c.1-.912.306-1.75.622-2.547.211-.522.802-.78 1.319-.575.522.206.78.797.574 1.319a7.489 7.489 0 00-.495 2.072c-.111 1.176-.849 1.424-1.16 1.477a.62.62 0 01-.169.021zm4.904 1.729c-.353 0-.696-.184-.88-.506a1.024 1.024 0 01.374-1.392c.369-.21.685-.633 1.018-1.076.379-.5.807-1.075 1.424-1.492a1.022 1.022 0 011.413.269 1.018 1.018 0 01-.269 1.413c-.338.227-.628.617-.939 1.028-.422.56-.896 1.197-1.629 1.62a1.01 1.01 0 01-.512.136zm22.824 1.878c-.496 0-.928-.364-1.002-.865-.385-2.552.337-4.93 1.935-6.365.854-.764 1.888-1.213 2.874-1.603.981-.385 2.036-.775 3.164-.838 2.31-.138 4.741 1.08 6.534 3.274 1.266 1.556 1.777 3.143 1.477 4.583a1.012 1.012 0 01-1.208.786 1.019 1.019 0 01-.786-1.208c.216-1.033-.459-2.13-1.06-2.874-1.376-1.688-3.211-2.642-4.83-2.531-.834.047-1.677.364-2.542.701-.849.338-1.661.68-2.262 1.224-1.282 1.15-1.503 3.1-1.282 4.545.085.56-.3 1.076-.854 1.16-.053.011-.106.011-.158.011z"/><path d="M227.907 48.549a1.017 1.017 0 01-.569-1.862l3.306-2.225a1.018 1.018 0 111.139 1.688l-3.306 2.225a.992.992 0 01-.57.174zm-3.332-3.243a1.022 1.022 0 01-.976-1.308 16.764 16.764 0 011.466-3.438c.279-.49.902-.665 1.387-.385.49.28.664.896.385 1.387a14.391 14.391 0 00-1.287 3.021 1.02 1.02 0 01-.975.723zm-5.664-.042c-.443 0-.854-.296-.981-.744a82.372 82.372 0 01-.902-3.49 1.019 1.019 0 01.754-1.224c.533-.137 1.092.205 1.224.754.274 1.139.564 2.278.886 3.406a1.017 1.017 0 01-.702 1.255.898.898 0 01-.279.043zm-4.029 2.779a1.03 1.03 0 01-.649-.232l-1.566-1.308c-.385-.322-1.039-.865-1.165-1.74a1.014 1.014 0 01.865-1.15 1.002 1.002 0 011.149.865c.021.074.174.232.454.464l1.566 1.303a1.02 1.02 0 01.132 1.434 1.044 1.044 0 01-.786.364zm-5.099 19.96c-.486 0-.976-.043-1.456-.127-2.552-.459-4.878-2.172-6.075-4.472-.469-.902-.765-1.867-1.023-2.72a1.018 1.018 0 011.946-.597c.248.807.501 1.64.886 2.379.912 1.75 2.689 3.058 4.63 3.406 1.951.348 4.066-.258 5.532-1.582.685-.622 1.25-1.397 1.751-2.14.806-1.193 1.566-2.48 1.608-3.83.021-.558.501-.96 1.055-.98a1.02 1.02 0 01.981 1.054c-.064 1.867-1.029 3.523-1.962 4.9-.575.849-1.229 1.74-2.073 2.504-1.561 1.414-3.691 2.205-5.8 2.205zm31.05 49.517a1.02 1.02 0 01-.95-1.392c3.286-8.332 4.72-17.043 4.151-25.191-.354-5.047-1.472-10.088-2.558-14.96-.422-1.904-.86-3.877-1.63-5.649-.701-1.608-1.708-3.132-2.689-4.609l-2.98-4.498c-.922-1.392-1.782-2.578-2.995-2.995-.258-.09-.395-.08-.422-.063-.026.09.032.596.396 1.25l4.05 7.234c.195.349.169.786-.074 1.108a1.01 1.01 0 01-1.039.385l-4.63-1.039a.677.677 0 00.121.169c.623.612 1.551.912 2.537 1.229.807.258 1.645.527 2.426.996 1.381.828 2.299 2.141 2.868 3.059 2.141 3.427 3.328 7.689 3.534 12.667.184 4.35-.385 8.695-.939 12.893l-2.167 16.575a1.02 1.02 0 01-2.02-.259l2.167-16.574c.538-4.119 1.097-8.374.923-12.546-.19-4.625-1.276-8.548-3.222-11.675-.733-1.17-1.429-1.93-2.189-2.389-.58-.348-1.27-.57-2.003-.802-1.171-.374-2.373-.759-3.344-1.713-.622-.612-.938-1.582-.77-2.358.127-.59.517-1.05 1.076-1.25.543-.2 1.049-.084 1.35-.015l2.51.564-2.937-5.247c-.97-1.735-.828-3.307.364-4.003.58-.337 1.308-.374 2.104-.095 1.962.675 3.159 2.479 4.029 3.797l2.969 4.483c1.033 1.566 2.093 3.17 2.863 4.936.849 1.95 1.308 4.018 1.751 6.017 1.097 4.946 2.236 10.061 2.6 15.261.59 8.453-.891 17.471-4.287 26.082a1.022 1.022 0 01-.944.617zm-47.192 5.574c-.296 0-.591-.126-.791-.374-2.342-2.874-3.702-6.444-4.905-9.598l-4.683-12.245c-1.017-2.657-2.067-5.41-2.315-8.363-.126-1.508-.042-2.99.058-4.377a134.371 134.371 0 012.674-18.631c.654-3.038 1.714-6.344 4.577-7.8.338-.169.839-.38 1.472-.364 1.007.064 1.888.839 2.209 1.92.238.812.137 1.619.053 2.267l-.649 5.216c.29-.2.575-.406.881-.564.886-.48 2.072-.48 2.89.01.601.364.944.96.944 1.64-.006.844-.549 1.456-.96 1.84-.353.333-.733.639-1.113.945-.458.364-.917.733-1.318 1.16-1.614 1.714-2.099 4.25-2.457 6.702-.449 3.054-.855 6.64-.48 10.125.258 2.384.864 4.72 1.576 7.304 1.023 3.723 2.083 7.33 3.745 10.621.458.902.959 1.787 1.466 2.673 1.012 1.778 2.056 3.613 2.736 5.622a1.02 1.02 0 01-1.93.654c-.617-1.825-1.566-3.497-2.573-5.263-.517-.912-1.039-1.825-1.514-2.763-1.745-3.455-2.837-7.172-3.891-10.996-.733-2.673-1.366-5.094-1.64-7.625-.401-3.718.026-7.462.49-10.642.39-2.652.976-5.663 2.99-7.804.485-.512 1.013-.94 1.524-1.35.338-.275.68-.549 1.002-.844.274-.258.311-.364.316-.385-.058.053-.516 0-.827.169-.238.126-.47.295-.697.453-.643.459-1.376.976-2.362 1.002-.327.026-.58-.116-.781-.332-.2-.222-.29-.517-.253-.807l.87-6.998c.064-.511.127-1.039.011-1.445-.079-.274-.279-.453-.38-.459-.052 0-.168.016-.416.143-2.11 1.076-2.964 3.844-3.518 6.418a132 132 0 00-2.631 18.351c-.095 1.308-.179 2.695-.063 4.06.226 2.67 1.223 5.285 2.188 7.811l4.683 12.245c1.202 3.158 2.452 6.417 4.583 9.038.353.438.29 1.076-.148 1.429-.19.138-.417.211-.643.211zm-69.404 23.056a8.56 8.56 0 011.271 1.202l1.234-1.598c-.348-.258-.691-.516-1.039-.775-.812-.606-1.957.58-1.392 1.392.622.892 1.239 1.783 1.861 2.679l1.392-1.392-2.441-1.809c-.849-.627-1.883.57-1.392 1.392.849 1.424 2.225 2.442 2.926 3.945l1.598-1.234a33.31 33.31 0 01-2.81-2.447c-.591-.575-1.43-.253-1.704.448-.564 1.456 2.094 3.191 2.69 4.24l1.597-1.234a20.592 20.592 0 00-3.142-2.642c-.95-.654-2.089.823-1.234 1.598a24.343 24.343 0 013.965 4.577l1.598-1.234c-1.429-1.234-2.853-2.473-4.282-3.707-1.013-.875-2.231.417-1.44 1.44 1.329 1.719 2.658 3.438 3.987 5.152l1.44-1.44a35.467 35.467 0 01-3.976-3.586c-.855-.896-2.036.238-1.598 1.234.901 2.052 2.742 3.887 4.166 5.59.237-.58.48-1.16.717-1.735-.253-.031-2.974-2.763-3.792-3.343-.569-.406-1.302.037-1.492.606-.633 1.872 3.016 5.095 4.018 6.413l1.598-1.234c-.633-.638-1.345-1.55-2.331-1.123-1.065.458-.49 1.144-.59 1.845.327-.247.654-.495.98-.748.143-.011-1.539-3.882-1.545-3.892-.48-1.182-2.394-.728-1.961.543.058.174.116.348.179.522.417 1.234 2.384.707 1.962-.543a17.918 17.918 0 00-.18-.522c-.654.179-1.307.358-1.961.543.574 1.413 1.513 5.526 3.506 5.389.401-.026.913-.295.981-.748.185-1.266-1.118-.465-.48.174.786.791 2.315-.29 1.598-1.234a1156.09 1156.09 0 00-2.251-2.954l-.965-1.265c-.544-.97-.744-1.176-.602-.628l-1.492.607c1.471 1.044 2.979 3.401 4.82 3.623.97.116 1.213-1.145.717-1.735-1.339-1.603-3.006-3.259-3.844-5.179l-1.598 1.234a35.467 35.467 0 003.976 3.586c1.044.807 2.247-.395 1.44-1.44-1.329-1.719-2.658-3.438-3.987-5.152l-1.44 1.44c1.429 1.234 2.853 2.473 4.282 3.707.823.712 2.278-.211 1.598-1.234a26.32 26.32 0 00-4.282-4.989l-1.234 1.598a17.511 17.511 0 012.732 2.321c.812.833 2.167-.232 1.598-1.234-.222-.391-2.331-3.064-2.484-2.669-.57.148-1.134.301-1.703.449.896.87 1.824 1.676 2.81 2.446.907.707 2.104-.142 1.598-1.234-.717-1.539-2.067-2.504-2.927-3.944l-1.392 1.392 2.442 1.809c.812.606 1.956-.58 1.392-1.392-.622-.892-1.239-1.783-1.862-2.679l-1.392 1.392c.348.258.691.517 1.039.775.955.712 1.999-.791 1.234-1.598a7.82 7.82 0 00-1.271-1.202c-.986-.844-2.436.591-1.434 1.445zM15.883 264.559c-2.974 0-5.842-1.814-7.045-4.566-.332-.765-.559-1.609-.685-2.579-.222-1.661-.095-3.212.364-4.609a8.678 8.678 0 013.585-4.598 1.012 1.012 0 011.403.316c.3.475.164 1.102-.316 1.403a6.768 6.768 0 00-2.748 3.522c-.364 1.102-.458 2.352-.28 3.702.101.781.275 1.445.533 2.031.96 2.188 3.47 3.617 5.833 3.306a1.02 1.02 0 01.258 2.02 8.71 8.71 0 01-.902.052z"/><path d="M13.959 250.105c-2.342 0-4.166-1.63-5.643-3.227-.865-.934-1.75-1.952-2.262-3.233-.902-2.257-.422-5.026 1.218-7.056 1.44-1.772 3.707-2.964 6.233-3.269.533-.085 1.065.327 1.129.886a1.01 1.01 0 01-.886 1.128c-2.004.243-3.787 1.16-4.894 2.526-1.17 1.445-1.535 3.459-.912 5.02.385.955 1.134 1.809 1.867 2.605 1.18 1.277 2.594 2.574 4.15 2.574h.01a1.017 1.017 0 01.006 2.035c-.006.011-.011.011-.016.011z"/><path d="M17.945 253.38c-1.27 0-2.468-.654-3.29-1.403-.3-.274-.67-.659-.87-1.197-.243-.628-.18-1.26-.127-1.724.058-.575.127-1.219.375-1.857.316-.817.864-1.445 1.55-1.761.5-.227 1.086-.2 1.503.074.359.232.57.627.564 1.049-.01.564-.532.96-1.033 1.002a.981.981 0 01-.412-.095c-.105.122-.2.28-.269.459-.147.385-.2.849-.248 1.334-.031.285-.063.607.006.781.058.147.226.311.348.427.654.606 1.677 1.065 2.462.765a1.009 1.009 0 011.319.574 1.014 1.014 0 01-.575 1.319c-.438.174-.87.253-1.303.253zM13.036 234a11.37 11.37 0 01-6.323-1.941c-.443-.3-1.007-.728-1.424-1.345-.385-.564-.575-1.186-.743-1.735-.28-.907-.66-2.151-.364-3.401.343-1.45 1.418-2.42 2.489-3.301.87-.712 1.75-1.408 2.637-2.094a1.014 1.014 0 011.429.185 1.018 1.018 0 01-.185 1.429c-.87.675-1.735 1.361-2.594 2.062-.802.654-1.604 1.366-1.799 2.188-.153.66.048 1.414.333 2.337.137.453.268.875.48 1.186.179.259.448.506.885.802 1.535 1.039 3.349 1.55 5.258 1.592h.01a1.016 1.016 0 01.011 2.031c-.037.005-.068.005-.1.005z"/><path d="M9.66 220.463c-1.623 0-3.316-.628-4.719-1.772-1.255-1.023-2.304-2.457-3.122-4.261-.374-.828-.78-1.925-.6-3.08.226-1.471 1.286-2.525 2.056-3.301l2.352-2.346a1.02 1.02 0 011.44 0 1.02 1.02 0 010 1.439l-2.353 2.352c-.743.744-1.37 1.419-1.487 2.168-.095.622.169 1.323.443 1.93.686 1.513 1.545 2.7 2.558 3.522 1.139.928 2.489 1.387 3.765 1.303.543-.032 1.05.369 1.097.933.047.559-.37 1.05-.933 1.097-.159.005-.327.016-.496.016z"/><path d="M6.84 207.137a.919.919 0 01-.243-.032c-1.318-.326-2.431-1.038-3.138-2.003-.86-1.176-1.06-2.679-.532-3.924.406-.954 1.234-1.74 2.33-2.204l.264-.106c.19-.073.538-.211.596-.3a1.017 1.017 0 111.809.933c-.39.749-1.123 1.044-1.656 1.25l-.221.09c-.596.253-1.055.664-1.25 1.128-.243.57-.121 1.34.3 1.925.422.58 1.129 1.018 1.983 1.229.543.137.88.685.744 1.234-.116.469-.528.78-.986.78z"/><path d="M6.455 199.248a1.04 1.04 0 01-.56-.164 12.677 12.677 0 01-5.104-6.655c-.891-2.726-.823-5.7.19-8.379.274-.723.58-1.329.939-1.851.775-1.129 1.914-2.057 3.48-2.843a1.015 1.015 0 011.366.454 1.023 1.023 0 01-.454 1.366c-1.25.627-2.14 1.339-2.716 2.172-.263.385-.495.85-.711 1.419a10.612 10.612 0 00-.159 7.03 10.62 10.62 0 004.282 5.579c.47.306.602.938.296 1.408-.19.3-.517.464-.85.464z"/><path d="M5.643 180.359a.98.98 0 01-.438-.101c-1.35-.643-2.062-1.982-2.584-2.958-.564-1.06-1.129-2.12-1.545-3.264-.517-1.429-.607-2.626-.275-3.665.67-2.046 2.848-3.022 4.024-3.544.506-.237 1.113 0 1.345.512.232.511 0 1.112-.512 1.344-1.223.549-2.563 1.229-2.916 2.321-.19.585-.11 1.35.248 2.336.37 1.007.875 1.961 1.413 2.969.522.975.997 1.782 1.688 2.114.506.243.722.849.48 1.356-.185.363-.549.58-.928.58z"/><path d="M5.484 168.33c-.216 0-.437-.069-.622-.211-1.403-1.081-2.157-2.732-1.977-4.303a3.85 3.85 0 011.945-2.906 10.573 10.573 0 00-.79-.538l-.496-.332c-2.326-1.593-3.713-4.271-3.528-6.813.158-2.205 1.571-4.187 3.433-5.094a5.94 5.94 0 01-.76-1.176c-.58-1.213-.6-2.558-.058-3.607.686-1.324 2.247-2.004 3.576-1.551.532.185.812.76.627 1.292a1.007 1.007 0 01-1.292.628c-.353-.132-.89.142-1.107.559-.248.48-.216 1.165.084 1.793.275.574.75 1.123 1.53 1.777.321.269.443.701.316 1.097a1.022 1.022 0 01-.896.701c-1.72.121-3.291 1.825-3.428 3.723-.132 1.841.907 3.797 2.647 4.989l.454.3c.896.58 2.003 1.298 2.336 2.6.079.311.01.638-.195.891-.2.248-.475.343-.828.38h-.037c-.707 0-1.419.717-1.514 1.524-.1.854.37 1.819 1.197 2.463.443.343.528.981.185 1.429a1.007 1.007 0 01-.802.385z"/><path d="M6.302 143.524a.995.995 0 01-.638-.227c-2.505-2.03-3.871-5.279-3.576-8.485.127-1.334.533-2.32 1.24-3.022.864-.854 1.988-1.102 3.037-1.107a13.89 13.89 0 01-1.17-2.526c-.227-.654-.475-1.524-.412-2.468.137-2.141 1.687-3.66 3.264-5.026.67-.585 1.508-1.308 2.61-1.582.75-.184 1.488-.126 2.184.074-.148-.48-.27-.97-.364-1.466-.137-.728-.248-1.798.427-2.653.907-1.144 2.626-1.065 3.765-.332.08.053.153.106.227.158.211-1.603.965-3.143 2.157-4.245 1.097-1.017 2.4-1.487 3.591-1.249a3.638 3.638 0 011.566.727c.232-.68.58-1.292 1.04-1.803 1.112-1.245 2.847-1.777 4.334-1.334 1.076.327 1.867 1.081 2.505 1.682.406.385.422 1.033.037 1.439a1.017 1.017 0 01-1.44.037c-.506-.48-1.076-1.023-1.687-1.213-.739-.221-1.646.09-2.231.744-.575.638-.88 1.608-.844 2.658a1.018 1.018 0 01-1.83.648c-.58-.764-1.155-1.46-1.835-1.592-.527-.106-1.218.179-1.83.749-1.323 1.228-1.882 3.222-1.387 4.962.122.427-.047.886-.422 1.129a1.023 1.023 0 01-1.202-.064 10.65 10.65 0 01-.902-.859c-.321-.338-.627-.654-.96-.87-.405-.259-.928-.285-1.06-.111-.068.079-.158.321-.026 1.007a10.873 10.873 0 001.319 3.523 1.01 1.01 0 01-.185 1.255 1.012 1.012 0 01-1.266.095c-1.017-.696-2.193-1.377-3.2-1.124-.623.153-1.224.675-1.757 1.14-1.25 1.091-2.483 2.262-2.568 3.622-.037.58.143 1.203.306 1.677a11.931 11.931 0 002.204 3.829 1.016 1.016 0 01-.986 1.661c-1.35-.29-2.826-.485-3.575.253-.348.348-.564.939-.644 1.761-.232 2.5.881 5.137 2.827 6.719.438.353.506.996.153 1.429-.206.253-.501.38-.796.38z"/><path d="M79.771 159.977a1.02 1.02 0 01-.163-2.025c1.255-.206 2.304-1.324 2.294-2.437-.005-.532-.332-1.107-.828-1.46-.417-.301-.88-.406-1.282-.275a1.014 1.014 0 01-1.265-.611 1.015 1.015 0 01.553-1.292c1.045-.443 1.662-1.783 1.324-2.864-.306-.96-1.345-1.677-2.347-1.635a3.358 3.358 0 01-.559.064c-.5-.048-.98-.375-1.038-.897a1.01 1.01 0 01.801-1.112 3.47 3.47 0 01.522-.074c.375-.106.733-.364 1.002-.733.348-.475.475-1.044.338-1.519-.138-.475-.549-.886-1.097-1.097-.549-.216-1.134-.195-1.556.058a1.013 1.013 0 01-1.382-.332 1.016 1.016 0 01.301-1.392c1.002-.665 1.603-1.556 1.609-2.389 0-.401-.233-.854-.586-1.123-.116-.09-.285-.243-.575-.211-.079.015-.158.031-.242.042a1.03 1.03 0 01-1.15-.796c-.11-.528.206-1.05.728-1.192.095-.027.195-.048.3-.064 1.002-.274 1.646-1.471 1.677-2.499.037-1.134-.416-2.368-1.429-3.866-1.286-1.914-3.549-3.918-5.743-3.301a.135.135 0 01-.063.016 1.017 1.017 0 01-.564-1.951c.016-.005.026-.011.042-.016.232-.074.353-.3.417-.475.147-.427.084-.954-.153-1.281-.654-.896-2.041-1.097-2.816-1.134a1.016 1.016 0 01-.459-1.893c1.598-.923 1.978-3.264 1.324-4.873-.675-1.661-2.315-3.074-4.499-3.881-2.425-.896-5.653-.88-7.393 1.15a1.017 1.017 0 01-1.635-1.197c.227-.364.122-.77-.01-1.044-.3-.644-.997-1.187-1.661-1.282-1.398-.221-2.827.517-4.414 1.413a1.017 1.017 0 01-1.477-.611c-.822-2.927-3.739-5.664-6.734-5.094-1.43.274-2.7 1.244-3.644 2.056a25.045 25.045 0 00-3.881 4.198 1.019 1.019 0 01-1.64-1.208 27.164 27.164 0 014.197-4.535c1.14-.981 2.69-2.151 4.594-2.515 3.802-.712 7.208 2.056 8.653 5.352 1.33-.691 2.938-1.323 4.657-1.076 1.355.201 2.615 1.161 3.211 2.437.042.095.085.19.122.285 2.352-1.261 5.389-1.124 7.778-.243 2.721 1.002 4.793 2.832 5.685 5.031.801 1.977.511 4.25-.58 5.869.98.332 1.756.87 2.288 1.603.565.786.76 1.867.517 2.843 2.278.432 4.287 2.283 5.59 4.229 1.26 1.872 1.824 3.486 1.777 5.068-.037 1.123-.485 2.346-1.297 3.238.717.659 1.15 1.608 1.144 2.547a4.203 4.203 0 01-.564 2.04c.1.032.2.064.3.106 1.129.443 1.994 1.35 2.31 2.426.317 1.076.074 2.299-.643 3.285l-.095.127c.933.538 1.677 1.397 2.01 2.452.395 1.26.152 2.631-.544 3.712.163.085.316.18.47.29 1.038.749 1.666 1.904 1.676 3.101.021 2.131-1.735 4.092-4.002 4.467-.09-.006-.148 0-.2 0z"/><path d="M83.457 198.815a1.017 1.017 0 01-.464-1.924c.554-.285 1.023-.543 1.213-.892.1-.179.148-.443.153-.791.01-1.587-.991-3.158-2.436-3.812a1.018 1.018 0 01-.116-1.793c1.63-1.007 1.94-3.349 1.998-4.314.064-1.055-.047-1.809-.348-2.383-.263-.512-.833-.992-1.402-.95-.464.027-.86-.216-1.029-.627a1.027 1.027 0 01.29-1.171c1.14-.944 1.867-2.067 2.046-3.159.19-1.165-.332-2.383-1.212-2.832-.185-.094-.533-.269-.744-.669-.106-.201-.538-1.208.796-2.036a4.329 4.329 0 001.503-1.582c.353-.643.564-1.413.617-2.278.211-3.328-2.257-6.645-5.505-7.393a1.023 1.023 0 01-.765-1.219 1.02 1.02 0 011.218-.764c4.177.965 7.357 5.226 7.083 9.508-.074 1.165-.364 2.22-.87 3.132a6.404 6.404 0 01-1.704 1.978c1.229 1.044 1.856 2.784 1.582 4.482-.2 1.25-.802 2.299-1.477 3.127a3.963 3.963 0 011.372 1.509c.627 1.197.627 2.536.574 3.443-.073 1.282-.421 3.401-1.782 4.931 1.45 1.176 2.352 2.995 2.341 4.883-.005.701-.137 1.271-.406 1.756-.506.923-1.408 1.382-2.067 1.724a.946.946 0 01-.459.116z"/><path d="M85.26 235.276a1.017 1.017 0 01-.306-1.988c.956-.301 1.298-.649 1.293-.801-.005-.048-.063-.317-1.034-.755l-1.18-.532a1.02 1.02 0 01-.58-1.123 1.02 1.02 0 01.959-.823c.775-.026 1.519-.817 1.492-1.593-.02-.775-.76-1.561-1.582-1.508-.5.011-1.023-.432-1.033-.991a1.024 1.024 0 01.986-1.044c.263-.011.564-.222.749-.533.2-.332.31-.796.332-1.408.026-.675-.063-1.192-.28-1.577-.195-.353-.543-.606-.843-.606h-.006a1.014 1.014 0 01-.248-1.999c.855-.216 1.561-1.197 1.651-2.278.08-1.007-.264-2.152-1.028-3.407-.29-.48-.696-1.06-1.213-1.276a1.02 1.02 0 01-.622-.854c-.032-.38.147-.744.469-.944 1.302-.828 2.115-2.479 2.072-4.214-.042-1.613-.764-3.285-2.035-4.709-.49-.548-.733-.564-.77-.559-.59.037-1.055-.364-1.102-.923a1.017 1.017 0 01.923-1.102c1.265-.126 2.172.897 2.462 1.229 1.598 1.782 2.505 3.918 2.558 6.017.047 1.914-.675 3.776-1.904 5.068.375.385.67.822.902 1.213.991 1.629 1.44 3.19 1.318 4.635a4.89 4.89 0 01-1.34 3.001c.212.211.396.458.55.733.4.722.574 1.587.532 2.642-.037.959-.243 1.74-.622 2.373-.064.105-.127.2-.2.3.8.649 1.344 1.624 1.37 2.674.027 1.007-.422 1.972-1.128 2.658.659.395 1.413 1.06 1.466 2.114.047.892-.385 2.11-2.71 2.843a1.182 1.182 0 01-.317.047z"/><path d="M85.008 264.934a1.016 1.016 0 01-.543-1.877l2.156-1.356c.19-.121.401-.253.48-.364.1-.147.127-.511.137-.669.053-.728.043-1.466-.026-2.189-.11-1.176-.417-1.935-.923-2.32-.427-.322-1.055-.432-1.835-.543a1.02 1.02 0 01-.343-1.904c1.26-.685 2.342-1.334 2.806-2.304.321-.67.369-1.546.147-2.664-.158-.791-.38-1.339-.696-1.729-.316-.385-.78-.601-1.144-.554a1.006 1.006 0 01-1.14-.754 1.022 1.022 0 01.639-1.208 3.884 3.884 0 002.426-2.81c.11-.528.121-1.118.031-1.867-.126-1.129-.406-1.994-.854-2.653-.485-.717-1.223-1.186-1.925-1.223a1.016 1.016 0 01-.965-1.065c.027-.559.427-1.055 1.065-.965 1.35.063 2.664.854 3.513 2.109.638.939 1.023 2.104 1.191 3.565.111.965.09 1.761-.058 2.505a5.916 5.916 0 01-1.745 3.085c.195.158.38.342.543.543.707.865.976 1.909 1.118 2.621.311 1.566.211 2.853-.306 3.934-.39.822-1.002 1.46-1.666 1.972.147.079.29.174.427.279.986.749 1.55 1.973 1.724 3.75.08.833.09 1.687.032 2.526-.037.532-.121 1.149-.496 1.687-.316.454-.749.728-1.065.923l-2.162 1.355a1.001 1.001 0 01-.543.164zM16.664 127.049a3.408 3.408 0 01-3.022-1.888 3.396 3.396 0 01.449-3.617c.965-1.145 2.694-1.556 4.208-.986.659.248 1.139.627 1.44 1.118a1.017 1.017 0 11-1.74 1.054c-.022-.031-.111-.153-.417-.269-.686-.263-1.52-.095-1.93.391-.317.379-.396.975-.18 1.418.216.443.728.717 1.229.738.606.032 1.034.428 1.05.987a1.016 1.016 0 01-.987 1.049c-.037.005-.068.005-.1.005zm32.395-14.133a1.016 1.016 0 01-.96-1.355c.121-.348.243-.849.11-1.276-.163-.527-.759-.944-1.418-.997-.654-.047-1.366.201-2.03.702-.11.364-.427.654-.828.712-.564.063-1.076-.306-1.155-.865-.053-.359.016-.891.644-1.387 1.096-.865 2.357-1.297 3.527-1.192 1.503.116 2.795 1.092 3.207 2.421.232.759.19 1.64-.132 2.552a1.02 1.02 0 01-.965.685zm27.986 50.525c-.195 0-.39-.021-.585-.068a1.017 1.017 0 01.485-1.973c.269.064.68-.152.875-.49.306-.533.211-1.218.121-1.577-.063-.269-.137-.453-.232-.553-.105-.116-.327-.232-.543-.343-.29-.153-.59-.306-.833-.338a3.001 3.001 0 00-.564.027l-.717.079a1.029 1.029 0 01-1.124-.902 1.022 1.022 0 01.902-1.123l.717-.079c.27-.032.638-.074 1.034-.027.612.074 1.123.338 1.53.554.337.174.758.396 1.107.78.332.364.564.844.706 1.461.264 1.129.143 2.215-.337 3.054-.538.933-1.545 1.518-2.542 1.518zm-66.509 20.34c-.933 0-2.072-.106-3.08-.707-1.107-.664-2.009-2.104-1.587-3.565.085-.305.217-.559.333-.769.395-.712.849-1.219 1.386-1.551.807-.496 1.778-.543 2.532-.121.49.274.67.891.395 1.381a1.02 1.02 0 01-1.381.396c-.085-.047-.296-.032-.48.079-.232.142-.449.406-.67.802-.063.11-.127.237-.158.348-.116.4.19.965.68 1.26.649.39 1.545.438 2.23.417.565 0 1.024.437 1.034 1.002a1.014 1.014 0 01-1.002 1.033c-.074-.005-.153-.005-.232-.005zm5.137 40.959c-.048 0-.1-.005-.148-.011-1.308-.19-2.568-.422-3.676-1.16-1.44-.96-2.14-2.631-1.719-4.071.259-.886.891-1.54 1.413-2.009 1.25-1.123 2.468-1.545 3.602-1.266.549.137.88.686.744 1.234a1.01 1.01 0 01-1.229.744c-.596-.148-1.35.437-1.75.801-.322.29-.707.675-.823 1.071-.195.654.316 1.418.896 1.803.76.507 1.735.681 2.842.839.554.079.94.596.86 1.155-.079.506-.511.87-1.012.87zm53.103-8.037a3.85 3.85 0 01-1.587-.348c-1.176-.532-1.91-1.508-2.315-2.231a.508.508 0 01.886-.495c.332.59.922 1.381 1.85 1.803.802.364 1.704.338 2.368-.058.343-.205.575-.49.628-.785.116-.623-.538-1.266-1.118-1.756a.512.512 0 01.501-.871c.47.169.849.454 1.218.723.364.269.712.522 1.087.622.838.227 1.734-.311 2.589-.875.29-.19.517-.354.612-.554.057-.127.079-.306.057-.548-.079-.965-.632-1.915-1.476-2.553-.791-.59-1.83-.917-2.932-.917h-.01a.507.507 0 010-1.013h.01c1.318 0 2.573.396 3.544 1.123 1.075.807 1.777 2.031 1.877 3.28.037.428-.01.765-.148 1.06-.221.475-.659.765-.975.976-.997.659-2.173 1.334-3.407 1.007a2.83 2.83 0 01-.427-.153c.032.201.032.417-.005.638-.106.575-.512 1.113-1.108 1.472-.506.3-1.102.453-1.719.453zm-14.591-47.514c-.064 0-.127-.005-.196-.015-.342-.053-.611-.243-.78-.38-1.234-1.002-1.545-2.637-1.761-4.224a.514.514 0 01.437-.575.52.52 0 01.575.438c.185 1.381.443 2.8 1.387 3.565a.75.75 0 00.295.168c.122.021.364-.079.512-.147.627-.28 1.308-.628 1.466-1.182.063-.226.042-.49-.01-.812a11.268 11.268 0 00-.792-2.758.512.512 0 01.264-.669.515.515 0 01.67.263 4.617 4.617 0 002.705 2.474c.37.121.88.226 1.245.015.274-.158.458-.527.48-.928.015-.369-.08-.775-.317-1.313a7.893 7.893 0 00-2.679-3.28.503.503 0 01-.121-.707.497.497 0 01.707-.121 8.885 8.885 0 013.026 3.697c.19.427.438 1.076.401 1.766-.037.749-.416 1.424-.986 1.762-.548.316-1.26.337-2.078.074a5.54 5.54 0 01-1.592-.849c.026.137.047.279.074.416.063.396.105.818-.016 1.245-.3 1.06-1.424 1.561-2.03 1.835-.27.126-.56.242-.886.242zm-9.935-26.203c.521-.153 1.112-.301 1.655-.195a.483.483 0 01.422.142c.237.1.227.148-.026.148-.264.168-.95.132-1.25.163v1.018c.269-.032 1.677-.28 1.429.427-.095.269-1.756.026-1.935-.005-.638-.116-.918.865-.27.981.913.163 3.102.48 3.392-.818.332-1.497-1.625-1.729-2.616-1.603-.638.079-.66 1.087 0 1.018.875-.09 3.185-.158 2.415-1.661-.612-1.197-2.452-.897-3.486-.596-.627.184-.363 1.165.27.981zM184.475 264.85h-.021c-4.535-.09-8.743-3.312-10.009-7.668-.342-1.186-.501-2.478-.474-3.95.031-2.278.506-4.076 1.45-5.5 1.06-1.603 2.768-2.716 4.641-3.074-.396-.728-1.145-1.392-1.92-2.083-1.292-1.145-2.753-2.447-2.895-4.398-.106-1.424.58-2.679 1.102-3.497.654-1.023 1.371-1.766 2.146-2.236-.395-.406-.854-.785-1.334-1.176-.907-.743-1.846-1.518-2.499-2.605-1.018-1.703-1.06-3.934-.116-5.674a5.696 5.696 0 011.977-2.093c-1.735-.897-3.148-2.094-3.67-3.95a4.934 4.934 0 011.007-4.514 4.938 4.938 0 011.782-1.292 14.48 14.48 0 01-1.112-1.092c-1.799-1.983-2.69-4.403-2.447-6.65.295-2.747 2.41-5.025 4.92-5.305a1.03 1.03 0 011.123.902 1.018 1.018 0 01-.902 1.123c-1.555.174-2.926 1.709-3.121 3.502-.18 1.666.527 3.512 1.93 5.062.77.849 1.719 1.593 2.642 2.31.363.285.49.77.311 1.192-.18.422-.591.685-1.065.617-.908-.116-1.915.258-2.521.96a2.928 2.928 0 00-.591 2.631c.512 1.83 2.679 2.837 4.941 3.66a1.017 1.017 0 01-.311 1.972c-1.26.048-2.51.823-3.111 1.93-.601 1.108-.57 2.579.074 3.665.469.786 1.234 1.413 2.041 2.078.938.77 1.914 1.566 2.562 2.716a1.021 1.021 0 01-.743 1.513c-.749.106-1.487.728-2.204 1.851-.586.913-.834 1.63-.786 2.257.079 1.129 1.118 2.052 2.215 3.022 1.297 1.155 2.774 2.463 2.89 4.435a1.017 1.017 0 01-1.013 1.081c-1.666.005-3.333.902-4.256 2.289-.717 1.086-1.081 2.526-1.112 4.408-.016 1.266.11 2.363.395 3.354 1.002 3.465 4.483 6.128 8.095 6.202.559.01 1.007.474.997 1.039a1 1 0 01-1.008.986z"/><path d="M177.209 199.512c-.201 0-.396-.058-.575-.18-2.178-1.487-3.497-3.095-4.034-4.909-.459-1.551-.196-3.496.864-4.846a5.087 5.087 0 01-.385-.338c-.806-.812-1.249-1.956-1.181-3.069.074-1.181.622-2.326 1.551-3.28-.923-.68-1.577-1.714-1.746-2.869a4.403 4.403 0 01.675-3c-.1-.064-.2-.138-.301-.217-.965-.764-1.566-1.993-1.571-3.211-.005-1.292.496-2.468 1.081-3.475a3.83 3.83 0 01-1.023-.644c-.944-.822-1.455-2.009-1.361-3.18.08-1.054.612-2.046 1.414-2.789-.491-.143-.976-.385-1.377-.834-.443-.495-.685-1.165-.759-2.046-.163-2.188.786-4.366 2.352-5.885-.042-.01-.079-.021-.116-.031-.506-.143-1.144-.38-1.598-.95-.548-.685-.649-1.687-.279-2.737.179-.501.432-.975.748-1.402a10.998 10.998 0 01-1.808-.354c-1.857-.553-3.296-1.729-3.94-3.222-.654-1.513-.532-3.375.354-5.389 1.329-3.011 4.524-6.075 8.395-5.854.559.043.981.528.944 1.087-.042.559-.554.975-1.086.944-2.874-.19-5.342 2.262-6.387 4.64-.453 1.034-.885 2.526-.348 3.765.401.929 1.393 1.704 2.658 2.078 1.261.38 2.674.385 4.045.375.49 0 .912.353 1.002.838.09.485-.185.96-.643 1.134-.913.337-1.677 1.123-2.004 2.041-.137.385-.127.691-.048.791.048.058.18.147.554.253a6.36 6.36 0 002.953.116 1.006 1.006 0 011.192.786 1.015 1.015 0 01-.765 1.202c-2.426.559-4.319 3.132-4.134 5.616.031.412.111.696.242.844.211.237.691.306 1.25.385.67.095 1.429.206 2.099.67.348.242.506.675.406 1.081a1.011 1.011 0 01-.87.759c-1.245.148-2.32 1.144-2.405 2.231-.037.517.227 1.097.675 1.492.375.322.802.464 1.192.38.406-.079.823.079 1.06.427.232.343.232.796 0 1.139-.881 1.308-1.614 2.489-1.608 3.697.005.596.321 1.249.801 1.629.206.164.528.327.876.248a1.009 1.009 0 011.181.638 1.019 1.019 0 01-.475 1.255c-.822.438-1.339 1.456-1.202 2.373.132.918.923 1.746 1.835 1.93.411.079.728.406.802.812.079.412-.106.823-.459 1.045-1.171.738-1.904 1.777-1.967 2.784-.032.522.2 1.113.59 1.503.169.169.501.432.955.422.517-.021.944.306 1.049.791.111.485-.147.981-.606 1.17-1.287.528-1.751 2.358-1.366 3.671.396 1.35 1.456 2.589 3.227 3.802.465.316.581.949.269 1.413a1.081 1.081 0 01-.864.454z"/><path d="M172.805 136.489a.96.96 0 01-.216-.027c-2.373-.516-4.256-1.487-5.595-2.884-1.677-1.762-2.357-4.24-1.73-6.312a5.156 5.156 0 012.183-2.843c-2.736-1.819-4.645-4.973-4.867-8.395-.079-1.208.058-2.231.411-3.133.786-1.982 2.542-3.179 4.425-4.071-1.118-1.002-1.92-2.357-2.215-3.833-.058-.296-.237-1.198.211-1.989.438-.769 1.208-1.07 1.825-1.307.232-.09.664-.259.717-.359-.032-.2-.623-.664-.902-.886l-.417-.337c-2.019-1.72-2.178-4.51-2.167-6.988 0-.5 0-1.26.443-1.924.453-.686 1.165-.96 1.735-1.182.337-.132.68-.269.775-.416.084-.137-.01-.528-.274-.834-.222-.258-.491-.474-.754-.69a9.503 9.503 0 01-.849-.76c-1.282-1.344-1.719-3.428-1.097-5.184.627-1.75 2.289-3.085 4.134-3.317a1.028 1.028 0 011.139.881 1.023 1.023 0 01-.88 1.14c-1.087.136-2.104.954-2.474 1.982-.369 1.028-.095 2.305.654 3.096.206.216.438.4.665.59.358.295.712.59 1.012.944.712.833 1.123 2.157.448 3.238-.453.722-1.181 1.007-1.761 1.234-.332.126-.68.264-.78.411-.101.153-.101.56-.101.802-.01 2.025.095 4.277 1.456 5.431l.364.296c.817.643 2.046 1.624 1.577 3.101-.327 1.017-1.25 1.376-1.92 1.64-.301.116-.712.274-.791.421-.016.032-.069.164.016.586a4.973 4.973 0 002.774 3.501c.369.169.606.544.596.955-.011.406-.264.77-.644.923-2.151.854-4.313 1.84-5.041 3.675-.243.617-.332 1.356-.274 2.252.232 3.649 2.947 7.04 6.322 7.889.544.137.876.686.739 1.234a1.027 1.027 0 01-1.229.744c-1.245-.317-2.805.685-3.233 2.093-.421 1.387.074 3.085 1.25 4.319 1.055 1.097 2.584 1.872 4.562 2.305.548.121.896.659.775 1.213a1.033 1.033 0 01-.997.775z"/><path d="M168.776 80.21a.973.973 0 01-.506-.136c-1.919-1.108-3.401-3.133-4.182-5.701-.506-1.656-.901-4.145.074-6.566.628-1.55 1.793-2.81 3.175-3.527-1.73-1.625-2.827-3.93-2.916-6.313-.111-3.085 1.476-6.16 4.05-7.862-.153-.132-.349-.275-.475-.37l-.216-.158c-1.477-1.123-1.936-3.317-1.076-5.1.49-1.012 1.376-1.85 2.473-2.377a9.285 9.285 0 01-1.74-4.161c-.153-1.008-.032-2.463.754-3.502.459-.611 1.081-.986 1.804-1.086-1.524-1.445-1.851-3.987-.728-5.822 1.076-1.761 3.327-2.753 5.458-2.4.554.09.933.612.838 1.166a1.01 1.01 0 01-1.165.838c-1.318-.205-2.753.396-3.396 1.456-.649 1.065-.443 2.595.453 3.343.464.385 1.472 1.229 1.002 2.368-.395.96-1.413 1.018-1.903 1.05l-.275.02c-.11.016-.284.064-.458.296-.327.432-.475 1.244-.37 1.978a7.234 7.234 0 002.221 4.208c.284.263.395.664.279 1.039a1.016 1.016 0 01-.807.711c-1.176.196-2.172.876-2.605 1.772-.432.902-.221 2.062.475 2.595l.19.142c.659.485 2.03 1.498 1.265 2.88-.227.406-.569.627-.801.775-2.052 1.329-3.302 3.733-3.212 6.143.084 2.41 1.508 4.715 3.618 5.88.395.216.601.67.501 1.113a1.01 1.01 0 01-.923.796c-1.503.106-2.953 1.266-3.607 2.885-.591 1.46-.591 3.311-.011 5.21.628 2.078 1.783 3.686 3.254 4.535.485.28.654.902.369 1.387-.19.311-.533.496-.881.496z"/><path d="M239.425 45.76a1.017 1.017 0 01-.575-1.856c1.635-1.108 2.473-3.307 1.998-5.227-.474-1.914-2.251-3.46-4.213-3.675a1.015 1.015 0 01-.506-1.82c1.476-1.123 2.088-3.28 1.429-5.01-.654-1.735-2.521-2.932-4.393-2.794a1.016 1.016 0 01-.944-1.546c.538-.88.517-2.093-.047-2.958a2.842 2.842 0 00-2.69-1.234c-.358.063-.685-.084-.912-.348a1.012 1.012 0 01-.201-.955c.443-1.47.723-2.694.665-3.918-.063-1.313-.564-2.436-1.371-3.085-.897-.711-2.173-.896-3.628-1.054-1.108-.122-2.358-.259-3.481 0-.822.19-1.83.722-2.172 1.64-.153.411-.591.643-.987.664a1.023 1.023 0 01-.944-.728c-.29-.98-1.065-1.824-2.125-2.31-1.065-.484-2.204-.521-3.143-.1l-.485.233c-1.033.506-2.594 1.27-3.86.179-.406-.348-.612-.78-.78-1.123l-.132-.264c-.849-1.545-3.296-1.72-5.284-1.092-1.029.327-3.486 1.313-4.182 3.476-.137.427-.501.754-.986.706a1.02 1.02 0 01-.96-.743c-.169-.607-.628-1.145-1.255-1.488-.622-.342-1.324-.432-1.92-.242-1.629.506-2.489 2.5-3.174 4.577-.143.438-.554.76-1.029.696a1.02 1.02 0 01-.938-.817c-.185-.939-1.055-1.72-1.93-1.74-.464-.058-.87.19-1.203.532-.29.3-.448.665-.432 1.013.016.28.111.606.221.96.201.654.449 1.466.196 2.336-.09.3-.312.548-.607.664-.29.116-.622.09-.896-.074-2.099-1.25-5.179-.706-6.724 1.197-1.545 1.899-1.455 5.026.195 6.83.38.416.348 1.06-.063 1.44a1.024 1.024 0 01-1.44-.064c-2.331-2.553-2.452-6.808-.274-9.487 1.782-2.194 4.92-3.09 7.62-2.378-.121-.401-.243-.844-.264-1.324-.042-.902.327-1.825 1.008-2.526.727-.749 1.75-1.128 2.7-1.144 1.017.02 1.977.474 2.7 1.191.791-1.766 1.893-3.253 3.723-3.817 1.118-.349 2.394-.2 3.496.4.459.248.87.565 1.213.928 1.002-1.339 2.589-2.404 4.588-3.037 2.689-.854 6.243-.58 7.683 2.051l.179.354c.095.195.196.4.28.474.232.211 1.044-.18 1.629-.47l.549-.257c1.466-.665 3.227-.623 4.825.105.976.448 1.798 1.107 2.389 1.909.659-.617 1.534-1.076 2.531-1.308 1.456-.337 2.953-.169 4.161-.042 1.366.148 3.243.348 4.672 1.487 1.266 1.013 2.046 2.679 2.136 4.577.058 1.145-.127 2.268-.396 3.344 1.292.237 2.484.991 3.207 2.099.701 1.075.923 2.42.659 3.665 2.183.385 4.129 1.92 4.925 4.023.754 1.988.406 4.277-.796 5.99 2.02.824 3.623 2.6 4.161 4.747.685 2.763-.475 5.806-2.827 7.404a1.096 1.096 0 01-.569.163z"/><path d="M257.186 111.946c-.348 0-.686-.179-.876-.501a1.015 1.015 0 01.359-1.392c1.751-1.033 2.737-3.312 2.299-5.294-.438-1.983-2.294-3.634-4.314-3.829a1.024 1.024 0 01-.901-.823 1.017 1.017 0 01.527-1.097c.881-.458 1.397-1.613 1.155-2.578-.243-.955-1.234-1.72-2.22-1.72h-.043c-.453 0-.854-.3-.975-.738a1.012 1.012 0 01.453-1.15c1.646-.985 2.352-3.438 1.577-5.473-.722-1.888-2.552-3.465-4.904-4.224a1.013 1.013 0 01-.227-1.825c2.257-1.418 3.539-4.345 3.043-6.96-.491-2.616-2.742-4.884-5.353-5.39a1.02 1.02 0 01-.316-1.883c.886-.517 1.25-1.909.759-2.927-.501-1.028-1.782-1.666-3.042-1.703-.544-.026-.844-.269-.987-.69a1.023 1.023 0 01.364-1.15c2.568-1.888 3.723-5.585 2.679-8.596-1.018-2.948-4.087-5.11-7.203-5.11-.085 0-.18.005-.253.005a1.015 1.015 0 01-1.018-.986 1.015 1.015 0 01.986-1.05c4.06-.105 8.063 2.59 9.413 6.477 1.113 3.211.327 6.897-1.851 9.455 1.202.475 2.204 1.35 2.742 2.468.654 1.355.522 2.98-.211 4.208 2.674 1.14 4.752 3.618 5.29 6.497.537 2.853-.48 5.885-2.526 7.915 2.13 1.081 3.759 2.78 4.514 4.746.859 2.257.443 4.815-.902 6.571 1.055.57 1.882 1.556 2.178 2.737.3 1.187.042 2.463-.623 3.465 2.057.87 3.692 2.726 4.177 4.92.633 2.853-.738 6.001-3.254 7.483a.98.98 0 01-.516.142z"/><path d="M263.999 187.62c-.332 0-.654-.163-.849-.459a1.014 1.014 0 01.29-1.408 3.562 3.562 0 001.571-3.021 3.578 3.578 0 00-1.745-2.927 1.018 1.018 0 01.221-1.856c.892-.259 1.34-1.461 1.15-2.358-.211-.996-1.023-1.94-2.225-2.589a1.014 1.014 0 01.126-1.846c1.846-.69 3.164-2.626 3.133-4.598-.032-1.972-1.408-3.86-3.281-4.493a1.014 1.014 0 01-.664-.733 1.032 1.032 0 01.274-.954c1.145-1.134 1.735-2.827 1.614-4.641s-.928-3.417-2.215-4.393a1.021 1.021 0 01-.395-.954c.047-.364.295-.675.638-.807 1.724-.67 2.911-2.568 2.758-4.409-.153-1.84-1.63-3.522-3.439-3.902a1.017 1.017 0 01-.116-1.962c1.166-.395 1.941-1.872 1.719-3.301-.205-1.345-1.16-2.668-2.626-3.639-.306-.2-.48-.548-.453-.917a1.03 1.03 0 01.569-.849c1.63-.791 2.964-2.479 3.56-4.514.517-1.767.548-3.866.09-6.223-.438-2.257-1.171-3.981-2.226-5.268-1.218-1.493-3.016-2.421-4.604-2.31-.532-.021-1.033-.417-1.06-.975a1.023 1.023 0 01.976-1.06c2.278-.064 4.62 1.049 6.26 3.053 1.276 1.556 2.146 3.575 2.652 6.17.522 2.679.475 5.099-.137 7.182-.601 2.057-1.772 3.797-3.296 4.957 1.261 1.166 2.083 2.6 2.31 4.077a5.333 5.333 0 01-1.287 4.34c1.735 1.049 2.964 2.916 3.133 4.967.184 2.236-.907 4.456-2.706 5.743 1.113 1.292 1.793 2.99 1.92 4.846.126 1.888-.348 3.697-1.313 5.137 1.977 1.212 3.338 3.459 3.375 5.785.031 2.204-1.118 4.377-2.89 5.684.944.839 1.577 1.867 1.814 2.959.311 1.445-.163 2.921-1.113 3.86.918.986 1.487 2.299 1.524 3.639.053 1.872-.923 3.749-2.489 4.777a.836.836 0 01-.548.19z"/><path d="M265.386 262.751c-.301 0-.601-.137-.802-.396a1.017 1.017 0 01.18-1.429c1.423-1.107 2.251-2.985 2.109-4.783-.148-1.798-1.26-3.523-2.837-4.387a1.013 1.013 0 01.153-1.851c1.023-.359 1.809-1.408 1.856-2.495.047-1.086-.638-2.199-1.624-2.647a1.016 1.016 0 01.179-1.914c1.028-.243 1.851-1.266 1.867-2.326.016-1.06-.775-2.099-1.793-2.378a1.021 1.021 0 01-.111-1.93c.807-.322 1.413-1.055 1.508-1.825.09-.749-.364-1.545-1.007-1.772a1.002 1.002 0 01-.664-.796 1.026 1.026 0 01.379-.97c1.519-1.176 2.442-2.653 2.537-4.061.095-1.355-.839-2.979-2.215-3.127a1.01 1.01 0 01-.896-.849 1.023 1.023 0 01.58-1.092c1.339-.611 2.294-2.062 2.331-3.528.036-1.471-.85-2.963-2.157-3.638a1.02 1.02 0 01.026-1.82c1.846-.901 3.08-2.963 3.001-5.02-.079-2.051-1.472-4.013-3.381-4.767a1.024 1.024 0 01-.643-.897c-.021-.4.195-.775.554-.954 1.545-.786 2.731-2.452 3.095-4.345.338-1.762.027-3.755-.886-5.611-.654-1.334-1.93-2.642-3.148-2.405a1.014 1.014 0 01-1.202-.791 1.012 1.012 0 01.791-1.202c2.473-.512 4.445 1.566 5.394 3.496 1.108 2.257 1.482 4.709 1.06 6.898-.369 1.903-1.344 3.591-2.705 4.777 1.809 1.319 3.027 3.481 3.117 5.722.089 2.299-1.013 4.604-2.79 6.059 1.229 1.16 1.967 2.843 1.925 4.546-.037 1.566-.733 3.08-1.846 4.176 1.387 1.024 2.157 2.853 2.041 4.509-.111 1.64-.912 3.243-2.283 4.625a3.804 3.804 0 011.033 3.074c-.105.913-.548 1.767-1.207 2.437 1.007.854 1.645 2.146 1.624 3.48-.021 1.345-.707 2.621-1.746 3.449.87.939 1.382 2.215 1.319 3.507-.058 1.324-.707 2.579-1.698 3.438a7.612 7.612 0 012.52 5.047 7.597 7.597 0 01-2.89 6.55c-.21.142-.432.216-.648.216zM230.291 26.068c.511-.295 1.092-.327 1.529.122.238.247.607 1.06.074 1.212-1.26.354-.722 2.32.543 1.962 1.714-.48 2.162-2.526 1.319-3.965-.939-1.598-2.932-1.994-4.493-1.092-1.134.66-.111 2.42 1.028 1.761zm19.817 84.924c2.073-1.482 5.385-.396 6.023 2.083.67 2.615-.992 3.976-3.359 4.382-1.287.222-.744 2.183.543 1.962 3.739-.638 5.895-3.607 4.635-7.372-1.139-3.412-5.933-4.915-8.87-2.816-1.06.759-.042 2.525 1.028 1.761z"/><path d="M252.402 119.44c1.762.031 2.753 1.566 2.743 3.211-.011 1.73-1.34 2.178-2.758 2.584-1.255.364-.723 2.326.543 1.962 2.547-.733 4.466-2.104 4.229-5.02-.216-2.616-2.057-4.731-4.757-4.778-1.313-.016-1.313 2.02 0 2.041zm-79.122 15.525c-2.162 1.529-3.222 4.129-1.925 6.628 1.508 2.906 4.92 3.207 7.831 2.88-.169-.633-.343-1.266-.511-1.899-1.503.855-2.395 2.458-2.21 4.219.258 2.526 2.046 2.347 3.923 3.117 1.213.495 1.741-1.472.544-1.962-1.514-.617-3.602-2.262-1.229-3.618.823-.469.527-2.014-.512-1.898-1.344.153-2.863.322-4.134-.237-2.326-1.023-3.048-3.85-.744-5.479 1.055-.744.037-2.511-1.033-1.751zm24.089-107.858h-.09a6.53 6.53 0 01-2.331-.459c-.311-.12-.769-.321-1.128-.685-.316-.322-.543-.744-.696-1.287-.438-1.598.037-3.253.501-4.52.406-1.112.896-2.198 1.371-3.247.137-.301.285-.628.543-.902a.513.513 0 01.717-.027.509.509 0 01.027.718c-.148.152-.248.38-.359.622-.469 1.039-.954 2.11-1.345 3.185-.411 1.123-.833 2.573-.469 3.897.105.374.248.654.438.844.168.174.411.316.775.453a5.62 5.62 0 001.977.385c.222.01.533-.005.723-.132.248-.163.38-.543.496-.912.643-2.099 1.323-4.851.896-7.551a.506.506 0 01.39-.575.52.52 0 01.601.353 10.826 10.826 0 004.082 5.7c.169.122.359.243.501.243H205c.131-.005.284-.137.363-.316.106-.243.106-.554.095-.833a8.723 8.723 0 00-1.45-4.483c-.01-.01-.016-.026-.026-.037v-.005c-.005-.005-.005-.01-.011-.01a.517.517 0 01.143-.697.5.5 0 01.701.127c.016.021.026.042.042.058 1.461 2.178 2.953 4.414 4.578 6.486.448.575.896 1.118 1.471 1.461.564.332 1.218.4 1.666.158.522-.28.749-.912.791-1.413.053-.654-.126-1.329-.316-1.967-1.171-3.94-2.816-6.84-5.036-8.865l-.559-.49a.508.508 0 01.691-.744l.543.486c2.357 2.156 4.097 5.204 5.321 9.323.211.696.421 1.508.353 2.341-.084.976-.591 1.83-1.324 2.22-.764.412-1.782.343-2.668-.179-.728-.432-1.266-1.08-1.756-1.708a66.276 66.276 0 01-2.236-3.043c.042.306.069.617.079.928.016.39.011.849-.179 1.281-.243.549-.733.913-1.266.928a2.167 2.167 0 01-1.128-.432 11.777 11.777 0 01-3.354-3.68c-.116 1.919-.591 3.733-1.044 5.225-.164.528-.38 1.123-.913 1.472-.39.263-.838.305-1.202.305zm-7.995 178.258c-.121 0-.242-.01-.358-.026-1.297-.216-2.073-1.508-2.173-2.674a5.197 5.197 0 01.174-1.719c-1.118.38-2.473.206-3.533-.005-.417-.079-.886-.174-1.324-.427-1.044-.601-1.555-1.899-1.471-3.755.095-2.025.559-3.633 1.413-4.899 1.087-1.603 2.911-2.573 4.562-2.442.279.016.49.264.469.544-.021.284-.258.543-.543.469-1.35-.079-2.763.691-3.649 1.999-.749 1.107-1.155 2.541-1.239 4.377-.048 1.007.084 2.32.959 2.826.29.169.659.243 1.013.311 1.397.274 3.101.459 3.886-.575a.51.51 0 01.886.486c-.316.849-.669 1.808-.596 2.721.064.754.549 1.624 1.324 1.756.475.068 1.034-.137 1.492-.575.459-.438.791-1.034 1.108-1.614a.51.51 0 01.691-.2.515.515 0 01.2.691c-.337.617-.728 1.318-1.297 1.861-.58.559-1.308.87-1.994.87zm55.83-38.97c-.638 0-1.265-.222-1.719-.66a.507.507 0 11.707-.727c.522.501 1.497.495 2.12-.016.606-.501.896-1.403.749-2.299-.138-.813-.586-1.493-1.024-1.989a4.225 4.225 0 01-.363-.379.508.508 0 01.743-.691c.111.105.222.221.338.348 1.213 1.055 3.222.955 4.53.185.458-.269 1.075-.739 1.386-1.424.343-.76.275-1.746-.179-2.642-.38-.749-1.002-1.445-1.962-2.194a14.587 14.587 0 00-4.329-2.341.5.5 0 01-.316-.644.502.502 0 01.643-.316 15.62 15.62 0 014.63 2.505c1.081.849 1.793 1.656 2.241 2.536.591 1.166.67 2.484.201 3.523-.333.738-.955 1.387-1.793 1.883-1.134.664-2.642.928-3.982.59.111.28.201.575.248.886.211 1.25-.221 2.526-1.102 3.254a2.866 2.866 0 01-1.767.612zm-33.518-20.91c-.269 0-.548-.047-.812-.147-.643-.243-1.139-.744-1.323-1.34a.507.507 0 01.332-.638.502.502 0 01.638.333c.095.3.358.558.712.69.348.132.717.111.986-.058.443-.274.712-.886.685-1.566-.026-.654-.274-1.297-.532-1.925l-.063-.147a.514.514 0 01.29-.654c.263-.1.553.026.659.279l.047.122c.29.643.965 1.139 1.756 1.281.76.127 1.635-.037 2.468-.48.211-.111.47-.274.57-.48.11-.227.047-.564-.021-.865a8.952 8.952 0 00-1.93-3.739.508.508 0 11.764-.669 9.945 9.945 0 012.157 4.166c.111.474.195 1.028-.053 1.545-.232.475-.659.749-1.002.939-1.033.553-2.146.764-3.132.585a3.696 3.696 0 01-.991-.332c.015.11.026.221.026.332.042 1.055-.406 2.004-1.171 2.473-.306.195-.68.295-1.06.295zm3.164 39.688a2.478 2.478 0 01-2.178-1.36c-.284-.596-.3-1.202-.226-1.809-.628.854-1.387 1.561-2.389 1.92-.944.337-1.946.284-2.827.253-.575-.027-1.355-.063-1.961-.543-.517-.412-.749-1.039-.897-1.54a10.644 10.644 0 01.026-5.97c.106-.348.417-.749.818-.822a.688.688 0 01.685.269.508.508 0 01-.516.801c-.006.011-.011.026-.016.037a9.63 9.63 0 00-.027 5.395c.111.379.259.801.554 1.033.316.253.807.296 1.366.322.791.032 1.682.079 2.442-.195 1.408-.501 2.257-1.946 3.069-3.512a.522.522 0 01.553-.264.521.521 0 01.406.464c.043.58-.063 1.15-.163 1.704-.137.743-.264 1.444.01 2.019.233.48.791.828 1.324.786a1.442 1.442 0 001.234-.912.511.511 0 01.649-.306.498.498 0 01.306.648 2.46 2.46 0 01-2.141 1.588c-.027-.006-.064-.006-.101-.006zm24.438 33.028c-.486 0-.987-.174-1.387-.501-.66-.543-.918-1.324-1.018-1.888a.51.51 0 01.411-.591.492.492 0 01.591.412c.1.559.337 1.018.664 1.281.338.285.823.354 1.139.18.317-.174.517-.602.512-1.081 0-.507-.19-1.018-.385-1.561l-1.039-2.795a.515.515 0 01.29-.654.51.51 0 01.654.285 8.095 8.095 0 002.711 3.448c.49.354.891.549 1.27.607 1.171.19 2.284-.944 2.505-2.088.211-1.097-.116-2.379-.975-3.803-.306-.506-.649-.986-.992-1.471-.501-.707-1.012-1.434-1.424-2.231a.509.509 0 01.908-.464c.379.733.849 1.403 1.35 2.11.353.501.711 1.007 1.028 1.534.991 1.646 1.366 3.164 1.102 4.52-.316 1.64-1.856 3.179-3.665 2.9-.712-.116-1.318-.506-1.703-.791a9.002 9.002 0 01-.786-.638c.1.348.169.707.169 1.086 0 .855-.396 1.614-1.034 1.972a1.848 1.848 0 01-.896.222zm-212.024-82.63c-2.257 3.186-1.82 7.636 1.55 9.904 3.09 2.083 8.253 1.693 10.078-1.888 1.734-3.401.922-8.153-2.616-9.935-2.974-1.503-7.8-1.572-9.097 2.088-.221.617.765.886.981.269 1.255-3.549 6.924-2.542 9.039-.506 1.988 1.914 1.956 6.228.285 8.337-2.015 2.542-6.302 2.394-8.638.375-2.5-2.163-2.51-5.574-.696-8.132.369-.533-.512-1.039-.886-.512z"/><path d="M29.49 133.578c-.18-.469-.354-.944-.613-1.377-.247-.421-.617-.764-.822-1.207-.274-.596-1.15-.079-.881.511.38.828.991 1.461 1.329 2.342.237.612 1.218.348.986-.269zm-1.704 1.366c-.812-.559-1.63-1.118-2.442-1.677-.543-.369-1.05.511-.511.88.812.559 1.63 1.118 2.441 1.677.538.37 1.05-.516.512-.88zm-1.466 2.721a30.341 30.341 0 01-2.89-.786c-.622-.2-.891.781-.27.981a32.72 32.72 0 002.89.786c.639.142.913-.839.27-.981zm22.507-4.024c-2.162 9.466 12.36 13.131 14.644 3.475.98-4.155-1.492-8.421-5.706-9.455-4.482-1.097-7.794 1.804-8.938 5.98-.174.633.807.902.98.269.94-3.412 3.486-6.096 7.33-5.358 3.808.733 6.25 4.535 5.353 8.29-.902 3.792-3.965 5.727-7.8 4.788-3.67-.901-5.742-3.955-4.882-7.72.142-.638-.839-.907-.981-.269z"/><path d="M59.484 128.753c.538-.723 1.255-1.413 1.371-2.331.08-.649-.938-.643-1.017 0-.074.591-.886 1.361-1.229 1.819-.395.522.485 1.029.875.512zm1.825 1.856c.443-.195.944-.353 1.334-.643.512-.375.923-1.029 1.329-1.509.422-.495-.295-1.218-.717-.717-.375.443-.744 1.002-1.197 1.361-.364.29-.839.443-1.266.633-.596.258-.079 1.133.517.875zm1.561 2.552c1.519.122 2.336-.717 3.48-1.55.522-.38.016-1.266-.511-.881-.97.707-1.667 1.514-2.97 1.414-.653-.053-.648.965 0 1.017z"/></g><defs><clipPath id="clip0_465_9501"><path fill="#fff" transform="translate(0 5.001)" d="M0 0h270v259.933H0z"/></clipPath></defs></svg>