<svg width="70" height="58" fill="none" xmlns="http://www.w3.org/2000/svg"><path d="M15.59 57.684c-4.772 0-8.59-1.738-11.454-5.215C1.38 48.886 0 44.672 0 39.826c0-4.004.742-7.744 2.227-11.221 1.485-3.477 3.341-6.638 5.568-9.482 2.334-2.845 4.773-5.321 7.319-7.428 2.651-2.213 5.09-4.056 7.318-5.532 2.227-1.58 4.03-2.739 5.409-3.476 1.485-.738 2.174-1.107 2.068-1.107l3.66 4.9c-.955.421-2.228 1.264-3.819 2.528-1.59 1.16-3.182 2.582-4.773 4.267A35.014 35.014 0 0021 18.806c-1.167 1.897-1.75 3.74-1.75 5.532 0 1.053.636 2.107 1.91 3.16 1.272.949 2.65 2.108 4.136 3.477 1.484 1.265 2.863 2.845 4.136 4.742 1.273 1.79 1.909 4.003 1.909 6.637 0 2.318-.477 4.425-1.432 6.322a14.818 14.818 0 01-3.5 4.899c-1.379 1.264-3.023 2.265-4.932 3.003a16.203 16.203 0 01-5.886 1.106zM54.728 58c-2.44 0-4.666-.527-6.681-1.58a16.993 16.993 0 01-5.25-4.267c-1.485-1.791-2.652-3.846-3.5-6.164-.743-2.423-1.114-5.004-1.114-7.744 0-5.478 1.166-10.536 3.5-15.171 2.44-4.742 5.09-8.798 7.954-12.17C53.03 6.902 56.901 3.267 61.25 0l4.614 4.267c-.955.632-2.122 1.633-3.5 3.003-1.273 1.37-2.493 3.003-3.66 4.899a47.634 47.634 0 00-2.863 5.69c-.742 2.001-1.114 3.95-1.114 5.847 0 1.264.796 2.318 2.387 3.16 1.59.843 3.34 1.897 5.25 3.161 1.909 1.265 3.659 2.898 5.25 4.9C69.204 36.822 70 39.51 70 42.986c0 2.107-.424 4.056-1.273 5.847a15.33 15.33 0 01-3.5 4.74c-1.379 1.37-3.023 2.477-4.932 3.32A14.578 14.578 0 0154.727 58z" fill="#153051"/></svg>