<svg width="29" height="24" fill="none" xmlns="http://www.w3.org/2000/svg"><path d="M6.46 23.87c-1.978 0-3.56-.72-4.746-2.158C.57 20.23 0 18.486 0 16.48c0-1.656.308-3.204.923-4.643A17.435 17.435 0 013.23 7.915 22.475 22.475 0 016.26 4.84a35.26 35.26 0 013.032-2.289c.923-.654 1.67-1.133 2.241-1.438.615-.305.9-.458.857-.458l1.516 2.027c-.396.175-.923.523-1.582 1.046-.66.48-1.318 1.069-1.977 1.766A14.492 14.492 0 008.7 7.783c-.483.785-.725 1.548-.725 2.289 0 .436.264.872.79 1.308.528.392 1.1.872 1.714 1.438.616.524 1.187 1.178 1.714 1.962.527.741.791 1.657.791 2.747 0 .959-.198 1.83-.593 2.616a6.13 6.13 0 01-1.45 2.027 6.398 6.398 0 01-2.043 1.242 6.72 6.72 0 01-2.439.458zm16.213.131c-1.01 0-1.934-.218-2.768-.654a7.04 7.04 0 01-2.175-1.766 8.58 8.58 0 01-1.45-2.55 10.872 10.872 0 01-.462-3.204c0-2.267.484-4.36 1.45-6.278 1.01-1.962 2.11-3.64 3.296-5.036A29.504 29.504 0 0125.375.001l1.911 1.766c-.395.261-.878.675-1.45 1.242a12.89 12.89 0 00-1.515 2.027 19.71 19.71 0 00-1.187 2.355c-.308.828-.461 1.634-.461 2.42 0 .522.33.958.988 1.307.66.349 1.384.785 2.175 1.308.791.523 1.516 1.199 2.175 2.027.66.785.989 1.897.989 3.335 0 .872-.176 1.679-.527 2.42a6.342 6.342 0 01-1.45 1.962 6.71 6.71 0 01-2.043 1.373 6.045 6.045 0 01-2.307.458z" fill="#2F74C8"/></svg>