<svg width="210" height="55" fill="none" xmlns="http://www.w3.org/2000/svg"><path d="M46.126 7.879l.006 17.821v1.297c0 10.56-8.566 19.124-19.126 19.124S7.88 37.556 7.88 26.997c0-10.565 8.565-19.124 19.126-19.124 4.204 0 8.095 1.36 11.252 3.657V2.448A26.977 26.977 0 0027 0C12.09 0 0 12.088 0 27.003 0 41.91 12.09 54 27 54s27-12.089 27-26.997c.006-7.466-2.983-14.24-7.874-19.124z" fill="#153051"/><path d="M27.5 16C21.147 16 16 21.147 16 27.5S21.147 39 27.5 39 39 33.853 39 27.5 33.853 16 27.5 16zM207.003 2c.5 0 .995.128 1.473.39.484.255.857.628 1.124 1.106.267.478.4.984.4 1.507 0 .517-.133 1.012-.395 1.49a2.802 2.802 0 01-1.106 1.112 3.075 3.075 0 01-1.496.395 3.07 3.07 0 01-1.496-.395 2.782 2.782 0 01-1.112-1.112 3.005 3.005 0 01.011-2.997 2.728 2.728 0 011.123-1.107A3.03 3.03 0 01207.003 2zm0 .5a2.52 2.52 0 00-1.229.323 2.27 2.27 0 00-.934.929c-.228.4-.34.817-.34 1.25 0 .435.112.846.334 1.24.223.396.534.707.929.93a2.51 2.51 0 001.245.333c.434 0 .846-.111 1.246-.334a2.37 2.37 0 00.929-.928c.216-.395.328-.812.328-1.24 0-.434-.112-.851-.334-1.251a2.31 2.31 0 00-.934-.929 2.644 2.644 0 00-1.24-.323zm-1.318 4.16V3.435h1.112c.378 0 .651.027.823.089a.804.804 0 01.406.311.856.856 0 01-.106 1.09 1.005 1.005 0 01-.667.295c.111.05.206.105.272.172.128.128.29.34.479.64l.395.633h-.634l-.29-.511c-.222-.4-.405-.65-.545-.75-.094-.073-.233-.112-.417-.112h-.305v1.373h-.523V6.66zm.523-1.818h.634c.3 0 .506-.045.617-.134a.438.438 0 00.167-.356.449.449 0 00-.078-.256.45.45 0 00-.223-.166c-.094-.04-.267-.056-.522-.056h-.59v.968h-.005zM65.468 35.986H63V35h6v.986h-2.479V44h-1.058v-8.014h.005zM70.005 35h1.068v3.838h.022a2.07 2.07 0 01.763-.797 2.11 2.11 0 011.09-.307c.79 0 2.052.509 2.052 2.613V44h-1.067v-3.526c0-.988-.355-1.815-1.361-1.815-.692 0-1.222.509-1.433 1.104a1.51 1.51 0 00-.072.532v3.7H70V35h.005zm7.977 6.187c.021 1.415.902 1.995 1.942 1.995.737 0 1.195-.13 1.57-.299l.186.748c-.363.169-.993.369-1.895.369C78.041 44 77 42.824 77 41.09c0-1.735 1.008-3.09 2.657-3.09C81.52 38 82 39.642 82 40.7c0 .21-.01.368-.037.487h-3.981zm3.015-.753c.01-.656-.267-1.686-1.425-1.686-1.051 0-1.5.965-1.58 1.686h3.005zM86 35h1v9h-1v-9zm3.982 6.187c.021 1.415.902 1.995 1.942 1.995.737 0 1.195-.13 1.57-.299l.186.748c-.363.169-.993.369-1.895.369C90.041 44 89 42.824 89 41.09c0-1.735 1.008-3.09 2.657-3.09C93.52 38 94 39.642 94 40.7c0 .21-.01.368-.037.487h-3.981zm3.02-.753c.01-.656-.267-1.686-1.425-1.686-1.05 0-1.5.965-1.58 1.686h3.005zm6.909 2.059c0 .499.024.987.089 1.377h-1.024l-.088-.726h-.042c-.349.45-1.023.856-1.923.856C95.651 44 95 43.182 95 42.347c0-1.393 1.35-2.152 3.775-2.141v-.12c0-.465-.142-1.333-1.426-1.316-.598 0-1.207.151-1.645.428l-.26-.7c.52-.297 1.284-.498 2.077-.498 1.923 0 2.384 1.198 2.384 2.342v2.151h.006zm-1.1-1.56c-1.243-.022-2.663.178-2.663 1.295 0 .688.491.997 1.065.997.828 0 1.361-.477 1.544-.965a1.01 1.01 0 00.054-.33v-.998zM106.946 35v7.304c0 .535.024 1.15.054 1.56h-1.026l-.054-1.048h-.042c-.342.672-1.104 1.184-2.142 1.184-1.542 0-2.736-1.235-2.736-3.068-.012-2.01 1.314-3.234 2.856-3.234.984 0 1.632.439 1.92.911h.024V35h1.146zm-1.146 5.283a1.73 1.73 0 00-.054-.461c-.174-.69-.804-1.258-1.668-1.258-1.2 0-1.908.996-1.908 2.322 0 1.224.642 2.232 1.884 2.232a1.74 1.74 0 001.752-1.782v-1.053h-.006zm4.2-4.547c0 .401-.192.717-.515.717-.293 0-.485-.322-.485-.717 0-.395.201-.736.506-.736.293 0 .494.322.494.736zM109.1 44v-6.452h.808V44h-.808zm2.949-4.29c0-.62-.011-1.107-.049-1.588h.937l.061.968h.022c.29-.548.959-1.09 1.924-1.09.806 0 2.056.487 2.056 2.502V44h-1.058v-3.388c0-.946-.351-1.738-1.349-1.738-.685 0-1.228.499-1.42 1.09a1.524 1.524 0 00-.071.5v3.53h-1.058V39.71h.005zm12.891 3.704c0 1.437-.302 2.29-.911 2.844-.633.55-1.532.742-2.34.742-.765 0-1.61-.181-2.128-.514l.289-.87c.422.269 1.086.496 1.876.496 1.188 0 2.062-.601 2.062-2.178v-.678h-.024c-.344.578-1.043 1.04-2.038 1.04-1.586 0-2.726-1.308-2.726-3.02 0-2.102 1.417-3.276 2.894-3.276 1.11 0 1.707.549 1.996 1.063h.037l.042-.934H125c-.042.438-.054.946-.054 1.687v3.598h-.006zm-1.164-2.838c0-.193-.012-.357-.066-.497-.212-.666-.766-1.203-1.629-1.203-1.109 0-1.905.911-1.905 2.342 0 1.215.645 2.231 1.887 2.231a1.68 1.68 0 001.616-1.15c.067-.193.091-.41.091-.602v-1.121h.006zM129 35.198a13.39 13.39 0 012.339-.198c1.579 0 2.702.395 3.451 1.102.772.724 1.21 1.748 1.21 3.18 0 1.443-.444 2.628-1.227 3.443-.807.826-2.12 1.275-3.78 1.275-.795 0-1.44-.042-1.993-.108v-8.694zm1.1 7.826c.277.042.68.054 1.112.054 2.362 0 3.624-1.365 3.624-3.755.012-2.09-1.123-3.413-3.451-3.413-.57 0-.997.054-1.29.12v6.994h.005zm8.888-1.855L138.116 44H137l2.854-9h1.292L144 44h-1.155l-.895-2.831h-2.962zm2.752-.908l-.832-2.588c-.187-.584-.312-1.12-.436-1.644h-.023c-.125.524-.249 1.084-.425 1.632l-.821 2.606h2.537v-.006zm10.928-.207c-.065-1.254-.143-2.777-.143-3.885h-.024a75.648 75.648 0 01-1.111 3.416l-1.559 4.366h-.866l-1.439-4.287c-.418-1.284-.758-2.43-1.009-3.5h-.024c-.024 1.12-.09 2.617-.173 3.975L146.087 44H145l.615-9h1.451l1.505 4.354c.365 1.108.657 2.095.89 3.032h.024c.233-.907.55-1.893.944-3.032l1.57-4.354h1.452l.549 9h-1.123l-.209-3.946zm5.592 2.754c.34.19.923.406 1.483.406.797 0 1.178-.368 1.178-.856 0-.499-.318-.76-1.126-1.046-1.114-.38-1.633-.938-1.633-1.626 0-.927.808-1.686 2.112-1.686.618 0 1.166.157 1.495.358l-.265.759a2.499 2.499 0 00-1.253-.347c-.658 0-1.01.357-1.01.786 0 .477.352.688 1.154.986 1.051.369 1.605.867 1.605 1.724 0 1.024-.848 1.734-2.28 1.734-.669 0-1.293-.168-1.72-.407l.26-.785zM169 40.949c0 2.124-1.584 3.051-3.058 3.051-1.647 0-2.942-1.144-2.942-2.96 0-1.913 1.358-3.04 3.04-3.04 1.769 0 2.96 1.198 2.96 2.949zm-4.855.06c0 1.257.763 2.21 1.849 2.21 1.064 0 1.861-.937 1.861-2.233 0-.975-.52-2.2-1.838-2.2-1.3 0-1.872 1.138-1.872 2.222zM170 35h1v9h-1v-9zm7.95 7.256c0 .618.011 1.148.05 1.611h-.947l-.061-.954h-.022c-.266.474-.897 1.087-1.943 1.087-.925 0-2.027-.519-2.027-2.567v-3.428h1.069v3.23c0 1.115.354 1.876 1.312 1.876.714 0 1.213-.496 1.406-.982.061-.144.1-.337.1-.547V38h1.069v4.256h-.006zM181.242 36v1.518H183v.878h-1.758v3.417c0 .789.236 1.231.924 1.231.337 0 .528-.024.713-.078l.057.879a3.562 3.562 0 01-1.089.155c-.573 0-1.032-.185-1.325-.484-.337-.352-.477-.914-.477-1.66v-3.46H179v-.878h1.045V36.34l1.197-.341zm3.758-.264c0 .401-.192.717-.515.717-.293 0-.485-.322-.485-.717 0-.395.201-.736.506-.736.289 0 .494.322.494.736zM184.1 44v-6.452h.808V44h-.808zm8.9-3.051c0 2.124-1.584 3.051-3.058 3.051-1.647 0-2.942-1.144-2.942-2.96 0-1.913 1.358-3.04 3.04-3.04 1.769 0 2.96 1.198 2.96 2.949zm-4.855.06c0 1.257.763 2.21 1.849 2.21 1.064 0 1.861-.937 1.861-2.233 0-.975-.52-2.2-1.838-2.2-1.3 0-1.872 1.138-1.872 2.222zm5.904-1.299c0-.62-.011-1.107-.049-1.588h.937l.061.968h.022c.29-.548.959-1.09 1.924-1.09.806 0 2.056.487 2.056 2.502V44h-1.058v-3.388c0-.946-.351-1.738-1.349-1.738-.685 0-1.228.499-1.42 1.09a1.524 1.524 0 00-.071.5v3.53h-1.058V39.71h.005zM78 24.986C75.376 25.664 72.816 26 70.309 26 64.766 26 62 23.073 62 17.218c0-5.402 2.713-8.103 8.132-8.103 1.154 0 2.337.267 3.543.806V3H78v21.986zM73.675 13.52c-.895-.58-2.013-.869-3.366-.869-2.69 0-4.031 1.484-4.031 4.457 0 3.53 1.4 5.293 4.196 5.293 1.13 0 2.2-.157 3.2-.464V13.52zM81 20.713c0-3.38 2.44-5.072 7.312-5.072 1.145 0 2.29.111 3.434.321v-1.278c0-1.523-1.087-2.282-3.255-2.282-1.838 0-3.878.269-6.127.812V9.81c2.243-.536 4.29-.81 6.127-.81C93.497 9 96 10.867 96 14.602V26h-2.468l-1.509-1.523A8.316 8.316 0 0187.18 26c-4.122.012-6.18-1.757-6.18-5.287zm7.312-2.154c-2.04 0-3.063.7-3.063 2.107 0 1.511.855 2.264 2.566 2.264 1.41 0 2.723-.443 3.93-1.33v-2.72a17.79 17.79 0 00-3.433-.32zM100 26V9h3.318l.502 2.462C105.342 9.822 107.167 9 109.307 9c2.135 0 3.598.776 4.386 2.334C115.43 9.782 117.25 9 119.145 9c3.907 0 5.855 2.153 5.855 6.458v10.536h-4.286V15.301c0-1.89-.852-2.836-2.554-2.836-1.272 0-2.496.572-3.674 1.716V26h-4.287V15.347c0-1.92-.787-2.882-2.361-2.882-1.254 0-2.432.572-3.546 1.716V26H100zm33-23v3.38h-4V3h4zm0 6.11V26h-4V9.11h4zM138 26V9h3.221l.521 2.491c1.579-1.663 3.379-2.491 5.4-2.491 3.905 0 5.858 2.094 5.858 6.283V26h-4.16V15.283c0-1.878-.906-2.818-2.717-2.818-1.353 0-2.672.555-3.957 1.669V26H138zm23-23v3.38h-4V3h4zm0 6.11V26h-4V9.11h4zm4 8.399C165 11.834 167.833 9 173.5 9s8.5 2.834 8.5 8.509c0 5.663-2.833 8.491-8.5 8.491-5.649 0-8.482-2.828-8.5-8.491zm8.494 5.238c2.78 0 4.171-1.765 4.171-5.302 0-3.45-1.391-5.175-4.171-5.175-2.78 0-4.17 1.725-4.17 5.175.006 3.537 1.396 5.302 4.17 5.302zM185 26V9h3.221l.521 2.491c1.579-1.663 3.379-2.491 5.4-2.491 3.905 0 5.858 2.094 5.858 6.283V26h-4.16V15.283c0-1.878-.906-2.818-2.717-2.818-1.353 0-2.672.555-3.957 1.669V26H185z" fill="#153051"/></svg>