<svg width="110" height="29" fill="none" xmlns="http://www.w3.org/2000/svg"><path d="M24.161 4.154l.003 9.397v.683c0 5.568-4.487 10.084-10.018 10.084-5.532 0-10.019-4.516-10.019-10.084 0-5.57 4.487-10.083 10.019-10.083 2.202 0 4.24.717 5.894 1.928V1.29A14.053 14.053 0 0014.143 0C6.333 0 0 6.373 0 14.237c0 7.861 6.333 14.235 14.143 14.235 7.81 0 14.143-6.374 14.143-14.235.003-3.936-1.563-7.508-4.125-10.083z" fill="#F0F5FB"/><path d="M14.405 8.436c-3.328 0-6.024 2.714-6.024 6.064s2.696 6.063 6.024 6.063 6.024-2.713 6.024-6.063c0-3.35-2.696-6.064-6.024-6.064zm94.025-7.382c.262 0 .521.068.772.205.253.135.448.332.588.584.14.252.21.519.21.794 0 .273-.07.534-.207.786a1.475 1.475 0 01-.579.587c-.251.137-.51.208-.784.208s-.533-.07-.784-.208a1.464 1.464 0 01-.582-.587 1.591 1.591 0 01.006-1.58c.14-.255.338-.449.588-.584a1.58 1.58 0 01.772-.205zm0 .264a1.32 1.32 0 00-.644.17 1.197 1.197 0 00-.489.49 1.325 1.325 0 00-.178.66c0 .228.059.445.175.653a1.31 1.31 0 001.139.666c.227 0 .443-.059.652-.176.207-.117.37-.279.487-.49a1.36 1.36 0 00.172-.654c0-.228-.059-.448-.175-.66a1.22 1.22 0 00-.489-.489 1.383 1.383 0 00-.65-.17zm-.69 2.193v-1.7h.582c.198 0 .341.014.431.047a.446.446 0 01.158.739.527.527 0 01-.35.155.486.486 0 01.143.09c.067.068.151.18.25.338l.207.334h-.332l-.151-.27c-.117-.21-.213-.343-.286-.395a.351.351 0 00-.218-.06h-.161v.725h-.273v-.003zm.273-.959h.333c.157 0 .265-.023.323-.07a.232.232 0 00.087-.188.232.232 0 00-.157-.222.826.826 0 00-.274-.03h-.309v.51h-.003zm-73.72 16.422H33v-.52h3.143v.52h-1.299V23.2h-.554v-4.226h.003zm2.377-.52h.559v2.024h.011c.09-.168.23-.32.4-.42a1.1 1.1 0 01.57-.162c.415 0 1.076.268 1.076 1.377V23.2h-.56v-1.86c0-.52-.185-.957-.712-.957-.362 0-.64.269-.75.582a.789.789 0 00-.038.28v1.951h-.56v-4.742h.004zm4.178 3.262c.01.746.472 1.052 1.017 1.052.386 0 .626-.069.822-.157l.098.394c-.19.088-.52.194-.993.194-.914 0-1.459-.62-1.459-1.534 0-.915.529-1.63 1.392-1.63.976 0 1.227.867 1.227 1.424 0 .111-.005.194-.02.257h-2.084zm1.579-.397c.005-.346-.14-.889-.746-.889-.551 0-.786.509-.828.889h1.574zm2.621-2.865h.523V23.2h-.523v-4.746zm2.085 3.262c.011.746.473 1.052 1.018 1.052.385 0 .626-.069.821-.157l.098.394c-.19.088-.52.194-.992.194-.914 0-1.459-.62-1.459-1.534 0-.915.528-1.63 1.392-1.63.975 0 1.227.867 1.227 1.424 0 .111-.005.194-.02.257h-2.085zm1.582-.397c.006-.346-.14-.889-.746-.889-.55 0-.785.509-.827.889h1.573zm3.619 1.086c0 .263.013.52.047.726h-.536l-.047-.383h-.021c-.183.237-.537.451-1.008.451-.666 0-1.007-.431-1.007-.871 0-.735.707-1.135 1.977-1.13v-.062c0-.246-.074-.703-.747-.694-.313 0-.632.08-.861.225l-.137-.368c.273-.158.673-.263 1.088-.263 1.008 0 1.25.631 1.25 1.234v1.135h.002zm-.576-.823c-.65-.012-1.395.094-1.395.683 0 .363.258.526.558.526.434 0 .713-.252.81-.51a.543.543 0 00.027-.173v-.526zm4.262-3.128v3.851c0 .282.012.606.028.823h-.538l-.028-.553h-.022c-.18.354-.578.625-1.122.625-.808 0-1.433-.652-1.433-1.618-.007-1.06.688-1.705 1.496-1.705.515 0 .855.231 1.005.48h.013v-1.903h.6zm-.6 2.785a.884.884 0 00-.902-.906c-.63 0-1 .525-1 1.225 0 .645.336 1.176.986 1.176a.913.913 0 00.918-.94v-.555h-.003zm2.199-2.397c0 .212-.1.378-.27.378-.153 0-.254-.17-.254-.378s.105-.388.265-.388c.154 0 .259.17.259.388zm-.471 4.358v-3.402h.423V23.2h-.423zm1.545-2.262c0-.327-.006-.584-.026-.838h.49l.032.51h.012a1.124 1.124 0 011.008-.574c.422 0 1.077.256 1.077 1.319v1.844h-.555v-1.786c0-.499-.183-.916-.706-.916-.359 0-.643.262-.744.575a.805.805 0 00-.037.262v1.862h-.554v-2.259h.003zm6.752 1.952c0 .758-.158 1.207-.477 1.5-.332.29-.803.391-1.226.391-.401 0-.843-.095-1.115-.27l.152-.46c.22.142.568.262.982.262.622 0 1.08-.317 1.08-1.149v-.357h-.012c-.18.305-.547.548-1.068.548-.83 0-1.428-.69-1.428-1.592 0-1.108.743-1.727 1.517-1.727.58 0 .893.29 1.045.56h.019l.022-.493h.54a9.543 9.543 0 00-.028.89v1.897h-.003zm-.61-1.496a.734.734 0 00-.035-.262c-.11-.351-.4-.634-.853-.634-.58 0-.998.48-.998 1.234 0 .641.338 1.177.989 1.177a.88.88 0 00.846-.607.992.992 0 00.048-.317v-.591h.003zm2.736-2.836a6.97 6.97 0 011.226-.104c.827 0 1.415.209 1.807.581.405.382.634.922.634 1.677 0 .76-.232 1.386-.643 1.815-.422.436-1.11.673-1.98.673a8.69 8.69 0 01-1.044-.057v-4.585zm.577 4.127c.145.022.356.028.582.028 1.238 0 1.898-.72 1.898-1.98.007-1.101-.588-1.799-1.807-1.799-.299 0-.522.028-.676.063v3.688h.003zm4.655-.978l-.457 1.493h-.584l1.495-4.746h.676L75.43 23.2h-.606l-.468-1.493h-1.552zm1.442-.479l-.436-1.364c-.098-.309-.163-.591-.229-.867h-.011c-.066.276-.131.571-.223.86l-.43 1.374h1.329v-.003zm5.725-.109a44.357 44.357 0 01-.076-2.048h-.013c-.165.549-.35 1.146-.581 1.8l-.817 2.303h-.453l-.754-2.26a23.062 23.062 0 01-.529-1.847h-.013a56.9 56.9 0 01-.09 2.097l-.122 2.036h-.57l.323-4.746h.76l.788 2.296c.19.584.344 1.104.466 1.599h.013c.122-.479.287-.999.494-1.6l.823-2.295h.76l.288 4.746h-.588l-.11-2.081zm2.928 1.451c.178.1.484.215.777.215.417 0 .617-.194.617-.452 0-.263-.166-.4-.59-.551-.583-.2-.855-.495-.855-.858 0-.488.423-.888 1.106-.888.324 0 .61.082.783.188l-.139.4a1.301 1.301 0 00-.656-.182c-.345 0-.53.188-.53.414 0 .251.185.363.606.52.55.194.84.457.84.909 0 .54-.444.914-1.194.914-.35 0-.677-.088-.901-.214l.136-.414zm5.626-.98c0 1.12-.83 1.61-1.602 1.61-.863 0-1.541-.604-1.541-1.561 0-1.009.712-1.603 1.593-1.603.926 0 1.55.631 1.55 1.554zm-2.543.032c0 .663.4 1.166.968 1.166.558 0 .975-.495.975-1.178 0-.514-.272-1.16-.963-1.16-.68 0-.98.6-.98 1.172zm3.067-3.168h.523V23.2h-.523v-4.746zm4.164 3.826c0 .326.006.605.026.85h-.496l-.032-.504h-.01c-.14.25-.47.573-1.018.573-.485 0-1.062-.273-1.062-1.353v-1.807h.56v1.702c0 .588.185.99.687.99.374 0 .635-.262.737-.518a.762.762 0 00.052-.289v-1.888h.56v2.244h-.003zm1.724-3.299v.8h.921v.464h-.92v1.802c0 .415.123.649.483.649.177 0 .277-.013.374-.041l.03.463c-.124.04-.32.082-.57.082-.301 0-.541-.098-.695-.255-.177-.186-.25-.483-.25-.876v-1.824h-.547v-.463h.547v-.621l.627-.18zm1.969-.139c0 .212-.101.378-.27.378-.153 0-.254-.17-.254-.378s.105-.388.265-.388c.151 0 .259.17.259.388zm-.471 4.358v-3.402h.423V23.2h-.423zm4.661-1.61c0 1.12-.829 1.61-1.602 1.61-.862 0-1.54-.604-1.54-1.561 0-1.009.71-1.603 1.592-1.603.927 0 1.55.631 1.55 1.554zm-2.543.032c0 .663.4 1.166.969 1.166.557 0 .975-.495.975-1.178 0-.514-.273-1.16-.963-1.16-.681 0-.981.6-.981 1.172zm3.093-.684c0-.327-.006-.584-.026-.838h.491l.032.51h.011a1.124 1.124 0 011.008-.574c.422 0 1.077.256 1.077 1.319v1.844h-.554v-1.786c0-.499-.184-.916-.707-.916-.359 0-.643.262-.743.575a.799.799 0 00-.038.262v1.862h-.554v-2.259h.003zm-60.788-7.764a15.953 15.953 0 01-4.029.535c-2.903 0-4.352-1.544-4.352-4.63 0-2.849 1.421-4.273 4.26-4.273.604 0 1.224.14 1.856.425V1.58h2.265v11.593zm-2.265-6.045c-.469-.306-1.055-.459-1.764-.459-1.408 0-2.11.783-2.11 2.35 0 1.862.733 2.79 2.197 2.79.592 0 1.153-.082 1.677-.244V7.13zm3.837 3.791c0-1.78 1.277-2.673 3.83-2.673.6 0 1.199.058 1.798.17v-.675c0-.803-.569-1.203-1.704-1.203-.963 0-2.032.142-3.21.428V5.173c1.175-.283 2.247-.428 3.21-.428 2.622 0 3.933.985 3.933 2.954v6.01h-1.293l-.79-.803a4.336 4.336 0 01-2.538.803c-2.158.006-3.236-.926-3.236-2.788zm3.83-1.135c-1.07 0-1.605.37-1.605 1.111 0 .797.448 1.194 1.344 1.194.74 0 1.427-.234 2.06-.701V9.955a9.26 9.26 0 00-1.8-.17zm6.122 3.924V4.745h1.738l.263 1.298c.797-.864 1.753-1.298 2.874-1.298 1.118 0 1.885.41 2.297 1.23.91-.818 1.864-1.23 2.856-1.23 2.047 0 3.067 1.135 3.067 3.405v5.556h-2.245V8.067c0-.996-.446-1.495-1.338-1.495-.666 0-1.307.302-1.924.905v6.232h-2.245V8.092c0-1.012-.413-1.52-1.238-1.52-.656 0-1.273.302-1.857.905v6.232h-2.248zM69.667 1.582v1.782H67.57V1.582h2.096zm0 3.222v8.905H67.57V4.804h2.096zm2.619 8.905V4.745h1.687l.273 1.314c.827-.877 1.77-1.314 2.828-1.314 2.046 0 3.069 1.104 3.069 3.313v5.65h-2.18v-5.65c0-.99-.474-1.486-1.423-1.486-.708 0-1.399.293-2.072.88v6.257h-2.182zM84.333 1.582v1.782h-2.095V1.582h2.095zm0 3.222v8.905h-2.095V4.804h2.095zm2.096 4.428c0-2.992 1.484-4.487 4.452-4.487s4.452 1.495 4.452 4.487c0 2.985-1.484 4.477-4.452 4.477-2.959 0-4.443-1.492-4.452-4.477zm4.449 2.762c1.456 0 2.184-.931 2.184-2.796 0-1.82-.728-2.729-2.184-2.729-1.457 0-2.185.91-2.185 2.729.003 1.865.732 2.796 2.185 2.796zm6.027 1.715V4.745h1.687l.273 1.314c.827-.877 1.77-1.314 2.828-1.314 2.046 0 3.069 1.104 3.069 3.313v5.65h-2.179v-5.65c0-.99-.475-1.486-1.424-1.486-.708 0-1.399.293-2.072.88v6.257h-2.182z" fill="#F0F5FB"/></svg>