<svg width="61" height="78" fill="none" xmlns="http://www.w3.org/2000/svg"><g clip-path="url(#clip0_465_9650)"><path d="M5.959 58.17L30.933 71 54.96 58.17V8h-49v50.17z" fill="#fff"/><path d="M54.959 8l-50 51.008L30.875 72 54.96 59.52V8z" fill="#F2F3F2"/><path d="M3.959 24.5v34.753l.896.45L30.14 72.615l.768.385.768-.385 24.388-12.912.896-.45V6h-53v18.5zm1.664 33.79V7.67h49.672v50.62L30.907 71.2 5.623 58.29z" fill="#DCDEDC"/><path d="M29.99 8.485c.252 0 .503 0 .754.064l-.754 1.466a2.107 2.107 0 00-2.199 1.975c-.062 1.147.817 2.167 1.948 2.23h.251a2.17 2.17 0 001.383-.51l.816 1.403a3.772 3.772 0 01-2.199.7c-2.01.064-3.706-1.465-3.77-3.504-.062-2.04 1.446-3.76 3.456-3.824h.314zm2.576 3.123l.943 1.593-.943 1.53-.88-1.53h-1.821l.942-1.593h1.76zm-1.508-.574c0-.255.063-.51.189-.7.125-.192.377-.383.565-.51l.126-.064c.251-.128.314-.191.314-.319 0-.127-.188-.255-.314-.255-.251 0-.44.128-.566.383l-.314-.319c.063-.127.189-.255.314-.382.189-.128.378-.128.566-.128.189 0 .44.064.565.191.126.128.252.319.252.51 0 .319-.189.574-.566.701l-.188.128c-.189.127-.314.19-.377.382h1.13v.446l-1.696-.064zM29.99 19l5.969-3.441V6h-12v9.495L29.99 19zm28 23H2.991L.96 46.5 2.99 51h55l1.968-4.5L57.99 42z" fill="#FF492C"/><path d="M11.738 32c.416 0 .781.088 1.096.263.316.176.56.428.731.758.173.325.259.698.259 1.12 0 .416-.088.783-.265 1.099-.18.312-.433.555-.756.73a2.314 2.314 0 01-1.122.264H10.34c-.03 0-.044.018-.044.053v2.515a.108.108 0 01-.038.086.108.108 0 01-.082.033H9.072a.108.108 0 01-.082-.033.119.119 0 01-.031-.086v-6.684c0-.035.01-.063.031-.085A.108.108 0 019.072 32h2.666zm-.202 3.121c.294 0 .527-.087.7-.263.176-.176.264-.404.264-.685 0-.294-.088-.529-.264-.705-.173-.18-.406-.27-.7-.27H10.34c-.03 0-.044.018-.044.053v1.818c0 .035.015.052.044.052h1.197zm7.33.738c.037.25.05.529.037.836-.004.084-.044.125-.12.125H15.86c-.038 0-.05.016-.038.046.021.132.055.264.101.395.168.37.502.554 1.002.554.408-.005.727-.176.958-.514.025-.04.053-.06.082-.06.021 0 .044.014.07.04l.68.698c.03.035.044.066.044.093a.23.23 0 01-.031.078c-.21.273-.48.481-.807.626a2.56 2.56 0 01-1.078.224c-.542 0-1-.127-1.373-.382a2.183 2.183 0 01-.813-1.08c-.13-.33-.196-.76-.196-1.29 0-.365.046-.685.139-.962.147-.465.401-.836.762-1.113a2.08 2.08 0 011.292-.415c.63 0 1.137.191 1.519.573.382.382.613.891.693 1.528zm-2.206-.896c-.395 0-.656.194-.782.58a2.988 2.988 0 00-.07.316c0 .03.018.046.051.046h1.632c.038 0 .053-.015.044-.046a10.63 10.63 0 00-.05-.277.893.893 0 00-.296-.46.867.867 0 00-.53-.159zm5.488-1.185c.223 0 .401.046.536.138.05.027.07.075.057.145l-.202 1.126c-.004.08-.048.103-.132.073a.923.923 0 00-.328-.053c-.05 0-.12.007-.208.02a.943.943 0 00-.58.263c-.155.154-.233.36-.233.62v2.692c0 .036-.01.064-.031.086a.123.123 0 01-.082.033h-1.103a.108.108 0 01-.082-.033.119.119 0 01-.032-.086v-4.84c0-.03.011-.059.032-.085a.108.108 0 01.082-.033h1.103c.03 0 .056.01.082.033a.134.134 0 01.031.085v.376c0 .017.006.03.019.04.013.008.021.004.025-.014.26-.39.61-.586 1.046-.586zm3.97.06a.1.1 0 01.076.032c.025.022.038.05.038.086v.935a.108.108 0 01-.038.086.101.101 0 01-.076.032h-.92c-.03 0-.044.016-.044.047v3.746a.108.108 0 01-.038.086.101.101 0 01-.075.033h-1.11a.123.123 0 01-.081-.033.119.119 0 01-.032-.086v-3.746c0-.031-.017-.047-.05-.047h-.555a.123.123 0 01-.082-.032.118.118 0 01-.031-.086v-.935a.12.12 0 01.031-.086.122.122 0 01.082-.033h.555c.033 0 .05-.017.05-.052v-.218c0-.408.061-.726.183-.955.118-.224.31-.384.58-.48.269-.097.638-.139 1.109-.125h.359c.034 0 .06.01.082.032a.135.135 0 01.032.086v.797a.12.12 0 01-.032.086.1.1 0 01-.082.039h-.315c-.219.004-.37.05-.454.138-.084.093-.126.257-.126.494v.106c0 .035.015.052.044.052h.92zM29.15 39c-.529 0-.983-.145-1.36-.435-.379-.29-.637-.684-.776-1.185a3.642 3.642 0 01-.132-1.008c0-.386.044-.735.132-1.047.147-.487.408-.869.782-1.145.382-.277.838-.415 1.367-.415.517 0 .956.136 1.317.408.37.277.63.659.782 1.146.1.33.15.674.15 1.034 0 .355-.043.689-.132 1-.142.514-.4.916-.775 1.206-.374.294-.825.441-1.355.441zm0-1.192c.21 0 .387-.066.53-.197a1.16 1.16 0 00.315-.547c.05-.21.076-.441.076-.691 0-.277-.026-.51-.076-.698-.072-.224-.18-.4-.328-.527a.775.775 0 00-.523-.185.777.777 0 00-.535.185 1.075 1.075 0 00-.31.526c-.05.154-.075.387-.075.699 0 .298.023.529.07.691.058.233.163.415.315.547a.783.783 0 00.541.197zm5.54-4.03c.227 0 .405.046.535.138.05.027.07.075.057.145l-.195 1.126c-.009.08-.053.103-.133.073a.976.976 0 00-.334-.053c-.05 0-.12.007-.208.02a.937.937 0 00-.573.263c-.156.154-.233.36-.233.62v2.692a.108.108 0 01-.038.086.101.101 0 01-.076.033h-1.109a.108.108 0 01-.082-.033.119.119 0 01-.031-.086v-4.84c0-.03.01-.059.031-.085a.108.108 0 01.082-.033h1.11a.1.1 0 01.075.033.122.122 0 01.038.085v.376c0 .017.004.03.012.04.013.008.023.004.032-.014.256-.39.603-.586 1.04-.586zm6.585-.013c.491 0 .876.154 1.153.46.277.313.416.75.416 1.311v3.266c0 .036-.01.064-.032.086a.108.108 0 01-.081.033h-1.103a.108.108 0 01-.082-.033.119.119 0 01-.032-.086V35.84c0-.268-.067-.48-.201-.639a.65.65 0 00-.53-.237.68.68 0 00-.535.237c-.139.158-.208.37-.208.633v2.97c0 .035-.01.063-.032.085a.123.123 0 01-.082.033H38.83a.108.108 0 01-.082-.033.119.119 0 01-.032-.086V35.84c0-.263-.069-.476-.208-.639a.687.687 0 00-.541-.237.72.72 0 00-.505.185.825.825 0 00-.24.526v3.128c0 .036-.01.064-.03.086a.123.123 0 01-.083.033H36a.101.101 0 01-.075-.033.108.108 0 01-.038-.086v-4.84c0-.03.012-.059.038-.085a.1.1 0 01.075-.033h1.11c.029 0 .056.01.081.033a.134.134 0 01.032.085v.389c0 .017.006.03.019.04.012.004.025-.005.038-.027.256-.4.655-.6 1.197-.6.315 0 .592.071.832.211.235.137.416.334.542.593.017.04.038.04.063 0a1.38 1.38 0 01.567-.606c.235-.131.5-.197.794-.197zm6.806 2.094c.037.25.05.529.037.836-.004.084-.044.125-.12.125h-2.923c-.038 0-.05.016-.038.046.02.132.057.264.107.395.164.37.498.554 1.002.554.403-.005.72-.176.952-.514.025-.04.054-.06.088-.06.017 0 .038.014.063.04l.68.698c.034.035.05.066.05.093 0 .013-.012.039-.037.078-.21.273-.479.481-.807.626-.327.15-.687.224-1.077.224-.542 0-1-.127-1.374-.382a2.149 2.149 0 01-.807-1.08c-.134-.33-.201-.76-.201-1.29 0-.365.048-.685.145-.962.142-.465.397-.836.762-1.113.361-.276.79-.415 1.286-.415.63 0 1.136.191 1.518.573.383.382.614.891.694 1.528zm-2.2-.896c-.399 0-.661.194-.787.58a2.283 2.283 0 00-.063.316c0 .03.014.046.044.046h1.638c.038 0 .05-.015.038-.046l-.05-.277a.845.845 0 00-.297-.46.857.857 0 00-.523-.159zm5.483-1.185c.227 0 .405.046.535.138.05.027.07.075.057.145l-.195 1.126c-.009.08-.053.103-.133.073a.976.976 0 00-.334-.053c-.05 0-.12.007-.207.02a.916.916 0 00-.574.263c-.16.154-.24.36-.24.62v2.692c0 .036-.01.064-.03.086a.108.108 0 01-.083.033h-1.103a.108.108 0 01-.081-.033.119.119 0 01-.032-.086v-4.84c0-.03.01-.059.032-.085a.108.108 0 01.081-.033h1.103c.034 0 .061.01.082.033a.134.134 0 01.032.085v.376c0 .017.006.03.018.04.013.008.024.004.032-.014.256-.39.603-.586 1.04-.586zm-26.829-11.37c0-.03.01-.059.032-.085a.104.104 0 01.076-.032h1.126c.03 0 .058.01.083.032a.13.13 0 01.032.085v6.56a.11.11 0 01-.032.084.127.127 0 01-.083.033h-1.126a.104.104 0 01-.076-.033.115.115 0 01-.032-.084V26.29c0-.03-.017-.046-.052-.046H22.36c-.03 0-.045.015-.045.046v2.678a.11.11 0 01-.032.084.127.127 0 01-.083.033h-1.126a.104.104 0 01-.077-.033.105.105 0 01-.038-.084v-6.56c0-.03.013-.059.038-.085a.104.104 0 01.077-.032H22.2c.03 0 .057.01.083.032a.13.13 0 01.032.085v2.607c0 .035.015.052.045.052h2.123c.035 0 .052-.017.052-.052v-2.607zm3.096 1.125a.733.733 0 01-.544-.22.729.729 0 01-.218-.543.75.75 0 01.212-.556.74.74 0 01.55-.214.74.74 0 01.55.213c.14.143.21.328.21.557 0 .22-.072.401-.217.543a.733.733 0 01-.543.22zm-.576 5.552a.127.127 0 01-.083-.033.115.115 0 01-.032-.084v-4.762c0-.034.01-.062.032-.084a.126.126 0 01.083-.032h1.126a.1.1 0 01.076.032c.026.022.039.05.039.084v4.762a.105.105 0 01-.039.084.104.104 0 01-.076.033h-1.126zm5.303-4.872c0-.03.012-.058.038-.084a.104.104 0 01.077-.033h1.126c.03 0 .057.011.083.033a.13.13 0 01.032.084v4.425c0 .846-.241 1.45-.723 1.812-.482.367-1.105.55-1.868.55-.226 0-.475-.017-.748-.052-.064-.008-.096-.05-.096-.123l.038-1.003c0-.086.045-.122.134-.11.23.04.442.059.634.059.41 0 .725-.089.946-.266.218-.185.327-.476.327-.873 0-.022-.007-.035-.02-.039-.012-.004-.025.002-.038.02-.243.263-.597.394-1.062.394-.418 0-.8-.101-1.145-.304-.35-.203-.599-.53-.748-.983-.094-.298-.14-.684-.14-1.159 0-.504.057-.914.172-1.229.132-.397.358-.714.678-.951a1.81 1.81 0 011.12-.362c.49 0 .865.149 1.125.446.013.013.026.017.039.013.012-.004.019-.015.019-.032v-.233zm-.077 3.131c.051-.19.077-.455.077-.796 0-.198-.007-.351-.02-.459a1.817 1.817 0 00-.063-.317.917.917 0 00-.288-.42.785.785 0 00-.5-.156.764.764 0 00-.485.155.94.94 0 00-.301.421c-.09.194-.134.457-.134.79 0 .362.038.62.115.776a.833.833 0 00.812.582.8.8 0 00.512-.162.8.8 0 00.275-.414zm4.976-3.325c.512 0 .924.16 1.235.479.311.314.467.744.467 1.287v3.183a.11.11 0 01-.032.084.104.104 0 01-.077.033h-1.126a.127.127 0 01-.083-.033.115.115 0 01-.032-.084v-2.905a.912.912 0 00-.217-.627.72.72 0 00-.57-.24.733.733 0 00-.569.24.912.912 0 00-.217.627v2.905a.114.114 0 01-.032.084.112.112 0 01-.084.033h-1.119a.112.112 0 01-.083-.033.115.115 0 01-.032-.084v-6.56c0-.03.01-.059.032-.085a.111.111 0 01.083-.032h1.12a.11.11 0 01.083.032.13.13 0 01.032.085v2.148c0 .017.006.03.019.038.013.005.021 0 .026-.012.264-.376.656-.563 1.176-.563z" fill="#252530"/><path d="M20.187 48c-.045 0-.074-.019-.087-.057l-1.135-3.869-.006-.023c0-.034.023-.051.069-.051h.61c.046 0 .075.019.088.057l.71 2.606c.005.011.011.017.02.017.008 0 .014-.006.018-.017l.68-2.606c.012-.038.04-.057.081-.057h.599c.045 0 .075.019.087.057l.723 2.612c.005.011.01.017.019.017.008 0 .015-.006.019-.017l.698-2.612c.013-.038.042-.057.087-.057h.58c.059 0 .081.025.069.074l-1.079 3.869c-.012.038-.041.057-.087.057h-.58c-.046 0-.075-.019-.087-.057l-.73-2.726c-.004-.011-.01-.019-.019-.023-.008 0-.014.008-.018.023l-.699 2.726c-.012.038-.04.057-.08.057h-.55zm4.621 0a.08.08 0 01-.056-.023.059.059 0 01-.019-.046V44.07c0-.02.006-.035.019-.046a.08.08 0 01.056-.023h.574c.02 0 .037.008.05.023a.053.053 0 01.025.046v3.862c0 .02-.009.035-.025.046a.061.061 0 01-.05.023h-.574zm4.097-3.931c0-.02.006-.035.019-.046A.08.08 0 0128.98 44h.574c.02 0 .037.008.05.023a.053.053 0 01.024.046v3.862c0 .02-.008.035-.024.046a.061.061 0 01-.05.023h-.555c-.042 0-.071-.015-.088-.046l-1.796-2.697c-.008-.011-.016-.017-.025-.017-.008.004-.012.013-.012.029l.012 2.662c0 .02-.008.035-.024.046a.061.061 0 01-.05.023h-.574a.08.08 0 01-.056-.023.059.059 0 01-.019-.046V44.07c0-.02.006-.035.019-.046a.08.08 0 01.056-.023h.555c.041 0 .07.015.087.046l1.79 2.697c.008.011.017.015.025.011.008 0 .012-.007.012-.023l-.006-2.662zM33.407 44c.021 0 .038.008.05.023a.053.053 0 01.025.046v.44a.053.053 0 01-.025.045.061.061 0 01-.05.023H32.26c-.02 0-.031.01-.031.029v3.325a.06.06 0 01-.019.046.081.081 0 01-.056.023h-.574a.06.06 0 01-.05-.023.053.053 0 01-.025-.046v-3.325c0-.02-.01-.029-.03-.029H30.37a.08.08 0 01-.056-.023.059.059 0 01-.018-.045v-.44c0-.02.006-.035.018-.046A.08.08 0 0130.37 44h3.037zm3.698.503a.053.053 0 01-.025.046.061.061 0 01-.05.022h-2.126c-.02 0-.031.01-.031.029v1.069c0 .019.01.028.03.028h1.429a.1.1 0 01.056.017.08.08 0 01.019.052v.434a.08.08 0 01-.019.051.097.097 0 01-.056.018h-1.428c-.02 0-.031.01-.031.028V47.4c0 .019.01.029.03.029h2.127a.06.06 0 01.05.022.053.053 0 01.025.046v.434c0 .02-.008.035-.025.046a.06.06 0 01-.05.023h-2.806a.08.08 0 01-.056-.023.059.059 0 01-.019-.046V44.07c0-.02.007-.035.02-.046a.08.08 0 01.055-.023h2.806a.06.06 0 01.05.023.053.053 0 01.025.046v.434zM40.292 48c-.042 0-.071-.017-.088-.051l-.823-1.646a.04.04 0 00-.037-.023h-.748c-.021 0-.032.01-.032.029v1.622c0 .02-.008.035-.025.046a.061.061 0 01-.05.023h-.573a.08.08 0 01-.056-.023.059.059 0 01-.019-.046V44.07c0-.02.006-.035.019-.046a.08.08 0 01.056-.023h1.715c.253 0 .478.048.673.143.196.099.347.236.455.411.108.18.163.383.163.612 0 .263-.075.485-.225.668-.146.187-.35.316-.611.389a.02.02 0 00-.019.011.022.022 0 000 .023l.88 1.663a.082.082 0 01.012.034c0 .03-.023.046-.069.046h-.598zm-1.697-3.429c-.02 0-.03.01-.03.029v1.137c0 .02.01.029.03.029h.936a.7.7 0 00.486-.166.547.547 0 00.181-.429.561.561 0 00-.18-.434.707.707 0 00-.487-.166h-.935z" fill="#fff"/><path d="M21.73 60.658c-.012.013-.017.027-.012.04.008.013.02.02.038.02h2.495c.03 0 .055.011.076.034a.1.1 0 01.038.08v.947a.104.104 0 01-.038.08.102.102 0 01-.076.034h-4.14a.108.108 0 01-.082-.034.113.113 0 01-.032-.08v-.9c0-.058.02-.107.057-.148.3-.308.608-.646.92-1.013.314-.367.51-.595.591-.684.17-.215.343-.421.52-.618.56-.653.839-1.139.839-1.456a.751.751 0 00-.229-.564c-.152-.143-.35-.215-.596-.215s-.445.072-.597.215a.765.765 0 00-.235.584v.242a.11.11 0 01-.032.08.101.101 0 01-.076.034h-1.086a.101.101 0 01-.076-.034.104.104 0 01-.038-.08v-.457c.021-.349.127-.66.317-.933a1.85 1.85 0 01.756-.617A2.566 2.566 0 0122.099 55c.436 0 .814.087 1.136.262a1.849 1.849 0 011.01 1.664c0 .273-.066.553-.197.84-.127.285-.32.594-.578.925-.19.25-.396.501-.616.752-.22.246-.548.602-.984 1.067l-.14.148zM27.356 62c-.678 0-1.21-.2-1.6-.597-.394-.398-.59-.942-.59-1.631v-2.57c0-.676.196-1.21.59-1.605.39-.398.922-.597 1.6-.597.673 0 1.208.2 1.606.597.394.394.59.929.59 1.604v2.57c0 .69-.196 1.233-.59 1.632-.398.398-.933.597-1.606.597zm0-1.175c.275 0 .493-.089.654-.268.165-.179.247-.418.247-.718V57.16c0-.295-.082-.532-.247-.711-.161-.18-.38-.269-.654-.269-.271 0-.487.09-.648.269-.165.179-.247.416-.247.711v2.678c0 .3.082.54.247.718.161.179.377.268.648.268zm4.774-.167c-.012.013-.015.027-.006.04.004.013.017.02.038.02h2.495a.1.1 0 01.077.034c.02.022.031.049.031.08v.947a.11.11 0 01-.032.08.101.101 0 01-.076.034h-4.146a.102.102 0 01-.076-.034.113.113 0 01-.032-.08v-.9c0-.058.017-.107.051-.148.305-.308.612-.646.92-1.013.314-.367.51-.595.591-.684.174-.215.35-.421.527-.618.559-.653.838-1.139.838-1.456a.751.751 0 00-.228-.564.86.86 0 00-.603-.215c-.246 0-.445.072-.597.215a.776.776 0 00-.229.584v.242c0 .03-.01.058-.031.08a.109.109 0 01-.083.034h-1.086a.101.101 0 01-.076-.034.113.113 0 01-.032-.08v-.457c.017-.349.12-.66.311-.933a1.84 1.84 0 01.762-.617 2.55 2.55 0 011.06-.215c.437 0 .815.087 1.137.262.326.17.576.4.75.691.173.295.26.62.26.973 0 .273-.064.553-.19.84a4.779 4.779 0 01-.585.925c-.19.25-.396.501-.616.752-.22.246-.548.602-.984 1.067l-.14.148zM37.756 62c-.673 0-1.207-.2-1.6-.597-.394-.398-.59-.942-.59-1.631v-2.57c0-.676.196-1.21.59-1.605.393-.398.927-.597 1.6-.597.677 0 1.212.2 1.606.597.398.394.597.929.597 1.604v2.57c0 .69-.199 1.233-.597 1.632-.394.398-.929.597-1.606.597zm0-1.175c.28 0 .5-.089.66-.268.16-.179.241-.418.241-.718V57.16c0-.295-.08-.532-.24-.711-.162-.18-.382-.269-.661-.269a.84.84 0 00-.648.269c-.16.179-.241.416-.241.711v2.678c0 .3.08.54.241.718a.84.84 0 00.648.268z" fill="#252530"/></g><defs><clipPath id="clip0_465_9650"><path fill="#fff" transform="translate(.959)" d="M0 0h60v78H0z"/></clipPath></defs></svg>