<svg width="62" height="62" fill="none" xmlns="http://www.w3.org/2000/svg"><path fill="#fff" d="M0 .001h62v62H0z"/><path d="M19.346 47.175a3.389 3.389 0 00-1.935.621c-.553.396-.95.948-1.13 1.572a2.727 2.727 0 00.135 1.88 3.04 3.04 0 001.346 1.42l11.312 5.896a6.598 6.598 0 004.76.513l17.016-4.459c1.27-.335 2.386-1.04 3.181-2.01a5.314 5.314 0 001.23-3.364v-2.069H19.346z" fill="#CDD9E8" opacity=".2"/><path d="M19.236 47.175a3.196 3.196 0 00-1.867.621 2.943 2.943 0 00-1.092 1.572 2.816 2.816 0 00.131 1.88 2.997 2.997 0 001.3 1.42l10.92 5.896a6.21 6.21 0 002.952.742 6.04 6.04 0 001.644-.23l16.43-4.458a5.898 5.898 0 003.072-2.01 5.43 5.43 0 001.187-3.364v-2.069H19.236z" fill="#CDD9E8" opacity=".12"/><path d="M33.696 1.349L38.28 11.49v35.257l-4.514 12.557 17.07-4.704a6.121 6.121 0 003.191-2.12 5.786 5.786 0 001.234-3.55V11.723a5.776 5.776 0 00-1.233-3.559 6.112 6.112 0 00-3.202-2.12l-17.13-4.695z" fill="#F0F5FB"/><path d="M12.62 46.798l4.784-2.619a4.198 4.198 0 001.582-1.557c.38-.654.58-1.4.58-2.158V21.4c0-.868.264-1.715.755-2.427a4.188 4.188 0 011.99-1.55l15.428-5.656V7.47a6.188 6.188 0 00-1.223-3.69 6.044 6.044 0 00-3.167-2.198 5.834 5.834 0 00-1.655-.233 6.065 6.065 0 00-3.004.805L11.033 12.37a5.876 5.876 0 00-2.156 2.169 5.982 5.982 0 00-.79 2.973v26.542c-.001.54.136 1.072.398 1.542.263.47.641.863 1.098 1.14a3.039 3.039 0 003.038.063zm25.12.377H19.26a3.238 3.238 0 00-1.882.621 2.942 2.942 0 00-1.1 1.572 2.796 2.796 0 00.132 1.88c.26.596.72 1.095 1.31 1.42l11.008 5.896a6.282 6.282 0 002.974.742c.561 0 1.12-.078 1.657-.23a6.046 6.046 0 003.167-2.05 5.491 5.491 0 001.213-3.442v-6.409z" fill="#CDD9E8"/><path d="M12.62 46.798l4.784-2.619a4.198 4.198 0 001.582-1.557c.38-.654.58-1.4.58-2.158V21.4c0-.868.264-1.715.755-2.427a4.188 4.188 0 011.99-1.55l15.428-5.656V7.47a6.188 6.188 0 00-1.223-3.69 6.044 6.044 0 00-3.167-2.198 5.834 5.834 0 00-1.655-.233 6.065 6.065 0 00-3.004.805L11.033 12.37a5.876 5.876 0 00-2.156 2.169 5.982 5.982 0 00-.79 2.973v26.542c-.001.54.136 1.072.398 1.542.263.47.641.863 1.098 1.14a3.039 3.039 0 003.038.063zm25.12.377H19.26a3.238 3.238 0 00-1.882.621 2.942 2.942 0 00-1.1 1.572 2.796 2.796 0 00.132 1.88c.26.596.72 1.095 1.31 1.42l11.008 5.896a6.282 6.282 0 002.974.742c.561 0 1.12-.078 1.657-.23a6.046 6.046 0 003.167-2.05 5.491 5.491 0 001.213-3.442v-6.409z" fill="#CDD9E8"/></svg>