<svg width="270" height="220" fill="none" xmlns="http://www.w3.org/2000/svg"><g clip-path="url(#clip0_2266_287)" fill="#153051"><path d="M48.264 67.836s3.371 2.154 9.268 5.918l10.623 6.796c4.116 2.6 8.763 5.53 13.83 8.73 10.167 6.36 22.024 13.777 34.727 21.726.803.537 1.632 1.154 2.228 2.074.292.457.494 1.005.531 1.574.048.564-.085 1.122-.255 1.595-.356.957-.813 1.776-1.207 2.653-.409.867-.813 1.739-1.228 2.611a769.91 769.91 0 00-4.892 10.624c-1.606 3.594-3.228 7.21-4.855 10.847-.409.914-.776 1.818-1.217 2.749-.436.909-.957 1.866-1.803 2.605-1.728 1.473-4.014 1.67-6.008 1.712-4.195.016-8.14-1.494-11.762-3.206a87.379 87.379 0 01-2.706-1.366l-2.61-1.431c-1.74-.952-3.468-1.903-5.196-2.85-6.912-3.966-13.192-8.523-19.429-12.644-3.115-2.058-6.183-4.057-9.262-5.875-3.079-1.835-6.147-3.398-9.241-4.993-3.063-1.606-6.1-3.398-8.476-5.897-1.154-1.228-2.244-2.653-2.813-4.355-.611-1.717-.404-3.637.16-5.147.542-1.531 1.372-2.876 2.11-4.073a78.639 78.639 0 012.378-3.54c1.59-2.25 3.18-4.287 4.567-6.27 1.398-1.973 2.59-3.881 3.541-5.726.957-1.835 1.585-3.653 2.308-5.27 1.388-3.307 3.286-5.434 4.514-6.832 1.266-1.388 1.968-2.1 1.968-2.1l.164.148s-.654.76-1.813 2.228c-1.138 1.468-2.871 3.637-4.02 6.891-.6 1.617-1.17 3.494-2.09 5.445-.903 1.946-2.052 3.961-3.386 6.02-1.335 2.062-2.818 4.2-4.344 6.444a80.07 80.07 0 00-2.223 3.493c-.734 1.26-1.414 2.456-1.85 3.77-.426 1.302-.521 2.61-.053 3.849.457 1.261 1.35 2.42 2.435 3.51 2.159 2.153 4.95 3.823 7.98 5.354 3.037 1.505 6.275 3.127 9.386 5.003 3.131 1.856 6.247 3.877 9.342 6.009 6.2 4.238 12.437 8.853 19.11 12.846l5.12 2.978 2.574 1.494c.824.457 1.722.941 2.59 1.382 3.471 1.798 7.167 3.35 11.027 3.478.463.016.946.01 1.451-.027.468-.016.947-.08 1.404-.17.92-.181 1.797-.516 2.483-1.079.692-.559 1.191-1.378 1.638-2.239.441-.856.861-1.786 1.287-2.68 1.669-3.615 3.334-7.215 4.982-10.788a707.262 707.262 0 004.791-10.672c.388-.882.776-1.76 1.159-2.637.377-.877.803-1.76 1.074-2.6.287-.84.202-1.606-.266-2.271-.463-.664-1.191-1.191-1.957-1.653-3.248-1.861-6.439-3.696-9.565-5.488-3.127-1.791-6.205-3.546-9.14-5.333-5.886-3.557-11.358-7.066-16.399-10.326-5.024-3.28-9.602-6.332-13.611-9.108-4.01-2.775-7.514-5.184-10.348-7.236-5.684-4.09-8.874-6.503-8.874-6.503l.149-.17zm72.138 44.93s5.354-1.59 14.766-4.222c4.7-1.329 10.437-2.85 17.009-4.625 6.572-1.782 14.011-3.68 22.135-5.727 8.12-2.058 16.925-4.264 26.283-6.407 9.337-2.228 19.243-4.318 29.479-6.535l15.589-3.35c2.643-.563 5.259-1.17 7.96-1.712 1.351-.229 2.855-.362 4.233.277 1.398.638 2.185 1.993 2.791 3.211a110.777 110.777 0 016.152 15.462 109.536 109.536 0 012.265 8.077c.314 1.383.654 2.685.883 4.153.096.728.09 1.563-.192 2.323-.297.793-.786 1.394-1.281 1.936-.553.542-.984 1-1.553 1.478-.574.463-1.137.941-1.749 1.319-1.186.829-2.483 1.462-3.791 2.052-2.648 1.106-5.413 1.813-8.173 2.345-5.529 1-11.049 1.489-16.307 2.808-10.624 2.461-20.673 6.449-30.569 9.937-9.884 3.504-19.599 6.439-28.808 9.162-9.209 2.733-17.977 5.099-26.059 7.284-2 .537-4.068 1.165-6.269 1.165a9.956 9.956 0 01-3.201-.537 11.933 11.933 0 01-2.792-1.388c-3.387-2.286-5.455-5.514-7.306-8.343-3.679-5.843-5.976-11.373-7.736-15.935a262.113 262.113 0 01-3.791-10.72c-.346-1.286-.293-2.403.096-3.036.393-.638.834-.702.808-.723l.09.202c.027.021-.361.091-.67.649-.313.548-.335 1.579.048 2.797a272.184 272.184 0 004.227 10.496c1.952 4.45 4.355 9.895 8.12 15.473.457.691.962 1.393 1.483 2.1.5.691 1.042 1.382 1.616 2.042 1.154 1.318 2.436 2.589 3.946 3.552.749.478 1.558.877 2.403 1.143a8.28 8.28 0 002.637.393c1.83-.021 3.738-.617 5.754-1.201 8.034-2.351 16.738-4.897 25.942-7.593 9.193-2.723 18.812-5.796 28.702-9.167 9.869-3.355 20.035-7.306 30.893-9.672 5.444-1.26 11.017-1.648 16.44-2.536 2.707-.452 5.387-1.058 7.918-2.042 1.244-.526 2.488-1.085 3.61-1.829.59-.34 1.095-.761 1.627-1.154.51-.399 1.063-.946 1.515-1.366.458-.474.862-.984 1.069-1.5.223-.548.245-1.154.181-1.802-.17-1.298-.489-2.712-.766-4.052a106.927 106.927 0 00-2.063-8.06 110.787 110.787 0 00-5.976-15.405c-.58-1.207-1.292-2.392-2.462-2.892-1.149-.521-2.515-.415-3.818-.176-2.632.564-5.29 1.202-7.906 1.797-5.254 1.192-10.417 2.473-15.505 3.712-10.172 2.462-19.972 4.993-29.303 7.215-9.316 2.297-18.142 4.387-26.283 6.338-16.281 3.924-29.85 7.189-39.347 9.481-9.512 2.249-14.946 3.536-14.946 3.536l-.048-.208z"/><path d="M236.518 64.008s.415.175 1.042.58c.314.212.702.414 1.106.696.399.271.877.574 1.372.936.478.372 1.042.728 1.552 1.212.532.463 1.016 1.047 1.542 1.632.532.58 1.112 1.149 1.798 1.59.664.468 1.414.846 2.18 1.186.765.35 1.547.675 2.249 1.1.712.41 1.409.825 2.068 1.25 1.34.824 2.446 1.824 3.334 2.744.431.478.835.898 1.143 1.334.314.426.59.782.777 1.122.388.66.553 1.064.553 1.064l-.165.149s-.404-.197-1.021-.58c-.298-.202-.707-.404-1.122-.675-.426-.26-.904-.558-1.425-.883-.5-.34-1.085-.675-1.648-1.08-.591-.382-1.17-.834-1.771-1.318-.596-.489-1.218-.994-1.845-1.51-.633-.51-1.223-1.117-1.819-1.712-.595-.6-1.212-1.16-1.882-1.632-.654-.49-1.377-.862-2.105-1.186-.729-.33-1.441-.644-2.042-1.048a11.898 11.898 0 01-1.574-1.308c-.452-.446-.851-.872-1.175-1.308-.325-.414-.601-.792-.771-1.122-.367-.648-.521-1.074-.521-1.074l.17-.16zM47.87 68.794s.032-.213.16-.564c.064-.175.154-.383.276-.617.15-.228.266-.489.655-.755.053-.032.127-.064.18-.09l.107-.048.228-.085c.154-.053.314-.117.484-.16a4.47 4.47 0 011.1-.16c.389-.031.793-.042 1.176-.148.388-.096.77-.24 1.143-.415.378-.17.745-.361 1.122-.5.378-.138.755-.26 1.122-.372a9.393 9.393 0 012.052-.399c1.229-.117 2.085.048 2.085.048l.016.112s-.75.42-1.893.819a12.83 12.83 0 01-1.994.532c-.372.063-.76.127-1.154.19-.393.065-.808.07-1.218.107-.41.027-.813.096-1.19.213-.384.1-.734.303-1.08.484-.34.191-.675.35-1.005.452-.165.058-.33.09-.49.133l-.233.058-.117.021c-.021.006-.016 0-.032 0-.138.048-.372.24-.532.394-.175.165-.335.308-.462.425-.26.245-.426.383-.426.383l-.08-.058zm20.142-20.86c-1.393.293-12.097 2.622-6.785 5.04 2.887 1.314 7.215.697 10.3.756 4.046.074 8.092.09 12.133-.101 3.515-.165 7.003-.527 10.491-1 3.27-.447 7.258-.52 10.278-1.946 1.032-.49 2.239-1.563 1.425-2.823-.463-.718-1.616-.872-2.324-1.064-1.887-.51-3.801-.925-5.716-1.318-.696-.144-.994.925-.292 1.068 1.276.266 2.552.537 3.818.846.329.08 2.658.457 2.844.728 1.441 2.116-4.897 2.659-5.747 2.786-4.903.745-9.81 1.388-14.766 1.622-4.743.224-9.497.165-14.245.053-1.19-.026-8.433.303-7.412-1.77.133-.277 2.377-.814 2.664-.899a42.784 42.784 0 013.642-.898c.686-.155.388-1.229-.308-1.08z"/><path d="M59.387 51.757c-.537 4.563-.6 9.14-.074 13.708.287 2.472.883 3.743 3.36 4.466 3.68 1.075 7.907 1.165 11.703 1.314 4.42.17 8.854.042 13.261-.303 3.94-.309 7.87-.787 11.778-1.372 2.712-.404 6.742-.383 8.72-2.637 1.936-2.207 1.627-6.131 1.08-8.774-.378-1.829-1.17-3.541-1.569-5.365-.351-1.6-.42-2.972-1.42-4.317-.42-.57-1.388-.016-.957.558 1.404 1.888 1.675 5.301 2.372 7.556 1.127 3.658 1.908 9.533-2.792 10.937-3.084.925-6.62 1.133-9.805 1.537-3.169.398-6.348.718-9.533.914-6.328.394-12.698.32-18.988-.494-1.175-.154-3.834-.213-4.812-1.069-1.005-.883-1.335-3.243-1.446-4.52a46.214 46.214 0 01-.144-2.11c-.17-3.356-.016-6.69.378-10.023.08-.713-1.032-.707-1.112-.006z"/><path d="M105.636 67.788c1.117 12.113 1.414 24.332-1 36.316-.138.697.931.995 1.069.293 2.435-12.08 2.17-24.395 1.042-36.609-.069-.707-1.18-.712-1.111 0zm-43.298 1.755c.064 1.547-.223 2.988.08 4.53.33 1.665.59 3.43 1.303 4.983.298.648 1.255.085.957-.559-.649-1.42-.91-3.19-1.191-4.716-.271-1.457.021-2.78-.043-4.238-.026-.712-1.138-.712-1.106 0zM204.051 91.62c.58-5.7 1.303-11.304 3.111-16.765 1.723-5.21 3.536-10.22 4.456-15.654 1.712-10.156 3.775-20.178 7.417-29.845.984-2.61 2.068-5.184 3.265-7.71a78.343 78.343 0 011.563-3.142c1.159-2.196 2.334-2.882 4.897-2.457 5.307.893 10.576 2.132 15.76 3.573 1.478.41 3.371.74 4.062 2.345.452 1.058-.366 3.53-.579 4.62-.521 2.675-1.329 5.291-2.217 7.865-1.707 4.923-3.69 9.752-5.371 14.686-3.988 11.708-7.034 23.72-9.188 35.896-.122.697.947 1 1.069.292 2.185-12.351 5.291-24.528 9.364-36.396 1.967-5.726 4.391-11.31 6.157-17.105.803-2.648 1.457-5.354 1.754-8.108.16-1.495.341-2.983-.994-3.946-1.749-1.255-4.732-1.5-6.774-2.026a167.922 167.922 0 00-9.661-2.19c-1.803-.351-4.445-1.314-6.285-.793-1.797.51-2.637 2.585-3.398 4.073-5.248 10.353-8.55 21.583-10.687 32.961-1.308 6.955-2.473 13.58-4.812 20.285-2.239 6.418-3.313 12.793-3.999 19.536-.09.717 1.021.712 1.09.005z"/><path d="M225.915 22.401c-1.132 3.536-2.573 7.11-3.424 10.72-.415 1.765.122 2.493 1.611 3.456 2.648 1.717 5.716 2.733 8.774 3.435 1.951.446 3.562 1.217 4.849-.564 1.701-2.355 2.308-5.902 3.089-8.646.383-1.334 1.744-4.381.606-5.69-.664-.765-2.547-.903-3.451-1.163-1.446-.415-2.897-.926-4.376-1.218-1.339-.266-2.754-.117-4.067-.505-1.239-.367-1.824-.867-3.121-.41-.67.24-.383 1.308.292 1.069.915-.324 4.658.67 5.849.83 1.776.228 4.44.712 6.046 1.568.856-.005 1.324.436 1.414 1.33.553.605.643 1.26.271 1.956-.112.92-.553 2.015-.813 2.903-.58 1.973-1.027 4.6-2.138 6.333-2.196 3.424-10.028-.463-12.665-2.185-1.473-.963-1.149-1.638-.793-3.18.229-.984.628-1.957.936-2.924.729-2.276 1.452-4.547 2.18-6.822.218-.681-.851-.973-1.069-.293zm-3.636 18.536c1.51.425 2.865 1.42 4.349 1.967 1.627.601 3.807.75 5.296 1.606 1.271.728 1.781.516 1.42 3.02-.128.899-.771 1.904-1.09 2.781a60.82 60.82 0 00-1.888 6.19c-.394 1.589-.351 1.748-1.951 1.802-1.101.037-2.372-.378-3.446-.606a52.76 52.76 0 01-2.978-.724c-1.919-.526-2.318-.324-2.961-2.403-.729-2.371.111-4.52.776-6.87.649-2.28 1.218-4.854 2.776-6.7.457-.542-.325-1.329-.787-.786-1.718 2.036-2.345 4.668-3.058 7.189-.648 2.286-2.212 5.89-1.345 8.289.702 1.94 3.594 2.175 5.285 2.605 1.649.42 3.318.76 4.998 1.016.761.117 1.883.521 2.611.122 1.345-.734 1.415-3.775 1.787-5.046.51-1.754 1.1-3.483 1.77-5.179.389-.989 1.245-2.291 1.245-3.445 0-1.893-2.303-2.154-3.765-2.595-1.473-.441-2.972-.803-4.413-1.335-1.505-.558-2.813-1.536-4.35-1.967-.675-.191-.973.877-.281 1.069zM216.86 61.96c1.611.607 3.228 1.213 4.881 1.686 1.622.468 3.824.585 5.27 1.495 2.488 1.563 1.106 4.817.425 7.05-.516 1.69-1.116 4.929-3.015 5.487-1.563.463-4.046-.574-5.572-1.058-2.143-.68-5.599-1.138-5.716-3.897-.058-1.404.75-3.382 1.053-4.77.42-1.909.813-6.184 3.509-5.944.713.063.707-1.048 0-1.112-2.228-.196-2.94 1.032-3.6 2.989-.93 2.76-2.015 6.332-2.19 9.23-.101 1.66.888 2.398 2.313 3.073 2.605 1.24 5.88 2.24 8.746 2.532 2.67.27 3.228-.458 4.281-2.85 1.154-2.617 2.063-5.498 2.329-8.36.196-2.083-1.037-2.982-2.904-3.71-3.068-1.197-6.412-1.745-9.523-2.909-.664-.25-.951.819-.287 1.069zm-7.986 28.618c.016-2.069.255-4.094.835-6.083.234-.808.542-2.435 1.148-3.041.878-.878 2.356-.766 3.515-.771 1.898-.01 3.834.313 5.647.866 1.558.474 3.1.75 3.366 2.808.122.925-.33 2.084-.628 2.935-.239.675.835.962 1.069.292.606-1.701 1.324-4.312-.261-5.716-1.845-1.637-5.386-2.041-7.731-2.227-2.169-.176-5.041-.506-6.136 1.696-1.409 2.84-1.903 6.099-1.93 9.24-.011.719 1.101.719 1.106 0zm-3.871-13.166c-20.716-.643-40.857-7.21-61.663-6.455-.234.011-.484.165-.537.41-2.504 11.634-.569 23.661.585 35.348.069.702 1.18.713 1.111 0-.771-7.8-1.829-15.648-1.808-23.502.006-1.877.069-3.759.25-5.63.117-1.223.128-2.744.527-3.909.473-1.393.457-1.393 2.026-1.67 3.668-.648 8.14.155 11.83.495 15.973 1.468 31.605 5.53 47.679 6.03.713.016.713-1.095 0-1.117z"/><path d="M146.264 82.293a411.76 411.76 0 002.803 7.912c.632 1.728 1.079 3.696 2.286 5.12.234.277.702.176.872-.11.962-1.644.883-4.015 1.276-5.866.521-2.467 1.202-4.886 1.989-7.279.223-.68-.846-.973-1.069-.292-.686 2.095-1.303 4.206-1.787 6.354-.452 1.983-.351 4.79-1.366 6.524l.872-.112c-1.367-1.616-1.973-4.535-2.675-6.487a446.7 446.7 0 01-2.126-6.056c-.234-.67-1.309-.383-1.075.292zm13.182 5.201a34.893 34.893 0 00-.388 6.673c.026.712 1.137.718 1.111 0-.085-2.138.021-4.26.345-6.376.107-.696-.962-1-1.068-.297zm.946-3.871c.043-.734.085-1.494.356-2.185a2.83 2.83 0 01.218-.436c.229-.176.224-.272-.016-.293-.159-.117-.212-.1-.159.043-.037.095.181 1.127-.181 1.074.112.085.223.17.33.255a.993.993 0 00-.383-.5c.175.202.165.415-.027.638-.648.293-.085 1.25.559.957 1.254-.569.67-3.105-.723-2.637-1.415.473-.522 3.2.909 2.159.781-.57 1.106-3.143-.314-3.047-.686.048-1.085.936-1.292 1.494-.292.787-.346 1.648-.399 2.483-.026.707 1.085.707 1.122-.005zm11.889-3.813c-.026 4.786-.026 9.571-.005 14.357.005.712 1.111.718 1.111 0-.026-4.786-.021-9.571.006-14.357.005-.718-1.106-.718-1.112 0z"/><path d="M172.584 87.75c-1.382-.814-3.95-1.309-5.45-.548-.606.308-1.196.946-1.701 1.393-.543.478-.915.962-1.064 1.685-.866 4.211 5.732 4.211 8.247 3.898.702-.085.707-1.197 0-1.112-1.675.208-8.061.532-7.141-2.685.224-.776 1.952-2.137 2.728-2.297 1.218-.244 2.776.01 3.823.622.612.362 1.17-.595.558-.957zm4.738 4.093c1.877-.675 6.71-2.536 6.035-5.29-.622-2.537-4.392-1.532-5.764-.41-1.643 1.346-2.946 5.184-1.265 6.976.829.883 2.435 1.043 3.567 1.064 1.755.032 3.414-.484 4.903-1.388.611-.372.053-1.33-.558-.957-1.622.989-3.451 1.436-5.344 1.138-1.266-.202-2.074-.862-2.085-2.186-.01-.989.133-2.03.67-2.881.495-.787 1.356-1.404 2.244-1.675.383-.117.84-.192 1.239-.16.293.08.59.16.883.234-.021.553-.048 1.1-.069 1.654-.633 1.414-3.419 2.334-4.749 2.807-.669.245-.377 1.319.293 1.074zm9.507-6.673c-1.021 1.941-1.919 5.663.202 7.242.803.596 2.127.941 3.089.622 1.191-.393 1.627-1.606 2.069-2.674.691-1.665 2.43-5.69.106-6.843-1.085-.537-3.137-.82-4.238-.208-.978.543-1.271 1.643-1.478 2.659-.143.696.925.994 1.069.292.186-.904.34-1.563 1.212-1.972.702-.325 1.813-.218 2.52.111 1.633.76.697 3.132.219 4.461-.234.644-.479 1.59-.894 2.138-1.18 1.563-2.749 1.031-3.589-.303-.819-1.298.064-3.829.665-4.972.34-.627-.617-1.19-.952-.553zm31.605-57.425a587.78 587.78 0 00-27.739-5.657c-4.648-.83-9.3-1.6-13.969-2.319-2.392-.366-6.045-2.073-7.481.5-3.855 6.913-3.919 15.883-4.86 23.545-1.154 9.337-2.791 18.61-5.779 27.548-.229.68.845.968 1.068.292 2.616-7.837 4.211-15.94 5.333-24.113 1.059-7.715 1.261-15.776 3.77-23.21.314-.93.617-2.265 1.207-3.062.208-1.069.92-1.43 2.132-1.08l1.08.16c2.148.18 4.328.649 6.46.989a586.94 586.94 0 0112.884 2.201 589.852 589.852 0 0125.596 5.27c.697.164.995-.904.298-1.064z"/><path d="M171.457 67.517c.67-6.747 2.313-12.915 4.509-19.306 2.031-5.924 4.275-11.757 7.901-16.909-.34-.043-.675-.09-1.015-.133.526 3.355.25 6.88.276 10.268.027 3.206.08 6.407.202 9.608.234 6.093.739 12.165 1.681 18.19.111.701 1.18.404 1.068-.293-1.042-6.63-1.515-13.32-1.712-20.03-.175-5.923.473-12.181-.446-18.04-.08-.522-.771-.48-1.016-.134-3.68 5.233-5.95 11.166-8.013 17.175-2.223 6.476-3.871 12.777-4.551 19.599-.064.712 1.047.707 1.116.005z"/><path d="M183.83 54.368a240.06 240.06 0 01-10.358-.064c-.712-.021-.712 1.09 0 1.111 3.451.096 6.902.117 10.358.064.713-.016.718-1.127 0-1.111zm13.33-5.11a237.27 237.27 0 00-3.732 20.227c-.096.696.973 1 1.068.292a237.28 237.28 0 013.733-20.226c.16-.691-.909-.99-1.069-.293zm1.819-8.077c-1.154-1.52 2.525-2.366 2.079-.069-.224 1.149-1.989 2.468-2.834 1.117-.351-.558-.399-1.446-.048-2.015.345-.564 1.111-.899 1.701-.495.606.41.601 1.377-.042 1.739-.372.207-.915.18-.792-.356-.011-.229.106-.346.345-.356.037.398-.058.451-.276.164-.261-.654-1.335-.372-1.069.293.441 1.116 2.068 1.409 2.706.255.734-1.324-.824-2.164-1.93-1.685-1.095.473-1.361 1.903-.335 2.631 1.165.83 2.659-.148 2.925-1.393.276-1.297-.777-2.584-2.101-2.584-1.355 0-2.387 1.213-2.456 2.51-.08 1.483.819 3.105 2.462 2.972 1.34-.111 2.541-1.19 2.834-2.499.361-1.627-.824-2.999-2.489-2.844-1.526.138-2.626 1.85-1.621 3.18.409.557 1.377.005.941-.565zm-36.21 16.973c-5.232-6.216-15.521-7.53-23.093-6.338-8.502 1.334-16.084 6.252-21.263 13.058-5.668 7.455-7.348 15.654-5.365 24.779.968 4.434 2.122 9.209 4.855 12.925 2.568 3.494 6.221 5.972 9.762 8.37.59.404 1.148-.559.558-.957-3.413-2.313-6.912-4.685-9.39-8.04-2.584-3.499-3.653-7.917-4.604-12.102-1.043-4.594-1.537-9.363-.266-13.968 1.09-3.95 3.211-7.7 5.758-10.9 4.637-5.833 11.118-10.172 18.435-11.756 7.63-1.66 18.456-.66 23.826 5.715.463.548 1.244-.244.787-.786z"/><path d="M143.973 71.856a.551.551 0 01-.553-.531c-.08-2.016.09-4.041.494-6.02.266-1.286.723-2.892 1.909-3.95.888-.792 2.164-1.218 3.504-1.191 1.09.026 2.255.356 3.456.973 1.388.712 2.265 1.563 2.675 2.6.335.85.356 1.872.064 3.047a9.148 9.148 0 01-2.941 4.721.555.555 0 01-.718-.845 8.094 8.094 0 002.579-4.147c.24-.942.229-1.74-.016-2.367-.303-.76-1.026-1.44-2.148-2.015-1.053-.537-2.052-.824-2.977-.85-1.043-.032-2.053.303-2.733.909-.947.845-1.33 2.233-1.564 3.35a24.074 24.074 0 00-.473 5.753.553.553 0 01-.532.574c-.01-.01-.021-.01-.026-.01zm-8.673 5.067c-2.759 0-5.354-1.175-6.869-3.137-1.835-2.377-1.883-5.795-.107-7.944.819-.994 1.925-1.653 2.999-2.212.856-.446 1.861-.925 2.983-.962 1.074-.042 2.393.441 2.946 1.585 1.505 2.68 1.845 5.2 2.164 8.47.09.898.101 1.935-.452 2.765-.569.85-1.648 1.345-3.116 1.425-.186.01-.367.01-.548.01zm-.882-13.149h-.075c-.888.032-1.76.447-2.509.84-.968.505-1.962 1.09-2.659 1.936-1.43 1.733-1.372 4.615.128 6.561 1.393 1.808 3.881 2.834 6.476 2.696.776-.043 1.792-.24 2.26-.936.361-.537.345-1.297.271-2.042-.314-3.238-.627-5.55-2.037-8.05a.269.269 0 01-.015-.037c-.325-.675-1.165-.968-1.84-.968zm-10.539 24.018c-.462 0-.925-.08-1.366-.266-.931-.394-1.696-1.266-2.095-2.393-.351-.994-.399-2.047-.415-2.956-.011-.723.011-1.553.5-2.218.633-.866 1.723-1.058 2.696-1.175.021 0 .021-.01.069-.005.383-.053 1.084-.112 1.765-.218.76-.122 1.484-.271 1.951-.234 1.558.016 3.691.032 5.243 1.25.739.574 1.462 1.61 1.266 2.78-.202 1.24-1.287 1.99-2.324 2.558a46.974 46.974 0 01-4.419 2.148c-.887.383-1.887.729-2.871.729zm-.585-7.896c-.76.09-1.531.223-1.893.723-.281.388-.297.973-.287 1.542.016.819.053 1.765.351 2.605.298.835.835 1.473 1.484 1.744 1.005.426 2.217.032 3.381-.462a46.734 46.734 0 004.318-2.095c.803-.442 1.638-1 1.765-1.766.112-.69-.388-1.36-.856-1.722-1.164-.91-2.759-1-4.573-1.016-.436-.01-1.09.106-1.765.218-.75.112-1.451.223-1.925.229zm4.509 19.088c-.877 0-1.903-.058-2.85-.484-1.802-.808-2.876-2.945-2.462-4.875.059-1.314.208-1.585.968-2.462.766-.888 1.813-1.41 2.834-1.84a29.685 29.685 0 015.583-1.744c.378-.08.745-.144 1.143-.101 1.165.128 1.941 1.133 2.191 2.074.261.957.096 1.946-.101 2.78-.755 3.26-2.467 5.557-4.7 6.307-.915.303-1.872.345-2.606.345zm4.94-10.41c-.202 0-.415.042-.649.09-1.84.382-3.647.946-5.37 1.68-.893.383-1.808.835-2.425 1.547-.627.729-.654.755-.696 1.835a.318.318 0 01-.016.1c-.325 1.426.494 3.069 1.824 3.67.755.34 1.632.388 2.392.388.691 0 1.494-.032 2.244-.287 2.643-.888 3.658-4.148 3.972-5.51.165-.706.303-1.525.112-2.243-.149-.558-.601-1.186-1.245-1.26-.047-.01-.095-.01-.143-.01zm6.136 16.206c-.718 0-1.462-.048-2.185-.245-1.298-.351-2.324-1.18-2.749-2.217-.575-1.388-.086-2.887.473-4.169a35.264 35.264 0 014.168-7.156c.224-.304.761-.968 1.564-.984.659.016 1.106.494 1.419.909a14.11 14.11 0 011.441 2.324.56.56 0 01-.25.744.562.562 0 01-.744-.25 12.881 12.881 0 00-1.329-2.143c-.091-.117-.357-.468-.575-.473h-.005c-.234 0-.537.404-.638.537a34.287 34.287 0 00-4.036 6.934c-.462 1.068-.882 2.297-.468 3.302.298.723 1.053 1.308 2.021 1.574.941.26 1.973.218 2.967.18l3.079-.117a.541.541 0 01.574.532.557.557 0 01-.532.574l-3.079.117c-.356.011-.733.027-1.116.027zm3.743-25.66c-.228-1.282-1.467-1.74-2.637-1.357-1.473.479-2.435 1.872-3.026 3.228-.632 1.457-1.244 3.302-.122 4.679 1.196 1.468 3.201 1.382 4.897 1.196.702-.074.713-1.185 0-1.111-2.435.266-5.152-.18-4.105-3.414.218-.664.49-1.329.867-1.92.245-.377.521-.706.856-1.004.404-.356 1.925-1.489 2.191 0 .133.697 1.201.399 1.079-.298zm12.979-58.58a196.84 196.84 0 00-3.578 25.22c-.048.616.989.765 1.09.148.303-1.877 2.026-6.933-.048-8.15-2.339-1.373-5.663-.06-7.476 1.488-1.962 1.67-3.02 3.87-1.276 6.136 1.914 2.494 5.243 2.042 7.811 1.01.654-.26.367-1.334-.293-1.069-1.983.798-4.758 1.457-6.322-.42-1.701-2.047.24-4.875 2.319-5.907 1.292-.638 4.269-1.106 5.046.49.297.606-.287 2.445-.367 3.073-.138 1.02-.293 2.041-.458 3.057.362.048.729.096 1.091.149a194.048 194.048 0 013.535-24.927c.144-.697-.925-.994-1.074-.298z"/><path d="M165.933 34.61c-5.323-.894-10.645-1.686-15.814-3.276-4.546-1.398-9.395-2.855-14.143-3.265-.229-.02-.489.187-.537.41-.808 3.956-.665 7.986-.894 12-.249 4.398-.749 8.774-1.249 13.145-.08.707 1.031.701 1.111 0 .521-4.547 1.042-9.098 1.282-13.67.106-2.08.111-4.159.218-6.233.037-.733-.123-3.397.398-3.94.899-.92 2.877-.116 3.882.117 4.099.958 8.098 2.165 12.16 3.255 4.355 1.17 8.853 1.78 13.293 2.525.697.117.995-.951.293-1.069z"/><path d="M140.325 36.003a81.702 81.702 0 00-1.781 16.121h1.111c-.122-3.711.325-7.359 1.069-10.996.298-1.446.393-3.397 1.069-4.716.547-1.08.17-1.032 1.616-.883.755.075 1.51.154 2.265.229 6.615.68 13.001 2.696 19.418 4.365.692.181.989-.888.293-1.068-7.402-1.925-15.149-4.695-22.885-4.727-2.43-.011-2.217 3.573-2.621 5.455-.883 4.078-1.468 8.162-1.33 12.341.022.713 1.101.718 1.112 0a80.408 80.408 0 011.744-15.829c.138-.697-.931-.994-1.08-.292zm-11.932-9.05c-3.53 7.104-8.496-.149-13.479.463-3.131.388-2.77 4.301-1.712 6.518.543 1.138 1.128 1.234 2.377 1.25 2.637.032 4.701-1.133 7.434-.691 3.913.632 5.184-4.068 6.492-7.05.282-.65-.67-1.213-.957-.56-.718 1.644-1.447 3.717-2.6 5.11-1.744 2.096-3.233.968-5.334 1.117-1.196.085-2.328.51-3.493.74-1.85.355-2.765-.31-3.297-2.043-.6-1.946.761-3.472 3.111-2.982 2.823.584 4.988 2.892 8.077 2.435 2.121-.314 3.445-1.93 4.349-3.749.303-.638-.654-1.201-.968-.558z"/><path d="M112.617 30.302c3.414 8.88 6.179 17.967 9.034 27.033.213.68 1.287.388 1.069-.293-2.855-9.07-5.62-18.158-9.034-27.032-.25-.66-1.324-.372-1.069.292z"/><path d="M119.466 48.556c-3.977-.18-9.066 3.579-8.3 7.992.335 1.935 2.111 3.254 3.956 3.578 2.579.458 5.009-.813 7.167-2.052.617-.356.059-1.314-.558-.957-1.388.797-2.797 1.584-4.397 1.855-2.154.367-5.121-.505-5.121-3.18.006-3.493 4.052-6.273 7.253-6.13.718.037.712-1.074 0-1.106zM97.442 38.72c12.485.819 24.863 2.648 37.061 5.413.696.16.994-.91.292-1.07a239.277 239.277 0 00-37.353-5.455c-.712-.047-.712 1.064 0 1.112z"/><path d="M145.711 30.143c-.84-3.53-1.403-7.519-2.77-10.884-.835-2.058-3.084-2.069-5.051-2.569-3.499-.882-7.008-1.956-10.587-2.462-3.126-.44-6.311-.356-9.464-.372-3.536-.016-7.513-.414-11.007.202-1.994.351-2.095 2.069-2.382 3.903-1.063 6.726.963 13.48.686 20.227-.026.712 1.08.712 1.111 0 .213-5.286-.935-10.47-.989-15.74-.015-1.557.059-3.136.341-4.668.09-.478.143-1.504.446-1.893.559-.717 2.165-.728 2.994-.813 3.068-.314 6.28-.117 9.358-.101 5.822.037 11.065.734 16.712 2.159l3.983 1.005c1.946.494 2.791 1.377 3.302 3.312a402.085 402.085 0 012.249 8.986c.165.697 1.233.404 1.068-.292zm-26.548 86.101l.781 25.591.516 12.783c.176 4.259.372 8.518.596 12.777.218 4.259.51 8.512.712 12.772l.766 12.771c.473 8.518 1.053 17.031 1.733 25.533l-.585-.414 12.102-2.792c4.036-.92 8.061-1.898 12.081-2.892 4.02-.995 8.05-1.947 12.059-2.983l12.038-3.068c4.004-1.043 7.992-2.111 11.921-3.35 3.935-1.197 7.795-2.648 11.719-4.015a98.277 98.277 0 0112.044-3.44c4.073-.904 8.146-1.643 12.208-2.435 4.067-.776 8.124-1.595 12.203-2.329l12.213-2.254 6.078-1.128c.941-.196 1.749-.489 2.222-.967.479-.468.75-1.25.872-2.17.123-.909.139-1.967.213-2.999l.17-3.094c.107-2.058.181-4.116.245-6.179.228-8.252.127-16.51-.239-24.767-.181-4.126-.484-8.252-.809-12.373a320.517 320.517 0 00-1.244-12.352l.218-.032a310.433 310.433 0 011.872 12.293c.563 4.111.946 8.242 1.292 12.379.324 4.137.622 8.279.739 12.431.138 4.153.191 8.306.165 12.458a310.288 310.288 0 01-.117 6.237l-.107 3.111c-.047 1.031-.053 2.047-.196 3.196-.149 1.111-.49 2.435-1.494 3.45-1.011 1.005-2.276 1.356-3.34 1.596l-6.13 1.169-12.203 2.313c-4.063.787-8.146 1.494-12.219 2.239-4.073.744-8.157 1.441-12.176 2.281-4.036.824-7.96 1.919-11.879 3.206-3.919 1.271-7.848 2.653-11.862 3.786-4.01 1.122-8.056 2.074-12.097 2.983l-12.118 2.728c-4.041.893-8.066 1.876-12.102 2.807-4.035.936-8.06 1.888-12.075 2.898l-12.054 2.993-.521.128-.064-.548a954.06 954.06 0 01-2.595-25.495 1028.62 1028.62 0 01-.909-12.783 360.572 360.572 0 01-.361-6.396l-.277-6.402c-.165-4.27-.308-8.54-.431-12.809-.127-4.27-.148-8.545-.18-12.815-.006-4.269-.032-8.544.042-12.814.085-4.275.16-8.539.33-12.809l.234-.005z"/><path d="M38.975 117.312s.08.607.223 1.75c.144 1.138.314 2.813.505 4.961.186 2.143.357 4.743.463 7.736.117 2.988.16 6.365.138 10.044-.042 3.68-.127 7.668-.356 11.873-.218 4.206-.633 8.63-.978 13.208-.181 2.287-.378 4.616-.51 6.971-.08 1.181-.134 2.366-.187 3.557-.048 1.181-.186 2.42.494 3.249.676.835 1.861 1.228 2.957 1.733 1.111.484 2.228.968 3.35 1.452 2.254.931 4.514 1.866 6.774 2.802 18.153 7.306 36.305 14.612 49.917 20.088 3.408 1.388 6.546 2.755 9.167 4.291 2.616 1.542 4.722 3.084 6.508 4.228 1.781 1.164 3.265 1.914 4.312 2.355.527.218.931.378 1.213.463.276.095.425.143.425.143l-.053.218-.441-.096c-.293-.058-.724-.17-1.282-.329-1.111-.335-2.706-.973-4.615-1.989-1.93-.989-4.11-2.424-6.737-3.727-2.637-1.292-5.743-2.483-9.193-3.712-3.451-1.249-7.2-2.61-11.124-4.136a395.923 395.923 0 01-12.293-4.94 836.7 836.7 0 01-13.011-5.61c-2.196-.994-4.413-1.999-6.636-3.004-2.207-1.042-4.424-2.095-6.636-3.142-2.212-1.058-4.424-2.111-6.625-3.164-1.106-.521-2.207-1.037-3.302-1.552-1.058-.532-2.313-.899-3.196-1.973-.425-.542-.611-1.228-.659-1.856-.053-.638-.016-1.239 0-1.834.043-1.197.074-2.382.09-3.563.064-2.361.075-4.7.112-6.992.08-4.594.101-9.034.229-13.234.149-4.195.287-8.167.414-11.831.266-7.322.335-13.426.357-17.706.016-2.138 0-3.823-.016-4.972v-1.765l.202.005z"/><path d="M39.288 154.617c-15.387-4.705-25.952-17.514-38.464-26.846-.415-.308-.914.202-.813.628 2.158 9.182 4.891 18.046 12.086 24.559 7.55 6.838 15.962 13.012 25.245 17.265.644.298 1.207-.659.559-.957-8.97-4.11-16.978-9.996-24.353-16.499-7.45-6.567-10.257-15.271-12.463-24.666-.271.207-.543.42-.814.627 12.613 9.406 23.21 22.21 38.73 26.958.681.208.973-.861.288-1.069zm-27.867 2.441c-2.414-2.94-6.04-4.296-8.938-6.652-.547-.446-1.34.335-.787.787 2.893 2.345 6.535 3.728 8.938 6.652.458.548 1.24-.239.787-.787zm-4.61.101a44.868 44.868 0 00-4.19-.749c-.707-.091-.696 1.015 0 1.111 1.308.17 2.611.415 3.898.707.696.165.989-.904.292-1.069zm7.902-24.523c-.894-2.818-1.782-5.631-2.675-8.449-.213-.68-1.287-.388-1.069.293.894 2.818 1.782 5.631 2.675 8.449.213.68 1.287.393 1.069-.293zm3.823.436a14.542 14.542 0 01-.771-5.822c.047-.712-1.058-.707-1.112 0a15.44 15.44 0 00.809 6.12c.233.67 1.308.383 1.074-.298zm185.584 16.409c-.584 4.536-.43 9.108.585 13.569.808 3.542 2.074 8.364 4.77 11.023 6.136 6.072 11.129-5.897 11.868-10.353.728-4.365.845-9.087.377-13.479-.377-3.546-1.34-7.422-4.254-9.757-2.674-2.148-6.167-2.227-8.879-.09-3.068 2.419-3.924 6.386-4.61 10.023-.133.696.936 1 1.069.292.59-3.121 1.223-6.566 3.589-8.885 3.786-3.711 8.736-1.313 10.634 2.973 2.472 5.583 1.999 13.601.845 19.508-.574 2.941-1.643 6.168-3.796 8.354-1.983 2.009-4.557 2.297-6.498.069-1.074-1.234-1.728-2.957-2.329-4.451-2.392-5.976-3.089-12.426-2.265-18.796.096-.702-1.015-.696-1.106 0z"/><path d="M206.939 167.251c.106-4.221-.123-8.592 1.467-12.506.532-1.302 1.446-2.663 2.839-2.855.973-.133 1.947.367 2.606 1.095.654.729 1.042 1.659 1.356 2.585 1.728 5.12 1.605 10.836-.341 15.877-.212.547-.452 1.095-.85 1.526-.734.792-1.994 1.031-2.967.574-.803-.378-1.356-1.143-1.782-1.92-1.355-2.467-1.818-5.359-1.648-8.172.165-2.813.931-5.557 1.898-8.199.309-.851.777-1.808 1.659-1.983 1.021-.208 1.883.76 2.377 1.68 1.202 2.254 1.659 4.854 1.627 7.407-.032 2.552-.532 5.083-1.154 7.561-.244.978-.718 2.142-1.722 2.254-.623.069-1.202-.335-1.643-.782-1.925-1.967-2.287-4.966-2.25-7.715a38.4 38.4 0 01.458-5.46c.149-.968.34-1.941.781-2.813.298-.59.824-1.186 1.484-1.154.702.032 1.17.739 1.425 1.398 1.031 2.616.718 5.53.574 8.338a62.481 62.481 0 00-.037 5.742c.026.734-.048 1.659-.734 1.925-.59.229-1.228-.229-1.611-.739-.978-1.313-1.159-3.036-1.308-4.669-.25-2.77-.495-5.588.09-8.305.059-.276.186-.606.463-.649.186-.026.356.091.494.208 1.122.957 1.495 2.52 1.686 3.982.207 1.537.282 3.09.234 4.637-.043 1.313-.176 2.637-.628 3.871-.122.329-.324.696-.669.728-.527.053-.756-.638-.793-1.164a81.502 81.502 0 01.032-12.224c.016-.208.048-.447.223-.564.24-.165.564.011.766.218.527.542.771 1.303.941 2.042.676 2.967.452 6.13-.638 8.97-.053.138-.133.298-.276.329-.229.048-.367-.239-.42-.462a28.445 28.445 0 01-.702-8.024c.042-.771.133-1.584.611-2.19.085-.107.181-.202.309-.24.335-.095.606.282.733.606.825 2.143.389 4.589-.515 6.7"/><path d="M207.492 167.251c.047-2.281.005-4.578.218-6.854.127-1.387.335-2.796.755-4.131.175-.564.356-1.43.712-1.893.122-.207.245-.42.362-.627 1.425.032 2.844.069 4.269.101 1.505 1.228 1.835 5.577 1.973 7.311a23.16 23.16 0 01-.723 7.88c-.122.457-.255.92-.41 1.366-.207.521-.414 1.048-.622 1.569l-3.94-.048c-.803-.564-1.255-2.605-1.473-3.488-.664-2.675-.558-5.392-.021-8.077.213-1.074.511-2.132.84-3.174.112-.356.399-1.611.612-1.776.505-.027 1.005-.059 1.51-.085 1.1-.537 1.717-.293 1.866.723 1.436 2.175 1.324 5.737 1.09 8.231-.133 1.382-.393 2.749-.696 4.099-.314 1.404-.155 1.904-1.638 2.313-1.585.436-1.686-.154-2.318-1.542a8.756 8.756 0 01-.527-1.462c-.351-1.292-.377-2.669-.372-4.004.005-1.191-.138-6.651.856-7.226l1.25.112c.893-.319 1.345-.133 1.356.564.489.6.276 1.839.303 2.616.037 1.1-.038 2.201-.096 3.302a86.056 86.056 0 00-.128 3.328c-.005.479.357 2.935.038 3.35-.288.037-.58.074-.867.106-.973.41-1.42-.021-1.351-1.286-.154-.612-.207-1.271-.282-1.899a45.162 45.162 0 01-.292-4.062c-.016-.606-.032-4.488.324-4.509 1.074-.058 1.479 2.94 1.564 3.563a24.95 24.95 0 01.234 3.073c.01.627.015 1.26-.032 1.888-.054.696.106 2.376-.66 2.105-1.079-.377-.5-6.668-.457-7.827.021-.643-.085-1.419.096-2.036.276-.952.143-1.074.718-.335.786 1.005.616 3.339.563 4.583-.005.128-.526 3.935-.75 3.754-.813-.643-.526-3.392-.563-4.493-.016-.484-.08-1.037-.016-1.515-.197-.628-.048-1.106.447-1.441.43-.67.59-.559.489.34.489 1.462-.319 3.456-.851 4.817-.261.665.813.952 1.069.293.787-2.01 1.595-4.908.515-6.992-.409-.798-.983-1.276-1.813-.729-1.558 1.021-.999 4.839-.904 6.232.096 1.414-.101 4.743 1.367 5.434.207.096.505.112.67-.085 1.563-1.85 2.908-12.82-1.181-12.506-.271.021-.441.165-.537.41-.675 1.728-.452 3.966-.478 5.806-.037 2.276-.277 4.977.213 7.205.34 1.536 1.579 2.286 2.488.643 1.521-2.765 1.037-8.247-.048-11.118-.425-1.117-1.813-3.382-3.047-1.84-.861 1.074-.574 4.084-.537 5.285.059 2.047.112 4.254.612 6.253.345 1.383 2.01 4.749 3.855 2.935.648-.638.532-1.706.526-2.531-.01-2.392.053-4.753.16-7.146.09-2.052.505-7.433-2.202-8.273-5.083-1.579-3.807 14.111-2.387 16.552.925 1.595 2.861 3.334 4.504 1.574.951-1.021 1.127-2.956 1.382-4.222.42-2.074.713-4.206.628-6.327-.102-2.446-.702-7.678-3.595-8.588-2.701-.85-3.53 3.265-4.025 4.972-1.111 3.828-1.558 7.997-.282 11.841.681 2.053 2.01 4.972 4.642 4.674 3.552-.399 4.121-6.163 4.397-8.869.383-3.786.213-9.72-2.515-12.735-1.776-1.967-4.285-1.653-5.742.479-2.627 3.866-2.116 9.656-2.201 14.064-.016.718 1.095.718 1.106.005zm-35.53-6.232c.803 6.195.186 12.506-2.089 18.345-1.393 3.573-4.015 8.853-8.428 5.317-2.579-2.063-3.759-5.706-4.365-8.837-1.112-5.711-1.5-13.187.494-18.711 1.542-4.27 6.232-7.678 10.39-4.254 2.813 2.318 3.536 5.96 4.179 9.369.133.702 1.202.404 1.069-.293-.686-3.647-1.553-7.587-4.61-10.023-2.701-2.148-6.211-2.052-8.88.091-2.914 2.339-3.876 6.216-4.254 9.757-.462 4.386-.345 9.119.378 13.479.734 4.397 5.769 16.494 11.868 10.352 2.674-2.696 3.961-7.454 4.769-11.022 1.011-4.467 1.17-9.034.585-13.57-.085-.696-1.196-.707-1.106 0z"/><path d="M170.255 178.789c-.106-4.221.123-8.592-1.467-12.505-.532-1.303-1.446-2.664-2.839-2.856-.974-.133-1.947.367-2.606 1.096-.659.728-1.042 1.658-1.356 2.584-1.728 5.12-1.606 10.836.341 15.877.212.547.451 1.095.85 1.526.734.792 1.994 1.031 2.967.574.803-.378 1.356-1.143 1.782-1.92 1.355-2.467 1.818-5.359 1.648-8.172-.165-2.813-.931-5.556-1.898-8.199-.309-.851-.777-1.808-1.659-1.983-1.021-.208-1.883.76-2.377 1.68-1.202 2.254-1.659 4.854-1.627 7.407.032 2.552.532 5.083 1.154 7.561.244.978.717 2.142 1.722 2.254.623.069 1.202-.335 1.643-.781 1.925-1.968 2.287-4.967 2.25-7.716a38.4 38.4 0 00-.458-5.46c-.149-.968-.34-1.941-.781-2.813-.298-.59-.824-1.186-1.484-1.154-.702.032-1.17.739-1.425 1.398-1.031 2.616-.718 5.53-.574 8.338.101 1.914.112 3.828.037 5.742-.026.734.048 1.659.734 1.925.59.229 1.228-.229 1.611-.739.978-1.313 1.159-3.036 1.308-4.669.25-2.77.495-5.588-.09-8.305-.059-.276-.186-.606-.463-.649-.186-.026-.356.091-.494.208-1.122.957-1.495 2.52-1.686 3.982a28.206 28.206 0 00-.234 4.637c.043 1.313.176 2.637.627 3.871.123.329.325.696.67.728.527.053.755-.638.793-1.164a81.635 81.635 0 00-.032-12.224c-.016-.208-.048-.447-.224-.564-.239-.165-.563.011-.765.218-.527.542-.771 1.303-.941 2.042a15.557 15.557 0 00.638 8.97c.053.138.133.298.276.329.229.048.367-.239.42-.462.612-2.621.851-5.333.702-8.024-.042-.771-.133-1.584-.611-2.19-.085-.107-.181-.202-.309-.24-.335-.095-.606.282-.733.607-.825 2.142-.389 4.588.515 6.699"/><path d="M170.808 178.789c-.058-3.014.319-18.748-6.561-15.616-2.887 1.319-3.536 5.854-3.86 8.576-.452 3.839-.112 8.407 1.637 11.922.989 1.988 3.154 2.94 5.068 1.462 2.6-2.01 3.153-6.668 3.052-9.662-.096-3.009-.66-7.938-2.691-10.304-1.882-2.201-3.903.106-4.737 1.978-1.627 3.653-1.441 7.816-.713 11.66.33 1.75.798 6.152 3.637 5.376 2.584-.707 3.435-4.69 3.626-6.87.25-2.919.484-8.832-1.616-11.214-1.537-1.744-3.095-.345-3.701 1.388-1.393 3.961-.324 8.72-.377 12.83-.022 1.489.106 4.345 2.414 3.239 2.674-1.282 2.451-6.541 2.547-8.896.042-1.069.563-7.721-2.18-6.056-2.85 1.733-2.356 8.406-1.984 11.022.17 1.202 1.463 4.903 2.861 2.297.861-1.6.388-4.674.393-6.434.011-2.265.346-5.205-.483-7.332-.096-.245-.272-.388-.537-.409-4.105-.314-2.728 10.682-1.181 12.506.17.196.463.186.67.085 1.388-.649 1.218-3.589 1.329-4.929.128-1.463.782-5.679-.866-6.737-.825-.532-1.319-.08-1.787.664-1.212 1.931-.244 5.19.489 7.062.255.659 1.33.372 1.069-.293-.42-1.074-.755-2.111-.856-3.265-.016-.18-.133-2.291.09-2.323 1.053-.144.787 1.404.856 1.866.187 1.244-.063 2.733-.212 3.956.005-.037-.16 1.877-.293 1.925-.393.144-.143.027-.388-.617-.447-1.164-.468-2.68-.441-3.919.005-.175.133-4.126.797-4.322.681-.197.638 6.545.633 7.103-.011.745.324 3.084-.133 3.568-1.201 1.271-1.042-2.222-1.053-2.882-.032-2.068-.281-5.684 1.383-7.151 1.196-1.058.67 1.1.723 2.015.032.521.037 1.042.032 1.558-.011 1.217-.117 2.44-.223 3.653-.091 1.052.031 3.621-.851 4.221-.287-.037-.58-.074-.867-.106-.744.197-1.031.005-.851-.585-.25-.563.038-1.728.032-2.392-.016-2.058-.212-4.111-.234-6.168-.01-.713-.239-3.504.41-4.009l1.249-.112c1.053-.511 1.553-.229 1.5.835.351.659.313 1.914.388 2.632.239 2.228.404 4.62.016 6.843-.197 1.111-.511 2.871-1.441 3.541l-.447.59-2.26-.622c-.255-.234-.329-1.217-.404-1.531-.579-2.43-.989-4.935-.893-7.439.053-1.382.25-2.775.686-4.094.17-.521.447-1.723.851-2.074 2.552-2.18 3.084.287 3.482 1.505 1.436 4.333 2.718 10.884-.335 14.899-3.03 3.993-4.657-.787-5.147-2.6a23.446 23.446 0 01-.749-4.547c-.192-2.791.138-5.657.999-8.316.213-.654.33-1.52.819-2.01.527-.531 4.105-.728 4.631-.106.846.994 1.117 2.818 1.346 4.084.542 2.999.462 6.072.521 9.108.021.686 1.132.686 1.116-.027zm9.933 3.877c-.154 6.465 5.338 11.915 11.937 10.788 7.582-1.297 7.338-9.725 4.737-15.388-.297-.648-1.254-.085-.957.559 1.096 2.387 1.649 4.945 1.452 7.577-.271 3.722-2.451 5.976-6.264 6.268-5.657.437-9.932-4.349-9.799-9.804.016-.718-1.09-.718-1.106 0zm34.328-46.467c1.956.053 3.62.314 5.115 1.664 1.052.952 1.893 2.132 2.791 3.222l.787-.787c-2.712-2.531-5.301-5.864-9.427-5.487-.697.064-.729 1.117 0 1.111 1.627-.01 3.568-.053 4.993.851 1.366.867 2.515 2.361 3.461 3.637.42.569 1.382.016.957-.558-1.079-1.462-2.313-3.042-3.86-4.036-1.579-1.021-3.733-1.021-5.551-1.005v1.111c3.817-.356 6.152 2.834 8.645 5.158.532.495 1.234-.239.787-.787-1.143-1.388-2.212-2.935-3.711-3.966-1.505-1.037-3.196-1.202-4.982-1.25-.723-.005-.718 1.101-.005 1.122zm-60.765 13.835c-.558 1.287-1.877 2.154-2.696 3.286-.813 1.122-1.366 2.361-1.723 3.701-.138.527.537.952.926.543 1.185-1.25 1.712-2.813 2.546-4.281 1.037-1.818 2.856-2.185 4.265-3.578.473-.463-.122-1.133-.67-.872-1.632.776-2.701 2.01-3.866 3.36-1.132 1.314-2.392 2.579-2.68 4.355-.111.696.958 1 1.069.292.282-1.749 1.659-3.009 2.77-4.301.947-1.101 1.936-2.122 3.265-2.754-.223-.293-.446-.58-.67-.873-1.249 1.229-2.908 1.574-3.961 3.047-1.101 1.537-1.531 3.419-2.85 4.812l.925.543c.41-1.553 1.122-2.941 2.191-4.148.755-.856 1.653-1.499 2.116-2.573.282-.644-.675-1.213-.957-.559zM11.778 138.076s-.57-.128-1.394-.378c-.409-.132-.893-.276-1.403-.452-.255-.09-.516-.186-.782-.281l-.197-.075c-.026-.016-.047-.005.032-.005.085.011.186-.138.17-.192-.042-.111.075.07.17.165.373.436.745.872 1.08 1.292.175.213.324.41.484.622.074.107.186.304.111.511-.09.218-.276.266-.414.282-.314.005-.463-.16-.606-.202-.139-.059-.282-.048-.346.021-.059.069-.059.181-.021.229.037.053.08.058.08.058s-.043.011-.102-.037c-.053-.048-.117-.165-.042-.314.085-.143.292-.197.49-.159.19.032.387.122.515.095.149-.063.149-.063.021-.228-.17-.176-.345-.362-.532-.553-.372-.388-.75-.824-1.127-1.25l-.138-.165c-.048-.058-.154-.164-.16-.372-.02-.127.139-.34.298-.34.154-.011.197.032.24.042l.196.08c.26.112.516.218.766.325.494.212.946.441 1.335.616.776.373 1.276.665 1.276.665zm5.12 9.731c-1.35-.495-2.61-1.218-3.765-2.074l.431-.25c.048.351.255.691.473 1.063.218.362.468.777.516 1.282l.037.415-.372-.16c-.468-.202-.946-.399-1.446-.532a4.095 4.095 0 00-.346-.085c-.037 0-.032-.01-.058.021a.392.392 0 00-.037.16c-.032.245 0 .505.08.76a1.513 1.513 0 01-.256-.765.686.686 0 01.01-.229c.017-.096.144-.197.24-.197.191-.016.287.027.43.038.527.085 1.059.196 1.564.388l-.335.255c-.059-.356-.271-.697-.495-1.058-.223-.356-.484-.766-.542-1.276l-.08-.66.516.41c1.106.872 2.255 1.68 3.435 2.494zm8.194 2.477c-1.191-.548-2.34-1.164-3.488-1.786l.319-.357c.909 1.112 1.802 2.276 2.435 3.611l.09.196-.165.117c-.281.202-.6.155-.818.091-.234-.069-.415-.165-.612-.245l-1.175-.494.165-.224c.308.474.627.936.92 1.425-.399-.404-.766-.829-1.149-1.249l-.345-.378.51.16 1.218.377c.399.128.845.287.989.139l-.075.313c-.659-1.244-1.526-2.377-2.371-3.541l-.76-1.053 1.074.691c1.095.708 2.185 1.425 3.238 2.207zm3.275 9.05a14.64 14.64 0 01-3.844-1.17 15.843 15.843 0 01-.904-.446c-.16-.096-.112.021-.037-.117l.005-.038-.01-.069v.006l.005.016.02.058.006.016v.011c-.01-.032.032.074-.026-.07l.016.027.032.053c.042.075.069.112.117.176.345.473.994.856 1.276 1.611l.17.457-.458-.143-1.627-.522c-.133-.037-.287-.101-.361-.106-.064-.011-.149.075-.165.197-.037.223.144.516.425.569-.292.016-.59-.245-.595-.585-.005-.149.069-.383.303-.425.213-.022.324.037.468.058l1.67.351-.288.314c-.218-.521-.803-.867-1.26-1.441-.053-.064-.122-.17-.165-.234l-.032-.053-.016-.027-.031-.085-.006-.016-.021-.059-.005-.015v-.006c-.016-.133-.006-.053-.011-.085 0-.032.005-.064.016-.096.09-.249.282-.319.468-.324.17.005.276.075.356.117l.867.468a39.942 39.942 0 003.642 1.627zm5.806-3.993a33.414 33.414 0 01-2.2-.208L30.876 155l-.548-.074c-.175-.037-.319-.011-.303.005l-.005-.367c.537.5 1.217.862 1.877 1.303.654.425 1.35.957 1.707 1.734l.138.297-.303.011-1.42.053.096-.229c.287.415.654.777 1.047 1.117-.468-.229-.882-.558-1.26-.936l-.191-.191.281-.037 1.404-.197-.17.308c-.367-.627-.978-1.063-1.627-1.473-.649-.404-1.35-.797-1.946-1.382l-.192-.186.186-.181a.609.609 0 01.426-.159c.122 0 .24.021.324.037l.543.111 1.074.245c.733.138 1.446.33 2.158.532zm.915 8.858s-.245.053-.596.101c-.175.027-.372.053-.59.085-.106.016-.218.027-.33.043-.116.011-.228.026-.244.042-.021.011.037-.016.043-.095 0-.075-.038-.085-.006-.053.08.079.154.154.229.233.154.16.282.33.399.468.223.282.34.506.34.506s-.24-.091-.548-.272c-.149-.101-.335-.202-.515-.335-.096-.074-.17-.117-.288-.223-.047-.048-.164-.165-.16-.362a.438.438 0 01.256-.361c.202-.09.34-.069.447-.08.122-.01.239 0 .356.005.229.011.441.059.622.096.362.08.585.202.585.202zm63.747 3.924c-1.031 0-2.004-.377-2.95-.744-.325-.122-.65-.25-.974-.362-.93-.313-1.92-.51-2.876-.696a427.674 427.674 0 01-16.191-3.515c-.106-.026-.282-.064-.404-.218a.458.458 0 01-.07-.489c.123-.282.5-.463.798-.484l5.514-.473a1.102 1.102 0 00-.234-.096l-5.817-1.696a.276.276 0 01-.197-.303.275.275 0 01.272-.239l5.003-.101c-.766-.724-1.813-1.096-2.908-1.495-.867-.308-1.76-.632-2.531-1.143a.272.272 0 01-.117-.303.282.282 0 01.25-.207 59.773 59.773 0 012.972-.101c-1.154-.447-2.318-1.069-3.121-2.095-.33-.415-.293-.723-.202-.909.186-.394.69-.41.856-.415.33-.011.66-.011.994 0a.272.272 0 01.303-.096c.165.048.335.101.5.149.24.021.478.048.712.08a.28.28 0 01.224.181c1.42.382 2.866.707 4.275 1.026 2.584.585 5.253 1.191 7.784 2.121 1.058.388 2.106.84 3.121 1.271 1.994.851 4.052 1.734 6.189 2.159a.282.282 0 01.224.287.276.276 0 01-.25.261 27.77 27.77 0 01-4.2.063l3.131 1.771a.28.28 0 01.128.324c-.038.128-.16.218-.287.197l-3.25-.234c1.165.702 2.33 1.452 3.382 2.345.09.074.123.202.08.308-.042.112-.16.197-.27.176l-5.015-.17c-.048 0-.101-.006-.165 0 1.978.824 4.116 1.792 5.743 3.381.08.075.106.192.064.293a.278.278 0 01-.245.181c-.075.005-.16.01-.245.01zm-22.88-5.865c.006 0 .017.006.022.006a428.23 428.23 0 0016.105 3.493c1.037.202 2.048.404 3.01.729.33.111.665.239.994.366.76.298 1.495.58 2.239.676-1.648-1.372-3.738-2.239-5.604-3.01a.294.294 0 01-.16-.17.269.269 0 01.027-.229c.27-.451.861-.43 1.122-.42l4.184.139c-1.159-.888-2.43-1.643-3.669-2.372a.267.267 0 01-.122-.319c.037-.122.165-.213.282-.191l3.185.228-3.17-1.792a.274.274 0 01-.127-.329c.043-.122.17-.208.293-.192a26.9 26.9 0 003.578.155c-1.563-.474-3.068-1.117-4.54-1.75-1.011-.43-2.053-.877-3.095-1.26-2.5-.914-5.153-1.521-7.716-2.1-1.706-.388-3.472-.787-5.19-1.282a13.777 13.777 0 00-1.674-.042c-.298.01-.356.074-.372.101-.022.042.005.154.138.33 1 1.276 2.6 1.866 4.44 2.456a.28.28 0 01.191.308.28.28 0 01-.276.234h-.005c-1.207-.016-2.425 0-3.638.054.511.239 1.048.43 1.58.622 1.318.473 2.68.962 3.552 2.111a.269.269 0 01.026.287.27.27 0 01-.244.154l-3.791.074 4.078 1.191c.165.048.563.192.728.5.075.144.09.298.048.452a.28.28 0 01-.24.197l-5.923.51a.667.667 0 00-.265.085z"/><path d="M95.597 193.561c-.218 0-.41-.112-.516-.17-5.769-3.308-12.325-5.121-18.663-6.87-4.153-1.149-8.449-2.334-12.511-3.935-.308-.122-.686-.271-.984-.558-.861-.835-.5-2.212-.154-3.175a268.226 268.226 0 007.63-24.969.298.298 0 01.298-.207c2.159.223 4.296.675 6.36 1.34a.276.276 0 01.18.351.28.28 0 01-.35.18 31.01 31.01 0 00-6.01-1.292 270.285 270.285 0 01-7.587 24.789c-.292.819-.611 1.978.016 2.589.202.192.468.309.803.442 4.036 1.589 8.316 2.77 12.453 3.913 6.375 1.76 12.963 3.584 18.79 6.923.165.096.23.101.256.096.026-.011.069-.08.117-.213a360.965 360.965 0 009.821-28.452c.042-.144.079-.277.047-.356-.042-.101-.202-.176-.366-.24a104.407 104.407 0 00-6.594-2.344.281.281 0 01-.18-.351.276.276 0 01.35-.181c2.239.712 4.472 1.505 6.626 2.355.191.075.547.213.68.553.107.271.021.543-.032.723a359.436 359.436 0 01-9.831 28.5c-.059.144-.165.415-.43.521a.64.64 0 01-.219.038zM106.96 87.802c.383.229.702.277 1.133.324.85.096 1.451.256 2.222.644 1.021.516 1.973 1.111 3.073 1.451.681.213.973-.856.293-1.068-1.127-.357-2.09-1.016-3.148-1.51a6.77 6.77 0 00-1.18-.452c-.532-.144-1.383-.075-1.829-.346-.617-.367-1.175.59-.564.957zm10.799 25.501c3.159.123 5.668-1.441 8.151-3.216.575-.41.022-1.372-.558-.958-2.318 1.654-4.626 3.18-7.593 3.063-.718-.026-.712 1.085 0 1.111zm-7.566-6.582c-.527-.649 2.467-2.925 2.898-3.217 1.244-.835 2.6-1.276 4.104-1.181.713.043.713-1.063 0-1.111-2.312-.143-4.296.883-5.997 2.377-1.048.925-2.994 2.43-1.792 3.913.452.559 1.233-.228.787-.781zm-2.765-32.111c1.861-1.515 3.86-1.648 6.093-.866.676.24.968-.835.293-1.069-2.638-.925-4.998-.622-7.173 1.149-.548.452.239 1.233.787.787zm33.009 4.313l.574 2.594c.356-.095.713-.196 1.069-.292a16.092 16.092 0 00-1.223-2.68c-.213-.372-.739-.35-.957 0-.899 1.441-.505 3.871.728 4.993.287.26.846.186.925-.245.181-.946.144-1.733-.196-2.637-.186-.5-.904-.553-1.069 0-.271.888.037 1.483.303 2.324.112.345.526 1.536.218 1.892-.824.952-1.909-.909-2.217-1.377-.239-.367-.92-.367-1.016.133-.127.68-.005 1.154.458 1.675l.669-.872c-.372-.228-.388-1.058-.382-1.43.005-.697.265-.888.654-1.383.319-.409.473-.92.787-1.318l-.926-.543a8.984 8.984 0 00-.579 4.233c.037.377.324.606.702.537.978-.192.834-1.989.946-2.712-.361-.048-.728-.096-1.09-.149.117.904.293 1.77.569 2.643.133.42.798.585 1.016.133.335-.697.393-1.276.377-2.053-.361.048-.728.096-1.09.15.096.446.319 1.073.319 1.525.037.17.069.34.107.51-.452.107-.575.357-.373.745.511.505 1.292-.282.787-.787-.808-.803-2.185-.255-1.813.957.053.176.197.357.388.388 1.149.203 1.489-1.201.888-1.999-.601-.797-2.036-.632-2.244.43-.26 1.34 1.516 1.787 2.499 1.665 1.915-.24.782-2.478.516-3.722-.127-.611-1.106-.473-1.09.15a3.027 3.027 0 01-.223 1.493c.34.043.675.09 1.015.133a13.578 13.578 0 01-.531-2.35c-.069-.553-.984-.83-1.09-.149-.022.138-.309 1.962-.176 1.935.234.181.468.357.702.538a8.31 8.31 0 01.537-3.94c.197-.506-.59-.968-.925-.543-.372.473-.622.995-.994 1.473-.362.463-.628.814-.729 1.42-.165.994-.037 2.414.893 2.983.559.345 1.08-.415.67-.872-.058-.197-.111-.394-.17-.596-.34.043-.675.09-1.015.133.643.978 2.43 3.238 3.855 2.095.462-.372.446-1.191.452-1.718.016-1.1-.899-2.472-.591-3.482h-1.068c.26.702.34 1.297.196 2.047.309-.08.617-.165.926-.245-.835-.76-1.197-2.626-.553-3.647h-.957a14.41 14.41 0 011.111 2.414c.234.67 1.223.41 1.069-.293l-.575-2.595c-.143-.707-1.217-.409-1.063.288z"/><path d="M161.312 62.551c-9.72-10.932-30.839-6.195-38.911 4.583-2.536 3.382-4.094 7.753-5.041 11.836-.925 3.999-.436 7.44 1.133 11.209 1.664 4.01 3.238 8.422 5.865 11.91 2.377 3.153 5.54 5.567 8.645 7.95.569.436 1.122-.527.559-.958-2.76-2.116-5.573-4.269-7.79-6.976-2.355-2.882-3.679-6.386-5.147-9.762-1.93-4.44-3.291-8.178-2.196-13.075.84-3.749 2.26-7.747 4.456-10.921 7.433-10.741 28.277-15.548 37.64-5.01.479.533 1.26-.254.787-.786zm-47.27-32.546c0 .994.165 1.706.564 2.61.25.57 1.255.154 1.016-.425a16.06 16.06 0 00-1.027-2.09c-.335-.563-1.127-.175-1.015.426l.08.436c.356-.096.712-.197 1.068-.293-.765-2.116 4.685-.026 4.988.09.781.298 1.563.654 2.366.9 1.356.42 2.26.44 3.568-.027.654-.335.404-.261-.75.212-.904.734-1.925 1.09-3.073 1.058-1.138.043-2.239-.319-3.361-.383-1.6-.095-1.834.16-3.089.995-.606.399-.085 1.244.558.957l2.074-.558c-.048-.362-.096-.729-.149-1.09-1.148.367-1.744.58-2.43-.41-.585-.85-.42-1.67-.372-2.658-.346.095-.691.186-1.032.281a24.208 24.208 0 011.42 3.26c.192.547 1.17.51 1.09-.15a46.67 46.67 0 00-.484-3.11c-.122-.632-1.074-.457-1.09.15a8.15 8.15 0 00.431 2.966c.197.59 1.069.49 1.09-.149.053-1.483-.234-2.791-.627-4.227-.341.144-.676.287-1.016.426a12.69 12.69 0 011.51 3.116c.202.61 1.037.473 1.09-.15.08-.967-.276-1.632-.399-2.616-.345.096-.691.187-1.031.282a73.12 73.12 0 011.122 2.701c.212.543 1.122.527 1.09-.148a21.61 21.61 0 01-.043-1.649c-.314.133-.633.26-.946.394.59.478.632 1.329 1.292 1.69.516.282 1.781.043 2.339.06 2.021.068 4.488-.394 6.163-1.601-.223-.293-.447-.58-.67-.872-.175.164-.351.324-.526.489.308.08.616.165.925.244 0 .006.005.016.005.022-.34-.144-.675-.288-1.015-.426-.171.442-.894 1.122-.633 1.271.026.016-.096-.728-.069-.548-.096-.542-.957-.515-1.069 0-.202.947-.011.798-.266.006-.191-.59-1.079-.495-1.09.149-.048.468-.09.93-.138 1.398.34-.043.675-.09 1.015-.133l-.494-1.202c-.154-.505-.936-.553-1.069 0-.117.484-.229.963-.346 1.447h1.069c-.197-.633-.388-1.266-.585-1.899-.154-.5-.941-.553-1.068 0-.096.5-.224.984-.389 1.468h1.069c-.159-.638-.314-1.276-.473-1.914-.149-.606-1.095-.479-1.09.149a22.22 22.22 0 01-.106 2.45c.361-.047.728-.095 1.09-.148-.266-.824-.527-1.643-.777-2.473-.18-.6-1.068-.483-1.09.15 0 .675-.064 1.345-.191 2.015.34-.043.675-.09 1.015-.133a38.493 38.493 0 01-1.047-2.728c-.197-.58-1.079-.5-1.09.149-.016.75-.059 1.478-.133 2.228.346-.096.691-.186 1.032-.282a7.46 7.46 0 01-.947-2.329c-.149-.643-1.042-.447-1.09.149a4.07 4.07 0 00.021 1.563c.08.702 1.186.713 1.112 0-.107-.968 1.334-.42 1.26-.712.181-.234.356-.468.537-.702-.856.021-2.047-.218-2.808.271-.164.106-.164.378-.276.521-.861 1.1-.941.989-2.372 1.16-.632.074-.744.85-.148 1.09.239.148.478.297.717.44.537.468 1.324-.313.787-.786-.499-.436-.59-.484-1.207-.729-.048.362-.095.729-.149 1.09.958-.111 2.069-.064 2.978-.388.17-.059.356-.191.388-.388.208-1.223 1.064-1.154 2.095-1.175a.562.562 0 00.537-.702c-.228-.872-1.595-1.016-2.355-.85-1.048.223-1.197.802-1.085 1.86h1.111a3.975 3.975 0 01-.021-1.563c-.362.048-.728.096-1.09.149a8.18 8.18 0 001.058 2.595c.303.5.978.25 1.032-.282.074-.75.117-1.478.133-2.228-.362.048-.729.096-1.09.149.345 1.015.733 2.01 1.159 2.993.18.426.941.32 1.015-.133.123-.776.202-1.52.229-2.307-.362.048-.729.095-1.09.149.25.824.51 1.648.776 2.472.202.617 1.032.468 1.09-.149.08-.83.117-1.622.107-2.451-.362.048-.729.096-1.09.149.159.638.313 1.276.473 1.914.133.548.914.505 1.069 0 .164-.478.297-.968.388-1.467h-1.069c.197.632.388 1.265.585 1.898.154.505.936.553 1.069 0 .117-.484.228-.963.345-1.447h-1.069c.234.772.229.755.607 1.468.212.404.925.335 1.015-.133.16-.84.165-.84.176-1.69a66.34 66.34 0 00-1.09.148c.255.787.324 1.723 1.207 1.962.255.07.483-.053.627-.255.356-.505.441-1.117.569-1.712h-1.069c.122.702-.303.946.287 1.5.133.127.357.212.543.143 1.058-.399 1.627-1.367 2.015-2.366.234-.607-.691-.936-1.016-.426-.202.314-.218.479-.117.835.117.415.622.527.926.245.175-.165.35-.325.526-.49.452-.42-.154-1.244-.67-.871-1.749 1.26-4.147 1.462-6.184 1.313.261.021-1.728-.101-1.467.08-.149-.107-.452-1.09-.798-1.372-.356-.287-.952-.123-.946.393-.011.553.005 1.1.042 1.649.362-.048.729-.096 1.09-.15a76.563 76.563 0 00-1.233-2.966c-.218-.49-1.101-.255-1.032.282.106.866.473 1.733.399 2.616.361-.048.728-.096 1.09-.15a14.144 14.144 0 00-1.622-3.381c-.335-.51-1.186-.202-1.016.425.357 1.308.633 2.563.585 3.93.362-.048.729-.096 1.09-.15a7.47 7.47 0 01-.393-2.668c-.362.047-.729.095-1.09.149.181.94.33 1.866.447 2.818.361-.048.728-.096 1.09-.15a25.93 25.93 0 00-1.532-3.525c-.271-.51-1.01-.239-1.031.282-.048 1.069-.415 3.228.526 4.1.899.824 2.68.361 3.674.048.564-.181.505-1.16-.149-1.09a8.115 8.115 0 00-2.637.707l.558.957c1.415-.936 2.409-.808 4.025-.606 1.075.138 2.165.228 3.233 0 1.356-.293 3.164-1.234 3.446-2.755.042-.239-.027-.5-.255-.627-.92-.51-2.297.399-3.313.314-2.058-.17-4.041-1.755-6.072-2.18-1.553-.33-4.094.234-3.334 2.345a.554.554 0 001.069-.293 31.694 31.694 0 01-.08-.436c-.34.144-.675.287-1.016.425.367.575.676 1.18.915 1.824.34-.143.675-.287 1.015-.425l-.414-2.053c0-.728-1.106-.728-1.112-.015zm1.713 24.039c-.064.031-.123.063-.187.095l.856-.111c-.074-.032-.148-.059-.218-.09.224.17.442.34.665.51-.085-.123-.112-.527-.133-.665-.202-1.234-2.238-.947-2.18.292l-.016.42c.617-.164 1.239-.324 1.856-.489.308.293-.154 1.01.415.255.143-.191.196-.409.281-.627.309-.755.904-1.824 1.798-2.063l-1.08-.287c.543.526.447 2.105.633 2.775.308 1.128.835 2.228 1.265 3.313.261-.457.516-.91.777-1.367-1.516.405-3.191 1.096-4.759 1.191-1.675.107-1.813-1.313-1.372-2.637.181-.542 1.441-2.93 2.308-2.727.505.117.749 1.403.882 1.823.25.782.399 1.441.091 2.233.675-.09 1.35-.175 2.026-.265-.442-.995-.851-2-1.239-3.02-.346-.9-1.946-1.197-2.138 0-.287 1.77-.074 3.43.245 5.178.542-.42 1.085-.834 1.632-1.254-.76-.58-.696-1.755-1.595-2.297-.314-.192-.808-.224-1.122 0-.303.218-.473.393-.617.739-.074.17-.058 1.063-.17 1.159.261-.107.521-.218.787-.325-.069 0-.133 0-.202.006.261.106.521.218.787.324-.378-.388-.59-.994-.798-1.483-.42.542-.834 1.084-1.254 1.632l.218.08c1.196.787 2.307-1.133 1.122-1.914a1.754 1.754 0 00-.75-.303c-1.01-.17-1.649.712-1.255 1.632.388.898.93 2.345 2.132 2.254 1.393-.106 1.181-1.5 1.526-2.462-.17.224-.34.442-.51.665l.111-.08h-1.122c.218.133.452 1.01.585 1.229.272.452.596.75 1.011 1.063.85.649 1.781-.42 1.632-1.255-.245-1.33-.463-2.648-.245-3.998h-2.137a75.846 75.846 0 001.462 3.546c.431.973 1.723.516 2.026-.266.478-1.223.25-2.435-.176-3.647-.329-.947-.654-2.61-1.611-3.164-1.988-1.143-4.53 1.66-5.317 3.201-.882 1.723-1.313 4.397.388 5.77 2.207 1.78 5.679.132 8.024-.49.532-.144.994-.808.776-1.367-.404-1.02-.877-2.036-1.201-3.084-.245-.792-.256-1.627-.474-2.424-.319-1.186-1.026-2.297-2.376-1.67-.638.298-1.34.957-1.803 1.479-.505.568-.649 1.206-1.016 1.829-.196.34-.627.59-.717 1.127-.101.617.122 1.116.558 1.536.574.543 1.675.357 1.856-.489.079-.372.117-.632.095-1.01-.728.096-1.451.197-2.18.292.197 1.202.931 2.276 2.276 1.59 1.26-.643.138-2.557-1.132-1.908zm31.982-12.905c.484-.016 1.276-.676 1.808-.798.314-.07 1.101-.218 1.441-.101.101-.356.117-.26.059.282-.011.303-.048.6-.107.893a15.36 15.36 0 01-.399 1.643c-.085.293-.138.883-.361 1.117-.367.399-1.654.27-2.111.143-.399-.111-.946-.34-1.186-.69-.547-.804.043-1.064.75-1.41-.558-.319-1.111-.638-1.67-.957-.074 1.233-.553 3.616 1.409 3.589 1.835-.027 1.947-2.659 2.25-3.95h-2.138c.181 1.297-.633 4.12 1.659 3.844 2.042-.25 2.058-2.861 2.318-4.392h-2.137c.085.6.021 1.132-.138 1.712-.373 1.382 1.77 1.967 2.137.59.266-.994.282-1.877.138-2.893-.154-1.068-1.962-1.047-2.137 0-.096.553-.734 2.457-.176 2.803.181.319.367.638.548.957-.069-1.074.085-2.122-.069-3.212-.154-1.106-1.904-1.005-2.138 0-.106.463-.218.925-.324 1.388-.037.154-.074.308-.106.462-.282.516-.096.686.558.511.17.223.34.441.51.665-.202-.522.032-1.516.064-2.074.059-.904-.967-1.297-1.669-.957-1.191.58-2.377 1.52-2.207 2.999.154 1.334 1.367 2.414 2.531 2.919 1.287.553 2.924.569 4.201-.027 1.377-.643 1.637-2.366 1.94-3.722.261-1.18.713-3.004-.313-3.934-.989-.9-2.978-.585-4.132-.23-1.217.373-2.467 1.144-2.749 2.479-.276 1.308.569 2.605 1.952 2.563 1.419-.038 1.43-2.255-.006-2.212zm78.375-11.182c2.723.792 5.456 1.537 8.205 2.217 1.249.309 3.53 1.399 4.817.585 1.845-1.175 2.143-5.849.564-7.284-1.393-1.266-3.898-1.58-5.653-1.92-1.818-.356-4.046-.925-5.896-.787-1.346.101-1.893.654-2.462 1.819-1.053 2.17-1.76 4.743-2.143 7.114-.202 1.276-.601 2.877.149 4.015.888 1.35 3.233 1.946 4.668 2.461 2.702.974 7.561 2.659 9.481-.473 1.584-2.584 2.542-8.114 1.154-10.964-.654-1.34-2.489-1.44-3.813-1.829-2.371-.691-4.828-.739-7.274-.58-.85.054-1.605 1.25-.786 1.893 1.217.963 2.461 1.542 3.945 1.978 1.739.51 4.567.676 5.796 2.09.26-.633.521-1.265.787-1.893-3.616-.276-7.184-1.622-10.826-2.026-.925-.1-1.266 1-.957 1.67.771 1.686 3.626 2.462 5.147 3.243 1.079.559 2.781 1.07 3.663 1.899 1.048.983.367 2.35-.749 3.286.361-.096.717-.192 1.079-.287-.978-.314-1.792-.851-2.829-1.032-2.052-.351-3.871-.457-5.737-1.542l-.558 2.068.765-.031c1.425-.059 1.431-2.282 0-2.218l-.765.032c-1.074.048-1.542 1.5-.559 2.069 2.675 1.552 5.684 1.712 8.561 2.594 1.755.537 2.377-.856 3.201-2.297.92-1.61 1.058-2.919-.505-4.115-1.276-.979-3.02-1.6-4.445-2.34-.899-.462-3.924-1.515-4.35-2.451-.319.558-.638 1.111-.957 1.67 3.658.409 7.189 1.749 10.826 2.025 1.031.08 1.366-1.228.787-1.892-2.324-2.664-7.008-1.915-9.741-4.068-.261.633-.521 1.265-.787 1.893 2.844-.181 5.28.154 8.002.968.362.159.745.26 1.143.292.149.867.234 1.744.256 2.621-.006 1.473-.341 2.76-.745 4.153-.447 1.537-.351 2.334-2.323 2.648-1.404.218-3.058-.43-4.376-.867-.963-.319-2.26-.627-3.116-1.19-1.643-1.08-1.17-2.585-.782-4.334.255-1.133.611-2.239.994-3.329.564-1.621 1.021-2.313 2.781-2.371 1.787-.064 6.019.51 7.62 1.579 1.106.606 1.409 1.436.914 2.499a5.636 5.636 0 00-.266 1.569c-.303.244-2.552-.607-3.1-.745-2.748-.68-5.482-1.43-8.204-2.217-1.382-.41-1.967 1.733-.601 2.132z"/><path d="M227.229 28.82c.484-1.42.446-3.585 1.143-4.845l-1.255.51c1.351.277 2.861 1.442 4.148 1.968 1.446.595 4.641 1.265 5.083 3.073.255 1.037.202.325-.601 1.282a4.26 4.26 0 00-.739 1.281 208.46 208.46 0 01-1.425 3.653h2.137c-.308-1.547.192-3.419.144-5.003-.032-1.005-1.606-1.638-2.068-.559-.777 1.808-.803 3.749-1.484 5.578h2.138c-.203-1.425-.229-2.792-.133-4.227.079-1.255-1.883-1.5-2.18-.293-.341 1.388-.266 2.877-1.09 4.1l2.068.558a115.509 115.509 0 01-.059-4.482c.006-1.462-2.063-1.388-2.217 0-.122 1.106-.287 1.935-.67 2.95h2.138a8.516 8.516 0 01-.117-2.296c.042-1.223-1.968-1.547-2.18-.293a17.014 17.014 0 01-.973 3.494c.675-.09 1.35-.176 2.025-.266-.6-.968-.393-2.967-.43-4.073-.053-1.436-2.127-1.42-2.217 0-.07 1.037-.261 1.781-.617 2.722.617-.165 1.239-.324 1.855-.489-.292-.35.086-2.392.133-2.78.149-1.234-1.967-1.527-2.18-.293-.239 1.393-.361 3.047-.962 4.344.675.09 1.35.175 2.026.266-.537-1.314-.574-2.946-.782-4.355-.186-1.281-2.137-.898-2.18.293a33.553 33.553 0 01-.197 2.631h2.218c-.091-.744-.186-1.494-.277-2.238-.17-1.377-2.185-1.473-2.217 0-.021.883-.037 1.765-.059 2.648l2.069-.558a26.212 26.212 0 01-.17-.654c.202-1.399-1.936-2-2.138-.59-.133.92-.074 1.536.394 2.366.553.978 2.047.52 2.068-.559.021-.882.037-1.765.058-2.648h-2.217c.091.745.186 1.494.277 2.239.175 1.414 2.063 1.436 2.217 0a39.88 39.88 0 00.197-2.632c-.729.096-1.452.197-2.18.292.207 1.415.239 3.026.781 4.355.319.776 1.579 1.234 2.026.266.713-1.531.904-3.217 1.186-4.87-.729-.096-1.452-.197-2.18-.293-.181 1.483-.495 3.132.521 4.35.585.701 1.59.212 1.856-.49.414-1.1.616-2.153.696-3.312h-2.217c.058 1.632-.16 3.748.734 5.19.542.871 1.685.6 2.025-.267.458-1.153.771-2.27.974-3.493-.729-.096-1.452-.197-2.181-.293-.037 1 .043 1.904.197 2.888.186 1.196 1.797.898 2.138 0 .441-1.165.611-2.319.749-3.542h-2.217c-.005 1.495.016 2.989.059 4.483.037 1.132 1.457 1.467 2.068.558.978-1.462.904-2.967 1.313-4.631-.728-.096-1.451-.197-2.18-.293-.106 1.633-.016 3.201.213 4.812.17 1.197 1.808.9 2.138 0 .611-1.642.568-3.44 1.26-5.05l-2.069-.56c.053 1.9-.436 3.728-.063 5.595.239 1.19 1.775.909 2.137 0 .367-.92.867-1.686 1.18-2.627.229-.686.431-1.287.904-1.819.224-.25.575-.366.771-.648.702-1.016.117-2.35-.505-3.25-.957-1.387-2.467-2.195-3.993-2.812-1.18-.478-2.377-.898-3.531-1.457-.909-.441-1.845-1.159-2.844-1.366-.479-.096-1.005.058-1.255.51-.84 1.52-.798 3.7-1.367 5.376-.446 1.34 1.697 1.92 2.154.574zm-5.78 20.97c-.479-.85.798-2.845 1.117-3.663a35.187 35.187 0 001.233-3.871l-2.137-.59c-.351 1.605-1.308 3.073-1.728 4.678l2.137.59c.202-.786.963-3.104 1.771-3.567-.793.457.601.547 1.068.734.782.308 1.569.6 2.367.872 1.106.372 4.11.616 4.232 2.222.085 1.149-1.202 3.09-1.622 4.158-.494 1.244-.909 2.44-1.138 3.765-.377 2.196-2.121 1.526-3.823 1.047-1.175-.33-4.025-.861-4.376-1.972-.452-1.441.596-3.552 1.351-4.69.665-1.005 1.643-2.914 2.659-3.568 1.557-1.01 5.593.93 5.471 2.877-.075 1.217-1.377 2.961-1.84 4.147-.835 2.137-1.005 2.403-3.153 1.776-.851-.245-1.717-.18-2.382-.856-1.053-1.069-.229-2.074.33-3.345.478-1.09.84-2.265 1.34-3.339.313-.675.771-1.122.739-1.903-.043-1.021-.755-.99-1.085-1.85l-1.367 1.366c1.229.345 2.425 1.462 3.621 2 .639.286 1.596.871 2.271 1.036l.712.41c.5-.788.553-.936.16-.447-1.898 1.637-1.42 5.705-3.648 6.87h1.122c-.824-.48-1.749-.915-2.541-1.42-1.165-.745-1.234-.707-.516-1.978.478-.84 1.015-1.654 1.393-2.547.149-.335.276-.68.393-1.032.341-.888.293-1.037-.138-.446l-1.255-.51c.803 1.738 2.574 1.233 3.956 2.153l-.51-1.255c.516-.505.33-.675-.564-.521a7.307 7.307 0 00-1.701.111c-.84.102-1.611 1.207-.787 1.893.781.649 1.797.91 2.541 1.574.362-.617.718-1.239 1.08-1.855a4.114 4.114 0 01-1.696-.538c-1.271-.637-2.34 1.149-1.122 1.915.313.196.627.399.941.595l1.366-1.366a743.738 743.738 0 00-3.371-.553c-1.159-.192-2.042 1.377-.856 2.026 1.138.622 2.276 1.25 3.414 1.871l.558-2.068c-.925.026-1.733-.495-2.674-.505-.952-.01-1.479 1.228-.787 1.893.579.558 1.153 1.116 1.733 1.67.261-.634.521-1.266.787-1.894-1.207.048-2.031-.675-3.201-.516-.792.107-1.111 1.372-.489 1.856.867.676 2.382.894 3.025 1.718.872 1.127 2.436-.452 1.569-1.569-.861-1.111-1.999-.914-3.026-1.717-.164.616-.324 1.239-.489 1.855.484-.064 1.867.622 2.611.596.931-.037 1.499-1.202.787-1.893-.58-.558-1.154-1.117-1.733-1.67-.261.633-.522 1.266-.787 1.893.967.01 1.69.532 2.674.505 1.064-.032 1.558-1.52.558-2.068-1.137-.622-2.275-1.25-3.413-1.872-.287.676-.569 1.35-.856 2.026 1.122.186 2.249.372 3.371.553.75.122 1.691-.489 1.366-1.366-.404-1.096-1.005-1.324-1.962-1.925-.372.638-.744 1.276-1.122 1.914.745.372 1.399.617 2.223.76.994.176 1.983-1.052 1.079-1.855-.776-.692-1.76-.92-2.541-1.574-.261.633-.521 1.265-.787 1.893 1.329-.165 4.02.691 4.402-1.218.101-.51-.074-.962-.51-1.255-.819-.542-2.749-.468-3.158-1.356-.218-.473-.798-.584-1.255-.51-.112.021-.224.037-.341.058-.382.064-.664.431-.776.777-.686 2.148-2.137 3.945-2.797 6.061-.297.963-.276 1.59.505 2.265.702.607 1.702.814 2.51 1.24.596.313 1.356 1.1 2.042 1.19 1.117.15 1.856-.77 2.387-1.627.973-1.568 1.17-3.482 2.111-5.056.516-.856 1.457-1.436 1.101-2.537-.383-1.185-2.499-1.823-3.478-2.27-1.632-.744-3.227-2.084-4.913-2.558-.755-.212-1.674.553-1.366 1.367.069.186.92 1.324.925 1.334.064.362-.585 1.18-.702 1.479-.675 1.67-1.903 3.445-2.228 5.21-.712 3.909 3.217 4.727 6.179 5.355 3.876.819 4.355-3.86 5.578-6.572.521-1.154 1.281-2.829.717-4.105-.611-1.393-2.961-2.19-4.243-2.706-3.988-1.622-5.375.611-7.561 3.642-1.387 1.925-3.775 6.71-1.446 8.72 1.26 1.09 3.727 1.483 5.285 1.925 1.409.399 3.781 1.345 5.169.462 1.148-.728 1.212-2.243 1.441-3.44.457-2.398 1.69-4.53 2.451-6.832 1.52-4.584-3.207-4.812-6.482-5.993-1.372-.494-3.243-1.903-4.599-.765-1.165.978-2.015 3.2-2.382 4.615-.357 1.382 1.781 1.972 2.137.59.426-1.638 1.367-3.036 1.728-4.679.303-1.388-1.776-1.978-2.137-.59-.58 2.196-1.537 4.158-2.287 6.28-.393 1.11-.425 1.919.16 2.966.718 1.25 2.632.133 1.93-1.111zm-6.237 21.14c.367-1.61.654-4.056 1.611-5.428 1.351-1.935 3.945-.388 5.759.218.755.25 1.701.388 2.371.792 1.787 1.064 1.468 2.537.83 4.057-.692 1.643-1.277 3.276-1.734 4.998-.367 1.383 1.739 1.962 2.138.59.244-.829.872-1.563 1.154-2.408l-2.138-.59c-.452 1.823-.42 3.248-2.446 2.839-.776-.154-1.489-.452-2.244-.691-2.361-.745-6.061-.723-4.844-4.392.25-.75.899-1.478 1.213-2.233.244-.585.324-1.59.68-2.106 1.143-1.648 6.072-.106 7.093 1.617.771 1.302-.712 4.567-1.568 5.614-1.08 1.324-4.679-.111-5.86-1.334-1.047-1.09-.574-2.489.192-3.494.133-.303.244-.616.34-.935 1.345-.686 2.515-.612 3.52.218 1.074.537 2.036 1.004 1.818 2.424-.127.835-1.281 2.547-1.871 3.148l1.079-.287c-.101-.016 1.314-3.802 1.388-4.2-.729-.096-1.452-.197-2.18-.293-.234 1.77-.808 3.238-1.749 4.748.675.09 1.35.175 2.025.266-.59-1.627-.154-4.11-.164-5.817-.006-1.207-1.973-1.563-2.18-.293-.07.415-.426 4.291-.777 4.451.559.319 1.112.638 1.67.957.048-1.77.101-3.541.149-5.312.032-1.047-1.606-1.584-2.069-.558-.675 1.494-.393 3.35-1.047 4.743l1.255-.51c.292.047.68-3.584.813-4.063.378-1.393-1.675-1.925-2.137-.59a41.83 41.83 0 00-1.383 4.945c-.298 1.393 1.84 1.988 2.138.59a41.826 41.826 0 011.382-4.945l-2.137-.59c-.5 1.845-.963 4.1-.351 5.966.111.34.393.712.776.776.106.016.207.037.314.053.452.075 1.031-.042 1.255-.51.696-1.484.361-3.228 1.047-4.743l-2.068-.558c-.048 1.77-.101 3.54-.149 5.311-.027.91.946 1.287 1.669.958 1.601-.734 1.558-4.334 1.792-5.78-.728-.096-1.451-.197-2.18-.293.011 1.984-.441 4.525.245 6.407.324.888 1.499 1.117 2.026.266 1.148-1.85 1.765-3.716 2.052-5.87.165-1.228-1.957-1.52-2.18-.292-.292 1.6-1.813 2.855-1.675 4.477.08.951.798 2.307 1.835 2.451 1.026.138 1.446-.702 1.93-1.468.84-1.318 2.488-3.43 2.004-5.099-.398-1.377-2.137-2.11-3.259-2.775-1.409-.835-3.249-2.031-4.934-1.298-1.239.537-1.596 1.861-2.085 3-.659 1.525-1.664 3.168-.819 4.832 1.037 2.042 6.2 4.387 8.449 3.957 1.558-.298 1.989-1.893 2.547-3.19.654-1.516 1.851-3.547 1.734-5.249-.186-2.829-5.52-4.562-7.806-4.796-1.175-.117-2.605-.255-3.467.686-.622.68-.611 1.898-.898 2.738-.495 1.447-1.425 2.44-2.132 3.738-2.159 3.962 3.333 5.62 6.082 6.429 1.5.441 4.116 1.765 5.732 1.132 1.548-.606 2.17-3.174 2.515-4.583.346-1.393-1.691-1.94-2.137-.59-.303.909-.888 1.51-1.154 2.408l2.137.59c.702-2.637 2.936-5.811 2.553-8.603-.346-2.51-2.547-2.967-4.616-3.653-1.972-.654-6.077-3.009-8.092-1.51-1.893 1.41-2.467 5.828-2.951 7.955-.287 1.388 1.855 1.983 2.169.585zm-4.466 14.421c-.07.037-.139.07-.208.107.543.223 1.085.44 1.633.664-1.308-3.79 2.552-3.903 5.109-3.248.931.239 2.85.61 3.547 1.26.186.35.367.701.553 1.052.393 1.016.346 1.335-.144.957-.228.15-1.813.032-2.238.08-.968.117-1.92.325-2.877.516-2.004.41-4.615 1.537-6.63 1.436l1.068.813c.027.133.697-1.898.713-1.962.223-.936.186-1.824.596-2.743l-2.069-.559c-.01 1.563-.595 3.898.505 5.168.293.336.973.447 1.346.176 1.903-1.398 1.733-4.052 1.77-6.205h-2.217c.042 1.733-.271 3.669 1.058 4.971.494.484 1.398.415 1.744-.223.845-1.574.968-3.132.941-4.897h-2.217c.037 1.335-.043 3.27.734 4.44.266.399.765.66 1.255.51 1.754-.547 1.85-3.217 1.658-4.674-.186-1.371-2.318-1.456-2.217 0 .101 1.484.388 2.819.973 4.201.335.792 1.548 1.207 2.026.266.702-1.377.984-2.621.798-4.169-.165-1.382-2.319-1.451-2.218 0 .091 1.335.059 3.685 1.436 4.398.697.356 1.351.015 1.632-.665.484-1.18.697-2.292.724-3.557h-2.218c.117 1.26.303 3.2 1.782 3.557.505.122.973-.085 1.254-.51.442-.665.553-1.447.745-2.212-.675.09-1.351.175-2.026.265.308.585.611 1.165.92 1.75.409.776 1.478.659 1.914 0 .133-.202.266-.404.404-.606l-2.068-.559c.053.505.053 1.01-.006 1.516-.09 1.425 2.133 1.42 2.218 0a6.62 6.62 0 00.005-1.516 1.119 1.119 0 00-2.068-.558c-.133.202-.266.404-.404.606h1.914c-.309-.585-.612-1.164-.92-1.75-.442-.84-1.803-.643-2.026.267a7.865 7.865 0 01-.521 1.685l1.255-.51c.133-.468.08-.941-.154-1.415-.128-1.398-2.191-1.451-2.218 0-.026 1.18-.207 1.914-.643 2.967.542-.223 1.085-.441 1.632-.664-.17-.085-.351-2.659-.335-2.478h-2.217c.133 1.132.037 2.004-.494 3.047.675.09 1.35.175 2.025.265-.505-1.201-.803-2.297-.893-3.61h-2.217c.175.84.165 1.686-.027 2.531l1.255.51c-.473-.707-.409-2.44-.431-3.317-.037-1.425-2.243-1.43-2.217 0 .021 1.34.021 2.557-.638 3.775l1.744-.224c-.686-.675-.383-2.536-.404-3.397-.037-1.425-2.196-1.43-2.217 0-.016.951.223 3.631-.67 4.285l1.345.176c.537.617.122-.718.128-1.17l.016-2.43c.005-1.031-1.601-1.6-2.069-.558-.563 1.265-.638 2.552-1.021 3.865-.271.926-.696 1.564-.505 2.547.096.495.606.793 1.069.814 1.978.1 4.333-.91 6.274-1.319.941-.197 1.898-.425 2.85-.569 1.069-.165 2.473.123 3.51-.165 2.281-.627 1.85-4.009.616-5.466-1.813-2.148-7.109-3.041-9.746-2.44-3.01.686-3.94 3.467-2.972 6.28.244.701.962 1.004 1.632.664.069-.037.138-.07.207-.106 1.245-.665.123-2.584-1.153-1.936zM63.2 71.452c9.555.399 18.897 2.058 28.505 1.824 2.297-.059 17.318.75 14.186-5.073-.25-.462-.845-.276-1.015.133-.41 1.01-.33.76-.442 1.84.362-.048.729-.096 1.09-.149-.09-.362-.175-.723-.265-1.085-.123-.505-.979-.553-1.069 0-.091.564-.186 1.133-.277 1.697.341-.043.676-.09 1.016-.133l-.574-1.627c-.133-.506-.968-.548-1.069 0-.197 1.031-.096 1.074-.808 1.653-.809.654-2.255.49-3.281.559-1.627.111-3.265.047-4.892.026-3.254-.042-6.513-.144-9.767-.106-3.026.032-6.02.547-9.05.42-3.993-.165-7.955-1.021-11.89-1.696-.095.356-.196.712-.292 1.068 3.079.463 6.19.202 9.284.51 3.589.362 7.104.766 10.725.697 3.578-.063 7.146-.393 10.703-.75 1.77-.175 3.536-.36 5.301-.542 1.308-.133 2.962-.053 4.201-.537a.593.593 0 00.409-.537l.016-.186c.016-.197-.122-.377-.276-.478l-.138-.09c-.277-.176-.761-.022-.814.329l-.144.946h1.069c-.074-.255-.154-.51-.228-.77-.16-.532-.904-.522-1.069 0-.133.292-.266.59-.404.882.34.043.675.09 1.015.133a127.07 127.07 0 00-.308-1.324c-.117-.51-.979-.548-1.069 0-.154.463-.303.92-.457 1.382h.957l-.415-.962c-.234-.542-1.015-.218-1.031.282l-.224 1.34c.341-.043.676-.09 1.016-.133-.128-.479-.25-.957-.378-1.436.022-.627-.925-.75-1.09-.149l-.255.952h1.069l-.335-.845c-.197-.495-.899-.559-1.069 0-.133.26-.266.526-.404.787.309.08.617.164.925.244l-.223-.856c-.07-.606-.883-.77-1.09-.149-.197.463-.394.92-.596 1.383.34.042.676.09 1.016.133-.101-.335-.197-.676-.298-1.01-.133-.447-.776-.559-1.015-.134-.15.272-.303.543-.452.814h.957c-.112-.192-.229-.383-.34-.569-.117-.191-.4-.34-.628-.255-1.047.404-1.781.569-2.956.585-.713.01-.718 1.122 0 1.111.388-.005 2.866-.473 2.961-.308.208.35.755.366.957 0 .15-.272.303-.543.452-.814-.34-.043-.675-.09-1.015-.133.1.335.197.675.298 1.01.127.442.781.564 1.015.133.436-.813.415-.77.707-1.648-.361-.048-.728-.096-1.09-.149.064.574.059.606.26 1.149.128.345.644.6.926.244.441-.553.479-.6.686-1.276h-1.069l.335.846c.192.478.915.574 1.069 0l.255-.952c-.361-.048-.728-.096-1.09-.15-.026.804.112 1.314.532 2 .25.41.877.33 1.015-.133.25-.861.229-.739.261-1.638-.346.096-.691.187-1.032.282.139.32.277.644.415.963.165.382.782.34.957 0 .468-.894.399-.654.569-1.643h-1.069c.101.441.203.882.309 1.324.112.478.776.526 1.015.133.325-.537.325-.553.516-1.149h-1.069c.075.255.155.51.229.771.144.484.984.574 1.069 0l.143-.946c-.271.111-.542.223-.813.33-1.345-.862-3.185-.293-4.711-.139-1.595.165-3.185.33-4.78.49-3.382.334-6.769.632-10.172.696-3.127.058-6.21-.165-9.31-.532-3.457-.41-6.966-.117-10.406-.638-.697-.106-1.005.947-.292 1.069 4.03.691 8.087 1.563 12.181 1.733 3.956.165 7.928-.447 11.9-.404 3.919.048 7.901.314 11.81.064 1.089-.07 3.152-.096 4.115-.665.888-.526.851-1.33 1.047-2.36h-1.068c.271 1.052.228.903.686 1.892.191.415.941.33 1.015-.133.09-.563.186-1.132.277-1.696h-1.069c.09.362.175.723.266 1.085.159.649 1.026.441 1.09-.149.133-.516.266-1.031.404-1.547-.34.042-.675.09-1.016.133-.516.83-1.031 1.664-1.547 2.493-.633.133-1.271.229-1.909.282-.899.106-1.808.176-2.706.25a124.838 124.838 0 01-15.218.314c-6.817-.277-13.543-1.473-20.349-1.76-.723-.01-.718 1.1-.005 1.127zm6.519-18.477l-3.52-10.076c-1.128-3.222-2.292-6.556-2.877-10.002-.532-3.131-.585-6.343-.638-9.448-.027-1.627-.053-3.308.234-4.972.271-1.558.819-3.03 1.265-4.136.697-1.734 1.617-3.712 3.132-5.28 3.26-3.366 9.066-4.185 14.128-1.99 4.823 2.09 8.385 6.28 10.953 9.7 1.303 1.733 2.287 3.19 3.105 4.588 1.075 1.84 1.723 3.398 2.042 4.902.271 1.277.309 2.58.33 3.802a97.614 97.614 0 01-2.058 21.46l-1.084-.228a96.367 96.367 0 002.036-21.216c-.016-1.17-.058-2.408-.308-3.589-.293-1.382-.899-2.84-1.915-4.573-.792-1.36-1.76-2.78-3.03-4.477-2.489-3.307-5.929-7.359-10.512-9.347-3.802-1.649-9.46-1.808-12.89 1.739-1.382 1.43-2.238 3.29-2.897 4.923-.425 1.058-.947 2.457-1.202 3.914-.27 1.563-.244 3.19-.218 4.764.048 3.063.101 6.226.622 9.278.57 3.355 1.718 6.641 2.83 9.821l3.52 10.076-1.048.367z"/><path d="M88.11 52.257c-.08-6.886-1.01-13.835-1.913-20.55-.213-1.596-.437-3.239-.724-4.834-.563-3.116-1.329-5.77-2.35-8.114a27.824 27.824 0 00-9.002-11.31l.66-.893a29.015 29.015 0 019.363 11.762c1.053 2.424 1.845 5.163 2.425 8.358.292 1.622.516 3.276.728 4.87.91 6.764 1.845 13.74 1.925 20.695l-1.111.016zm-8.603.83c-1.451-3.084-2.945-6.386-3.876-9.89-.398-1.5-.696-3.042-.983-4.536l-1.425-7.417c-.686-3.579-1.394-7.264-1.713-10.943-.414-4.801-.154-9.635.117-13.309l1.106.08c-.27 3.632-.526 8.412-.117 13.133.314 3.627 1.016 7.28 1.691 10.81l1.43 7.428c.288 1.484.58 3.004.968 4.467.91 3.419 2.382 6.667 3.807 9.703l-1.005.474zM65.21 27.495s-.362.01-.894-.037a15.282 15.282 0 01-3.785-.824c-.25-.09-.458-.154-.612-.271-.16-.128-.064-.266-.069-.245-.005-.005-.021.112.122.149.117.048.362.016.622.053.532.048 1.234.143 1.92.292.691.15 1.366.357 1.866.532.505.192.83.351.83.351zm.436 4.248s-.144.075-.346.123c-.207.047-.478.08-.744.047a2.282 2.282 0 01-.718-.19c-.192-.086-.314-.187-.314-.187s.144-.074.346-.122c.207-.048.478-.08.744-.048.266.021.526.111.718.197.191.08.314.18.314.18zm1.393 4.589s-.202.059-.5.08a4.674 4.674 0 01-1.069-.042 4.507 4.507 0 01-1.031-.282 2.74 2.74 0 01-.452-.229s.202-.058.5-.08a4.674 4.674 0 011.068.043c.383.053.755.175 1.032.282.271.111.452.228.452.228zm-1.967-19.705s-.176-.255-.383-.654a16.505 16.505 0 01-1.223-3.004c-.128-.431-.181-.734-.181-.734s.213.223.463.6c.25.378.547.9.765 1.458a8.08 8.08 0 01.463 1.579c.09.446.096.755.096.755zm-.213.909s-.213-.08-.49-.245a5.425 5.425 0 01-1.675-1.574 3.245 3.245 0 01-.27-.473s.212.08.489.245c.27.165.617.41.92.696.308.282.569.612.75.878.18.265.276.473.276.473zm4.137-6.439s-.17-.266-.357-.675a11.772 11.772 0 01-.58-1.553c-.17-.574-.281-1.17-.345-1.617-.064-.451-.058-.765-.058-.765s.17.266.361.675c.192.415.415.973.58 1.553.17.574.282 1.17.345 1.616.054.452.054.766.054.766zm-.203 32.817s-.149.107-.398.187c-.245.08-.585.143-.92.122a2.53 2.53 0 01-.899-.223c-.234-.107-.372-.234-.372-.234s.18-.048.425-.075c.25-.021.57-.042.878-.021.313.016.627.07.872.122.239.053.414.122.414.122zm1.292 1.606c0 .021-.43.277-.845.234-.415 0-.819-.298-.819-.319 0-.021.43-.277.846-.234.42 0 .819.298.819.32z"/><path d="M74.291 8.89s-.175-.542-.372-1.366a41.269 41.269 0 01-.606-3.036 37.608 37.608 0 01-.362-3.074C72.888.57 72.888 0 72.888 0s.175.542.372 1.367c.197.824.43 1.924.6 3.036.181 1.11.299 2.233.362 3.073.07.845.07 1.414.07 1.414zm4.844.016s.038-.35.107-.856c.074-.505.143-1.17.212-1.834.064-.665.123-1.33.15-1.84.031-.51.063-.861.063-.861s.144.324.245.84c.106.51.164 1.217.09 1.914a6.605 6.605 0 01-.468 1.86c-.197.49-.399.777-.399.777zm5.557 3.489s.026-.325.154-.798a7.819 7.819 0 01.654-1.638 7.404 7.404 0 011.02-1.44c.325-.362.586-.559.586-.559s-.117.308-.325.734c-.212.425-.489.989-.792 1.531-.292.548-.617 1.085-.856 1.494-.25.404-.441.676-.441.676zm2.898 2.175s.117-.224.255-.527c.143-.303.297-.723.51-1.133.208-.415.505-.819.803-1.047.293-.234.537-.293.537-.293s-.143.202-.303.495c-.165.287-.335.691-.548 1.1-.207.41-.483.814-.755 1.064-.266.255-.5.34-.5.34zm6.816 8.55s.128-.192.335-.426a12.375 12.375 0 011.622-1.575c.245-.196.436-.318.436-.318s-.048.223-.191.516a3.494 3.494 0 01-.702.951c-.309.303-.68.537-.973.676-.303.138-.527.175-.527.175zm-1.446-.942s.058-.282.255-.654c.197-.373.51-.825.814-1.25.297-.425.563-.856.702-1.218.143-.361.186-.643.186-.643s.143.26.117.707c-.016.442-.218 1.016-.553 1.478-.325.468-.729.835-1.021 1.117-.287.271-.5.463-.5.463zm3.376 8.949s.139-.133.367-.266c.229-.133.537-.282.867-.378.324-.095.67-.133.93-.143a2.31 2.31 0 01.452.032s-.138.133-.367.266a3.757 3.757 0 01-.866.372 3.98 3.98 0 01-.93.143c-.261.011-.453-.026-.453-.026zm-.723 3.025s.208-.122.548-.223a4.23 4.23 0 011.265-.176 4.26 4.26 0 011.255.213c.335.112.537.245.537.245s-.239.042-.58.063c-.34.022-.786.043-1.222.032-.442-.005-.883-.042-1.223-.069-.34-.032-.58-.085-.58-.085zm-.835 10.236s.26-.07.633-.128c.372-.058.861-.138 1.345-.186.484-.058.979-.096 1.356-.117.378-.021.644-.016.644-.016s-.213.16-.57.319a4.61 4.61 0 01-1.366.367 4.672 4.672 0 01-1.414-.053 3.58 3.58 0 01-.628-.186zm-.372 2.594s.16-.09.404-.154c.245-.064.57-.122.888-.122.325-.005.649.053.888.122.245.07.404.154.404.154s-.16.09-.404.155a3.654 3.654 0 01-.888.122 3.346 3.346 0 01-.888-.122c-.239-.07-.404-.155-.404-.155zm-12.995-17.94s-.09-.281-.16-.707a10.024 10.024 0 01-.02-3.116c.063-.425.148-.707.148-.707s.09.282.16.707a10.013 10.013 0 01.021 3.116c-.064.426-.149.707-.149.707zm-1.941-.292s-.148-.229-.319-.57a16.965 16.965 0 01-1.042-2.574c-.111-.365-.165-.631-.165-.631s.208.175.442.489a5.464 5.464 0 011.058 2.627c.053.393.026.659.026.659zm5.2 15.659s-.063-.24-.095-.585a6.736 6.736 0 01.016-1.26c.048-.452.154-.904.255-1.234.101-.335.218-.553.218-.553s.064.24.096.585c.032.346.037.808-.016 1.26a6.875 6.875 0 01-.256 1.234 3.914 3.914 0 01-.218.553zm-4.594-2.515s-.17-.314-.366-.798a24.762 24.762 0 01-.65-1.781 24.672 24.672 0 01-.494-1.83c-.111-.51-.154-.86-.154-.86s.207.292.447.755c.24.467.52 1.105.728 1.77a11.8 11.8 0 01.42 1.867c.075.52.07.877.07.877zm1.309-3.605s-.059-.245-.102-.59c-.037-.352-.085-.803-.095-1.255-.016-.452 0-.91.016-1.26.02-.351.064-.596.064-.596s.132.213.244.553c.117.34.218.808.229 1.287.016.473-.059.951-.15 1.297a2.81 2.81 0 01-.206.564zM69.128 21.28s-.08-.272-.132-.67a8.849 8.849 0 01.095-2.925c.08-.4.181-.66.181-.66s.08.272.133.67a8.857 8.857 0 01-.096 2.925c-.085.393-.18.66-.18.66zm1.287 6.199s-.133-.144-.276-.372a5.122 5.122 0 01-.707-1.782c-.054-.265-.054-.462-.054-.462s.16.117.335.33a3.3 3.3 0 01.505.85c.139.335.197.691.218.968.016.276-.02.468-.02.468zm-4.955-3.126s-.218.047-.532.058a5.54 5.54 0 01-1.133-.09 5.362 5.362 0 01-1.084-.33 2.71 2.71 0 01-.474-.25s.218-.048.532-.058a5.208 5.208 0 012.217.42c.287.122.474.25.474.25zm8.108 16.6s-.138-.192-.292-.484a7.76 7.76 0 01-.771-2.25c-.059-.323-.064-.557-.064-.557s.17.165.35.446c.187.282.394.67.538 1.09.144.415.218.856.245 1.191.026.335-.006.564-.006.564zm-.218 2.871s.01-.074.01-.197c.011-.117-.026-.287-.095-.462-.138-.356-.489-.755-.883-1.08-.212-.18-.436-.34-.638-.526a3.514 3.514 0 01-.51-.569c-.266-.383-.276-.697-.276-.697s.18.24.505.484c.319.255.803.505 1.265.872.49.389.814.963.846 1.452.031.5-.245.728-.224.723zm14.59-16.265s-.095-.17-.17-.43a3.153 3.153 0 01-.117-.969c.006-.35.085-.701.176-.957.09-.255.197-.42.197-.42s.069.181.111.447c.043.26.08.606.07.946-.006.34-.064.68-.123.941a2.702 2.702 0 01-.144.442z"/></g><defs><clipPath id="clip0_2266_287"><path fill="#fff" d="M0 0h270v219.109H0z"/></clipPath></defs></svg>