<svg width="270" height="215" fill="none" xmlns="http://www.w3.org/2000/svg"><path d="M79.807 127.986c.456 5.127 1.771 10.152 3.974 14.749l-1 .069c.098-.343-.148-.697-.57-.927-.417-.226-.951-.251-1.28-.059-.01-.01-.27.172-.29.206a1.517 1.517 0 00-.235.255 2.629 2.629 0 00-.359.667c-.176.496-.24 1.07-.206 1.634.01.162.015.25.04.422.02.157.039.324.073.457.05.269.118.569.206.853.167.574.388 1.134.643 1.688.515 1.104 1.178 2.169 1.865 3.234l-1.413.682a1.032 1.032 0 00-.491-.515 1.677 1.677 0 00-.83-.177c-.142.01-.284.029-.407.078-.054.015-.137.059-.157.064a1.336 1.336 0 00-.22.133 2.131 2.131 0 00-.599.677c-.167.279-.28.603-.344.937a3.712 3.712 0 00-.048 1.04c.053.726.284 1.482.583 2.252.138.349.324.81.486 1.149.167.363.353.74.555 1.094.397.716.843 1.393 1.354 2.002a8.645 8.645 0 001.702 1.58c.314.215.643.392.982.549.338.152.692.26 1.05.353l8.376 2.12-8.626-.167-2.056-.039-1.026-.02c-.334-.009-.775-.009-.682 0a.387.387 0 00.079-.039c.068-.054.078-.078.088-.088.015-.025-.015.029-.03.132-.004.103-.063.677-.029.864.005.24.05.515.103.8.074.279.133.559.25.829.413 1.099 1.168 2.129 2.037 3.071.873.947 1.879 1.811 2.904 2.675l4.863 4.097-5.922-2.257c-.472-.182-.928-.309-1.271-.324-.368.015-.412.019-.574.23-.015-.019-.094.28.03.648.112.373.333.795.603 1.192.255.378.633.82.971 1.261l1.02 1.36a53.04 53.04 0 011.904 2.801 47.397 47.397 0 013.224 5.952c.461 1.026.928 2.051 1.286 3.189.353 1.124.574 2.365.427 3.631l-.177 1.536-1.163-.986-11.34-9.583.943-.486c.152 2.895.711 5.785 1.526 8.597.805 2.821 1.81 5.589 2.816 8.366l.717 1.967-1.394-1.56c-1.742-1.953-3.45-3.935-5.216-5.868l-5.264-5.82.716-.274c.03 2.757.437 5.505 1.035 8.204.623 2.703 1.423 5.363 2.233 8.037l.677 2.227-1.634-1.683-12.326-12.674 1.433-.49c-.29 3.739.034 7.517.977 11.128l2.139 8.194-3.95-7.517a33.53 33.53 0 00-4.215-6.202l1.855-.736c.21 3.131.535 6.251 1.016 9.347l.902 5.815-2.983-5.088a78.102 78.102 0 01-4.828-9.725 58.322 58.322 0 01-1.295-3.411c-.393-1.172-.727-2.409-.879-3.714a12.734 12.734 0 01-.073-.986l-.005-.525.014-.447a16.11 16.11 0 01.226-1.943c.442-2.468 1.163-4.686 1.03-6.727l2.547-.019c-.044.843-.442 1.575-.981 2.1-.545.52-1.29.888-2.135.898l-1.31.019.02-1.305a40.134 40.134 0 012.532-13.366l2.325.854c-.309.829-.642 1.781-1.32 2.694-.333.446-.784.903-1.32 1.212-.53.314-1.133.53-1.805.574-.657.054-1.457-.143-2.017-.55-.633-.422-1.02-1.065-1.231-1.648-.398-1.193-.314-2.228-.201-3.195a50.503 50.503 0 012.57-10.515l2.209.584a5.11 5.11 0 01-3.347 3.818l-.868.294-.437-.775a4.845 4.845 0 01-.427-.996 4.878 4.878 0 01-.166-1.05 5.833 5.833 0 01.274-1.963c.388-1.217 1.02-2.238 1.777-3.17.338-.412.736-.854 1.074-1.241.353-.403.692-.795 1.001-1.192.613-.79 1.09-1.61 1.261-2.464l1.443 1.011a26.194 26.194 0 01-6.055 2.571l-1.512.427.388-1.492 3.867-14.881.48-1.86c.172-.623.29-1.222.535-1.909.128-.338.305-.692.574-1.001.079-.088.113-.127.246-.24l.191-.143c.142-.093.373-.235.525-.289.682-.294 1.34-.383 1.943-.525.589-.137 1.153-.324 1.29-.687.03-.039.03-.103.05-.152.005-.015.02-.079.02-.054l.01-.118c-.006-.088-.006-.172-.055-.279a1.173 1.173 0 00-.466-.535c-.437-.3-.986-.329-1.536-.138-.55.177-1.074.525-1.6.884l-.554.377.103-.647a12.712 12.712 0 012.763-6.104l.186.147a12.307 12.307 0 00-2.385 6.03l-.45-.27c.51-.387 1.05-.795 1.712-1.045.637-.27 1.5-.294 2.158.118.33.191.629.476.81.859.093.181.142.422.142.652l-.005.118c-.01.103-.02.118-.029.182-.03.103-.034.211-.083.309-.157.422-.52.736-.85.903a5.315 5.315 0 01-.99.377c-.638.182-1.252.309-1.737.555-.143.064-.182.103-.305.181l-.186.152c.015-.009-.064.069-.088.103-.148.177-.255.408-.344.673-.172.525-.29 1.192-.437 1.805l-.417 1.875-3.35 15.004-1.124-1.069a24.933 24.933 0 005.578-2.513l1.82-1.113-.382 2.124c-.23 1.286-.878 2.385-1.565 3.307-.344.466-.702.898-1.055 1.315-.363.427-.677.795-1.02 1.227-.59.751-1.085 1.619-1.33 2.473-.123.427-.182.849-.152 1.232.014.191.048.372.098.544.054.172.132.329.22.486l-1.305-.476c.908-.314 1.664-1.222 1.81-2.154l2.209.584a54.79 54.79 0 00-2.326 10.078c-.103.775-.098 1.556.083 2.051.094.236.202.383.31.452.157.112.27.132.49.127a1.56 1.56 0 00.692-.235c.236-.138.412-.319.608-.579.383-.516.673-1.247.967-2.066l2.326.854a37.747 37.747 0 00-2.316 12.541l-1.286-1.285a.63.63 0 00.398-.192c.132-.127.201-.294.201-.392l2.547-.02c.171 2.758-.741 5.137-1.12 7.331a13.923 13.923 0 00-.205 1.594l-.02.447v.363c.01.265.025.525.05.795.107 1.065.377 2.144.725 3.224.349 1.079.776 2.188 1.203 3.272.431 1.09.893 2.164 1.373 3.234a75.055 75.055 0 003.2 6.256l-2.08.726a96.237 96.237 0 01-.899-9.563l-.132-3.15 1.992 2.414a34.985 34.985 0 014.332 6.668l-1.81.682a34.15 34.15 0 01-.746-11.761l.206-1.83 1.227 1.334 11.943 13.037-.957.55c-.736-2.694-1.477-5.402-2.032-8.16-.574-2.753-.971-5.559-.971-8.395v-1.085l.716.805 5.206 5.873c1.727 1.968 3.509 3.881 5.26 5.829l-.672.408c-1.045-2.763-2.095-5.535-2.949-8.386-.839-2.851-1.54-5.775-1.796-8.773l-.113-1.32 1.055.834 11.649 9.2-1.345.555c.162-1.924-.794-3.881-1.756-5.844a62.015 62.015 0 00-3.234-5.667 49.807 49.807 0 00-1.86-2.679l-.986-1.291c-.338-.437-.691-.829-1.07-1.364-.357-.515-.676-1.074-.897-1.761-.192-.673-.363-1.605.3-2.547a2.537 2.537 0 011.059-.854 2.939 2.939 0 011.261-.221c.77.03 1.389.241 1.953.442l-1.06 1.84c-1.084-.878-2.149-1.82-3.12-2.905-.962-1.079-1.87-2.306-2.41-3.783-.147-.358-.235-.75-.324-1.138a6.501 6.501 0 01-.132-1.237c-.01-.495.01-.608.069-1.182.044-.236.108-.52.294-.839a1.61 1.61 0 01.422-.476 1.76 1.76 0 01.53-.28c.363-.113.638-.098.839-.098l.52.015 1.026.034 2.056.069-.25 1.948a8.689 8.689 0 01-1.404-.491 8.848 8.848 0 01-1.276-.736c-.8-.559-1.482-1.236-2.075-1.962a15.05 15.05 0 01-1.526-2.316 16.143 16.143 0 01-.604-1.232 21.4 21.4 0 01-.51-1.251c-.314-.849-.599-1.767-.663-2.777a7.749 7.749 0 01-.004-.751 5 5 0 01.112-.795c.118-.51.31-1.011.599-1.472.29-.461.662-.873 1.168-1.202.152-.098.25-.147.338-.192a2.77 2.77 0 01.442-.176 3.248 3.248 0 012.537.284c.515.295.971.785 1.182 1.399l2.463 7.144-3.876-6.462c-.662-1.104-1.325-2.242-1.855-3.474a13.31 13.31 0 01-.662-1.914 9.129 9.129 0 01-.206-1.02c-.034-.182-.044-.334-.059-.496a4.746 4.746 0 01-.034-.535c-.015-.711.073-1.432.348-2.134.137-.348.324-.692.579-.996.128-.157.255-.29.432-.432.22-.172.225-.177.5-.329.825-.397 1.708-.26 2.405.133.348.201.672.49.888.883.225.388.284.918.142 1.349l-.456 1.379-.545-1.31c-2.007-4.823-3.15-9.99-3.238-15.167l.29-.019zm-3.955-55.554c-1 .339-1.938.751-2.816 1.286-.874.53-1.659 1.177-2.37 1.87-.353.353-.682.73-.981 1.118-.07.079-.025.103.01-.074.004-.19.01.089.004-.093-.014-.098-.024-.103-.044-.147-.034-.069-.064-.098-.073-.108-.015-.015.137.034.427.074.986.152 1.996.216 2.993.216l2.526.005-1.967 1.668c-1.02.863-1.914 1.86-2.704 2.924-.79 1.07-1.413 2.247-1.938 3.46l-1.168-1.478a121.94 121.94 0 014.225-.598l3.45-.447-2.62 2.154a30.978 30.978 0 00-5.8 6.305l-.256-.735a7.5 7.5 0 004.534.402l2.203-.5-1.918 1.177c-1.134.697-2.198 1.501-3.219 2.345a27.697 27.697 0 00-2.85 2.778l-.177-.864a5.183 5.183 0 003.096.132l.392 1.325c-.996.457-1.771 1.37-2.066 2.36l-.49-1.138c.451.162.927.245 1.398.23l3.087-.078-2.581 1.86c-1.237.893-2.356 1.953-3.376 3.115-1.02 1.173-1.943 2.449-2.826 3.774-.869 1.31-1.752 2.733-2.567 4.043-.81 1.315-1.393 2.645-1.53 3.945l-1.04-1.354c2.801.544 5.647.883 8.512 1l3.303.138-2.68 1.791c-1.06.706-2.08 1.403-2.958 2.203a9.432 9.432 0 00-1.202 1.276c-.354.451-.628.956-.913 1.531-.29.574-.589 1.197-1.07 1.771-.24.284-.54.559-.902.736-.354.186-.81.25-1.065.28-.28.029-.344.112-.358.157-.04.093.132.343.343.466.393.255 1.222.108 1.791.598l-.147.192c-.245-.148-.54-.157-.849-.152-.31 0-.657.049-1.05-.108-.344-.162-.731-.388-.83-.952-.068-.653.565-.996.894-1.065.368-.103.55-.167.75-.314.192-.142.359-.324.506-.55.294-.446.505-1.015.721-1.609.216-.599.476-1.266.849-1.874.363-.604.785-1.163 1.246-1.674.938-1.005 1.983-1.84 2.984-2.639l.623 1.928a46.136 46.136 0 01-8.955-.633l-1.109-.191.074-1.163c.117-1.963 1.01-3.636 1.874-5.074.898-1.442 1.82-2.718 2.782-4.082 1.928-2.66 4.141-5.343 7.115-7.14l.505 1.782a5.559 5.559 0 01-2.046-.525l-.81-.383.324-.755a5.462 5.462 0 013.244-3.028l.392 1.325a6.575 6.575 0 01-3.788-.51l-.74-.344.564-.52a48.05 48.05 0 013.11-2.64c1.065-.844 2.184-1.614 3.313-2.365l.284.677c-.824.206-1.678.27-2.527.25a9.245 9.245 0 01-2.522-.431l-.56-.172.305-.564a31.843 31.843 0 015.319-7.243l.829 1.708c-1.398.275-2.792.545-4.195.77l-1.875.3.707-1.777c.56-1.403 1.354-2.693 2.267-3.886a16.548 16.548 0 013.194-3.14l.56 1.673a16.756 16.756 0 01-3.273-.5c-.221-.069-.614-.103-1.05-.437a1.27 1.27 0 01-.329-.402 1.106 1.106 0 01-.108-.334c-.02-.245-.01-.03-.005-.29.064-.441.285-.637.383-.755.397-.402.81-.77 1.251-1.114a11.588 11.588 0 012.856-1.639 10.858 10.858 0 013.13-.78l.044.25z" fill="#153051"/><path d="M75.636 72.177l-1.452-.461-.236-.074.167-.191 5.089-5.903.441.555c-.525.304-1.08.618-1.727.805a3.245 3.245 0 01-1.03.122 2.136 2.136 0 01-1.06-.343 2.262 2.262 0 01-.77-.81 1.654 1.654 0 01-.182-1.217c.034-.196.196-.456.26-.55.108-.151.334-.372.5-.45.364-.212.736-.28 1.07-.32.667-.064 1.266-.03 1.781-.113.255-.039.466-.117.628-.22.025-.02.108-.069.089-.064l.157-.157c.02-.05.058-.098.098-.192.127-.328.049-.834-.152-1.315a5.959 5.959 0 00-.85-1.393l-1.04-1.305 1.659.28 2.36.397-.785.79a10.63 10.63 0 00-.75-2.282l-.938-2.04 1.943 1.138c.422.245 1.129.068 1.546-.383a1.21 1.21 0 00.338-.712l-.005-.171c-.02-.138-.024-.118-.049-.221a3.407 3.407 0 00-.196-.49l-.294-.57-.167-.339c-.05-.108-.088-.186-.142-.319a7.033 7.033 0 01-.28-4.455l.535-2.002 1.045 1.826a12.448 12.448 0 003.788 4.092l-1.212.157c.064-.093.118-.192.113-.417 0-.216-.06-.496-.152-.79-.197-.574-.52-1.32-.776-1.978l-1.629-4.067-.534-1.335 1.447.01c1.02.01 2.105-.643 2.62-1.56a2.92 2.92 0 00.29-.732c.063-.26.117-.633.235-1.055.118-.431.348-.937.736-1.334.363-.383.766-.618 1.124-.81l.971-.476c.324-.157.565-.299.859-.47a13.522 13.522 0 001.614-1.12 14.08 14.08 0 002.68-2.855l.784 1.678c-3.886-.275-7.762-.648-11.643-.967l-.834-.068-.113-.83c-.118-.858.108-1.697.446-2.36.339-.672.78-1.217 1.232-1.702.515-.535.864-.859 1.388-1.315.491-.432.982-.815 1.502-1.188a21.352 21.352 0 018.65-3.729 27.724 27.724 0 011.845-.275c.255-.034.481-.088.604-.147.132-.083.078-.03.103-.073.005.058.005-.113-.098-.3-.088-.181-.27-.451-.427-.701-.628-.962-1.394-1.948-2.022-3.077-.628-1.109-1.128-2.522-.883-3.96l.25-1.472 1.001 1.075a16.276 16.276 0 009.014 4.892c.702.128 1.369.22 1.825.02.457-.197.829-.751 1.227-1.374.422-.614.711-1.193 1.025-1.835 1.217-2.557 1.88-5.383 2.778-8.15.23-.692.466-1.384.736-2.071.274-.682.554-1.364.907-2.017.329-.662.726-1.295 1.158-1.899.427-.613.937-1.157 1.458-1.697l.711-.736-.078 1.03c-.226 2.92-.388 5.844-.584 8.764l-.285 4.381c-.074 1.467-.28 2.93 0 4.264.142.658.402 1.286.859 1.663.117.094.23.187.368.246l.098.049s.064.03.015.01l.063.02.26.083c.27.044.545.078.844-.01.584-.147 1.129-.555 1.595-1.045a8.885 8.885 0 001.217-1.678c.338-.599.643-1.276.967-1.934l.956-1.977 1.914-3.95 1.261-2.605-.103 2.91-.226 6.373-.108 3.19c-.019.544-.044 1.035.035 1.422.044.202.083.339.191.51.074.114.181.231.324.34.279.205.667.333 1.06.358.382.029.79-.064 1.187-.226.805-.334 1.555-.986 2.326-1.698a28.01 28.01 0 004.023-4.656l1.458 1.187c-.938 1.016-1.644 2.385-1.639 3.592.01.294.059.574.147.829.064.118.103.25.186.358.03.04.089.152.084.133l.186.23c.133.123.363.305.614.422.25.123.539.197.839.24a3.864 3.864 0 001.849-.215c.305-.108.56-.24.84-.427.186-.118.269-.196.402-.295.127-.107.26-.215.383-.333 1.001-.947 1.781-2.242 2.566-3.607l4.097-7.144-2.076 7.983c-.574 2.204-1.094 4.363-.878 6.384a6.16 6.16 0 00.309 1.447c.147.422.363.884.618 1.281.516.805 1.232 1.462 2.022 1.8.392.168.8.266 1.212.256.51-.01.795-.078 1.251-.24.829-.32 1.629-.947 2.375-1.693a24.214 24.214 0 002.105-2.458c.294-.413.53-.825.667-1.203.138-.382.157-.701.093-.996l2.464-.142a26.91 26.91 0 01-2.169 8.312 27.737 27.737 0 01-4.637 7.237l-.574-2.036c.957.294 2.036.28 3.037-.015 1.001-.294 1.914-.873 2.561-1.643l3.842-4.603-1.692 5.746-1.629 5.52-.628-1.443c.436.231 1.05.25 1.604.05.559-.197 1.016-.609 1.212-1.065l3.297-7.86-.961 8.473a23.816 23.816 0 01-1.983 7.174l-1.673-1.556a15.128 15.128 0 018.327-1.712l6.393.53-6.163 1.692c-1.187.324-2.301.678-3.076 1.266a3.345 3.345 0 00-.51.476l-.104.133-.024.034c.015-.02-.049.069.024-.044l-.014.024-.064.099c-.113.166-.093.191-.128.245-.137.353-.166.81-.073 1.202.098.398.309.682.51.77.103.06.206.074.437.064a.932.932 0 00.368-.137c.299-.177.628-.57.883-1.03.265-.462.471-.992.648-1.536l1.938.431a25.39 25.39 0 01-3.347 9.132l-.598-1.35c1.433.31 2.924.368 4.386.167l3.739-.515-3.145 2.031a17.016 17.016 0 00-2.767 2.233c-.844.849-1.629 1.757-2.09 2.748-.231.495-.373 1.01-.373 1.501-.005.236.034.515.098.697.054.181.098.22.127.294.064.084.118.187.201.265a2.1 2.1 0 001.222.663c.466.073.825-.069 1.045-.373l.707.898c-1.555.505-2.787 2.026-2.983 3.685l-.334-.525c1.487.579 3.43.02 4.392-1.325l.628.441a37.082 37.082 0 00-5.506 10.27l-.23-.074a37.44 37.44 0 015.112-10.647l.628.442c-1.123 1.692-3.375 2.492-5.363 1.85l-.363-.118.03-.403c.152-2.095 1.59-3.994 3.591-4.735l1.688-.628-.981 1.526a2.165 2.165 0 01-.996.83c-.407.171-.829.19-1.217.147a3.368 3.368 0 01-2.031-1.011c-.143-.138-.255-.3-.373-.466a2.927 2.927 0 01-.265-.545 3.523 3.523 0 01-.206-1.133c-.025-.756.167-1.472.437-2.11.559-1.29 1.422-2.306 2.291-3.248a18.653 18.653 0 012.954-2.537l.589 1.516a14.355 14.355 0 01-4.995-.044l-1.247-.236.648-1.118a23.521 23.521 0 002.934-8.504l1.938.432a10.031 10.031 0 01-.78 1.948c-.348.628-.79 1.29-1.555 1.791-.398.245-.795.432-1.394.476-.387.03-.937-.01-1.398-.24a2.988 2.988 0 01-1.129-.933 3.813 3.813 0 01-.559-1.202 4.25 4.25 0 01.108-2.507 4.4 4.4 0 01.289-.599l.059-.103.074-.113.044-.059.182-.24a6.12 6.12 0 01.843-.83c1.232-.951 2.586-1.339 3.798-1.712l.231 2.228a12.887 12.887 0 00-7.007 1.565l-3.145 1.727 1.472-3.282a21.39 21.39 0 001.752-6.453l2.335.619c-.505 1.182-1.516 2.007-2.615 2.404-1.099.402-2.399.427-3.552-.152l-.913-.456.284-.987 1.605-5.525 2.149 1.144c-1.987 2.36-5.27 3.35-8.238 2.473l-1.884-.555 1.31-1.482a25.235 25.235 0 004.185-6.59c1.035-2.399 1.747-4.945 2.022-7.54l.814-7.71 1.649 7.567c.181.834.059 1.693-.201 2.384-.26.697-.628 1.276-1.001 1.796-.383.52-.776.977-1.158 1.413-.388.447-.8.893-1.242 1.325-.883.859-1.913 1.703-3.238 2.203a5.87 5.87 0 01-2.115.378 5.325 5.325 0 01-2.129-.47c-1.32-.595-2.326-1.59-3.038-2.72a8.288 8.288 0 01-.849-1.825 8.709 8.709 0 01-.387-1.918c-.231-2.58.427-4.965 1.016-7.174l2.021.84c-.814 1.364-1.673 2.85-3.018 4.077a8.29 8.29 0 01-.52.437c-.186.137-.417.309-.569.397-.387.25-.844.476-1.295.623a6.004 6.004 0 01-2.846.27 4.802 4.802 0 01-1.433-.446 4.334 4.334 0 01-1.29-.992l-.187-.235c-.137-.167-.157-.24-.24-.363-.142-.221-.236-.466-.339-.712a4.748 4.748 0 01-.245-1.51c.02-.997.304-1.905.707-2.71.397-.814.927-1.53 1.54-2.178l1.458 1.188a28.127 28.127 0 01-4.407 4.882c-.809.696-1.697 1.472-2.875 1.933a4.224 4.224 0 01-1.928.294c-.663-.064-1.325-.284-1.889-.726a2.78 2.78 0 01-.727-.844 2.987 2.987 0 01-.333-.986c-.103-.663-.035-1.242-.01-1.757l.196-3.184.388-6.369 1.163.304-2.012 3.906-1.006 1.953c-.343.647-.648 1.3-1.045 1.967a9.882 9.882 0 01-1.403 1.835c-.55.55-1.227 1.06-2.071 1.262-.412.107-.888.088-1.325-.02l-.26-.084-.064-.02c-.093-.034-.068-.029-.108-.048l-.147-.074a2.46 2.46 0 01-.539-.363c-.673-.579-.972-1.403-1.129-2.159-.304-1.56-.059-3.052.02-4.49l.323-4.381c.207-2.92.447-5.84.624-8.759l.628.295c-.481.51-.952 1.025-1.345 1.61-.397.573-.77 1.177-1.074 1.815-.329.623-.589 1.285-.849 1.948a36.693 36.693 0 00-.692 2.026c-.859 2.738-1.487 5.599-2.723 8.297-.314.658-.658 1.384-1.045 1.973-.368.569-.746 1.369-1.629 1.81-.898.398-1.747.216-2.449.128a16.597 16.597 0 01-2.193-.471 17.567 17.567 0 01-7.694-4.529l1.251-.398c-.137.987.221 1.998.8 2.964.58.977 1.325 1.89 2.056 2.93.172.255.344.48.54.838.172.349.387.776.28 1.443-.079.564-.589 1.104-.997 1.286-.422.21-.79.284-1.133.343-.638.098-1.163.182-1.742.31-.564.122-1.124.274-1.678.446a21.281 21.281 0 00-6.153 3.12 18.48 18.48 0 00-1.34 1.08c-.387.334-.917.844-1.236 1.187-.746.795-1.236 1.698-1.114 2.385l-.952-.898c3.882.31 7.768.564 11.649.922l1.87.172-1.1 1.511a15.976 15.976 0 01-3.125 3.254c-.594.466-1.217.888-1.87 1.265a14.11 14.11 0 01-1 .53l-.933.442a2.523 2.523 0 00-.599.402c-.108.108-.196.25-.265.5-.078.256-.127.58-.235 1.007a4.938 4.938 0 01-.5 1.222c-.899 1.52-2.552 2.517-4.363 2.507l.913-1.325 1.585 4.082c.265.707.525 1.3.795 2.11.122.403.23.84.225 1.36.01.505-.162 1.148-.574 1.609l-.544.618-.668-.461a13.466 13.466 0 01-4.259-4.78l1.58-.18a5.376 5.376 0 00.113 3.375c.025.074.079.196.118.294l.123.26.299.619c.103.225.201.476.275.75.03.113.073.349.078.432.015.167.015.329.005.49a2.725 2.725 0 01-.8 1.635 3.204 3.204 0 01-1.516.829c-.579.123-1.251.059-1.806-.265l1.006-.903c.359.834.619 1.713.776 2.6l.171.982-.956-.191-2.35-.467.618-1.025c.392.525.736 1.09.98 1.727.231.628.423 1.399.099 2.218a1.984 1.984 0 01-.378.579l-.172.157c-.122.118-.181.133-.28.201a2.7 2.7 0 01-1.079.349c-.687.078-1.305.01-1.845.044-.265.02-.5.064-.667.152-.103.059-.103.054-.186.132-.108.152-.113.147-.148.25-.117.3.128.786.51 1.046.192.137.393.21.639.24.245.03.505 0 .765-.059.525-.123 1.05-.383 1.58-.662l1.938-1.016-1.501 1.57-5.378 5.643-.069-.265 1.423.545-.064.23z" fill="#153051"/><path d="M162.912 78.541a1.86 1.86 0 00.274 1.222c.221.358.555.638.923.765a1.523 1.523 0 00.579.094c.196 0 .392-.04.579-.103.373-.128.697-.373.888-.687l.623.402c-.574 1.026-1.369 1.84-1.889 2.728a4.456 4.456 0 00-.324.672 3.665 3.665 0 00-.191.692c-.079.461-.044.903.137 1.256l.084.152.073.104c.059.073.128.152.201.22.152.138.334.255.53.349a2.9 2.9 0 001.305.265c.265-.005.447-.035.707-.084.24-.044.476-.113.721-.186.486-.157.972-.363 1.482-.58l.442 1.483c-1.62.372-2.797 1.933-3.798 3.552-.525.814-.923 1.614-.844 2.179l.005.053v.015c-.02-.113-.005-.02-.005-.039l.01.044c.015.059.029.138.034.118 0-.015.03.064.059.108a.873.873 0 00.245.255.52.52 0 00.231.098c.049 0 .025-.005.039-.01l8.037-4.764-6.825 6.35c-.775.72-1.251 1.805-1.231 2.855l-.933-1.03a4.31 4.31 0 002.66-.668c.387-.25.726-.56.971-.908a3.71 3.71 0 00.309-.544 3.52 3.52 0 00.167-.584l2.066.603a31.8 31.8 0 01-6.57 9.711l-.79-1.659a5.597 5.597 0 003.116-1.158l2.841-2.193-1.472 3.219-.736 1.614-.368.805c-.123.27-.256.544-.314.721a.96.96 0 00-.049.216s0 .049-.005.015c.005.034.009.093.009.068-.009-.024.005.025.01.04.03.088.118.191.201.23.03.02.103.035.128.035a.405.405 0 00.152-.03.44.44 0 00.241-.216l1.236.609a12.09 12.09 0 00-1.84 4.322c-.069.354-.172.869-.157 1.055 0 .04.015.069.005.054.059.074-.005 0 .015.025.005.005.009.01.024.02.049.034.196.058.349.044.137-.005.343-.054.539-.103a5.25 5.25 0 00.52-.177 5.29 5.29 0 001.001-.54c1.271-.888 2.199-2.257 2.714-3.768.53-1.516.775-3.145.976-4.789l.726.108-.716 4.504-.358 2.252c-.113.756-.28 1.502-.167 2.115.029.152.074.295.137.422l.128.206.118.133c.206.191.481.319.78.373a2.472 2.472 0 001.796-.388l.167-.127.201-.192c.098-.103.211-.23.309-.363.196-.27.368-.564.51-.883.29-.638.491-1.34.687-2.071l.702-2.591.51 2.66.397 2.075-1.03-.446a6.878 6.878 0 002.807-4.553l1.609.318c-.152.81-.044 1.683.334 2.336a2.31 2.31 0 001.697 1.192c.349.049.643.005.952-.137.27-.123.565-.363.8-.653.118-.147.226-.309.324-.48l.147-.295c.059-.118.074-.181.113-.275.147-.373.265-.809.348-1.251.182-.898.241-1.894.422-2.944.094-.535.202-1.05.393-1.639.073-.225.167-.476.294-.77a8.72 8.72 0 01.373-.77c1.08-1.988 2.635-3.474 4.073-4.868l1.766 1.536c-.829 1.197-1.384 2.625-1.82 4.141l-.314 1.153-.295 1.168a8.429 8.429 0 00-.186 1.055c-.034.334-.034.658.005.918s.118.456.196.539c.039.044.069.089.128.118-.015-.005.088.054-.025-.005l.137.064c.118.054.015-.015.035.01a.84.84 0 00.466-.064c.206-.079.437-.221.643-.407.221-.211.343-.349.544-.677.148-.246.329-.604.491-.952.339-.717.697-1.585 1.369-2.419l1.624-2.017.623 2.502c.113.457.28.835.368.928.02.019.025.029.025.029h-.005c-.03-.01.064.02-.069-.019l.093.029c-.034-.015-.083-.015-.063-.01l.049-.01a.52.52 0 00.206-.132c.039-.034.059-.064.088-.103l.054-.088.049-.099c.138-.274.236-.696.329-1.211l.461-2.542 1.693 1.928c.113.128.309.241.574.28a1.521 1.521 0 00.967-.187l.157-.108.059-.049c.112-.093.23-.215.328-.348.206-.27.368-.608.481-.976a4.94 4.94 0 00.128-.56c.029-.22.044-.392.044-.584 0-.186-.02-.363-.054-.525a2.684 2.684 0 00-.064-.235 5.167 5.167 0 00-.108-.27c-.162-.368-.437-.82-.677-1.408a3.856 3.856 0 01-.28-1.055c-.044-.412.02-.903.211-1.31l2.051.118c-.054-.118-.108-.055.079-.025.073.01.162.005.221-.015a.549.549 0 00.073-.03c.138-.088.074-.043.147-.102.182-.147.373-.417.555-.756.177-.334.373-.76.51-1.114.299-.736.471-1.511.358-2.036-.068-.28-.132-.407-.392-.667-.26-.285-.697-.52-1.094-1.271a1.658 1.658 0 01-.148-.76c.015-.138.035-.285.084-.403.034-.083.019-.069.098-.236l.044-.073c.373-.574.8-.667 1.099-.766.309-.078.55-.098.736-.127-.005.005.197-.044.265-.059.054-.03.093-.024.167-.064.554-.23 1.05-.81 1.315-1.487.133-.353.216-.672.245-1.094.025-.353.01-.775-.044-1.172-.108-.81-.348-1.644-.603-2.493l-.314-1.045 1.01.22c.398.089.854-.093 1.217-.46a2.343 2.343 0 00.658-1.374c.014-.177.015-.31.01-.432a4.428 4.428 0 00-.049-.427 5.129 5.129 0 00-.236-.854c-.211-.569-.52-1.119-.849-1.668l-.162-.27.211-.196c.3-.28.692-.324.962-.305.289.01.535.055.756.064.446.03.647-.142.686-.623.015-.451-.014-.996-.014-1.487l-.03-1.516.241-.014.171 1.506c.05.515.133.976.153 1.53 0 .143-.01.29-.054.442-.04.148-.128.324-.241.442-.255.275-.628.344-.903.348-.549 0-1.074-.059-1.197.138l.049-.466c.383.534.756 1.099 1.05 1.732.147.314.27.647.358 1 .045.177.079.354.099.54.024.202.029.393.029.54-.01.422-.088.79-.236 1.153a3.569 3.569 0 01-.608.991 2.89 2.89 0 01-.976.731 2.338 2.338 0 01-1.286.192l.697-.825c.304.84.618 1.713.795 2.665.088.48.142.957.132 1.491a4.97 4.97 0 01-.26 1.526c-.334.987-.976 1.958-2.046 2.503-.118.069-.299.132-.451.186-.148.044-.162.054-.383.108-.255.054-.456.088-.579.133-.123.02-.133.127-.005-.064-.005.064.034-.206.005-.187.015.05.338.349.716.673.403.338.854.99.972 1.585.275 1.236-.03 2.271-.344 3.189-.176.48-.338.868-.559 1.335-.226.45-.51.956-1.001 1.403a3.488 3.488 0 01-.388.3 2.609 2.609 0 01-.525.264 2.7 2.7 0 01-1.094.147 2.429 2.429 0 01-1.128-.358 2.05 2.05 0 01-.864-1.104l2.051.118c-.02.059-.02.093-.01.186.015.094.059.236.138.412.157.354.427.77.701 1.325a4.602 4.602 0 01.491 1.914c.015.319 0 .652-.029.942a6.6 6.6 0 01-.177.937 5.36 5.36 0 01-.834 1.767 4.754 4.754 0 01-.707.77l-.235.191-.157.113a3.987 3.987 0 01-2.684.638c-.741-.088-1.531-.427-2.11-1.06l2.159-.618c-.093.525-.192 1.158-.506 1.845l-.127.255-.152.25a3.161 3.161 0 01-1.531 1.237 2.69 2.69 0 01-.726.162c-.246.019-.56 0-.854-.079l-.093-.029c-.192-.064-.162-.059-.251-.099a2.929 2.929 0 01-.353-.191 2.832 2.832 0 01-.569-.495c-.604-.727-.751-1.394-.913-1.953l2.248.485c-.373.452-.678 1.109-1.036 1.875-.186.392-.368.775-.647 1.236a5.485 5.485 0 01-1.011 1.222 4.695 4.695 0 01-1.443.888 3.442 3.442 0 01-1.953.162 3.942 3.942 0 01-.549-.186l-.138-.064c-.206-.103-.181-.108-.284-.167a3.068 3.068 0 01-.771-.716c-.426-.57-.593-1.193-.667-1.737a6.178 6.178 0 01.01-1.541c.054-.461.162-.967.265-1.369l.329-1.217.358-1.217c.505-1.624 1.168-3.302 2.247-4.798l1.767 1.535c-1.463 1.355-2.856 2.684-3.725 4.235a6.865 6.865 0 00-.294.579 6.277 6.277 0 00-.255.633 8.907 8.907 0 00-.324 1.28c-.177.923-.285 1.934-.525 2.998a9.226 9.226 0 01-.52 1.625c-.064.137-.138.309-.196.412l-.206.368a5.24 5.24 0 01-.545.745c-.417.472-.913.889-1.57 1.158a3.612 3.612 0 01-1.997.216c-1.296-.216-2.434-1.099-2.988-2.232-.56-1.129-.619-2.38-.349-3.523l1.61.319a8.358 8.358 0 01-3.68 5.387l-.884.56-.147-1.006-.304-2.09 1.207.073c-.231.726-.476 1.487-.849 2.218a5.725 5.725 0 01-.677 1.055c-.132.167-.28.324-.451.486l-.221.191-.295.211a3.435 3.435 0 01-2.571.437 2.507 2.507 0 01-1.217-.663c-.088-.088-.176-.206-.25-.304-.054-.098-.078-.123-.162-.285a2.479 2.479 0 01-.206-.657c-.137-.898.089-1.673.201-2.409l.393-2.247.79-4.495.726.108c-.226 1.639-.422 3.322-.976 4.946-.55 1.614-1.487 3.175-2.92 4.244a6.301 6.301 0 01-1.158.677 4.812 4.812 0 01-.652.241c-.202.054-.403.118-.673.157-.255.024-.539.039-.873-.098a1.126 1.126 0 01-.662-.864c-.049-.329-.005-.564.009-.77a13.396 13.396 0 011.86-5.52l3.44-5.682-2.208 6.29a1.838 1.838 0 01-.942 1.045 1.843 1.843 0 01-.702.187c-.27.014-.496-.03-.741-.118a1.94 1.94 0 01-1.035-.977c-.054-.122-.094-.21-.128-.382l-.029-.152c-.015-.108-.015-.138-.015-.206a2.43 2.43 0 01.083-.658c.108-.392.236-.652.339-.927l.329-.825.652-1.648 1.364 1.025a7.468 7.468 0 01-4.072 1.757l-2.557.27 1.762-1.929a33.494 33.494 0 006.001-9.22l3.405-7.81-1.34 8.42a4.703 4.703 0 01-.878 2.05 5.654 5.654 0 01-1.58 1.443 6.394 6.394 0 01-4.004.937l-.937-.098.005-.933a5.837 5.837 0 011.973-4.352l1.212 1.585c-.408.27-.952.368-1.394.294a2.508 2.508 0 01-1.133-.485 2.807 2.807 0 01-.751-.85 2.409 2.409 0 01-.245-.573c-.045-.138-.045-.182-.059-.246l-.01-.044-.015-.083-.005-.034-.01-.133c-.054-.716.143-1.374.388-1.909.123-.27.26-.52.402-.755.148-.24.28-.452.427-.668.569-.858 1.212-1.712 2.022-2.468.8-.75 1.83-1.398 3.008-1.609l.441 1.482c-.52.191-1.065.392-1.644.544a7.418 7.418 0 01-.897.187c-.29.044-.658.069-.943.059a4.28 4.28 0 01-1.894-.49 3.354 3.354 0 01-.819-.61 3.32 3.32 0 01-.334-.407l-.147-.245-.103-.216c-.284-.657-.284-1.374-.137-1.992a4.53 4.53 0 01.319-.883c.127-.27.299-.56.461-.79.682-.972 1.521-1.703 2.095-2.571l.623.402a2.374 2.374 0 01-1.32.874 2.466 2.466 0 01-1.167.014 2.927 2.927 0 01-.373-.127 2.242 2.242 0 01-1.06-1.07 2.274 2.274 0 01-.211-.711 1.972 1.972 0 01.034-.727l.241.01zm75.072-23.091a5.511 5.511 0 002.924-.706l.643-.358-.245.72a56.063 56.063 0 00-1.752 6.39l-.471-.712c1.168.147 2.409-.319 3.184-1.158l-.186.363c-.01.044-.054.27.206.51.26.182.378.113.397.123.069-.015.025 0 .02.01-.015.01-.005.03.025-.04l-.094.28-.417 1.222-.834 2.449a235.078 235.078 0 01-1.698 4.882l-.927-1.266 2.458-.162 2.93-.192-2.253 1.919c-.706.599-1.231 1.28-1.285 1.86.005-.064-.005.088-.01.122 0 .05.01.03.005.05a1.07 1.07 0 00.201.52c.157.206.29.24.344.225l.363 2.051c-.682.182-1.335.658-1.757 1.261-.427.604-.594 1.315-.456 1.919l.005.03c.005.019-.04-.148-.02-.08v.005l.005.01.005.02.029.088.054.177c.039.103.059.088.074.147.059.108.157.245.265.353.216.23.51.417.824.54.314.118.643.162.927.128.143-.02.265-.06.388-.103a1.44 1.44 0 00.314-.206l1.045 1.751c-1.379.388-2.654 1.173-3.67 2.208a7.03 7.03 0 00-.368.403c-.113.132-.245.29-.334.417-.201.274-.343.54-.407.775a.993.993 0 00-.039.339c0 .014.024.157.064.225.088.177.196.236.235.245l2.566.501-2.198 1.05c-.598.285-1.084.888-1.31 1.59-.23.701-.206 1.491.128 2.12l.839 1.584-1.629-.623c-.776-.3-1.781-.098-2.503.471-.353.285-.652.648-.814 1.065a2.367 2.367 0 00-.152.657c-.025.226-.005.462.039.692.088.461.299.898.603 1.251a2.31 2.31 0 00.844.614c.094.034.192.073.31.098.902.24 1.982-.123 2.507-.878l.387.588c-1.275.25-2.463 1.021-3.248 2.086a5.853 5.853 0 00-.903 1.752 5.178 5.178 0 00-.23 1.928l-.221-.334a4.136 4.136 0 002.586.349l.049.853a6.19 6.19 0 00-1.246.079 5.405 5.405 0 00-1.198.368c-.765.338-1.462.839-2.075 1.428-1.212 1.192-2.115 2.718-2.625 4.347-.501 1.624-.726 3.405-.182 4.838.27.721.722 1.256 1.34 1.649.603.368 1.28.5 1.83.319l-.113 1.746c-1.393-.588-3.194-.476-3.93.457l-.039.039-.005.005v.005l.054-.069-.01.02-.025.034-.093.142c-.093.123-.044.113-.069.147a1.508 1.508 0 00-.073.344c-.025.27.024.574.127.839.108.265.27.496.427.608.079.064.152.084.211.108a.57.57 0 00.206 0l-.167 2.145a.874.874 0 00-.544.029.905.905 0 00-.255.142c-.035.03-.069.059-.098.094-.015.014-.079.108-.045.049l-.078.142c.005.005 0 .01 0 .01a.9.9 0 00-.044.412.778.778 0 00.211.471l1.845 1.786-2.625.172a14.1 14.1 0 00-3.288.618c-.505.162-1.114.388-1.496.579-.187.098-.29.186-.324.24.147-.225-.182.29-.059.128.029-.064 0 .005.01.024-.015.113.098.476.373.786a2.802 2.802 0 00.696.603l.349.196c.481.26 1.06.53 1.668.928.599.387 1.281.961 1.693 1.796l1.03 2.07-2.301-.221c-2.419-.23-4.863-.157-7.277.128-.603.074-1.187.157-1.692.294-.511.133-.947.319-1.276.57-.025.019-.113.093-.084.063l-.157.147c-.019.03-.083.094-.137.172a1.787 1.787 0 00-.231.491c-.093.348-.044.603.064.746l1.806 2.399-2.934-.451a19.375 19.375 0 00-5.511-.074 18.91 18.91 0 00-5.328 1.516l.569-.814a1.41 1.41 0 00.427 1.172l1.624 1.477-2.159.206c-2.915.28-5.839.506-8.763.736l-2.184.177c-.701.064-1.374.167-1.918.427a2.16 2.16 0 00-.697.505c-.147.162-.265.432-.309.702-.108.559.103 1.133.53 1.256l2.988.859-3.072.034c-2.644.03-5.216-1.187-6.795-3.184l.181-.157c1.732 1.751 4.22 2.669 6.57 2.443l-.083.888a1.685 1.685 0 01-1.148-.912 2.468 2.468 0 01-.246-1.35c.049-.451.187-.903.501-1.31a3.287 3.287 0 011.02-.844c.766-.417 1.566-.564 2.311-.682l2.184-.309c2.905-.407 5.804-.824 8.714-1.182l-.53 1.683a3.364 3.364 0 01-1.158-2.812l.039-.549.525-.261c3.685-1.83 7.925-2.566 12.051-2.026l-1.128 1.948a3.067 3.067 0 01-.614-1.438c-.073-.5-.029-.981.084-1.428a4.101 4.101 0 01.996-1.8l.181-.182.28-.235c.672-.525 1.428-.835 2.13-1.031.711-.201 1.383-.304 2.031-.392 2.596-.373 5.24-.398 7.851-.152l-1.271 1.849c-.133-.265-.388-.525-.8-.794-.407-.27-.927-.516-1.506-.849l-.437-.26a4.38 4.38 0 01-.491-.354 5.266 5.266 0 01-.839-.849c-.481-.623-.942-1.432-.878-2.541a2.55 2.55 0 01.216-.859c.226-.446.073-.186.397-.657a3.438 3.438 0 011.114-.849c.712-.334 1.251-.506 1.904-.707a16.296 16.296 0 013.857-.647l-.786 1.957a3.091 3.091 0 01-.804-1.849 3.248 3.248 0 01.068-.997 3.82 3.82 0 01.157-.49l.138-.285.083-.137c.152-.236.221-.309.354-.457a3.098 3.098 0 011.261-.809 3.078 3.078 0 011.992-.02l4.411 1.502-4.578.642a2.817 2.817 0 01-1.143-.058 2.873 2.873 0 01-.992-.506 3.478 3.478 0 01-1.108-1.594 3.994 3.994 0 01-.202-1.836c.045-.328.113-.613.275-.966.079-.167.201-.393.255-.452l.098-.137.108-.142.079-.084c.834-.922 2.036-1.339 3.111-1.393a6.648 6.648 0 013.101.594l2.379 1.064-2.492.687c-1.202.329-2.439-.024-3.322-.657a4.924 4.924 0 01-1.879-2.581c-.319-1.001-.349-2.036-.231-2.998.059-.486.147-.952.265-1.423.113-.442.265-.918.427-1.359.662-1.786 1.722-3.415 3.15-4.691.717-.633 1.531-1.163 2.434-1.511a7.607 7.607 0 011.398-.388 7.28 7.28 0 011.453-.069l3.984.172-3.935.682a4.989 4.989 0 01-3.106-.471l-.206-.108-.015-.226a5.913 5.913 0 01.299-2.227 6.533 6.533 0 011.055-1.958c.231-.29.486-.564.751-.82.275-.25.564-.485.873-.696a5.933 5.933 0 012.061-.869l.932-.191-.544.78c-.741 1.06-2.095 1.511-3.322 1.261-1.276-.255-2.233-1.364-2.502-2.576a3.799 3.799 0 01-.104-.942c.015-.353.059-.623.162-.952.202-.623.589-1.163 1.06-1.59.952-.839 2.326-1.26 3.661-.863l-.79.962c-.584-.967-.682-2.145-.408-3.195.275-1.05.938-2.05 1.968-2.63l.368 1.55a1.908 1.908 0 01-1.035-.333 2.28 2.28 0 01-.658-.721c-.157-.29-.26-.54-.309-.927a2.729 2.729 0 01.039-.869c.118-.56.358-1.025.614-1.423.137-.216.255-.373.397-.56.137-.176.275-.353.427-.52 1.178-1.358 2.753-2.36 4.48-2.919l4.239-1.369-3.194 3.12c-.26.256-.559.472-.883.639a3.65 3.65 0 01-1.021.304 4.143 4.143 0 01-1.958-.236 4.374 4.374 0 01-1.619-1.05c-.23-.245-.432-.5-.613-.819a5.917 5.917 0 01-.236-.515l-.059-.177-.029-.088-.034-.123-.01-.059c-.304-1.325.122-2.66.839-3.636.721-.986 1.747-1.727 2.968-2.04l.363 2.05a2.295 2.295 0 01-1.334-.284 2.742 2.742 0 01-.898-.82 3.128 3.128 0 01-.559-1.6 3.702 3.702 0 010-.333l.024-.255c.103-.716.442-1.34.82-1.83a7.693 7.693 0 011.231-1.237l.677 1.727-2.463.084-1.433.049.506-1.315c.618-1.61 1.256-3.21 1.903-4.804l.967-2.4.481-1.196.132-.324a1.31 1.31 0 01.432-.53c.167-.118.314-.211.599-.265.127-.01.358-.079.706.167a.841.841 0 01.285.804l-.034.216-.157.152a5.052 5.052 0 01-4.333 1.325l-.648-.113.182-.598a55.922 55.922 0 012.326-6.315l.402.363a5.7 5.7 0 01-3.204.432l.064-.246z" fill="#153051"/><path d="M183.431 143.687a3.6 3.6 0 00-1.948-.888c-.696-.098-1.413.044-1.943.427l-.201.162-.147.157a2.356 2.356 0 00-.52 1.295c-.049.623.162 1.227.574 1.536l-.859.927c-1.457-1.305-3.366-2.031-5.333-2.556-.972-.27-1.909-.397-2.478-.113l-.054.025c.078-.039-.03.019-.035.024l-.083.049a.05.05 0 01-.005.015s-.078.069-.108.118a1.027 1.027 0 00-.181.358.572.572 0 00-.015.299c.02.059.029.059.054.074l-1.237 1.555c-1.118-.848-2.639-1.158-4.214-1.109-.785.025-1.595.118-2.395.265-.711.143-1.452.383-1.864.727-.206.171-.324.333-.373.52l-.02.068c.005-.034-.015.079.01-.073v.01l-.005.019-.005.04-.01.078c-.024.147 0 .132-.005.142 0 .054.02.172.059.265.143.412.663.893 1.251 1.114.148.064.295.103.442.133.02.009.187.029.275.044l.245.029a8.89 8.89 0 001.163.02c.815-.03 1.712-.133 2.674-.074l.049 1.673c-1.325.054-2.674 1.026-3.248 2.341-.142.329-.24.672-.28 1.025-.039.373.01.447.098.476.182.089.683.113 1.085.162.417.044.829.089 1.241.113 1.654.123 3.317.177 4.941-.054.81-.108 1.61-.294 2.375-.554a8.094 8.094 0 001.114-.476c.363-.177.702-.393 1.045-.609l.133.677c-.727-.152-1.517.231-2.071.815-.28.28-.52.638-.712 1.001a13.92 13.92 0 00-.544 1.182c-.172.413-.334.839-.535 1.266-.216.452-.422.81-.692 1.232-.505.78-1.06 1.501-1.56 2.223-.496.721-.952 1.447-1.188 2.203-.127.373-.191.75-.196 1.123-.024.412.054.692.133.702-.045-.029.289.083.657.029a8.21 8.21 0 001.222-.171 9.042 9.042 0 002.281-.82l.751 1.732a12.07 12.07 0 00-4.126 2.733 4.78 4.78 0 00-.471.545 1.445 1.445 0 00-.231.451.466.466 0 00-.02.157v-.058.029l.005.054.01.113c.01.01.01-.01.01 0a.794.794 0 00.201.309c.221.235.618.466 1.04.599.103.029.201.058.358.093l.388.083.903.177c.633.137 1.389.343 2.09.834l2.586 1.796-3.165.358c-.51.059-1.03.343-1.413.765s-.613.962-.623 1.458l-.756-1.207 2.282.971 3.587 1.526-3.798.898c-1.85.437-3.577.927-4.642 1.968l-.206.216-.127.161a3.261 3.261 0 00-.609 1.404 2.3 2.3 0 00.02.922c.054.265.211.52.343.658.236.24.466.373.829.53.349.142.761.255 1.217.373.928.24 1.835.471 2.733.642 1.796.349 3.572.432 5.147-.112l.334 1.962a9.766 9.766 0 00-2.473.162c-.819.157-1.624.412-2.399.746a10.512 10.512 0 00-4.014 3.071l-.304-.986a14.67 14.67 0 005.392 1.04l.103.756c-1.403.236-2.747 1.03-3.665 2.208l-.201-.132c.78-1.355 2.129-2.395 3.7-2.822l.103.756c-1.953.216-3.97.024-5.874-.589l-.795-.255.491-.726c1.084-1.605 2.581-2.925 4.308-3.842a11.898 11.898 0 015.687-1.408l5.019.019-4.685 1.938c-2.061.854-4.284.771-6.261.471a46.446 46.446 0 01-2.915-.564 10.81 10.81 0 01-1.55-.446c-.535-.202-1.158-.545-1.61-.987-1.109-1.055-1.364-2.541-1.182-3.763a5.648 5.648 0 01.559-1.766 6.27 6.27 0 01.486-.795l.324-.403.294-.304c.864-.824 1.894-1.369 2.89-1.747 1.001-.382 1.992-.623 2.939-.848l-.216 2.418-2.267-1.015-.799-.358.044-.849c.064-1.183.594-2.243 1.354-3.033.761-.79 1.796-1.349 2.959-1.452l-.574 2.159c-.28-.211-.697-.368-1.227-.496l-.859-.191-.485-.118a8.902 8.902 0 01-.506-.147c-.711-.255-1.398-.618-1.987-1.271a3.036 3.036 0 01-.677-1.241 3.425 3.425 0 01-.074-.442l-.01-.314c.005-.255.05-.5.118-.726.295-.917.849-1.472 1.33-1.923.476-.442.981-.849 1.516-1.217a14.097 14.097 0 013.435-1.752l.75 1.732a9.92 9.92 0 01-4.283.957c-.505-.029-1.168.044-1.879-.633-.26-.27-.417-.711-.447-1.011-.044-.324-.015-.574.005-.839a5.111 5.111 0 01.373-1.501c.378-.942.947-1.722 1.511-2.444.569-.721 1.153-1.393 1.669-2.095.23-.319.505-.731.691-1.079.202-.378.393-.776.579-1.188.378-.814.785-1.702 1.512-2.399.353-.339.77-.628 1.241-.825a2.667 2.667 0 011.541-.157l.888.187-.756.491c-1.467.951-3.15 1.511-4.843 1.771-1.697.245-3.41.294-5.098.24l-1.266-.034c-.427-.039-.785.039-1.403-.137a1.374 1.374 0 01-.481-.285 1.248 1.248 0 01-.309-.451c-.132-.334-.132-.624-.128-.869a5.16 5.16 0 01.27-1.418c.643-1.806 2.272-3.268 4.313-3.538l.049 1.674c-.76.004-1.575.152-2.468.255a10.83 10.83 0 01-1.413.078l-.397-.019c-.128-.015-.172-.01-.363-.045a4.27 4.27 0 01-.8-.206c-1.006-.368-1.973-1.02-2.512-2.203a2.82 2.82 0 01-.211-1.482l.034-.24.064-.24c.176-.648.603-1.203 1.06-1.575.456-.383.947-.619 1.423-.805a8.028 8.028 0 011.437-.393 18.02 18.02 0 012.733-.25c.928 0 1.884.074 2.831.329.947.24 1.88.692 2.665 1.339l-1.237 1.556a2.126 2.126 0 01-.741-1.251 2.563 2.563 0 01.098-1.261c.128-.378.319-.717.579-1.011.138-.157.251-.27.467-.422l.152-.103.088-.049.137-.074.128-.054c.687-.289 1.403-.309 2.012-.231.613.079 1.182.251 1.688.422 2.046.673 4.16 1.615 5.731 3.288l-.859.927a2.656 2.656 0 01-.751-1.261 3.066 3.066 0 01-.039-1.378c.088-.442.26-.864.51-1.237.128-.186.27-.353.437-.515a3.27 3.27 0 01.275-.226l.265-.172c.775-.431 1.683-.485 2.473-.284a3.863 3.863 0 012.011 1.261l-.152.186zM71.515 73.478l-2.86-5.359c-2.97-5.569-6.04-11.324-7.45-17.654-.745-3.356-1.064-7.13-.985-11.536.049-2.644.29-5.397 1.717-7.615.957-1.482 2.748-2.595 4.328-1.85.682.32 1.143.923 1.51 1.404a188.013 188.013 0 0010.82 12.9c.84.912 1.61 1.717 2.527 2.271 1.197.727 2.63 1.02 4.014 1.305l-.24 1.183c-1.419-.29-3.023-.623-4.397-1.452-1.055-.638-1.89-1.502-2.792-2.488a191.508 191.508 0 01-10.893-12.983c-.319-.417-.652-.849-1.065-1.045-.942-.442-2.144.397-2.801 1.413-1.33 2.066-1.487 4.69-1.526 6.982-.079 4.313.23 7.993.957 11.256 1.369 6.168 4.4 11.85 7.335 17.35l2.86 5.358-1.06.56zm95.504-16.708l-.643-1.02c4.538-2.876 6.992-8.248 8.793-13.12 3.135-8.48 4.676-15.56 4.857-22.277.069-2.561-.103-6.217-2.394-8.38-.123-.114-.275-.246-.398-.27-.235-.045-.584.274-.741.407-2.649 2.3-4.975 5.059-7.232 7.728-2.954 3.503-6.011 7.12-9.853 9.798-1.05.736-2.345 1.428-3.753 1.448l.024-1.202c1.07.005 2.144-.609 3.037-1.232 3.71-2.586 6.713-6.148 9.618-9.588 2.281-2.703 4.641-5.5 7.36-7.865.309-.265.947-.824 1.736-.682.442.079.776.348 1.016.579 2.64 2.493 2.846 6.492 2.772 9.288-.181 6.855-1.751 14.053-4.931 22.664-1.859 5.064-4.426 10.653-9.268 13.724zm69.154-14.204c-.711-3.111-1.423-6.723 1.158-9.206 1.88-1.805 4.877-2.531 7.385-2.948 5.853-.977 13.753 2.693 14.69 9.033.835 5.677-5.274 10.456-10.225 11.555-2.512.56-6.065 1.09-8.405-.177-2.851-1.54-3.582-5.559-4.666-8.424-.275-.717-1.438-.408-1.163.319 1.089 2.87 1.967 7.296 4.779 9.077 2.551 1.614 6.545 1.02 9.322.466 5.908-1.187 12.876-6.79 11.487-13.503-1.354-6.54-9.357-10.53-15.603-9.598-3.145.471-7.036 1.443-9.112 4.068-2.223 2.807-1.541 6.442-.805 9.651.172.761 1.33.442 1.158-.313z" fill="#153051"/><path d="M240.55 30.186c-1.904-3.396-6.133-5.952-10.019-4.318-5.035 2.12-6.065 8.351-6.114 13.155-.054 5.642 1.663 10.152 5.436 14.42 3.749 4.24 7.679 2.478 10.25-1.835.398-.667-.642-1.275-1.04-.608-1.693 2.846-4.627 5.235-7.733 2.272-1.182-1.134-2.144-2.635-3.042-4.004-2.129-3.253-2.703-6.408-2.664-10.245.034-3.695.495-7.831 3.273-10.574 3.449-3.405 8.439-1.536 10.618 2.345.378.672 1.418.069 1.035-.608z" fill="#153051"/><path d="M227.773 27.845c-3.479-2.39-6.796-.81-8.827 2.38-2.591 4.068-3.243 9.141-2.355 13.827.917 4.833 3.425 9.877 7.198 13.106 1.114.952 2.262 2.1 3.847 1.703 1.923-.486 3.444-2.503 4.396-4.102.397-.668-.643-1.276-1.04-.609-1.143 1.924-3.042 4.205-5.339 2.964-1.271-.687-2.389-2.032-3.253-3.155-2.09-2.709-3.641-5.903-4.435-9.23-.761-3.194-.776-6.584.161-9.744 1.134-3.818 4.412-9.27 9.039-6.095.637.432 1.241-.608.608-1.045z" fill="#153051"/><path d="M218.931 30.995c-11.31-4.273-10.569 11.752-8.572 18.587 1.114 3.803 3.263 8.508 6.968 10.407 2.723 1.398 7.414 1.344 8.685-1.855.284-.721-.879-1.035-1.163-.319-.363.913-2.768 1.63-3.72 1.703-.687.054-1.54-.005-2.198-.177-1.511-.397-2.728-1.54-3.694-2.718-2.066-2.507-3.342-5.623-4.088-8.758-.667-2.822-1.035-5.844-.819-8.744.132-1.786.422-4.053 1.462-5.579 1.762-2.59 4.318-2.326 6.81-1.384.736.275 1.051-.888.329-1.163z" fill="#153051"/><path d="M210.977 32.89c-10.858-3.828-7.575 16.27-6.157 21.26a42.323 42.323 0 002.836 7.336c.888 1.78 1.786 3.807 3.822 4.484 4.014 1.335 6.997-2.325 8.714-5.387.378-.677-.662-1.286-1.04-.609-.8 1.428-1.649 2.876-2.993 3.857-1.227.898-1.953 1.075-3.489.898-1.771-.201-2.33-.996-3.258-2.483-1.756-2.811-2.88-6.212-3.699-9.406-1.085-4.205-3.96-21.923 4.946-18.783.731.255 1.045-.907.318-1.168zm32.208-2.562c.633-1.231 1.05-2.507 1.398-3.847.324-1.256.574-3.93 1.521-4.867 1.252-1.246 1.482-.01 1.919.8.456.844.883 1.707 1.271 2.586.755 1.717 1.349 3.488 1.84 5.294.201.746 1.364.432 1.163-.32a38.245 38.245 0 00-2.572-6.888c-.52-1.055-1.339-3.582-2.845-3.64-1.35-.055-2.027 1.898-2.4 2.899-.907 2.434-1.133 5.04-2.33 7.375-.359.687.682 1.3 1.035.608zm10.142 20.118a44.17 44.17 0 01.319 4.553c.01.756.025 1.526-.034 2.282-.138 1.874-1.561 2.36-2.944 1.32-2.277-1.713-3.999-4.02-5.687-6.281-.457-.613-1.507-.015-1.04.608 1.275 1.708 2.556 3.435 4.067 4.946 1.011 1.006 2.714 2.826 4.254 2.915 4.058.23 2.517-8.253 2.272-10.348-.088-.756-1.295-.766-1.207.005zm4.98-15.427c1.767.412 10.937.181 9.701 3.415-.545 1.428-3.621 2.645-4.868 3.003-1.251.363-2.497.461-3.65 1.109-.677.378-.069 1.418.608 1.04 2.066-1.158 4.514-1.114 6.575-2.458 1.178-.77 3.538-2.434 3.312-4.102-.216-1.61-2.34-1.615-3.493-1.973-2.62-.814-5.206-.579-7.861-1.197-.755-.172-1.079.986-.324 1.163zm-14.499 4.151c.761-1.124 1.904-1.919 3.248-2.164.78-.142 1.929-.142 2.552.422.652.594.652 1.688.427 2.454-.408 1.373-1.659 2.463-3.028 2.811-.854.216-1.707.196-2.306-.515-.441-.525-1.187-2.336-.549-2.89.588-.51-.27-1.36-.854-.854-1.556 1.345-.093 4.735 1.594 5.397 2.208.869 4.917-.824 5.933-2.742 1.006-1.91.633-4.632-1.728-5.231-2.453-.618-4.975.682-6.334 2.694-.432.657.613 1.256 1.045.618z" fill="#153051"/><path d="M167.514 57.982c6.285-.618 12.497-1.33 18.655-2.748 2.714-.623 5.447-.839 8.111-1.687 3.356-1.07 6.673-2.258 10.01-3.39.731-.251.417-1.414-.319-1.164-3.023 1.026-6.036 2.07-9.063 3.077-2.708.902-5.412 1.216-8.184 1.795-6.389 1.34-12.709 2.272-19.21 2.91-.765.079-.77 1.28 0 1.207zm-.363 36.913c3.283-2.645 6.58-5.3 9.548-8.297 3.111-3.14 5.972-6.02 9.559-8.65 7.227-5.29 14.656-10.305 22.016-15.403.633-.436.029-1.481-.609-1.04-7.679 5.314-15.441 10.54-22.953 16.09-3.165 2.335-5.741 4.94-8.479 7.757-3.071 3.16-6.511 5.927-9.936 8.69-.598.485.255 1.334.854.853zM68.443 66.044c-10.024.225-19.175 4.298-28.12 8.45-8.626 3.998-17.59 8.218-23.822 15.661-5.706 6.816-7.615 15.383-6.276 24.097.609 3.95 1.61 8.866 4.112 12.115 2.316 3.002 6.296 4.842 9.819 5.986 10.79 3.498 22.158.569 32.575-2.792.736-.236.422-1.399-.319-1.163-10.996 3.547-23.37 6.737-34.489 1.82-2.154-.952-4.558-2.257-6.148-4.018-2.08-2.301-2.949-5.771-3.68-8.719-1.364-5.525-1.605-11.438.024-16.933 3.239-10.908 13.268-17.473 22.93-22.237 10.416-5.138 21.55-10.8 33.39-11.065.775-.015.78-1.217.004-1.202z" fill="#153051"/><path d="M65.51 65.632c-3.495-2.414-6.37-5.172-9.486-8.028-1.295-1.187-3.213-3.61-5.245-2.59-2.041 1.02-2.502 4.587-2.968 6.481-.84 3.42-1.948 6.85-1.767 10.403.04.77 1.242.775 1.202 0-.142-2.807.594-5.466 1.256-8.165.275-1.124.535-2.247.825-3.366.628-2.414.76-4.917 4.597-3.018 2.115 1.05 3.93 3.857 5.687 5.388 1.659 1.442 3.48 2.689 5.285 3.94.647.437 1.251-.609.613-1.045zM38.14 75.19c-2.954-2.689-6.153-5.04-9.662-6.958-1.54-.844-3.763-3.12-5.662-2.09-2.095 1.133-1.982 4.612-2.208 6.624-.5 4.51-.466 9.033-.005 13.547.079.766 1.28.77 1.202 0-.304-3.007-.441-6.015-.329-9.038.045-1.128.118-2.262.221-3.385.123-1.355-.063-3.857.697-5.035 2.6-4.033 13.204 5.643 14.892 7.184.574.52 1.432-.329.853-.85zM9.534 106.799a155.547 155.547 0 01-6.762 6.693c-1.28 1.187-3.125 2.306-2.708 4.308.299 1.447 1.653 2.281 2.968 2.649 3.096.869 6.28.874 9.367 1.973.731.26 1.045-.903.32-1.163a29.985 29.985 0 00-5.59-1.433c-2.286-.348-7.188-.182-5.068-4.063.701-1.28 2.797-2.576 3.861-3.611a154.424 154.424 0 004.46-4.509c.54-.55-.313-1.404-.848-.844zm11.103 24.303c.712 2.85 1.605 5.642 2.753 8.346.589 1.384 1.143 3.366 2.836 3.729 1.605.343 2.875-.81 3.783-1.968 1.688-2.164 3.16-4.538 4.72-6.795.442-.638-.603-1.242-1.04-.609-.971 1.403-1.943 2.812-2.92 4.215-.956 1.384-2.82 5.412-5.294 3.116-1.035-.962-1.555-3.509-2.031-4.833a56.683 56.683 0 01-1.644-5.52c-.186-.751-1.349-.432-1.163.319zm20.839 2.124c.913 2.493 2.355 4.927 3.685 7.218.83 1.423 2.046 3.037 3.862 3.081 1.678.04 1.869-1.668 2.276-3.042.928-3.111 1.6-6.32 2.375-9.47.187-.75-.976-1.074-1.163-.319l-1.34 5.408c-.362 1.462-.554 3.925-1.398 5.176-1.766 2.62-3.896-2.021-4.529-3.204-.898-1.683-1.962-3.371-2.62-5.167-.25-.721-1.413-.407-1.148.319zm-18.93-24.803c-.535-3.342.697-6.32 4.21-7.139 3.47-.805 6.791 1.403 7.301 4.97.49 3.445-2.07 7.257-5.628 7.468-3.557.211-5.235-2.237-5.853-5.412-.148-.76-1.31-.437-1.163.319.795 4.097 3.479 6.972 7.904 6.217 3.837-.658 6.683-5.152 5.898-8.916-.829-3.979-4.23-6.629-8.317-5.893-4.499.81-6.192 4.485-5.515 8.7.123.77 1.286.446 1.163-.314zm24.259-8.337c.324-3.984 4.911-7.055 8.739-4.808 2.846 1.673 4.097 5.834 2.89 8.802-1.198 2.949-5.123 4.75-8.096 3.126-2.645-1.438-3.195-4.73-3.568-7.424-.108-.765-1.266-.436-1.162.319.53 3.847 2.021 8.582 6.633 8.847 4.289.245 7.89-2.679 7.925-7.139.03-3.705-2.576-8.037-6.54-8.371-4.5-.383-7.67 2.335-8.018 6.648-.074.776 1.133.771 1.197 0zm67.005-55.494c2.969-.167 6.129.844 8.857 1.997 2.669 1.123 4.362 3.15 6.501 5 4.009 3.469 5.692 7.473 6.428 12.644.849 5.957-1.536 12.478-5.986 16.614-4.367 4.063-9.362 5.668-15.216 6.035-5.775.364-10.225-1.732-13.832-6.192-3.38-4.175-5.726-9.435-6.099-14.828-.358-5.166 1.188-10.49 4.686-14.376 4.245-4.706 9.505-6.56 15.667-6.968.771-.049.776-1.256 0-1.202-5.26.348-9.234 1.418-13.493 4.647-3.479 2.64-5.981 6.03-7.237 10.235-2.61 8.734.873 18.645 7.109 25.01 6.178 6.3 16.904 6.432 24.308 2.08 4.49-2.64 7.385-5.918 9.652-10.589 2.168-4.475 2.168-8.7 1.113-13.503-.53-2.404-1.329-4.823-2.718-6.884-1.501-2.218-3.778-3.705-5.657-5.579-3.464-3.454-9.195-5.628-14.092-5.353-.761.054-.766 1.256.009 1.212z" fill="#153051"/><path d="M104.473 72.172c-.761-4.45 2.9-7.772 7.134-7.993 4.166-.216 7.198 1.983 8.351 5.933.977 3.336.329 7.649-3.527 8.758-3.062.883-7.262.275-9.632-1.88-2.203-2.001-3.258-5.034-1.389-7.585 2.046-2.787 4.706-4.7 8.366-4.22 4.043.53 5.746 4.534 5.54 8.16-.128 2.233-.972 4.387-3.332 5.049-1.232.343-2.811.3-4.082.201-4.245-.319-7.562-4.087-6.026-8.44 1.271-3.596 8.278-6.721 10.77-2.904 1.958 2.993 1.158 8.11-1.957 10.01-3.955 2.409-8.096-1.526-8.273-5.486-.314-7.002 12.507-4.475 8.768 1.899-1.585 2.703-5.971 3.008-6.8-.707-.256-1.143-.015-2.698.657-3.67 3.827-5.525 12.046 4.166 5.309 5.496-1.756.578-2.964-.256-3.626-2.498 3.248-1.717 4.76-1.364 4.544 1.065-2.768 3.994-4.564 3.63-5.393-1.09 3.773-1.472 4.559-.642 2.355 2.483.628-.441.03-1.487-.608-1.04-.667.471-.913 1.423-.069 1.938 1.433.874 2.802-1.305 3.018-2.4.726-3.684-3.822-5.52-5.554-2.06-1.875 3.744 2.654 8.292 6.099 5.28 2.649-2.316 1.162-9.024-2.989-7.96-3.994 1.026-3.213 7.543.889 7.64 4.631.114 6.952-3.493 3.817-7.242-2.998-3.582-8.876-2.983-9.671 2.051-.746 4.706 3.881 7.944 7.772 4.794 3.018-2.438 2.679-8.327-1.487-9.278-5.613-1.281-9.931 2.752-7.551 8.277 1.845 4.294 7.355 6.02 10.78 2.424 3.003-3.15 3.263-10.373-1.134-12.517-4.401-2.144-10.873 2.385-11.152 7.012-.368 6.128 4.788 8.542 10.142 8.125 5.279-.407 6.943-5.412 5.559-10.108-1.57-5.318-6.948-7.418-11.889-4.705-2.041 1.119-4.912 4.18-5.157 6.575-.235 2.277 1.291 4.794 2.9 6.28 3.763 3.48 12.139 3.97 14.789-1.099 2.919-5.593-1.006-12.835-7.056-13.66-5.741-.785-11.428 3.249-10.373 9.411.138.766 1.3.442 1.168-.319z" fill="#153051"/><path d="M85.16 80.386c2.459 8.106 5.334 16.428 11.261 22.713 5.432 5.761 13.111 8.714 21.011 8.273 7.777-.437 15.617-4.009 21.152-9.495 5.849-5.794 8.312-15.289 9.161-23.213.083-.77-1.124-.766-1.202 0-.82 7.64-3.214 16.786-8.808 22.36-5.52 5.5-13.527 9.023-21.319 9.175-7.787.152-15.01-3.106-20.069-9.004-5.166-6.02-7.747-13.665-10.014-21.138-.236-.73-1.398-.417-1.173.33z" fill="#153051"/><path d="M143.947 85.18c-.068-1.575-.181-3.317.594-4.755.903-1.673 3.592-2.845 4.814-.839.78 1.281.888 3.087.637 4.534-.142.834-.598 1.6-.269 2.434.279.711 1.447.402 1.162-.319-.284-.726.378-2.233.417-3.062a8.565 8.565 0 00-.368-2.91c-.446-1.442-1.344-2.894-3.002-2.988-4.49-.25-5.339 4.505-5.187 7.905.03.775 1.237.78 1.202 0zm-53.885-.898c-.27-2.596-2.124-6.825-5.47-5.456-3.47 1.423-1.88 6.109-.369 8.341.432.638 1.477.034 1.04-.608-1.064-1.575-2.747-4.985-.554-6.448 2.453-1.633 3.97 2.449 4.146 4.171.078.76 1.286.77 1.207 0zm52.605 10.692a87.107 87.107 0 002.252 3.812c.795 1.266 1.859 2.507 2.375 3.921.142-.246.279-.496.422-.741-1.306.196-3.013-.643-4.254-1.001-1.212-.354-2.424-.702-3.636-1.055-.746-.216-1.065.947-.319 1.163 1.619.471 3.233.937 4.852 1.408 1.232.358 2.395.844 3.685.648.305-.045.52-.462.422-.741-.495-1.359-1.403-2.498-2.178-3.71a82.658 82.658 0 01-2.566-4.313c-.393-.677-1.433-.069-1.055.609zm-13.97 12.791c-.005 3.141.947 6.173.893 9.303.305-.171.604-.348.908-.52a28.562 28.562 0 01-7.669-6.594c-.491-.599-1.34.255-.854.854a29.43 29.43 0 007.91 6.785c.397.236.898-.068.907-.52.054-3.135-.893-6.167-.893-9.303.005-.78-1.202-.78-1.202-.005z" fill="#153051"/><path d="M121.166 110.43c-.496 3.042-.687 6.383-1.683 9.303.368-.049.736-.098 1.099-.142a44.263 44.263 0 01-5.025-8.68c-.309-.707-1.349-.099-1.04.608a44.154 44.154 0 005.024 8.68c.31.417.923.373 1.1-.142.996-2.92 1.187-6.261 1.683-9.303.127-.766-1.031-1.09-1.158-.324z" fill="#153051"/><path d="M114.12 110.749c-.746 1.408-1.536 2.801-2.243 4.234-.721 1.467-1.138 2.758-2.355 3.975h.854c-1.345-1.531-2.522-3.092-3.101-5.074-.481-1.634-.854-3.307-1.276-4.961-.191-.75-1.354-.431-1.163.319.515 2.027.883 4.2 1.683 6.139.692 1.678 1.82 3.076 3.008 4.43.216.246.633.221.854 0 1.064-1.069 1.629-2.046 2.198-3.425.711-1.732 1.707-3.37 2.586-5.029.358-.687-.682-1.295-1.045-.608zm-19.824-9.608c.491 3.219.015 6.634.33 9.892.097.996-.09 3.729 1.074 4.264.76.349 1.133-.216 1.565-.687 1.948-2.124 3.705-4.691 5.437-7.016.461-.623-.584-1.222-1.041-.609-1.373 1.845-2.865 3.577-4.313 5.358-.22.275-.5.825-.77 1.045-.103.202-.23.388-.373.56-.137-.8-.25-1.6-.329-2.404-.387-3.553.108-7.218-.426-10.726-.108-.756-1.271-.432-1.154.323zm-5.142-10.618c-1.594 3.13-2.154 6.59-3.64 9.73-.231.486.147.991.682.883 2.522-.5 5.088-.682 7.522-1.56.72-.26.412-1.428-.32-1.163-2.433.879-5 1.06-7.521 1.56.225.295.451.589.682.884 1.487-3.15 2.046-6.6 3.64-9.73.344-.687-.691-1.295-1.045-.604zm-20.995-57.81c-.736 3.13-4.043 3.758-6.801 3.479-.383-.04-.383.564 0 .603 3.037.314 6.585-.55 7.38-3.92.088-.378-.491-.54-.58-.162zm3.375 4.602c-1.408 3.057-7.247 4.97-10.397 3.94-.368-.122-.53.462-.162.58 3.381 1.103 9.539-.874 11.08-4.22.161-.349-.359-.653-.52-.3zm3.317 3.69c-.078 5.51-8.95 7.193-12.978 6.124-.373-.098-.535.48-.162.579 4.5 1.192 13.656-.731 13.74-6.703.009-.388-.595-.388-.6 0zm3.852 4.259c-.677 6.128-10.069 8.469-15.147 8.817-.383.025-.387.628 0 .604 5.535-.383 15.015-2.772 15.75-9.42.04-.384-.559-.384-.603 0z" fill="#153051"/><path d="M67.315 64.14c3.444-.324 5.691-3.13 7.693-5.702 2.537-3.262 4.897-7.585 5.187-11.785.024-.388-.574-.383-.604 0-.245 3.552-2.13 7.345-4.156 10.196-1.918 2.698-4.538 6.354-8.12 6.688-.383.039-.388.637 0 .603zm105.93-49.788c.569 1.506 1.286 2.527 2.939 2.802 1.551.255 3.15.137 4.141-1.203.231-.314-.294-.613-.52-.304-.824 1.124-2.306 1.139-3.547.908-1.404-.26-1.953-1.104-2.429-2.36-.137-.363-.716-.206-.584.157zm-3.876 4.632c2.62 3.596 7.07 4.68 11.064 2.713.349-.171.045-.692-.304-.52-3.68 1.81-7.826.82-10.245-2.497-.221-.31-.746-.01-.515.304zm-2.964 3.7c1.163 3.92 9.995 7.095 13.391 4.93.323-.205.024-.73-.305-.52-3.057 1.949-11.476-1.094-12.507-4.567-.108-.373-.687-.216-.579.157zm-3.351 3.699c2.517 4.873 9.74 8.793 15.215 7.782.383-.069.221-.652-.161-.579-5.236.967-12.169-2.914-14.539-7.502-.177-.354-.697-.05-.515.3zm-3.131 2.63c2.164 7.287 8.572 11.948 16.173 11.79.388-.009.388-.607 0-.603-7.336.152-13.503-4.318-15.589-11.349-.112-.368-.696-.21-.584.162zm.913 10.142c1.497 1.983 3.194 3.891 5.221 5.353 2.296 1.654 4.936 1.772 7.659 2.164.378.054.545-.525.162-.579-2.301-.329-4.823-.402-6.855-1.643-2.227-1.364-4.111-3.538-5.662-5.599-.235-.304-.76-.005-.525.304zm-55.548.216c.122-.57.422-1.08.701-1.575.29-.495.53-1.006.702-1.545a7.461 7.461 0 00.275-3.332l.314.049c-.746 1.648-.334 3.729.927 4.975l-.236-.054c.879-.299 1.526-1.202 1.536-2.124l.491-.01c.029.505-.064.966-.039 1.379.01.206.054.392.137.569a.86.86 0 00.344.387c.083.04.122.054.23.064.059 0 .152-.01.226-.039a.95.95 0 00.417-.324c.221-.3.304-.73.378-1.177l.53.034c.005.329.235.677.515.731.015.005.098.01.098.01a.533.533 0 00.285-.123c.112-.098.162-.226.132-.324l-.584-2.011 1.05 1.815c.353.613.839 1.276 1.443 1.305.309.015.574-.127.79-.387.211-.256.353-.594.456-.938a14.313 14.313 0 00.461-3.321c0-.177.01-.403-.005-.535-.014-.157-.157-.27-.112-.226l.058-.167.609 2.169c.211.716.407 1.452.638 2.159.132.339.304.672.564.908a.73.73 0 00.918.078c.274-.196.422-.56.564-.898.142-.343.279-.716.554-1.015l.138-.148.034.202c.132.794.388 1.57.756 2.286.088.177.191.339.333.412.143.074.324.054.481-.02.319-.147.491-.53.633-.897l.27-.707-.01.76c-.005.26.005.52.064.756.029.118.074.23.132.324a.638.638 0 00.221.22c.128.075.182.07.309.07a.7.7 0 00.309-.103c.192-.113.324-.32.31-.516l-.054-.736.353.648.515.947-.167-.088c1.561-.206 2.787-1.84 2.566-3.366l.432.005a12.146 12.146 0 001.708 8.204l-.52.063c.137-.431.422-.765.701-1.04.28-.275.569-.51.805-.765.049-.054.118-.138.152-.187a1.712 1.712 0 00.28-.653c.059-.303-.01-.573-.206-.706l.49-.216-.083 1.683c-.025.56-.069 1.124-.088 1.678.005.128.014.246.044.33.01.038.034.087.049.102.059.079.039.044.078.084.118.093.344.117.54.053a.738.738 0 00.27-.147 1.49 1.49 0 00.236-.25c.147-.196.269-.437.392-.687l.604-1.236-.01 1.373c-.005.471.019.918.235 1.203.01.02.079.083.079.083.024.02.059.05.093.069a.652.652 0 00.231.078c.162.025.284-.024.333-.108l.751-1.226-.191 1.432-.177 1.34-.103-.27c.334.29.854.373 1.335.29.485-.089.956-.349 1.398-.653.451-.31.864-.648 1.182-1.06.319-.407.501-.893.378-1.35l.452.025-1.256 3.091c-.417 1.021-.844 2.061-.785 3.131l-.28-.108a7.801 7.801 0 012.385-1.53l.161-.07.025.172.128.923-.104-.099c.3.045.624-.049.854-.255l.157-.142.005.206a5.523 5.523 0 01-.878 3.13l-.049-.029a5.413 5.413 0 00.736-3.091l.162.064a1.285 1.285 0 01-1.016.348l-.083-.01-.015-.088-.167-.913.187.103a7.61 7.61 0 00-2.262 1.521l-.256.25-.024-.358c-.088-1.177.353-2.271.741-3.302l1.187-3.115.25-.663.202.682c.191.648-.074 1.32-.427 1.786-.358.486-.815.869-1.276 1.202-.466.339-.986.658-1.604.785-.609.128-1.311.04-1.84-.407l-.123-.103.019-.167.172-1.344.56.206c-.211.339-.633.437-.938.383a1.299 1.299 0 01-.647-.295c-.084-.078-.103-.103-.167-.181-.363-.51-.353-1.095-.358-1.566l.589.138c-.123.255-.256.53-.452.79-.098.132-.206.25-.348.368-.108.093-.309.21-.471.255-.344.103-.746.103-1.095-.142a.895.895 0 01-.215-.221.95.95 0 01-.143-.28 1.845 1.845 0 01-.078-.51c.014-.584.054-1.153.083-1.727l.103-1.722.035-.54.456.324c.206.147.363.382.427.623.064.24.054.48.015.697a2.37 2.37 0 01-.383.888c-.074.103-.128.162-.206.25-.555.574-1.202.976-1.394 1.575l-.191.594-.329-.53a12.374 12.374 0 01-1.649-8.582l.265-1.506.167 1.516c.201 1.8-1.192 3.542-2.958 3.753l-.113.015-.054-.103-.501-.952.3-.083c.014.343-.207.638-.467.79a1.06 1.06 0 01-.441.142.83.83 0 01-.457-.103c-.299-.172-.431-.471-.495-.746-.064-.28-.064-.56-.059-.83l.26.055c-.157.368-.329.814-.78 1.025-.206.094-.471.128-.697.005-.226-.122-.338-.338-.427-.52a8.33 8.33 0 01-.741-2.36l.167.054c-.24.255-.383.604-.53.947-.147.339-.279.731-.623.986-.348.26-.859.206-1.163-.083-.304-.27-.486-.628-.633-.986-.245-.722-.441-1.443-.667-2.164l-.672-2.16-.03-.087.084-.079c.152-.133.412-.015.456.093a.789.789 0 01.147.324c.035.245.02.398.025.604 0 .382-.01.765-.039 1.148a14.118 14.118 0 01-.349 2.286c-.108.383-.25.766-.51 1.104-.241.339-.707.614-1.168.594-.476-.01-.873-.285-1.158-.574-.289-.294-.51-.628-.711-.967l.471-.196c.093.334-.074.662-.29.844a.986.986 0 01-.603.25c-.113 0-.138 0-.231-.014-.599-.143-.918-.697-.942-1.222l.53.034c-.074.452-.142.967-.481 1.418a1.483 1.483 0 01-.667.496c-.143.049-.28.073-.452.063a1.065 1.065 0 01-.427-.122c-.534-.314-.721-.883-.741-1.389-.019-.505.079-.957.054-1.379l.491-.01a2.835 2.835 0 01-1.879 2.552l-.138.044-.098-.103c-1.388-1.418-1.742-3.68-.898-5.441l.241-.506.073.55a7.204 7.204 0 01-.402 3.444 7.752 7.752 0 01-.785 1.546c-.304.486-.613.967-.76 1.521l-.054-.005zm9.484 26.904c.069.838.717 1.148 1.315 1.82 2.557 2.875-.76.402-.093-1.016-.275.074-.55.142-.824.216.53.496.765 1.08.706 1.752.314-.04.633-.084.947-.123-.819-.74-1.251-2.762-1.668-3.768-.334.196-.672.392-1.006.584.986.996 1.737 1.864 2.017 3.302.333-.196.672-.393 1.006-.584-.938-.746-1.566-1.394-2.272-2.41-.314.246-.633.486-.947.732.132.196.26.392.392.589.295-.226.589-.452.883-.682-.534-.452-1.074-.903-1.609-1.355l-.824.825c.657.402 1.261.82 1.874 1.29-.039-.314-.083-.633-.123-.947a4.108 4.108 0 00-1.064-1.187l-.854.853c.304.32.613.633.917.952l.825-.824a19.49 19.49 0 01-2.301-1.403c-.54-.383-1.055.333-.825.824.358.766.26.613.893 1.197a86.9 86.9 0 00.584-1.006 5.805 5.805 0 01-1.344-.397c-.471-.172-.987.466-.682.883.363-.157.206-.304-.476-.451-.619-.349-1.168.436-.731.947.166.225.333.456.5.682.226-.295.452-.589.682-.883l-.814-.133c-.447-.073-.864.26-.741.741.108.093.216.182.324.275a.59.59 0 00-.609 0c-.824.5-.437.878-.785 1.683.314-.04.633-.084.947-.123-.343-.466-.687-.932-1.035-1.398l-.825.824c.334.294.668.589 1.001.888.206.23.648.236.854 0 .403-.47.775-1.31.874-1.864h1.162c.015-.481.035-.962.049-1.443l-1.005.265c.078.3.152.604.23.903h1.163c.162.265.329.53.491.795h.854l-.045-.226c-.368.05-.736.098-1.099.142.579.776-.196.727-.358-.74l-1.03.426c.245-.054.49-.103.741-.157-.334.197-.673.393-1.006.584l.947.344-1.183.162c.216.598.452 1.678.143-.005-.388.108-.776.216-1.163.319.039.745.083 1.491.122 2.242.368-.05.736-.098 1.099-.142-.456-.918-.554-1.948-.966-2.886-.295-.667-1.212-.156-1.099.467.167.927.402 5.005.078.765l-1.03.427.893 1.703.603-.604c-.039-.26-.083-.515-.122-.775l-1.031.427c1.065.99 1.345 1.285 1.418-.383l-1.182.162c.176.677.235 1.36.172 2.046l1.03-.427c-.451-.486-.579-1.693-.736-2.277-.172-.642-1.212-.53-1.183.162-.049.516-.093 1.03-.142 1.546l1.006-.265a10.61 10.61 0 01-.339-2.213c-.044-.48-.471-.716-.907-.52-1.099.49-.8 3.307-.599 4.156.226.957.736 1.987 1.335 2.762.701.913 1.722 1.266 2.468 2.13l.854-.854c-1.404-1.408-3.224-3.174-3.44-5.255-.373.103-.746.201-1.124.304.638 1.28.987 2.463 1.193 3.862.083.574 1.079.579 1.163 0 .176-1.276.215-2.468.083-3.759l-1.183.162c.226 1.035.579 1.757 1.153 2.67.3.485 1.154.318 1.124-.305-.039-.804-.098-1.6-.186-2.4-.373.104-.746.202-1.124.305.53.677.893 1.438 1.099 2.282.241.76 1.261.427 1.163-.32a54.265 54.265 0 01-.348-3.336c-.373.103-.746.201-1.124.304.481.619.79 1.32.937 2.1.172.643 1.217.53 1.183-.161a40.924 40.924 0 00-.211-2.572l-1.031.427a11.29 11.29 0 011.521 2.473c.29.619 1.306.182 1.099-.466l-.897-2.85c-.368.156-.736.308-1.1.466.393.55.697 1.074.992 1.683.265.55 1.128.27 1.123-.305l-.014-1.153c-.373.103-.746.201-1.124.304.471.712.77 1.487.913 2.321.387-.108.775-.216 1.162-.319a14.728 14.728 0 01-.637-2.973c-.373.103-.746.201-1.124.304.324.368.589.775.795 1.217.299.535 1.109.28 1.123-.304.015-.614.025-1.232.04-1.845-.373.103-.746.201-1.124.304.447.658.81 1.36 1.084 2.105.241.584 1.198.574 1.183-.162-.01-.623-.025-1.241-.034-1.864-.373.103-.746.2-1.124.304.128.26.25.525.378.785.103.216.451.368.682.275 1.06-.413.8-2.17.908-3.077l-1.183.162c.285.805.53 1.605.765 2.42.216.745 1.34.436 1.163-.32-.26-1.09-.515-2.178-.775-3.268-.368.157-.736.31-1.099.466 1.03 1.355 1.801 2.984 2.959 4.225.392.417.976.059 1.03-.427.044-.422.093-.849.138-1.27-.373.102-.746.2-1.124.304l.324.466c.328.47 1.118.329 1.123-.305a9.311 9.311 0 01.079-1.609l-1.183.162c.182 1.114.516 2.076 1.021 3.072.334.657 1.202.162 1.099-.466a14.972 14.972 0 00-.633-2.576c-.25-.746-1.29-.437-1.163.318a55.58 55.58 0 01.506 3.808l1.03-.427c-.152-.147-.304-.3-.461-.446-.403-.393-1.227-.005-1.006.583.226.501.378 1.021.461 1.566.295-.226.589-.452.883-.682a6.358 6.358 0 01-.785-2.017c-.216-.755-1.305-.432-1.163.319.138.726.285 1.443.452 2.164a97.15 97.15 0 011.163-.32c-.172-.553-.197-.617-.486-1.118-.334-.574-1.325-.196-1.099.466.23.677.456 1.355.687 2.027.216.633 1.172.54 1.182-.162.01-.584-.014-.662-.314-1.163-.309-.515-1.109-.294-1.123.304-.025.353-.015.707.029 1.06.373-.103.746-.201 1.124-.304l-.795-1.516c-.231-.442-.785-.334-1.04 0-.604.8 0 2.267.186 3.115.388-.108.775-.215 1.163-.319l-.177-.47c-.24-.629-1.138-.545-1.182.161.142-.142.279-.29.422-.431-.314-.624-1.261-.182-1.099.466.083.348.171.697.255 1.05.294-.226.589-.452.883-.682l-.397-.177c-.413-.181-.893.025-.908.52-.02.864-.393.54-1.433.697-1.796.265-3.135.191-4.161-1.786-.348.201-.692.407-1.04.608.442.741.805 1.453 1.143 2.243.226-.295.452-.59.682-.883-.804-.32-1.477-2.032-1.835-2.787-.348.2-.692.407-1.04.608.221.544.442 1.084.667 1.629.388-.108.775-.216 1.163-.319a17.685 17.685 0 01-.883-2.905 86.92 86.92 0 01-1.006.584c.795.8 1.403 1.649 1.919 2.65.319.628 1.251.181 1.099-.466-.216-.938-.437-1.875-.653-2.812-.368.157-.736.31-1.099.466a38.164 38.164 0 011.521 3.16c.211.496.981.319 1.099-.142.378-1.453-.672-3.312-1.398-4.52-.339-.559-1.374-.186-1.099.467a51.64 51.64 0 001.992 4.225c.343.647 1.202.166 1.099-.467-.231-1.437-.667-2.757-1.178-4.116-.368.157-.736.309-1.099.466a26.925 26.925 0 011.914 4.455c.387-.108.775-.216 1.163-.319-.388-1.06-.781-2.12-1.168-3.18-.368.158-.736.31-1.099.467.427.824.849 1.648 1.275 2.473.31.603 1.315.186 1.1-.466a39.966 39.966 0 01-1.095-3.965c-.368.157-.736.31-1.099.466a24.985 24.985 0 011.639 3.994c.211.672 1.124.506 1.183-.162.181-2.09-.761-4.23-1.624-6.089-.349.201-.692.407-1.041.608a71.842 71.842 0 013.224 5.844c.319.648 1.222.167 1.099-.466-.378-1.987-.829-3.837-1.899-5.574-.407-.662-1.388-.083-1.04.609a32.059 32.059 0 012.09 5.171c.388-.108.776-.216 1.163-.319-.819-2.57-1.575-5.098-1.845-7.796-.373.103-.746.2-1.123.304 1.133 1.805 2.242 3.616 3.233 5.5.334.633 1.227.177 1.099-.466a15.417 15.417 0 00-1.501-4.278c-.349.2-.692.407-1.04.608l1.604 2.905c.324.584 1.349.186 1.099-.466a14.962 14.962 0 00-1.541-3.038c-.348.201-.691.408-1.04.609a10.686 10.686 0 011.776 4.131c.334-.196.673-.392 1.006-.584-.912-1.04-1.354-2.247-2.379-3.228-.418-.398-1.198-.005-1.006.584.476 1.496 1.349 2.84 1.604 4.4.334-.195.672-.392 1.006-.583-.657-.52-.976-1.771-1.246-2.556-.334.196-.672.392-1.006.584a5.527 5.527 0 011.388 1.982l.825-.825c-.697-.402-1.153-1.109-1.816-1.57-.436-.304-1.025.202-.883.682.294.996.609 1.973.952 2.95.368-.158.736-.31 1.099-.467-.726-.991-1.281-2.021-1.815-3.125-.339-.702-1.355-.089-1.041.608a18.29 18.29 0 011.232 3.803 86.92 86.92 0 011.006-.584 4.685 4.685 0 01-1.06-.981c-.383-.413-.986-.06-1.03.426-.059.707-.045.707.068 1.409.334-.197.673-.393 1.006-.584-.201-.29-.397-.58-.598-.869-.275-.456-.943-.343-1.1.142a56.77 56.77 0 00-.333.712c.314-.04.633-.084.947-.123-.152-.157-.3-.314-.452-.47-.534-.56-1.388.289-.853.853.152.157.299.314.451.471.275.285.746.201.947-.123.27-.431.299-.515.456-1-.368.049-.736.097-1.099.142.3.5.422.662.785 1.114.422.525 1.09-.07 1.006-.584-.01-.364-.015-.727-.024-1.085l-1.031.427c.3.383.653.712 1.06.982.466.368 1.138.039 1.006-.584a19.723 19.723 0 00-1.349-4.093c-.349.202-.692.408-1.041.609.535 1.104 1.09 2.134 1.816 3.125.368.506 1.344.236 1.099-.466a64.448 64.448 0 01-.952-2.949c-.294.226-.589.452-.883.682.711.496 1.074 1.144 1.815 1.57.545.314 1.09-.299.825-.824a8.713 8.713 0 00-1.575-2.223c-.403-.421-1.207.01-1.006.584.373 1.08.628 2.355 1.555 3.087.481.382 1.109.03 1.006-.584-.26-1.595-1.119-2.87-1.604-4.402-.334.197-.673.393-1.006.584 1.01.967 1.482 2.203 2.379 3.229.427.486 1.114-.044 1.006-.584-.338-1.668-.922-3.032-1.899-4.42-.441-.629-1.472-.045-1.04.608a13.241 13.241 0 011.423 2.752c.368-.157.736-.309 1.099-.466l-1.604-2.905c-.378-.682-1.394-.078-1.04.609a14.45 14.45 0 011.378 3.989c.368-.157.736-.31 1.099-.466-.996-1.884-2.1-3.695-3.233-5.5-.295-.467-1.183-.325-1.124.304.28 2.796 1.036 5.446 1.889 8.115.236.736 1.389.427 1.163-.319a33.52 33.52 0 00-2.213-5.456c-.348.201-.692.407-1.04.608 1.016 1.644 1.418 3.41 1.776 5.285.368-.157.736-.31 1.099-.466a71.034 71.034 0 00-3.223-5.844c-.412-.672-1.364-.088-1.04.608.76 1.634 1.619 3.636 1.462 5.481l1.182-.162a26.44 26.44 0 00-1.761-4.278c-.324-.628-1.242-.182-1.099.466.294 1.35.657 2.654 1.094 3.964.368-.157.736-.309 1.099-.466a526.59 526.59 0 01-1.276-2.473c-.309-.598-1.339-.181-1.099.466.388 1.06.78 2.12 1.168 3.18.265.716 1.403.427 1.163-.319a28.284 28.284 0 00-2.037-4.745c-.318-.589-1.344-.186-1.099.466.511 1.36.952 2.68 1.178 4.117.368-.157.736-.309 1.099-.466a48.778 48.778 0 01-1.869-3.935c-.368.157-.736.309-1.099.466.539.898 1.57 2.473 1.275 3.592.368-.05.736-.099 1.099-.143a37.847 37.847 0 00-1.521-3.16c-.333-.618-1.251-.186-1.099.466.216.938.437 1.875.653 2.812.368-.157.736-.309 1.099-.466a11.035 11.035 0 00-2.105-2.895c-.442-.442-1.129.015-1.006.584.216 1.006.505 1.948.883 2.905.28.701 1.404.436 1.163-.32-.324-1.02-.299-.961-.785-1.918-.353-.697-1.369-.083-1.04.609.623 1.32 1.148 2.777 2.556 3.341.55.22.859-.466.682-.883a18.042 18.042 0 00-1.143-2.243c-.397-.667-1.398-.078-1.04.609.755 1.457 2.522 2.964 4.17 2.85.221-.014 2.336-.534 2.768-.765.196-.103.397-.03.579-.21.505-.496.304-.668.319-1.39-.304.172-.604.35-.908.52.132.06.265.119.397.177.471.207 1.021-.132.884-.682-.084-.348-.172-.696-.255-1.05-.368.157-.736.31-1.1.467.211.417.481.834.972.937.24.049.564-.03.682-.275.142-.3.152-.496.172-.84l-1.183.163.177.47c.275.717 1.33.452 1.163-.318-.069-.324-.545-1.874-.309-2.188h-1.041l.795 1.516c.27.515 1.168.294 1.124-.304a5.526 5.526 0 01-.03-1.06c-.372.103-.745.2-1.123.304l.147.554 1.183-.162c-.231-.677-.457-1.354-.687-2.026-.368.157-.736.31-1.1.466.123.275.246.555.364.83.225.74 1.334.436 1.162-.32a66.493 66.493 0 01-.451-2.164c-.388.108-.775.216-1.163.32.275.956.388 2.217 1.34 2.733.471.255 1.001-.167.883-.683a6.092 6.092 0 00-.461-1.565c-.334.197-.673.393-1.006.584.152.147.304.3.461.447.343.333 1.08.117 1.03-.427a58.3 58.3 0 00-.544-4.127c-.388.108-.775.216-1.163.32.289.873.486 1.667.633 2.575.368-.157.736-.309 1.099-.466-.496-.981-.726-1.737-.898-2.787-.118-.716-1.128-.466-1.182.162a9.727 9.727 0 00-.079 1.61c.373-.104.746-.202 1.124-.305l-.324-.466c-.358-.51-1.055-.294-1.124.304-.044.422-.093.85-.137 1.271l1.03-.427c-1.079-1.148-1.81-2.718-2.772-3.98-.398-.52-1.271-.244-1.099.467.26 1.09.515 2.178.775 3.268.388-.108.775-.216 1.163-.32a41.53 41.53 0 00-.765-2.418c-.236-.667-1.104-.505-1.183.162-.044.378-.088.76-.137 1.138-.172.437-.035.53.417.27-.265-.55-1.134-.27-1.124.304.01.623.025 1.242.034 1.865l1.183-.162a15.803 15.803 0 00-1.207-2.395c-.314-.51-1.109-.299-1.124.305-.014.613-.024 1.231-.039 1.844.373-.102.746-.2 1.124-.304a5.414 5.414 0 00-.795-1.216c-.314-.413-1.197-.364-1.124.304.123 1.133.334 2.203.677 3.292.231.736 1.345.437 1.163-.319a9.663 9.663 0 00-1.03-2.605c-.295-.52-1.129-.29-1.124.304l.015 1.153c.373-.103.746-.201 1.123-.304a11.756 11.756 0 00-.991-1.683c-.373-.525-1.32-.23-1.099.466l.898 2.85c.368-.156.736-.308 1.099-.466a12.81 12.81 0 00-1.712-2.718c-.314-.392-1.085-.078-1.031.427.099.859.167 1.708.211 2.571l1.183-.162a7.894 7.894 0 00-1.06-2.39c-.299-.465-1.168-.328-1.124.305.094 1.227.226 2.439.393 3.655.388-.107.775-.215 1.163-.319a9.56 9.56 0 00-1.222-2.566c-.299-.446-1.187-.338-1.124.304.084.8.148 1.595.187 2.4.373-.103.746-.201 1.124-.304a5.642 5.642 0 01-1.031-2.385c-.142-.653-1.251-.52-1.182.162.122 1.207.127 2.208-.045 3.44h1.163a13.426 13.426 0 00-1.315-4.151c-.255-.516-1.182-.29-1.123.304.26 2.468 2.11 4.41 3.793 6.104.554.554 1.354-.27.853-.854-.78-.903-1.889-1.384-2.571-2.38-.49-.711-1.707-4.411-.878-4.779-.304-.172-.604-.348-.908-.52.089.908-.137 2.41.687 3.062.334.265.893.216 1.006-.265.245-1.026.231-.815.182-1.865l-1.183.162c.255.957.353 2.06 1.045 2.807.368.397 1.011.073 1.031-.427a9.67 9.67 0 00-.216-2.37c-.143-.692-1.153-.496-1.183.162-.034.746-.088 4.5 1.752 3.62 1.624-.77-.461-3.483-1.114-4.091-.343-.32-1.094-.128-1.03.427.088.726.309 2.114 1.329 1.982.344-.044.57-.24.604-.604.083-.956-.677-1.869-1.246-2.551-.329-.393-1.065-.079-1.031.427.098 1.28.388 2.978 1.914 3.057.211.01.412-.123.52-.3.638-1.04.054-2.742-.147-3.841-.368.157-.736.309-1.099.466.426.966.5 1.938.966 2.885.231.46.986.343 1.099-.143.26-1.094.241-1.82-.122-2.88-.251-.74-1.301-.441-1.163.32.152.828.485 3.144 1.894 2.747 1.334-.378.574-2.586.289-3.38-.216-.6-1.222-.56-1.182.161.044.81.446 2.493 1.688 1.786 1.138-.648-.04-2.31-.579-2.983-.408-.51-1.119.054-1.006.584.186.873.584 1.987 1.648 1.884.251-.025.53-.167.579-.442.182-.966-.353-1.766-.956-2.458-.324-.373-1.085-.093-1.031.427.128 1.148.746 4.117 2.571 3.611 1.595-.441.633-2.679.035-3.484-.29-.392-.962-.402-1.099.143-.408 1.58 1.761 3.793 2.801 1.86.707-1.316-1.374-2.454-1.83-.918-.054.186-.005.456.157.584 1.03.839 2.395-.349 1.781-1.536-.922-1.781-3.047-.005-2.586 1.536.084.28.309.412.579.441 2.346.275 1.512-3.263-.534-2.458-.182.069-.393.206-.422.422-.103.775-.172.918.402 1.462.25.24.594.211.854 0 1.423-1.172-.574-3.478-1.963-3.596-.206-.015-.422.127-.52.299-.358.633-.216 1.305-.025 1.972.157.535 1.05.609 1.163 0 .167-.902.044-1.368-.54-2.075-.284-.344-.917-.152-1.005.265-.231 1.07-.221 1-.049 2.08.093.58 1.059.57 1.162 0 .138-.77.216-1.535-.412-2.12-.147-.137-.382-.23-.584-.156-1.496.564-1.059 2.002-1.889 2.963h.854c-.589-.667-.505-.579-1.246-1.074-.496-.334-1.148.329-.825.824.525.805.604.903 1.222 1.644.231.275.8.22.947-.123.147-.334.26-.893.295-.917.063-.05.667.039.888-.094.171-.108.309-.309.299-.52-.029-.495-.147-.79-.289-1.35l-.741.742.814.132c.481.079.986-.397.682-.883a6.338 6.338 0 00-.687-.922c-.245.314-.486.633-.731.947.8.451 1.546 1.005 2.434.598.221-.103.363-.451.275-.682-.226-.598-.206-.603-.584-1.118-.226.294-.452.588-.682.883a5.79 5.79 0 001.344.397c.555.128 1.05-.579.584-1.006l-.707-.952-.824.825c.756.53 1.482.976 2.301 1.403.486.255 1.202-.3.825-.824-.516-.707-.427-.633-1.109-1.198-.589-.485-1.438.33-.854.854.628.56 1.874 2.032 2.767 1.188.31-.295.172-.722-.122-.947a22.298 22.298 0 00-1.875-1.29c-.485-.295-1.197.328-.824.823.608.81 1.153 1.306 2.041 1.787.417.225 1.09-.162.883-.683-.225-.564-.279-.677-.701-1.118-.461-.486-1.34.157-.947.73a12.028 12.028 0 002.458 2.655c.471.373 1.129.035 1.006-.583-.319-1.63-1.178-2.67-2.326-3.833-.392-.397-1.251.005-1.006.584.53 1.261.928 3.347 1.983 4.299.269.245.76.24.947-.123.529-1.035-.113-2.841-1.139-3.4-.265-.143-.682-.089-.824.215-.697 1.487.917 5.476 3.017 4.083 1.914-1.271-2.34-4.858-3.331-5.324-.25-.118-.525-.108-.731.093-.334.329-.373.481-.334.952.064.756 1.271.76 1.207-.014zm4.873 105.375c-.045-.623-.089-1.442.539-1.805.506-.295 1.232-.167 1.512.373.264.515.078 1.256-.472 1.486-.426.177-.853-.127-.991-.534-.142-.422-.009-.869.148-1.261-.123.068-.246.142-.368.211.471.137.667.593.785 1.03.044.172.088.358.108.535.034.319.073.486-.256.603-.181.143-.333.113-.446-.098a2.384 2.384 0 01-.275-.383c-.034-.058-.064-.117-.098-.171.025-.506.128-.633.314-.383.137.079.383.456.334.633-.354.299-.589.28-.717-.059-.211-.402-.122-.549.26-.446-.225.314.295.613.52.304a.722.722 0 00-.289-1.07c-.476-.211-.996.138-1.138.609-.324 1.104 1.383 2.34 1.894 1.025.382-.991-1.286-2.64-1.831-1.33-.392.933 1.124 2.851 2.051 1.875.442-.462.295-1.252.143-1.806-.177-.657-.525-1.251-1.207-1.452-.167-.049-.314.059-.368.211-.378.956-.26 2.458 1.02 2.615 1.031.127 1.703-.962 1.575-1.879-.132-.928-.966-1.512-1.884-1.374-1.285.186-1.545 1.433-1.467 2.541.029.383.628.388.604 0zm-45.49-62.457c-.324 1.978-.844 3.921-1.468 5.829l-.456-.211c.368-.647.982-1.03 1.521-1.373.55-.344 1.08-.683 1.389-1.158l.402-.619.133.736c.162.898.01 1.84-.378 2.66l-.128-.368s-.02.019.05-.03a.67.67 0 00.161-.211c.035-.073.103-.24.187-.363.088-.127.191-.27.402-.363a.586.586 0 01.353-.02c.103.04.064.02.138.059.064.04.127.094.157.133.137.186.152.348.176.481.03.27.079.49.133.505l-.255.02a8.848 8.848 0 001.889-1.767l.368-.466-.079.574a12.072 12.072 0 01-.785 2.944c.25-.981.412-1.977.466-2.978l.29.113a9.39 9.39 0 01-1.855 1.967l-.118.094-.142-.069c-.206-.103-.304-.309-.343-.452-.045-.152-.054-.284-.079-.402-.015-.118-.054-.216-.074-.23-.01-.015 0 .004.015.004.02 0-.083-.034-.034-.019-.015 0-.01 0-.02.005a.452.452 0 00-.142.157c-.059.093-.079.162-.152.324a1.294 1.294 0 01-.3.392c-.117.123-.426.231-.657.098l-.236-.132.108-.236a4.208 4.208 0 00.31-2.326l.534.118c-.422.618-1.045.967-1.59 1.3-.549.334-1.079.668-1.373 1.163l-.457-.211c.722-1.869 1.34-3.763 1.939-5.672zm20.779 16.344c-.2.045-.26.27-.29.452l-.053.574-.084 1.153a51.574 51.574 0 00-.088 2.301 55.359 55.359 0 00.054 4.603l.034.574c.01.098.01.103.04.132-.025-.034-.02-.01.03-.019a.692.692 0 00.318-.211c.113-.152.246-.305.339-.457.397-.598.692-1.3.917-2.021.462-1.438.731-2.993 1.502-4.416l.554-1.021.01 1.163.049 5.677-.451-.191a5.084 5.084 0 001.56-2.89l.157-.918.294.874.599 1.781c.103.289.191.618.304.858.118.251.295.334.579.265.113-.029.295-.093.403-.152.122-.064.245-.147.358-.24a2.89 2.89 0 00.579-.677c.324-.516.544-1.104.736-1.698l.157-.476-.035.496-.137 1.908.015-1.913.117.019c-.157.609-.333 1.222-.642 1.786a3.013 3.013 0 01-.589.78c-.128.113-.26.211-.412.295a2.366 2.366 0 01-.471.196.892.892 0 01-.565-.015.864.864 0 01-.417-.407c-.162-.319-.24-.598-.358-.898l-.662-1.761.451-.044c-.152 1.221-.76 2.369-1.663 3.213l-.437.413-.01-.604-.113-5.677.565.142c-.727 1.291-1.016 2.812-1.507 4.294-.245.745-.554 1.472-1.015 2.154-.113.176-.236.309-.354.466-.181.201-.353.329-.642.387a.51.51 0 01-.5-.176c-.104-.113-.133-.314-.128-.407l-.015-.579c-.03-1.546.005-3.092.113-4.632a59.99 59.99 0 01.235-2.302l.157-1.148.089-.574c.039-.167.117-.397.323-.432zm52.894-5.299l.952 4.19c.143.702.309 1.394.417 2.12.108.717.128 1.487-.108 2.228l-.152.466-.279-.407-1.737-2.517-.864-1.261c-.152-.216-.28-.422-.427-.565-.152-.157-.304-.216-.397-.181l.211-.255a12.129 12.129 0 00.383 4.092l.24.863-.687-.569-2.022-1.668.418-.118c-.113.319-.03.702.107 1.094.123.388.334.82.334 1.315 0 .241-.024.481-.118.722a1.029 1.029 0 01-.525.583c-.269.123-.534.099-.78.005a2.021 2.021 0 01-.589-.387c-.637-.619-1.202-1.247-1.795-1.88l-1.767-1.894 1.899 1.757.952.878c.314.285.628.614.937.874.157.127.324.24.496.299a.6.6 0 00.481-.015c.284-.132.387-.544.363-.922-.01-.378-.202-.741-.359-1.163-.147-.407-.294-.913-.127-1.433l.118-.358.299.24 2.046 1.644-.446.295c-.398-1.389-.565-2.851-.427-4.294l.019-.201.192-.054a.834.834 0 01.569.054c.162.074.284.182.392.285.211.216.349.451.486.652l.849 1.271 1.688 2.547-.432.054c.461-1.271.054-2.728-.152-4.127l-.658-4.259zm-13.993 17.448a66.05 66.05 0 01.372 8.862l-.004.201-.211.02c-.329.029-.648-.187-.805-.418-.167-.23-.26-.471-.344-.706-.142-.496-.245-.893-.451-1.31a5.422 5.422 0 00-1.722-2.056l.436-.172c-.304 1.6-.584 3.209-.907 4.804l-.118.569-.388-.422-2.487-2.723c-.216-.231-.408-.476-.589-.555-.098-.039-.118-.034-.157-.005-.025.015-.079.128-.108.265a7.918 7.918 0 00-.216 1.767l-.005 1.148-.447-1.045a7.8 7.8 0 00-1.167-1.914 7.763 7.763 0 00-.78-.809c-.251-.221-.638-.398-.884-.3-.113.049-.186.177-.201.354-.019.176.005.373-.049.593-.039.246-.348.413-.564.334-.216-.054-.373-.172-.545-.26l-2.007-1.143 2.081 1.01c.176.079.343.182.51.211.162.03.285-.054.309-.206.03-.157 0-.348.005-.559 0-.201.084-.481.329-.608.24-.118.481-.069.682-.005.201.068.392.176.554.304.309.255.589.525.854.824a8.275 8.275 0 011.305 1.973l-.451.098a6.966 6.966 0 01.181-1.889c.045-.157.069-.363.285-.555.196-.181.535-.167.707-.068.382.186.559.466.77.672l2.522 2.694-.501.142c.29-1.605.624-3.199.933-4.799l.083-.432.353.26a5.988 5.988 0 011.87 2.282c.216.437.348.962.461 1.379.118.427.334.844.638.819l-.216.221c.083-1.472.128-2.944.133-4.416a79.842 79.842 0 00-.049-4.431zm14.867 15.594c.765.932 1.173 2.11 1.428 3.282.265 1.178.382 2.375.554 3.558.29 2.375.756 4.725.721 7.178l-.009.736-.476-.564c-1.149-1.359-1.811-3.003-2.429-4.578-.314-.79-.633-1.575-1.016-2.316-.196-.368-.387-.751-.633-1.04-.24-.3-.549-.52-.854-.491l.236-.334c.643 2.385 1.487 4.726 2.625 6.929l.074.147-.143.069c-.24.112-.51.058-.711-.04a1.688 1.688 0 01-.515-.402c-.275-.299-.525-.648-.898-.687-.182-.02-.383.025-.496.162a.394.394 0 00-.083.25c0 .084.034.177.093.255.236.314.643.501.864.849-.246-.333-.643-.481-.923-.8a.508.508 0 01-.044-.623c.142-.191.383-.255.603-.25.481.025.771.417 1.055.677.265.27.658.466.933.324l-.069.211c-1.207-2.188-2.213-4.509-2.866-6.938l-.083-.309.319-.025c.579-.044 1.026.329 1.315.673.304.363.5.75.711 1.133.408.77.746 1.565 1.065 2.355.643 1.575 1.242 3.17 2.301 4.446l-.485.166c.044-1.172-.069-2.355-.197-3.542l-.358-3.572c-.122-1.193-.221-2.385-.392-3.562-.197-1.168-.516-2.346-1.217-3.327zm-50.039.903c-.152 2.87-1.089 5.711-2.65 8.164l-.294-.392a2.15 2.15 0 00.55-.28c.167-.127.319-.27.456-.437.28-.333.5-.726.722-1.133.446-.8.848-1.732 1.712-2.355l.388-.28.078.471c.31 1.83.358 3.705.142 5.55l-.338-.265c.554-.172.913-.741 1.212-1.33.309-.589.589-1.256 1.153-1.742l.201-.172.054.255c.26 1.257.152 2.581-.329 3.744a6.666 6.666 0 00.025-3.67l.255.079c-.466.436-.702 1.069-.986 1.687-.143.31-.3.629-.52.928a2.005 2.005 0 01-.898.701l-.378.138.04-.407a19.072 19.072 0 00-.222-5.388l.466.191c-.681.491-1.108 1.325-1.565 2.14-.23.412-.476.829-.804 1.212a3.183 3.183 0 01-.565.52c-.216.147-.451.26-.701.343l-.717.241.422-.628c.785-1.173 1.467-2.424 1.973-3.754a19.59 19.59 0 001.118-4.131zm44.126 24.072c-.328.495-.186 1.104.005 1.614.216.52.461 1.04.712 1.551.505 1.02 1.118 1.977 1.761 2.909l.079.113-.049.137a.633.633 0 01-.413.373 1.16 1.16 0 01-.436.04c-.28-.025-.486-.108-.697-.157l-1.29-.349c-.864-.221-1.713-.49-2.572-.736-.422-.113-.873-.275-1.251-.343-.368-.079-.716.098-.746.358-.029.235.31.672.521 1.04l.696 1.143.187.31-.349-.064c-.961-.172-1.923-.339-2.89-.54.982.054 1.958.137 2.944.221l-.162.245-.77-1.094-.383-.55c-.127-.191-.289-.412-.284-.76.005-.324.255-.604.505-.721.26-.138.56-.148.805-.118.5.083.888.221 1.33.334.858.235 1.722.451 2.576.711l1.28.373c.216.059.432.137.599.152.191.025.304-.025.299-.064l.03.246c-.658-.957-1.188-1.997-1.644-3.062a13.468 13.468 0 01-.589-1.634c-.137-.545-.216-1.237.196-1.678zm-42.065-1.639c.03 1.05-.451 2.041-.844 2.973-.417.943-.81 1.894-1.246 2.827-.108.235-.226.466-.275.667-.054.211-.024.368.079.476.117.098.137.103.314-.01.172-.137.343-.309.48-.491.29-.382.55-.824.864-1.261.304-.431.736-.878 1.32-1.055l.314-.093.034.324c.118 1.055.211 2.11.29 3.17l-.275-.152c.162-.035.216-.403.457-.687.294-.304.701-.304 1.015-.201.334.103.579.368.736.637.167.275.255.575.344.869-.255-.54-.574-1.168-1.139-1.281-.27-.063-.569.015-.701.182-.054.069-.064.093-.098.167l-.084.211c-.059.142-.147.348-.363.456l-.231.118-.044-.27c-.162-1.05-.319-2.1-.441-3.15l.348.225c-.854.28-1.212 1.325-1.88 2.169a3.362 3.362 0 01-.613.594.867.867 0 01-.534.177.777.777 0 01-.535-.27c-.255-.285-.275-.702-.182-.982.084-.299.216-.525.324-.755.447-.928.942-1.83 1.408-2.748.471-.927 1.036-1.796 1.158-2.836zm99.331-60.975c.034-.103.167-.04.206.024a.413.413 0 01.103.236l.03.485.054.977c.044.648.049 1.3.078 1.948.054 1.3.064 2.6.079 3.901l.005.49-.427-.25c-.79-.466-1.296-1.202-1.742-1.869-.452-.668-.923-1.32-1.595-1.625l.363-.309a.656.656 0 01-.118.55.862.862 0 01-.397.284.958.958 0 01-.456.059.912.912 0 01-.427-.166c-.486-.368-.604-.864-.829-1.237a4.365 4.365 0 00-1.973-1.796l.074-.034c-.094.23-.138.486-.113.741-.059-.25-.064-.52.01-.775l.014-.054.059.019a4.214 4.214 0 012.257 1.708l.363.598c.113.182.256.349.393.432.113.069.123.059.221.074a.62.62 0 00.23-.04c.157-.068.211-.161.187-.225l-.231-.569.594.26c.854.373 1.389 1.118 1.86 1.776.48.657.907 1.339 1.545 1.717l-.422.241c.015-1.301.025-2.601.084-3.901.029-.648.034-1.3.078-1.948l.054-.977.03-.485a.327.327 0 00-.059-.216c-.035-.059-.133-.138-.182-.044zm-29.528 5.735c.8-.225 1.648 0 2.433-.088a2.003 2.003 0 001.046-.432c.294-.23.48-.569.412-.902l.358-.01c-.186 2.335-1.477 4.558-3.43 5.902l-.353.241-.088-.422a12.968 12.968 0 01-.202-4.014l.359.304c-.216.025-.398.481-.574.898l-.54 1.247-.54 1.246c-.186.402-.343.844-.643 1.251-.147.196-.319.388-.564.52a.912.912 0 01-.829.044c-.28-.132-.427-.363-.545-.574-.113-.216-.191-.427-.28-.633l-1.015-2.517.113.005-.712 1.08.604-1.144.054-.108.054.113 1.197 2.439c.191.402.373.859.672.981.324.147.648-.122.873-.466.231-.334.359-.765.54-1.187l.52-1.256.52-1.257c.089-.21.162-.412.28-.647.118-.216.309-.501.662-.594l.388-.103-.034.407a14.668 14.668 0 00.186 3.847l-.436-.181a7.631 7.631 0 002.257-2.375c.579-.937.986-1.997 1.128-3.101l.172-1.301.191 1.296c.074.5-.235.952-.589 1.197-.363.255-.79.388-1.216.402-.825.045-1.615-.235-2.429-.108zm56.903-49.091a21.067 21.067 0 01-1.409 9.607l-.279.697-.231-.716c-.466-1.453-.564-2.969-.623-4.436-.049-1.472-.088-2.934-.461-4.323l.201.187c-.093-.035-.221.059-.324.27-.108.196-.147.422-.201.692l-.319 1.55c-.211 1.035-.422 2.07-.658 3.101l-.058.26-.123-.226-1.011-1.894 1.178 1.796-.182.035c.138-1.05.304-2.09.466-3.136l.246-1.565c.039-.25.073-.554.206-.834.068-.137.157-.28.299-.402a.7.7 0 01.584-.153l.157.035.044.152c.417 1.462.476 2.973.55 4.436.068 1.467.117 2.929.544 4.298l-.505-.02a25.777 25.777 0 001.403-4.593c.309-1.584.486-3.194.506-4.818zm-6.085 36.084c-.407-.241-.8-.505-1.197-.761-.201-.127-.388-.265-.584-.397-.186-.123-.407-.299-.559-.373-.084-.039-.143-.029-.133-.02 0 0-.019.03-.029.128-.025.216-.01.402.024.618.084.417.251.839.437 1.266a70.64 70.64 0 011.084 2.61c.089.226.172.418.256.678.044.122.058.363-.03.515a.651.651 0 01-.407.309c-.295.083-.599-.01-.815-.142-.216-.118-.392-.26-.593-.314l.117-.069c-.157.329-.309.662-.48.986.083-.358.181-.711.279-1.065l.02-.078.098.01c.27.024.5.147.702.235.201.093.387.118.549.049.157-.083.167-.122.108-.289l-.294-.623a70.655 70.655 0 01-1.139-2.586c-.181-.437-.368-.903-.431-1.413a2.654 2.654 0 01.014-.79c.03-.133.094-.349.319-.461.231-.099.427-.01.545.058.255.167.383.314.574.471.177.157.358.305.53.467.343.333.697.642 1.035.981zM69.346 135.822c.554 2.139.397 4.48-.417 6.58l-.24.613-.246-.618c-.544-1.369-1.114-2.728-1.634-4.102l.506.078c-.442.54-.535 1.33-.57 2.115-.039.785-.044 1.678-.54 2.444a2.12 2.12 0 01-1.02.819c-.21.074-.442.108-.672.078-.24-.029-.422-.132-.49-.073-.099.049-.168.265-.236.446l-.206.565-.427 1.128.28-1.173.147-.583c.063-.182.049-.413.284-.614.3-.181.53 0 .677-.019.172.009.349-.025.51-.094.324-.142.6-.407.78-.716.35-.633.354-1.428.379-2.228.024-.794.073-1.712.642-2.463l.31-.407.19.486c.546 1.369 1.05 2.752 1.576 4.126l-.486-.005c.412-.991.731-2.031.869-3.11.147-1.08.166-2.179.034-3.273zm-3.366 19.592a23.672 23.672 0 011.953 4.882c.235.849.446 1.708.584 2.576a27.591 27.591 0 01.31 2.645c.019.221-.06.662-.428.819-.437.162-.721-.083-.913-.235a2.004 2.004 0 01-.451-.613l-.29-.589-1.148-2.346c-.059-.137-.25-.284-.245-.265.04-.024-.03-.009-.01.231l.054 1.31.084 2.62.01.251-.226-.079-1.752-.628c-.147-.049-.265-.083-.388-.02a.48.48 0 00-.225.324c-.064.29.103.584.26.844-.182-.24-.403-.51-.368-.858a.602.602 0 01.255-.437c.152-.103.373-.074.515-.035l1.796.491-.216.167-.226-2.61-.103-1.306c-.005-.112-.02-.255.04-.426a.53.53 0 01.485-.364c.457.059.574.319.727.535l1.197 2.341.299.584c.083.181.182.319.31.446.122.128.274.162.269.147.064-.014.098-.088.103-.289-.02-.402-.054-.854-.098-1.276a27.69 27.69 0 00-.162-1.285 37.707 37.707 0 00-.466-2.557 32.64 32.64 0 00-1.536-4.995zm7.89 16.541c.074 1.256.137 2.507.172 3.763.03 1.256.088 2.507.088 3.763v.27l-.275-.009a1.33 1.33 0 01-.829-.354 2.793 2.793 0 01-.51-.638c-.27-.456-.462-.878-.722-1.285-.505-.82-1.074-1.6-1.722-2.311l.461-.069c-.333.653-.333 1.438-.23 2.213l.186 1.182.089.604c.024.216.058.383.054.648a.49.49 0 01-.256.417.61.61 0 01-.422.024c-.264-.068-.436-.221-.593-.358-.152-.137-.295-.289-.437-.373-.147-.093-.324-.152-.476-.127-.152.024-.26.152-.294.333-.04.182-.044.393-.069.589l-.123 1.207-.014-1.212c.005-.206-.01-.397.014-.618.015-.216.172-.481.427-.545.51-.117.913.251 1.193.491.147.123.309.226.441.25.093.02.147.01.172-.005.01-.01.02-.014.024-.088a4.63 4.63 0 00-.083-.554l-.123-.584c-.088-.393-.171-.79-.235-1.203-.123-.804-.157-1.717.235-2.531l.177-.368.285.299a12.3 12.3 0 011.805 2.399c.26.427.471.903.697 1.301.23.397.53.74.888.75l-.275.26c0-1.256.064-2.507.089-3.763.049-1.261.112-2.517.191-3.768z" fill="#153051"/></svg>