<svg width="36" height="36" fill="none" xmlns="http://www.w3.org/2000/svg"><path d="M33.4 5H31l2.6 6H36V7.69C36 6.211 34.83 5 33.4 5z" fill="#E89330"/><path d="M33 7.69V11H16V5h14.46C31.857 5 33 6.211 33 7.69z" fill="#F3A933"/><path d="M33.4 8H31l2.6 25H36V10.569C36 9.156 34.83 8 33.4 8z" fill="#FFBE35"/><path d="M31.4 8.779H18.2V5.59C18.2 4.166 17.03 3 15.6 3h-13C1.17 3 0 4.165 0 5.59V34h34V11.369c0-1.424-1.17-2.59-2.6-2.59z" fill="#FFCD60"/><path d="M30 26h-1.453L26 22c2.183 0 4 1.791 4 4z" fill="#E89330"/><path d="M26.277 22C23.943 22 22 23.791 22 26h7c0-2.209-1.238-4-2.723-4z" fill="#F3A933"/><path d="M26 15v5c1.105 0 2-1.119 2-2.5 0-1.38-.895-2.5-2-2.5zM14 26h-1.453L10 22c2.183 0 4 1.791 4 4z" fill="#E89330"/><path d="M10.277 22C7.943 22 6 23.791 6 26h7c0-2.209-1.238-4-2.723-4z" fill="#F3A933"/><path d="M10 15v5c1.105 0 2-1.119 2-2.5 0-1.38-.896-2.5-2-2.5z" fill="#E89330"/><path d="M18 22l3.566 6H24a6 6 0 00-6-6z" fill="#D97F13"/><path d="M17.645 22C14.527 22 12 24.688 12 28h9c0-3.314-1.502-6-3.355-6z" fill="#E89330"/><path d="M18 14v6c1.66-.02 3-1.355 3-3 0-1.644-1.34-2.979-3-3z" fill="#D97F13"/><path d="M18.355 14.001h-.087c-1.809.02-3.268 1.356-3.268 3 0 1.643 1.459 2.978 3.268 2.999h.087c.912-.041 1.645-1.368 1.645-3 0-1.63-.733-2.958-1.645-2.999z" fill="#E89330"/><path d="M10.25 15c.414 0 .75 1.12.75 2.5 0 1.381-.336 2.5-.75 2.5C9.006 20 8 18.881 8 17.5c0-1.38 1.007-2.5 2.25-2.5zm16 0c.414 0 .75 1.12.75 2.5 0 1.381-.336 2.5-.75 2.5-1.243 0-2.25-1.119-2.25-2.5 0-1.38 1.007-2.5 2.25-2.5z" fill="#F3A933"/></svg>