<svg width="32" height="32" fill="none" xmlns="http://www.w3.org/2000/svg"><g clip-path="url(#clip0_2255_9720)" fill="#CDD9E8"><path d="M16 32C7.177 32 0 24.824 0 16 0 7.178 7.177 0 16 0s16 7.178 16 16c0 8.823-7.177 16-16 16zm0-30C8.28 2 2 8.28 2 16s6.28 14 14 14 14-6.28 14-14S23.72 2 16 2z"/><path d="M11.008 22a1.009 1.009 0 01-.713-1.722l9.983-9.982a1.009 1.009 0 011.427 1.427l-9.983 9.982a1.01 1.01 0 01-.714.296z"/><path d="M20.99 22a1 1 0 01-.712-.295l-9.982-9.982a1.008 1.008 0 111.426-1.427l9.982 9.983A1.008 1.008 0 0120.991 22z"/></g><defs><clipPath id="clip0_2255_9720"><path fill="#fff" d="M0 0h32v32H0z"/></clipPath></defs></svg>