<svg width="40" height="26" fill="none" xmlns="http://www.w3.org/2000/svg"><path d="M15.115 7.584v-.002l8.323 4.986 4.96-2.088a8.024 8.024 0 013.736-.638A12.388 12.388 0 009.784 6.11l.126-.003a9.861 9.861 0 015.205 1.478z" fill="#0364B8"/><path d="M15.117 7.582A9.862 9.862 0 009.91 6.106l-.127.003A9.907 9.907 0 001.78 21.682l7.337-3.088 3.263-1.373 7.263-3.058 3.794-1.595-8.32-4.986z" fill="#0078D4"/><path d="M32.133 9.842a8.025 8.025 0 00-3.735.64l-4.96 2.086 1.438.86 4.714 2.824 2.057 1.231 7.033 4.212a8.052 8.052 0 00-6.547-11.853z" fill="#1490DF"/><path d="M31.647 17.483l-2.057-1.231-4.713-2.825-1.438-.86-3.794 1.596-7.264 3.058-3.264 1.372-7.34 3.089a9.898 9.898 0 008.133 4.245h21.68a8.05 8.05 0 007.09-4.232l-7.033-4.212z" fill="#28A8EA"/></svg>