<svg width="270" height="270" fill="none" xmlns="http://www.w3.org/2000/svg"><g clip-path="url(#clip0_465_9545)" fill="#153051"><path d="M159.665 98.717c-4.546-5.428-12.203-1.109-17.556.926a7626.735 7626.735 0 00-21.527 8.237c-16.231 6.237-32.454 13.726-49.788 16.139-1.082.152-.62 1.804.452 1.652 16.24-2.262 31.275-9.016 46.461-14.862a8831.785 8831.785 0 0121.003-8.05c5.034-1.919 15.691-7.689 19.75-2.836.709.851 1.91-.365 1.205-1.206z"/><path d="M70.793 124.024c-9.695 1.763-19.018 4.897-28.067 8.775a237.786 237.786 0 00-7.019 3.148c-1.515.708-3.77 1.265-4.94 2.467-2.008 2.07.438 4.746 1.51 6.754 3.904 7.302 7.427 16.505 14.393 21.487 6.492 4.639 14.149 3.348 20.663-.601 6.944-4.207 10.75-10.699 13.426-18.192a82.65 82.65 0 002.123-6.87c.762-2.93.735-7.177 3.642-8.985 1.946-1.216 4.87-1.754 7.01-2.525.678-.244 2.291-1.331 2.805-1.01 2.938 1.843 2.517 2.248 3.022 3.971 1.104 3.776 1.574 7.062 3.798 10.463 1.857 2.845 4.298 5.343 7.165 7.16 6.784 4.305 14.543 1.696 20.893-2.418 3.78-2.449 6.133-6.242 8.601-9.915 3.208-4.773 6.359-9.608 8.858-14.8 2.211-4.59 3.922-9.439 4.657-14.497.439-3.023 1.414-8.775-.434-11.563-.607-.912-2.083-.057-1.471.864 1.981 2.979.341 10.383-.332 13.442-1.002 4.537-2.801 8.882-4.946 12.987-1.94 3.714-4.187 7.253-6.496 10.739-2.517 3.803-4.945 8.206-8.72 10.886-3.08 2.187-7.551 4.288-11.309 4.827-5.113.734-9.593-2.164-12.903-5.851a22.965 22.965 0 01-5.18-9.781c-.51-2.048.039-5.878-1.565-7.583-1.373-1.46-3.106-.904-4.799-.338-3.203 1.068-7.697 1.963-10.501 3.865-2.074 1.406-2.048 3.392-2.535 5.707a81.487 81.487 0 01-3.869 13.006c-3.225 8.25-8.889 14.692-17.454 17.435-10.21 3.273-16.918-4.136-21.483-12.355-.979-1.768-1.918-3.562-2.87-5.343-1.206-2.253-3.178-4.817-3.887-7.266-.944-3.268 1.524-3.544 3.984-4.697a236.1 236.1 0 016.917-3.104c8.95-3.824 18.176-6.905 27.761-8.651 1.086-.182.63-1.834-.448-1.638z"/><path d="M158.212 99.322c-.802 6.705-1.258 14.199-3.514 20.561-2.189 6.184-5.818 11.955-9.394 17.418-7.174 10.961-21.992 18.762-34.173 11.469-.944-.566-1.804.917-.86 1.478 11.388 6.821 25.041 2.85 34.488-8.655 4.462-5.432 7.741-12.022 10.493-18.482 3.164-7.422 3.713-15.85 4.666-23.793.129-1.087-1.577-1.078-1.706.004zm-57.862 29.906c-2.083-3.82-8.89 1.706-10.95 3.121-1.839 1.265-2.477 2.699-2.778 4.929-.567 4.145-.731 8.192-1.963 12.235-2.637 8.638-8.597 15.966-17.255 18.958-7.874 2.725-17.96 1.679-22.759-5.895-.59-.926-2.065-.066-1.471.864 6.94 10.948 22.714 9.666 32.095 2.81 5.264-3.847 8.818-9.453 10.821-15.619 1.117-3.437 1.702-6.977 2.043-10.566.341-3.566 1.032-5.61 4.33-7.533.837-.49 5.254-3.842 6.039-2.404.523.975 2.375.071 1.848-.9z"/><path d="M157.618 111.927c6.341 2.569 12.625 5.28 18.948 7.885 2.947 1.211 6.208 2.302 8.57 4.559a9.758 9.758 0 013.035 6.999l-.212 2.177c-.359 2.623-2.42 3.317-6.182 2.084-1.13-1.941-.603-4.238-2.136-6.215-1.307-1.683-3.217-2.792-5.087-3.727-5.893-2.934-12.398-4.786-18.815-6.104-1.072-.218-1.528 1.429-.452 1.652 4.764.979 9.43 2.284 13.968 4.047 2.499.971 5.335 1.999 7.453 3.727 2.446 2.003 2.57 4.278 3.425 7.074 1.644 5.348 6.997 4.217 8.911-.365 2.593-6.189-.975-12.266-6.483-15.156-7.75-4.065-16.386-7.008-24.491-10.293-1.014-.41-1.458 1.246-.452 1.656z"/><path d="M153.967 125.44l13.431 3.446c2.628.672 4.564.881 6.527 2.831 1.755 1.746 1.489 3.122 2.566 5.138 2.353 4.417 6.624 5.179 10.382 1.946.833-.717-.377-1.928-1.205-1.211-3.151 2.712-6.745 1.015-8.043-2.533-.43-1.171-.332-2.551-.899-3.656-.652-1.26-1.613-1.919-2.854-2.493-2.583-1.189-5.645-1.581-8.384-2.284-3.687-.944-7.373-1.892-11.06-2.836-1.068-.272-1.524 1.38-.461 1.652zm-11.056-16.229c-2.242 8.909-6.354 17.23-12.358 24.194-3.142 3.646-7.83 8.913-13.219 7.756-5.118-1.1-7.01-7.716-8.073-12.106-.709-2.934-1.436-6.705.868-9.03 1.799-1.812 4.365-2.929 6.713-3.771 3.718-1.331 7.662-1.981 11.46-3.049 4.989-1.403 10.267-2.414 15.429-2.912 1.081-.107 1.094-1.821 0-1.714-8.198.792-16.285 2.943-24.212 5.08-3.993 1.077-8.885 2.627-11.472 6.131-2.867 3.882-.661 9.924.797 13.971 3.182 8.825 10.604 11.914 18.15 5.686 8.911-7.356 14.778-18.718 17.561-29.782.27-1.069-1.374-1.523-1.644-.454zm-68.028 21.202c-7.005 1.487-13.931 4.537-20.6 7.093-3.244 1.246-13.918 3.579-13.29 8.423.311 2.4 3.018 5.468 4.281 7.494 1.325 2.123 2.61 4.505 4.485 6.211 3.314 3.009 9.903 2.903 14.038 2.003 4.418-.961 7.51-6.344 9.336-10.111 2.876-5.944 2.495-13.86 2.832-20.285.057-1.104-1.649-1.1-1.706 0-.306 5.85-.067 12.805-2.163 18.299-.86 2.249-2.193 4.221-3.607 6.153-2.508 3.433-4.732 4.377-8.893 4.404-3.518.022-6.766.249-9.412-2.485-1.693-1.749-2.924-4.207-4.187-6.273-.997-1.63-4.095-5.24-2.672-7.235.34-.476 1.506-.824 2.002-1.064 5.314-2.551 10.963-4.51 16.498-6.518 4.404-1.594 8.92-3.478 13.52-4.457 1.067-.227.615-1.879-.462-1.652z"/><path d="M51.101 129.959c.16-1.456-.035-2.877-.363-4.292-.328-1.407-.784-2.788-1.294-4.145-1.006-2.716-2.437-5.29-3.412-8.126-.993-2.801-1.777-5.69-2.216-8.642a49.002 49.002 0 01-.55-8.94.974.974 0 011.898-.29l.013.036a16.64 16.64 0 005.915 8.036l-1.83.904-.004-7.253c0-.694.563-1.26 1.254-1.26a1.26 1.26 0 011.218.953l.014.05c.275 1.09 1.006 2.105 1.967 2.67l-1.799.477a10.57 10.57 0 001.294-4.577l2.495-.566c-.031-.084-.146-.133-.107-.115a.55.55 0 00.262-.05c.164-.07.301-.24.434-.703.124-.45.16-1.073.2-1.78l.128-2.076.519-8.294 1.045-16.59a1.534 1.534 0 011.622-1.438 1.54 1.54 0 011.37 1.1c1.205 4.078 2.547 8.099 4.71 11.532a19.157 19.157 0 001.794 2.386c.665.721 1.36 1.416 2.154 1.96.767.587 1.622 1.023 2.495 1.41a7.68 7.68 0 002.623.602c.864.035 1.675-.139 2.295-.54.652-.427 1.09-1.045 1.507-1.931.39-.846.709-1.884 1.02-2.89a46.388 46.388 0 001.914-15.574l-.005-.063a.968.968 0 01.922-1.02.966.966 0 011.014.922c.031.584.448 1.194 1.06 1.559.3.182.642.302.979.342.168.018.332.018.496 0 .137-.013.363-.089.408-.093l.319-.16a.962.962 0 01.155-.107c.128-.107.252-.223.363-.356.217-.272.386-.61.483-.967.2-.716.098-1.509-.301-2.06l-.013-.023a.789.789 0 01.168-1.095.783.783 0 011.063.133l1.525 1.857-1.104-.027 1.697-1.759.04-.044a.678.678 0 01.966-.014.69.69 0 01.195.624c-.12.632.492 1.335 1.308 1.59.806.298 1.635.075 2.432-.45.78-.517 1.445-1.287 2.096-2.098l1.977-2.48 7.909-9.933 15.602-20.04a.622.622 0 01.882-.107.644.644 0 01.235.606v.009c-1.28 7.551-1.591 15.254-.997 22.867.049.806.337 1.67.731 2.15.213.241.324.255.408.245.146-.022.248-.084.527-.396l3.514-4.519 7.081-9.123a1.272 1.272 0 011.79-.222c.448.351.603.948.413 1.456l-.014.03-4.453 11.982-2.021-1.732a23.017 23.017 0 017.564-2.845 1.48 1.48 0 011.72 1.193c.039.214.031.423-.018.624l-.009.035-1.772 7.097-1.932-1.888c4.152-1.233 8.432-2.515 12.97-2.956a1.617 1.617 0 011.763 1.46 1.624 1.624 0 01-.975 1.652l-.221.094a5.068 5.068 0 01-.43.16c-.133.08-.266.16-.403.227a4.5 4.5 0 00-.714.66 5.16 5.16 0 00-.549.88 6.192 6.192 0 00-.346 1.02 6.258 6.258 0 00-.115 1.069c.009.356.053.694.129 1.024.093.32.217.614.367.886.093.12.182.245.266.37.111.102.217.204.315.316l-.687-.361c1.697.427 3.518.41 5.304.049a16.51 16.51 0 002.646-.775c.434-.17.859-.352 1.285-.552.412-.196.859-.432 1.223-.632.456-.263.868-.512 1.24-.748.399-.258.798-.53 1.188-.81a37.274 37.274 0 002.295-1.804c1.494-1.273 2.956-2.644 4.44-4.042a1.795 1.795 0 012.548.066c.297.316.461.722.492 1.127l.616 9.34-2.53-1.5a40.798 40.798 0 007.781-4.737 1.758 1.758 0 012.473.312c.443.574.474 1.344.15 1.941l-2.991 5.427c-.257.468-.501.886-.629 1.207-.146.325-.177.623-.168.61.031-.036-.164-.254-.138-.205.049.036.412.103.855.107a28.94 28.94 0 0011.428-1.955l.023-.009a1.697 1.697 0 012.202.975 1.734 1.734 0 01-.195 1.603 26.3 26.3 0 00-3.625 7.405l-1.249-2.057 2.627.53.031.004a1.588 1.588 0 011.161 2.12l-1.338 3.485-.669 1.746c-.23.436-.133.917-.244.53a.724.724 0 00-.093-.12c-.044-.04.027.017-.119-.099l.093.072c-.235-.16-.213-.103-.24-.12.005.013.244.004.59-.027.177-.014.381-.027.629-.023l.199.014.049.004.164.027.058.013.226.045a3.206 3.206 0 011.586.944c.731.846.953 1.767 1.024 2.587a6.139 6.139 0 01-.297 2.422c-.062.204-.147.378-.244.61l-.222.436-.478.873c-.306.538-.594 1.041-.784 1.504-.2.464-.293.873-.284 1.225-.004.049.031.263.009.178l.111.454c.062.09.084.174.199.339.39.552 1.329.979 2.384 1.153 1.055.187 2.211.182 3.346.07l.066-.008c.7-.071 1.32.44 1.391 1.144a1.277 1.277 0 01-.793 1.314c-1.311.525-2.193 1.981-2.468 3.668-.151.838-.155 1.719-.053 2.583.053.458.128.806.257 1.309.115.441.244.859.394 1.313.598 1.777 1.44 3.562 2.052 5.521.151.49.288.989.399 1.501.115.552.173.957.297 1.362.115.405.283.788.46 1.024.218.254.213.218.355.223l.261.009a.864.864 0 01.833.89.865.865 0 01-.584.788 9.25 9.25 0 00-3.754 2.427c-.514.552-1.014 1.184-1.085 1.651-.014.058-.014.112-.014.165-.004.009.009.094-.004.04.009.031.022.138.027.112 0 0 .053.129.115.182.155.151.261.143.252.143l1.042.765c-.027.201-.045.708-.049 1.113l.009 1.301.062 2.617.186 5.25.186 5.258.062 2.631c0 .891.053 1.728-.071 2.681a.164.164 0 01-.186.142.169.169 0 01-.146-.178l.004-.058c.058-.788-.022-1.71-.071-2.569l-.19-2.618-.443-5.236-.443-5.24-.195-2.632-.076-1.326c-.004-.472-.057-.842.036-1.51l1.037.762a1.472 1.472 0 01-1.121.213 1.857 1.857 0 01-.873-.458c-.235-.232-.413-.45-.545-.846l-.049-.187c-.027-.156-.027-.174-.036-.267a2.497 2.497 0 01.009-.45c.071-.588.315-1.06.567-1.46a10.97 10.97 0 015.163-4.083l.509 1.692c-.39.102-.877.084-1.28-.094a2.367 2.367 0 01-.913-.712c-.426-.534-.643-1.069-.82-1.594-.182-.525-.283-1.091-.385-1.492-.111-.44-.249-.881-.399-1.322-.612-1.759-1.498-3.495-2.22-5.401-.177-.467-.35-.979-.501-1.478-.128-.441-.288-1.042-.354-1.554a11.008 11.008 0 01-.045-3.263c.155-1.096.483-2.2 1.086-3.224.611-1.015 1.551-1.914 2.681-2.435l.664 2.449c-1.329.16-2.676.2-4.067-.01a8.107 8.107 0 01-2.123-.6c-.705-.316-1.436-.793-1.99-1.51a4.536 4.536 0 01-.686-1.295l-.124-.45c-.085-.392-.085-.49-.107-.748-.049-.9.173-1.727.448-2.409.274-.694.602-1.278.899-1.825l.408-.77.195-.401c.013-.063.071-.165.093-.263.12-.392.173-.855.124-1.26-.031-.414-.195-.743-.292-.837-.045-.044-.107-.031.022-.022l-.231-.04-.057-.01-.014-.004h-.008c.057.01-.142-.022.128.018h-.044l-.297.022c-.27.018-.656.098-1.267.027-.328-.062-.612-.093-1.113-.418l-.093-.067c-.208-.165-.186-.165-.288-.258a2.357 2.357 0 01-.368-.495c-.398-.734-.363-1.398-.305-1.86.062-.473.204-.904.319-1.225l.633-1.759 1.263-3.513 1.192 2.124-2.636-.472a1.609 1.609 0 01-1.294-1.865l.035-.156.009-.036a29.354 29.354 0 013.917-8.437l2.025 2.574a32.306 32.306 0 01-12.744 2.244c-.58-.023-1.272-.018-2.171-.392-.931-.339-1.848-1.483-1.923-2.556-.111-1.05.164-1.78.403-2.404.266-.637.554-1.109.789-1.55l2.969-5.44 2.619 2.252a44.483 44.483 0 01-8.433 5.183 1.776 1.776 0 01-2.366-.864 1.964 1.964 0 01-.164-.64l-.656-9.342 3.035 1.193c-1.475 1.407-2.977 2.845-4.613 4.186a41 41 0 01-2.539 1.945c-.443.307-.89.606-1.347.895a32.77 32.77 0 01-1.382.815c-.532.29-.988.516-1.498.757a27.18 27.18 0 01-1.533.637 19.686 19.686 0 01-3.217.903c-2.203.419-4.551.432-6.802-.164l-.129-.036a1.222 1.222 0 01-.558-.33l-.696-.716-.567-.815a7.615 7.615 0 01-.718-1.794 8.496 8.496 0 01-.212-1.848 9.476 9.476 0 01.212-1.808 9.258 9.258 0 01.607-1.714 8.48 8.48 0 011.006-1.558 7.393 7.393 0 011.427-1.278l.86-.472.93-.33.568 3.202c-4.126.347-8.234 1.505-12.403 2.693l-.023.005a1.545 1.545 0 01-1.909-1.897l1.896-7.066 1.693 1.848a20.05 20.05 0 00-6.66 2.35l-.027.014a1.4 1.4 0 01-1.914-.534 1.434 1.434 0 01-.084-1.216l4.697-11.887 2.189 1.269-7.356 8.9-3.718 4.483c-.195.214-.43.446-.749.65a2.483 2.483 0 01-1.138.374c-.43.032-.873-.08-1.237-.28a2.962 2.962 0 01-.824-.726c-.775-1.06-.997-2.15-1.072-3.255a96.59 96.59 0 01.106-11.665c.266-3.878.789-7.733 1.498-11.549l1.112.503-15.771 19.907-7.776 10.04-1.946 2.51c-.66.842-1.378 1.715-2.352 2.392-.466.32-1.086.623-1.658.748a3.625 3.625 0 01-1.905-.098c-.603-.196-1.175-.521-1.627-1.038a2.629 2.629 0 01-.664-1.994l1.205.565-1.635 1.812a.73.73 0 01-1.032.05l-.058-.059-.018-.018-1.586-1.807 1.218-.98c.763.989.931 2.28.665 3.406a4.31 4.31 0 01-.74 1.608 4.47 4.47 0 01-.63.667l-.429.303-.315.174a3.637 3.637 0 01-.957.298c-.31.045-.62.054-.93.036a4.336 4.336 0 01-1.72-.53c-1.036-.57-1.931-1.634-2.078-2.983l1.937-.156a48.284 48.284 0 01-.74 13.166 44.333 44.333 0 01-.75 3.237c-.296 1.06-.562 2.105-1.032 3.232a8.702 8.702 0 01-.912 1.665c-.2.276-.39.517-.67.793l-.336.311-.452.348c-1.17.81-2.557 1.108-3.829 1.1-1.263.004-2.535-.303-3.63-.749-1.094-.458-2.162-1.006-3.114-1.714-.984-.668-1.83-1.491-2.628-2.342a21.468 21.468 0 01-2.11-2.742c-2.476-3.856-3.903-8.1-5.184-12.249l2.996-.338L60 82.163l-.626 8.286-.155 2.07c-.057.672-.075 1.442-.323 2.333-.226.85-.86 2.017-2.016 2.458a3.156 3.156 0 01-1.764.196c-.638-.103-1.391-.552-1.75-1.252l2.494-.565a13.247 13.247 0 01-1.688 5.708l-.009.018a1.276 1.276 0 01-1.75.481l-.035-.023c-1.565-.966-2.7-2.538-3.08-4.34l2.481-.263-.221 7.248v.036a1.137 1.137 0 01-1.83.868 18.77 18.77 0 01-6.403-9.274l1.905-.259c-.354 5.735.368 11.541 2.034 17.08.797 2.764 2.1 5.409 3 8.245.456 1.407.855 2.841 1.09 4.315.244 1.456.35 2.996.089 4.452v.009a.171.171 0 01-.2.138c-.089.004-.15-.08-.142-.169z"/><path d="M163.911 99.683a.857.857 0 01-.807-.575c-.554-1.59-.394-3.379.35-4.87l-2.047.36a.846.846 0 01-.78-.272.867.867 0 01-.186-.81l1.945-6.808c.045-.155.062-.249.071-.307h-.004a.246.246 0 01-.093-.035l-.186-.098c-1.135-.641-1.494-1.91-1.613-2.93-2.641.77-5.287 1.536-7.928 2.302-1.71.499-2.517-.049-2.893-.597-.585-.859-.2-1.896-.036-2.342l2.092-5.623-4.875 1.915c-.509.196-1.449.57-2.335.11-1.276-.662-1.165-2.332-1.13-2.88l.514-7.996a.856.856 0 01-.731-.512c-.208-.481-.053-1.015.381-1.331.488-.357 1.152-.33 1.578.053.562.508.514 1.256.491 1.576l-.531 8.317c-.067 1.02.146 1.216.212 1.251.191.098.705-.102.927-.187l6.646-2.609a.853.853 0 011.108 1.095l-2.756 7.418c-.23.619-.173.752-.16.775.023.026.275.133 1.011-.08a5422.12 5422.12 0 008.951-2.6.827.827 0 01.744.133c.213.16.341.41.346.672.018.993.124 2.186.806 2.574.333.169.625.316.851.619.488.654.262 1.447.164 1.785l-1.569 5.49 2.841-.499a.846.846 0 01.917.477.862.862 0 01-.208 1.015c-1.33 1.157-1.875 3.21-1.294 4.88a.859.859 0 01-.523 1.09.621.621 0 01-.261.054zm-27.806 138.868a.853.853 0 01-.731-.414c-1.565-2.6-5.273-3.624-7.937-2.195-.469.249-.904.561-1.342.868-.528.374-1.073.762-1.693 1.069-1.223.614-2.991.904-4.289-.116-.683-.539-1.095-1.331-1.449-2.03-.364-.708-.612-1.14-.9-1.327-.097.303-.08.85-.071 1.215.027.913-.283 1.964-1.001 2.498-.443.325-.966.41-1.476.236-.447-.156-.744-.467-1.001-.783l-.115-.138c-.927-1.145-2.03-2.512-3.147-2.814.12.236.151.521.054.765-.178.437-.652.704-1.09.53a1.777 1.777 0 01-.98-1.033 1.803 1.803 0 01.045-1.424.863.863 0 01.491-.437c2.553-.886 4.516 1.554 5.956 3.335l.111.138c.141.174.204.227.23.241.022-.063.231-.486.217-.904-.035-1.1-.075-2.52 1.117-3.144a.863.863 0 01.447-.093c1.458.093 2.101 1.349 2.619 2.355.293.57.594 1.158.984 1.465.674.53 1.759.298 2.481-.067.501-.249.971-.583 1.472-.935.492-.352.988-.699 1.524-.984 2.681-1.438 6.19-.939 8.552.953l-.359-12.907c-.049-1.812-.195-3.665-1.325-4.702a.861.861 0 01-.075-1.193.843.843 0 011.183-.107 52.777 52.777 0 006.35 4.439c.08.044.323.191.408.191.022-.08.048-.583.062-.881.022-.481.048-1.029.226-1.523.226-.632.718-1.135 1.382-1.416a3.313 3.313 0 012.597.049c.806.374 1.409.984 1.901 1.616a8.703 8.703 0 00.904-2.386.852.852 0 01.797-.677c1.015-.044 1.551.641 1.986 1.131.226.258.456.521.655.606.466.187 1.17-.535 1.587-1.345.532-1.037 1.409-2.814 3.173-2.747 1.028.018 1.79.668 2.463 1.247.612.525 1.015.837 1.316.721.288-.107.483-.606.683-1.14.297-.766.66-1.723 1.639-2.124 1.219-.494 2.615.227 3.563 1.844.173.293.341.587.523.846a24.452 24.452 0 011.994-10.29.861.861 0 01.629-.503.852.852 0 01.762.245 26.256 26.256 0 003.714 3.157c.168-.027.447-.134.611-.236.505-3.371 2.517-5.806 4.294-7.961.798-.966 1.546-1.875 2.025-2.729.244-.441.523-.94.523-1.376 0-1.118-1.604-1.71-3.394-2.271a15.754 15.754 0 01-4.64-2.342c-.332-.245-1.223-.895-1.289-1.932-.076-1.225 1.006-2.004 1.466-2.338l4.188-3.023a1.287 1.287 0 00-.82-.178.86.86 0 01-.713-.231.866.866 0 01-.257-.704l1.777-17.613a.86.86 0 01.935-.766c.469.049.81.467.762.939l-1.689 16.732c.86.201 1.636.784 2.026 1.59a.858.858 0 01-.266 1.073l-4.954 3.575c-.519.374-.771.654-.763.841.009.103.116.303.59.655a14.044 14.044 0 004.138 2.088c1.831.57 4.591 1.429 4.596 3.9 0 .886-.43 1.657-.745 2.218-.549.988-1.351 1.959-2.198 2.983-1.67 2.025-3.562 4.318-3.948 7.315-.062.49-.456.904-1.174 1.224-.461.205-1.325.49-1.941.063a27.785 27.785 0 01-3.164-2.552 22.684 22.684 0 00-1.289 10.054.853.853 0 01-.24.681.851.851 0 01-.673.258c-1.476-.107-2.265-1.456-2.841-2.444-.447-.761-1.107-1.376-1.497-1.207-.293.121-.483.619-.687 1.149-.301.784-.674 1.763-1.697 2.133-1.263.454-2.225-.365-3-1.029-.479-.409-.975-.832-1.392-.837h-.008c-.63 0-1.166.94-1.618 1.821-.953 1.839-2.415 2.68-3.74 2.142-.571-.236-.957-.673-1.298-1.06-.04-.049-.089-.098-.129-.147a10.325 10.325 0 01-1.573 2.983.882.882 0 01-.704.334.849.849 0 01-.683-.383c-.629-.953-1.174-1.705-1.927-2.057a1.618 1.618 0 00-1.223-.022c-.226.094-.372.236-.435.414-.088.254-.11.646-.128 1.029-.044.854-.115 2.284-1.524 2.493-.656.102-1.192-.218-1.516-.41a53.334 53.334 0 01-3.775-2.457c.142.828.186 1.683.208 2.493l.425 15.245a.865.865 0 01-.611.846.385.385 0 01-.217.053zm-39.34-67.827c4.754 7.409 11.787 9.279 19.936 6.91 3.421-.993 7.542-1.986 9.731-5.067 2.056-2.894 2.175-6.785 2.242-10.195.022-1.105-1.684-1.105-1.706 0-.053 2.796-.08 5.89-1.445 8.415-1.794 3.316-5.92 4.216-9.274 5.195-7.387 2.155-13.684.619-18.009-6.122-.598-.921-2.073-.066-1.475.864z"/><path d="M124.486 164.682c.124-.85.226-1.798.634-2.569.736-1.384 2.362-1.429 3.744-1.491.909-.04 2.801-.218 3.594.213 1.259.691 1.219 2.681 1.196 3.861-.017 1.104 1.689 1.104 1.706 0 .027-1.487-.084-3.536-1.085-4.738-1.041-1.251-3.572-1.086-5.025-1.055-1.542.031-3.363.089-4.609 1.122-1.245 1.033-1.573 2.68-1.794 4.208-.164 1.073 1.48 1.536 1.639.449zm-29.72-22.733c.248 2.355.333 4.697.111 7.061-.204 2.159-1.063 4.306-1.205 6.438-.275 4.239 3.328 1.567 5.255 4.323.625.895 2.105.04 1.471-.863-.62-.891-1.16-1.305-2.105-1.83-.332-.183-.797-.071-1.103-.245-1.489-.842-1.413-1.786-1.351-3.152.066-1.532.602-3.126.744-4.671.217-2.369.142-4.697-.11-7.061-.116-1.087-1.822-1.1-1.707 0zm-32.764 33.678c-2.02-.009-3.992.053-5.942.262-1.946.214-3.86.535-5.73 1.02l.155-2.511c1.733.503 3.173 1.767 4.06 3.183.903 1.425 1.43 2.965 1.736 4.519.071.392.125.779.169 1.176l.106 1.095c.071.735.084 1.451.129 2.168l.181 4.257c.04.699.098 1.393.213 2.026.049.316.137.627.2.797.08.097-.13-.032.097.155l.42.352c.568.481 1.162 1.024 1.627 1.781.226.378.386.846.399 1.322v.223l-.005.08-.008.067c-.018.102-.014.147-.054.298a2.497 2.497 0 01-.265.681c-.466.82-1.232 1.252-1.959 1.528a7.743 7.743 0 01-2.251.449c-1.41.085-2.872.267-3.527 1.158l-.107-.966c3.452 2.288 7.01 4.434 10.436 6.758.438.308.82.535 1.36.962.5.419 1.006.891 1.405 1.736a2.96 2.96 0 01.244 1.634 2.775 2.775 0 01-.82 1.586c-.829.748-1.485.863-1.91 1.068l-5.747 2.333.34-3.241c1.34.864 2.411 2.057 3.174 3.348.77 1.291 1.223 2.694 1.51 4.083.076.347.13.699.182 1.046l.071.543.045.477c.066.716.066 1.384.066 2.057-.013 1.335-.097 2.626-.19 3.887-.209 2.515-.262 4.91-.014 7.381.111 1.234.301 2.463.523 3.696.23 1.233.554 2.449.89 3.682a.173.173 0 01-.114.214.177.177 0 01-.195-.076 27.73 27.73 0 01-3.031-7.159c-.687-2.529-.97-5.236-1.024-7.796-.044-1.278-.044-2.529-.137-3.731-.04-.597-.116-1.203-.178-1.746l-.066-.472-.07-.396a9.976 9.976 0 00-.183-.819c-.558-2.155-1.613-4.114-3.199-5.143l-.049-.031a1.803 1.803 0 01.39-3.21l5.863-2.017c.531-.169.904-.338.846-.307-.115.049-.097.481-.084.356-.022-.107-.24-.418-.514-.672-.248-.241-.722-.601-1.108-.917-3.217-2.609-6.301-5.397-9.491-8.041l-.05-.04a.633.633 0 01-.084-.891l.032-.031c.624-.663 1.462-1.002 2.228-1.14.771-.142 1.516-.173 2.22-.214.718-.031 1.339-.106 1.95-.369.594-.24 1.126-.614 1.356-1.082.058-.116.089-.245.102-.325.018-.022.013-.16.018-.236l.004-.067v-.018l-.004.041v-.005l-.005-.022-.008-.094a1.517 1.517 0 00-.297-.694c-.324-.454-.891-.811-1.472-1.176l-.456-.276c-.075-.004-.532-.409-.638-.614-.292-.454-.43-.837-.563-1.216a22.646 22.646 0 01-.607-2.208 48.723 48.723 0 01-.767-4.328c-.088-.717-.203-1.429-.274-2.128l-.12-1.055c-.044-.316-.089-.641-.155-.957-.425-2.529-1.578-4.996-3.59-5.797l-.137-.054a1.275 1.275 0 01-.713-1.66 1.274 1.274 0 011.006-.797c4.116-.588 8.348-.352 12.217.93a.174.174 0 01.115.218.204.204 0 01-.173.112zm158.548-62.863c-1.564 6.745-2.969 13.526-4.431 20.293-.683 3.161-1.148 6.483-2.07 9.582-1.147 3.86-6.899 6.18-10.36 7.836-5.871 2.809-12.212 4.47-18.42 6.336-3.399 1.019-6.988 2.702-10.555 2.533-1.121-.053-4.276-.089-5.096-.904-1.533-1.073-1.897-1.126-2.065-2.092-1.334-2.004.403-3.883 2.096-4.03.505-.347 1.476-.463 2.065-.663 5.508-1.892 10.781-4.484 16.01-7.035 2.65-1.296 5.286-2.609 7.945-3.887 2.136-1.024 5.149-1.834 6.762-3.677 1.919-2.2 2.038-6.292 2.628-9.003 1.178-5.445 2.326-10.899 3.478-16.354.226-1.077-1.418-1.536-1.644-.454-1.156 5.454-2.3 10.909-3.478 16.354-.435 2.008-.696 4.207-1.37 6.153-.988 2.854-3.567 3.767-6.194 5.009-6.714 3.174-13.276 6.683-20.136 9.532-3.204 1.331-12.23 2.329-11.299 7.133 1.227 6.331 8.578 6.051 12.208 5.668 2.871-.303 5.703-1.603 8.45-2.436 3.749-1.135 7.524-2.186 11.237-3.432 6.045-2.031 12.115-4.658 17.118-8.705 2.313-1.87 2.273-3.419 2.88-6.242 1.946-9.02 3.811-18.068 5.894-27.057.239-1.077-1.405-1.531-1.653-.458z"/><path d="M207.704 112.332a.857.857 0 01-.833-1.047c.354-1.571-.594-4.514-1.666-6.478-.257-.472-.563-.921-.864-1.376-.284-.423-.572-.85-.82-1.286-2.424-4.212-1.653-9.662 1.874-13.255l.417-.41c.456-.44.886-.863 1.125-1.317.572-1.082.107-2.356-.429-3.83-.572-1.567-1.219-3.343-.444-5.066.355-.775.94-1.314 1.653-1.518.997-.28 2.087.093 3.231 1.117 1.13 1.01 2.738 2.582 3.66 4.52.939 1.98 1.006 4.095.173 5.805-.191.392-.43.761-.665 1.131-.195.298-.39.601-.545.913a3.989 3.989 0 00-.182 3.152c.04.094.098.13.297.178 2.477.663 5.508-.258 7.365-2.24 1.958-2.092 2.37-4.848 2.37-6.79 0-.725-.048-1.469-.093-2.212-.159-2.551-.323-5.187 1.228-7.507.505-.752 1.085-1.206 1.777-1.389 1.63-.427 3.079.85 3.731 2.217 1.245 2.64 1.303 5.86.177 9.564-.487 1.607-1.139 3.174-1.772 4.697-.541 1.3-1.099 2.645-1.538 3.976a.844.844 0 01-1.077.543.853.853 0 01-.54-1.082c.46-1.398 1.032-2.769 1.581-4.1.616-1.478 1.254-3.01 1.715-4.537 1.002-3.281.971-6.087-.088-8.326-.284-.601-1.002-1.492-1.759-1.296-.271.072-.528.294-.789.686-1.232 1.839-1.09 4.074-.944 6.443a37.1 37.1 0 01.097 2.315c0 3.232-.979 5.984-2.831 7.965-2.264 2.418-5.978 3.54-9.044 2.725-.337-.09-.727-.223-1.037-.534a1.868 1.868 0 01-.421-.704 5.684 5.684 0 01.253-4.515c.186-.37.412-.725.642-1.077.199-.312.403-.623.563-.953.602-1.233.536-2.81-.177-4.314-.599-1.26-1.636-2.525-3.257-3.976-.466-.419-1.121-.886-1.631-.748-.301.085-.483.396-.563.574-.487 1.082-.013 2.387.492 3.767.589 1.625 1.263 3.464.332 5.223-.367.694-.917 1.228-1.449 1.745l-.39.383c-2.986 3.04-3.651 7.644-1.608 11.189.235.405.496.796.758 1.188.332.494.664.993.944 1.51.935 1.718 2.375 5.271 1.834 7.68a.86.86 0 01-.833.677z"/><path d="M219.881 85.137c-.049 0-.098 0-.146-.005-.957-.058-1.786-.645-2.402-1.71a7.76 7.76 0 01-1.028-3.165l-.013-.187c-.018-.25-.036-.463-.102-.614-.036-.08-.12-.174-.2-.188-.155-.026-.381.16-.585.441-.549.762-.837 1.625-.833 2.507 0 .472-.381.86-.85.86h-.005a.853.853 0 01-.851-.856c-.004-1.246.399-2.462 1.161-3.521.59-.815 1.374-1.22 2.163-1.136.682.08 1.28.548 1.564 1.211.177.414.208.81.235 1.162.093 1.007.368 1.857.811 2.623.221.378.576.837 1.032.864.381.026.833-.281 1.29-.602l.221-.155c1.108-.762 2.269-.9 3.089-.37a.86.86 0 01.252 1.184.85.85 0 01-1.178.259c-.173-.112-.683-.014-1.201.343l-.209.146c-.58.41-1.293.909-2.215.909zm3.585 4.639a1.1 1.1 0 01-.204-.022c-.926-.227-1.937-.16-3.005-.093-1.005.066-2.051.133-3.097-.05-1.316-.227-2.521-.832-3.394-1.71a.856.856 0 01-.005-1.21.847.847 0 011.206-.005c.62.62 1.524 1.069 2.481 1.234.846.142 1.75.084 2.703.026 1.152-.075 2.34-.151 3.523.138.456.112.74.575.625 1.038a.862.862 0 01-.833.654zm3.168 7.217a.851.851 0 01-.656-.307.863.863 0 01.106-1.207l4.768-4.007c.949-.797 1.928-1.616 2.469-2.591.403-.717.611-1.754 0-2.516-.346-.427-.953-.739-1.591-.805-.643-.072-1.338.102-1.826.463a.853.853 0 01-1.192-.183.861.861 0 01.182-1.198c.824-.605 1.954-.899 3.017-.783 1.082.116 2.101.65 2.73 1.429.966 1.193 1.028 2.89.164 4.434-.696 1.247-1.843 2.213-2.858 3.068l-4.768 4.007a.874.874 0 01-.545.196z"/><path d="M228.26 99.042a.85.85 0 01-.78-.512.866.866 0 01.439-1.131 53.268 53.268 0 015.911-2.186c.51-.156.913-.272 1.276-.45.311-.151.585-.347.86-.548.545-.4 1.068-.837 1.564-1.29.2-.188.408-.388.505-.575.094-.174.12-.405.094-.704a2.4 2.4 0 00-1.046-1.772c-.652-.445-1.591-.574-2.291-.32a.854.854 0 01-1.095-.512.862.862 0 01.51-1.1c1.218-.445 2.725-.245 3.833.516a4.134 4.134 0 011.786 3.028c.062.637-.036 1.198-.288 1.67-.226.423-.559.752-.86 1.028-.536.499-1.112.97-1.706 1.412a7.516 7.516 0 01-1.117.707c-.469.232-.952.379-1.422.521a50.996 50.996 0 00-5.827 2.146.943.943 0 01-.346.072z"/><path d="M230.414 101.468a.852.852 0 01-.829-.659.858.858 0 01.629-1.033l5.296-1.273c.952-.227 1.941-.468 2.734-.909.461-.258.78-.547.935-.846.212-.427.084-.903-.014-1.153-.11-.28-.261-.494-.452-.623-.186-.13-.443-.183-.629-.13a.857.857 0 01-.483-1.643c.665-.2 1.463-.057 2.07.362.478.325.837.801 1.076 1.41.346.891.328 1.8-.053 2.557-.31.61-.855 1.14-1.626 1.567-.997.556-2.149.832-3.168 1.077l-5.296 1.274a.947.947 0 01-.19.022z"/><path d="M221.37 113.832a.842.842 0 01-.838-.975c.146-.935 2.477-5.766 2.606-6.015.345-.668.873-1.291 1.661-1.959 3.302-2.801 8.008-3.825 11.26-4.355.594-.098 1.112-.182 1.471-.4.164-.103.244-.24.248-.29-.283-.307-.598-.685-.549-1.237.04-.472.496-.824.926-.775a.86.86 0 01.771.743c.177.219.27.334.337.454.492.838.124 1.964-.838 2.565-.642.401-1.391.521-2.047.628-4.892.797-8.206 2.057-10.475 3.98-.603.512-1.015.984-1.25 1.438-.421.815-2.308 4.902-2.432 5.499a.893.893 0 01-.851.699zm-17.676-39.946c-2.495-2.623-4.985-5.25-7.48-7.872-.758-.801-1.963.414-1.205 1.211 2.494 2.623 4.985 5.25 7.479 7.872.763.801 1.968-.41 1.206-1.211zm4.161-4.27a27.21 27.21 0 01-1.228-3.17c-.332-1.046-1.981-.6-1.644.454a30.66 30.66 0 001.4 3.58c.466 1.002 1.937.134 1.472-.864zm5.782-3.753a33.25 33.25 0 01.643-9.933c.235-1.073-1.409-1.536-1.644-.455a34.691 34.691 0 00-.705 10.388c.093 1.095 1.799 1.104 1.706 0zm4.037 1.42a14.013 14.013 0 012.211-3.549c.718-.828-.483-2.048-1.205-1.21a15.325 15.325 0 00-2.477 3.895c-.439 1.002 1.032 1.875 1.471.864zm5.459 4.052c4.246-2.694 9.257-4.221 13.91-6.046 1.01-.397.572-2.053-.452-1.652-4.795 1.879-9.944 3.441-14.317 6.22-.931.583-.076 2.066.859 1.478zm-29.254 7.008a10.07 10.07 0 00-3.603-1.265c-1.072-.156-1.538 1.496-.452 1.652a8.963 8.963 0 013.195 1.09c.953.553 1.812-.925.86-1.477zm-28.816 88.223a14.077 14.077 0 013.855 4.06c.04.063.04.143.013.205l-.009.018c-.142.298-.461.53-.775.588a2.254 2.254 0 01-.9-.027c-.558-.102-1.094-.432-1.506-.583-.435-.152-.975-.205-1.259-.04-.248.147-.252.414-.031.863.457.953.909 1.96 1.21 3.033.301 1.068.447 2.235.239 3.397a.556.556 0 01-.78.414l-.022-.009a31.61 31.61 0 00-4.635-1.679l.798-.948c.89 1.723 1.856 3.651 1.834 5.882a.734.734 0 01-.687.73h-.013a7.8 7.8 0 01-5.898-2.209l1.245-.939a20.122 20.122 0 012.265 6.781c.013.307.15.503.026 1.189-.071.342-.398.739-.695.863-.297.147-.532.17-.714.192a8.182 8.182 0 01-1.896-.031 9.05 9.05 0 01-3.545-1.247l1.236-.846a22.8 22.8 0 01.284 3.682 23.168 23.168 0 01-.085 1.843c-.066.619-.097 1.194-.288 1.91a2.905 2.905 0 01-.545 1.069c-.283.347-.74.623-1.183.703-.447.098-1.054.027-1.493-.382-.381-.406-.505-.686-.465-.606l.04.022c.155.045-.014 0-.014 0 .062.023.186.014.2-.004.093-.036.075-.058.044-.009-.067.089-.142.312-.16.499l-.119 1.745-.279 3.562c-.036.32-.085.77-.417 1.189-.346.409-.771.543-1.081.632a8.082 8.082 0 01-1.914.254c-1.277-.009-2.553-.303-3.669-.953-1.122-.619-2.048-1.674-2.455-2.921l-.009-.022a.441.441 0 01.279-.557.443.443 0 01.545.258c.838 2.16-.496 4.72-2.641 5.21a3.61 3.61 0 01-.802.062 3.598 3.598 0 01-.78-.142 3.73 3.73 0 01-1.351-.762c-.771-.677-1.263-1.705-1.139-2.711-.031 1.015.545 1.937 1.311 2.502.381.289.82.503 1.277.61.23.049.46.076.691.076a3.1 3.1 0 00.678-.098c.882-.25 1.577-.971 1.932-1.808.363-.837.381-1.808.018-2.582l.815-.316c.753 2.052 3.133 3.085 5.269 2.974a6.91 6.91 0 001.581-.276c.528-.218.457-.156.532-.722l.151-3.544.097-1.812c.049-.4.138-.766.39-1.175.133-.196.333-.441.705-.579.155-.067.43-.089.634-.04.079.022-.023-.013.203.058.085.031.164.076.24.12 1.01 1.011.496.721.833.752.243-.053.407-.24.545-.703.115-.432.159-1.051.208-1.612.04-.57.058-1.14.053-1.714a20.86 20.86 0 00-.31-3.406.827.827 0 011.223-.859l.013.009a7.419 7.419 0 002.903.975 7.967 7.967 0 001.529.031c.097-.005.159-.031.115-.013-.04 0-.169.155-.169.218.009.115-.017-.267-.057-.526a18.493 18.493 0 00-1.994-6.255l-.009-.014a.794.794 0 01.323-1.068.78.78 0 01.926.142 6.316 6.316 0 004.711 1.835l-.705.73c.058-1.741-.749-3.491-1.555-5.254l-.013-.027a.67.67 0 01.81-.921 32.365 32.365 0 014.742 1.945l-.802.406c.208-.935.137-1.937-.093-2.921-.235-.993-.612-1.95-1.033-2.93-.102-.262-.235-.579-.186-.997.04-.37.319-.784.678-.922.705-.276 1.294-.08 1.835.12.558.259.917.539 1.404.664.461.142.944.133 1.144-.227l.004.222a14.94 14.94 0 00-3.456-4.296zm-85.15 21.108c.146 1.243-.465 2.471-1.197 3.455-.363.503-.757.98-1.143 1.452-.367.481-.828.93-.975 1.344-.084.223-.053.366-.008.379.048.044.115.062.358.031.43-.098 1.108-.352 1.653-.521l1.746-.57c.607-.182 1.325-.347 2.105-.209.798.156 1.573.588 1.98 1.478.196.459.2.926.12 1.363-.08.405-.217.725-.328 1.01-.248.588-.323.949-.217 1.06.01.076.333.245.731.169.368-.049.718-.294 1.162-.668.478-.374.832-.81 1.732-1.211.244-.084.674-.173 1.117.067.438.245.602.668.656.895.102.499.093.668.146 1.011l.221 1.812-.957-.704c.612-.102 1.245-.396 1.915-.766.669-.36 1.39-.801 2.224-1.073.5-.155.922-.196 1.396-.191.46.013.926.089 1.378.272.447.182.895.485 1.2.926.156.227.258.449.338.734.044.161.088.499.093.681.017.432-.01.82.03 1.136.05.325.111.481.333.61.133.089.46.08.775-.022.324-.098.647-.277.997-.468 1.361-.739 2.659-1.612 3.935-2.529-1.076 1.149-2.295 2.164-3.576 3.103-.314.227-.647.481-1.054.664-.4.178-.909.329-1.503.08-.51-.196-.85-.819-.912-1.265-.089-.458-.085-.863-.133-1.215-.031-.205-.036-.263-.102-.476a1.313 1.313 0 00-.186-.317 1.476 1.476 0 00-.678-.423 2.607 2.607 0 00-.922-.102 3.51 3.51 0 00-.913.178c-.651.236-1.263.641-1.95 1.051-.682.405-1.457.855-2.397 1.033a.814.814 0 01-.948-.65l-.005-.04v-.018l-.243-1.812c-.04-.263-.089-.699-.115-.797-.018-.062-.005.062.164.16.172.089.274.036.234.054-.221.089-.744.538-1.2.926-.479.391-1.153.912-2.008 1.019-.762.107-1.865-.035-2.446-1.086-.24-.45-.261-1.033-.16-1.434.094-.414.236-.73.36-1.006.265-.579.363-.922.274-1.144-.07-.245-.443-.543-.824-.619-.833-.187-2.07.245-3.244.507-.624.138-1.094.303-1.86.419-.342.049-.967-.022-1.294-.494-.35-.49-.204-1.042-.05-1.363.355-.708.856-1.068 1.281-1.5.444-.419.882-.828 1.29-1.265.802-.863 1.507-1.878 1.604-3.121zm116.146-33.196c.026.459-.013.993-.146 1.492a9.555 9.555 0 01-.497 1.415c-.394.909-.877 1.755-1.338 2.592-.474.823-.944 1.634-1.311 2.44-.187.4-.359.792-.47 1.17-.129.383-.16.726-.164 1.025l-.776-1.176c1.157.441 2.3.926 3.448 1.403l.864.36c.292.129.563.218.882.396.319.17.669.392 1.032.74.355.351.727.832.855 1.504.093-.013.138 1.43-.11 1.724-.191.529-.474.899-.727 1.211-.261.32-.523.565-.771.797l-.718.627c-.456.37-.873.73-1.081.993-.115.134-.129.214-.133.183-.013 0 .031-.054-.013-.076.004-.013.008-.022-.023-.013l-.997-.806c.984.285 1.99.583 2.96 1.086.962.485 1.95 1.104 2.726 2.057.394.463.7 1.042.895 1.643.204.628.248 1.198.199 1.839-.124 1.175-.527 2.075-.673 2.925-.324 1.754.15 3.678.261 5.708.018.481 0 1.037-.049 1.54a7.399 7.399 0 01-.319 1.537c-.332.997-.944 2.012-1.936 2.618l-.465-1.114c.562-.182 1.24-.062 1.728.236.492.299.842.717 1.108 1.158.261.445.443.931.531 1.451.04.259.062.539.049.806 0 .187-.027.49-.053.704-.115.921-.306 1.745-.319 2.453-.027.735.15 1.122.523 1.959.173.405.381.891.469 1.505l.014.116.009.156.008.16a4.3 4.3 0 01-.017.507 4.447 4.447 0 01-.195.913c-.39 1.171-1.17 2.057-2.092 2.68-.23.161-.478.299-.731.423l-.337.152-.403.156a8.45 8.45 0 01-1.48.369c-.97.156-1.888.174-2.734.201l1.511-2.182c.102.227.332.454.877.726.528.262 1.228.48 2.025.774.125.049.147.049.359.143l.288.129c.297.147.545.298.758.441.443.302.855.654 1.228 1.086.367.432.722.94.939 1.625.226.668.27 1.599-.08 2.409-.363.815-.833 1.296-1.56 1.732-.602.338-1.125.472-1.564.588-.864.178-1.515.4-1.413.365.017-.009.031-.023.031-.045l.022-.022.004-.013v-.014l.058-.138c-.022.058-.111.263-.075.196.039-.08.039-.2.039-.2-.008-.125-.053-.094.04.053.164.29.652.73 1.161 1.046l.089.054a1.687 1.687 0 01-.39 3.045c-2.154.655-4.267 1.443-6.385 2.24a119.91 119.91 0 00-6.271 2.644l-.704-1.843a2.27 2.27 0 01.93.027c.311.085.603.231.82.418.443.374.674.811.833 1.229.302.837.31 1.679.111 2.498-.19.695-.412 1.34-.509 1.981-.089.633-.089 1.278.336 1.781a.177.177 0 01-.017.245.166.166 0 01-.209.009c-.651-.45-.921-1.327-.935-2.07-.035-.762.062-1.483.111-2.164a3.067 3.067 0 00-.385-1.607c-.125-.219-.288-.383-.404-.432-.124-.04-.124-.014-.226.026a.967.967 0 01-1.271-.512.979.979 0 01.363-1.197l.204-.129a66.185 66.185 0 016.066-3.509c2.078-1.082 4.236-2.003 6.412-2.872l-.301 3.099c-.825-.494-1.618-1.028-2.349-2.039-.345-.499-.704-1.233-.678-2.155-.004-.196.049-.507.124-.779.076-.258.08-.232.12-.361l.075-.169.018-.035.04-.072.08-.142.172-.276c.133-.169.28-.33.43-.481.634-.57 1.259-.784 1.742-.94.492-.138.895-.213 1.218-.293.324-.076.559-.161.638-.21-.048.058.067-.049.005.04-.04.081-.013.179-.027.103a1.447 1.447 0 00-.226-.405 2.812 2.812 0 00-.505-.499l-.248-.174-.244-.124c.036.009-.128-.058-.181-.085-.661-.289-1.454-.565-2.314-1.042a5.92 5.92 0 01-1.311-.966 4.218 4.218 0 01-1.019-1.607l-.027-.085a1.585 1.585 0 01.975-2.012c.186-.063.381-.089.567-.085 1.657.054 3.146.009 4.126-.543.496-.281.921-.708 1.121-1.131.053-.107.088-.214.115-.316 0-.045.022-.009.026-.125l.005-.16v-.04c0 .022 0-.08.004.049v-.054c0-.235-.062-.556-.177-.948-.111-.392-.261-.855-.346-1.402a5.286 5.286 0 01.027-1.59c.164-.984.483-1.785.651-2.538.049-.204.076-.32.107-.556.026-.156.031-.303.031-.463a2.715 2.715 0 00-.226-.958c-.271-.623-.74-1.037-1.228-.908l-.035.009a.604.604 0 01-.426-1.122c.709-.365 1.25-1.073 1.534-1.91.146-.414.243-.859.301-1.309a6.77 6.77 0 00.031-1.376c-.111-1.852-.762-3.757-.678-5.908.049-1.086.301-2.052.248-2.832-.026-.329-.111-.748-.27-1.024a2.714 2.714 0 00-.643-.81c-1.112-.962-2.898-1.451-4.661-1.817l-.04-.008a1.347 1.347 0 01-.957-.797 4.58 4.58 0 01-.279-.878c-.023-.32-.04-.685.039-.975a3.587 3.587 0 01.687-1.411c.536-.681 1.064-1.095 1.525-1.492l.655-.538c.2-.169.386-.339.506-.481.137-.143.221-.272.23-.307a.069.069 0 01.027-.027.191.191 0 00-.014.125c0 .026.053.142.045.08l-.045-.223c.093.125-.009-.107-.443-.36-.195-.139-.487-.268-.735-.397l-.776-.392c-1.032-.529-2.074-1.041-3.102-1.607l-.239-.133a1.052 1.052 0 01-.536-1.047 5.8 5.8 0 01.474-1.741c.226-.512.483-.97.767-1.393.567-.851 1.178-1.603 1.776-2.342.612-.73 1.21-1.447 1.751-2.191.275-.369.527-.752.735-1.148.226-.383.386-.784.492-1.274a.169.169 0 01.204-.129.175.175 0 01.133.156h.009zm-39.677-51.411a20.825 20.825 0 01-.182 2.404l1.675.227c.089-1.211.12-2.418.098-3.629h-1.706c.031.37.057.735.088 1.105.085 1.086 1.729 1.117 1.706 0-.013-.699.009-1.35.111-2.049h-1.644c.036.196.071.392.111.588.164.886 1.4.739 1.644 0a7.752 7.752 0 00.368-1.928l-1.675.227c.022.103.04.205.062.308.146.721 1.223.832 1.56.204.172-.32.248-.498.327-.85.249-1.086-1.276-1.487-1.643-.454a2.02 2.02 0 00-.195.775c-.129.859 1.125 1.634 1.559.659l.12-.268c-.532-.142-1.059-.289-1.591-.431 0 .066.005.138.005.204.008.405.265.69.624.828l.191.072c.532.2 1.072-.312 1.081-.828a.19.19 0 01.009.049c-.532-.143-1.059-.29-1.591-.432a23.084 23.084 0 01-.168 2.212c-.12.949 1.542 1.185 1.675.228.173-1.265.886-3.01-.302-3.918-1.449-1.114-3.726-1.265-5.45-1.603v1.651c1.502-.32 2.415-.142 3.634.81.855.669 2.074-.533 1.205-1.21-1.728-1.35-3.151-1.71-5.295-1.251-.807.173-.82 1.491 0 1.651 1.09.219 2.206.388 3.279.69.611.174 1.28.241 1.529.913.15.401-.195 1.412-.249 1.812l1.675.227c.093-.739.151-1.469.169-2.212.026-.922-1.126-1.064-1.591-.432-.195.267-.239.485-.244.815.359-.276.718-.553 1.081-.829-.062-.022-.128-.049-.19-.07l.625.827c0-.066-.005-.138-.005-.205-.017-.783-1.223-1.25-1.59-.431l-.12.267c.518.218 1.041.441 1.56.659a2.02 2.02 0 01.195-.775l-1.644-.454c-.054.147-.102.294-.155.44.518.067 1.041.139 1.559.205-.022-.102-.04-.204-.062-.307-.204-.997-1.608-.685-1.675.227a4.196 4.196 0 01-.305 1.474h1.644c-.036-.196-.071-.392-.111-.588-.146-.801-1.525-.832-1.644 0-.12.842-.186 1.657-.169 2.507h1.706c-.031-.37-.057-.735-.088-1.104-.084-1.087-1.728-1.118-1.706 0a39.552 39.552 0 01-.098 3.628c-.071.949 1.547 1.189 1.675.228.129-.953.217-1.897.244-2.863.027-1.1-1.679-1.1-1.706 0z"/><path d="M153.617 104.932l.026 3.17c.027 3.313 5.039 3.308 5.118 0a25.1 25.1 0 01.475-4.385l-5.025-.681c-.031.627-.058 1.255-.089 1.883-.133 2.867 4.422 3.535 5.025.681.177-.841.359-1.687.536-2.529-1.644-.454-3.288-.913-4.936-1.367-.399 1.888-.669 3.66-.7 5.588-.049 2.814 4.608 3.611 5.025.681.381-2.667 1.648-10.962-2.486-11.554-1.79-.258-3.018.673-3.239 2.48-.111.909.314 1.666.935 2.28.828-1.434 1.661-2.863 2.49-4.297l-2.521-.814c-1.995-.641-3.488 1.349-3.147 3.16.802 4.253.82 7.294-.328 11.426 1.644.454 3.288.912 4.937 1.366.97-3.833 1.143-7.813 1.484-11.736l-4.768 1.296c1.471 3.219.63 6.634.093 9.933-.523 3.223 3.869 4.559 4.937 1.367.505-1.519 1.014-3.037 1.52-4.551l-5.025-.681c-.377 5.868-2.056 11.995-4.813 17.195 1.56.659 3.12 1.322 4.675 1.981a99.69 99.69 0 004.17-15.872c.576-3.264-3.78-4.484-4.936-1.367-.887 2.382-1.25 4.947-2.358 7.244l4.768 1.296c.102-2.151.208-4.297.31-6.447h-5.118c.031 4.532-3.85 9.679-5.202 14.029-.727 2.342 2.632 4.528 4.276 2.502 2.468-3.045 4.241-5.824 4.746-9.751h-5.118l-.674 2.307c-1.542 2.921 2.876 5.525 4.418 2.595.869-1.651 1.246-3.049 1.37-4.902.226-3.37-4.706-3.187-5.118 0-.324 2.516-1.737 4.252-3.248 6.118 1.426.833 2.849 1.67 4.276 2.502 1.537-4.955 5.419-10.098 5.384-15.396-.023-3.326-4.959-3.295-5.118 0-.102 2.15-.209 4.297-.311 6.447-.119 2.48 3.656 3.593 4.768 1.296 1.321-2.734 1.826-5.641 2.876-8.473-1.644-.454-3.288-.913-4.936-1.367a100.016 100.016 0 01-4.17 15.873c-.97 2.747 3.323 4.536 4.675 1.981 3.208-6.055 5.069-12.956 5.508-19.791.195-3.019-4.148-3.312-5.025-.681-.505 1.518-1.015 3.036-1.52 4.55 1.644.454 3.288.913 4.936 1.367.794-4.884 1.547-9.176-.611-13.896-1.161-2.542-4.573-.966-4.768 1.296-.301 3.473-.443 6.986-1.303 10.37-.815 3.205 4.046 4.559 4.937 1.366 1.404-5.062 1.307-8.971.327-14.158l-3.146 3.161c.842.272 1.684.543 2.522.815 2.459.792 4.271-2.542 2.49-4.297.186.455.377.904.563 1.358-1.081.829-2.158 1.652-3.239 2.48-1.241-.178-1.086 5.214-1.086 5.232l5.025.681a15.049 15.049 0 01.518-4.221c.683-3.228-4.245-4.608-4.936-1.367-.177.842-.359 1.688-.536 2.529l5.025.681c.031-.627.057-1.255.088-1.883.133-2.858-4.449-3.544-5.025-.681a33.141 33.141 0 00-.66 5.752h5.118l-.026-3.17c-.014-3.308-5.132-3.317-5.105 0z"/><path d="M150.325 112.002c-2.3 6.385-4.924 12.436-7.675 18.62-1.197 2.694 1.71 5.005 4.019 3.117 1.316-1.078 2.149-2.137 2.92-3.638l-4.418-2.596c-.204.468-.403.931-.607 1.398-1.289 2.979 2.583 5.437 4.418 2.596a76.775 76.775 0 013.177-4.555c-1.591-.431-3.177-.863-4.768-1.295-.199.645-.394 1.287-.594 1.932-1.263 2.315 1.241 4.68 3.501 3.517 1.693-.868 2.428-1.941 3.128-3.682l-5.025-.681c.009.828-1.896 2.56-2.322 3.504-1.214 2.712-2.056 4.791-4.347 6.786 1.339 1.037 2.681 2.074 4.02 3.116 1.023-2.11 2.047-4.221 3.066-6.335 1.418-2.948-2.845-5.544-4.418-2.596-.718 1.344-1.476 2.337-2.738 3.232l3.5 3.518c1.223-2 1.795-4.043 2.242-6.341.523-2.707-1.865-6.647-3.305-3.922-1.285 2.44-4.095 6.683-5.721 8.909-1.95 2.671 2.486 5.236 4.418 2.596a55.922 55.922 0 004.347-6.968c-1.56-.659-2.867-.713-4.427-1.371-.354 1.834-.988 2.889-1.972 4.501-1.285 2.097 1.365 5.031 3.501 3.517 1.985-1.407 3.425-2.916 4.577-5.075l-4.418-2.596c-1.014 2.115-2.042 4.225-3.066 6.335-1.281 2.641 1.786 5.063 4.019 3.117 2.579-2.248 3.851-4.688 5.194-7.769.983-2.262 2.999-3.504 2.973-6.158-.031-3.081-3.993-3.254-5.025-.681l-.776.606 3.501 3.517c.838-1.532 1.29-2.778 1.29-4.524.004-2.765-3.328-3.21-4.768-1.295a75.164 75.164 0 00-3.178 4.554l4.418 2.596c.204-.467.404-.93.607-1.398 1.285-2.956-2.875-5.597-4.417-2.596-.426 1.113-1.13 1.982-2.119 2.596 1.339 1.037 2.681 2.075 4.019 3.117 2.938-6.603 5.734-13.032 8.189-19.849 1.117-3.125-3.828-4.47-4.94-1.376z"/><path d="M141.502 137.514c-1.551 2.177-3.713 3.798-5.858 5.343-1.458 1.046-3.164 1.656-4.498 2.849-1.874 1.679.093 5.134 2.491 4.297 4.697-1.634 11.769-6.67 11.277-12.493-.208-2.458-3.381-3.602-4.768-1.296-1.303 2.168-3.323 3.887-4.329 6.22-1.276 2.952 2.836 5.588 4.418 2.596.988-1.866 1.608-3.714 1.901-5.806.39-2.814-2.951-4.528-4.675-1.981-2.411 3.566-4.644 6.91-8.202 9.412-2.207 1.554-.949 5.743 1.972 4.697.917-.329 1.834-.659 2.751-.984 3.08-1.104 1.755-6.073-1.36-4.96-.917.33-1.835.659-2.752.984.656 1.567 1.316 3.135 1.972 4.697 4.32-3.041 7.099-6.91 10.037-11.255-1.56-.659-3.12-1.322-4.675-1.981-.226 1.638-.607 3.112-1.383 4.577l4.418 2.595c.993-2.293 3.036-4.065 4.329-6.22l-4.768-1.295c.28 3.299-4.954 6.638-7.519 7.533.828 1.434 1.661 2.863 2.49 4.297.647-.579 1.653-.815 2.393-1.287 1.205-.77 2.357-1.683 3.483-2.56 2.025-1.581 3.78-3.286 5.277-5.383 1.919-2.698-2.517-5.267-4.422-2.596z"/><path d="M128.904 147.96c-.15.164-.297.329-.447.494.447.347.895.69 1.338 1.037.115-.236.226-.476.341-.712-.532-.143-1.059-.289-1.591-.432-.009.102-.013.209-.022.312-.049.739.971 1.135 1.458.605.306-.334.425-.521.532-.966.159-.69-.603-1.393-1.254-.966-1.72 1.126-3.634 1.999-5.544 2.743-.935.36-1.976.908-2.977 1.041-1.082.147-1.547-.182-2.482.058-.775.196-.851 1.505 0 1.652 2.455.432 5.123-.013 7.533-.61 1.121-.276 3.665-.463 3.545-1.861-.106-1.26-1.032-.454-1.985-.187-.35.098-2.349.423-2.389.868l-1.675.227.12.308c.239.618 1.205.93 1.56.204l.226-.365-1.033.134c-.097-.178-.199-.352-.296-.53-.071.739.983 1.131 1.457.606-.226-.112-.452-.219-.678-.33.284.427.962.614 1.339.174.518-.45.31-.539-.63-.276.297.574 1.166.538 1.472 0l.332-.588h-1.471c.057.125.119.245.177.369.35.731 1.325.419 1.56-.204l.159-.334-1.338.173-.066-.2c.07.775 1.165 1.251 1.59.432l.257-.499c-.518-.067-1.041-.138-1.559-.205.079.228.15.415.279.615.19.303.602.521.961.392.519-.183.656-.446.891-.931h-1.471l.314.583c.346.646 1.383.499 1.56-.204.115-.437.222-.873.315-1.318h-1.644c.009.378.106.73.288 1.059.239.584 1.232.967 1.56.205l.492-1.14c-.519-.066-1.042-.138-1.56-.204.075.244.146.489.221.734.173.575.745.735 1.254.512-.172.076.811.325 1.316-.271l-1.338-.174c.04.089.084.178.124.263.16.338.625.489.962.391l.235-.066c1.054-.299.607-1.95-.452-1.652-.08.022-.16.044-.235.067l.961.391c-.039-.089-.084-.178-.124-.262-.226-.477-1.001-.57-1.338-.174.053-.062.2-.325-.261-.174-.222.076-.47.072-.709.174.416.169.833.343 1.254.512-.076-.245-.146-.49-.222-.734-.19-.637-1.249-.922-1.56-.205l-.491 1.139c.518.067 1.041.139 1.559.205a2.279 2.279 0 01-.288-1.059c-.124-.851-1.466-.784-1.644 0-.093.44-.199.881-.314 1.318.518-.067 1.041-.138 1.559-.205l-.314-.584c-.288-.538-1.192-.578-1.471 0-.248.37-.204.415.128.143l.962.392-.107-.205c-.226-.65-1.196-.904-1.559-.205l-.257.499c.531.142 1.059.289 1.59.432-.044-.45-.106-.699-.434-1.015-.434-.415-1.01-.272-1.338.173-.164.218-.235.49-.332.744.518-.067 1.041-.138 1.559-.205-.057-.125-.119-.245-.177-.37-.283-.587-1.174-.525-1.471 0l-.332.588h1.471c-.519-.997-1.414-.815-2.052-.071l1.338.173c-.567-.859-1.369-.721-1.998-.017.487.2.97.405 1.458.605l.013-.138c.027-.285-.177-.61-.421-.739-.044-.027-.093-.049-.137-.076-.319-.169-.776-.155-1.033.134a2.736 2.736 0 00-.492.712c.519.067 1.042.138 1.56.205l-.119-.307c-.35-.913-1.582-.753-1.675.227-.204 2.124 2.189 1.478 3.389 1.109 1.184-.365 4.396-.521 4.489-2.311a.842.842 0 00-.421-.739c-.514-.272-.864-.147-1.413.031-1.192.383-2.273 1.011-3.536 1.331-2.154.548-4.813 1.109-7.055.717v1.652c.652-.165 1.423.089 2.109-.005 1.285-.173 2.557-.788 3.758-1.251 1.91-.734 3.829-1.634 5.544-2.76-.417-.321-.834-.646-1.255-.966l-.093.209c.488.2.971.405 1.458.605.009-.102.014-.209.022-.311.054-.828-1.227-1.193-1.59-.432-.116.236-.226.476-.342.712-.394.824.647 1.803 1.339 1.038l.447-.495c.722-.788-.483-2.003-1.223-1.188zm-28.005-17.757c.018-1.126-1.099-1.54-1.959-1.968-1.072-.529-1.998-.618-3.15-.285-1.068.312-.616 1.853.452 1.652.709-.133 1.418-.267 2.127-.396l.492-.093c-.262-.21-.31-.25-.147-.121.125-.013.404.187.585.183.687-.014 1.006-.708.736-1.291-.266-.57-.837-.619-1.387-.677-.696-.071-1.29-.12-1.928.196.346.45.687.899 1.033 1.344l.173-.187c.629-.667-.022-1.553-.829-1.433-.368.058-.731.12-1.094.191-1.077.214-.62 1.866.452 1.652.363-.071.726-.134 1.094-.191-.275-.477-.554-.953-.829-1.434l-.172.187c-.683.726.172 1.768 1.032 1.345.164-.081.417-.018.585-.005.235.018.54.183.399-.129.244-.432.492-.859.735-1.291h-.07c.199.084.403.169.602.249-.465-.414-.85-.356-1.427-.254-.873.152-1.746.325-2.614.49l.452 1.652c.62-.183 1.112-.214 1.715.049.15.067 1.236.65 1.236.552-.018 1.118 1.688 1.118 1.706.013z"/><path d="M95.918 127.256c-3.881 1.407-7.71 2.898-11.45 4.653-.74.347-.403 1.7.43 1.598 2.034-.254 3.74-1.456 5.614-2.217 1.986-.806 4.046-1.363 6.009-2.231-.346-.45-.687-.899-1.032-1.345-.918.762-2.19.775-3.138 1.47-.722.53-.332 1.888.656 1.567a23.847 23.847 0 002.978-1.198c-.346-.449-.687-.899-1.033-1.344-1.178 1.126-2.977 1.696-4.333 2.6-1.214.81-2.335 1.638-3.638 2.315.345.45.687.899 1.032 1.345a23.526 23.526 0 014.609-3.647l-.86-1.478c-1.75 1.073-3.749 1.745-5.255 3.175.447.347.895.69 1.338 1.037a2.98 2.98 0 011.103-1.269l-1.205-1.211a12.44 12.44 0 01-1.179.984c-.864.677.35 1.883 1.205 1.211a12.45 12.45 0 001.18-.984c.837-.744-.369-1.888-1.206-1.211-.607.485-.984.948-1.37 1.616-.491.851.639 1.705 1.339 1.038 1.378-1.309 3.305-1.924 4.91-2.908.935-.574.084-2.052-.86-1.478a25.35 25.35 0 00-4.954 3.914c-.696.708.182 1.785 1.032 1.344 1.49-.77 2.774-1.772 4.183-2.662 1.374-.868 2.952-1.389 4.135-2.52.74-.704-.2-1.746-1.033-1.345-.837.401-1.688.735-2.57 1.024.217.521.439 1.046.656 1.567 1.068-.783 2.437-.868 3.483-1.736.806-.672-.222-1.705-1.033-1.345-1.825.811-3.748 1.323-5.6 2.057-1.68.668-3.36 1.928-5.163 2.155.142.535.288 1.064.43 1.599 3.611-1.688 7.298-3.121 11.042-4.479 1.028-.379.585-2.04-.452-1.661z"/><path d="M87.131 133.147c-.252 1.175-1.041 2.27-1.387 3.446-.31 1.064 1.299 1.496 1.644.454a47.16 47.16 0 011.21-3.246l-1.644-.454a44.13 44.13 0 01-.975 2.685l1.675.227c-.093-1.042.266-2.057.381-3.09.111-1.002-1.391-1.1-1.675-.227a28.177 28.177 0 00-.633 2.253l1.675.227c.017-.815.141-1.594.301-2.391.173-.882-1.157-1.612-1.56-.659-.363.859-.665 1.71-.895 2.618l1.644.454c.129-.81.253-1.625.381-2.435.138-.886-1.072-1.59-1.56-.659a18.54 18.54 0 00-.961 2.168l1.675.227a19.03 19.03 0 00.084-1.736c.004-1.029-1.338-1.082-1.675-.227l-.709 1.807 1.675.227c.022-.538.04-1.073.062-1.611.027-.708-.98-1.18-1.458-.606-.412.494-.558 1.015-.758 1.63l1.675.227c.005-.45.08-.886.235-1.309l-1.675-.227c-.137 1.188-.593 2.359-.815 3.539-.195 1.047-.222 2.169-.567 3.175l1.644.454c.34-1.532.709-3.054 1.112-4.564.31-1.153.434-1.527-.284-2.489-.412-.556-1.36-.569-1.56.205a79.232 79.232 0 00-1.08 4.853c-.204 1.078 1.44 1.541 1.643.454a79.23 79.23 0 011.082-4.853c-.519.067-1.042.138-1.56.205.141.192.288.388.43.579l-.182.089c.018.525-.337 1.251-.465 1.768-.28 1.095-.537 2.199-.785 3.303-.239 1.082 1.29 1.496 1.644.454.403-1.171.412-2.453.665-3.664.244-1.175.642-2.306.78-3.504.11-.984-1.414-1.122-1.675-.227a7.729 7.729 0 00-.297 1.763c-.058.998 1.391 1.113 1.675.227.075-.24.146-.668.319-.872-.487-.201-.97-.406-1.458-.606-.022.539-.04 1.073-.062 1.612-.04 1.033 1.343 1.068 1.675.227l.71-1.808-1.676-.227a20.61 20.61 0 01-.084 1.737c-.093 1.024 1.36 1.068 1.675.227a14.75 14.75 0 01.789-1.759c-.519-.218-1.042-.441-1.56-.659-.129.81-.253 1.625-.381 2.435-.169 1.065 1.369 1.55 1.644.455.19-.757.416-1.487.722-2.209-.518-.218-1.041-.441-1.56-.659-.186.949-.34 1.879-.363 2.845-.022.958 1.453 1.176 1.675.227.177-.761.39-1.509.634-2.252l-1.675-.228c-.12 1.06-.479 2.013-.382 3.09.09.989 1.312 1.131 1.675.227a44.1 44.1 0 00.975-2.684c.35-1.073-1.236-1.443-1.644-.454a46.72 46.72 0 00-1.21 3.245l1.645.454c.35-1.197 1.125-2.244 1.387-3.446.248-1.077-1.396-1.536-1.627-.458z"/><path d="M85.035 135.733c-.132 1.421-.265 2.841-.403 4.266h3.412c-.093-1.772-.062-3.504-.38-5.254-.298-1.625-3.014-1.647-3.289 0-.204 1.211-.407 2.418-.607 3.629l3.35.454c-.07-1.211-.062-2.302.12-3.518.314-2.132-2.601-3.067-3.288-.912a41.378 41.378 0 00-1.028 3.851l3.35.454a7.756 7.756 0 01.062-1.727c.181-1.91-2.996-2.351-3.35-.454-.186.997-.43 1.843-.802 2.791h3.288c-.022-.369-.045-.743-.071-1.113.04-1.897-2.956-2.378-3.35-.454-.714 3.459-2.242 6.692-2.72 10.196-.253 1.852 1.989 3.054 3.119 1.322 1.83-2.818 1.794-6.429 3.5-9.341-1.059-.289-2.118-.579-3.177-.864.053 1.746-.279 3.331-.718 5.005-.558 2.146 2.61 2.996 3.288.913.585-1.799 1.175-3.598 1.76-5.397l-3.35-.454c.013 1.394-.142 2.778-.249 4.168-.164 2.097 2.686 2.088 3.35.454.381-.926.722-1.853 1.241-2.716-1.06-.29-2.118-.579-3.177-.864.03 2.271-1.334 4.906-1.91 7.088-.474 1.799 1.582 2.654 2.85 1.67 1.027-.802 1.227-2.485 1.586-3.624l-3.35-.455c-.089 1.661-.873 3.046-1.56 4.511 1.041.44 2.078.881 3.12 1.322.624-2.035.788-4.065.881-6.18.084-1.923-2.911-2.342-3.35-.454-.257 1.095-.585 2.017-1.041 3.063 1.059.29 2.118.579 3.177.864a22.547 22.547 0 01-.16-3.326h-3.412c.018.81.12 2.088-.385 2.787-1.29 1.79 1.67 3.5 2.947 1.732.9-1.246.886-3.036.85-4.519-.048-2.204-3.363-2.208-3.412 0-.026 1.14.027 2.191.16 3.326.173 1.451 2.41 2.622 3.177.864.558-1.278 1.068-2.52 1.383-3.878l-3.35-.454c-.08 1.812-.226 3.53-.758 5.267-.558 1.821 2.282 3.103 3.12 1.322.966-2.057 1.9-3.936 2.025-6.238.106-1.99-2.788-2.244-3.35-.454-.209.713-.444 1.42-.71 2.115.949.557 1.902 1.113 2.85 1.67.687-2.605 2.065-5.29 2.03-7.997-.023-1.701-2.305-2.328-3.178-.864-.664 1.114-1.094 2.338-1.586 3.536l3.35.454c.106-1.389.261-2.774.248-4.168-.018-1.972-2.756-2.275-3.35-.454-.585 1.799-1.174 3.598-1.76 5.396 1.095.303 2.194.606 3.289.913.518-1.981.9-3.86.837-5.917-.053-1.678-2.3-2.36-3.177-.864-1.697 2.89-1.71 6.585-3.5 9.341l3.119 1.323c.479-3.509 2.007-6.741 2.72-10.196l-3.35-.454c-.017.783.045 1.255.191 2.021.35 1.839 2.739 1.403 3.288 0 .373-.944.616-1.79.802-2.792l-3.35-.454a7.515 7.515 0 00-.062 1.728c.04 1.87 2.93 2.404 3.35.454.284-1.305.62-2.578 1.028-3.851-1.094-.303-2.193-.606-3.288-.913-.221 1.496-.323 2.916-.239 4.43.102 1.812 3.013 2.467 3.35.454.204-1.211.408-2.417.607-3.629h-3.288c.262 1.439.182 2.894.257 4.346.115 2.231 3.208 2.177 3.412 0 .133-1.42.266-2.841.404-4.265.208-2.227-3.209-2.209-3.412-.032z"/><path d="M81.052 147.857a182.153 182.153 0 01-1.79 4.947c1.094.303 2.193.605 3.287.913.647-1.995 1.01-3.976 1.184-6.065.164-2.008-2.774-2.208-3.35-.454-.532 1.608-1.06 3.215-1.591 4.822l3.35.454c.004-1.473.815-3.014.439-4.456-.382-1.456-2.362-1.643-3.12-.41-.328.539-.452.815-.55 1.443-.336 2.128 2.761 3.098 3.288.912.08-.325.156-.65.235-.975.519-2.15-2.619-3.01-3.288-.913-.868 2.73-1.896 5.317-3.553 7.667-1.432 2.026-3.209 3.745-4.48 5.891-.944 1.594.868 3.005 2.335 2.346 2.6-1.175 3.753-2.956 5.348-5.218.58-.824 4.613-7.453 4.387-7.462-.55-.419-1.094-.837-1.644-1.26-.084.085-.168.174-.257.258l3.12 1.323c.19-.526.456-1.857.864-2.302l-2.85-1.67c-.42 1.794-.846 3.589-1.267 5.387-.42 1.795 2.309 3.175 3.12 1.323a30.298 30.298 0 011.741-3.402l-3.12-1.322c-.89 2.431-2.507 4.497-3.602 6.834-.922 1.968 1.813 3.66 2.947 1.732l1.715-2.921c-1.042-.44-2.079-.881-3.12-1.322-.536 1.701-1.865 3.749-3.044 5.085-.266.298-3.749 3.646-3.261 3.74l1.192 1.197c-.085-.227-.173-.449-.257-.677l-1.928-.788c.075.281.146.557.222.837.332 1.666 2.915 1.603 3.287 0l.55-2.341c-1.041.138-2.078.271-3.12.409.054.08.107.16.164.241.479.699 1.121.908 1.928.788.11-.018.221-.032.332-.049.599-.089 1.01-.677 1.192-1.198.2-.508.355-1.033.465-1.572h-3.287c.084.236.164.472.248.708.447 1.291 2.406 1.817 3.12.41.451-.895.78-1.737 1-2.721h-3.287c.16 1.087.177 1.474.824 2.244.868 1.038 2.495.379 2.85-.756l.518-1.643-3.35-.455c-.031.268-.067.53-.098.797l3.35.455.04-.308c.23-1.727-2.424-2.27-3.177-.863a30.568 30.568 0 01-1.387 2.319l3.12 1.323c1.382-3.326 4.324-5.984 5.087-9.64.376-1.794-2.216-3.156-3.12-1.322a328.033 328.033 0 00-2.198 4.564c-.935 1.981 2.007 3.726 2.947 1.732a284.74 284.74 0 012.198-4.564c-1.042-.441-2.079-.882-3.12-1.322-.744 3.561-3.722 6.353-5.087 9.639-.78 1.874 2.11 2.845 3.12 1.322.505-.761.957-1.518 1.387-2.319-1.06-.29-2.118-.579-3.177-.864l-.04.307c-.257 1.923 2.915 2.311 3.35.454a7.41 7.41 0 00.217-1.71c.04-1.976-2.783-2.266-3.35-.454l-.519 1.643c.949-.254 1.901-.503 2.85-.757l.053-.73c-.253-1.696-2.938-1.572-3.288 0a5.39 5.39 0 01-.656 1.901c1.041.138 2.078.272 3.12.41-.085-.236-.164-.472-.249-.708-.531-1.527-2.844-1.728-3.288 0a9.69 9.69 0 01-.465 1.572L76 159.095c-.11.018-.221.031-.332.049l1.927.788c-.053-.08-.106-.16-.164-.24-.78-1.145-2.76-1.118-3.12.409-.18.779-.367 1.563-.549 2.342h3.288c-.141-.703-.168-1.117-.562-1.656-.408-.552-1.192-1.091-1.928-.788-1.857.77-2.68 2.934-2.127 4.893.15.539.616 1.086 1.192 1.198 2.473.476 4.307-2.431 5.858-3.923 1.976-1.901 3.82-4.666 4.648-7.293.59-1.874-2.144-2.974-3.12-1.322-.57.975-1.142 1.946-1.714 2.921l2.947 1.732c1.227-2.618 2.947-4.92 3.948-7.654.682-1.861-2.154-2.948-3.12-1.322a30.268 30.268 0 00-1.741 3.401l3.12 1.323c.42-1.795.846-3.589 1.267-5.388.372-1.585-1.653-2.992-2.85-1.669-.952 1.055-1.258 2.493-1.736 3.815-.665 1.826 2.22 3.023 3.12 1.323.46-.873.916-1.897.597-2.903-.235-.744-.868-1.234-1.644-1.26-2.406-.081-3.673 3.548-4.573 5.164-1.537 2.756-4.006 6.688-6.881 7.983l2.335 2.347c1.436-2.427 3.536-4.368 5.056-6.746 1.515-2.364 2.473-4.964 3.319-7.631-1.095-.303-2.194-.605-3.288-.913-.08.325-.155.65-.235.976 1.095.302 2.194.605 3.288.912.07-.209.137-.414.208-.623-1.041-.138-2.078-.272-3.12-.41-.044-.178-.558 2.819-.562 3.544-.009 1.986 2.756 2.258 3.35.454.532-1.607 1.059-3.214 1.59-4.821l-3.35-.455c-.145 1.808-.504 3.438-1.058 5.156-.687 2.129 2.521 2.939 3.288.913.62-1.643 1.218-3.29 1.79-4.947.7-2.092-2.592-2.992-3.31-.917z"/><path d="M76.603 163.32c-.013-.138-.031-.276-.044-.414-.2-1.888-2.708-2.373-3.35-.454-.094.276-.998 1.037-1.162 1.215l2.85 1.67c.186.147.35.005.487-.427-.948-.557-1.9-1.113-2.849-1.67a4.385 4.385 0 01-.957 1.607c-.922 1.149-1.192 4.052.571 3.317.63-.262 2.686-1.705 3.284-2.03 1.418-.77.425-2.614-1.29-2.435-2.087.213-3.522 1.478-5.48 2.163-2.132.748-3.856 1.398-6.156 1.43.55.721 1.095 1.447 1.644 2.168.009-.04 1.777-.557 2.207-.753 1.05-.48 2.016-1.104 3.009-1.687 1.896-1.109 3.102-2.311 4.404-4.105-1.041-.441-2.078-.882-3.12-1.322-.256.765-1.404 1.286-1.927 1.887-1.152 1.332-.03 3.175 1.662 2.863 1.538-.28 3.279-1.015 4.48-2.003-.948-.557-1.901-1.113-2.85-1.67-.522 1.291-2.8 1.972-3.921 2.556a307.034 307.034 0 01-3.833 1.95c-1.963.984-.24 3.94 1.724 2.961 3.279-1.643 7.847-2.912 9.323-6.554.713-1.763-1.706-2.609-2.85-1.67-.505.414-2.344 1.006-2.977 1.122l1.662 2.863c1.107-1.278 2.228-1.674 2.804-3.402.656-1.967-2.056-2.787-3.12-1.322-1.492 2.066-3.916 3.691-6.314 4.617-1.674.646-3.097.779-3.646 2.747-.297 1.06.54 2.186 1.644 2.169 2.096-.027 3.824-.134 5.747-1.007 1.134-.512 2.344-.814 3.478-1.322.816-.365 1.742-1.563 2.58-1.652-.289-1.064-.74-1.741-1.029-2.809-.319.16-.633.32-.952.481.553.952 1.103 1.487 1.652 2.44.794-.989 1.423-1.488 1.84-2.699.575-1.665-1.693-2.818-2.85-1.669-.572.57-1.227 1.104-1.365 1.937-.252 1.549 1.587 3.045 2.85 1.669.78-.85 1.661-1.612 2.038-2.729l-3.35-.454c.013.138.03.276.044.414.226 2.186 3.643 2.208 3.408.013z"/><path d="M62.414 169.433c.027.187.058.379.084.566.12.801 1.188.734 1.56.204.036-.053.075-.106.11-.16h-1.47l.08.165c.168-.419.34-.837.51-1.26-4.68.645-9.975.2-14.092-2.249l-.86 1.479c2.025 1.006 3.957 1.197 6.115 1.66 2.845.61 5.163-.387 8.038-.481-.243-.431-.491-.859-.735-1.291-.647.69-.456.935.572.735-.173-.846-1.436-.788-1.645 0-.03.116-.061.227-.088.343l1.675.227-.018-.379c-.03-.681-.948-1.211-1.458-.605-.093.116-.186.231-.274.347l1.032.134a1.556 1.556 0 00-.753-.374c-.284-.067-.63-.014-.829.218.488-.57-.731.222-.917.387l1.032-.133c-.655-.401-.824-.303-1.688-.21-1.081.121-1.09 1.835 0 1.715l.824-.027c.337.209.754.116 1.033-.134-.031.018-.067.031-.098.049.27.089.643-.004.829-.218-.217-.022-.43-.04-.647-.062.284.245.696.347 1.032.133.275-.173.39-.338.62-.614-.487-.201-.97-.405-1.457-.606.004.125.013.254.018.379.044.939 1.422 1.193 1.675.227.03-.116.062-.227.088-.343h-1.644c.071.352.182.539.43.793a.853.853 0 00.829.218c.713-.205.917-.69 1.285-1.34.31-.548-.076-1.309-.736-1.292-2.592.085-5.016 1.096-7.582.544-1.927-.415-3.895-.588-5.707-1.488-.975-.485-1.817.913-.86 1.479 4.569 2.716 10.24 3.134 15.408 2.422.589-.08.718-.824.51-1.26l-.08-.165c-.302-.628-1.14-.481-1.472 0-.035.053-.075.107-.11.16.518.067 1.04.138 1.56.205-.027-.187-.058-.378-.085-.565-.164-1.078-1.808-.615-1.644.467z"/><path d="M55.892 170.43c.42.009.837.018 1.258-.022.164-.018.669-.16.74-.129.997.441 1.865-1.037.86-1.478-.895-.396-1.906-.058-2.858-.085-1.095-.031-1.095 1.683 0 1.714zm139.356-14.79c-4.059 2.56-9.434 3.397-14.029 4.59-5.499 1.429-14.096 2.324-15.501-5.058-.101-.543-.926-.311-.824.227 1.108 5.833 6.031 7.004 11.459 6.599 3.226-.241 6.346-1.283 9.452-2.124 3.394-.917 6.864-1.603 9.873-3.5.461-.289.035-1.028-.43-.734z"/><path d="M194.947 155.039c-.062.249-.12.499-.182.743.279.041.558.076.837.116 0-.227 0-.454.005-.681 0-.503-.678-.557-.838-.116-.079.223-.159.445-.239.664.279.04.558.075.838.115a5.025 5.025 0 01-.045-.774c-.009-.468-.74-.606-.837-.116-.08.392-.133.779-.169 1.175h.851a6.67 6.67 0 01.009-.583c.022-.552-.824-.548-.851 0a1.79 1.79 0 00.058.632c.062.281.394.379.625.259.062-.032.124-.067.186-.098l-.585-.588c-.266.392-1.777.721-2.207.832-.766.201-1.475.468-2.229.704-.434.134-.385.908.115.841 1.303-.169 2.309-.61 3.519-1.139.766-.334 1.032-.784 1.249-1.594.12-.45-.58-.788-.779-.33a3.637 3.637 0 00-.28.917c.28.04.559.076.838.116.018-.227.035-.458.062-.685.053-.499-.696-.553-.838-.116a2.384 2.384 0 01-.288.654c.266.072.532.143.794.218a2.934 2.934 0 010-.837c.035-.48-.727-.583-.838-.115-.062.249-.115.494-.164.748.279.04.558.075.838.115a1.654 1.654 0 01-.023-.534c.023-.485-.713-.579-.837-.116a7.14 7.14 0 01-.222.748c.28.04.559.076.838.116l-.067-.668c-.044-.445-.726-.623-.837-.116a4.89 4.89 0 00-.115.811h.851a3.575 3.575 0 01-.054-.686c-.017-.561-.793-.539-.85 0-.027.165-.049.325-.076.49h.824a2.298 2.298 0 01-.133-.539c-.079-.445-.7-.369-.824 0a3.432 3.432 0 00-.177.655h.824c-.035-.187-.066-.37-.102-.557-.079-.427-.718-.387-.824 0-.093.356-.102.414-.102.784 0 .498.687.561.838.115.124-.369.128-.44.173-.828.053-.489-.714-.57-.838-.115-.115.423-.111.716.058 1.122.146.351.549.414.78.102.124-.169.146-.316.261-.494a43.506 43.506 0 01-.793-.218c.004-.094.301-.227.053-.214a.975.975 0 00-.341.071c-.275.12-.386.365-.519.619l.78.329.173-1.028c-.279-.04-.558-.076-.837-.116-.009.312-.018.619-.023.931-.013.503.683.552.838.116.075-.174.124-.357.155-.544.12-.543-.634-.743-.824-.227a3.777 3.777 0 01-.173.432h.603c0-.116-.005-.236-.005-.352.089-.534-.713-.774-.824-.227-.062.303-.129.597-.217.895h.824a3.992 3.992 0 01-.035-.926c.013-.476-.732-.588-.838-.116-.066.299-.137.593-.208.886.261-.035.518-.066.78-.102-.018-.085-.04-.165-.058-.249-.027-.45-.762-.619-.837-.116a8.57 8.57 0 01-.129.735c.279.04.558.075.838.115a4.7 4.7 0 01.017-.903h-.851l-.048.627c.279-.04.558-.075.837-.115-.004-.112-.013-.223-.017-.334 0-.499-.687-.566-.838-.116-.111.334-.235.659-.368.984.279.04.559.076.838.116-.027-.312-.049-.619-.076-.931-.044-.543-.833-.556-.85 0 .008.263-.031.512-.107.761h.824a15.628 15.628 0 00-.031-.529c-.195.053-.389.102-.584.155.035.027.07.054.106.085.261.205.589.134.713-.187.04-.111.085-.218.124-.329-.279-.041-.558-.076-.837-.116-.005.031-.505.721-.545.806.266.071.532.142.793.218a5.07 5.07 0 01-.066-.735c-.031-.547-.882-.552-.851 0 .035.276.018.548-.058.819h.824l-.146-.952c-.062-.406-.766-.414-.824 0-.044.325-.089.645-.129.97h.825c-.089-.249-.173-.498-.262-.752-.128-.365-.731-.445-.824 0-.217 1.068-.315 2.155 1.112 1.576.501-.205.284-1.033-.226-.828-.279.022-.341.08-.195.164.036-.231.08-.458.129-.685h-.824c.088.249.172.498.261.752.124.352.762.459.824 0 .045-.325.089-.645.129-.97h-.824l.146.952c.066.432.722.383.824 0 .093-.365.111-.667.089-1.046h-.851c.004.245.026.49.066.735.049.365.594.65.793.218.213-.463.612-.712.661-1.238.048-.512-.683-.534-.838-.116-.04.112-.084.219-.124.33l.714-.187c-.094-.071-.187-.147-.28-.218-.181-.138-.478-.027-.585.156-.203.356-.11.801-.057 1.188.062.432.727.383.824 0 .084-.334.129-.645.137-.988h-.85c.026.312.048.619.075.93.04.499.656.561.837.116.133-.325.253-.65.368-.984-.279-.04-.558-.075-.837-.115 0 .209.017.356.048.561.076.507.803.333.838-.116.018-.21.031-.419.049-.628.044-.552-.798-.539-.851 0a5.572 5.572 0 00-.018.904c.031.454.736.614.838.116a6.88 6.88 0 00.128-.735c-.279-.04-.558-.076-.837-.116.017.29.053.419.173.681.155.339.7.236.779-.102.071-.294.138-.592.209-.886-.279-.04-.559-.076-.838-.116a5.98 5.98 0 00.067 1.158c.066.436.713.378.824 0 .084-.299.155-.592.217-.895l-.824-.227c-.067.414-.129.881.226 1.184.168.147.438.183.602 0 .209-.227.284-.521.39-.81l-.824-.227c-.031.187-.08.369-.155.543.279.04.558.076.838.116.008-.312.017-.619.022-.931.013-.472-.758-.596-.838-.116l-.173 1.029c-.075.445.541.792.78.329.253-.489.878-.129.922-.908.027-.445-.581-.552-.793-.218-.093.147-.164.361-.262.494.262.036.519.067.78.103a27.37 27.37 0 00-.057-.664c-.28-.04-.559-.076-.838-.116-.049.201-.093.401-.142.601.28.04.559.076.838.116.022-.187.049-.369.071-.556h-.824c.035.187.066.369.101.556.076.414.736.401.825 0 .035-.222.093-.441.177-.654h-.824c.022.187.066.365.133.538.115.374.74.441.824 0 .049-.249.075-.463.106-.716h-.851a3.57 3.57 0 00.054.685c.07.535.81.566.85 0 .027-.196.054-.387.085-.583-.28-.04-.559-.076-.838-.116l.067.668c.048.472.682.597.837.116a7.14 7.14 0 00.222-.748c-.28-.04-.559-.076-.838-.116-.022.178-.013.356.022.534.053.437.736.633.838.116.044-.249.102-.499.164-.748-.279-.04-.559-.076-.838-.116-.04.281-.04.557 0 .837.031.401.576.61.793.219.155-.281.275-.552.373-.86-.28-.04-.559-.075-.838-.115-.026.227-.044.454-.062.685-.04.477.767.592.838.116a2.1 2.1 0 01.19-.712c-.261-.112-.518-.219-.78-.33-.235.877-.695 1.002-1.511 1.345-.833.347-1.511.641-2.433.761.04.281.076.561.116.842 1.01-.317 2.056-.597 3.053-.958.616-.222 1.511-.4 1.896-.97.253-.374-.23-.775-.585-.588-.062.031-.124.067-.186.098.209.085.417.169.625.258l-.027-.405h-.85a5.969 5.969 0 00-.009.583c.004.561.806.543.851 0 .017-.32.066-.636.137-.948-.279-.04-.558-.076-.837-.116-.005.258.008.521.044.775.049.481.669.583.837.116.08-.223.16-.446.24-.664-.28-.04-.559-.075-.838-.116 0 .228 0 .455-.004.682 0 .476.722.587.837.115.062-.249.12-.498.182-.743.133-.543-.691-.77-.824-.236z"/><path d="M188.982 156.784c-.009.766 1.002.183-.27.397-.563.093-1.125.289-1.684.409-1.249.272-2.468.534-3.664 1.006-.997.397-.607 2.013.452 1.652 1.666-.565 3.522-.681 5.153-1.287.647-.24 1.267-.587 1.573-1.246.12-.263.186-.61 0-.864-.7-.957-1.427-.614-2.433-.28a37.18 37.18 0 01-5.632 1.411c-.97.16-.704 1.674.226 1.683 1.095.013 2.141-.361 3.248-.352v-1.714c-.819.098-1.44.232-2.158.637-.904.512-.239 1.701.656 1.567a8.402 8.402 0 011.764-.116l-.226-1.683c-2.349.321-4.644 1.367-7.024 1.683.2.49.404.975.603 1.465 1.228-.957 2.716-.931 4.134-1.345l-.655-1.567c-.873.677-1.862.935-2.903 1.26-1.068.334-.611 1.83.452 1.652a12.045 12.045 0 001.768-.427c1.068-.339.612-1.826-.452-1.652-.833.133-1.537.543-2.375.681-1.081.183-.62 1.834.452 1.652.833-.143 1.538-.548 2.375-.681l-.452-1.652c-.594.187-1.152.325-1.768.427l.452 1.652c1.192-.374 2.309-.659 3.31-1.434.709-.547.355-1.861-.656-1.567-1.799.53-3.363.601-4.887 1.786-.559.436-.107 1.558.602 1.464 2.531-.338 4.977-1.398 7.476-1.745.97-.134.709-1.683-.226-1.683-.758 0-1.467.067-2.216.174.217.521.439 1.046.656 1.567.434-.134.864-.272 1.298-.405 1.059-.129 1.13-1.706 0-1.714-1.103-.009-2.171.365-3.248.351l.226 1.683c.63-.102 6.421-1.536 6.142-1.919v-.863c-.346.748-1.954.743-2.592.881a30.246 30.246 0 00-3.115.864l.452 1.652c1.998-.788 4.143-1.073 6.221-1.581.275-.067.536-.316.594-.596.088-.419.053-.86.057-1.287.014-1.1-1.692-1.1-1.706.004z"/><path d="M178.436 160.538v.338l.851-.855c-4.015-.289-8.65 1.367-11.849-2.173-.346.45-.687.9-1.033 1.345 2.039.908 4.09 2.097 6.319 2.418 2.544.365 5.118-.147 7.613-.637 1.077-.214.62-1.866-.452-1.652-2.255.445-4.631.966-6.926.57-1.892-.33-3.93-1.394-5.685-2.177-.86-.383-1.719.587-1.033 1.344 1.631 1.804 3.718 2.414 6.067 2.761 2.37.347 5.969-.837 8.295-.668.461.031-.452.165-.457-.272v-.338c-.013-1.109-1.719-1.109-1.71-.004z"/><path d="M177.045 160.226c.159-.17-.204.004-.35.017-.275.027-.55.049-.82.067-.55.036-1.099.058-1.649.071-1.094.023-1.099 1.737 0 1.715a35.042 35.042 0 002.469-.139c.584-.053 1.13-.071 1.559-.52.754-.797-.447-2.008-1.209-1.211z"/></g><defs><clipPath id="clip0_465_9545"><path fill="#fff" transform="translate(30 26.001)" d="M0 0h211v218H0z"/></clipPath></defs></svg>