<svg width="13" height="13" fill="none" xmlns="http://www.w3.org/2000/svg"><mask id="a" fill="#fff"><path d="M7 6h5.5a.5.5 0 010 1H7v5.5a.5.5 0 01-1 0V7H.5a.5.5 0 010-1H6V.5a.5.5 0 011 0V6z"/></mask><path d="M7 6H6v1h1V6zm0 1V6H6v1h1zM6 7h1V6H6v1zm0-1v1h1V6H6zm1 1h5.5V5H7v2zm5.5 0a.5.5 0 01-.5-.5h2A1.5 1.5 0 0012.5 5v2zm-.5-.5a.5.5 0 01.5-.5v2A1.5 1.5 0 0014 6.5h-2zm.5-.5H7v2h5.5V6zM6 7v5.5h2V7H6zm0 5.5a.5.5 0 01.5-.5v2A1.5 1.5 0 008 12.5H6zm.5-.5a.5.5 0 01.5.5H5A1.5 1.5 0 006.5 14v-2zm.5.5V7H5v5.5h2zM6 6H.5v2H6V6zM.5 6a.5.5 0 01.5.5h-2A1.5 1.5 0 00.5 8V6zm.5.5a.5.5 0 01-.5.5V5A1.5 1.5 0 00-1 6.5h2zM.5 7H6V5H.5v2zM7 6V.5H5V6h2zM7 .5a.5.5 0 01-.5.5v-2A1.5 1.5 0 005 .5h2zm-.5.5A.5.5 0 016 .5h2A1.5 1.5 0 006.5-1v2zM6 .5V6h2V.5H6z" fill="#2F74C8" mask="url(#a)"/></svg>