<svg width="48" height="48" fill="none" xmlns="http://www.w3.org/2000/svg"><g clip-path="url(#clip0_528_2883)" fill="#2F74C8"><path d="M24 .001c-13.233 0-24 10.767-24 24s10.767 24 24 24 24-10.767 24-24-10.767-24-24-24zm0 45c-11.58 0-21-9.42-21-21s9.42-21 21-21 21 9.42 21 21-9.42 21-21 21z"/><path d="M24 9.001c-4.963 0-9 4.037-9 8.998h3a6.005 6.005 0 016-5.998c3.309 0 6 2.692 6 6.001 0 3.31-2.691 6-6 6a1.5 1.5 0 00-1.5 1.501v7.498h3v-6.124c4.251-.717 7.5-4.424 7.5-8.876 0-4.963-4.037-9-9-9zm2 27h-3v3h3v-3z"/></g><defs><clipPath id="clip0_528_2883"><path fill="#fff" transform="translate(0 .001)" d="M0 0h48v48H0z"/></clipPath></defs></svg>