<svg width="270" height="270" fill="none" xmlns="http://www.w3.org/2000/svg"><g clip-path="url(#clip0_465_9559)" fill="#153051"><path d="M56.322 106.976c-3.1 0-6.204-.389-9.215-.773l-9.587-1.207a.523.523 0 01-.13-.016.625.625 0 01-.196-.067l-3.856-1.41c-.404-.15-1.088-.399-1.384-1.041-.404-.876.202-1.767.456-2.151 4.058-5.965 8.613-10.064 13.547-12.178 1.586-.68 3.255-1.177 4.861-1.654 2.804-.834 5.7-1.694 8.722-1.767 1.798-.041 3.545.197 5.188.44 3.612.545 7.24 1.24 10.79 2.069 2.165.502 4.445 1.103 6.358 2.378 2.213 1.477 3.544 3.68 3.555 5.892.005.814-.166 1.53-.508 2.13-.69 1.203-2.021 1.835-2.995 2.296l-8.137 3.856c-.865.409-1.762.834-2.7 1.176-2.306.84-4.747 1.135-7.11 1.415-2.306.275-4.695.56-7.069.601-.191.011-.393.011-.59.011zm-18.683-3.079l9.603 1.213c3.162.399 6.416.803 9.655.757 2.316-.042 4.68-.322 6.955-.596 2.295-.275 4.674-.56 6.861-1.358.886-.321 1.757-.736 2.602-1.135l8.136-3.856c1.088-.518 2.031-1.01 2.503-1.845.244-.425.368-.969.363-1.575-.01-1.82-1.182-3.726-3.063-4.98-1.762-1.172-3.84-1.72-5.996-2.224a135.777 135.777 0 00-10.702-2.052c-1.596-.238-3.3-.471-4.995-.43-2.871.067-5.696.907-8.432 1.72-1.58.472-3.213.954-4.742 1.612-4.736 2.032-9.131 5.991-13.07 11.78-.217.321-.497.782-.368 1.062.094.207.44.347.762.467l3.928 1.44z"/><path d="M58.29 85.251c-.066-1.187-.76-6.473-2.901-5.509-1.192.54-.715 1.99-.42 2.928.233.731.492 1.451.783 2.161.186.451.285.762.761.933.166.057.425 0 .54-.14.507-.642.367-1.42.119-2.156-.337-1.005-.778-1.984-1.218-2.948-.3-.648-1.254-.083-.959.56.28.61.55 1.228.798 1.85.145.367.757 1.554.477 1.912.181-.047.357-.094.539-.14-.104-.037-.529-1.57-.596-1.767-.099-.296-.239-.607-.29-.913a.71.71 0 01-.026-.71c.026-.445.108-.46.243-.041.368.358.55 1.285.69 1.778.202.725.31 1.466.352 2.218.041.694 1.15.694 1.109-.016z"/><path d="M54.897 80.727c-.254-.327-.69-.446-1.094-.54a41.346 41.346 0 00-10.556-1.025c-1.622.052-3.28.212-4.747.912-1.467.7-2.71 2.037-2.908 3.648-.02.187-.03.384.032.56.093.28.347.482.606.627 1.02.56 2.26.466 3.42.352 5.322-.528 10.78-1.217 15.495-3.746"/><path d="M38.272 85.91c-.767 0-1.586-.11-2.312-.514-.445-.243-.74-.56-.865-.933-.099-.295-.083-.585-.057-.803.202-1.669 1.435-3.228 3.218-4.084 1.591-.761 3.405-.917 4.965-.963 3.596-.12 7.193.233 10.701 1.036.379.088 1.01.233 1.405.736.145.186.155.44.036.627a.556.556 0 01.031.995c-4.762 2.555-10.142 3.26-15.702 3.809-.415.041-.907.093-1.42.093zm6.307-6.214c-.44 0-.876.005-1.317.02-1.518.047-3.12.187-4.524.86-1.446.69-2.44 1.923-2.596 3.219-.01.093-.026.233.005.316.031.098.16.212.352.321.845.467 1.902.404 3.1.29 5.327-.528 10.483-1.197 14.992-3.529a.541.541 0 01-.124-.119c-.14-.181-.462-.264-.783-.337a40.233 40.233 0 00-9.105-1.041zm12.152.704c1.26-1.098 3.006-1.41 4.664-1.642a127.81 127.81 0 018.665-.923c1.094-.078 2.332-.088 3.1.69.761.777.714 2.103.118 3.01-.596.907-1.622 1.446-2.663 1.762a9.188 9.188 0 01-2.83.384c-1.16-.031-2.3-.28-3.425-.555a89.011 89.011 0 01-8.059-2.352"/><path d="M68.013 84.235c-.078 0-.16 0-.238-.005-1.229-.031-2.426-.295-3.54-.565a90.349 90.349 0 01-8.11-2.368.553.553 0 01.083-1.068.543.543 0 01.16-.243c1.358-1.182 3.193-1.524 4.955-1.773 2.87-.404 5.799-.715 8.7-.927 1.312-.094 2.644-.057 3.54.855.897.912.975 2.503.182 3.705-.596.902-1.596 1.57-2.965 1.985a9.64 9.64 0 01-2.767.404zm-10.598-3.669a89.604 89.604 0 007.074 2.026c1.063.254 2.187.508 3.312.534a8.245 8.245 0 002.653-.357c1.114-.337 1.912-.855 2.363-1.534.44-.664.54-1.716-.052-2.317-.611-.617-1.7-.596-2.669-.528-2.876.207-5.778.518-8.628.917-1.503.218-2.954.477-4.053 1.26zm51.098 62.592c-.399 0-.834-.093-1.285-.274-.275-.114-.627-.28-.912-.581-.415-.43-.617-1.083-.555-1.788.005-.031.005-.062.011-.098-.125.052-.249.104-.374.145-.44.155-1.119.192-1.694-.207-.85-.591-1.275-1.757-1.026-2.845a3.392 3.392 0 01.984-1.685 1.945 1.945 0 01-.238-.176c-.601-.518-.86-1.415-.663-2.28.145-.627.507-1.239 1.103-1.861.213-.222.482-.476.835-.647.466-.223.964-.239 1.425-.166a2.67 2.67 0 01.005-.783c.109-.72.498-1.347 1.063-1.72.248-.161.502-.265.756-.301.264-.041.549-.015.866.073.948.264 1.756.974 2.166 1.871a4.36 4.36 0 013-2.006c.524-.083.954-.041 1.332.114.772.316 1.301 1.156 1.41 2.244.057.586.01 1.187-.135 1.762a6.296 6.296 0 012.203.031c.243.047.523.119.772.306.539.414.58 1.13.591 1.368a6.286 6.286 0 01-.332 2.394c-.124.363-.353.876-.829 1.171-.259.161-.534.223-.793.27-1 .186-2.011.264-3.027.223.28.943.477 2.181-.16 3.202-.565.907-1.742 1.415-2.871 1.229a3.371 3.371 0 01-1.56-.721c-.13.534-.394 1.078-.928 1.42-.321.213-.71.316-1.14.316zm-1.798-4.539c.109 0 .223.031.316.098.207.145.29.42.197.653-.161.409-.327.834-.363 1.244-.031.378.062.72.249.922.109.119.274.218.534.322.274.114.963.342 1.404.051.472-.305.549-1.103.56-1.845a.558.558 0 01.419-.528.548.548 0 01.617.264c.373.664 1.016 1.14 1.679 1.249.679.114 1.415-.192 1.752-.72.513-.824.161-2.001-.207-3.032a.563.563 0 01.082-.528.612.612 0 01.493-.213 12.61 12.61 0 003.555-.15c.161-.031.316-.062.414-.125.177-.108.296-.393.363-.596.218-.621.311-1.3.27-1.964-.021-.388-.109-.513-.161-.554-.072-.052-.233-.083-.306-.099a5.265 5.265 0 00-2.7.197.56.56 0 01-.601-.16.563.563 0 01-.078-.617 3.965 3.965 0 00.415-2.192c-.052-.518-.275-1.14-.731-1.332-.191-.078-.43-.093-.741-.042-1.088.171-2.083.975-2.477 2.001a.555.555 0 01-.876.228c-.005 0-.01.005-.015.005a.55.55 0 01-.658-.425 2.317 2.317 0 00-1.607-1.695.988.988 0 00-.404-.046.794.794 0 00-.316.135c-.301.196-.513.544-.57.958-.063.41.036.809.264 1.083a.554.554 0 01-.612.876c-.611-.207-1.249-.394-1.71-.176-.186.088-.363.259-.508.409-.456.477-.725.913-.824 1.343-.108.466.016.943.301 1.192.197.171.497.269.793.362a.555.555 0 01.098 1.011c-.658.363-1.135.953-1.275 1.575-.145.643.099 1.358.581 1.69.254.176.482.15.699.072.482-.166.933-.43 1.312-.767a.587.587 0 01.373-.134zm25.901-9.966a7.42 7.42 0 01-5.415-2.394c-.14.363-.317.731-.56 1.068-.56.787-1.373 1.269-2.208 1.212-.425-.015-.813-.155-1.109-.28-.855-.357-2.026-1.036-2.767-2.264a4.253 4.253 0 01-.617-2.042 4.29 4.29 0 01-2.047.549c-.668-.01-1.358-.14-2.182-.451-1.565-.596-2.612-1.461-3.114-2.575-.695-1.55-.109-3.566 1.311-4.499a6.69 6.69 0 01.953-.492c.114-.052.223-.098.332-.15-.399-.223-.793-.498-1.104-.876-.601-.725-.839-1.777-.637-2.824.16-.819.559-1.622 1.223-2.457.907-1.14 1.964-1.871 3.063-2.109a3.508 3.508 0 012.492.373c.197-.948.814-1.834 1.695-2.316 1.249-.679 2.907-.55 4.13.326.902.643 1.55 1.658 1.819 2.804a.95.95 0 00.125-.156c.098-.155.155-.368.222-.585.083-.291.182-.622.389-.928.306-.451.798-.736 1.389-.808a2.424 2.424 0 011.881.575c.322.29.575.663.746 1.088.405-.622.871-1.088 1.42-1.42 1.187-.725 3.042-.658 3.908.586.42.601.503 1.295.518 1.959.555-.633 1.275-1.234 2.192-1.622 1.514-.643 3.26-.482 4.452.414 1.352 1.021 1.819 2.98 1.036 4.364l-.062.109c-.057.098-.15.259-.155.316.052-.005.388-.021.57-.026.109-.005.202-.011.316-.005.632.005 1.233.29 1.695.803.57.637.875 1.56.792 2.41-.134 1.378-1 2.523-1.803 3.493-.192.228-.446.539-.85.694-.363.14-.731.114-1 .088l-2.747-.223c.192 1.161.223 2.327-.445 3.307-.861 1.259-2.535 1.565-3.804 1.316-.964-.192-1.83-.648-2.617-1.14a12.919 12.919 0 01-.69 3.14c-.155.441-.362.892-.777 1.197-.347.254-.746.332-1.088.379a4.46 4.46 0 01-.871.072zm-5.623-4.104a.55.55 0 01.461.249c1.26 1.912 3.633 3 5.893 2.7.207-.026.435-.068.58-.171.176-.13.29-.399.389-.674.43-1.213.658-2.477.679-3.762a.552.552 0 01.295-.482.565.565 0 01.565.025c.954.633 1.938 1.286 3.032 1.498.917.182 2.104-.01 2.674-.85.565-.829.378-2.026.14-3.182a.547.547 0 01.129-.476.553.553 0 01.456-.187l3.467.28c.182.015.384.031.503-.016.135-.052.285-.228.399-.373.726-.876 1.446-1.824 1.55-2.892a2.157 2.157 0 00-.513-1.565c-.177-.197-.477-.435-.881-.44-.083 0-.177.005-.27.005-.529.021-1.41.047-1.669-.767-.155-.492.094-.912.254-1.192.565-1 .228-2.342-.684-3.032-.876-.663-2.192-.772-3.348-.279-1.316.559-2.161 1.694-2.643 2.544a.554.554 0 01-1.031-.192c-.062-.419-.057-.839-.057-1.243.005-.7.005-1.358-.321-1.835-.503-.725-1.679-.725-2.42-.275-.736.446-1.296 1.255-1.773 2.535a.551.551 0 01-1.067-.239c.036-.425.041-1.472-.643-2.083a1.34 1.34 0 00-1.01-.306c-.156.021-.441.088-.607.332-.109.155-.171.378-.238.611-.078.27-.166.576-.342.861a1.99 1.99 0 01-1.187.875.586.586 0 01-.264.094.566.566 0 01-.596-.508c-.088-1.146-.643-2.187-1.488-2.788-.875-.627-2.088-.726-2.953-.254-.892.487-1.389 1.622-1.11 2.529a.55.55 0 01-.316.673.554.554 0 01-.699-.248c-.389-.721-1.394-1.109-2.353-.902-1.068.233-1.912 1.062-2.431 1.715-.549.69-.875 1.337-1 1.975-.14.72.011 1.435.404 1.907.384.466 1.027.746 1.597.995a.558.558 0 01.16.907c-.414.404-.907.627-1.389.839a5.85 5.85 0 00-.803.41c-.984.648-1.394 2.047-.912 3.12.466 1.041 1.617 1.658 2.498 1.995.694.264 1.254.383 1.778.378a3.227 3.227 0 002.435-1.182.553.553 0 01.933.576c-.352.782-.259 1.793.249 2.632.585.969 1.544 1.519 2.249 1.814.218.093.472.187.715.192.534.015 1.005-.378 1.27-.752.363-.502.554-1.16.725-1.741a.56.56 0 01.451-.394c.036.016.062.016.088.016zm84.208-22.015c-1.855 0-3.773-1.01-4.944-2.622a5.452 5.452 0 01-.907-1.944c-1.461 2.12-3.679 3.965-6.488 4.167-1.943.14-3.985-.845-5.239-2.503-.539-.715-.876-1.487-1.001-2.27-2.357 2.83-5.591 4.545-8.789 4.576-2.197 0-4.534-.938-6.182-2.565-1.011-1-1.705-2.182-2.021-3.43-2.203 3.01-5.628 4.928-9.075 4.985-3.612.041-6.97-2.022-8.519-4.986-.742 1.58-2.395 2.752-4.012 3.094-2.539.534-5.068-.42-6.747-1.187-3.135-1.425-6.571-4.26-6.659-7.804-2.623 1.29-7.592 3.052-11.92.715-2.202-1.187-3.767-3.799-3.886-6.494-.073-1.565.357-2.959 1.202-4.01-3.084-.13-6.172-1.416-8.67-3.639-2.814-2.508-4.488-5.908-4.602-9.333-.093-2.814.798-5.473 2.436-7.292 1.492-1.653 3.606-2.56 5.69-2.529-1.752-2.233-2.778-5.41-1.394-8.234.834-1.705 2.803-2.882 4.902-2.923 1.151-.026 2.125.274 2.887.85.015-1.638.212-3.42 1.171-4.913.741-1.156 2.114-1.99 3.488-2.13.539-.057 1.057 0 1.518.155-.492-3.477 1.135-7.219 4.115-9.12 3.146-2.006 7.514-1.778 10.484.455.917-1.943 2.954-5.203 6.488-5.736 1.861-.275 3.897.647 5.089 2.295.524.726.809 1.498.855 2.265 3.213-2.798 7.769-5.597 12.93-5.41 3.021.114 6.157 1.632 8.183 3.964 1.368 1.57 2.146 3.405 2.254 5.26.959-.7 1.98-1.243 3.172-1.187.995.047 1.99.757 2.415 1.726.036.083.067.166.093.244 3.457-3.022 8.65-5.017 13.531-3.229 2.721 1 4.991 3.467 5.913 6.437.555 1.782.56 3.575.047 5.15.689-.3 1.461-.465 2.275-.341.876.135 1.705.71 2.171 1.503.804-1.534 1.825-3.115 3.317-4.188 2.047-1.471 5.374-1.668 7.043.384.643.793.938 1.757 1.161 2.684.725 3.022.87 6.198.435 9.282.498-.068.995.088 1.316.43.021.02.042.047.057.067 2.835-3.27 7.028-5.306 11.386-5.43.866-.021 2 .015 3.006.538 2.005 1.047 2.607 3.54 2.311 5.41-.171 1.094-.585 2.11-1.083 3.053 1.156-.684 2.482-1.202 3.902-1.213 1.379.016 2.835.824 3.618 2.011.311.472.497.964.554 1.461 2.762-1.84 5.69-2.389 8.022-1.46 1.716.683 3.032 2.564 3.203 4.575.088 1.068-.15 2.021-.674 2.757 1.892.347 3.612 1.741 4.224 3.576a.551.551 0 01-.249.653l-1.145.668c2.063 1.016 4.177 2.307 5.374 4.38.829 1.43 1 3.296.456 4.866-.425 1.223-1.254 2.135-2.337 2.565-1.41.565-2.882.264-4.27-.3a12.368 12.368 0 011.508 5.83c.005.678-.047 1.674-.544 2.513-1.037 1.767-3.457 2.052-5.204 1.306-.818-.353-1.523-.87-2.145-1.456.015.399-.021.808-.099 1.218-.279 1.44-1.103 2.653-2.264 3.332-1.161.674-2.622.793-4.011.326a5.566 5.566 0 01-1.306-.642 5.773 5.773 0 01-.244 1.59c-.668 2.234-2.632 4.39-5.011 5.489-6.421 2.969-14.666.632-18.729-5.09-.249 1.011-.622 2.032-1.28 2.898-.917 1.202-2.685 2.202-4.4 1.565-.653-.244-1.197-.778-1.513-1.446-1.679 2.27-4.032 3.695-6.432 3.793-.072-.005-.139-.005-.207-.005zm-5.187-7.426a.556.556 0 01.518.746c-.544 1.472.155 2.767.617 3.405 1 1.378 2.648 2.218 4.208 2.161 2.803-.114 4.975-2.208 6.224-4.322.083-.524.326-.98.725-1.317a.556.556 0 01.866.648c-.156.353-.327.695-.508 1.026-.005.135.01.254.026.332.108.622.528 1.166 1.046 1.358 1.135.425 2.436-.28 3.136-1.197.803-1.057 1.109-2.441 1.347-3.768a.552.552 0 011.026-.17c3.447 6.078 11.707 8.731 18.05 5.798 2.068-.959 3.841-2.886 4.416-4.799.29-.974.264-1.876-.073-2.69a4.41 4.41 0 01-.321-.621.556.556 0 01.254-.705.556.556 0 01.725.202c.12.197.228.4.322.601.456.695 1.176 1.239 2.057 1.534 1.088.368 2.223.28 3.104-.233.886-.513 1.514-1.456 1.736-2.586.218-1.13-.015-2.239-.637-3.047a.551.551 0 01.093-.772.555.555 0 01.772.083c.975 1.191 2.079 2.539 3.54 3.166 1.27.544 3.094.373 3.814-.85.275-.466.394-1.067.389-1.948a11.26 11.26 0 00-2.4-6.862.562.562 0 01.011-.7.549.549 0 01.684-.134c1.653.88 3.555 1.767 5.161 1.124 1.001-.399 1.477-1.254 1.705-1.902.436-1.254.291-2.803-.373-3.948-1.218-2.11-3.55-3.322-5.83-4.38a.558.558 0 01-.321-.476.54.54 0 01.275-.503l1.642-.959c-.741-1.58-2.534-2.638-4.28-2.472a.552.552 0 01-.581-.378.55.55 0 01.239-.648c.85-.518 1.285-1.498 1.186-2.684-.134-1.607-1.166-3.104-2.503-3.638-2.254-.892-5.234-.125-7.975 2.067a.56.56 0 01-.679.01.557.557 0 01-.182-.652c.306-.741.026-1.41-.259-1.845-.58-.881-1.694-1.503-2.705-1.513h-.052c-1.85 0-3.493 1.114-5.301 2.456a.55.55 0 01-.71-.041.552.552 0 01-.088-.705c.922-1.44 1.974-3.068 2.249-4.83.243-1.54-.275-3.498-1.731-4.26-.777-.404-1.731-.435-2.462-.415-4.374.125-8.576 2.327-11.194 5.81-.103.3-.29.56-.518.74a1.195 1.195 0 00-.072.115.554.554 0 01-.767.166c-.005-.005-.016-.01-.026-.016a.557.557 0 01-.394-.43.557.557 0 01.446-.648c.005 0 .015-.005.02-.005.094-.14.192-.28.291-.415.015-.108 0-.227-.073-.31-.104-.11-.29-.11-.42-.078-.129.03-.29.124-.326.27a.55.55 0 01-.658.404.552.552 0 01-.42-.648 23.77 23.77 0 00-.192-10.147c-.192-.798-.44-1.627-.943-2.244-1.28-1.57-3.897-1.363-5.54-.187-1.809 1.301-2.855 3.483-3.773 5.405-.129.27-.451.39-.72.27a.55.55 0 01-.29-.715c.181-.451 0-.881-.125-1.099-.29-.513-.839-.897-1.389-.985-1.274-.191-2.513.68-3.135 1.218a.56.56 0 01-.736-.01.551.551 0 01-.078-.73c1.177-1.664 1.441-3.815.742-6.054-.824-2.648-2.835-4.845-5.24-5.726-4.98-1.83-10.37.72-13.5 4.063a.557.557 0 01-.772.036.558.558 0 01-.057-.772c.264-.311.181-.684.073-.938-.254-.58-.876-1.037-1.451-1.063-1.182-.041-2.255.762-3.348 1.67a.55.55 0 01-.617.061.549.549 0 01-.29-.544c.197-1.954-.498-3.96-1.959-5.638-1.835-2.11-4.664-3.483-7.39-3.586-5.499-.213-10.313 3.285-13.376 6.255a.557.557 0 01-.715.046.55.55 0 01-.166-.694c.617-1.218.026-2.353-.383-2.918-.943-1.3-2.591-2.067-4.027-1.85-3.436.513-5.291 4.187-5.928 5.742a.56.56 0 01-.389.332.547.547 0 01-.492-.13c-2.597-2.352-6.779-2.705-9.728-.824-2.954 1.881-4.394 5.825-3.358 9.168a.55.55 0 01-.922.55c-.57-.581-1.311-.643-1.835-.586-1.057.108-2.104.751-2.669 1.632-1.083 1.684-1.026 3.96-.979 5.794a.562.562 0 01-.41.55.558.558 0 01-.632-.27c-.534-.985-1.643-1.514-2.949-1.498-1.694.036-3.275.964-3.928 2.306-1.337 2.736.114 6.157 2.239 8.12a.546.546 0 01.104.68.554.554 0 01-.638.259c-2.078-.612-4.56.176-6.177 1.964-1.451 1.607-2.239 3.98-2.151 6.509.104 3.12 1.643 6.234 4.234 8.54 2.674 2.384 6.084 3.602 9.333 3.333a.564.564 0 01.571.373.553.553 0 01-.218.643c-1.721 1.14-1.897 3.047-1.85 4.078.103 2.317 1.435 4.555 3.306 5.566 4.4 2.373 9.681-.026 11.743-1.171a.546.546 0 01.586.03.55.55 0 01.228.54c-.539 3.41 2.871 6.255 5.954 7.654 2.446 1.114 4.374 1.467 6.064 1.109 1.814-.384 3.679-2.016 3.529-4a.556.556 0 01.472-.592.559.559 0 01.621.43c.757 3.447 4.364 6.116 8.116 6.028 3.534-.057 7.053-2.306 8.96-5.722a.545.545 0 01.622-.264.554.554 0 01.415.534c.005 1.513.673 3.016 1.896 4.218 1.426 1.41 3.416 2.244 5.333 2.244h.057c3.405-.031 6.867-2.213 9.043-5.69a.547.547 0 01.71-.202c.254.124.373.42.28.69-.529 1.455.181 2.72.653 3.342 1.016 1.347 2.757 2.176 4.275 2.068 3.224-.234 5.587-3.042 6.727-5.592a.548.548 0 01.498-.311z"/><path d="M182.19 73.565c4.789.098 9.546-.114 14.309-.638.699-.077.71-1.186 0-1.109-4.758.524-9.52.736-14.309.638-.71-.016-.71 1.093 0 1.109zm.006 3.011c2.368.213 4.544-.233 6.866-.611 2.539-.415 5.079-.12 7.582-.56.7-.125.404-1.192-.296-1.068-2.181.384-4.42.052-6.623.394-2.523.394-4.959.97-7.535.736-.699-.062-.699 1.047.006 1.109z"/><path d="M193.871 68.574c1.918 1.031 4.058 1.264 6.131 1.87 1.28.374 2.534.825 3.783 1.302 1.057.399 2.747.715 1.969 1.99-1.01 1.653-4.752 2.622-6.41 3.239-1.897.704-3.721 1.414-5.431 2.523-.596.39-.042 1.348.56.96 2.497-1.628 5.348-2.338 8.043-3.54 1.129-.508 5.104-2.177 5.394-3.592.306-1.497-1.974-1.922-2.897-2.285-1.705-.669-3.425-1.306-5.192-1.798-1.824-.503-3.69-.716-5.385-1.622-.637-.343-1.197.616-.565.953zM57.96 85.966c.844 2.794 4.964 4.95 7.213 6.535 3.799 2.674 9.048 4.649 11.044 9.059.145.326.621.041.476-.28-1.461-3.228-4.016-4.555-6.913-6.385a101.39 101.39 0 01-5.177-3.477c-1.855-1.337-5.41-3.27-6.115-5.597-.093-.342-.632-.197-.529.145z"/><path d="M57.814 85.94c-3.037 6.452 1.726 13.386 2.037 19.978.015.352.57.358.554 0-.305-6.395-5.032-13.5-2.114-19.698.155-.321-.321-.601-.477-.28zm-1.358-.207c-.305.912-1.74 1.762-2.41 2.42a47.765 47.765 0 00-2.005 2.094c-1.187 1.316-2.327 2.695-3.343 4.146-2.041 2.923-3.347 6.918-3.446 10.473-.01.358.544.358.555 0 .134-4.762 2.389-9.172 5.358-12.769a46.204 46.204 0 013.965-4.218c.658-.622 1.565-1.115 1.855-1.996.12-.342-.415-.487-.529-.15zm172.629-13.718a1.22 1.22 0 01-.29-.03c-.741-.172-9.401-4.204-12.629-6.401a.556.556 0 01.078-.959c.642-.3 3.715-1.057 7.669-2.01 1.783-.43 3.462-.84 3.732-.933.238-.083.565-.203.927-.156.353.047.633.244.84.384.865.596 3.586 1.85 5.986 2.954 3.27 1.508 4.741 2.202 5.109 2.57a.548.548 0 01-.259.928c-1.057.259-2.974.974-4.825 1.663-3.503 1.316-5.415 1.99-6.338 1.99zm-11.318-6.721c3.68 2.228 10.743 5.472 11.277 5.612.591.099 3.835-1.109 5.986-1.912 1.352-.503 2.653-.99 3.695-1.332-.98-.492-2.493-1.187-3.799-1.793-2.56-1.182-5.208-2.4-6.151-3.047-.125-.088-.265-.182-.358-.197-.093-.021-.27.046-.399.098-.306.11-1.596.425-3.845.97-2.042.492-4.861 1.176-6.406 1.6z"/><path d="M226.764 86.06a.55.55 0 01-.353-.13c-.466-.368-4.762-2.01-7.333-2.996-3.596-1.378-3.601-1.388-3.747-1.585-.3-.42.581-16.174.602-16.314a.55.55 0 01.642-.451.552.552 0 01.451.637c-.104.73-.663 13.308-.7 15.46.55.232 1.866.735 3.146 1.227 3.576 1.368 5.804 2.244 6.903 2.763.197-1.1.43-2.928.669-4.846.43-3.446.881-7.007 1.368-8.452a.55.55 0 01.699-.348.55.55 0 01.348.7c-.451 1.342-.913 5.006-1.317 8.24-.321 2.555-.596 4.763-.844 5.69a.55.55 0 01-.368.384.634.634 0 01-.166.02z"/><path d="M226.764 86.06a.553.553 0 01-.534-.405.549.549 0 01.389-.679c3.43-.948 7.784-2.02 11.665-2.87.145-1.597.233-3.177.321-4.706.177-3.136.358-6.38.98-9.526a.547.547 0 01.648-.435c.3.057.497.353.435.653-.601 3.073-.783 6.276-.959 9.375-.088 1.591-.181 3.229-.331 4.846-.011.124-.037.383-.234.596-.181.191-.399.238-.518.264-3.892.85-8.271 1.928-11.717 2.881-.047 0-.099.005-.145.005zm-6.706-18.553c-.088 2.617-.938 5.047-1.348 7.612-.347 2.161-.378 4.328-.217 6.504.026.353.58.358.554 0-.363-4.923 1.405-9.302 1.565-14.117.011-.352-.544-.352-.554 0zm4.068 2.425c-.218 2.446-1.135 4.799-1.534 7.224-.337 2.057-.492 4.125-.534 6.208-.005.358.55.358.555 0 .052-2.72.311-5.415.896-8.079.394-1.793 1.006-3.519 1.166-5.353.037-.353-.518-.353-.549 0z"/><path d="M231.734 70.979c-.228 4.29-.456 8.582-.679 12.867-.021.358.533.358.554 0 .228-4.29.456-8.582.679-12.867.021-.358-.534-.358-.554 0zm3.627-1.042a152.21 152.21 0 00-.311 13.22c.006.358.56.358.555 0-.088-4.41.01-8.815.311-13.22.026-.357-.529-.352-.555 0zm-14.505-5.685a113.536 113.536 0 009.572 6.893c.3.192.58-.285.28-.477a112.75 112.75 0 01-9.458-6.804c-.275-.223-.674.165-.394.388zm4.586-.757a359.327 359.327 0 018.152 6.432c.275.222.669-.166.394-.394a346.38 346.38 0 00-8.266-6.52c-.28-.212-.56.27-.28.482z"/><path d="M221.048 67.828c3.752-.705 7.467-1.472 10.903-3.198.316-.16.037-.637-.28-.476-3.394 1.71-7.063 2.451-10.768 3.14-.353.068-.208.601.145.534zm5.037 2.358c3.104-1.4 6.27-2.633 9.473-3.794.332-.12.187-.658-.145-.534-3.249 1.172-6.457 2.426-9.608 3.846-.327.15-.041.627.28.482zm-9.769.466c1.617.892 3.218 1.451 4.986 1.954 2.166.612 4.156 1.684 6.182 2.643.321.15.601-.326.28-.477-1.591-.756-3.166-1.606-4.82-2.228-2.15-.808-4.306-1.244-6.348-2.368-.311-.171-.591.305-.28.476zm-.363 5.991a135.832 135.832 0 0111.168 3.67c.332.123.477-.41.145-.535a135.832 135.832 0 00-11.168-3.669c-.342-.098-.492.436-.145.534zm12.236-.673c1.85-.063 3.653-.607 5.457-1.006 1.881-.42 3.799-.772 5.633-1.373.337-.11.192-.648-.145-.534-1.586.518-3.229.834-4.856 1.197-1.995.446-4.037 1.093-6.084 1.16-.363.011-.363.566-.005.555zm-.643 5.674c1.462-.948 3.815-.928 5.514-1.41 1.923-.549 3.768-1.15 5.789-1.228.358-.015.358-.565 0-.554-2.068.078-3.959.684-5.934 1.249-1.834.523-4.032.42-5.649 1.466-.295.192-.015.669.28.477zm-87.177-33.727c3.845 8.738 6.55 18.014 10.012 26.917.726 1.871 1.358 3.778 2.078 5.654.544 1.415 1.146 3.85 2.54 4.711 1.285.793 3.778.73 5.223.959 1.866.295 4.286 1.083 6.183.88 2.456-.258 1.477-5.239 1.451-7.042-.062-4.535-.477-9.11-.026-13.635.472-4.752 1.544-9.478 1.907-14.236.156-2.005-1.85-1.751-3.524-1.995-4.747-.7-9.52-1.207-14.282-1.757-2.415-.28-4.835-.554-7.25-.85-.995-.124-2.768-.103-3.556-.497-.637-.321-1.197.637-.559.959 1.694.855 4.42.689 6.265.907 4.26.502 8.525.979 12.78 1.492 1.98.238 3.959.477 5.928.762.959.14 2.338.135 3.234.56.073.03.052-.576-.124.253-.161.741-.218 1.519-.327 2.27a553.4 553.4 0 00-.917 6.473c-.539 4-.948 7.898-.839 11.935.067 2.456.145 4.908.176 7.364.021 1.622.534 4.353-.14 5.856-.249.555.508-.109.041.099-.171.072-.741-.063-.907-.094-1.14-.186-2.29-.316-3.43-.487-1.938-.295-4.312-.321-6.162-.984-1.612-.58-2.161-2.965-2.731-4.483-.684-1.814-1.306-3.648-2.006-5.457-3.477-8.96-6.213-18.283-10.079-27.078-.291-.663-1.244-.098-.959.544z"/><path d="M169.312 51.55c4.701-1.922 9.411-3.824 14.241-5.4l-.679-.679c-3 7.525-3.15 16.045-3.99 24.005-.425 4.047-1.28 8.302-1.088 12.38.067 1.457.093 1.783-1.482 2.359-.856.316-1.851.414-2.742.596-2.244.46-4.498.824-6.784.995-.704.051-.71 1.16 0 1.109a51.08 51.08 0 005.675-.757c1.575-.295 4.234-.389 5.597-1.233.886-.55.917-.638.974-1.685.125-2.404.021-4.767.275-7.198.539-5.105 1.073-10.21 1.612-15.319.539-5.105 1.114-10.157 3.026-14.961.156-.394-.306-.804-.679-.68-4.83 1.576-9.54 3.478-14.241 5.4-.658.265-.373 1.338.285 1.068z"/><path d="M141.125 47.98c2.555-1.172 5.525-1.731 8.225-2.457a500.665 500.665 0 0113.116-3.332c1.69-.405 4.027-1.374 5.758-1.25 1.13.084 2.441.763 3.498 1.115 3.871 1.285 7.737 2.607 11.536 4.094.663.26.953-.813.295-1.067-3.975-1.555-8.022-2.934-12.075-4.27-.958-.317-2.083-.871-3.104-.965-1.731-.16-3.887.726-5.55 1.125a499.234 499.234 0 00-13.764 3.488c-2.799.751-5.841 1.352-8.489 2.565-.648.295-.088 1.249.554.953zm21.466 2.435c-.519 11.889 1.062 23.652 2.28 35.453.036.352.591.352.554 0-1.217-11.8-2.798-23.564-2.28-35.453.016-.352-.539-.352-.554 0zm-7.618-1.093c-.736 5.462.565 11.567 1.42 16.982 1.01 6.421 2.446 12.754 4.239 19.004.098.342.632.197.534-.145a160.035 160.035 0 01-3.897-16.926c-.529-3.088-.97-6.193-1.306-9.312-.337-3.084-.871-6.364-.456-9.458.046-.347-.488-.498-.534-.145zm-7.836-.565c1.555 6.4 3.052 12.816 4.669 19.195.7 2.768 1.949 5.24 2.954 7.903 1.156 3.058 2.006 6.204 2.695 9.396.078.347.612.202.534-.145-.653-3.021-1.451-6.006-2.514-8.914-1.031-2.814-2.394-5.462-3.135-8.38-1.617-6.384-3.114-12.8-4.669-19.195-.088-.352-.622-.207-.534.14zm25.124 1.269c-.705 5.955-1.394 11.92-1.555 17.916-.155 5.85.311 11.686.804 17.511.031.352.585.358.554 0-.492-5.83-.959-11.66-.803-17.511.16-5.996.85-11.961 1.555-17.915.041-.353-.514-.353-.555 0zm5.224-2.078c-.783 12.127-2.016 24.326-2.068 36.479 0 .357.555.357.555 0 .046-12.158 1.28-24.352 2.067-36.479.021-.357-.533-.352-.554 0z"/><path d="M147.054 45.637c8.25.617 16.283 1.524 23.922 4.892.321.145.606-.337.28-.477-7.738-3.415-15.848-4.348-24.202-4.97-.352-.026-.352.524 0 .555zm15.065-3.529a169.717 169.717 0 0115.06 6.177c.321.15.601-.326.28-.476a167.565 167.565 0 00-15.195-6.235c-.331-.119-.477.42-.145.534z"/><path d="M149.355 48.897c6.716-3.172 14.314-4.8 21.367-7.11.337-.11.192-.648-.145-.534-7.105 2.332-14.728 3.97-21.497 7.167-.326.15-.046.627.275.477zm6.887.705a214.518 214.518 0 0118.071-6.592c.337-.11.192-.643-.145-.534a213.343 213.343 0 00-18.071 6.592c-.326.135-.186.668.145.534zm8.106.834c4.337-2.208 8.628-4.57 13.246-6.151.337-.114.191-.648-.145-.534-4.665 1.601-8.997 3.98-13.376 6.208-.327.16-.047.638.275.477zM143.81 54.26c3.897.26 7.789.519 11.686.794 4.125.285 8.328.373 12.324 1.528.342.099.487-.435.145-.533-3.716-1.078-7.572-1.208-11.412-1.472-4.249-.296-8.499-.586-12.748-.866-.353-.026-.353.529.005.55zm2.829 7.748c6.862.016 13.718.3 20.559.855.357.031.352-.523 0-.554a261.696 261.696 0 00-20.559-.855c-.357-.005-.357.549 0 .554zm2.011 6.115l17.999-.047c.357 0 .357-.554 0-.554l-17.999.047c-.357.005-.357.56 0 .554zm2.073 6.141c5.333.145 10.66.181 15.993.099.357-.006.357-.56 0-.555-5.333.083-10.66.047-15.993-.098-.357-.01-.357.544 0 .554zm1.871 4.966c4.706-.1 9.411-.073 14.122.077.357.01.357-.544 0-.555a267.22 267.22 0 00-14.122-.077c-.358.01-.358.565 0 .554zm16.039-21.575c3.768-1.54 7.924-1.814 11.842-2.881.342-.094.197-.627-.145-.534-3.918 1.073-8.074 1.347-11.842 2.881-.331.135-.186.669.145.534z"/><path d="M167.752 63.159c3.903-1.29 8.271-1.425 12.334-1.949.348-.047.353-.601 0-.554-4.089.523-8.54.663-12.479 1.969-.342.109-.197.648.145.534zm-.487 5.539c4.053-.321 8.054-.886 12.039-1.663.347-.068.202-.601-.145-.534a105.668 105.668 0 01-11.894 1.643c-.357.03-.357.585 0 .554zm.43 6.043c2.192-.373 4.4-.674 6.618-.855 1.674-.135 3.369-.088 5.001-.518.342-.088.197-.627-.145-.534-2.088.55-4.384.43-6.535.658-1.705.182-3.394.43-5.084.715-.352.063-.202.596.145.534zm-.01 5.26a42.5 42.5 0 0010.391-1.187c.347-.082.202-.616-.145-.533a42.125 42.125 0 01-10.246 1.166c-.358 0-.358.554 0 .554zM68.884 193.303a232.23 232.23 0 00-6.287-1.824 2.659 2.659 0 01-1.16-.047 6.632 6.632 0 01-.83-.3c-1.544-.135-3.093-.425-4.052-1.306-.694-.187-1.389-.374-2.083-.565-2.296-.627-4.597-1.244-6.888-1.892-.927-.259-2.4-.414-3.197-.984-.368-.26-.72.025-.788.373a.514.514 0 00-.047.388c2.483 9.189 3.758 18.735 5.836 28.026.43 1.933.777 3.882 1.187 5.82.212.99.393 2.462.85 3.675.492-.032.969.025 1.435.124-.777-1.109-.943-2.804-1.218-4.094-.389-1.824-.715-3.664-1.114-5.483-1.99-9.059-3.312-18.34-5.644-27.316 1.633.679 3.83.938 5.322 1.347 4.157 1.14 8.318 2.255 12.47 3.415 1.668.467 3.337.933 5 1.431.97.29 2.441.497 3.338 1.067a1.356 1.356 0 00-.042.13c-.218.658-.399 1.326-.601 1.99-.663 2.187-1.332 4.374-1.974 6.566-1.094 3.742-2.089 7.421-2.581 11.287-.3 2.379-.58 4.763-.902 7.141-.197 1.472-.171 3.799-.715 5.416a2.7 2.7 0 01.84.166c.087.031.18.057.274.088.508-1.705.498-4.11.638-5.141.611-4.488.912-9.038 2.047-13.433 1.176-4.539 2.943-8.981 3.97-13.552.434-1.953-1.416-2-3.084-2.513z"/><path d="M86.317 190.873c-5.011.834-9.955 2-14.889 3.197-.694.166-.399 1.234.296 1.068 4.54-1.099 9.09-2.166 13.691-2.975-3.757 6.929-5.156 15.081-7.13 22.621-.555 2.13-1.115 4.255-1.67 6.385-.46 1.767-.554 4.083-1.201 5.762-.01.311-.021.617-.037.928-.627.508-1.337.731-2.12.669-.912.129-1.901.129-2.824.171-.596.026-1.192.046-1.788.057 1.052.228 2.084.513 3.032 1.062 1.435.047 3.29.109 4.146-.523.57-.42.518-.814.658-1.441.59-2.648.917-5.333 1.612-7.991 1.29-4.939 2.575-9.883 3.87-14.822 1.219-4.633 2.525-9.204 4.97-13.36.27-.445-.165-.886-.616-.808zm-29.508-6.209c-1.353.14-2.71.275-4.063.425-2.871.321-5.99.446-8.784 1.244-.684.197-.394 1.264.295 1.067 2.71-.777 5.7-.891 8.494-1.207 1.047-.119 2.099-.218 3.146-.332.197-.487.503-.896.912-1.197z"/><path d="M86.742 190.925a180.666 180.666 0 00-6.328-3.467 2.668 2.668 0 01-.585.948 183.632 183.632 0 016.353 3.477c.622.358 1.177-.601.56-.958zm-24.119 37.312c.006-.005.016-.01.021-.015.56-11.749.772-23.513 3.053-35.09.067-.347-.467-.498-.534-.145-2.286 11.582-2.514 23.362-3.068 35.121.176.041.347.088.529.129zm-4.306-37.261c.031-.108-.01-.186-.073-.248l-.228-.078c-.098.01-.197.052-.233.176-1.58 5.395-1.181 11.795-1.135 17.371.052 6.276.508 12.531 1.301 18.755.192.078.384.15.58.218-.761-5.934-1.223-11.904-1.316-17.884-.088-5.825-.55-12.676 1.104-18.31zm-4.944 25.052c.72 3.094 1.13 6.239 1.373 9.406.192.088.389.171.58.264-.175-2.446-.445-4.882-.89-7.297-.602-3.265-1.685-6.384-2.027-9.696-.674-6.55-1.15-13.122-1.73-19.682-.032-.353-.587-.358-.555 0 .575 6.56 1.093 13.126 1.73 19.682.25 2.514.949 4.866 1.519 7.323zm15.899 12.867c.405-6.063.855-12.121 1.98-18.102 1.057-5.602 2.56-11.1 4.068-16.594.094-.342-.44-.492-.534-.145-1.6 5.825-3.192 11.661-4.254 17.61-1.01 5.654-1.425 11.38-1.804 17.102.182.046.363.083.544.129zm10.992-36.11c-2.596 11.873-5.649 23.745-7.525 35.753-.057.347.477.497.534.145 1.876-12.013 4.928-23.886 7.525-35.753.078-.342-.456-.492-.534-.145zm-24.631-5.897c.01-.083.03-.166.046-.249a191.29 191.29 0 00-5.042-1.228c-.348-.078-.498.456-.145.533 1.725.394 3.436.809 5.135 1.249 0-.098-.005-.191.005-.305zm18.117 7.047c-1.342-.855-2.72-1.601-4.11-2.295-.394.015-.798.02-1.202.015a47.028 47.028 0 015.037 2.757c.296.197.576-.285.275-.477z"/><path d="M76.445 190.214c-.218.088-.436.166-.653.249 1.394.871 2.778 1.757 4.146 2.674.295.197.575-.28.28-.477a151.949 151.949 0 00-3.773-2.446zm-20.782-2.119a52.71 52.71 0 00-3.534.907c-.342.103-.197.637.145.533a53.49 53.49 0 013.514-.901 2.844 2.844 0 01-.124-.539zm16.211 3.342c-.555.078-1.114.14-1.684.176-1.161.389-2.317.783-3.472 1.166-.337.114-.192.648.145.534 2.124-.705 4.244-1.435 6.384-2.114-.135.031-.274.046-.41.072a2.795 2.795 0 01-.963.166z"/><path d="M80.808 188.665c-.658.119-1.31.259-1.964.404-.933.508-1.84.928-2.73 1.27 1.595-.446 3.202-.845 4.84-1.141.352-.062.202-.595-.146-.533zm-34.825 5.322c3.985.881 7.97 1.762 11.95 2.654 3.866.865 7.826 1.56 11.443 3.239.321.15.601-.327.28-.477-3.348-1.56-6.95-2.26-10.536-3.063a2735.31 2735.31 0 00-12.992-2.886c-.347-.073-.492.461-.145.533zm1.632 8.085a262.38 262.38 0 0120.196 3.938c.347.083.492-.451.145-.533a261.897 261.897 0 00-20.196-3.939c-.347-.057-.497.477-.145.534zm1.068 6.353l17.801 2.659c.348.051.498-.482.145-.534l-17.801-2.659c-.347-.052-.498.477-.145.534zm1.124 6.379a369.42 369.42 0 0015.796 2.504c.348.046.498-.488.145-.534a372.232 372.232 0 01-15.795-2.503c-.342-.063-.493.471-.146.533zm1.177 5.204c4.643.606 9.266 1.337 13.873 2.192.347.062.498-.472.145-.534a262.713 262.713 0 00-14.018-2.208c-.352-.051-.347.503 0 .55zm19.102-18.931c3.928-.938 8.059-.596 12.07-1.063.352-.041.352-.596 0-.554-4.069.471-8.225.129-12.215 1.078-.353.088-.202.622.145.539z"/><path d="M68.386 206.383c4.053-.663 8.396-.155 12.485-.057.357.011.357-.544 0-.554-4.152-.099-8.52-.596-12.635.077-.347.057-.197.591.15.534zm-1.316 5.416c4.027.29 8.048.332 12.08.166.357-.016.357-.57 0-.555a106.77 106.77 0 01-12.08-.165c-.352-.026-.352.528 0 .554zm-.55 6.037a78.34 78.34 0 016.033.109c1.87.109 3.793.482 5.664.28.353-.036.353-.591 0-.555-1.876.203-3.783-.171-5.664-.279a77.28 77.28 0 00-6.032-.109c-.358.01-.358.565 0 .554zm-.803 5.193c3.472.559 6.945.699 10.453.399.352-.031.358-.586 0-.555a42.305 42.305 0 01-10.302-.378c-.353-.057-.503.477-.15.534zm-.793-43.615c-.259-1-.368-2.011-.326-3.042.016-.357-.539-.357-.555 0a10.886 10.886 0 00.348 3.193c.093.342.627.196.533-.151zm.985-.482c.13-1.311.352-2.596.674-3.876.088-.347-.446-.492-.534-.145a27.895 27.895 0 00-.695 4.021c-.03.358.524.353.555 0zm21.791 10.65c.897-.441 1.83-.772 2.804-1 .348-.083.203-.617-.145-.534a13.65 13.65 0 00-2.933 1.052c-.326.166-.047.642.275.482zm.845 1.575a28.798 28.798 0 0110.163 1.503c.337.114.482-.42.145-.534a29.033 29.033 0 00-10.313-1.523c-.352.015-.352.57.005.554zm-11.411 46.248c.643.663.943 2.259 1.264 3.135.384 1.042.747 2.094 1.1 3.146.113.337.647.192.533-.145-.43-1.28-.876-2.55-1.348-3.815-.31-.824-.533-2.067-1.155-2.705-.249-.264-.643.13-.394.384zm-1.669 2.238c-.01.902.037 1.804.14 2.7.042.353.596.353.555 0a21.365 21.365 0 01-.14-2.7c.005-.357-.55-.357-.555 0zM34.571 121.455c-3.404 2.213-5.43 7.556-2.746 11.095 2.87 3.788 9.038 4.835 12.826 1.99 3.379-2.539 4.83-8.307 1.845-11.639-3.255-3.633-8.147-4.556-12.039-1.358-.554.456.239 1.238.788.788 3.182-2.612 7.033-1.933 9.862.746 3.203 3.037 1.918 8.706-1.643 10.935-2.845 1.782-6.182 1.119-8.913-.57-4.219-2.607-3.224-8.556.58-11.023.601-.389.042-1.353-.56-.964zm33.328-.617c-3.98 2.306-5.675 7.432-3.368 11.52 2.389 4.234 7.493 5.815 11.914 4.017 4.607-1.871 5.654-6.96 3.456-11.194-2.218-4.291-7.576-6.359-12.002-4.343-.653.295-.088 1.254.56.959 8.96-4.084 16.687 11.08 6.644 13.873-8.427 2.342-14.832-9.126-6.644-13.873.622-.358.062-1.317-.56-.959z"/><path d="M40.313 132.503c-.596-.15-.798-1.124-.86-1.627-.072-.559.016-1.161.482-1.534.824-.648 1.98-.171 2.39.705.19.404.294.99.16 1.43-.192.622-.736.804-1.306.99-.575.187-.824.036-1.063-.528-.176-.415-.274-1.125.006-1.529.45-.653 1.243.295 1.119.865-.3 1.363-1.244-.767-.762-.938.311-.109.643.793.586.98-.166.114-.327.228-.492.347-.254-.197-.343-.435-.27-.715-.005-.265.238-1.057.669-.881.28.114.217.917.036.839-.472-.202.611-.254.357.042-.098.114.052-.845.006-.664.062-.243.041-.388.228-.3.17.083.3.617.233.813-.342.089-.472.249-.384.477.031.244.187.415.456.513.057.156.037.394-.015.55-.249.72-1.089.554-1.467.083-.45-.555-1.233.233-.787.787.932 1.151 2.88.907 3.327-.575.181-.596.088-1.285-.317-1.772-.435-.524-1.383-.741-1.772-.021-.73 1.358 1.544 2.389 1.71.798.068-.653-.228-1.487-.88-1.736-.664-.254-1.327.28-1.307.969.052 1.503 2.213 1.518 2.514.114.238-1.114-1.11-3.265-2.234-1.902-.648.793-.772 3.908.912 3.156 1.343-.596 1.073-2.964-.57-2.653-1.254.233-2.052 2.472-.399 2.684 1.726.223 2.12-2.28.938-3.151-1.446-1.062-2.68 1.109-2.358 2.389.363 1.441 2.576 1.871 2.933.197.254-1.197-1.119-3.529-2.425-2.207-.969.984-.306 3.109 1.047 3.332 1.866.306 1.809-2.14 1-3.151-.43-.539-1.104-.979-1.798-.674-.705.311-1.032 1.182-1.099 1.897-.083.871.218 1.793.855 2.41.715.689 1.607.316 2.405-.016 1.705-.71 1.943-2.777.917-4.213-.948-1.332-3.063-1.586-4.156-.275-1.057 1.275-.653 4.317 1.13 4.768.704.176 1-.896.305-1.073zm28.368-3.249c-1.362.461-1.513 3.187-.735 4.203 1.047 1.368 3.233.378 4.114-.653 1.058-1.233 1.239-3.151.161-4.436-1.031-1.228-3.026-1.368-4.073-.088-1.021 1.244-1.145 3.757.181 4.856 1.488 1.228 3.14-.42 3.612-1.804.467-1.363.093-3.762-1.907-3.27-1.492.368-2.337 2.69-1.446 3.939 1.27 1.777 2.918-.829 2.877-2.115-.021-.699-.565-1.311-1.306-1.078-1.027.317-.985 1.887-1.12 2.716-.114.7.959 1 1.073.295.057-.336.352-1.155.243-1.471-.134-.394-.191.352-.336.549-.534.725-.695-.311-.534-.798.254-.757 1.456-1.373 1.59-.176.089.767-.502 2.373-1.414 2.492-1.575.202-1.228-2.492-.803-3.197.513-.855 1.668-.964 2.389-.27.674.653.756 1.768.352 2.581-.373.746-1.197 1.456-2.068 1.467-.637.005-.792-.503-.855-1.073-.036-.306-.036-1.477.3-1.591.675-.233.384-1.311-.294-1.078zm-14.619 7.66c.933 1.326 2.98 1.223 4.276.565.321-.161.036-.643-.28-.482-.99.502-2.768.689-3.514-.368-.202-.285-.684-.005-.482.285zm.498-30.503c1.554 6.327 10.287 8.981 15.92 9.716 3.462.451 6.939.322 10.39-.15 5.027-.689 10.013-1.886 14.9.171.326.14.611-.342.28-.482-6.484-2.736-13.267-.02-19.953.176-3.643.109-7.369-.295-10.841-1.44-3.954-1.301-9.074-3.742-10.157-8.142-.083-.342-.622-.197-.54.151z"/><path d="M62.981 106.183c1.047 4.197 6.37 6.472 10.344 6.503 6.773.052 15.09-3.213 21.388.259.316.172.595-.305.28-.481-4.504-2.478-9.847-1.343-14.719-.897-2.554.233-5.234.726-7.799.534-3.415-.254-8.064-2.472-8.96-6.069-.083-.342-.617-.197-.534.151zm9.333-2.281c1.187 2.908 3.825 4.074 6.83 4.436 4.768.576 9.733-.274 14.34 1.384.337.119.482-.414.15-.539-2.901-1.047-5.892-1.057-8.944-1.155-4.125-.13-9.924.388-11.831-4.276-.145-.326-.684-.181-.545.15zm6.816-2.871c2.352 4.022 8.187 6.038 12.535 4.136.327-.145.047-.622-.28-.482-4.078 1.783-9.597-.223-11.774-3.939-.181-.305-.663-.026-.482.285zm-57.126 15.387c5.1 2.808 12.148.347 17.154-1.483 3.125-1.145 5.928-2.912 9.033-4.099 2.223-.845 5.223-1.612 6.43-3.835.172-.316-.31-.596-.481-.28-1.456 2.68-5.576 3.208-8.1 4.328-2.394 1.062-4.555 2.441-7.032 3.347-4.882 1.788-11.764 4.271-16.724 1.54-.31-.171-.59.311-.28.482z"/><path d="M24.03 112.837c7.78 2.145 17.636-1.363 23.622-6.546.269-.233-.125-.627-.394-.394-5.81 5.033-15.542 8.479-23.077 6.401-.348-.094-.498.44-.15.539zm3.022-4.851c2.207.497 4.41.311 6.592-.254 2.026-.518 2.928-1.368 4.29-2.856.244-.264-.15-.658-.393-.393-1.254 1.368-2.208 2.243-4.042 2.715-2.084.534-4.183.731-6.297.254-.352-.078-.503.456-.15.534zm5.882 32.576c-.233 2.498-.43 5.955.736 8.297.87 1.752 3.12 2.343 4.866 2.819 5.975 1.628 12.645 1.674 18.796 2.109 5.343.379 11.925 1.255 16.884-1.311 4.955-2.56 5.012-6.939 4.98-11.929-.005-.716-1.119-.716-1.114 0 .016 2.43.4 5.327-.772 7.561-1.202 2.295-3.612 3.627-6.027 4.28-4.405 1.192-9.458.607-13.95.29-4.53-.321-9.07-.699-13.584-1.207-2.29-.259-5.845-.544-7.83-1.923-2.596-1.808-2.125-6.275-1.871-8.975.062-.721-1.047-.716-1.114-.011z"/><path d="M52.43 153.119c.005 1.612-.031 3.446 1.124 4.706 1.239 1.347 3.125 1.518 4.851 1.539 1.73.021 4.84.098 6.323-.959 1.414-1.01 1.036-3.052 1.114-4.597.026-.539-.809-.533-.835 0-.067 1.379.223 3.094-1.114 4.037-1.078.762-3.317.638-4.54.674-1.414.042-3.16.135-4.41-.643-1.767-1.098-1.668-3.016-1.674-4.757-.01-.534-.844-.534-.84 0zm-2.021-.005c.217 1.995-.296 3.938-2.545 4.369-1.13.217-2.69-.114-3.825-.223-1.684-.161-3.705-.031-4.54-1.835-.414-.891-.072-2.855.006-3.835.041-.534-.793-.534-.834 0-.114 1.436-.612 4.296.513 5.478 1.036 1.093 3.902.943 5.28 1.062 1.296.114 4.385.824 5.53-.026 1.342-.989 1.404-3.56 1.249-4.995-.057-.524-.891-.534-.834.005zm-18.169-51.57c-2.426 1.57-4.483 3.524-5.992 5.83l-.341-1.259c.352.135.73.202 1.098.207l1.736.011-1.109 1.446c-.876 1.14-1.767 2.269-2.617 3.43l-2.58 3.447-.441-1.4c.414.166.814.358 1.223.539l1.088.482-.7.824c-.72.85-1.41 1.726-2.067 2.633-.648.912-1.301 1.829-1.855 2.809-.57.969-1.058 1.985-1.514 3.011-.093.238-.243.564-.285.73-.015.12.005.14.202.218.192.062.373.026.664-.041.274-.057.648-.151 1.062.015l.404.161-.217.409c-.565 1.063-1.073 2.161-1.576 3.249a80.977 80.977 0 00-1.404 3.322l-1.322 3.343-.316.829c-.036.088-.041.166-.03.114a.365.365 0 00-.022-.166l-.026-.062-.015-.031-.078-.114.01.01c.016.016.073.094.047.052a.598.598 0 00-.186-.166c-.026-.02-.083-.036-.094-.046-.046-.016-.057-.016-.041-.016l.316-.031c.16-.015.363-.041.643-.026.264.016.689.109 1.03.41l.54.471-.239.7c-.72 2.119-1.404 4.249-2.176 6.343l-.575 1.575-.576 1.498c-.026.073-.02.093-.026.057-.005-.026-.005-.036-.02-.098l.015.046a.392.392 0 00-.026-.067c-.026-.057-.02-.047-.036-.067-.088-.109-.093-.063-.062-.057l.015.005h-.005c.037 0 .078-.005.063-.005a.578.578 0 00.16-.032 3.87 3.87 0 00.596-.274l2.026-1.094-.435 2.192a24.602 24.602 0 01-1.612 5.084 26.112 26.112 0 01-2.663 4.561l-.29-.71c1.057.383 2.217.518 3.389.466l.036.218c-1.156.357-2.415.414-3.654.233l-.6-.088.315-.622c.384-.757.747-1.513 1.063-2.291.316-.777.596-1.565.834-2.363a29.081 29.081 0 001.078-4.84l1.591 1.099c-.244.15-.523.331-.896.487-.374.15-.866.28-1.41.181-.513-.093-1.052-.331-1.451-.912-.047-.083-.083-.129-.14-.254l-.067-.16-.021-.057a1.756 1.756 0 01-.088-.514 2.58 2.58 0 01.098-.767c.12-.399.192-.58.285-.865l.27-.793.57-1.575c.746-2.11 1.59-4.177 2.4-6.266l.3 1.171c.114.099.233.104.197.099a2.064 2.064 0 00-.265 0c-.14.005-.321.031-.59.015a1.933 1.933 0 01-.488-.088 1.381 1.381 0 01-.3-.134 1.542 1.542 0 01-.368-.296c-.078-.093-.062-.077-.099-.119l-.01-.01-.072-.109-.006-.011-.01-.02-.041-.078c-.026-.052-.047-.109-.068-.166-.078-.223-.088-.44-.078-.617.026-.352.12-.57.197-.761l.384-.845a55.062 55.062 0 011.648-3.275 99.354 99.354 0 011.834-3.172c.622-1.047 1.286-2.073 1.928-3.104l.187.565c-.114-.068-.337-.062-.612-.016-.259.047-.658.109-1.01-.021a1.035 1.035 0 01-.524-.352.833.833 0 01-.14-.684c.114-.378.228-.56.342-.85.436-1.057.923-2.088 1.4-3.13.497-1.031.974-2.078 1.523-3.089a45.847 45.847 0 011.757-2.985l.389 1.306c-.425-.129-.855-.249-1.275-.394l-1.083-.378.642-1.021a42.285 42.285 0 012.54-3.596c.912-1.151 1.84-2.286 2.834-3.369l.627 1.456a4.828 4.828 0 01-1.663-.445l-.99-.462.643-.798c1.902-2.352 4.436-4.171 7.24-5.042l.108.207zM15.122 156.71c-.295 2.628-1.316 5.208-2.871 7.442l-.472-1.197c1.053.109 2.094.228 3.14.368.162.031.441.041.799.321.057.052.047.031.155.156l.032.036a1.298 1.298 0 01.274.933c-.03.331-.13.539-.223.725-.093.187-.202.337-.264.43-.3.446-.55.835-.819 1.28-1.031 1.737-1.819 3.597-2.461 5.509l-.25-.933c-.015 0 .027.047.188.094.165.057.362.093.704.202.322.109.659.29.938.591.14.155.28.352.363.616.088.265.078.591-.016.85-.222.56-.595.736-.782.871l-.565.368c-.363.238-.73.513-1.078.788-1.41 1.114-2.653 2.477-3.565 4.057l-.197-.513c.73.259 1.456.539 2.197.778l.498.16-.358.394a27.191 27.191 0 00-2.674 3.441 34.02 34.02 0 00-1.125 1.861c-.165.305-.378.658-.482.912-.13.274-.082.513-.062.44.01 0-.005-.015.068.042.072.067.191.124.357.399.016.036.01.005.052.098a1.18 1.18 0 01.098.534c-.01.207-.062.368-.114.508-.253.554-.456.751-.653 1.083l-1.217 1.835-1.244 1.819-.3.44a3.344 3.344 0 00-.177.332c-.114.223-.041.362-.088.181-.026-.052 0-.031-.078-.109.021.016.099.088.078.057-.01-.02-.047-.041-.047-.041.031.015.15.052.296.088.15.036.326.072.565.14.233.083.56.14.974.56.202.222.352.549.378.818l.016.202v.12l-.005.062c-.021.197-.052.28-.089.399a2.311 2.311 0 01-.228.466l-.15.244a19.95 19.95 0 00-.523.902 24.102 24.102 0 00-1.643 3.819l-.073.233c-.015.057-.015.062-.02.083 0 .01.005-.01-.006-.093a.785.785 0 00-.228-.41c-.041-.036-.072-.067-.114-.088.01.005-.176-.103-.093-.052l.005.006.016.01.031.016a.773.773 0 00-.187-.078c-.046-.011-.057-.016-.088-.016-.083-.005-.067 0 0-.01.068-.005.182-.026.373-.036.182 0 .514 0 .897.217a1.553 1.553 0 01.72.995c.073.384.01.643-.041.835-.057.191-.12.326-.176.44l-.114.233c-.14.301-.254.576-.363.892a9.58 9.58 0 00-.477 3.866l-.611-.814c.207.125.585.104.813-.041l1.788-1.156-.243 1.995a224.181 224.181 0 01-.84 6.105c-.078.534-.15.959-.109 1.404.037.436.145.819.404.97.083.041.114.067.26.088.051.005.14.015.233-.011.186-.036.394-.14.596-.274.404-.265.824-.622 1.332-.824l.098.197c-.41.269-.705.678-1.104 1.046a2.448 2.448 0 01-.725.493 1.313 1.313 0 01-.524.098 1.38 1.38 0 01-.487-.083c-.342-.119-.627-.394-.798-.673a2.69 2.69 0 01-.332-.871c-.124-.57-.103-1.176-.093-1.664.031-2.052.073-4.109.16-6.156l1.55.839a2.785 2.785 0 01-2.814.41l-.513-.202-.098-.612c-.26-1.606-.15-3.27.337-4.835.114-.384.27-.793.425-1.161l.119-.264c.026-.052.03-.083.026-.068 0 .016-.037.089-.006.291a.73.73 0 00.052.16c0 .026.14.233.11.187a.96.96 0 00.243.218c.223.124.362.114.362.114.01 0-.062.005-.176.02-.119.011-.285.037-.55.005a1.912 1.912 0 01-.222-.041 1.937 1.937 0 01-.321-.119l-.16-.093a1.63 1.63 0 01-.7-1.068 2.08 2.08 0 01-.01-.643c.02-.16.061-.337.098-.456l.093-.29a19.881 19.881 0 011.938-4.213c.192-.321.42-.674.627-.974.109-.156.223-.342.176-.239-.005.031-.015.031-.026.135v-.016l-.005.047v.016c0 .02 0 .041.005.067.016.088.073.249.161.326.16.151.13.073.016.047l-.498-.145c-.207-.062-.446-.13-.736-.29a2.589 2.589 0 01-.28-.187c-.098-.078-.088-.072-.134-.114a1.744 1.744 0 01-.405-.549 1.945 1.945 0 01-.14-1.14c.058-.322.156-.576.27-.798a3.93 3.93 0 01.378-.617l.353-.451 1.368-1.726 1.394-1.71c.218-.269.529-.617.59-.731.021-.031.027-.046.027-.02 0 .015.005.031.01.057 0 0 .01.041.031.072.026.047-.01-.026-.01-.026.16.166-.104-.051-.311-.373a1.444 1.444 0 01-.15-.974c.051-.275.15-.492.259-.689.228-.405.425-.658.642-.98.43-.611.876-1.207 1.342-1.788a56.471 56.471 0 012.892-3.384l.14.55c-.73-.27-1.472-.498-2.208-.747l-.399-.134.202-.379c.907-1.663 2.011-3.244 3.353-4.628.342-.347.684-.673 1.063-1l.554-.461c.182-.13.218-.249.146-.14-.058.104.02.254-.032.197-.052-.026-.134-.073-.259-.088-.103-.016-.373-.042-.658-.099-.285-.067-.694-.191-1.042-.523l-.383-.363.14-.57c.518-2.135 1.446-4.161 2.627-6.006.29-.451.617-.943.933-1.348l.171-.228c.031-.046.036-.082.031-.015 0 .036 0 .109.037.197.005.021.067.14.108.171l-.03-.042c.082.094.051.052.082.083.15.104.166.063.067.052a113.178 113.178 0 01-3.093-.627l-1.26-.275.783-.922a21.124 21.124 0 002.192-3.084c.648-1.098 1.182-2.269 1.648-3.492l.228.046z"/><path d="M5.934 217.261c2.321 1.767 4.482 3.752 6.52 5.861l-.757.078 1.046-1.97.27-.507.508.336 7.053 4.644-1.15.451a4.05 4.05 0 01.87-1.809l.435-.523.602.393c2.145 1.405 4.25 2.866 6.374 4.291l-1.43.742c-.016-.752.497-1.467 1.026-1.752a2.913 2.913 0 011.689-.404c.29.026.59.077.881.212.213.099.181.083.347.176.14.078.244.156.348.228.414.311.74.664 1.015 1.006.275.342.508.673.73.969.229.3.42.518.664.731.228.196.472.347.674.409a.839.839 0 00.28.047.12.12 0 00.062-.006h.047c.176-.041-.244.063-.197.047h.005l.036-.01.068-.026c.041-.016-.099.026-.13.052-.135.093-.16.134-.187.176-.088.171-.02.057-.02-.099.015-.16.015-.373.057-.658.051-.264.103-.731.606-1.161.12-.093.26-.165.394-.222.16-.052.02-.011.186-.058a1.22 1.22 0 01.265-.036c.3-.015.539.057.72.13.352.15.57.342.715.44l.477.358.948.71c1.265.948 2.54 1.886 3.794 2.855l-1.534.674.3-2.493.15-1.259 1.14.503c1.763.777 3.442 1.731 5.043 2.788l-1.181.404.373-.954.331-.855.762.431 5.639 3.192-.892.43.456-2.161.145-.674.607.254c2.135.897 4.177 1.985 6.136 3.203l-.607.254.405-1.607.145-.565.456.348 4.374 3.337-.544.238a7.15 7.15 0 00-.12-2.228l-.17-.793.694.435 2.87 1.809c.483.301.95.632 1.338.637.072.011.233-.025.233-.041a.498.498 0 00.176-.155.386.386 0 00.078-.192c0-.052-.005-.057-.026-.078l.55-.565c.538.493 1.077.969 1.673 1.26.15.072.3.134.451.176.145.046.327.072.44.083.218.01.28-.011.441-.042.14-.036.28-.088.41-.16.259-.14.476-.348.6-.576a.858.858 0 00.1-.337.788.788 0 00-.063-.342c-.083-.207-.306-.497-.539-.813a2.792 2.792 0 01-.332-.596 1.533 1.533 0 01-.072-.845l.098-.446.467.026c1.238.068 2.487.005 3.705-.191l-.529.653a4.465 4.465 0 00-1.482-2.882 4.21 4.21 0 00-.658-.477c-.233-.145-.56-.285-.912-.585-.378-.27-.637-.923-.679-1.208a1.263 1.263 0 00-.098-.285c.077.119-.078-.119-.063-.077.016.025.01.02-.01.01a.801.801 0 00-.41-.062 1.97 1.97 0 00-.637.155c-.477.192-1.062.606-1.933.783-.43.083-.974.062-1.45-.171-.535-.259-.85-.648-1.074-1.078a2.6 2.6 0 01-.28-1.405 2.275 2.275 0 01.664-1.44l.135 1.456c-.016.01.036.005-.063.021-.088.02-.248.103-.414.217a6.107 6.107 0 00-.544.441 4.26 4.26 0 01-.866.58c-.326.161-.71.311-1.223.311-.508.031-1.202-.311-1.477-.746-.337-.472-.399-.897-.456-1.197-.051-.311-.083-.581-.119-.721-.015-.051-.041-.093.005-.015.026.072.208.171.27.186.248.021.202-.036-.114.13-.296.114-.249.104-.503.176-.228.062-.45.099-.632.109a3.57 3.57 0 01-1.13-.098 4.001 4.001 0 01-1.892-1.078 3.48 3.48 0 01-1-2.063l2.032.389c-.358.71-1.052 1.124-1.648 1.269a3.257 3.257 0 01-.912.109c-.28 0-.643-.062-.855-.124a5.358 5.358 0 01-.752-.27 11.79 11.79 0 01-.622-.3l-.539-.28a7.555 7.555 0 00-.497-.228c-.606-.254-1.327-.42-2.052-.492a13.693 13.693 0 00-2.27-.031l-1.208.072-.015-1.233a11.166 11.166 0 01.824-4.369l1.337 1.601c-2.716.555-5.56.399-8.194-.461l-2.415-.788 2.13-1.342c.39-.243.705-.637.866-1.073l.98 1.56-8.09-.917-2.97-.337 2.415-1.663c.565-.389.918-1.244.783-1.939l1.238.83a18.88 18.88 0 01-9.24-.684l-.45-.151-.14-.425L25.268 209l-.295-.912.907-.187 1.927-.404-.051 1.555a26.897 26.897 0 01-6.162-2.97c-.187-.119-.394-.248-.622-.45-.218-.187-.472-.519-.534-.876a1.213 1.213 0 01-.03-.28c-.006-.13.015-.218.035-.316.047-.197.135-.363.234-.508a2.12 2.12 0 01.694-.586c.482-.259.97-.388 1.482-.445l-.306.891c-2.617-2.793-4.498-6.24-5.363-9.903l.212-.063a23.322 23.322 0 002.39 4.996 22.518 22.518 0 003.503 4.224l.767.725-1.073.171a2.97 2.97 0 00-1.042.368.989.989 0 00-.31.28.261.261 0 00-.037.093c0 .011-.005.031 0 .016 0-.016-.016-.026.01.052.016.083.057.124.176.223.114.093.285.191.482.3a25.893 25.893 0 005.97 2.503l2.897.804-2.948.751-1.907.487.611-1.099 1.508 4.193-.59-.58a16.93 16.93 0 008.28.352l1.022-.218.217 1.042a4.18 4.18 0 01-1.518 4.146l-.555-2.001 8.105.798 1.483.146-.503 1.414a4.518 4.518 0 01-1.778 2.275l-.28-2.13c2.24.726 4.675.871 6.986.405l2.156-.441-.819 2.042a9.625 9.625 0 00-.689 3.477l-1.223-1.16a16.177 16.177 0 012.648.088c.907.114 1.799.321 2.706.72.17.078.435.202.616.301l.55.3c.17.093.331.176.482.249.14.067.31.129.399.155.18.052.227.057.357.068.109.005.218-.005.311-.026.192-.047.254-.114.275-.145l1.865-2.913.161 3.301c.026.524.586 1.156 1.26 1.317.16.041.326.067.476.052.088 0 .13-.016.166-.016.01.016.31-.104.264-.083.094-.041.244-.119.472-.197.114-.036.254-.072.425-.088.067-.005.197-.01.295 0l.104.016.13.025c.331.052.74.337.922.617.212.296.259.518.316.726.083.383.098.658.135.876.03.228.083.347.067.316.026.015-.13-.063-.093-.037.026.011.176-.015.331-.088.171-.077.306-.16.482-.305.187-.156.462-.379.731-.55.285-.176.606-.357 1.047-.456.425-.109 1.052-.052 1.492.254l.98.674-.845.782c-.052.047-.098.12-.119.254-.02.13.01.306.072.441a.669.669 0 00.218.274c.094.057.218.078.41.052.393-.046.906-.342 1.601-.627a3.51 3.51 0 011.218-.238c.425-.005.933.078 1.399.42.109.082.223.186.337.336.114.166.052.057.197.322.114.248.155.461.192.616.077.337.057.311.18.451.12.125.374.27.675.467a5.817 5.817 0 012.596 4.519l.031.59-.56.068a18.44 18.44 0 01-3.964.041l.565-.414c-.047.124.015.337.207.627.181.295.435.585.617 1.078.072.197.114.497.088.746a1.923 1.923 0 01-.239.71c-.253.415-.611.71-1.01.907-.197.098-.41.171-.632.218a2.29 2.29 0 01-.664.036 3.35 3.35 0 01-.647-.13 3.521 3.521 0 01-.576-.233c-.736-.373-1.306-.912-1.845-1.42l.55-.565c.181.176.27.467.243.695-.02.233-.114.425-.233.585-.12.161-.275.296-.466.389-.26.114-.384.109-.596.109-.767-.062-1.239-.498-1.705-.778l-2.845-1.855.518-.357a8.73 8.73 0 01.13 2.43l-.052.606-.493-.362-4.42-3.276.6-.217-.352 1.617-.119.544-.487-.29c-1.943-1.151-4.006-2.094-6.12-2.861l.751-.42-.347 2.203-.13.813-.761-.383-5.794-2.902 1.099-.42-.327.974-.311.928-.87-.524c-1.57-.943-3.23-1.741-4.913-2.435l1.29-.757-.233 2.503-.156 1.658-1.378-.984c-1.285-.923-2.555-1.871-3.83-2.809l-.953-.705c-.286-.207-.747-.559-.762-.549-.037.015.28.052.435-.093.192-.177.135-.228.124-.109-.02.109-.026.29-.046.523-.037.233-.01.534-.316 1.037a1.261 1.261 0 01-.394.388 1.6 1.6 0 01-.254.135l-.073.026-.036.01-.207.052h-.016l-.031.005-.114.011c-.078.005-.155.01-.233.005-.311 0-.612-.062-.886-.15-.55-.187-.98-.493-1.343-.814a6.768 6.768 0 01-.922-1.031l-.684-.933a3.7 3.7 0 00-.653-.674l-.145-.098c0-.011-.213-.114-.176-.099a.886.886 0 00-.265-.067 1.087 1.087 0 00-.59.109c-.161.093-.146.124-.166.171l-.612 1.337-.819-.591c-2.078-1.503-4.171-2.975-6.229-4.498l1.042-.13a2.555 2.555 0 00-.596 1.104l-.275 1.088-.876-.637-6.825-4.975.783-.176-1.182 1.891-.352.565-.404-.487c-1.84-2.229-3.856-4.312-5.965-6.317l.145-.166zm5.218 6.183c-.01.357-.108.735-.248 1.072a7.546 7.546 0 01-.493.959c-.342.591-.679 1.145-.98 1.726-.33.559-.6 1.15-.9 1.715l-.815 1.747-.647-1.332a7.21 7.21 0 001.663.368c.586.057 1.208.026 1.798-.156l.405.85a2.005 2.005 0 00-.871.612c-.244.29-.41.653-.534 1.036-.264.762-.3 1.596-.352 2.451-.042.85-.057 1.71-.109 2.56-.041.85-.15 1.69-.244 2.535l-1.56-1.094c1.353-.814 2.706-1.643 4.13-2.337l3.654-1.783-2.114 3.436c-.347.56-.663 1.14-.959 1.741a17.584 17.584 0 00-.762 1.876 20.536 20.536 0 00-.57 1.995c-.16.685-.28 1.389-.393 2.12l-.223.021c-.524-1.415-.648-2.965-.498-4.498a11.918 11.918 0 011.368-4.437l1.545 1.654c-1.327.767-2.721 1.399-4.12 2.041l-2.042.944.482-2.037c.197-.824.378-1.653.622-2.467.238-.819.513-1.627.762-2.446.243-.808.45-1.658.751-2.498a6.54 6.54 0 01.601-1.228 3.478 3.478 0 011.026-1.036l.405.849a6.9 6.9 0 01-2.068.84 5.348 5.348 0 01-2.312-.005l-1.041-.228.394-1.099c.238-.668.58-1.301.943-1.912.352-.617.782-1.187 1.223-1.736.233-.27.471-.529.715-.783.244-.259.513-.482.767-.71.254-.223.513-.425.741-.653.238-.223.456-.451.653-.736l.207.063zM85.172 96.16a360.11 360.11 0 015.032 3.918c1.663 1.316 3.348 2.617 5 3.948l.85.685-1.077.279-3.348.866.378-.969 5.25 7.359.824 1.155-1.695.109c-.046.005-.046.011-.072.016-.026.005-.078.057-.13.134a1.077 1.077 0 00-.166.648.79.79 0 00.068.28c.005.01.026.057.015.031l.083.13c.052.067.057.072.114.14.187.212.451.404.767.58.311.181.674.347 1.057.539.182.088.41.202.591.306.233.135.425.264.627.409.394.301.778.664 1.083 1.151.311.476.503 1.145.415 1.803l-.124.891-.85-.072c-.161-.016-.415.145-.58.544-.161.399-.151.752.025 1.223.182.467.508.954.897 1.472.388.518.819 1.119 1.166 1.731a14.599 14.599 0 011.591 3.933c.145.643.378 1.472.15 2.436-.109.461-.409 1.114-1.093 1.441-.078.041-.161.067-.239.093l-.062.021-.098.026-.063.01c-.031.01-.171.026-.254.036l-.202.005c-.248-.005-.435-.031-.575-.041-.14-.016-.212-.005-.171-.01a.515.515 0 00.104-.052c.041-.037.036-.026.098-.109.057-.171-.015.036.042.337l.228 1.974.44 3.954.84 7.914.015.124-.021.088a1.329 1.329 0 01-.399.721 1.7 1.7 0 01-.564.336c-.342.125-.612.166-.84.228-.223.057-.399.13-.45.182l-.022.015c.037-.062-.02.031-.03.037-.006.015.005-.011-.016.026a.471.471 0 00-.031.181c-.01.321.176.896.295 1.41l.394 1.549 1.586 6.203.057.223-.14.161a2.022 2.022 0 01-2.15.591l.491-.498 1.498 4.498c.508 1.498.995 3.001 1.524 4.488l.186.524-.559-.073-2.364-.316.4-.44 1.352 5.291c.114.445.223.912.259 1.409.016.249.016.503-.015.762a2.78 2.78 0 01-.218.783 2.315 2.315 0 01-.207.362 2.328 2.328 0 01-.28.317 2.188 2.188 0 01-.705.45c-.264.109-.56.171-.876.14a1.507 1.507 0 01-.88-.383l.766-.43c.493 2.228.498 4.565.005 6.814l-.155.721-.679-.332-3.063-1.498-.767-.373-.74-.352c-.218-.093-.436-.156-.576-.156-.15.006-.13.021-.171.063-.01.005-.083.186-.12.445-.03.145-.035.254-.103.493-.041.14-.062.254-.155.461-.16.399-.353.658-.586.948a4.22 4.22 0 01-2.762 1.41 3.705 3.705 0 01-2.14-.451l1.29-.622c-.145 1.068-.808 1.949-1.68 2.462a3.269 3.269 0 01-2.234.43c-.211-.031-.382-.062-.496-.068-.057-.005-.104 0-.135 0h-.01c.078-.01 0 0 .01 0l-.073.011c-.056.01-.015.01-.03.01a1.252 1.252 0 00-.27.14c-.228.145-.498.394-.865.663l-.146.104-.165.104a2.818 2.818 0 01-1.285.363 2.142 2.142 0 01-1.016-.213 1.731 1.731 0 01-.86-.979l1.922-.389c.026.368-.01.741-.109 1.099-.109.352-.27.673-.471.958-.41.565-.938.975-1.53 1.249-.59.275-1.243.42-1.943.373a3.589 3.589 0 01-1.046-.254 3.396 3.396 0 01-.928-.627l1.695-1.14c.176.404.222.918.108 1.348a2.53 2.53 0 01-.565 1.046c-.481.539-1.041.845-1.663 1.047-.306.099-.694.14-.912.156-.3.021-.534.021-.783.021-.476 0-.891.005-1.212.062a1.824 1.824 0 00-.41.119c-.098.041-.207.124-.544.316-.16.083-.383.187-.674.233l-.108.016-.057.005h-.146l-.088-.005a2.002 2.002 0 01-.471-.094c-.555-.202-.819-.518-1.01-.715-.193-.212-.322-.362-.405-.435-.041-.031-.062-.052-.057-.041.026.01-.052-.026.062.025l-.083-.031c-.041-.015-.041-.01-.01 0a.504.504 0 00.057.016c.073-.016-.239.047-.627.28-.218.109-.389.217-.746.368-.104.041-.208.083-.405.145a5.477 5.477 0 01-.471.114 5.909 5.909 0 01-1.731.026c-1.078-.14-1.933-.373-2.856-.555-.907-.192-1.886-.404-2.87-.782-.98-.373-2.022-.969-2.784-1.923l-1.114-1.394 1.716-.492 1.28-.368.103 2.311c-.922-.176-1.684-.72-2.192-1.41-.508-.689-.803-1.575-.7-2.513l.11-.959.968-.093a8.72 8.72 0 012.353.104l-1.321.793c-.031.098.01.088-.052-.089-.057-.171-.187-.419-.321-.761-.12-.327-.342-.824-.192-1.55.062-.332.28-.694.44-.865.337-.379.617-.493.944-.596.627-.166 1.078-.068 1.466.02.389.099.72.234 1.042.389.243.114.534.259.762.353.233.103.497.207.746.305a16.352 16.352 0 006.431 1l-.995 1.089-.026-2.737-.015-1.689 1.487.746a13.57 13.57 0 004.307 1.317c.689.108 1.746.124 1.684.057l-.005.005c.01-.016-.094.124-.047.062l.02-.031.042-.062c.052-.073-.015.005-.015.02l-.005.021c.01-.015.015-.114-.01-.259-.037-.301-.188-.715-.218-1.306a2.55 2.55 0 01.025-.477c.026-.109.01-.119.073-.305l.052-.14c.16-.389.42-.679.689-.876.565-.389 1.125-.461 1.622-.487a5.19 5.19 0 011.436.166c.425.119.72.191 1.083.243.337.047.653.042.87-.021.218-.088.28-.098.41-.383a1.757 1.757 0 00-.042-.726c-.072-.352-.207-.746-.285-1.223-.088-.445-.067-1.104.202-1.585.296-.586.83-.907 1.312-1.063.974-.29 1.84-.186 2.658-.119.663.067 1.446-.083 1.933-.441.477-.373.461-.72-.088-1.445-.244-.363-.529-.897-.3-1.519.212-.539.642-.85 1.077-1.031.944-.358 1.809-.057 2.55-.052.762.031 1.467-.249 2.073-.731.59-.482 1.031-1.176 1.15-1.948l.223.026c-.067.844-.482 1.642-1.098 2.233-.602.591-1.483.985-2.348 1-.855.021-1.669-.15-2.254.146-.296.139-.544.388-.607.621-.02.063-.015.114-.02.146.01.124.01.119.036.196.036.12.13.249.238.4.114.15.249.31.384.518a1.835 1.835 0 01.285.756c.093.596-.264 1.203-.663 1.498-.809.627-1.726.803-2.664.777-.783-.041-1.58-.051-2.156.166-.28.099-.466.28-.529.425-.114.244-.109.441-.041.783.067.321.202.694.321 1.129.104.451.249.928.01 1.669l-.056.145-.032.073c-.077.15-.057.098-.093.161a1.936 1.936 0 01-.3.383 2.262 2.262 0 01-.799.492c-.56.192-1.067.187-1.533.156a9.478 9.478 0 01-1.301-.223 3.681 3.681 0 00-.975-.083c-.305.016-.575.104-.673.187-.057.046-.057.077-.063.057l-.046.145c.026-.094.005 0 .01-.011 0 .031-.005.073 0 .13.01.228.13.58.228 1.078.042.249.088.56.01.943-.025.104-.036.176-.093.311-.041.104-.14.285-.15.29l-.041.062-.021.031-.073.094-.026.031c-.067.078-.145.15-.222.217-.684.514-1.306.472-1.757.482a17.82 17.82 0 01-1.296-.077 15.67 15.67 0 01-4.98-1.368l1.472-.949.103 2.731.037 1.006-1.032.083a17.503 17.503 0 01-7.353-.99c-.296-.109-.58-.213-.881-.347-.317-.13-.55-.244-.835-.374a3.16 3.16 0 00-.6-.217c-.177-.052-.327-.031-.265-.031.047-.026.057.005.202-.151-.036.047.036-.057.041-.098.016-.145-.01-.057.088.15.083.202.228.472.368.85.135.368.29.969.078 1.627l-.306.959-1.015-.166a7.216 7.216 0 00-1.736-.062l1.078-1.052c-.032.249.051.57.248.829.192.265.472.446.72.487l5.074.897-4.97 1.415-1.28.362.601-1.886c.41.513 1.032.907 1.788 1.197.757.296 1.612.482 2.524.695.902.197 1.855.45 2.633.559.394.052.756.063 1.062.011a2.31 2.31 0 00.207-.042c.026 0 .14-.041.254-.088.068-.026.311-.145.508-.249.425-.186 1-.596 2.016-.487l.228.052c.088.026.145.042.156.047l.082.031c.172.067.14.067.218.103.213.114.373.244.508.368.26.244.425.462.544.591.12.145.197.171.088.125 0-.016-.223-.032-.13-.021l.089.005h-.114l-.02.005c-.058.011-.058.021-.016 0 .072-.031.347-.223.678-.368.317-.134.633-.217.933-.264.601-.093 1.125-.073 1.58-.073.224.006.457 0 .623-.005.249-.015.326-.026.466-.062.264-.078.55-.238.69-.404.15-.197.108-.166.113-.187l.871-1.876.83.736c.087.078.18.145.284.202a1.9 1.9 0 00.379.099c.285.026.621-.031.927-.166a1.88 1.88 0 00.746-.581c.083-.119.14-.238.187-.352.031-.119.047-.238.047-.363l1.922-.388c-.01-.052-.098-.146-.124-.146-.031-.01.016.016.093.016.073 0 .171-.016.26-.041.062-.026.046-.011.098-.037l.062-.036c-.005.005.057-.031-.005.005l.02-.015.094-.057c.254-.171.55-.436.969-.695.212-.129.456-.254.762-.342a1.62 1.62 0 01.249-.052l.072-.01.14-.016a2.95 2.95 0 01.435.006c.265.026.472.072.633.098.155.026.264.036.373.031a1.53 1.53 0 00.689-.197c.45-.243.793-.699.865-1.15l.208-1.301 1.083.679c.632.399 1.617.342 2.358-.124.186-.109.352-.249.497-.4.13-.145.285-.347.337-.476.042-.042.088-.208.13-.337.015-.031.052-.207.083-.342.072-.29.13-.689.492-1.12.326-.399.948-.575 1.358-.513.43.042.756.177 1.052.317.3.145.523.279.782.414l.752.404 3 1.622-.84.384a14.87 14.87 0 00.229-6.359l-.285-1.544 1.052 1.114c.171.181.476.223.808.104a1.475 1.475 0 00.632-.451.893.893 0 00.135-.228c.062-.14.125-.342.15-.529a3.22 3.22 0 00.021-.601c-.026-.415-.114-.84-.217-1.275l-1.281-5.307-.124-.518.524.078 2.363.347-.373.451c-.493-1.503-1.027-2.99-1.54-4.483l-1.57-4.472-.259-.736.751.244c.436.14.995-.031 1.27-.384l-.083.378-1.834-6.135-.462-1.534-.233-.767c-.078-.27-.166-.57-.181-.938-.005-.187.01-.394.083-.607.026-.093.093-.233.16-.337.037-.046 0-.015.088-.124l.12-.13c.337-.326.689-.424.969-.523.285-.088.544-.145.699-.218.187-.093.094-.072.094-.041l-.005.212-1.192-7.866-.576-3.934-.28-1.969c-.02-.342-.191-.845.208-1.607a1.53 1.53 0 01.435-.466c.171-.124.373-.212.555-.254.362-.088.627-.062.818-.047.192.016.337.032.415.032h.047s-.057.015-.011 0l.062-.016.016-.005c-.098.026-.031.005-.052.01 0 0-.005.005-.01.005-.062.037-.026.047.021-.124.093-.347 0-.855-.161-1.487a14.08 14.08 0 00-1.373-3.421 15.767 15.767 0 00-1.037-1.575c-.389-.549-.824-1.166-1.12-1.944-.31-.761-.367-1.829.022-2.653a3.06 3.06 0 01.86-1.161 2.365 2.365 0 011.554-.523l-.974.819c.02-.177-.01-.353-.14-.581a2.547 2.547 0 00-.606-.663 5.778 5.778 0 00-.404-.285 8.803 8.803 0 00-.508-.28c-.358-.187-.746-.378-1.15-.622-.4-.243-.82-.544-1.177-.959a3.436 3.436 0 01-.264-.352l-.083-.135c-.068-.109-.083-.16-.125-.243a2.414 2.414 0 01-.212-.928 2.736 2.736 0 01.508-1.705c.186-.259.44-.508.803-.668a1.784 1.784 0 011.145-.104l-.87 1.264-4.929-7.576-.508-.778.881-.186 3.384-.72-.228.963c-1.596-1.399-3.16-2.839-4.747-4.254a411.403 411.403 0 01-4.715-4.291l.15-.202z"/><path d="M100.729 178.217a64.573 64.573 0 011.488 2.42c.487.808.979 1.617 1.44 2.441a159.58 159.58 0 012.731 4.954l.42.788-.85.394c-1.192.554-2.555.762-3.871.528l1.057-1.311c.674 1.55 1.353 3.094 1.985 4.659.326.777.612 1.576.917 2.363l.223.617c.088.269.145.513.181.808.026.296.042.617-.098 1.011-.104.389-.544.803-.845.897-.487.186-.73.129-1 .124l-.611-.073c-.161-.02-.197.021-.099-.067.052-.057.005-.155.016-.026.005.099.088.327.15.529l.187.606.378 1.213a101.694 101.694 0 001.643 4.793l.057.151-.078.14c-.197.352-.617.554-.948.58-.342.041-.653 0-.949-.057-.29-.052-.596-.161-.793-.171a1.6 1.6 0 00-.689.062c-.207.073-.321.182-.321.275-.026.119.046.243.202.523l.85 1.462 3.436 5.819.585.985-1.202.218-1.829.331-.913.161-.456.078c-.119.005-.145.083.073-.068a.557.557 0 00.145-.181c.067-.145-.015.047.042-.093.025-.083.025-.088.031-.13.015-.135 0-.186 0-.186l.15.326.383.845.762 1.694c1.006 2.26 2.047 4.509 3.022 6.779l.699 1.627-1.777.021c-1.793.021-3.597-.264-5.281-.891l1.456-1.529c1.265 3.249 2.441 6.535 3.597 9.831l.476 1.352-1.347-.212-4.535-.715.513-.871c.472.793.907 1.601 1.353 2.41.446.808.891 1.611 1.316 2.435l-.186.125c-.591-.71-1.161-1.436-1.731-2.161-.57-.726-1.145-1.446-1.695-2.187l-.673-.912 1.186.046 4.639.177-.871 1.14c-1.441-3.177-2.866-6.364-4.203-9.588l-.948-2.29 2.404.762c1.451.461 2.975.72 4.499.71l-1.078 1.648c-.959-2.281-1.851-4.587-2.783-6.883l-.69-1.72-.342-.86c-.062-.166-.098-.228-.197-.529a1.528 1.528 0 01-.057-.643c.011-.083.021-.124.057-.243.068-.176 0-.016.089-.197.077-.14.181-.27.29-.358.461-.352.762-.321.938-.362l.461-.047.922-.093 1.851-.171-.622 1.202-2.825-6.141-.72-1.529c-.057-.124-.135-.254-.192-.435a1.13 1.13 0 01-.036-.632c.109-.488.549-.721.865-.809.337-.088.664-.104.985-.062.363.047.586.15.85.197.254.057.513.088.725.062.228-.021.358-.114.441-.254l-.026.29a97.125 97.125 0 00-1.933-4.685l-.518-1.16-.259-.581c-.083-.197-.177-.357-.27-.668-.098-.275-.093-.845.264-1.208.4-.404.835-.394 1.078-.414h.653c.151.005.337-.057.244-.037.093-.067-.031.016-.016-.005 0-.01-.005-.119-.036-.238a2.368 2.368 0 00-.15-.415l-.259-.554c-.347-.773-.71-1.534-1.037-2.312a168.057 168.057 0 01-1.928-4.685l-.658-1.642 1.716.331c.927.182 1.933.12 2.834-.238l-.435 1.182a171.524 171.524 0 01-2.249-5.193 96.212 96.212 0 01-1.052-2.633 68.98 68.98 0 01-1-2.658l.212-.109zm-74.024-17.884c-.005.938.02 1.865.036 2.793.026.922.098 1.845.176 2.762l-.55-.42c1.498-.362 2.944-.891 4.385-1.446l.487-.186.114.451.596 2.353c.104.393.192.787.306 1.176l.16.575c.068.176.1.202.223.171.27-.109.591-.477.913-.705.32-.254.663-.487 1.01-.704a11.49 11.49 0 012.218-1.109l.352-.13.068.409c.13.793.342 1.565.606 2.317.135.373.296.736.467 1.093.083.177.176.353.27.529.087.181.18.28.175.259-.02-.015.01.005.14-.052.114-.046.28-.155.456-.264.322-.202.648-.435.949-.679.616-.477 1.166-1.036 1.674-1.627l1.062-1.239-.02 1.602a4.032 4.032 0 00.507 1.969c.166.306.373.591.617.839.233.244.575.508.668.498.094.01.16-.01.285-.088.114-.083.233-.207.353-.347.233-.301.502-.638.803-.918a5.58 5.58 0 012.078-1.233l.047.104a6.344 6.344 0 00-1.72 1.508c-.24.29-.426.601-.628.953a2.542 2.542 0 01-.42.539c-.17.171-.482.347-.782.342-.358.005-.607-.14-.803-.264a4.997 4.997 0 01-.529-.399 5.063 5.063 0 01-.86-.99 4.746 4.746 0 01-.783-2.508l1.042.368a10.215 10.215 0 01-1.866 1.824c-.352.259-.71.492-1.099.715-.18.099-.362.213-.637.316-.243.093-.668.182-1.057-.046-.373-.234-.477-.529-.57-.71-.093-.197-.187-.389-.265-.591-.165-.399-.3-.809-.414-1.223a10.529 10.529 0 01-.389-2.534l.42.279a9.306 9.306 0 00-2.208.84 9.674 9.674 0 00-1 .637c-.16.12-.316.234-.471.363-.15.125-.29.29-.545.389a.49.49 0 01-.445-.042c-.14-.098-.192-.233-.239-.331l-.212-.576c-.135-.383-.29-.756-.44-1.129l-.892-2.26.601.265c-1.42.767-2.98 1.243-4.56 1.539l-.534.098-.016-.518a22.55 22.55 0 01.11-2.835c.077-.938.248-1.871.476-2.783l.104.011zm60.949-5.296c.135.782.228 1.57.327 2.352l.243 2.358.047.591c.01.182.046.425-.016.721a.939.939 0 01-.285.497c-.17.161-.44.212-.622.192-.357-.052-.46-.125-.673-.176a63.044 63.044 0 01-2.25-.726l.602-.269c-.228.476-.285 1.145-.482 1.834-.099.342-.249.726-.54 1.031a1.554 1.554 0 01-1.103.488c-.803-.016-1.425-.457-1.918-.918-.492-.451-.953-.948-1.523-1.155-.239-.094-.327.077-.358.388-.005.275.021.669.031.98l.094 1.99c.015.347.041.627.041 1.036-.01.104-.015.228-.088.379a.893.893 0 01-.16.228c-.047.041-.063.057-.14.103 0 0-.052.031-.125.057-.42.109-.637-.057-.793-.103l-1.834-.778-1.809-.788c-.228-.114-.508-.062-.383-.082.041-.021.041-.083.036.015-.005.078.01.27.015.435l.052 1.001c.005.362.031.787-.243 1.29-.13.244-.451.492-.684.549-.379.114-.648.042-.887-.046-.45-.187-.74-.477-.974-.715l-1.394-1.426c-.202-.222-.58-.559-.44-.471.077-.026.015-.031-.032.052a.505.505 0 00-.077.269c0 .254.145.606.072 1.068a.969.969 0 01-.368.596 1.084 1.084 0 01-.606.207c-.41.026-.798-.181-1.036-.441-.254-.259-.415-.559-.57-.855l.093-.062c.404.503.927 1.031 1.461.881.27-.072.404-.192.415-.409.015-.213-.125-.493-.202-.897-.037-.249 0-.471.093-.699.093-.213.28-.503.7-.555.383-.036.663.228.761.321l.373.327 1.503 1.311c.244.218.456.384.627.446.068.031.145.005.088.02.083-.036.037-.015.073-.057.124-.191.047-1 .026-1.637-.005-.171-.026-.306-.01-.56.005-.228.124-.637.435-.86.316-.233.658-.239.891-.207.249.031.44.098.632.181l1.81.881 1.777.896c.14.083.243.089.16.099-.109.057-.062.109-.036-.036.031-.254.047-.643.067-.954l.12-1.99.051-1.01c.026-.182.057-.389.223-.576.171-.202.493-.207.664-.124.678.295 1.14.814 1.637 1.228.477.415 1.094.715 1.643.638.555-.083.819-.545.902-1.146.093-.601.067-1.295.362-2.052l.161-.409.446.14c.751.233 1.503.482 2.244.746.17.057.425.15.461.15-.02-.026-.13.124-.067.026.03-.093.036-.244.03-.456l-.004-.591.03-2.368c.027-.793.052-1.581.12-2.374l.093-.02zm3.545-27.68s.067.254.223.674c.145.425.414 1.011.751 1.705.337.695.788 1.482 1.182 2.384.197.451.388.928.528 1.436.016.062.042.114.052.228a.451.451 0 01-.16.409c-.28.181-.462.088-.586.088l-.777-.13a16.405 16.405 0 01-3.571-1.14s.036-.051-.026.042c-.036.093-.072.181-.093.28-.088.394-.062.824-.104 1.223-.036.186-.01.425-.238.611-.223.135-.404.093-.56.104a2.993 2.993 0 01-.83-.13c-.44-.134-.657-.29-.657-.29s.238.109.684.181c.217.037.492.057.793.026.15-.015.331-.036.404-.108.067-.047.078-.234.088-.42.015-.373-.052-.793.02-1.28.022-.125.052-.249.094-.368a.537.537 0 01.15-.228.412.412 0 01.342-.099c.337.088.467.171.72.254a19.75 19.75 0 002.887.793l.752.135c.124.036.228 0 .166.031-.047.036-.037.083-.037.067 0-.015-.02-.083-.036-.145a12.127 12.127 0 00-.461-1.389l-1.016-2.446c-.586-1.446-.684-2.498-.684-2.498zm-67.935 4.359c.067-.047-.031-.114-.073-.104-.031-.005-.015.099-.02.156l-.037.388a10.02 10.02 0 01-.109.783 15.33 15.33 0 01-.378 1.529c-.3 1.01-.715 1.974-1.16 2.917l-.255-.394a13.699 13.699 0 003.172-.435l.388-.104c.14-.036.239-.077.41-.119.264-.036.43.125.518.264.088.146.124.301.14.457.026.331-.155.59-.254.829-.104.243-.197.508-.078.767-.186-.223-.14-.555-.067-.814.067-.275.181-.523.12-.751a.756.756 0 00-.125-.311c-.057-.088-.15-.104-.166-.099-.093.026-.249.104-.368.145l-.389.145a10.593 10.593 0 01-3.29.576l-.451.005.197-.404c.45-.928.875-1.866 1.264-2.82.192-.476.363-.963.518-1.456.083-.243.156-.492.223-.741l.093-.378c.037-.052-.01-.145.104-.182.073.011.155.114.073.151zm-15.06 69.448s.16.767.337 1.928c.046.285.082.622.14.922.062.296.222.622.404.679.062.011.057.021.155.005a.36.36 0 00.12-.067c.093-.078.176-.218.248-.368.13-.311.254-.715.384-1.073.134-.368.27-.73.399-1.093.13-.342.248-.757.575-1.083.15-.161.45-.306.71-.218.27.078.41.28.502.436.177.331.28.601.41.875.477 1.073.751 1.809.751 1.809s-.435-.653-1.03-1.664c-.146-.243-.307-.549-.473-.798-.191-.254-.342-.279-.523-.093-.197.202-.285.549-.415.923-.124.362-.253.73-.383 1.098-.145.373-.249.715-.42 1.114-.093.192-.207.389-.414.55a.8.8 0 01-.772.114c-.519-.259-.565-.731-.628-1.063-.036-.368-.036-.663-.051-.958-.042-1.187-.026-1.975-.026-1.975zm22.988-7.763l.814 2.69.384 1.353c.062.228.124.44.238.564.12.114.223.114.389.006.16-.104.362-.275.533-.415l.534-.44a19.79 19.79 0 002.887-2.985l.14-.177.202.109c.544.285.88.793 1.104 1.28.233.498.362 1.006.539 1.472.176.456.404.902.756 1.176.353.275.835.415 1.218.27.394-.135.596-.627.949-1.057.191-.228.42-.389.689-.498.264-.103.544-.135.819-.124.549.026 1.062.259 1.482.57.43.311.782.689 1.13 1.067-.394-.336-.783-.678-1.213-.943-.43-.264-.918-.43-1.405-.414a1.723 1.723 0 00-.694.145 1.329 1.329 0 00-.534.425c-.145.186-.259.414-.41.642-.144.228-.352.467-.647.596-.59.265-1.233.052-1.684-.29-.477-.363-.736-.881-.938-1.373-.197-.498-.337-.99-.55-1.425-.212-.436-.492-.819-.875-1.032l.342-.072a21.01 21.01 0 01-1.939 2.078 23.5 23.5 0 01-1.072.933c-.182.15-.373.295-.565.435-.202.14-.363.269-.601.415a.81.81 0 01-.456.114.626.626 0 01-.425-.234c-.187-.238-.228-.502-.285-.725l-.306-1.373-.55-2.763z"/></g><defs><clipPath id="clip0_465_9559"><path fill="#fff" transform="translate(0 25.001)" d="M0 0h270v220.56H0z"/></clipPath></defs></svg>