<svg width="48" height="48" fill="none" xmlns="http://www.w3.org/2000/svg"><g clip-path="url(#clip0_586_45121)" fill="#2F74C8"><path d="M44 0H4a4 4 0 00-4 4v30a4 4 0 004 4h25v-2H4a2 2 0 01-2-2V4a2 2 0 012-2h40a2 2 0 012 2v17h2V4a4 4 0 00-4-4zM10 46a1 1 0 110-2h19v-2H10a3 3 0 100 6h20v-2H10z"/><path d="M29 36H18a1 1 0 00-1 1v6a1 1 0 001 1h11a1 1 0 001-1v-6a1 1 0 00-1-1zm-1 6h-9v-4h9v4zm-2-12H0v2h26v-2zm-3 3h-6v2h6v-2zm7 0h-5v2h5v-2zm6-25c-6.627 0-12 5.373-12 12 0 6.628 5.373 12 12 12 6.624-.007 11.993-5.375 12-12 0-6.627-5.373-12-12-12zm0 22c-5.523 0-10-4.477-10-10 0-5.522 4.477-10 10-10 5.52.007 9.994 4.48 10 10 0 5.523-4.477 10-10 10z"/><path d="M36 11v2a7.008 7.008 0 017 7h2a9.01 9.01 0 00-9-9zm-7 9h-2a9.01 9.01 0 009 9v-2a7.008 7.008 0 01-7-7zm1 0h2a4 4 0 014-4v-2a6.006 6.006 0 00-6 6zm10 0a4 4 0 01-4 4v2a6.006 6.006 0 006-6h-2zm-.1 17.554l-.9-1.79V31a1 1 0 00-1-1h-4a1 1 0 00-1 1v4.764l-.9 1.79A1 1 0 0032 38v9a1 1 0 001 1h6a1 1 0 001-1v-9a.998.998 0 00-.1-.447zM38 46h-4v-7.764l.9-1.79A1 1 0 0035 36v-4h2v4a1 1 0 00.1.447l.9 1.789V46zM29 7V5H6a1 1 0 00-1 1v5a1 1 0 001 1h18v-2H7V7h22zm-13 8H5v2h11v-2zm6 0h-4v2h4v-2zm-11 4H5v2h6v-2zm8 0h-6v2h6v-2zM8 23H5v2h3v-2zm8 0h-6v2h6v-2z"/></g><defs><clipPath id="clip0_586_45121"><path fill="#fff" d="M0 0h48v48H0z"/></clipPath></defs></svg>