<svg width="210" height="230" fill="none" xmlns="http://www.w3.org/2000/svg"><g filter="url(#filter0_dddddd_465_9463)"><path fill-rule="evenodd" clip-rule="evenodd" d="M105 0C91.25 0 80 11.25 80 25s11.25 25 25 25 25-11.25 25-25-11.25-25-25-25z" fill="#FFDB21"/></g><path fill-rule="evenodd" clip-rule="evenodd" d="M105 6c-10.45 0-19 8.55-19 19s8.55 19 19 19 19-8.55 19-19-8.55-19-19-19z" fill="url(#paint0_linear_465_9463)"/><mask id="a" fill="#fff"><path d="M110.12 21.825a.5.5 0 01.76-.65l3 3.5a.5.5 0 010 .65l-3 3.5a.5.5 0 01-.76-.65L112.841 25l-2.721-3.175z"/></mask><path d="M110.12 21.825l.76-.65-.76.65zm.055-.705l.65.76-.65-.76zm.705.055l.759-.651-.759.65zm3 3.5l.759-.651-.759.65zm0 .65l.759.651-.759-.65zm-3 3.5l.759.651-.759-.65zm-.705.055l.65-.76-.65.76zm-.055-.705l.76.65-.76-.65zM112.841 25l.76.65.558-.65-.558-.65-.76.65zm-1.961-3.825a.5.5 0 01-.055.705l-1.301-1.519a1.5 1.5 0 00-.163 2.115l1.519-1.301zm-.055.705a.5.5 0 01-.705-.055l1.519-1.301a1.5 1.5 0 00-2.115-.163l1.301 1.519zm-.705-.055l3 3.5 1.519-1.301-3-3.5-1.519 1.301zm3 3.5a.501.501 0 010-.65l1.519 1.301a1.501 1.501 0 000-1.952l-1.519 1.301zm0-.65l-3 3.5 1.519 1.301 3-3.5-1.519-1.301zm-3 3.5a.5.5 0 01.705-.055l-1.301 1.519a1.5 1.5 0 002.115-.163l-1.519-1.301zm.705-.055a.5.5 0 01.055.705l-1.519-1.301a1.5 1.5 0 00.163 2.115l1.301-1.519zm.055.705l2.721-3.174-1.519-1.302-2.721 3.175 1.519 1.301zm2.721-4.476l-2.721-3.174-1.519 1.301 2.721 3.175 1.519-1.302z" fill="#153051" mask="url(#a)"/><mask id="b" fill="#fff"><path d="M99.88 21.825a.5.5 0 00-.76-.65l-3 3.5a.5.5 0 000 .65l3 3.5a.5.5 0 00.76-.65L97.159 25l2.72-3.175z"/></mask><path d="M99.88 21.825l-.76-.65.76.65zm-.055-.705l-.65.76.65-.76zm-.705.055l-.759-.651.76.65zm-3 3.5l-.759-.651.76.65zm0 .65l-.759.651.76-.65zm3 3.5l-.759.651.76-.65zm.705.055l-.65-.76.65.76zm.055-.705l-.76.65.76-.65zM97.159 25l-.76.65-.558-.65.558-.65.76.65zm1.961-3.825a.5.5 0 00.055.705l1.301-1.519a1.5 1.5 0 01.163 2.115l-1.519-1.301zm.055.705a.5.5 0 00.705-.055l-1.519-1.301a1.5 1.5 0 012.115-.163l-1.301 1.519zm.705-.055l-3 3.5-1.519-1.301 3-3.5 1.519 1.301zm-3 3.5a.5.5 0 000-.65l-1.519 1.301a1.5 1.5 0 010-1.952l1.519 1.301zm0-.65l3 3.5-1.519 1.301-3-3.5 1.519-1.301zm3 3.5a.5.5 0 00-.705-.055l1.301 1.519a1.5 1.5 0 01-2.115-.163l1.519-1.301zm-.705-.055a.5.5 0 00-.055.705l1.519-1.301a1.5 1.5 0 01-.163 2.115l-1.301-1.519zm-.055.705l-2.72-3.174 1.518-1.302 2.721 3.175-1.519 1.301zM96.4 24.35l2.72-3.174 1.519 1.301-2.721 3.175-1.519-1.302z" fill="#153051" mask="url(#b)"/><defs><linearGradient id="paint0_linear_465_9463" x1="105" y1="6" x2="105" y2="44" gradientUnits="userSpaceOnUse"><stop stop-color="#FFFBE3"/><stop offset="1" stop-color="#fff"/></linearGradient><filter id="filter0_dddddd_465_9463" x="0" y="0" width="210" height="230" filterUnits="userSpaceOnUse" color-interpolation-filters="sRGB"><feFlood flood-opacity="0" result="BackgroundImageFix"/><feColorMatrix in="SourceAlpha" values="0 0 0 0 0 0 0 0 0 0 0 0 0 0 0 0 0 0 127 0" result="hardAlpha"/><feOffset dy="2.767"/><feGaussianBlur stdDeviation="1.107"/><feColorMatrix values="0 0 0 0 0.611765 0 0 0 0 0.709804 0 0 0 0 0.792157 0 0 0 0.0196802 0"/><feBlend in2="BackgroundImageFix" result="effect1_dropShadow_465_9463"/><feColorMatrix in="SourceAlpha" values="0 0 0 0 0 0 0 0 0 0 0 0 0 0 0 0 0 0 127 0" result="hardAlpha"/><feOffset dy="6.65"/><feGaussianBlur stdDeviation="2.66"/><feColorMatrix values="0 0 0 0 0.611765 0 0 0 0 0.709804 0 0 0 0 0.792157 0 0 0 0.0282725 0"/><feBlend in2="effect1_dropShadow_465_9463" result="effect2_dropShadow_465_9463"/><feColorMatrix in="SourceAlpha" values="0 0 0 0 0 0 0 0 0 0 0 0 0 0 0 0 0 0 127 0" result="hardAlpha"/><feOffset dy="12.522"/><feGaussianBlur stdDeviation="5.009"/><feColorMatrix values="0 0 0 0 0.611765 0 0 0 0 0.709804 0 0 0 0 0.792157 0 0 0 0.035 0"/><feBlend in2="effect2_dropShadow_465_9463" result="effect3_dropShadow_465_9463"/><feColorMatrix in="SourceAlpha" values="0 0 0 0 0 0 0 0 0 0 0 0 0 0 0 0 0 0 127 0" result="hardAlpha"/><feOffset dy="22.336"/><feGaussianBlur stdDeviation="8.935"/><feColorMatrix values="0 0 0 0 0.611765 0 0 0 0 0.709804 0 0 0 0 0.792157 0 0 0 0.0417275 0"/><feBlend in2="effect3_dropShadow_465_9463" result="effect4_dropShadow_465_9463"/><feColorMatrix in="SourceAlpha" values="0 0 0 0 0 0 0 0 0 0 0 0 0 0 0 0 0 0 127 0" result="hardAlpha"/><feOffset dy="41.778"/><feGaussianBlur stdDeviation="16.711"/><feColorMatrix values="0 0 0 0 0.611765 0 0 0 0 0.709804 0 0 0 0 0.792157 0 0 0 0.0503198 0"/><feBlend in2="effect4_dropShadow_465_9463" result="effect5_dropShadow_465_9463"/><feColorMatrix in="SourceAlpha" values="0 0 0 0 0 0 0 0 0 0 0 0 0 0 0 0 0 0 127 0" result="hardAlpha"/><feOffset dy="100"/><feGaussianBlur stdDeviation="40"/><feColorMatrix values="0 0 0 0 0.611765 0 0 0 0 0.709804 0 0 0 0 0.792157 0 0 0 0.07 0"/><feBlend in2="effect5_dropShadow_465_9463" result="effect6_dropShadow_465_9463"/><feBlend in="SourceGraphic" in2="effect6_dropShadow_465_9463" result="shape"/></filter></defs></svg>