<svg width="38" height="24" fill="none" xmlns="http://www.w3.org/2000/svg"><mask id="a" fill="#fff"><path d="M24.12 8.825a.5.5 0 01.76-.65l3 3.5a.5.5 0 010 .65l-3 3.5a.5.5 0 01-.76-.65L26.841 12l-2.72-3.175z"/></mask><path d="M24.12 8.825l.76-.65-.76.65zm.055-.705l.65.76-.65-.76zm.705.055l.759-.651-.76.65zm3 3.5l.759-.651-.76.65zm0 .65l.759.651-.76-.65zm-3 3.5l.759.651-.76-.65zm-.705.055l.65-.76-.65.76zm-.055-.705l.76.65-.76-.65zM26.841 12l.76.65.558-.65-.558-.65-.76.65zM24.88 8.175a.5.5 0 01-.055.705l-1.301-1.52a1.5 1.5 0 00-.163 2.115l1.519-1.301zm-.055.705a.5.5 0 01-.705-.055l1.519-1.301a1.5 1.5 0 00-2.115-.163l1.301 1.519zm-.705-.055l3 3.5 1.519-1.301-3-3.5-1.519 1.301zm3 3.5a.5.5 0 010-.65l1.519 1.301a1.5 1.5 0 000-1.952l-1.519 1.301zm0-.65l-3 3.5 1.519 1.301 3-3.5-1.519-1.301zm-3 3.5a.5.5 0 01.705-.055l-1.301 1.519a1.5 1.5 0 002.115-.163l-1.519-1.301zm.705-.055a.5.5 0 01.055.705l-1.519-1.301a1.5 1.5 0 00.163 2.115l1.301-1.519zm.055.705l2.72-3.174-1.518-1.302-2.72 3.175 1.518 1.301zm2.72-4.476l-2.72-3.174-1.519 1.301 2.721 3.175 1.519-1.302z" fill="#153051" mask="url(#a)"/><mask id="b" fill="#fff"><path d="M13.88 8.825a.5.5 0 10-.76-.65l-3 3.5a.5.5 0 000 .65l3 3.5a.5.5 0 00.76-.65L11.158 12l2.722-3.175z"/></mask><path d="M13.88 8.825l-.76-.65.76.65zm-.055-.705l-.65.76.65-.76zm-.705.055l-.759-.651.76.65zm-3 3.5l-.759-.651.76.65zm0 .65l-.759.651.76-.65zm3 3.5l-.759.651.76-.65zm.705.055l-.65-.76.65.76zm.055-.705l-.76.65.76-.65zM11.158 12l-.759.65-.558-.65.558-.65.76.65zm1.962-3.825a.5.5 0 00.055.705l1.301-1.519a1.5 1.5 0 01.163 2.115L13.12 8.175zm.055.705a.5.5 0 00.705-.055l-1.52-1.301a1.5 1.5 0 012.115-.163l-1.3 1.519zm.705-.055l-3 3.5-1.519-1.301 3-3.5 1.519 1.301zm-3 3.5a.5.5 0 000-.65l-1.52 1.301a1.5 1.5 0 010-1.952l1.519 1.301zm0-.65l3 3.5-1.519 1.301-3-3.5 1.519-1.301zm3 3.5a.5.5 0 00-.705-.055l1.301 1.519a1.5 1.5 0 01-2.115-.163l1.519-1.301zm-.705-.055a.5.5 0 00-.055.705l1.519-1.301a1.5 1.5 0 01-.163 2.115l-1.301-1.519zm-.055.705l-2.72-3.174 1.518-1.302 2.72 3.175-1.518 1.301zM10.4 11.35l2.72-3.174 1.519 1.301-2.721 3.175-1.519-1.302z" fill="#153051" mask="url(#b)"/></svg>