<svg width="270" height="270" fill="none" xmlns="http://www.w3.org/2000/svg"><path d="M170.179 131.081c-1.3 2.797-3.2 4.968-5.195 6.227-2.001 1.262-4.035 1.575-5.682.81-1.646-.766-2.718-2.522-3.043-4.866-.324-2.337.111-5.188 1.411-7.986 1.3-2.797 3.199-4.967 5.195-6.226 2.001-1.262 4.035-1.576 5.681-.81 1.647.765 2.719 2.522 3.044 4.865.324 2.337-.111 5.189-1.411 7.986zm-36.675-1.254c.03 3.085-.75 5.862-2.009 7.857-1.263 2.001-2.964 3.159-4.779 3.177-1.816.018-3.54-1.106-4.842-3.081-1.299-1.97-2.134-4.732-2.164-7.816-.031-3.084.749-5.861 2.009-7.857 1.263-2 2.963-3.158 4.779-3.176 1.816-.018 3.539 1.106 4.841 3.081 1.299 1.97 2.134 4.731 2.165 7.815z" stroke="#000"/><g clip-path="url(#clip0_465_9473)"><path d="M128.255 145.893s-.036.286.087.765c.102.478.392 1.156.973 1.879.285.362.642.729 1.034 1.177.402.392.825.805 1.345 1.208a20.611 20.611 0 003.693 2.302c1.432.724 3.082 1.315 4.855 1.88 1.768.55 3.688 1.177 5.68 1.554 1.019.198 2.053.423 3.108.596 1.07.199 2.089.367 3.189.367 2.185.122 4.35-.092 6.526-.423 2.155-.413 4.284-.882 6.332-1.518 2.063-.581 4.035-1.34 5.904-2.145.943-.387 1.829-.851 2.726-1.253.871-.443 1.727-.882 2.562-1.304 1.636-.907 3.169-1.788 4.555-2.665a90.913 90.913 0 003.678-2.552c1.105-.754 1.971-1.538 2.756-2.109 1.492-1.233 2.348-1.936 2.348-1.936.036-.03.092-.025.128.01a.093.093 0 010 .112s-.688.872-1.992 2.328c-.678.704-1.488 1.575-2.507 2.481-.978.953-2.195 1.906-3.525 2.935-.688.489-1.401.998-2.14 1.528-.774.479-1.574.973-2.394 1.483a42.13 42.13 0 01-5.481 2.638c-1.972.749-4.04 1.473-6.205 1.957-2.15.535-4.392.825-6.623.973-1.126.02-2.231.142-3.352.081-1.116.015-2.226.015-3.306-.076-.556-.056-1.065-.01-1.646-.102a45.02 45.02 0 00-1.599-.184c-1.06-.122-2.115-.188-3.149-.275-2.124-.178-4.111-.499-5.996-1.008a24.233 24.233 0 01-5.109-2.033c-1.503-.835-2.787-1.778-3.775-2.781a16.81 16.81 0 01-1.315-1.473c-.331-.463-.682-.907-.917-1.365-.489-.892-.697-1.696-.703-2.247-.01-.555.092-.825.092-.825l.01-.02a.087.087 0 01.112-.051c.021.01.046.051.041.091z" fill="#153051"/><path d="M156.615 157.412c.138-2.339 1.167-5.482 2.879-7.081a9.35 9.35 0 016.393-2.492c2.883.026 5.578 1.386 8.059 2.863 1.773 1.06 3.531 2.227 4.845 3.821 1.019 1.238 1.732 2.695 2.389 4.152 1.523 3.373 2.817 7.198 1.63 10.703-.377 1.111-1.059 2.196-2.124 2.685-.82.377-1.778.352-2.664.158-2.537-.55-4.606-2.374-6.271-4.361-1.666-1.987-3.067-4.208-4.937-6.011a16.156 16.156 0 00-10.199-4.437z" fill="#fff"/><path d="M156.529 157.407s-.016-.301.01-.897c.03-.586.143-1.442.418-2.516.28-1.065.754-2.359 1.762-3.643 1.029-1.238 2.573-2.328 4.483-2.894 1.9-.585 4.198-.519 6.302.23 2.124.728 4.03 2.007 5.935 3.347 1.905 1.35 3.744 3.112 4.885 5.308.612 1.07 1.131 2.18 1.631 3.306.504 1.131.988 2.282 1.35 3.495.723 2.394.973 5.171-.27 7.652-.316.611-.759 1.202-1.371 1.645-.606.453-1.375.703-2.083.759-1.437.097-2.69-.3-3.847-.825-2.297-1.111-3.948-2.909-5.257-4.61-1.33-1.712-2.394-3.363-3.561-4.703a16.663 16.663 0 00-7.05-4.753 15.814 15.814 0 00-2.374-.652c-.566-.102-.866-.158-.866-.158a.086.086 0 01-.077-.096.088.088 0 01.087-.077s.31 0 .896-.005a15.24 15.24 0 012.527.301c1.085.209 2.369.631 3.77 1.309 1.401.662 2.878 1.707 4.233 3.072 1.36 1.355 2.578 3 3.872 4.605 1.304 1.584 2.771 3.153 4.621 4.132.906.463 1.966.81 2.914.769.937-.015 1.67-.555 2.226-1.462 1.075-1.855 1.171-4.346.708-6.669-.479-2.348-1.447-4.651-2.532-6.77-1.111-2.14-2.985-3.627-4.967-4.717-1.987-1.121-3.974-2.099-5.879-2.7-1.9-.612-3.759-.739-5.42-.306-1.656.413-3.057 1.238-4.055 2.196-.958.998-1.498 2.185-1.921 3.138a14.52 14.52 0 00-.739 2.338c-.127.55-.168.861-.168.861-.005.051-.051.081-.102.076a.09.09 0 01-.091-.086z" fill="#153051"/><path d="M156.911 156.648s.112-.331.453-.851a6.966 6.966 0 011.773-1.885c.876-.647 2.094-1.192 3.474-1.365a11.712 11.712 0 014.224.316c1.395.356 2.705.952 3.846 1.65a12.461 12.461 0 012.771 2.344c.698.804 1.116 1.584 1.411 2.114.24.56.372.881.372.881s-.204-.275-.56-.764c-.382-.459-.912-1.126-1.697-1.758-1.503-1.324-3.887-2.639-6.449-3.214-1.228-.286-2.614-.372-3.785-.296a8.146 8.146 0 00-3.138.851 9.045 9.045 0 00-2.002 1.325c-.444.392-.693.652-.693.652zm-67.378-42.721h-.03a.888.888 0 01-.856-.917c.168-4.947 3.49-10.739 6.683-13.903 3.037-3.01 7.066-5.308 11.972-6.831l.729-.224c1.91-.576 3.882-1.172 5.084-2.553 1.864-2.14 1.38-5.44.453-8.446a5.497 5.497 0 01-.626-1.91.889.889 0 011.716-.423c.199.54.393 1.1.571 1.67.739 1.259 2.124 2.16 3.591 2.196 2.028.066 3.923-1.508 4.295-3.474.087-.469.555-.77.993-.718a.89.89 0 01.765.957c-.092 1.055-.199 2.247.188 3.21.295.738 1.09 1.436 1.824 1.273.876-.188 1.187-1.324 1.289-2.328a2.235 2.235 0 01.147-1.85.893.893 0 01.978-.427.884.884 0 01.683.825c.021.393.021.764 0 1.121.184.265.474.448.744.459.846.056 1.462-.683 1.752-1.406.372-.923.347-2.018.316-3.078a.887.887 0 01.825-.906c.505-.026.892.305.948.774.112.902.958 1.294 1.319 1.421.953.342 2.003.174 2.619-.412.55-.52.835-1.218.907-1.951-.545-1.04-.933-2.262-1.136-3.627a.89.89 0 011.574-.688c.835 1.044 1.35 2.47 1.36 3.882.408.672.953 1.299 1.666 1.752.856.55 2.022.713 3.041.443.78-.209 1.381-.657 1.697-1.268.346-.662.428-1.523.514-2.435.138-1.462.296-3.118 1.712-4.106a.89.89 0 011.391.866c-.26 1.635-.556 3.49-.031 5.079.438 1.33 1.773 2.608 3.138 2.364 1.279-.23 2.109-1.62 2.466-2.848.188-.668.305-1.355.423-2.089.147-.917.305-1.87.631-2.797a.88.88 0 01.953-.585c.413.05.739.392.774.804a21.783 21.783 0 001.029 5.034c.275.82.525 1.039.688 1.08.199.045.54-.118.932-.449a7.778 7.778 0 002.461-3.922.88.88 0 011.034-.647.885.885 0 01.708.993 17.723 17.723 0 00-.132 3.286c.01.209.03.326.051.387.035-.025.142-.05.305-.127 3.678-1.656 5.528-6.521 3.882-10.204a.891.891 0 011.62-.739 108.503 108.503 0 014.606 11.671l1.548-3.235a.888.888 0 011.686.474c-.025.24.097.454.367.642.464.326 1.162.397 1.62.168 1.029-.504 1.625-1.737 2.196-3.062a.89.89 0 011.696.21l1.157 7.126c.015.097.061.387.117.459.066-.026.484-.27.851-.76l6.215-8.237a.887.887 0 011.579.713l-1.702 8.325c-.331 1.61-.606 3.423.311 4.523.454.545 1.177.887 1.941 1.248l.224.107c8.319 3.959 14.769 11.998 16.832 20.974a.887.887 0 01-.667 1.064.884.884 0 01-1.065-.667c-1.946-8.462-8.029-16.037-15.864-19.771l-.219-.102c-.866-.407-1.844-.871-2.547-1.722-1.539-1.85-.983-4.56-.688-6.016l.917-4.468-3.882 5.12c-.234.31-1.09 1.34-2.175 1.436a1.692 1.692 0 01-1.309-.443c-.499-.458-.601-1.095-.662-1.477l-.729-4.519c-.453.627-1.029 1.192-1.778 1.56-1.049.514-2.42.386-3.418-.312a2.251 2.251 0 01-.214-.163l-1.732 3.617a.873.873 0 01-.866.5.885.885 0 01-.785-.627 105.496 105.496 0 00-3.061-8.645c-.627 2.94-2.548 5.634-5.299 6.872-.29.133-1.187.535-1.991.036-.607-.372-.785-1.014-.841-1.462-.357.433-.749.83-1.172 1.192-.866.733-1.701 1.019-2.491.83-1.324-.31-1.808-1.773-1.966-2.252a19.584 19.584 0 01-.286-.922c-.04.163-.081.326-.127.49-.499 1.742-1.778 3.733-3.861 4.105-2.334.423-4.427-1.451-5.125-3.51a4.836 4.836 0 01-.326.805c-.546 1.06-1.549 1.83-2.812 2.165-1.513.403-3.174.158-4.458-.662a6.722 6.722 0 01-1.182-.973 4.583 4.583 0 01-1.004 1.39c-1.105 1.055-2.857 1.366-4.442.8a4.33 4.33 0 01-.83-.397c-.071.393-.173.79-.331 1.177-.53 1.3-1.758 2.563-3.475 2.512a2.585 2.585 0 01-1.003-.255c-.428 1.33-1.243 2.175-2.389 2.42-1.743.372-3.281-.933-3.847-2.354a5.21 5.21 0 01-.224-.703c-1.161 1.162-2.781 1.89-4.412 1.844a5.824 5.824 0 01-2.781-.815c.408 2.573.188 5.135-1.533 7.117-1.539 1.773-3.76 2.44-5.91 3.092l-.713.22c-4.631 1.436-8.41 3.586-11.248 6.393-2.868 2.847-6.002 8.263-6.154 12.7a.899.899 0 01-.897.846zm-24.188 83.16c-.85 0-1.681-.036-2.465-.067-5.722-.244-12.614-7.152-13.949-8.986-1.054-1.442-2.287-3.393-2.476-5.655-.147-1.757-.535-6.424.775-9.48 3.912-9.119 16.424-23.19 29.75-33.455 3.974-3.062 10.704-14.132 10.688-18.589 0-.489.398-.892.887-.892s.886.398.886.887c.016 5.451-7.392 16.928-11.38 20.005-13.113 10.097-25.396 23.872-29.201 32.747-1.136 2.649-.76 7.152-.637 8.629.153 1.824 1.228 3.5 2.145 4.759 1.6 2.195 7.896 8.059 12.588 8.258 1.905.081 3.872.163 5.762-.225 1.976-.407 3.586-1.339 4.528-2.618.372-.499.581-.983.627-1.432.082-.784-.346-1.676-1.141-2.379-.724-.636-1.625-1.069-2.583-1.533l-.295-.143c-3.5-1.696-6.486-6.638-7.24-8.782-.713-2.043-.595-4.677-.183-6.266a87.683 87.683 0 011.335-4.636.89.89 0 111.696.535 89.486 89.486 0 00-1.309 4.544c-.346 1.345-.418 3.637.143 5.237.713 2.032 3.438 6.368 6.332 7.769l.29.142c1.024.489 2.084.999 2.99 1.804 1.223 1.08 1.87 2.537 1.733 3.892-.077.769-.403 1.548-.968 2.308-1.202 1.63-3.194 2.801-5.599 3.301-1.243.249-2.506.321-3.729.321z" fill="#153051"/><path d="M161.195 201.417c-2.043 0-4.106-.24-6.088-.948-2.353-.845-4.136-2.287-5.028-4.06-.657-1.304-.891-2.883-.672-4.554.565-4.279 4.096-8.217 8.996-10.036 4.331-1.605 9.119-1.569 13.358-1.544l10.688.072c4.539.035 9.22.066 13.469-1.585 3.734-1.452 7.647-4.906 7.957-9.363.036-.489.51-.851.948-.825a.888.888 0 01.825.947c-.321 4.6-3.892 8.88-9.093 10.897-4.565 1.773-9.628 1.737-14.122 1.702l-10.688-.072c-4.284-.03-8.706-.056-12.725 1.432-4.29 1.589-7.372 4.967-7.851 8.599-.122.917-.132 2.272.495 3.52.687 1.365 2.119 2.496 4.044 3.184 3.704 1.325 7.917.8 11.631.336l21.748-2.72c9.801-1.228 22.002-2.751 30.51-9.909 1.946-1.635 3.285-3.25 4.111-4.936.733-1.513 1.105-3.204 1.396-4.804 3.932-21.554-3.826-43.592-11.025-60.378a.89.89 0 011.636-.703c7.295 17.02 15.155 39.374 11.136 61.397-.316 1.727-.718 3.556-1.549 5.267-.932 1.916-2.425 3.719-4.559 5.518-8.91 7.493-21.396 9.057-31.432 10.311l-21.748 2.72c-2.028.265-4.188.535-6.368.535zm-62.487-86.956c-7.723-.428-14.356-3.759-21.406-6.592-3.658-1.467-4.392-.565-4.698 3.388-.489 6.322-.275 7.035 5.65 8.258 6.933 1.431 13.959 2.017 21.035 1.864 1.141-.025 1.146-1.803 0-1.777-4.998.107-9.96-.128-14.912-.826-2.205-.31-6.092-.392-8.12-1.513-1.91-1.059-3.118-5.761-1.436-7.57.188-1.06.754-1.141 1.69-.234.678.28 1.35.565 2.023.856.948.402 1.895.815 2.848 1.217 1.732.734 3.464 1.457 5.227 2.099 3.933 1.431 7.916 2.374 12.099 2.608 1.141.061 1.136-1.717 0-1.778zm6.847-3.087c4.264-7.106 12.425-10.637 20.53-8.528 8.324 2.166 13.658 10.765 10.382 19.216-3.006 7.759-12.135 11.687-20.102 9.883-8.299-1.879-14.544-12.486-10.81-20.571.479-1.034-1.055-1.935-1.534-.896-3.805 8.237 1.335 19.155 9.542 22.44 9.032 3.617 20.011-.779 24.234-9.353 3.999-8.115-.581-18.263-8.599-21.544-9.45-3.866-19.975-.219-25.182 8.457-.586.978.953 1.875 1.539.896z" fill="#153051"/><path d="M100.557 113.555c2.649-10.617 14.458-17.83 25.059-15.452 4.865 1.09 9.19 3.903 12.537 7.55 3.913 4.269 5.212 8.931 4.646 14.662-.59 5.986-5.15 10.652-10.097 13.719-4.62 2.863-10.198 2.674-15.43 2.145-5.344-.54-10.184-2.181-13.444-6.659-3.352-4.605-4.6-10.418-3.271-15.965.265-1.111-1.447-1.585-1.712-.474-1.446 6.016-.168 12.43 3.485 17.458 3.347 4.605 7.993 6.485 13.49 7.254 5.904.831 12.568 1.065 17.779-2.231 4.906-3.102 9.72-7.652 10.77-13.551 1.039-5.843.219-11.197-3.449-15.853-3.577-4.534-8.513-8.151-14.147-9.618-11.722-3.057-24.973 4.691-27.927 16.536-.28 1.115 1.436 1.589 1.711.479z" fill="#153051"/><path d="M144.898 117.523c1.839-1.93 3.984-1.538 6.322-.876 1.101.311 1.575-1.401.474-1.712-3-.85-5.731-1.095-8.049 1.335-.795.825.464 2.084 1.253 1.253zm-.57 4.921c.3-.616 3.067-.652 3.764-.688 1.07-.056 2.257-.086 3.302.169 1.11.27 1.584-1.442.473-1.712-1.426-.347-3.051-.331-4.498-.178-1.375.142-3.872.066-4.575 1.513-.494 1.024 1.034 1.925 1.534.896zm-19.287.826c-.78-2.12 3.454-2.094 4.269-.872 1.166 1.743.234 3.699-1.906 3.78-1.991.077-3.474-2.175-1.421-3.423.958-.581 2.323-.708 2.323.785 0 .519.031 1.431-1.009.968-.152-.209-.31-.413-.463-.622.071-.856.071-.942 0-.245-.693.912.851 1.799 1.533.897.989-1.309.153-3.311-1.599-3.158-1.86.163-2.104 2.588-1.233 3.856.876 1.274 3.107 1.773 4.085.341.897-1.309.642-3.729-.738-4.6-1.59-1.003-4.02-.102-5.074 1.325-1.06 1.431-.683 3.494.611 4.641 2.909 2.577 8.334-.092 7.081-4.091-.764-2.44-2.684-3.291-5.109-3.031-1.916.209-3.826 1.849-3.062 3.933.387 1.054 2.109.596 1.712-.484zm32.114-8.885c.184-9.608 11.488-14.473 19.603-14.208 4.458.143 8.172.912 11.157 4.473 2.97 3.54 4.493 8.217 3.724 12.797-.596 3.571-2.491 7.412-4.753 10.26-3.133 3.943-7.993 4.264-12.726 3.978-4.192-.249-9.129-1.187-12.501-3.846-4.147-3.265-4.544-8.548-4.504-13.454.01-1.146-1.767-1.146-1.778 0-.04 4.86.393 10.347 4.05 13.974 3.49 3.464 9.247 4.676 13.959 5.058 4.722.388 10.535.189 14.035-3.469 3.072-3.209 5.614-8.614 6.118-13.031.53-4.661-1.07-9.358-3.958-13.001-3.245-4.096-6.959-5.206-12.059-5.476-6.143-.331-10.58.784-15.466 4.518-3.8 2.904-6.587 6.496-6.684 11.427-.015 1.141 1.763 1.141 1.783 0z" fill="#153051"/><path d="M152.453 112.974c1.722-10.856 12.655-17.616 23.144-17.891 10.948-.29 20.688 9.745 21.151 20.606.52 12.14-9.363 19.782-20.835 19.644-5.706-.066-12.374-1.146-16.934-4.794-5.425-4.34-7.275-11.095-6.49-17.804.132-1.136-1.646-1.126-1.778 0-.785 6.729.973 13.525 6.027 18.273 4.819 4.524 12.007 5.879 18.416 6.093 12.211.407 23.138-7.163 23.388-20.123.209-10.805-8.936-22.797-20.118-23.653-12.135-.927-25.68 6.541-27.682 19.18-.179 1.116 1.533 1.595 1.711.469z" fill="#153051"/><path d="M198.465 113.488c.943-1.472 4.942-2.312 6.536-2.852a95.975 95.975 0 014.57-1.412c2.924-.82 10.341-3.856 10.413 1.804.046 3.785-2.226 3.082-4.539 3.072-2.186-.01-4.371-.184-6.546-.316-3.663-.224-7.341-.825-11.014-.774-1.142.015-1.147 1.793 0 1.777 3.662-.045 7.351.556 11.014.775 3.265.198 8.395 1.273 11.462.056 3.046-1.202 1.482-5.461.468-7.901-1.635-3.944-5.079-1.865-8.64-1.009a88.42 88.42 0 00-10.662 3.286c-1.666.631-3.602 1.039-4.595 2.593-.622.973.917 1.864 1.533.901zm-35.268 9.746c-.871-1.569 4.295-4.071 4.453-.927.056 1.085-.484 1.895-1.33 2.547-.728.56-2.491.769-3.067-.153-.662-1.055-.076-1.859.851-2.425.29-.178.973-.647 1.314-.565.377.091.306.901.296 1.253-.005.351.015 1.416-.347 1.559-.56.219-.794-.8-.861-1.101-.142-.621.51-1.299.53-.433.061.51-.112.714-.514.607.321-.449.744-.612 1.268-.479.255.147.51.295.769.438-.122-.214.856-1.579 1.035-1.824l-1.625-.214c.091.204.137.418.132.637l.627.26-.194-.194.229.866c.092-.26.668-.81.912-.912l-.683-.091c.072.035.138.076.209.112-.137-.179-.27-.357-.407-.53.061.183-1.029.937-1.131.998-.499.306-1.024.469-1.59.586l1.096 1.095c.03-.076.061-.152.097-.229-.138.178-.271.357-.408.53v-.015c1.065.417 1.528-1.299.474-1.712-.866-.341-1.549.173-1.875.953-.28.682.509 1.212 1.095 1.095 1.406-.285 4.544-1.758 4.004-3.653-.621-2.17-3.112.214-3.499 1.299-.102.296.015.652.229.866.57.576 1.36.617 1.997.092.774-.637.667-1.666.407-2.527-.234-.784-1.181-.815-1.625-.214-.596.815-1.773 2.593-1.034 3.617.642.892 1.809.342 2.145-.519 1.003-2.593-3.352-3.536-4.279-1.162-.984 2.512 2.659 3.734 3.708 1.36 1.014-2.292-1.834-5.267-3.545-2.689-1.228 1.854.647 6.225 3.173 4.666 1.671-1.034 1.997-5.288-.04-6.108-1.167-.469-2.711.504-3.607 1.172-1.044.779-1.615 1.803-1.335 3.127.275 1.315 1.06 2.39 2.41 2.68 1.299.28 2.791.122 3.815-.759 1.213-1.049 2.053-2.267 1.972-3.923-.071-1.492-.591-2.878-2.211-3.138-1.569-.249-3.087.036-4.335 1.019-1.259.994-2.069 2.415-1.223 3.943.54 1.014 2.073.117 1.518-.881zm-55.436 44.565c-.281 0-.53-.061-.698-.097a102.828 102.828 0 01-14.407-4.559c-.352-.143-.79-.316-1.146-.662-.76-.724-.8-1.783-.78-2.716.041-1.976.214-4.029.377-6.016.163-1.951.331-3.969.372-5.894-.03-.443.26-.749.362-.851 1.834-1.915 8.609-5.981 10.071-6.037.663-.025 2.547.489 6.103 1.472 3.286.912 7.382 2.048 9.517 2.334.264.035.973.132 1.253.764.102.229.122.494.066.784-.122.596-.509 1.055-.79 1.386-1.029 1.218-6.113 5.257-8.533 5.884 0 .204-.02.392-.035.565a72.027 72.027 0 00-.286 11.717c.021.367.062 1.131-.509 1.605-.29.25-.632.321-.937.321zm-14.983-18.93c-.066 1.66-.209 3.352-.341 4.997-.163 1.961-.331 3.994-.372 5.935-.015.652 0 1.37.372 1.727.173.168.448.275.718.387a100.618 100.618 0 0014.218 4.498c.362.087.459.062.489.051.011-.02.041-.127.021-.504a72.678 72.678 0 01.29-11.911c.021-.203.041-.392.026-.54-.841-.494-5.288-1.956-15.42-4.64zm.382-1.284c11.086 2.944 14.55 4.157 15.681 4.783.045-.01.091-.015.137-.02 1.437-.041 6.908-4.126 8.07-5.497.193-.229.407-.484.484-.728-.036-.005-.092-.016-.174-.026-2.231-.3-6.199-1.401-9.699-2.369-2.415-.672-5.146-1.426-5.675-1.426h-.021c-.825.071-6.576 3.265-8.803 5.283z" fill="#153051"/><path d="M108.55 167.799a.662.662 0 01-.657-.565.663.663 0 01.555-.759c.805-.128 4.539-2.318 7.26-3.918 1.941-1.136 3.77-2.211 4.829-2.736.041-.02.117-.056.148-.081-.046.015-.036-.066-.056-.189a93.517 93.517 0 00-.545-3.449c-.484-2.623-1.202-5.252-1.9-7.794l-.612-2.226a.665.665 0 111.284-.352l.606 2.201c.714 2.598 1.442 5.252 1.936 7.932.214 1.156.382 2.323.55 3.485.041.264.112.743-.178 1.166-.194.28-.464.413-.642.504-1.014.5-2.822 1.564-4.743 2.69-4.029 2.369-6.75 3.933-7.733 4.086-.036.005-.071.005-.102.005z" fill="#153051"/><path d="M124.485 170.295c-.178 0-.657-.066-3.81-.524-3.653-.53-9.17-1.33-12.191-1.641a.668.668 0 01-.596-.733.657.657 0 01.734-.596c3.046.316 8.578 1.12 12.241 1.65 1.763.255 3.429.494 3.638.51.275-.102 5.726-2.4 8.64-4.412a46.895 46.895 0 00-11.865-3.617.663.663 0 01-.55-.764.654.654 0 01.764-.55c4.59.754 9.037 2.17 13.22 4.197a.674.674 0 01.371.515.677.677 0 01-.229.591c-2.674 2.262-9.73 5.334-10.326 5.369-.015.005-.025.005-.041.005z" fill="#153051"/><path d="M123.905 183.057c-.036 0-.072-.006-.102-.011-3.205-.509-9.354-1.864-13.424-2.761-1.808-.397-3.128-.693-3.439-.738-.219-.036-.667-.107-.962-.479-.311-.398-.26-.877-.235-1.111l1.223-10.79a.666.666 0 111.324.153l-1.222 10.79c-.005.051-.01.092-.01.122.02-.015.071-.005.091-.005.321.051 1.671.347 3.52.754 3.75.825 9.272 2.043 12.583 2.619.011-1.468-.035-2.889-.076-4.269-.081-2.497-.158-4.855.082-7.367a.672.672 0 01.723-.601.668.668 0 01.601.728c-.229 2.425-.153 4.743-.076 7.199.051 1.635.107 3.326.071 5.109a.683.683 0 01-.239.5.7.7 0 01-.433.158z" fill="#153051"/><path d="M123.996 183.164a.664.664 0 01-.642-.495.66.66 0 01.469-.815c2.751-.744 10.754-4.366 11.513-4.794-.046.026-.046-.081-.091-.392-.128-.871-.26-1.727-.393-2.583-.463-2.995-.947-6.087-1.1-9.46a.674.674 0 01.637-.698c.31-.02.677.265.698.637.147 3.296.606 6.22 1.085 9.318.132.861.27 1.722.397 2.593.046.321.158 1.064-.346 1.584-.408.418-9.41 4.371-12.048 5.084a.764.764 0 01-.179.021zm-35.069-10.642c-1.05 0-11.259-3.439-12.609-4.254a.656.656 0 01-.168-.994c.927-1.11 12.334-6.969 12.955-7.147.632-.183 1.126.056 1.752.352.22.107.48.229.795.361a.673.673 0 01.357.871.672.672 0 01-.876.357c-.342-.143-.617-.275-.851-.387-.5-.24-.683-.321-.805-.275-.871.321-8.885 4.518-11.513 6.164 2.847 1.166 10.245 3.551 10.953 3.622.127-.015.366-.148.6-.28 2.273-1.289 4.387-2.339 6.465-3.21a50.235 50.235 0 016.251-2.134.664.664 0 01.815.474.665.665 0 01-.473.815 47.505 47.505 0 00-6.083 2.073c-2.028.846-4.096 1.875-6.317 3.138-.326.184-.734.413-1.223.454h-.025z" fill="#153051"/><path d="M89.212 184.829c-.3 0-.555-.117-.703-.183-1.977-.902-5.614-1.9-8.538-2.71-4.855-1.34-5.257-1.498-5.37-2.14-.055-.321.016-.606.072-.83.173-.724.443-3.393.677-5.741.26-2.563.5-4.978.663-5.67a.669.669 0 01.8-.5.67.67 0 01.499.8c-.143.611-.403 3.21-.637 5.502-.265 2.624-.515 5.105-.683 5.823-.015.066-.03.122-.04.173.698.29 2.638.825 4.37 1.304 2.95.815 6.623 1.824 8.702 2.766v-.045c.132-3.633.081-7.316-.148-10.948a.666.666 0 01.621-.708c.372-.051.683.254.709.621.234 3.678.285 7.407.152 11.086-.025.692-.275 1.141-.743 1.329a1.24 1.24 0 01-.403.071z" fill="#153051"/><path d="M90.119 184.738a.66.66 0 01-.617-.418.671.671 0 01.367-.871c.362-.148 1.549-.673 3.138-1.381 3.908-1.737 10.444-4.641 12.843-5.491a.664.664 0 01.851.407.669.669 0 01-.408.851c-2.353.83-8.859 3.724-12.746 5.451-1.61.718-2.812 1.253-3.178 1.401a.62.62 0 01-.25.051z" fill="#153051"/><path d="M104.526 177.876a.67.67 0 01-.668-.632c-.117-2.17-.438-4.595-.748-6.933a165.803 165.803 0 01-.52-4.213.672.672 0 01.596-.734.657.657 0 01.734.596c.142 1.345.326 2.756.514 4.177.316 2.364.637 4.814.759 7.036a.668.668 0 01-.627.703h-.04zm-26.649 9.501c-.417 0-1.161-.352-4.82-2.222-2.893-1.482-6.5-3.321-8.277-3.912a.663.663 0 01-.209-1.151c.56-.454 1.829-.978 3.306-1.569.382-.153.718-.286.953-.393a377.78 377.78 0 003.138-1.401c1.126-.504 2.246-1.013 3.179-1.421a.666.666 0 01.535 1.218c-.928.407-2.048.911-3.17 1.416-1.11.499-2.225.998-3.142 1.406a35.23 35.23 0 01-.994.407c-.535.214-1.212.484-1.798.749 1.987.846 4.768 2.267 7.091 3.459 1.83.938 3.903 1.997 4.285 2.079 3.505-.382 8.915-1.315 10.8-1.89a.665.665 0 11.387 1.273c-1.982.602-7.413 1.544-11.182 1.936-.03.016-.056.016-.082.016zm-2.124 13.958c-.352 0-.673-.086-.912-.153a37.5 37.5 0 01-9.19-3.866.672.672 0 01-.24-.912.67.67 0 01.912-.24 36.11 36.11 0 008.864 3.729c.24.067.454.113.606.102.148-.01.327-.066.515-.132l13.632-4.677a.66.66 0 01.846.413.664.664 0 01-.412.846l-13.623 4.676c-.265.092-.55.189-.881.209-.036.005-.077.005-.117.005z" fill="#153051"/><path d="M76.894 200.52a.598.598 0 01-.133-.015.66.66 0 01-.52-.785c.286-1.411.546-5.216.76-8.278.143-2.073.265-3.867.377-4.697a.66.66 0 01.749-.571.667.667 0 01.576.749c-.108.79-.23 2.563-.367 4.616-.224 3.26-.48 6.953-.78 8.451a.68.68 0 01-.662.53zm31.081 2.782c-.943 0-17.26-6.358-17.423-6.424a.667.667 0 01-.413-.551c-.377-3.871-.688-7.417-.642-11.548.005-.367.275-.708.673-.658a.666.666 0 01.657.673c-.04 3.923.245 7.326.601 11.004 3.021 1.197 15.054 5.761 16.47 6.164.122-.041.265-.133.408-.219 2.756-1.681 5.772-2.894 8.686-4.066 1.879-.753 3.825-1.538 5.67-2.43a.773.773 0 00.198-.112c.061-2.745-.005-4.61-.061-6.21-.071-2.124-.132-3.805-.061-6.159.01-.366.321-.616.688-.647a.671.671 0 01.647.688c-.072 2.313-.016 3.974.061 6.073.056 1.604.117 3.479.142 6.123.006.382-.168.764-.478 1.08-.184.178-.377.28-.556.367-1.88.917-3.846 1.706-5.751 2.471-2.863 1.151-5.828 2.338-8.477 3.958-.275.168-.606.372-1.019.428-.01-.005-.015-.005-.02-.005z" fill="#153051"/><path d="M107.725 188.905h-.036c-.723-.031-11.752-2.298-16.796-4.259a.668.668 0 01-.382-.861.671.671 0 01.861-.382c4.814 1.875 15.65 4.116 16.373 4.172 1.065 0 9.384-3.342 12.329-5.726a.664.664 0 01.937.097.674.674 0 01-.097.937c-2.909 2.359-11.6 6.022-13.189 6.022z" fill="#153051"/><path d="M108.209 202.201a.65.65 0 01-.413-.142c-.204-.158-.3-.393-.3-.688 0-.275-.056-1.625-.123-3.383-.132-3.367-.315-7.983-.315-9.745 0-.367.3-.668.667-.668a.67.67 0 01.667.668c0 1.737.189 6.526.316 9.694.066 1.641.117 2.93.122 3.347a.66.66 0 01-.091.673.703.703 0 01-.53.244zm32.089-13.546h-.015c-.637-.01-11.442-3-16.18-4.508a.657.657 0 01-.728-.127l-.291-.281a.669.669 0 01.678-1.11c4.437 1.472 15.15 4.401 16.49 4.676.815-.326 4.911-2.542 7.397-3.892.77-.417 1.473-.8 2.038-1.1-3.719-1.63-12.395-3.953-13.566-4.116a.664.664 0 01-.566-.754.648.648 0 01.754-.566c1.264.179 12.313 3.113 15.181 4.855a.673.673 0 01.321.596.665.665 0 01-.366.571c-.474.239-1.697.901-3.159 1.691-7.137 3.862-7.652 4.065-7.988 4.065z" fill="#153051"/><path d="M142.509 204.646a.963.963 0 01-.382-.076c-.586-.245-.713-.881-.764-1.116-.219-1.08-.785-6.317-1.243-10.525-.229-2.088-.413-3.805-.484-4.34a.666.666 0 011.319-.178c.072.54.26 2.267.489 4.376.433 3.963 1.019 9.389 1.223 10.402a.05.05 0 01.005.026c.061-.031.122-.066.178-.092a234.332 234.332 0 016.771-2.975l2.669-1.146a.667.667 0 01.53 1.222l-2.674 1.147c-2.16.922-4.086 1.747-6.735 2.965-.27.142-.571.31-.902.31zm9.613-16.841a.536.536 0 01-.132-.016.665.665 0 01-.52-.789c.138-.668-.117-3.154-.265-3.969h-.066l-.138-.667.123-.667c.3-.011.962-.011 1.253.596.234.478.596 3.978.392 4.972a.654.654 0 01-.647.54z" fill="#153051"/><path d="M142.127 204.769a.66.66 0 01-.199-.031c-1.66-.509-3.27-1.197-4.829-1.864l-2.053-.876c-4.055-1.738-8.253-3.531-12.339-5.39a.666.666 0 11.551-1.213c4.07 1.855 8.263 3.648 12.313 5.38l2.048.876c1.533.652 3.107 1.33 4.702 1.819.351.107.55.484.443.835a.677.677 0 01-.637.464zm-40.714-51.54c.158 1.488.122 8.279-2.878 6.511-2.502-1.472-1.753-5.186-.907-7.356.418-1.065-1.304-1.529-1.712-.474-1.227 3.143-1.472 8.594 2.665 9.771 4.421 1.258 4.905-5.69 4.61-8.452-.122-1.125-1.9-1.141-1.778 0zm-8.064 18.584a51.224 51.224 0 001.915 6.883l1.712-.474c-.586-1.436-1.248-3.566-.642-5.099.265-.673.968-1.162 1.62-.535.26.249.387.851.504 1.182.316.881.535 1.783.713 2.7.22 1.12 1.931.647 1.712-.474-.397-2.063-1.39-6.74-4.513-5.415-2.965 1.263-2.038 5.822-1.106 8.115.418 1.034 2.104.627 1.712-.474a51.046 51.046 0 01-1.916-6.882c-.224-1.116-1.94-.642-1.711.473zm19.608 1.824a16.24 16.24 0 01.382 3.047c.015.586-.24 1.559.143 2.068.285.377.764.596 1.217.321.02-.01.036-.02.056-.036.428-.259.54-.779.321-1.217-.005-.015-.015-.031-.02-.046-.515-1.019-2.053-.122-1.534.897.005.015.016.03.021.045l.321-1.217a.265.265 0 00-.056.036l1.217.321c.071.422.097.402.092-.067a15.435 15.435 0 00-.041-2.027 19.398 19.398 0 00-.397-2.598c-.255-1.121-1.967-.647-1.722.473zm1.095-3.331c-.015.04-.025.081-.041.122-.178.138-.356.27-.529.408l-.627-.658c.138-.178.27-.356.408-.529-.051.02-.102.045-.153.066h.896c.072.153.138.3.209.453l-.621.622c-.097-.031-.199-.067-.296-.097l-.26-.627c.026-.051.046-.102.072-.153.178-.137.356-.27.53-.407-.046.015-.092.036-.138.051-1.06.402-.601 2.119.474 1.712 1.182-.449 1.08-2.064-.224-2.247-1.187-.168-1.809 1.314-.892 2.089.978.825 2.196-.403 1.62-1.447-.596-1.08-2.323-.611-2.196.642.102 1.131 1.88 1.141 1.768 0zm-13.011 18.833a34.53 34.53 0 00-3.418-.967c-.724-.163-1.6-.474-2.058.305-.433.739-.224 1.967-.22 2.782l.031 3.943c.01 1.141 1.788 1.146 1.778 0-.005-1.004-.015-2.007-.02-3.016-.005-.657-.3-2.308.01-2.889-.255.148-.51.296-.77.439 1.305-.051 2.98.703 4.198 1.11 1.08.372 1.549-1.345.469-1.707z" fill="#153051"/><path d="M96.7 193.791c-.162.081.51.101.683.127a90 90 0 001.147.163c1.12.163 1.604-1.554.474-1.712-.989-.142-2.257-.586-3.2-.112-1.024.51-.122 2.043.897 1.534zm15.982-4.774c.107 2.277.402 4.529.891 6.76.153.693 1.014.81 1.488.392 1.003-.891 2.532-.86 3.591-1.757.877-.739-.387-1.992-1.258-1.258-1.034.876-2.537.82-3.591 1.757.494.133.988.26 1.487.392a37.392 37.392 0 01-.825-6.286c-.056-1.136-1.834-1.141-1.783 0zm14.87-1.314c.229 1.961 1.049 4.804 3.622 4.452 1.192-.163 4.035-2.552 2.476-3.765-.459-.356-1.37-.346-1.488.393-.198 1.289.153 2.287.439 3.535.483 2.099-2.466 2.7-3.76 1.544-.851-.759-2.114.494-1.258 1.258 1.609 1.442 3.795 1.467 5.552.229.693-.489 1.249-1.085 1.35-1.956.169-1.421-.835-2.7-.616-4.131-.494.132-.988.259-1.488.392-.101-.499-.229-.515-.377-.041-.361.576-.922.785-1.676.637-.83-.418-.917-1.753-1.008-2.537-.122-1.131-1.9-1.146-1.768-.01zm-37.754 9.027c3.729 1.727 7.575 3.225 11.391 4.753 1.584.637 5.731 3.128 7.244 1.442.382-.423-.244-1.055-.627-.627-1.095 1.223-6.806-1.844-7.845-2.262-3.255-1.309-6.526-2.598-9.71-4.075-.52-.235-.973.529-.453.769z" fill="#153051"/><path d="M99.228 200.22c1.069.163 2.231 1.37 3.194 1.844 1.064.519 2.241.779 3.387 1.059.556.133.795-.723.235-.855-1.416-.342-2.771-.693-4.035-1.457-.764-.464-1.656-1.31-2.547-1.447-.56-.087-.8.769-.234.856zm-24.886-87.903c.112.463.229.932.341 1.396l1.712-.474c-.224-.866-.454-1.732-.678-2.598-.29-1.106-1.987-.642-1.712.473.077.306.148.612.225.917l1.711-.473c-.458-1.391 4.488.58 4.932.728 2.058.703 4.187 1.309 6.174 2.201 1.544.693 2.776 1.248 4.463 1.554.596.107 7.886.703 4.992 2.262-.927.499-4.356-.286-5.461-.352-1.36-.081-2.725-.168-4.086-.25-3.826-.234-9.628.469-11.243-3.82-1.742-4.631 1.116-1.488 3.413-.663 2.787.999 5.68 1.493 8.503 2.344 1.212.367 2.318.84 3.576 1.044.458.077 5.13.535 4.717.968.494.133.989.26 1.488.392-.275-.779-.342-.947-.76-1.665-.356-.617-1.482-.561-1.624.213-.107.586-.214 1.167-.316 1.753l1.625-.214a7.083 7.083 0 00-.953-1.773c-.412-.647-1.395-.53-1.625.214-.137.357-.275.708-.407 1.065.463-.061.932-.122 1.395-.178-.112-.276-.224-.556-.34-.831-.291-1.039-1.626-.703-1.748.234-.061.49-.128.979-.189 1.473.55-.148 1.106-.301 1.656-.449-.214-.575-.423-1.151-.637-1.727-.265-.896-1.406-.784-1.712 0l.408.153a.897.897 0 00-1.656.449l.016-.795c-.469-.611-1.737-.54-1.656.448.937.357 1.156.27.652-.255-.51-.733-1.59-.453-1.656.449-.03.402-.056.805-.086 1.207l1.655-.448c-.234-.499-.468-1.004-.708-1.503-.371-.927-1.655-.8-1.747.234.78.479.861.209.245-.805-.311-.973-1.677-.764-1.748.235l-.122 1.762c.55-.147 1.105-.3 1.656-.448-.168-.489-.337-.978-.51-1.467-.244-1.009-1.691-.734-1.747.234l-.123 2.094 1.519-.627c-.607-.55-.76-1.553-.994-2.292-.3-.937-1.747-.795-1.747.234.963 1.045 1.166.994.616-.142-.316-.958-1.691-.775-1.747.234.958.469 1.146.194.56-.83-.254-.994-1.711-.749-1.747.234a19.64 19.64 0 01-.097 1.732l1.218-.321c-.143-.372-.28-.744-.423-1.116-.54.23-1.085.459-1.625.683l.84 2.017 1.096-1.095c-1.157-.3-2.492-1.008-3.577-1.192-.988-.662-1.085-.652-.28.031a11.822 11.822 0 011.518 1.635c.29-.494.576-.988.866-1.488-1.95-.264-3.418-1.299-4.396-3.092-.336.433-.667.871-1.004 1.304a8.11 8.11 0 012.604 1.518c.708.535 1.706-.509 1.217-1.217a17.268 17.268 0 00-2.287-2.71c-.357.463-.719.932-1.075 1.396 1.701 1.197 3.617 1.793 5.558 2.516l.474-1.712c-.28-.096-.56-.193-.836-.295-.132.494-.26.988-.392 1.488.056-.021.112-.036.168-.057 1.085-.351.621-2.068-.474-1.711-.056.02-.112.035-.168.056-.642.209-.866.988-.392 1.487.469.495.917.525 1.62.749 1.105.352 1.528-1.319.474-1.711-1.778-.663-3.566-1.238-5.13-2.334-.836-.586-1.794.703-1.075 1.396a10.54 10.54 0 012.007 2.349l1.217-1.218c-1.008-.759-1.86-1.258-3.026-1.696-.733-.275-1.4.677-1.003 1.304 1.35 2.139 2.975 3.337 5.46 3.907.892.204 1.448-.82.867-1.487-1.218-1.396-2.481-2.848-4.234-3.541-.28-.112-.667.015-.865.229-3.353 3.592 3.484 5.232 5.71 5.808.642.163 1.29-.433 1.095-1.095-.397-1.34-.346-1.218-1.018-2.441-.474-.861-1.997-.27-1.625.683.346.881.463 1.651 1.243 2.175.382.26 1.008.092 1.217-.321.418-.825.31-1.716.341-2.628-.58.076-1.161.158-1.747.234.285 1.116.326 2.598 1.564 3.006.341.112.846-.067 1.004-.408.382-.83.305-1.151.361-2.236-.58.076-1.161.158-1.747.234.24.734.397 1.549.82 2.206.194.301.632.555 1.004.407 1.314-.524 1.054-1.63 1.05-2.939-.582.076-1.162.158-1.748.234.362 1.136.55 2.262 1.452 3.077a.9.9 0 001.518-.626l.122-2.094c-.58.076-1.161.158-1.747.234.229.938.275 1.019.688 1.89.407.861 1.6.352 1.655-.448l.122-1.763c-.58.077-1.161.158-1.747.235.387 1.222.464 2.598 1.722 3.123.372.152.805-.107 1.004-.408.55-.841.417-1.207.52-2.384-.582.076-1.162.158-1.748.234.316.785.494 1.182.886 1.931.438.835 1.6.372 1.656-.448.03-.403.056-.805.087-1.208-.55.148-1.106.301-1.656.449a6.8 6.8 0 01.514.789c.158.26.454.454.77.438 1.171-.061 1.467-.799 1.38-1.869-.55.147-1.105.3-1.656.448.607.79 1.131 1.992 2.262 1.966.413-.01.729-.275.856-.652.168-.494.143-.84.178-1.416-.55.148-1.105.301-1.655.448.234.357.402.653.693.938.367.356.881.316 1.258 0 .566-.479.601-.769.891-1.513H91.79c.295 1.003.377 1.202.815 2.15.412.901 1.559.305 1.655-.449.062-.489.128-.978.189-1.472-.58.076-1.162.158-1.747.234.234.841.24 1.055.794 1.615.439.443 1.065.27 1.396-.178.362-.494.377-.805.591-1.488l-1.625.214c.403.545.724 1.136.953 1.773.305.683 1.492.515 1.625-.214.107-.586.214-1.166.316-1.752l-1.625.214c.193.412.387.825.575 1.243.21.606.999.907 1.488.392 1.844-1.956-.296-3.383-2.282-3.724-2.619-.448-4.845-.688-7.433-1.442-3.153-.922-8.803-1.192-10.933-3.963-.229-.301-.6-.545-1.003-.408-3.704 1.274-1.717 6.822.78 8.442 2.495 1.62 6.2 1.467 9.026 1.645 4.137.26 8.279.505 12.42.754.505.031.856-.433.887-.886.132-1.941.85-3.011-1.08-4.015-1.35-.703-3.194-.616-4.692-.815-2.313-.3-4.111-1.171-6.22-2.022-2.277-.917-4.661-1.61-6.985-2.405-1.06-.361-3.632-1.813-4.62-1.487-1.528.509-1.238 2.241-.815 3.515.356 1.08 1.987.647 1.712-.474-.077-.306-.148-.611-.225-.917l-1.711.474c.224.866.453 1.732.677 2.598.29 1.106 1.987.642 1.712-.474-.112-.463-.23-.932-.341-1.396-.28-1.08-1.997-.611-1.722.505zm51.875 10.423c0-.016 0-.031-.005-.046-.025-.413-.26-.729-.652-.856l-.051-.015c-.397-.133-.779.097-1.003.407-1.055 1.473.85 3.194 1.879 3.984.367.28 1.014.066 1.218-.321.265-.514.214-1.054-.25-1.436-.295-.245-.529-.164-.855-.281-.209.056-.321-.03-.342-.259a2.819 2.819 0 01-.025-.622c-.01-1.095-.306-2.659-1.839-2.236-1.197.331-1.524 1.971-1.452 3.041.097 1.442 1.243 2.41 2.435 3.036 1.014.53 1.91-1.003.896-1.533-.611-.321-1.38-.739-1.538-1.478-.082-.387.127-.733.112-1.105l.061-.219c-.148-.026-.29-.056-.438-.082-.066.046-.015.647-.015.724 0 .682.122 1.36.586 1.885.514.58 1.069.58 1.783.652l-.627-.26c-.02-.051-.041-.102-.056-.153l.092-.683c-.021.041-.041.082-.061.118l1.217-.321c-.224-.168-1.513-1.177-1.243-1.549-.336.138-.667.27-1.003.408l.05.015c-.219-.285-.433-.571-.652-.856 0 .015 0 .031.006.046.066 1.131 1.844 1.141 1.772-.005z" fill="#153051"/><path d="M99.584 114.512c-.03 6.445 1.452 12.492 6.388 16.929 1.697 1.523 4.213-.963 2.512-2.512-1.401-1.278-2.552-2.496-3.699-4.04-1.329-1.793-4.264-.229-3.071 1.794.779 1.319 1.564 2.282 2.751 3.28 1.747 1.468 4.034-.774 2.511-2.511-3.082-3.53-5.41-12.328-2.756-16.628a722.136 722.136 0 00-3.25-.423c.061.285.117.571.178.851.408 1.956 3.581 1.528 3.49-.474.524-2.022 1.655-3.372 3.398-4.05-.719-.932-1.437-1.859-2.155-2.792-1.574 1.33-2.583 2.655-3.439 4.519 1.085.459 2.165.912 3.25 1.371.866-4.163 4.279-5.905 8.059-6.924 2.211-.596 1.279-3.963-.947-3.428-2.308.555-3.999 1.538-5.629 3.265-1.569 1.661.912 4.157 2.511 2.512 10.347-10.617 34.188-.734 30.24 14.885 1.085-.142 2.165-.285 3.25-.422-1.548-2.558-.825-6.424-1.976-9.318-1.162-2.909-3.057-5.415-4.937-7.891-1.365-1.798-4.452-.031-3.071 1.793 2.226 2.934 4.793 6.134 5.461 9.868.509 2.863-.128 4.743 1.452 7.346.774 1.279 2.868 1.085 3.25-.423 4.809-19.022-23.276-31.59-36.185-18.35l2.511 2.512a8.003 8.003 0 014.06-2.354l-.947-3.428c-5.018 1.355-9.42 3.999-10.54 9.404-.383 1.849 2.358 3.306 3.25 1.37.713-1.554 1.574-2.695 2.883-3.8 1.6-1.35-.438-3.694-2.155-2.792-3 1.574-5.323 3.485-5.16 7.122l3.489-.474c-.061-.285-.117-.57-.178-.85-.326-1.559-2.486-1.656-3.25-.423-3.566 5.756-.902 16.108 3.311 20.932l2.512-2.511a6.447 6.447 0 01-2.196-2.563c-1.024.596-2.048 1.198-3.072 1.794 1.294 1.742 2.649 3.296 4.254 4.763l2.511-2.512c-4.238-3.81-5.369-8.915-5.344-14.412.041-2.292-3.515-2.297-3.525-.005z" fill="#153051"/><path d="M99.538 123.29c1.264 3.184 3.475 5.767 5.497 8.507l2.43-2.43-.418-.31c-1.671-1.248-3.474 1.375-2.155 2.791 1.671 1.794 3.429 2.863 5.762 3.592 1.702.535 2.985-1.758 1.732-2.97l-2.965-2.873c-1.666-1.61-3.994.794-2.511 2.511 5.736 6.669 17.03 6.057 24.677 3.378 3.831-1.34 6.607-3.689 8.691-7.143 1.554-2.577 3.943-6.699 1.987-9.689-.311-.479-.917-.963-1.534-.881-2.511.326-2.644 2.17-3.52 4.36-1.875 4.677-4.87 8.697-9.949 10.047-2.211.585-1.274 4.019.947 3.428 3.48-.922 6.327-2.782 8.61-5.583 1.1-1.35 1.997-2.853 2.751-4.422.789-1.646 3.362-7.346-1.279-.999-1.595 2.181-2.41 4.524-4.824 6.088-2.237 1.452-4.876 2.058-7.479 2.435-5.731.836-12.445 1.253-16.562-3.535l-2.511 2.511 2.965 2.873c.575-.988 1.151-1.981 1.732-2.97-1.763-.555-2.955-1.35-4.193-2.679-.718.932-1.436 1.859-2.155 2.791l.418.311c1.401 1.05 3.464-1.029 2.43-2.43-1.778-2.409-4.024-4.86-5.135-7.657-.846-2.099-4.284-1.182-3.439.948z" fill="#153051"/><path d="M144.425 120.249c.672-.021 1.344-.046 2.017-.067l-.474-3.489c-1.121.285-1.385.402-2.379.993.718.933 1.437 1.86 2.155 2.792.387-.392 3.958.097 4.361.127 1.177.092 1.992-1.207 1.711-2.251-.748-2.843-4.177-2.869-6.306-1.789l2.43 2.43c-.657.907 1.732-.127 2.628-.081-.234-.01.474.351.576.351 1.212.006 1.498-.061 2.624-.774-.872-.356-1.743-.708-2.614-1.065.265 1.401.683 2.527 1.315 3.791.83 1.65 3.255.764 3.311-.897l.092-2.669h-3.556c.178 7.58 4.004 13.999 11.666 16.179 2.206.627 3.148-2.802.947-3.428-6.011-1.712-8.915-6.801-9.057-12.751-.056-2.293-3.48-2.288-3.556 0l-.092 2.669c1.105-.301 2.211-.596 3.311-.897a7.468 7.468 0 01-.957-2.939c-.209-1.116-1.697-1.635-2.614-1.065-.356.214-.703.443-1.044.683h1.793c-2.231-1.08-6.24-1.136-7.86 1.095-1.126 1.554.993 3.164 2.43 2.43l1.085-.336c.57-.749 1.141-1.498 1.711-2.252-2.099-.163-5.211-.769-6.872.912-1.406 1.421.397 3.841 2.155 2.792.509-.209 1.019-.423 1.528-.632 2.033-.525 1.452-3.337-.474-3.489-1.36-.107-1.625-.057-2.964.193-2.222.428-1.269 3.851.973 3.434z" fill="#153051"/><path d="M152.458 114.635l-.086.193c.509-.295 1.024-.585 1.533-.881-.081.01-.158.015-.239.025.509.296 1.024.586 1.533.882.107-.459.209-.922.316-1.381-1.085-.142-2.165-.285-3.25-.423.056.489.107.984.163 1.473h3.556c.107-5.533 3.138-8.207 6.678-11.947 1.467-1.548-.372-3.576-2.155-2.791-2.093.922-3.581 2.878-4.773 4.794-1.085 1.732 1.365 3.55 2.792 2.154 2.19-2.144 4.498-4.33 7.111-5.94 2.639-1.625 5.497-1.905 8.488-2.445 1.951-.351 1.528-3.678-.474-3.49-2.558.24-4.692 2.074-7.199 2.17-2.282.087-2.292 3.643 0 3.557 2.68-.102 4.596-1.926 7.199-2.17l-.474-3.49c-3.296.596-6.449.988-9.333 2.807-2.858 1.798-5.43 4.141-7.83 6.495.932.718 1.86 1.437 2.792 2.155.835-1.34 2.002-2.858 3.5-3.515-.719-.932-1.437-1.86-2.155-2.792-4.279 4.519-7.591 7.912-7.718 14.458-.046 2.287 3.51 2.287 3.556 0 .02-1.039-.031-1.411-.291-2.42-.377-1.472-2.506-1.752-3.25-.423-.866 1.549-1.355 3.378-.316 4.972.321.489.907.948 1.534.882.081-.011.158-.016.239-.026.586-.061 1.274-.285 1.534-.881l.086-.194c.917-2.088-2.145-3.897-3.067-1.808z" fill="#153051"/><path d="M174.721 98.389c1.11.071 2.216.142 3.326.219 2.293.147 2.262-3.378 0-3.556-1.763-.138-3.204 0-4.911.387.459 1.085.912 2.165 1.371 3.25 2.852-1.722 5.512.316 7.931 1.508.459-1.085.912-2.165 1.371-3.25-2.303-.494-3.801-1.625-6.185-1.457l.474 3.49c4.57-1.203 8.742 2.537 11.513 5.848 2.935 3.505 4.789 8.655 3.724 13.174h3.429c-.408-2.282-.474-4.407-.306-6.704.168-2.282-3.388-2.272-3.556 0-.193 2.603-.025 5.084.433 7.651.311 1.748 3.042 1.641 3.429 0 2.414-10.259-7.917-26.475-19.608-23.393-1.89.5-1.569 3.633.473 3.49.439-.03 4.112 1.09 5.237 1.33 1.865.402 3.271-2.313 1.371-3.25-3.831-1.886-7.453-3.959-11.519-1.509-1.752 1.055-.585 3.699 1.371 3.25a8.662 8.662 0 013.968-.26v-3.555a618.61 618.61 0 01-3.326-.22c-2.298-.152-2.288 3.404-.01 3.557z" fill="#153051"/><path d="M164.369 134.054c4.539 3.23 13.648 2.583 18.813 1.36 4.932-1.166 8.951-4.819 11.463-9.062 1.018-1.727 4.579-8.248.529-9.15-1.411-.311-2.241.673-2.817 1.788-1.681 3.256-2.572 6.501-4.819 9.527-1.365 1.839 1.722 3.617 3.072 1.793 1.462-1.977 3.459-4.595 4.009-7.046.785-3.51-1.686-.514-2.695.698-1.309 1.569-1.987 3.337-3.627 4.718-2.838 2.389-5.899 3.454-9.608 3.734-3.576.275-9.526.698-12.527-1.432-1.869-1.329-3.647 1.753-1.793 3.072zm49.619-24.763c0 .03-.005.056-.005.086-.117 1.457 2.088 2.456 3.036 1.259-.183.071-.367.147-.555.219-.51-.296-1.024-.586-1.534-.882.189-.499.372-.998.561-1.497h1.793c-.306.779-.606 1.559-.912 2.333-.295-.509-.586-1.024-.881-1.533.056-.143.117-.281.173-.423l2.97.784c-.031-.188-.066-.377-.097-.57-.153.575-.306 1.151-.458 1.732-1.325 1.447-.281.412-.872-.785-.214-.433-.942-.907-1.11-1.299v1.793c.204-.29.336-.56.392-.912.189-1.181-.469-2.175-1.712-2.251-1.93-.122-4.177 1.319-6.052 1.768-2.883.687-5.843.932-8.726 1.635-1.931.468-1.544 3.571.474 3.489 2.149-.081 4.299-.361 6.449-.315 2.608.061 6.047-.347 8.492.621 2.13.841 3.052-2.593.948-3.428-4.626-1.834-11.009-.627-15.884-.433l.473 3.489c2.446-.596 4.927-.876 7.392-1.355 1.834-.356 4.687-2.033 6.44-1.926a602.058 602.058 0 01-1.712-2.251c-.484 3.026 3.652 8.731 6.704 4.687 1.233-1.631.973-4.794-1.034-5.767-2.262-1.096-3.892.896-3.525 3.005.239 1.371 2.088 1.646 2.97.785 1.63-1.584.692-4.442-1.773-4.101-2.15.295-2.68 3.092-.917 4.284.524.357 1.263.296 1.793 0 3.021-1.686-.581-6.22-2.782-3.423 1.014.418 2.023.835 3.037 1.258 0-.03.005-.056.005-.086.178-2.272-3.378-2.257-3.561.01z" fill="#153051"/><path d="M215.547 111.125c-.311.127-.719.341-1.04.305-.249-.03-.601-.27-.871-.341-.815-.214-1.661-.199-2.496-.148-2.272.143-2.287 3.699 0 3.556.912-.056 1.462.031 2.313.316 1.029.346 2.063.138 3.041-.26.892-.362 1.518-1.182 1.243-2.185-.234-.846-1.294-1.605-2.19-1.243zm-73.685 93.15c1.335 1.502 3.036-.133 4.478-.79 2.573-1.177 5.369-2.012 7.835-3.388.367-.203.224-.677-.107-.81-1.503-.611-3.327.953-4.62 1.529-2.339 1.034-5.059 2.644-7.611 2.939-.377.046-.678.627-.225.83.245.107.489.214.729.321.52.23.973-.54.448-.769-.244-.107-.489-.214-.728-.321-.077.275-.148.55-.224.831 1.737-.199 3.234-.984 4.829-1.666.953-.408 1.905-.81 2.853-1.223.993-.438 3.245-2.043 4.315-1.605l-.107-.81c-1.697.948-3.622 1.518-5.4 2.298-.846.372-5.105 2.837-5.833 2.022-.382-.443-1.009.184-.632.612zm-93.155-18.508H.856c-1.146 0-1.146 1.778 0 1.778h47.851c1.146 0 1.146-1.778 0-1.778zm220.432 0h-47.851c-1.146 0-1.146 1.778 0 1.778h47.851c1.146 0 1.146-1.778 0-1.778zm-64.591-13.918s-.041-.147-.077-.392c-.035-.229-.091-.555-.157-.948a47.952 47.952 0 01-.383-2.715c-.101-.988-.142-2.007-.101-2.807.03-.8.183-1.385.183-1.385s.423.427.81 1.156c.402.723.754 1.763.876 2.858.031.55.061 1.1-.025 1.625a5.404 5.404 0 01-.357 1.401c-.321.825-.769 1.207-.769 1.207z" fill="#153051"/><path d="M149.412 193.179c3.785 14.723 22.038 8.849 32.634 7.489 12.568-1.61 31.218-2.232 39.181-13.75.326-.474-.443-.917-.769-.448-7.402 10.703-24.963 11.564-36.685 13.087-6.347.826-12.7 1.697-19.068 2.354-6.694.693-12.649-1.992-14.442-8.966-.133-.555-.994-.321-.851.234z" fill="#153051"/><path d="M157.237 201.351c.341.086.688.173 1.029.254.362.092.591-.219.545-.545-.041-.29-.143-.377-.372-.535-.372-.254-.835.24-.606.606.407.663.29.53.876 1.045.352.305.81.005.744-.433l-.107-.708-.545.545c.219.112.433.224.652.341.148.112.418.066.54-.071l-.046.061a.448.448 0 00.627 0c.045.015.091.025.132.041.112.091.28.178.433.112.122-.005.25-.01.372-.01.275.147.54.005.652-.265.061-.143.117-.291.178-.433-.249.066-.494.132-.743.193l.433.342c.264.208.626.142.743-.194-.005.087-.015.168-.02.255.194.168.576.188.698-.092l-.189.112a54.526 54.526 0 00-.427-.56c-.357.025-.709.035-1.065.035.041.291.076.581.117.871 1.085-.295 1.681.454 2.323-.504a.43.43 0 000-.448c-.056-.082-.117-.163-.173-.245-.235.179-.464.357-.698.54.142.174.285.352.423.525.249.306.764.046.759-.316-.005-.163-.005-.326-.01-.484-.189.143-.377.285-.561.428l.571.214c.163.061.433-.036.504-.204.056-.137 1.121.123.723-.076.286.143.683-.026.668-.382-.005-.158-.015-.316-.021-.474-.254.107-.504.209-.759.316.169.168.342.336.51.499.219.214.53.143.698-.092l.336-.015.107-.81c.031.24.056.479.087.718.219-.086.433-.178.652-.264-.031.081-.061.163-.092.249.076-.275.148-.55.224-.83.275-.041.555-.087.83-.128.087.219.179.433.265.653.087.015.174.03.26.05.143-.188.285-.377.428-.56l-.718-.183c-.112.27-.229.54-.342.81-.193-.128-.387-.26-.58-.387-.24.514.524.967.769.448l.107-.229c.081-.174.087-.398-.071-.54-.067-.062-.138-.123-.204-.184-.194-.173-.433-.158-.627 0-1.029.831.372 1.855 1.284 1.009a.44.44 0 00.112-.433c-.117-.326-.199-.454-.55-.535-.469-.107-.815.581-.341.81.54.265.56.275 1.166.306.275.015.52-.296.428-.561-.356-1.024-1.263-1.136-1.885-.26-.153.214-.005.617.265.652.056.006.107.016.163.021.26.036.448-.061.545-.311l.077-.188c.066-.163-.041-.428-.204-.505-.627-.28-1.284-.361-1.788.184-.148.158-.153.351-.072.54.031.071.067.147.097.219.056.127.245.239.382.219.067-.01.133-.016.204-.026.443-.056.596-.555.224-.83-.443-.326-.514-.336-1.029-.133-.183.072-.326.22-.326.428-.005.607.036.658.55.994.23.148.596.01.652-.265.174-.83-.601-1.635-1.319-.902-.183.184-.153.438 0 .627l.076.092c.097.117.296.157.433.112l.102-.031c.377-.112.423-.601.107-.81-.647-.428-1.115-.27-1.553.331l.697-.092a47.434 47.434 0 00-.509-.499c-.265-.26-.774-.081-.759.316.005.158.015.316.02.474.224-.128.449-.255.668-.382-.107-.051-.214-.107-.321-.158-.235-.117-.454-.041-.606.158-.077-.056-.153-.117-.23-.173-.188-.107-.514-.067-.606.157-.081-.005-.163-.005-.239-.01-.27-.102-.566.158-.561.428.005.163.005.326.01.484.255-.107.505-.209.759-.316a38.747 38.747 0 01-.422-.524c-.316-.388-.989.127-.698.54-.337-.479-1.187-.225-1.62-.107-.479.132-.387.881.117.871.525-.01 1.034.005 1.549-.102a.435.435 0 00.31-.311l.061-.275c.067-.301-.132-.535-.427-.56-.046-.005-.097-.011-.143-.011-.138-.01-.326.092-.382.219-.015.041-.036.077-.051.118l.698-.092c-.55-.479-1.172-.718-1.462.138.249-.067.494-.133.743-.194l-.433-.341c-.28-.219-.606-.133-.743.193-.061.143-.117.291-.179.433.219-.086.433-.178.652-.265-.224-.117-.922-.203-1.08-.331-.183-.148-.448-.188-.626 0-.005-.005-.01-.01-.021-.01-.163-.163-.468-.178-.626 0 .056-.061-.963-.341-.571-.224-.356-.107-.596.234-.545.545.036.234.072.469.107.708.25-.143.494-.29.744-.433-.245-.285-.489-.576-.734-.861l-.606.606c-.01 0-.025.005-.035.005l.545-.545a81.145 81.145 0 00-1.029-.254c-.576-.138-.81.723-.255.861z" fill="#153051"/><path d="M164.506 201.636c.011.076.026.158.036.234.082.52.846.357.871-.117l.657.199c.077-.275.148-.55.225-.831.585.281 1.171.566 1.762.846l-.107-.81c.438.178.876.352 1.315.53.341.321.82-.005.743-.433.739-.265 1.473-.535 2.211-.8l.107.81c.561-.168 1.121-.331 1.681-.499.25.26.632.107.744-.194-.102-.01-.204-.02-.3-.025.29-.041.58-.077.871-.117.071-.041.137-.082.209-.128-.107.357.331.724.652.504.152.011.305.016.458.026.077-.275.148-.55.224-.83l.077.657c.173.397.871.204.83-.224-.051.01-.097.015-.148.025.199.377.866.214.831-.224a13.699 13.699 0 01-.041-.494l-.759.316c.087-.204.168-.413.255-.617-.031-.224-.347-.387-.545-.311.529.097 1.059.189 1.589.286.112.27.229.54.341.81.433-.347.866-.688 1.299-1.034-.142.351.255.591.545.545.301.04.602.076.897.117.535.199.769-.662.234-.856-.962-.357-.514-.326-.748.239.081-.203-.092-.514-.311-.545-.53-.081-.561-.025-1.065.301-.183.117-.239.295-.204.504.026.168.056.336.082.505.03.198.249.315.428.326.443.025.54-.051.8-.413.086-.117.081-.331 0-.448-.459-.673-.923-.515-1.59-.199-.143.066-.209.234-.219.382-.031.52.285 1.06.876.861a.463.463 0 00.326-.428c.011-.57-.28-.621-.774-.963-.127-.086-.316-.076-.448 0-.194.112-.393.224-.586.342-.428.249-.148.968.341.81.071-.026.148-.046.219-.072.138-.046.28-.158.311-.311l.046-.244c.046-.255-.072-.453-.311-.545-.632-.245-.652-.219-1.228.158-.249.163-.285.474-.091.698.31.351.708.657 1.212.484.168-.056.346-.23.326-.428-.102-.882-.718-1.085-1.477-.856-.133.041-.291.158-.311.311-.061.428-.051.54.245.871.147.168.483.178.626 0 .296-.367.352-.454.27-.922a.433.433 0 00-.311-.311c-.428-.082-.468-.02-.947.183-.199.082-.311.214-.326.428-.036.459.035.55.402.82.194.143.499.031.606-.157.067-.118.133-.23.204-.347a.457.457 0 00-.071-.54c-.688-.728-2.629-.993-2.512.433.021.26.27.54.561.428.611-.234.861.484 1.579.28a.444.444 0 00.311-.31c.102-.454.097-.576-.25-.902-.26-.24-.795-.092-.759.316.015.163.031.331.041.494.275-.077.55-.148.83-.224-.468-.912-1.61-.637-1.508.428.275-.077.55-.148.831-.225-.031-.076-.067-.147-.097-.224-.061-.137-.24-.219-.382-.219-.331-.005-.433.021-.718.179-.174.091-.255.315-.204.504l.03.117a.457.457 0 00.428.326c.036 0 .066.005.102.005.489.026.54-.586.224-.83-.147-.112-.295-.229-.443-.342-.117-.086-.331-.081-.448 0-.153.107-.306.214-.464.316.219.168.433.337.652.505.199-.647-.285-.892-.851-.999-.198-.035-.397.026-.504.204-.071.117-.142.239-.214.357-.132.224-.03.463.158.606.056.046.117.086.173.132.133.102.311.056.449 0 .061-.025.127-.056.188-.081.24-.102.245-.413.158-.607l-.122-.29c-.061-.143-.24-.219-.382-.219-.433-.01-.489.005-.856.229a.454.454 0 00-.204.505c.031.096.056.193.087.29.137.469.891.397.871-.117-.026-.622-.224-.494-.612-.871-.122-.123-.422.173-.54.142-.825-.214.953.851.123-.015-.148-.153-.362-.153-.54-.071-.133.061-.265.127-.398.188-.183.087-.244.321-.203.505.071.336.137.443.458.575.296.123.673-.015.667-.382 0-.066 0-.132-.005-.198a.441.441 0 00-.219-.383c-.392-.214-.479-.203-.906-.04-.174.066-.342.224-.327.428.011.112.016.224.026.336a.453.453 0 00.443.443c.342.02.469-.066.657-.351.209-.311-.081-.627-.382-.668-1.024-.132-.789-.153-1.706.311-.342.173-.255.723.107.81.086.02.173.041.259.066a.46.46 0 00.505-.204c.051-.081.107-.158.158-.239.112-.163.061-.403-.072-.54-.448-.464-1.029-.459-1.324.163-.107.229-.056.464.158.606.066.046.137.092.204.138.239.163.585 0 .652-.265.02-.087.045-.173.066-.255.036-.137.005-.336-.112-.433-.703-.545-1.141-.55-1.753.041-.183.178-.147.443 0 .626.377.464.444.454 1.04.505.321.03.57-.403.382-.668-.622-.871-1.951-1.069-2.211.189-.056.275.122.57.428.56.117-.005.234-.005.351-.01.265-.005.53-.28.428-.56-.418-1.126-2.231-.836-1.997.463.25-.142.494-.29.744-.433-.846-.794-2.145-.947-2.552.321-.062.194.045.398.203.505.347.229.479.208.851.04.362-.163.234-.718-.107-.81-.657-.183-1.253-.356-1.869.011-.265.157-.27.478-.092.697.025.036.056.067.081.102.123.148.382.163.54.072.031-.016.056-.036.087-.051.295-.179.28-.586 0-.77-.474-.31-.545-.351-1.08-.183-.214.066-.397.316-.311.545l.061.168c.067.168.224.347.428.326l.153-.015c.387-.041.673-.627.224-.83-.54-.245-.474-.24-1.054-.321-.219-.031-.372.025-.505.203-.214.291-.239.418-.107.749.128.321.474.428.744.194.27-.234.316-.346.28-.698-.025-.245-.183-.433-.443-.443l-.433-.015c-.25-.011-.433.213-.443.443-.01.153-.015.305-.026.453.291-.041.581-.076.872-.117-.011-.076-.026-.158-.036-.234-.071-.571-.927-.332-.836.229z" fill="#153051"/><path d="M190.951 198.396l-1.462-.397-.443.443c-.173-.173-.352-.342-.525-.515.102.184.209.367.311.545.051-.229-2.95-.03-3.337.061-.565.128-1.105.337-1.656.5-.305.091-2.002.326-2.093.392.086.097.168.194.254.29a11.568 11.568 0 011.727-.107c.372-.046.734-.117 1.106-.183 1.156-.209 2.308-.413 3.464-.606.56-.097.326-.953-.234-.856-1.855.311-3.694.54-5.548.784-.586.077-1.89.194-1.844 1.04.01.214.132.356.326.428 1.64.621 3.647-.693 5.237-.897.952-.122 2.863.509 3.362-.759.071-.183-.051-.408-.204-.504-.423-.26-.917-.22-1.365.045-.122.072-.234.235-.219.382.193 1.824 2.73-.585.647-.769-.184-.015-.387.148-.428.326l-.046.204c-.051.229.066.489.311.545.463.117.805-.005 1.187-.239.158-.097.27-.316.204-.505-.021-.056-.036-.107-.056-.163-.067-.188-.225-.326-.428-.326h-.148c-.234 0-.453.204-.443.444.071 2.435 2.781-.321 1.187-.449-1.539-.117.377 2.685 1.003.775.051-.153-.01-.316-.112-.433-.046-.051-.092-.097-.132-.148-.107-.122-.28-.148-.433-.112-.061.015-.123.025-.184.04a.437.437 0 00-.31.311c-.489 2.033 2.954.775 1.411-.397-.123-.092-.326-.077-.449 0-.025.015-.045.03-.071.046-.499.295-.056 1.064.433.764z" fill="#153051"/><path d="M205.144 194.85c-.031.163-.056.331-.087.494h-.855c-.072-.035-.138-.071-.209-.107v.77l-.153-.739c-.066.25-.133.494-.194.744a342.23 342.23 0 00-1.024-.596l-.107.81c-.051-.153-.097-.306-.147-.459-.464.265-.133.892.341.81.249-.041.494-.081.744-.127-.143-.25-.291-.494-.433-.744-1.325 1.111-4.463.795-6.149 1.167-2.018.443-3.75.891-5.838.978v.886c.886-.112 1.696-.387 2.577-.57.123-.026 3.337-.586 2.053-.632.041.29.077.581.118.871 2.333-.438 4.421-1.319 6.683-1.864.556-.133.321-.989-.234-.856-2.252.54-4.361 1.426-6.684 1.864-.509.097-.361.856.117.871.479.021.724.118 1.096-.081.193-.102.229-.311.203-.504-.234-1.712-5.094-.097-5.929.01-.551.071-.586.912 0 .886 2.368-.097 4.289-.672 6.607-1.105 2.028-.377 4.366.076 6.006-1.299.377-.316-.046-.81-.433-.744-.249.041-.494.081-.744.127.113.27.23.54.342.81.463-.265.713-.3.759-.81.015-.148-.092-.316-.219-.382-.377-.204-.627-.061-1.075.026-.382.076-.423.631-.107.81.81.468 2.654.636 1.956-.897-.076-.168-.331-.26-.504-.204a3.273 3.273 0 01-.219.071c-.296.097-.464.51-.194.744 2.211 1.895 3.138-2.369.331-.657-.275.168-.3.606 0 .769.826.449 1.788.184 1.513-.896-.112-.449-.718-.398-.856 0-.524 1.508 1.519 1.706 1.804-.021.092-.55-.764-.789-.856-.224z" fill="#153051"/><path d="M214.772 191.07c.367.28.433.311.194.107-.24-.219-.657-.143-.744.194-.321 1.294.591-.26.092.117-.082.061-.326-.127-.423-.031-.372.387-.428.184-.54.826.219-.087.433-.179.652-.265a2.23 2.23 0 01-.397-.24c-.128-.086-.316-.076-.449 0-.31.184-.27.581-.458.713.148-.101-1.192.367-1.06.306-2.802 1.218-5.838 2.965-8.874 3.352.107.255.209.505.316.759 1.498-1.528 4.631-1.757 6.536-2.649.519-.239.066-1.008-.448-.769-1.931.902-5.176 1.212-6.72 2.787-.244.249-.087.81.316.759 3.342-.428 6.139-2.369 9.272-3.439.336-.117.861-.158 1.125-.296.586-.305.118-.662.393-.514.229.122.601.03.652-.265l-.194-.148a.44.44 0 00.433.112c.464-.132.52-.428.627-.876-.25.066-.494.133-.744.194.102.081.189.173.265.275a.428.428 0 00.433.112c.555-.194.555-.571.627-1.121.076-.565-.81-.56-.882 0zm-10.168-20.703c-.127-.805.092-1.641.107-2.451.01-.743-.173-1.65.02-2.374h-.856c.377 1.697.591 3.246.393 4.993-.066.565.825.56.886 0 .209-1.829-.03-3.454-.423-5.227-.096-.433-.749-.413-.856 0-.219.825-.035 1.763-.05 2.608-.016.907-.214 1.783-.077 2.685.092.566.948.326.856-.234zm-54.785 19.98c-.723 3.759-.697 7.433 2.527 10.01 3.648 2.919 8.976 2.741 13.302 1.951.56-.101.326-.957-.235-.855-3.571.652-7.697.86-11.034-.851-4.086-2.094-4.473-5.971-3.699-10.021.102-.555-.754-.795-.861-.234z" fill="#153051"/><path d="M151.149 198.248c1.518 1.488 3.036 2.399 5.038 3.108.54.193.775-.668.235-.856-1.87-.663-3.23-1.493-4.646-2.879-.408-.402-1.034.225-.627.627zm-86.965-29.313c.468-1.783 1.451-3.403 2.582-4.839-.25-.143-.494-.291-.743-.433-.897 2.521-2.069 5.002-2.593 7.636-.112.56.744.8.855.234.52-2.628 1.697-5.114 2.594-7.636.142-.403-.47-.78-.744-.433-1.233 1.564-2.303 3.291-2.812 5.232-.143.56.713.794.86.239zm-12.227-3.724c-3.255 3.76-5.619 7.244-5.935 12.308-.295 4.733.556 8.981 3.724 12.644 5.981 6.908 16.129 10.123 23.679 3.79.438-.366-.194-.993-.627-.626-7.366 6.174-17.336 2.557-22.787-4.284-5.93-7.443-3.051-16.705 2.578-23.2.372-.433-.255-1.065-.632-.632z" fill="#153051"/><path d="M65.437 195.747a14.25 14.25 0 01-5.456-1.07c-1.396-.576-2.68-1.376-3.928-2.14-1.976-1.217-4.213-2.598-5.655-4.697a12.145 12.145 0 01-1.075-1.971c-2.46-5.528-2.037-12.181 1.096-17.357a.445.445 0 01.759.464c-2.985 4.931-3.388 11.269-1.044 16.536.32.724.646 1.32.998 1.829 1.335 1.941 3.49 3.271 5.39 4.442 1.217.749 2.47 1.529 3.8 2.079 2.817 1.166 6.103 1.319 9.012.423 1.406-.433 2.425-1.029 3.102-1.814.805-.932 1.08-2.201.678-3.153-.418-.999-1.472-1.636-2.608-2.247a.444.444 0 01.423-.779c1.283.692 2.475 1.416 3.01 2.684.535 1.279.21 2.879-.83 4.076-.795.917-1.941 1.594-3.515 2.078a14.104 14.104 0 01-4.157.617zm56.725 1.492c4.646 2.359 9.669 4.096 14.489 6.073 3.54 1.457 5.293 2.634 8.533.728.988-.58.091-2.114-.897-1.533-3.158 1.854-6.567-.688-9.745-2.048-3.811-1.63-7.779-2.878-11.483-4.758-1.019-.515-1.915 1.019-.897 1.538zm-11.365-29.761c2.053-.876 3.953-1.951 5.812-3.179 1.687-1.115 3.47-1.956 5.207-2.98.494-.29.046-1.059-.448-.769-1.738 1.024-3.516 1.865-5.207 2.98-1.859 1.228-3.759 2.303-5.812 3.179-.525.224-.077.988.448.769zm-3.551-74.183c2.425-.79 5.105-2.079 6.286-4.463 1.503-3.021.994-6.286.362-9.465-.112-.566-.947-.321-.856.234.235 1.411.5 2.827.703 4.244.301 2.098-.127 3.724-1.182 5.542-.285.494.479.943.77.448 2.114-3.652 1.238-6.434.565-10.473-.285.076-.57.157-.856.234.55 2.797 1.08 5.726-.142 8.426-1.085 2.39-3.48 3.627-5.884 4.412-.54.183-.311 1.039.234.86z" fill="#153051"/><path d="M114.001 80.11c-.209-1.32-1.146-2.22-2.18-2.97l-.107.81c1.538-.392 2.511 1.32 2.654 2.634l.759-.316c-.754-.759-1.019-1.874-1.778-2.639-.402-.407-1.034.224-.626.627.753.759 1.018 1.875 1.777 2.639.25.25.8.081.759-.316-.203-1.915-1.604-4.045-3.774-3.495-.398.102-.398.601-.107.81.861.622 1.599 1.345 1.767 2.435.087.581.943.342.856-.219zm19.379-3.245c.438 1.845 2.644 2.818 4.366 2.023 2.094-.968 1.757-4.6 1.421-6.455-.285.077-.57.158-.856.235.443 1.273.79 3.153.235 4.457-.219.52.545.973.769.448.657-1.548.392-3.591-.143-5.14-.188-.545-.958-.326-.856.235.24 1.33.377 3.092-.152 4.376-.754 1.829-3.485 1.436-3.923-.418-.133-.55-.993-.316-.861.24z" fill="#153051"/><path d="M139.101 72.555c-.24-.749-.688-1.355-1.014-2.063l-.606.606c.947.459 1.778 1.106 2.328 2.018.54.896.591 1.849.892 2.817.422 1.365 1.737 2.338 3.031 2.812.54.199.769-.662.234-.856-1.335-.489-2.272-1.498-2.562-2.878-.148-.688-.296-1.345-.622-1.977-.627-1.207-1.635-2.119-2.853-2.705-.412-.198-.8.199-.606.606.295.632.713 1.182.927 1.855.168.545 1.029.31.851-.235zm22.986 4.692c-.617 0-1.259-.28-1.758-.784-.581-.591-.891-1.365-1.146-1.992-.479-1.202-.917-2.384-.948-3.653a.444.444 0 01.433-.453h.01c.24 0 .439.193.444.433.025 1.115.433 2.221.881 3.342.28.698.53 1.268.953 1.696.361.367.957.652 1.467.464.351-.128.626-.459.83-.734a6.836 6.836 0 001.309-3.81c.016-.51-.035-.892-.152-1.218a.443.443 0 01.698-.494c.321.26.514.601.682.902.153.27.331.575.449.922.213.616.203 1.248.188 1.854-.01.469-.015.912.076 1.325.062.27.153.453.281.545.137.102.371.117.601.04.27-.091.524-.295.738-.479a12.225 12.225 0 001.936-2.078.9.9 0 01.26-.336.442.442 0 01.642.596 4.817 4.817 0 01-.127.178c-.021.061-.036.143-.051.204l-.031.132c-.219.882-.881 1.508-1.416 2.013-.454.428-.963.917-1.641 1.171-.647.245-1.513.214-2.007-.402a.445.445 0 01.214-.703 2.267 2.267 0 01-.28-.693c-.112-.52-.107-1.034-.097-1.533.01-.525.016-1.02-.117-1.468a7.829 7.829 0 01-1.457 3.867c-.275.377-.667.835-1.243 1.044a1.867 1.867 0 01-.621.102zm22.71-4.513c.163 1.518.362 3.067.8 4.534.245.81.632 1.701 1.431 2.093.79.388 1.457.112 2.074-.438 1.299-1.151 2.409-2.633 3.576-3.917l-.627-.627c-.682.846-3.886 5.843-5.226 4.575-.413-.392-1.045.234-.627.627.754.718 1.753.845 2.593.162.734-.596 1.309-1.543 1.905-2.277l1.987-2.46c.352-.438-.234-1.06-.626-.627-.617.673-1.228 1.35-1.845 2.023-.366.402-.733.81-1.105 1.212-.571.622-.469.708-1.452.51-.953-.194-.932-.27-1.202-1.1-.117-.363-.189-.745-.27-1.117a29.183 29.183 0 01-.499-3.183c-.056-.556-.948-.56-.887.01zm-56.7 74.667c5.899 8.304 18.732 10.194 28.228 10.714.285.015.285-.428 0-.443-9.18-.505-22.16-2.486-27.846-10.495-.163-.234-.545-.01-.382.224z" fill="#153051"/><path d="M128.077 147.346c2.211 9.786 16.078 10.631 24.218 10.794.286.006.286-.438 0-.443-7.845-.158-21.651-.978-23.79-10.469-.061-.28-.494-.163-.428.118z" fill="#153051"/><path d="M130.079 151.187c.937.922 1.844 2.058 2.995 2.71 1.167.667 2.405 1.131 3.582 1.757.254.133.478-.249.224-.382-1.08-.575-2.196-1.008-3.261-1.625-1.253-.728-2.195-1.757-3.229-2.771-.204-.204-.515.107-.311.311z" fill="#153051"/></g><defs><clipPath id="clip0_465_9473"><path fill="#fff" transform="translate(0 65.001)" d="M0 0h270v140.013H0z"/></clipPath></defs></svg>