<svg width="64" height="64" fill="none" xmlns="http://www.w3.org/2000/svg"><path d="M32 35a8 8 0 100 16 8.008 8.008 0 008-8 8 8 0 00-8-8zm0 13.333a5.333 5.333 0 110-10.666 5.333 5.333 0 010 10.666z" fill="#4D627C"/><path d="M35.437 48h-7.875c-3.622.004-6.558 2.987-6.562 6.667v8c0 .736.588 1.333 1.313 1.333h18.375c.724 0 1.312-.597 1.312-1.333v-8c-.004-3.68-2.94-6.663-6.563-6.667zm3.938 13.333h-15.75v-6.666c0-2.21 1.763-4 3.937-4h7.875c2.175 0 3.938 1.79 3.938 4v6.666zM53 28a8 8 0 100 16 8.008 8.008 0 008-8 8 8 0 00-8-8zm0 13.333a5.333 5.333 0 110-10.667 5.333 5.333 0 010 10.667z" fill="#4D627C"/><path d="M57.437 41h-7.875c-3.622.004-6.558 2.987-6.562 6.667h2.625c0-2.21 1.763-4 3.937-4h7.875c2.175 0 3.938 1.79 3.938 4v6.666h-15.75V57h17.063c.724 0 1.312-.597 1.312-1.333v-8c-.004-3.68-2.94-6.663-6.563-6.667zM11 28a8 8 0 000 16 8.008 8.008 0 008-8 8 8 0 00-8-8zm0 13.333a5.333 5.333 0 110-10.667 5.333 5.333 0 010 10.667z" fill="#4D627C"/><path d="M6.562 43.667h7.875c2.175 0 3.938 1.79 3.938 4H21c-.004-3.68-2.94-6.663-6.563-6.667H6.563C2.94 41.004.004 43.986 0 47.667v8C0 56.403.588 57 1.313 57h17.062v-2.667H2.625v-6.666c0-2.21 1.763-4 3.937-4zM33.036 0H3.964C1.774 0 0 1.79 0 4v16c0 2.21 1.775 4 3.964 4h12.668l7.541 7.61a1.316 1.316 0 001.44.289c.494-.207.816-.693.816-1.232V24h6.607C35.226 24 37 22.21 37 20V4c0-2.21-1.775-4-3.964-4zm1.321 20c0 .736-.591 1.333-1.321 1.333h-7.929c-.73 0-1.321.597-1.321 1.334v4.781l-5.673-5.724a1.315 1.315 0 00-.934-.39H3.963c-.73 0-1.321-.598-1.321-1.334V4c0-.736.591-1.333 1.321-1.333h29.072c.73 0 1.321.597 1.321 1.333v16zM60 7H40v2.714h20c.736 0 1.333.608 1.333 1.357V16.5c0 .75-.597 1.357-1.333 1.357H49.333c-.42 0-.814.201-1.066.543l-1.6 2.171v-1.357c0-.75-.597-1.357-1.334-1.357H40v2.714h4v4.072c0 .75.597 1.357 1.333 1.357.42 0 .815-.201 1.067-.543l3.6-4.886h10c2.21 0 4-1.822 4-4.071v-5.429C64 8.823 62.21 7 60 7z" fill="#4D627C"/><path d="M58 12H45v3h13v-3zm-15 0h-3v3h3v-3zM9 8a4 4 0 100 8 4 4 0 000-8zm0 5.333a1.333 1.333 0 110-2.666 1.333 1.333 0 010 2.666zM19 8a4 4 0 100 8 4 4 0 000-8zm0 5.333a1.333 1.333 0 110-2.666 1.333 1.333 0 010 2.666zM28 8a4 4 0 100 8 4 4 0 000-8zm0 5.333a1.333 1.333 0 110-2.666 1.333 1.333 0 010 2.666z" fill="#4D627C"/></svg>