<svg width="186" height="44" fill="none" xmlns="http://www.w3.org/2000/svg"><g clip-path="url(#clip0_465_9508)"><path fill="#fff" d="M0 .501h186v43H0z"/><path d="M107.87 17.427h-7.319v.79c2.289 0 2.658.501 2.658 3.46v5.335c0 2.959-.368 3.501-2.658 3.501-1.757-.25-2.943-1.209-4.579-3.043l-1.88-2.083c2.534-.46 3.883-2.084 3.883-3.918 0-2.292-1.921-4.043-5.52-4.043H85.26v.792c2.289 0 2.657.5 2.657 3.459v5.335c0 2.959-.368 3.501-2.657 3.501v.792h8.136v-.792c-2.29 0-2.657-.542-2.657-3.5v-1.5h.695l4.538 5.792h11.898c5.847 0 8.382-3.167 8.382-6.96s-2.535-6.918-8.382-6.918zm-17.13 6.792v-5.542h1.675c1.84 0 2.658 1.292 2.658 2.792 0 1.459-.818 2.75-2.658 2.75H90.74zm17.253 5.794h-.286c-1.472 0-1.676-.375-1.676-2.292v-9.044h1.962c4.253 0 5.029 3.167 5.029 5.626 0 2.542-.777 5.71-5.029 5.71zm-45.506-4.251l2.821-8.503c.818-2.459.45-3.167-2.166-3.167v-.834h7.686v.834c-2.576 0-3.189.625-4.21 3.667l-4.662 14.254h-.532l-4.17-13.045-4.252 13.045h-.532L47.932 17.76c-.982-3.043-1.636-3.667-4.008-3.667v-.834h9.077v.834c-2.412 0-3.067.583-2.208 3.166l2.74 8.503 4.13-12.503h.776l4.048 12.503zm13.901 6.084c-4.497 0-8.177-3.375-8.177-7.502 0-4.084 3.68-7.46 8.177-7.46 4.498 0 8.177 3.376 8.177 7.46 0 4.127-3.68 7.502-8.177 7.502zm0-13.67c-3.761 0-5.07 3.46-5.07 6.169 0 2.75 1.309 6.168 5.07 6.168 3.803 0 5.111-3.417 5.111-6.169 0-2.709-1.308-6.167-5.111-6.167zm49.962 12.295v.834h-9.363v-.834c2.74 0 3.231-.708 3.231-4.877v-6.667c0-4.168-.491-4.835-3.231-4.835v-.834h8.464c4.211 0 6.542 2.21 6.542 5.169 0 2.875-2.331 5.126-6.542 5.126h-2.331v2.041c0 4.169.491 4.877 3.23 4.877zm-.899-15.712h-2.331v7.252h2.331c2.29 0 3.352-1.625 3.352-3.584 0-2-1.062-3.668-3.352-3.668zm34.63 12.628l-.204.75c-.368 1.376-.818 1.876-3.721 1.876h-.573c-2.126 0-2.494-.5-2.494-3.459v-1.917c3.19 0 3.435.292 3.435 2.46h.777v-6.211h-.777c0 2.167-.245 2.458-3.435 2.458v-4.667h2.249c2.903 0 3.352.5 3.721 1.875l.205.792h.653l-.286-3.917h-12.02v.791c2.289 0 2.657.5 2.657 3.46v5.334c0 2.707-.312 3.389-2.117 3.487-1.716-.268-2.894-1.221-4.505-3.028l-1.881-2.084c2.534-.46 3.884-2.084 3.884-3.918 0-2.292-1.922-4.042-5.519-4.042h-7.196v.791c2.289 0 2.657.5 2.657 3.459v5.335c0 2.96-.367 3.501-2.657 3.501v.792h8.136v-.792c-2.289 0-2.657-.542-2.657-3.5v-1.5h.695l4.538 5.792h16.804l.246-3.917h-.615zm-21.669-3.168v-5.542h1.676c1.84 0 2.658 1.292 2.658 2.792 0 1.46-.818 2.75-2.658 2.75h-1.676zm29.969 7.627c-1.636 0-3.067-.875-3.68-1.417-.205.209-.572.834-.654 1.417h-.777v-5.75h.818c.327 2.75 2.207 4.375 4.62 4.375 1.308 0 2.371-.75 2.371-2 0-1.083-.94-1.917-2.616-2.709l-2.331-1.125c-1.636-.793-2.862-2.168-2.862-4.001 0-2 1.84-3.71 4.375-3.71 1.349 0 2.494.501 3.189 1.085.204-.168.409-.626.532-1.126h.777v4.918h-.859c-.287-1.959-1.349-3.584-3.516-3.584-1.145 0-2.208.666-2.208 1.709 0 1.083.858 1.666 2.821 2.583l2.248 1.125c1.963.959 2.74 2.502 2.74 3.752 0 2.625-2.249 4.458-4.988 4.458zm12.593 0c-1.636 0-3.067-.875-3.68-1.417-.205.209-.573.834-.654 1.417h-.777v-5.75h.818c.327 2.75 2.207 4.375 4.62 4.375 1.308 0 2.372-.75 2.372-2 0-1.083-.941-1.917-2.617-2.709l-2.331-1.125c-1.636-.793-2.862-2.168-2.862-4.001 0-2 1.84-3.71 4.375-3.71 1.349 0 2.493.501 3.189 1.085.204-.168.409-.626.531-1.126h.777v4.918h-.858c-.287-1.959-1.35-3.584-3.516-3.584-1.145 0-2.209.666-2.209 1.709 0 1.083.859 1.666 2.822 2.583l2.248 1.125c1.963.959 2.739 2.502 2.739 3.752 0 2.625-2.249 4.458-4.987 4.458zM3.037 22c0 7.302 4.162 13.61 10.198 16.6L4.604 14.495A18.677 18.677 0 003.037 22zm30.31-.93c0-2.28-.804-3.858-1.493-5.087-.917-1.519-1.777-2.806-1.777-4.325 0-1.695 1.262-3.274 3.038-3.274.08 0 .157.01.235.015-3.22-3.006-7.508-4.842-12.219-4.842-6.32 0-11.883 3.306-15.118 8.314.424.013.825.021 1.165.021 1.892 0 4.822-.233 4.822-.233.975-.06 1.09 1.401.116 1.519 0 0-.98.117-2.071.176l6.589 19.978 3.96-12.105-2.82-7.874c-.974-.058-1.897-.176-1.897-.176-.975-.058-.861-1.577.114-1.519 0 0 2.989.234 4.767.234 1.892 0 4.822-.234 4.822-.234.976-.058 1.09 1.402.116 1.52 0 0-.983.117-2.072.175l6.54 19.827 1.804-6.148c.783-2.55 1.378-4.383 1.378-5.962z" fill="#CDD9E8"/><path d="M21.449 23.614l-5.43 16.08a17.763 17.763 0 0011.12-.294 1.628 1.628 0 01-.128-.254l-5.562-15.532zm15.56-10.462c.077.587.121 1.218.121 1.896 0 1.872-.343 3.976-1.376 6.607l-5.527 16.288c5.38-3.197 8.998-9.138 8.998-15.942a18.625 18.625 0 00-2.217-8.85z" fill="#CDD9E8"/><path d="M21.132.501C9.502.501.039 10.146.039 22.001c0 11.856 9.463 21.5 21.093 21.5s21.094-9.644 21.094-21.5c0-11.855-9.464-21.5-21.094-21.5zm0 42.015C10.035 42.516 1.007 33.312 1.007 22c0-11.312 9.028-20.514 20.125-20.514 11.096 0 20.124 9.203 20.124 20.514s-9.028 20.515-20.124 20.515z" fill="#CDD9E8"/></g><defs><clipPath id="clip0_465_9508"><path fill="#fff" transform="translate(0 .501)" d="M0 0h186v43H0z"/></clipPath></defs></svg>