<svg width="270" height="270" viewBox="0 0 270 270" fill="none" xmlns="http://www.w3.org/2000/svg">
<g clip-path="url(#clip0_2382_4931)">
<path d="M157.5 33.3101C158.156 32.5952 158.8 31.864 159.212 31.0461C159.418 30.6236 159.558 30.2391 159.591 29.7895C159.623 29.3887 159.548 28.9446 159.385 28.5763C159.228 28.2026 158.973 27.8884 158.676 27.726C158.535 27.6393 158.361 27.5851 158.215 27.5743C157.917 27.5364 157.869 27.5581 157.641 27.5851C156.818 27.6989 155.984 28.1538 154.808 28.3217C154.251 28.4355 153.303 28.2351 152.821 27.6122C152.29 27.0164 152.241 26.2148 152.219 25.7382C152.198 25.1966 152.198 24.8662 152.057 24.5629C151.97 24.4004 151.748 24.1133 151.467 23.9617C150.871 23.6096 150.156 23.5446 149.408 23.7558C148.645 23.9562 147.87 24.3895 147.025 24.8499L144.48 26.2419L145.46 23.4742L146.57 20.3436L147.123 18.7783C147.226 18.4913 147.291 18.3017 147.329 18.1229C147.372 17.9442 147.366 17.8034 147.356 17.798C147.339 17.798 147.41 17.9334 147.48 17.9713C147.545 18.0092 147.469 17.9605 147.301 17.9659L146.987 17.9767L146.695 18.0092C146.484 18.0417 146.278 18.0905 146.072 18.15C145.254 18.4046 144.507 18.9083 143.987 19.5528L142.968 20.8257L141.956 19.5203C141.354 18.7404 141.057 17.7384 141.013 16.8772C140.97 16.0052 141.1 15.2307 141.23 14.5157C141.365 13.8008 141.517 13.14 141.62 12.5225C141.669 12.2301 141.712 11.8618 141.701 11.7697C141.663 11.6343 141.761 11.9538 141.912 11.9972C141.934 11.9972 141.766 11.9376 141.376 11.9105C141.062 11.8834 140.851 11.8834 140.537 11.8888C139.962 11.9105 139.383 12.0243 138.83 12.203C137.72 12.5605 136.675 13.1887 135.889 14.0608L135.153 14.884L134.389 14.2178C133.934 13.8224 133.56 13.1996 133.517 12.6092C133.458 12.0459 133.544 11.5639 133.658 11.1631C133.885 10.3506 134.189 9.70068 134.4 9.07781C134.497 8.7745 134.584 8.48203 134.606 8.23829C134.655 7.9729 134.595 7.83208 134.557 7.68584C134.53 7.65876 134.508 7.62626 134.487 7.59376C134.487 7.59376 134.443 7.53418 134.481 7.56668L134.389 7.48002C134.389 7.48002 134.281 7.39336 134.2 7.36086C134.015 7.27962 133.745 7.23087 133.452 7.23087C133.181 7.22546 132.824 7.26879 132.488 7.31753C132.19 7.36628 131.86 7.43669 131.546 7.52877C130.912 7.71292 130.3 7.97832 129.726 8.31412C128.567 8.97491 127.586 9.95525 126.909 11.1089L126.666 11.5205L126.243 11.3364C125.707 11.1089 125.409 10.5781 125.317 10.134C125.214 9.67902 125.247 9.22947 125.36 8.807C125.571 8.02706 125.929 7.38253 125.907 6.82465C125.896 6.48343 125.826 6.28303 125.674 5.99597C125.523 5.7414 125.312 5.50851 125.057 5.32435C124.559 4.94522 123.898 4.74481 123.291 4.79898C121.981 4.90189 120.811 5.7739 119.874 6.78674C118.904 7.82124 118.075 9.06698 116.889 10.0961L116.174 10.7135L116.006 9.76026L115.086 4.57149C114.912 3.73739 114.815 2.75164 114.571 2.15043C114.43 1.83087 114.317 1.7063 114.1 1.61964C114.002 1.58714 113.699 1.58173 113.434 1.7063C113.315 1.74963 113.114 1.86337 113.071 1.9067C112.914 2.03669 112.686 2.18293 112.589 2.30209C112.399 2.5079 112.161 2.78955 111.977 3.11994C111.598 3.76447 111.327 4.53358 111.072 5.35143C110.812 6.16929 110.568 7.0413 110.195 7.93498C109.821 8.81783 109.285 9.74943 108.456 10.4915L107.313 11.5205L106.658 10.0798L105.109 6.67842L104.334 4.97771C104.085 4.45775 103.787 3.72656 103.603 3.43408C103.506 3.26618 103.376 3.15785 103.414 3.20118C103.479 3.26076 103.76 3.30951 103.896 3.21202C104.026 3.0387 103.424 3.85113 103.322 4.13819C102.888 5.04812 102.655 6.14762 102.46 7.35003C102.26 8.54702 102.092 9.85234 101.67 11.2064C101.529 11.5855 101.496 11.7968 101.225 12.3221C101.09 12.5713 100.863 12.9125 100.446 13.1942C100.066 13.4596 99.4868 13.5841 99.0481 13.53C98.1707 13.4054 97.797 13.0479 97.4395 12.7879L96.6866 12.1272L91.1133 7.14963L93.4044 6.93298C93.2744 7.1388 93.1607 7.35003 93.0902 7.61001C93.0361 7.87541 92.9982 8.17872 93.009 8.53077C93.0307 9.22947 93.1986 10.0527 93.3881 10.9302C93.5831 11.813 93.7998 12.7717 93.8431 13.8658C93.8648 14.4182 93.8323 15.0032 93.7131 15.6098C93.5777 16.2273 93.3286 16.8285 92.9819 17.3863L92.5974 18.0038L91.8824 18.0688C90.29 18.215 89.0768 17.4784 88.2535 16.9422C87.4032 16.3843 86.6882 15.8373 86.152 15.664C85.93 15.5665 85.6212 15.5881 85.6267 15.5556C85.54 15.5827 85.3396 15.6261 85.345 15.6369C85.345 15.6477 85.3558 15.6261 85.3017 15.6586C85.2204 15.6911 85.15 15.7615 85.0634 15.8319C84.7384 16.1569 84.4622 16.8501 84.4405 17.5272C84.4026 18.1825 84.5976 19.0491 84.8196 19.9591C85.0363 20.869 85.2963 21.9414 85.2583 23.0788C85.2421 24.2162 84.9225 25.3211 84.4784 26.2907C84.0289 27.2656 83.4331 28.1268 82.794 28.9175C81.4832 30.4937 79.9071 31.6852 78.4935 32.8768C77.069 34.0738 75.7203 35.3033 74.8267 36.8198C73.933 38.3526 73.4238 40.1562 72.7306 41.9599C72.3839 42.8535 71.9777 43.7581 71.409 44.5651C70.8403 45.3721 70.0658 46.0545 69.1667 46.4391L69.0367 46.1791C70.667 45.2313 71.3873 43.4331 71.8748 41.6728C72.3839 39.9017 72.6764 37.9573 73.5809 36.1428C74.4963 34.3121 75.9045 32.8551 77.2748 31.5282C78.6668 30.1903 80.0263 28.9554 81.0608 27.5472C82.1115 26.1607 82.8481 24.5791 82.7994 23.0734C82.7994 22.3151 82.5827 21.5244 82.3227 20.6144C82.0736 19.6991 81.754 18.7187 81.7378 17.473C81.754 16.276 82.0411 15.0357 82.9727 13.9308C83.2164 13.6654 83.4927 13.4054 83.8285 13.2104C83.9747 13.1075 84.2022 13.0046 84.4188 12.9179C84.6355 12.8313 84.6734 12.8313 84.8088 12.7825C85.7458 12.555 86.4066 12.6742 87.0782 12.8746C88.351 13.3079 89.1255 13.9795 89.873 14.4237C90.615 14.9111 91.1946 15.0953 91.5195 15.0411L90.42 15.729C90.5392 15.5015 90.6421 15.2686 90.6963 14.9869C90.7396 14.6999 90.7613 14.3749 90.7396 14.0174C90.6908 13.2971 90.5121 12.4738 90.3225 11.5855C90.1384 10.6919 89.9163 9.72776 89.8784 8.61202C89.8622 8.05414 89.9109 7.45294 90.0571 6.83007C90.2196 6.20179 90.5121 5.60058 90.9021 5.05896L91.9041 3.65073L93.1932 4.84231L98.6744 9.91733L99.3081 10.5077C99.4327 10.6377 99.5897 10.6594 99.3406 10.6052C98.9885 10.524 98.5823 10.9518 98.6636 10.9085C98.6906 10.8868 98.8315 10.4969 98.9127 10.2911C99.2648 9.2728 99.4598 8.1083 99.6927 6.85715C99.9256 5.61683 100.218 4.24652 100.89 2.91412C101.079 2.56748 101.312 2.1721 101.475 1.96086L101.61 1.77129C101.745 1.59256 101.762 1.57631 101.859 1.46257C102.022 1.28383 102.233 1.07801 102.547 0.899278C103.219 0.471395 104.215 0.552638 104.8 0.958857C105.369 1.33799 105.618 1.74421 105.835 2.11252C106.246 2.91412 106.365 3.35826 106.636 3.97571L107.335 5.70891L108.738 9.16989L106.94 8.75826C107.958 7.92957 108.527 6.34261 109.16 4.68524C109.485 3.85113 109.848 2.96829 110.411 2.12877C110.688 1.71172 111.029 1.32175 111.484 0.931776C111.7 0.747623 111.858 0.66638 112.047 0.530973C112.367 0.325156 112.567 0.243912 112.86 0.141004C113.412 -0.0269001 114.051 -0.118976 114.766 0.200582C115.367 0.471395 115.806 1.12134 115.952 1.61964C116.272 2.68122 116.256 3.47741 116.396 4.36568L117.046 9.59236L116.163 9.26197C117.225 8.38995 118.075 7.18754 119.121 6.09888C119.657 5.54642 120.242 5.04271 120.924 4.63649C121.266 4.43609 121.623 4.26277 122.008 4.13278C122.37 4.00279 122.82 3.91613 123.199 3.89446C124.055 3.85113 124.878 4.11111 125.561 4.59316C125.902 4.83689 126.2 5.14562 126.427 5.51934C126.649 5.86056 126.801 6.38594 126.806 6.77591C126.823 7.71292 126.4 8.40078 126.265 9.02907C126.113 9.59777 126.314 10.2802 126.633 10.356L125.994 10.6052C126.714 9.25655 127.787 8.11372 129.049 7.2417C129.682 6.80841 130.37 6.45093 131.101 6.18554C131.464 6.05013 131.833 5.94181 132.239 5.84973C132.607 5.76849 132.965 5.69807 133.409 5.66558C133.831 5.64391 134.286 5.66016 134.779 5.82265C135.034 5.91472 135.239 6.0068 135.521 6.22887L135.629 6.32094C135.727 6.41844 135.738 6.4401 135.792 6.5051L136.052 6.83549C136.328 7.32837 136.442 7.9079 136.404 8.36287C136.388 8.8395 136.29 9.2403 136.193 9.62486C135.987 10.3777 135.738 11.0493 135.624 11.6343C135.559 11.9268 135.559 12.1705 135.586 12.3167C135.608 12.463 135.673 12.4521 135.738 12.5388L134.232 12.6959C135.218 11.4447 136.545 10.486 138.04 9.92816C138.787 9.65735 139.572 9.4732 140.374 9.40821C140.748 9.37571 141.23 9.37029 141.604 9.39196C141.896 9.42445 142.438 9.40279 143.082 9.71152C143.884 10.0419 144.317 11.0764 144.29 11.6289C144.312 12.2301 144.236 12.5496 144.187 12.9342C144.073 13.6816 143.916 14.3641 143.803 15.0086C143.559 16.3085 143.537 17.3701 144.014 17.9713L141.983 17.9388C142.871 16.8772 144.057 16.1244 145.357 15.7452C145.682 15.6531 146.018 15.5827 146.354 15.5394L146.884 15.4907L147.09 15.4852H147.399C147.784 15.5069 148.271 15.5556 148.807 15.886C149.354 16.211 149.728 16.8664 149.798 17.4134C149.923 18.4642 149.56 19.152 149.381 19.6503L148.769 21.194L147.545 24.2812L145.985 22.9055C146.857 22.4614 147.821 21.9847 148.964 21.7572C150.102 21.5135 151.477 21.676 152.512 22.4235C153.043 22.8026 153.487 23.2846 153.752 24.0321C153.963 24.6441 153.915 25.3157 153.909 25.7382C153.904 26.2148 153.92 26.464 154.05 26.6156C154.175 26.7727 154.283 26.8648 154.684 26.8485C155.448 26.8106 156.417 26.399 157.544 26.3502C157.798 26.3286 158.237 26.3719 158.421 26.4261C158.757 26.4965 159.044 26.6319 159.304 26.8214C159.824 27.1952 160.138 27.7314 160.306 28.273C160.474 28.82 160.512 29.3725 160.409 29.9358C160.317 30.4503 160.073 30.9811 159.802 31.4036C159.233 32.2756 158.454 32.9147 157.712 33.543L157.5 33.3101Z" fill="#153051"/>
<path d="M68.8038 46.3743C68.8038 46.3743 67.9914 47.1055 66.4748 48.2266C66.1282 48.5083 65.6191 48.8278 65.2724 49.1312C64.8662 49.4778 64.46 49.8569 64.1675 50.2632C64.0321 50.4473 63.9021 50.7235 63.8696 50.8481C63.7938 51.0756 63.8263 51.0485 63.81 51.1677C63.7992 51.2652 63.7992 51.3681 63.8155 51.4656C63.8371 51.6605 63.9184 51.8447 63.9996 51.9368C64.1079 52.0397 64.0917 52.0126 64.2596 52.0505C64.3787 52.1101 65.0937 51.8989 66.0686 51.601C66.2799 51.5414 66.6861 51.4601 67.0706 51.4926C67.4173 51.5143 67.7531 51.5739 68.0835 51.693C68.4139 51.8122 68.7551 51.9801 69.0855 52.2672C69.4104 52.5434 69.7679 53.0038 69.8546 53.6158C69.9467 54.217 69.7408 54.7965 69.47 55.1649C69.2317 55.5061 68.9176 55.7606 68.7659 55.8852C68.4139 56.1669 67.8885 56.5135 67.4823 56.7572C66.6482 57.2393 65.7978 57.7322 64.9312 58.2305C64.1296 58.7342 63.3659 59.3029 62.9055 60.1099C62.4072 60.8628 62.3368 61.946 63.0734 62.1735C63.4634 62.3306 63.9779 62.3522 64.5737 62.5093C64.8662 62.5851 65.2508 62.7422 65.5053 63.1051C65.6245 63.2405 65.7166 63.5546 65.7382 63.6467C65.7816 63.9229 65.7491 64.1287 65.6895 64.3346C65.3862 65.1253 64.8229 65.4611 64.3463 65.797C63.8534 66.1003 63.4742 66.3494 63.068 66.6636C62.2881 67.2918 61.5948 68.0122 61.0261 68.7976C60.7499 69.1659 60.4141 69.6371 60.3328 69.9079C60.1812 70.2545 60.0945 70.6391 60.127 70.8503C60.2082 71.1103 60.1162 70.8611 60.1812 70.9153C60.0782 70.8828 60.5278 70.9099 61.1832 70.8936L61.454 70.9099C61.5677 70.9207 61.7356 70.9478 61.8277 70.9749C62.0498 71.0236 62.261 71.094 62.4831 71.1969C62.9055 71.4082 63.4147 71.7277 63.7396 72.4535C64.0863 73.1739 63.8317 74.0892 63.588 74.4684L63.4309 74.7338L63.2738 74.9558L63.0572 75.2646C61.5406 77.2252 59.7208 78.2327 58.2259 79.2022C57.4676 79.6788 56.796 80.1554 56.2002 80.6212C55.6478 81.0545 55.0086 81.6882 54.857 81.9915C54.7378 82.1865 54.6782 82.4032 54.6674 82.4411C54.6782 82.479 54.4833 82.2894 54.5158 82.3653C54.4399 82.3815 54.7757 82.4357 55.1657 82.4519C55.534 82.4682 56.2381 82.5548 56.7039 82.9827C57.2618 83.4268 57.3972 84.1472 57.343 84.5968C57.2943 85.068 57.1372 85.4146 56.9802 85.7233C56.6823 86.3029 56.184 86.8282 55.8319 87.0774C54.3858 88.2852 53.5246 88.946 53.5246 88.946L53.3079 88.7456C53.3079 88.7456 53.8875 87.8302 54.9761 86.2866C55.2794 85.8696 55.4365 85.5771 55.5882 85.1167C55.6478 84.9109 55.6748 84.6888 55.6478 84.548C55.6153 84.4018 55.5557 84.4343 55.5719 84.4938C55.5286 84.4884 55.5123 84.5101 55.1982 84.5426C54.9003 84.5643 54.5049 84.7105 53.7304 84.4993C53.0642 84.3584 52.3059 83.5135 52.2518 82.7715C52.138 82.0457 52.2734 81.4716 52.4738 80.9354C52.5659 80.6916 52.7284 80.3829 52.8746 80.1554C53.0317 79.9171 53.1617 79.76 53.3134 79.5542C53.6112 79.1751 53.9416 78.8122 54.2829 78.4764C54.9707 77.7939 55.7561 77.2252 56.5144 76.6728C58.0201 75.5679 59.6395 74.6038 60.6524 73.4122L61.0044 72.9897C61.0261 72.941 60.8907 73.3093 61.0369 73.553C61.3402 73.9863 61.2102 73.6613 61.0315 73.6993C60.674 73.618 60.0403 73.7968 58.9679 73.3255C58.5834 73.136 58.0905 72.7243 57.8468 72.2369C57.5868 71.744 57.5272 71.2511 57.5434 70.8341C57.5868 69.9891 57.8576 69.35 58.1934 68.7596C58.605 68.088 58.9787 67.7576 59.3958 67.3243C60.2407 66.5227 61.1886 65.8511 62.196 65.3095C63.1926 64.7354 64.395 64.4429 64.6658 63.9446C64.6929 63.8958 64.6875 63.8363 64.7091 63.8471C64.6821 63.6792 64.6929 63.7334 64.6604 63.6521C64.6225 63.5709 64.5033 63.468 64.2921 63.3976C63.875 63.2513 63.3117 63.2242 62.7268 62.9751C62.1093 62.7639 61.5894 62.0056 61.6056 61.3719C61.5623 60.7328 61.7573 60.137 61.9685 59.6224C62.4506 58.5771 63.1818 57.6942 63.9563 56.9739C64.7254 56.2481 65.5162 55.6307 66.1986 55.0132C66.5669 54.6774 66.7944 54.4445 67.1302 54.0816C67.3306 53.892 67.3577 53.8216 67.3793 53.7783C67.3739 53.7675 67.2927 53.8704 67.3144 54.0112C67.401 54.3524 67.4335 54.1899 67.2169 54.1466C67.1302 54.1195 67.0219 54.1033 66.9352 54.1033C66.8865 54.1087 66.854 54.0816 66.6482 54.1304C65.9603 54.217 65.0612 54.7695 63.5717 54.4282C62.9597 54.282 62.2718 53.735 61.9848 53.1879C61.6652 52.63 61.5569 52.0613 61.5569 51.5306C61.5569 51.2652 61.5894 51.0052 61.6435 50.7506C61.6869 50.5177 61.8385 50.1602 61.8927 50.0682C62.1473 49.5645 62.3964 49.2774 62.6889 48.9741C63.8317 47.8692 65.007 47.5009 65.8574 47.138C67.6014 46.4284 68.6468 46.1089 68.6468 46.1089L68.8038 46.3743Z" fill="#153051"/>
<path d="M53.7195 88.3609C52.5388 89.6012 51.3418 91.042 51.3851 92.5964C51.3851 92.7047 51.4284 93.0351 51.4772 93.111C51.5259 93.2464 51.6018 93.4251 51.6993 93.5659C51.8888 93.8584 52.1488 94.1184 52.4413 94.3025C52.7283 94.4867 53.0533 94.5896 53.3187 94.6004C53.5895 94.6058 53.7845 94.5246 53.9578 94.3513L54.9653 95.4833C53.1671 97.1786 51.8184 99.3234 51.071 101.642C50.6973 102.801 50.4373 103.987 50.3452 105.184C50.2369 105.725 50.4698 106.235 50.3777 106.029C50.3614 106.012 50.3289 105.991 50.3073 105.975L50.2856 105.964H50.2802C50.1123 105.91 50.2423 105.953 50.2098 105.937L50.2369 105.942C50.2585 105.947 50.356 105.98 50.3127 105.958C50.1502 105.92 50.3073 105.947 50.3777 105.926C50.5889 105.91 50.9085 105.79 51.5476 105.801C51.8617 105.807 52.3546 105.926 52.7283 106.256C53.1346 106.597 53.2971 107.014 53.3729 107.388C53.4379 107.746 53.4162 108.022 53.3891 108.249C53.3566 108.493 53.3404 108.585 53.2971 108.834C53.14 109.609 52.8854 110.286 52.6254 110.92C52.0946 112.182 51.5964 113.259 51.5043 114.261C51.4609 114.76 51.4772 115.177 51.6397 115.583C51.7318 115.816 52.0351 116.211 52.3113 116.352C52.6417 116.515 52.7446 116.536 53.0696 116.428C53.2808 116.358 53.5787 116.195 54.0282 116.043C54.429 115.892 55.2902 115.745 56.0106 116.19L56.8989 116.737L56.5576 117.674C56.0323 119.109 55.4744 120.528 54.9111 121.947C54.3641 123.382 53.7412 124.764 53.4433 126.112C53.2971 126.789 53.2321 127.455 53.3079 128.095C53.335 128.252 53.3512 128.414 53.3945 128.566L53.4433 128.761L53.5408 129.032C53.6437 129.259 53.7845 129.524 53.9957 129.763C54.7757 130.711 56.276 131.258 57.1534 130.488L57.9929 129.757L58.1067 130.835C58.2258 131.962 57.7871 132.937 57.3701 133.76C56.9314 134.589 56.5035 135.352 56.3518 136.154C56.1839 136.95 56.4331 137.692 57.0559 138.115C57.3484 138.315 57.6896 138.375 57.955 138.255C58.1229 138.217 58.3071 137.99 58.8541 138.033C59.152 138.077 59.4012 138.364 59.4445 138.591C59.4987 138.813 59.477 138.97 59.477 139.084C59.2766 142.735 59.0437 146.385 58.9462 150.041L57.7492 149.57L62.2826 143.558L63.4092 142.063L63.9075 143.926C64.6658 146.77 63.9779 149.532 63.615 151.975C63.4363 153.188 63.3442 154.39 63.4579 155.517C63.5717 156.638 63.9021 157.651 64.4924 158.426L62.4451 158.29C64.2379 156.367 65.6136 154.055 66.4477 151.579L67.3631 148.855L69.0258 151.244C70.1416 152.847 70.6724 154.726 70.9053 156.47C71.1382 158.225 71.1328 159.904 71.1869 161.497C71.2194 162.287 71.2519 163.073 71.344 163.815C71.3819 164.178 71.4469 164.573 71.5065 164.887C71.5552 165.125 71.6581 165.407 71.7719 165.613C71.8802 165.824 72.0156 165.965 72.0264 165.97C72.0698 165.949 71.761 165.954 71.9127 165.938C71.6473 166.035 71.8206 166.019 71.8965 165.846C72.0048 165.667 72.1239 165.369 72.2323 165.028L72.4272 164.41C72.541 164.091 72.6493 163.874 72.7847 163.614C73.0718 163.116 73.413 162.601 74.1009 162.157C74.7725 161.675 75.9966 161.589 76.7657 162.076C77.5402 162.542 77.8435 163.078 78.0926 163.457C79.0242 164.941 79.7554 166.582 80.2375 168.272C80.4866 169.106 80.6383 170.033 80.7899 170.731C80.9416 171.457 81.1637 172.02 81.4507 172.286C81.4507 172.302 81.6024 172.399 81.4886 172.334C81.5645 172.378 81.6836 172.459 81.7269 172.475C81.7107 172.454 81.7757 172.497 81.8732 172.508C82.0465 172.54 82.274 172.513 82.4906 172.432C82.9402 172.269 83.2489 171.896 83.2814 171.598L83.471 169.848L84.8738 170.699C85.345 170.98 85.7566 171.327 86.0924 171.733C86.412 172.145 86.6612 172.573 86.8507 173.006C87.2244 173.867 87.4032 174.707 87.5819 175.503C87.7552 176.299 87.9069 177.068 88.1398 177.767C88.2535 178.114 88.3943 178.433 88.5568 178.736C88.7302 179.023 88.9306 179.273 89.158 179.489C89.4072 179.673 89.6509 179.868 89.9434 179.939C90.2196 180.02 90.4904 180.02 90.6854 179.928C91.0808 179.782 91.4383 178.861 91.942 178.195C92.1966 177.843 92.4944 177.496 92.8844 177.231C93.2906 176.971 93.7077 176.776 94.2818 176.879C94.7693 176.982 95.1647 177.279 95.4301 177.659C95.7063 178.027 95.755 178.661 95.3813 179.002L95.1647 178.807C95.598 178.227 94.7909 177.507 94.1897 177.485C93.9514 177.442 93.5669 177.615 93.3394 177.832C93.0794 178.054 92.8736 178.352 92.6894 178.671C92.5053 178.996 92.3482 179.354 92.1803 179.722C92.007 180.091 91.7903 180.578 91.2758 180.914C90.7667 181.239 90.1763 181.282 89.6726 181.19C89.1472 181.12 88.7193 180.843 88.3023 180.578C87.9123 180.275 87.5765 179.923 87.3003 179.533C87.0457 179.143 86.8291 178.736 86.6557 178.33C86.3145 177.518 86.0924 176.711 85.8541 175.947C85.6212 175.183 85.3883 174.458 85.0634 173.856C84.9009 173.559 84.7167 173.309 84.5217 173.093C84.3159 172.892 84.0938 172.746 83.8555 172.621L85.4425 171.722C85.3775 173.087 84.4134 174.1 83.3735 174.555C82.8373 174.788 82.2361 174.913 81.597 174.853C81.2882 174.826 80.9633 174.75 80.5679 174.571L80.27 174.414C79.9937 174.23 79.9721 174.208 79.8258 174.089C78.8726 173.25 78.5476 172.177 78.3093 171.343C78.0764 170.46 77.9356 169.773 77.681 169.052C77.1935 167.622 76.5165 166.279 75.6499 165.039C75.4549 164.746 75.2708 164.584 75.3304 164.643C75.3845 164.719 75.6824 164.681 75.677 164.665C75.677 164.665 75.5145 164.828 75.4116 165.039C75.3629 165.136 75.2979 165.288 75.2762 165.358L75.1137 165.911C74.9837 166.344 74.8321 166.821 74.5342 167.357C74.2092 167.882 73.8084 168.516 72.7631 168.895C72.1402 169.155 70.9432 169.058 70.3095 168.57C69.6433 168.121 69.2642 167.59 68.9933 167.081C68.7225 166.566 68.5438 166.068 68.4301 165.51C68.3434 165.022 68.2784 164.611 68.2297 164.161C68.1213 163.284 68.0942 162.434 68.0617 161.594C67.9588 158.285 68.1267 155.116 66.6102 152.885L69.1883 152.543C68.143 155.392 66.491 157.998 64.3733 160.148L63.2521 161.285L62.3259 160.012C61.3781 158.707 60.999 157.142 60.9285 155.712C60.8527 154.266 61.0423 152.89 61.2969 151.579C61.806 149.007 62.5263 146.613 62.0876 144.365L63.7125 144.733L58.7783 150.42L57.3538 152.061L57.5813 149.954C57.9767 146.315 58.2367 142.67 58.5292 139.024C58.5616 138.737 58.4696 138.857 58.6646 138.938C58.7404 138.922 58.5183 138.987 58.2692 139.1C57.6734 139.344 57.0126 139.171 56.5576 138.867C56.0864 138.564 55.7398 138.12 55.534 137.6C55.339 137.085 55.339 136.506 55.4202 136.013C55.5935 135 56.081 134.139 56.4439 133.337C56.8122 132.536 57.083 131.723 56.9584 131.003L57.9063 131.35C57.2022 132.021 56.1352 132.26 55.2415 132.065C54.337 131.891 53.5354 131.431 52.8908 130.797C52.5713 130.483 52.295 130.099 52.0621 129.644L51.943 129.384C51.8672 129.21 51.8617 129.156 51.8184 129.032C51.7426 128.82 51.6993 128.604 51.6505 128.387C51.4772 127.515 51.4989 126.638 51.6126 125.814C51.8563 124.151 52.398 122.689 52.8258 121.238C53.27 119.775 53.7195 118.318 54.2016 116.872L54.7432 118.356C54.8894 118.454 55.0411 118.394 54.8353 118.459L54.0012 118.838L53.7033 118.952C53.53 119.006 53.427 119.028 53.2808 119.06C53.01 119.109 52.7338 119.114 52.463 119.098C51.9213 119.049 51.4339 118.876 51.0114 118.638C50.161 118.129 49.5761 117.479 49.1699 116.509C48.8503 115.702 48.7799 114.776 48.8882 113.991C49.094 112.382 49.7873 111.087 50.2694 109.966C50.5131 109.403 50.7189 108.856 50.8327 108.358C50.8922 108.136 50.9247 107.762 50.9193 107.87C50.941 107.93 50.9572 108.027 51.1035 108.168C51.228 108.282 51.396 108.298 51.3851 108.293C51.3689 108.271 51.0493 108.325 50.616 108.369C50.3614 108.379 50.1935 108.417 49.7061 108.314C49.5815 108.287 49.6032 108.287 49.5436 108.271L49.5165 108.26L49.3811 108.211L49.2511 108.152C49.0832 108.071 48.9153 107.957 48.7745 107.827C48.2058 107.285 48.0812 106.684 48.0162 106.229C47.9566 105.763 47.9891 105.33 48.0433 104.978C48.2166 103.586 48.547 102.221 49.0886 100.937C50.1394 98.3647 51.8292 96.0899 53.9524 94.3621L54.9598 95.4941C54.7107 95.6999 54.429 95.8678 54.1149 95.9653C53.8008 96.052 53.4758 96.0845 53.1779 96.0466C52.5713 95.9762 52.0676 95.6999 51.6559 95.3695C51.2443 95.0337 50.9139 94.6167 50.6864 94.14C50.5673 93.8963 50.486 93.6634 50.4319 93.3764C50.3723 93.0297 50.3777 92.916 50.3939 92.591C50.4806 91.5836 50.9627 90.7007 51.5368 89.9966C52.1163 89.2817 52.815 88.7184 53.5137 88.1768L53.7195 88.3609Z" fill="#153051"/>
<path d="M179.29 145.995C179.317 144.582 179.414 143.173 179.544 141.765C179.219 141.787 178.894 141.825 178.569 141.83C177.806 141.846 177.145 141.711 176.565 141.473C176.403 142.946 176.289 144.419 176.23 145.898C176.197 146.694 176.186 147.501 176.181 148.308C176.181 148.541 176.181 148.758 176.181 148.952C176.132 148.925 176.078 148.893 176.035 148.866L174.009 147.691L171.507 146.239L171.669 149.131C171.837 152.143 171.815 155.165 171.583 158.176C170.662 157.18 169.849 156.08 169.216 154.883L167.201 151.092L166.605 155.311L165.397 163.853C165.3 164.584 165.224 165.282 165.072 165.597C165.023 165.737 164.899 165.84 164.899 165.84C164.856 165.873 164.758 165.911 164.596 165.889C164.444 165.878 164.249 165.808 164.092 165.71C164 165.672 163.756 165.445 163.637 165.266C163.334 164.86 163.101 164.275 162.862 163.603L159.336 153.822L160.685 164.102C160.831 165.212 160.826 166.349 160.658 167.476C160.571 168.034 160.441 168.592 160.273 169.133C160.192 169.41 160.105 169.643 159.986 169.946C159.9 170.173 159.786 170.406 159.661 170.601C159.537 170.802 159.391 170.975 159.255 171.089C159.131 171.202 158.973 171.251 158.952 171.262C158.99 171.278 158.871 171.267 158.8 171.262C158.86 171.267 158.768 171.257 158.768 171.257C158.719 171.251 158.676 171.219 158.621 171.186C158.513 171.116 158.399 170.964 158.307 170.775C158.118 170.39 158.085 169.946 158.112 169.323C158.129 168.727 158.194 168.023 157.988 167.254L157.094 163.901L156.569 167.303L155.87 171.825C155.637 173.32 155.415 174.864 155.133 176.315C155.058 176.667 154.96 176.998 154.825 177.29C154.678 177.594 154.527 177.805 154.278 178C153.828 178.357 153.151 178.444 152.512 178.298C152.176 178.216 151.911 178.119 151.602 177.929C151.31 177.756 151.039 177.534 150.79 177.29C150.28 176.797 149.847 176.196 149.403 175.579L148.742 174.658L148.596 175.768C148.471 176.711 148.276 177.637 147.984 178.509C147.832 178.942 147.654 179.365 147.431 179.755C147.193 180.166 146.982 180.475 146.635 180.833C146.072 181.428 145.222 181.84 144.388 181.943C143.548 182.057 142.703 181.84 142.183 181.282L141.593 180.648L141.257 181.482C140.618 183.059 139.686 184.711 138.381 185.252C138.224 185.306 138.051 185.361 137.931 185.371C137.866 185.398 137.433 185.404 137.406 185.388C137.081 185.355 136.734 185.241 136.377 185.073C135.646 184.754 134.898 184.18 133.804 183.882C133.279 183.746 132.705 183.681 132.082 183.79C131.773 183.844 131.443 183.958 131.139 184.142C131.004 184.212 130.804 184.38 130.679 184.494L130.56 184.613C130.43 184.759 130.424 184.77 130.365 184.857C129.997 185.409 129.856 185.794 129.731 185.859C129.623 185.962 129.466 186.01 129.206 186.021C128.951 186.021 128.637 185.945 128.345 185.815C128.106 185.718 127.765 185.485 127.446 185.236C126.785 184.748 126.032 184.006 124.835 183.617L123.952 183.329L123.448 184.169L122.23 186.2C120.756 185.686 119.354 184.954 118.14 183.979L117.203 183.227L116.375 184.109L114.246 186.368C114.035 186.601 113.791 186.855 113.639 187.012C113.537 186.899 113.45 186.774 113.309 186.563L112.881 185.913L112.031 184.613L110.325 182.019L108.629 179.441L108.082 182.447C107.638 184.884 106.967 187.278 106.176 189.629C105.25 188.708 104.497 187.581 104.031 186.335C103.863 185.902 103.739 185.458 103.636 185.003C103.538 184.526 103.479 184.153 103.452 183.611C103.424 183.113 103.37 182.49 103.159 181.9C103.045 181.602 102.904 181.277 102.59 180.963C102.433 180.811 102.233 180.665 101.989 180.589C101.886 180.545 101.713 180.524 101.567 180.513C101.42 180.508 101.42 180.518 101.339 180.524C100.798 180.573 100.381 180.898 100.158 181.271C99.9526 181.634 99.9039 181.943 99.8551 182.225C99.7685 182.782 99.7522 183.259 99.6331 183.633C99.5302 183.979 99.3406 184.191 99.059 184.223C98.7556 184.266 98.3332 184.104 97.9865 183.855C97.6453 183.6 97.3258 183.248 97.1524 182.874C96.9683 182.463 96.8545 181.965 96.7354 181.477C96.6162 180.984 96.4862 180.475 96.2858 179.982C96.0963 179.495 95.7713 179.002 95.3705 178.677L95.1647 178.883C95.858 179.592 95.9609 180.605 96.1017 181.596C96.1775 182.1 96.2425 182.614 96.4212 183.151C96.6271 183.725 96.9791 184.18 97.4124 184.57C97.8565 184.938 98.3982 185.274 99.1185 185.274C99.8876 185.279 100.543 184.662 100.754 184.05C100.993 183.465 101.047 182.918 101.166 182.485C101.22 182.268 101.296 182.078 101.35 182.008C101.388 181.937 101.442 181.97 101.404 181.965C101.448 181.965 101.572 181.954 101.556 181.97C101.534 181.986 101.496 181.965 101.507 181.975C101.507 181.975 101.513 181.986 101.534 182.013C101.583 182.062 101.659 182.214 101.708 182.392C101.816 182.772 101.843 183.172 101.837 183.687C101.832 184.158 101.881 184.797 101.962 185.317C102.049 185.859 102.168 186.4 102.341 186.926C102.997 189.033 104.296 190.95 106.073 192.353L107.156 193.209L107.709 191.882C108.537 189.889 109.187 187.825 109.761 185.74L109.919 185.989L110.753 187.3L111.17 187.955C111.305 188.166 111.505 188.475 111.744 188.74C111.988 189.016 112.313 189.331 112.849 189.553C113.401 189.775 114.1 189.753 114.625 189.488C115.124 189.244 115.394 188.952 115.606 188.74L116.153 188.172L117.507 186.736C119.023 187.76 120.708 188.534 122.49 188.946L123.443 189.168L123.898 188.356L125.024 186.335C125.36 186.541 125.729 186.796 126.14 187.083C126.546 187.354 126.958 187.63 127.559 187.852C128.101 188.047 128.686 188.161 129.325 188.123C129.953 188.079 130.712 187.825 131.21 187.251C131.719 186.666 131.827 186.146 131.968 185.962C131.968 185.962 132.028 185.88 131.973 185.94L132.087 185.815C132.131 185.783 132.098 185.799 132.158 185.761C132.233 185.707 132.336 185.653 132.461 185.621C132.721 185.556 133.062 185.556 133.409 185.626C134.075 185.734 134.833 186.205 135.759 186.568C136.225 186.747 136.751 186.904 137.325 186.92C137.747 186.915 137.763 186.915 138.137 186.85C138.462 186.796 138.711 186.693 138.971 186.585C139.99 186.097 140.65 185.268 141.154 184.456C141.522 183.844 141.799 183.21 142.053 182.577C142.828 183.01 143.743 183.113 144.55 182.967C145.622 182.777 146.587 182.273 147.35 181.466C147.67 181.125 148.016 180.643 148.249 180.21C148.498 179.76 148.693 179.284 148.851 178.807C149.056 178.2 149.186 177.577 149.3 176.96C149.555 177.301 149.831 177.642 150.14 177.957C150.427 178.249 150.746 178.52 151.104 178.742C151.439 178.964 151.889 179.154 152.295 179.251C153.124 179.457 154.115 179.397 154.895 178.818C155.263 178.552 155.578 178.141 155.762 177.756C155.957 177.361 156.076 176.955 156.173 176.565L157.099 171.999C157.224 172.177 157.37 172.351 157.554 172.513C157.744 172.67 157.961 172.811 158.21 172.892C158.351 172.941 158.421 172.963 158.627 172.995C158.714 173.001 158.746 173.017 158.936 173.017C160.116 172.968 160.734 172.242 161.178 171.663C161.4 171.354 161.579 171.035 161.736 170.693C161.86 170.428 162.001 170.092 162.115 169.778C162.348 169.155 162.537 168.511 162.678 167.855C162.694 167.785 162.694 167.709 162.705 167.639C162.727 167.655 162.738 167.671 162.759 167.682C163.198 167.985 163.691 168.196 164.249 168.283C164.796 168.37 165.446 168.321 166.042 168.007C166.675 167.676 167.044 167.194 167.304 166.691C167.769 165.694 167.786 164.93 167.932 164.248L168.755 159.303C169.665 160.451 170.694 161.507 171.853 162.417L173.836 163.977L174.209 161.448C174.681 158.263 174.908 155.04 174.876 151.818C175.076 151.942 175.314 152.072 175.731 152.251C176.111 152.37 176.484 152.522 177.243 152.37L177.443 152.316C177.611 152.262 177.827 152.164 177.93 152.099C178.174 151.953 178.391 151.764 178.542 151.579C179.16 150.794 179.209 150.166 179.279 149.624C179.328 149.039 179.29 148.66 179.29 148.281C179.274 147.517 179.274 146.759 179.29 145.995Z" fill="#153051"/>
<path d="M183.747 68.1365C183.991 68.8136 184.202 69.496 184.381 70.1893C184.592 70.9096 184.766 71.5379 184.338 71.7979C184.105 71.9658 183.276 71.8846 182.572 71.7762C182.193 71.7437 181.781 71.6571 181.256 71.8466C180.709 72.0579 180.346 72.6483 180.4 73.2224C180.449 73.7694 180.687 74.1431 180.882 74.4789L181.456 75.416L182.583 77.2791C183.319 78.5249 184.013 79.7869 184.619 81.0705C185.258 82.4571 185.795 83.8707 186.185 85.2952C186.775 86.021 187.17 86.8984 187.284 87.8138C188.015 88.285 188.676 88.8645 189.256 89.5415L189.483 89.1461L189.44 88.7616C189.061 85.6148 187.831 82.7171 186.255 80.1823C185.475 78.904 184.63 77.6908 183.769 76.4938L182.464 74.7227C182.047 74.1431 181.478 73.5203 181.445 73.1249C181.418 72.9678 181.5 72.8107 181.63 72.7512C181.787 72.6645 182.133 72.6645 182.475 72.697C182.821 72.7295 183.189 72.7891 183.596 72.8053C184.007 72.7945 184.441 72.8324 184.971 72.4316C185.064 72.3504 185.101 72.2962 185.172 72.2258C185.323 72.0254 185.334 71.9712 185.394 71.825C185.481 71.5758 185.491 71.3321 185.481 71.1155C185.459 70.6713 185.351 70.3084 185.264 69.9564C185.096 69.236 184.89 68.5211 184.657 67.8224C183.78 64.9951 182.605 62.2436 181.142 59.6493C179.696 57.0495 178.022 54.5796 176.165 52.2886C175.217 51.1349 174.301 50.0571 173.256 48.9197L170.207 45.7837C168.154 43.7147 166.08 41.6619 163.962 39.6579C161.839 37.6539 159.678 35.6878 157.451 33.7812L157.24 33.9817C159.006 36.3215 160.831 38.6017 162.705 40.844C164.579 43.081 166.497 45.2799 168.436 47.4573L171.377 50.6908L174.171 53.9514C176.029 56.1449 177.936 58.3006 179.599 60.6296C181.267 62.9586 182.756 65.4392 183.747 68.1365Z" fill="#153051"/>
<path d="M91.07 264.167C90.3334 264.167 89.5968 263.956 88.8872 263.544C87.4086 262.683 86.1899 260.95 85.7891 259.13C85.4967 257.819 85.4804 256.503 85.4642 255.225C85.4479 253.984 85.4317 252.809 85.1771 251.688C84.4459 248.454 81.7215 245.833 79.5334 243.726L71.3711 235.872C69.8437 234.405 68.2622 232.883 67.0164 231.074C65.4132 228.755 64.46 226.139 63.5446 223.431C60.8256 215.383 58.5671 206.776 60.4194 198.343C60.9773 195.803 61.9035 193.36 62.8784 190.874C66.2365 182.333 70.1308 173.499 77.4752 167.568C77.8922 167.227 78.5043 167.297 78.8455 167.714C79.1867 168.131 79.1217 168.749 78.6993 169.085C71.7231 174.718 67.9534 183.291 64.6874 191.589C63.7396 194.005 62.8459 196.366 62.3205 198.766C60.5711 206.733 62.7647 215.031 65.3915 222.808C66.2636 225.376 67.1627 227.851 68.625 229.963C69.7625 231.615 71.2682 233.061 72.7306 234.464L80.8928 242.318C83.2706 244.603 86.2279 247.452 87.089 251.255C87.3869 252.576 87.4086 253.909 87.4248 255.192C87.4411 256.422 87.4573 257.586 87.7065 258.702C87.9935 259.996 88.8656 261.264 89.8838 261.86C90.4904 262.212 91.0862 262.304 91.6766 262.125C92.1803 261.973 92.6949 261.6 93.2473 260.988C95.5492 258.447 96.1992 254.483 94.8289 251.341C93.3719 247.994 90.1925 245.947 86.8291 243.775C85.3992 242.854 83.9205 241.901 82.5827 240.834C78.4555 237.551 75.5903 233.197 72.541 228.252C71.279 226.204 70.2445 224.482 69.4212 222.543C67.4064 217.798 66.8648 212.095 67.7747 205.114C68.1972 201.853 68.8796 198.592 69.8004 195.424C72.0969 187.538 75.9424 180.069 79.7609 173.174C80.0208 172.703 80.6112 172.535 81.0878 172.795C81.559 173.055 81.727 173.651 81.467 174.122C77.7027 180.914 73.9167 188.264 71.6744 195.971C70.7807 199.042 70.1199 202.205 69.7083 205.368C68.8471 211.998 69.34 217.37 71.214 221.785C71.9831 223.594 72.9797 225.251 74.1984 227.228C77.1502 232.011 79.9071 236.224 83.7905 239.306C85.0579 240.314 86.4932 241.24 87.8798 242.134C91.3354 244.365 94.9155 246.672 96.6054 250.556C98.2736 254.374 97.4828 259.2 94.6826 262.287C93.8864 263.17 93.0848 263.723 92.2399 263.983C91.8499 264.107 91.4599 264.167 91.07 264.167Z" fill="#153051"/>
<path d="M149.381 270C146.002 270 142.974 268.294 140.45 266.609C139.708 266.111 138.95 265.553 138.554 264.649C138.235 263.918 138.251 263.143 138.262 262.574C138.43 254.65 139.578 246.678 140.694 238.97C142.064 229.486 143.483 219.678 143.034 210.01C142.665 202.102 141.127 194.422 138.928 185.317C138.803 184.792 139.123 184.266 139.648 184.142C140.179 184.022 140.699 184.342 140.824 184.862C143.044 194.075 144.604 201.864 144.978 209.923C145.438 219.775 144.003 229.676 142.622 239.252C141.517 246.9 140.374 254.813 140.212 262.618C140.201 263.138 140.206 263.56 140.342 263.874C140.526 264.297 141.008 264.643 141.533 264.99C143.873 266.55 146.706 268.131 149.609 268.05C152.165 267.98 155.036 266.073 155.068 263.452C155.074 262.829 154.879 262.027 154.316 261.648C153.552 261.123 152.349 261.578 151.705 262.325C150.887 263.268 150.562 264.665 150.275 265.9C150.15 266.425 149.647 266.75 149.105 266.626C148.58 266.501 148.255 265.981 148.379 265.456C148.704 264.075 149.105 262.358 150.237 261.047C151.45 259.644 153.72 258.88 155.415 260.034C156.433 260.727 157.035 262.011 157.024 263.473C156.98 267.249 153.189 269.897 149.674 269.995C149.566 269.995 149.468 270 149.381 270Z" fill="#153051"/>
<path d="M148.899 263.755C148.666 263.755 148.439 263.674 148.255 263.511C147.859 263.159 147.22 262.991 146.538 262.813C145.476 262.531 144.268 262.211 143.575 261.063C142.99 260.105 143.093 258.983 143.158 258.247C143.505 254.315 144.068 250.35 144.61 246.515C144.886 244.544 145.168 242.572 145.417 240.595C145.85 237.194 146.207 233.792 146.559 230.386L148.136 215.215C148.406 212.62 148.683 209.939 148.829 207.296C149.306 198.489 148.325 189.726 145.91 181.244C145.763 180.724 146.061 180.188 146.581 180.042C147.107 179.884 147.637 180.193 147.784 180.713C150.259 189.401 151.266 198.381 150.773 207.404C150.627 210.091 150.345 212.799 150.075 215.42L148.498 230.591C148.141 234.014 147.784 237.432 147.35 240.844C147.096 242.827 146.819 244.809 146.538 246.786C146.002 250.594 145.444 254.531 145.097 258.415C145.038 259.059 145.01 259.671 145.243 260.056C145.53 260.527 146.229 260.711 147.036 260.928C147.865 261.144 148.802 261.394 149.544 262.049C149.945 262.406 149.988 263.024 149.63 263.425C149.436 263.647 149.17 263.755 148.899 263.755Z" fill="#153051"/>
<path d="M121.981 64.4429C121.179 64.4429 120.339 64.21 119.581 63.7497C118.476 63.0889 117.669 62.0706 117.025 61.1661C111.776 53.7567 110.357 43.8341 113.32 35.2494C113.753 32.3408 116.185 31.3767 117.967 30.6726C122.246 28.9774 127.066 31.8263 129.076 35.4444C131.302 39.4524 131.047 44.2728 130.657 47.5497C129.932 53.7079 128.247 58.5284 125.512 62.2981C125.019 62.9751 124.45 63.6576 123.633 64.0692C123.134 64.3184 122.566 64.4429 121.981 64.4429ZM120.67 32.1079C120.004 32.1079 119.337 32.2271 118.693 32.4817C116.478 33.3591 115.449 34.0199 115.243 35.6068L115.194 35.8018C112.394 43.8233 113.705 53.1067 118.617 60.0395C119.17 60.8195 119.792 61.6048 120.589 62.0815C121.32 62.5256 122.176 62.6177 122.766 62.3252C123.188 62.114 123.54 61.7023 123.941 61.1499C126.476 57.6618 128.041 53.1338 128.729 47.3168C129.087 44.3053 129.33 39.8965 127.381 36.3868C126.086 34.0632 123.389 32.1079 120.67 32.1079Z" fill="#153051"/>
<path d="M109.745 67.27C108.12 67.27 106.425 66.2409 104.984 64.3344C102.58 61.1605 101.047 57.0766 100.548 52.5162C100.148 48.8494 100.391 44.7655 101.296 40.0371C102.032 36.1753 103.511 33.9926 105.829 33.3589C107.373 32.9364 109.144 33.3535 110.677 34.5071C111.944 35.455 112.876 36.7603 113.694 37.9085L112.112 39.0405C111.338 37.9573 110.531 36.8361 109.507 36.0616C108.478 35.2871 107.297 34.9729 106.344 35.2383C104.838 35.65 103.782 37.3886 103.213 40.4054C102.347 44.9442 102.108 48.8331 102.487 52.3049C102.948 56.5188 104.351 60.2668 106.539 63.1591C107.113 63.9119 108.586 65.6343 110.162 65.2714C110.845 65.1089 111.468 64.5294 111.933 64.0365C113.309 62.585 114.419 60.8247 115.134 58.9452L116.954 59.6439C116.147 61.7563 114.901 63.7386 113.342 65.3797C112.692 66.0622 111.793 66.8909 110.606 67.1671C110.325 67.2375 110.038 67.27 109.745 67.27Z" fill="#153051"/>
<path d="M117.799 47.3708C116.618 49.8352 116.878 52.5812 117.945 55.0564C118.671 56.7355 120.258 58.642 122.165 57.1796C125.046 54.9698 125.469 44.9118 120.421 45.0797C118.113 45.1555 117.907 48.3674 117.886 50.041C117.864 51.6442 117.897 55.4572 120.101 55.7497C122.322 56.0476 122.305 52.7112 122.495 51.3409C122.685 49.9381 122.425 47.1379 120.442 47.0729C120.112 47.0621 119.754 47.2625 119.603 47.5549C118.807 49.0715 119.061 51.2813 119.115 52.9279C119.159 54.179 121.103 54.1844 121.065 52.9279C121.027 51.7579 120.718 49.6131 121.287 48.5353C121.006 48.6978 120.724 48.8548 120.448 49.0173C120.014 49.0011 120.664 50.1385 120.681 50.2956C120.729 50.8589 120.507 51.5359 120.426 52.1046C120.366 52.5 120.404 53.2745 120.193 53.5724C120.031 53.8053 120.15 53.1445 120.106 52.7979C119.976 51.7471 119.803 50.7722 119.852 49.6998C119.879 49.0986 119.825 48.2266 120.161 47.7012C120.155 47.1487 120.366 47.0133 120.794 47.3004C121.444 47.3762 121.813 47.8095 121.899 48.5894C122.273 49.586 122.333 50.783 122.257 51.8392C122.213 52.4675 121.991 54.7423 121.341 55.1431C120.41 55.7064 119.771 54.4336 119.543 53.8215C119.289 53.1283 119.142 52.4458 119.05 51.72C118.899 50.5285 118.964 49.4506 119.489 48.3457C120.025 47.23 118.346 46.2388 117.799 47.3708Z" fill="#153051"/>
<path d="M106.393 48.2265C105.158 51.0863 105.407 56.5675 108.045 58.7124C111.321 61.3826 112.118 54.4931 112.074 52.6245C112.036 50.9347 111.608 48.8006 110.271 47.6362C109.404 46.8779 108.169 46.7046 107.4 47.6578C106.365 48.9361 106.588 51.46 106.826 52.9387C107.005 54.0382 107.4 56.5134 108.776 56.795C109.198 56.8817 109.653 56.7409 109.875 56.3455C110.856 54.6014 110.395 51.8229 110.049 49.9651C109.821 48.7357 107.942 49.2556 108.169 50.4851C108.391 51.6821 108.846 54.2006 108.191 55.3597C108.559 55.2081 108.922 55.0618 109.29 54.9102C109.794 55.4247 109.734 55.1539 109.112 54.0977C108.96 53.659 108.841 53.2095 108.754 52.7545C108.602 51.9367 108.564 51.0755 108.651 50.2468C108.911 47.6687 109.875 50.653 110.021 51.4979C110.211 52.5758 110.119 53.6915 109.935 54.7585C109.891 55.0131 109.545 57.0875 109.35 57.1038C108.862 57.1579 108.359 55.6414 108.202 55.1918C107.622 53.4857 107.335 50.9076 108.072 49.196C108.564 48.0695 106.885 47.0783 106.393 48.2265Z" fill="#153051"/>
<path d="M90.1222 64.4104C94.8451 72.6431 105.921 80.2746 115.795 79.2184C125.609 78.1677 134.936 70.4278 139.854 62.2655C140.504 61.1877 138.82 60.2074 138.17 61.2798C133.625 68.83 125.729 75.1996 116.949 77.0302C107.497 79.0018 96.2967 71.2403 91.8066 63.4246C91.1783 62.3414 89.4939 63.3217 90.1222 64.4104Z" fill="#153051"/>
<path d="M111.847 84.9052C110.969 84.9052 110.092 84.6127 109.431 84.0169C108.489 83.1666 108.12 81.9804 108.012 80.6751C107.914 80.8268 107.817 80.973 107.703 81.1138C106.95 82.0779 105.889 82.625 104.865 82.5546C103.397 82.4571 102.363 81.2059 101.989 80.0035C101.772 79.3102 101.718 78.5953 101.735 77.8966C100.955 78.7199 100.023 79.3102 98.9181 79.3048C97.342 79.2452 96.1937 77.8262 95.8687 76.4505C95.6358 75.4755 95.7171 74.4898 95.8687 73.5582C94.8342 74.0836 93.6373 74.3002 92.4998 74.1323C92.2128 74.0944 91.8391 74.0131 91.5412 73.7532C91.2541 73.4986 91.1241 73.1682 91.0266 72.8811C90.7179 71.9766 89.8675 68.9056 91.877 67.2483C92.0882 67.0749 92.3915 67.1074 92.5648 67.3132C92.7327 67.5191 92.7057 67.8278 92.4998 68.0011C91.2812 68.9977 91.4166 71.018 91.9474 72.567C92.007 72.7403 92.0774 72.9299 92.1803 73.022C92.2832 73.114 92.4836 73.152 92.6407 73.1736C93.9135 73.3578 95.2621 72.9732 96.2533 72.15C96.4104 72.0146 96.6324 71.9983 96.8166 72.1066C96.9953 72.215 97.0874 72.4208 97.0441 72.6266C96.8058 73.7694 96.5404 75.0639 96.8166 76.2338C97.0495 77.225 97.8782 78.2974 98.956 78.3353C100.142 78.4111 101.085 77.2846 101.94 76.1038C102.07 75.9251 102.303 75.8547 102.509 75.9359C102.715 76.0117 102.839 76.2176 102.823 76.4396C102.715 77.5445 102.601 78.6874 102.921 79.7219C103.186 80.5776 103.928 81.5255 104.93 81.5905C105.802 81.6392 106.506 81.0705 106.934 80.5235C107.47 79.8302 107.779 78.9582 108.072 78.1132C108.153 77.8803 108.386 77.7395 108.635 77.7991C108.873 77.8478 109.036 78.0699 109.019 78.3136C108.873 80.1335 108.824 82.1646 110.081 83.302C111.072 84.2065 112.827 84.1415 113.759 83.1774C114.679 82.2188 114.793 80.6968 114.782 79.1911C114.782 78.9257 114.994 78.7036 115.259 78.6982C115.546 78.7415 115.746 78.904 115.757 79.1694C115.795 80.296 116.434 81.4117 117.393 82.0075C118.346 82.6087 119.63 82.7008 120.664 82.235C121.282 81.9588 121.753 81.5255 121.986 81.0164C122.387 80.1443 122.138 79.0719 121.823 77.9562C121.753 77.7016 121.894 77.4362 122.148 77.3604C122.398 77.29 122.674 77.4254 122.755 77.6745C123.042 78.552 123.752 79.2832 124.699 79.6894C125.636 80.0848 126.633 80.0956 127.445 79.7056C128.258 79.3157 128.892 78.4924 129.146 77.5066C129.363 76.6454 129.271 75.7843 128.892 75.1018C128.821 74.9989 128.751 74.8906 128.686 74.7823C128.556 74.5602 128.621 74.2677 128.837 74.1269C129.054 73.9861 129.347 74.0348 129.498 74.246C129.579 74.3544 129.65 74.4681 129.715 74.5818C130.273 75.3726 131.085 75.9305 131.936 76.0984C132.943 76.2988 134.032 75.898 134.584 75.1451C134.974 74.6035 135.158 73.829 135.131 72.8541C135.093 71.6029 134.757 70.3626 134.162 69.2631C134.032 69.0248 134.118 68.7323 134.357 68.6023C134.595 68.4777 134.887 68.559 135.017 68.7973C135.689 70.0322 136.068 71.4242 136.106 72.827C136.139 74.024 135.895 74.9989 135.369 75.7193C134.595 76.7917 133.138 77.3333 131.746 77.0571C131.215 76.9542 130.695 76.7375 130.224 76.4234C130.24 76.8567 130.192 77.3062 130.083 77.7504C129.758 79.034 128.946 80.0685 127.863 80.5885C126.796 81.0976 125.501 81.0976 124.309 80.5885C123.887 80.4097 123.502 80.1714 123.161 79.8952C123.172 80.4206 123.091 80.9297 122.863 81.428C122.528 82.1538 121.883 82.7604 121.049 83.1287C119.706 83.7245 118.108 83.6107 116.868 82.8362C116.348 82.5112 115.909 82.0834 115.568 81.5851C115.394 82.4354 115.064 83.2208 114.446 83.8545C113.786 84.5477 112.816 84.9052 111.847 84.9052Z" fill="#153051"/>
<path d="M125.831 15.9888C126.714 16.9745 127.462 18.074 128.144 19.2169C128.453 19.7856 128.865 20.4626 128.594 21.3184C128.437 21.7354 127.982 22.0333 127.532 22.0333C127.093 22.0387 126.731 21.8708 126.411 21.6812C125.766 21.2588 125.339 20.7876 124.878 20.2839C124.434 19.7856 124.017 19.2818 123.573 18.8269C122.712 17.9224 121.645 17.1695 120.507 17.1045L121 16.4762L121.374 17.6841L121.558 18.2907C121.612 18.4911 121.71 18.7456 121.683 19.0977C121.666 19.271 121.585 19.466 121.498 19.5906C121.358 19.791 121.211 19.8831 121.043 19.9535C120.713 20.0835 120.431 20.0564 120.177 20.0185C119.651 19.9318 119.256 19.6881 118.888 19.5147C117.35 18.7727 115.898 17.8736 114.517 16.8825L114.907 16.85C114.934 16.8337 114.907 16.747 114.934 16.8554C114.966 16.9366 115.031 17.0449 115.096 17.1749C115.161 17.2833 115.237 17.4999 115.226 17.6624C115.221 17.9061 115.102 18.074 114.966 18.1932C114.43 18.6157 113.775 18.5236 113.298 18.3719C112.291 18.0794 111.365 17.5541 110.644 16.8337C111.473 17.4295 112.41 17.8411 113.379 18.009C113.856 18.1228 114.349 18.0469 114.614 17.814C114.669 17.7653 114.685 17.6949 114.679 17.6841C114.674 17.592 114.652 17.5649 114.593 17.4512C114.539 17.3537 114.457 17.2508 114.387 17.1045C114.306 16.9962 114.246 16.6062 114.474 16.4058L114.658 16.2433L114.864 16.3679C116.288 17.2399 117.767 18.0144 119.267 18.7348C119.662 18.9135 120.009 19.1031 120.323 19.1356C120.48 19.1627 120.637 19.1464 120.702 19.1139C120.729 19.1085 120.756 19.0706 120.735 19.0977C120.767 19.049 120.767 19.0435 120.773 19.0056C120.794 18.8594 120.594 18.3503 120.48 17.9765L120.09 16.7741L119.868 16.0808L120.588 16.1458C122.127 16.2812 123.318 17.2453 124.228 18.2311C124.689 18.7294 125.1 19.2494 125.523 19.7422C125.94 20.208 126.384 20.7497 126.828 21.0746C127.061 21.2371 127.321 21.3617 127.543 21.3725C127.754 21.3888 127.944 21.2804 128.047 21.0855C128.242 20.663 128.02 20.0022 127.738 19.4389C127.196 18.2365 126.536 17.1045 125.831 15.9888Z" fill="#153051"/>
<path d="M153.991 40.4375C155.003 41.7645 156.027 43.0752 157.143 44.3101C157.69 44.933 158.248 45.5504 158.822 46.1462L159.694 47.0345C159.992 47.354 160.273 47.5382 160.609 47.9986C160.766 48.264 160.864 48.6269 160.609 48.9952C160.382 49.3039 160.078 49.396 159.818 49.4447C159.266 49.5314 158.827 49.3797 158.383 49.2227C157.517 48.876 156.834 48.2856 156.217 47.7061C155.036 46.547 153.833 45.285 152.393 45.3067L152.761 44.5159L154.424 46.5362C154.96 47.2078 155.578 47.874 156.011 48.7406C156.222 49.1685 156.379 49.6668 156.374 50.1922C156.325 50.463 156.46 50.658 156.081 51.1292C155.578 51.4975 155.204 51.2429 154.993 51.1617L152.68 49.9213C152.328 49.6884 151.813 49.4989 151.889 49.5422C151.835 49.4393 151.949 50.0784 152.111 50.3926C152.425 51.1563 152.956 51.8929 153.2 52.8028C153.265 52.9924 153.33 53.4473 152.94 53.6423C152.626 53.7777 152.371 53.6965 152.138 53.6152C151.721 53.4419 151.326 53.2198 150.963 52.9653C150.226 52.4616 149.614 51.7954 149.17 51.0425C149.706 51.7358 150.367 52.3099 151.104 52.7432C151.477 52.9544 151.862 53.1278 152.263 53.2578C152.436 53.3119 152.653 53.3173 152.739 53.2578C152.788 53.2415 152.821 53.1332 152.734 52.9382C152.485 52.1583 151.943 51.4758 151.542 50.6471C151.445 50.4521 151.347 50.203 151.282 49.9972C151.234 49.8022 151.071 49.4176 151.412 49.0385C151.819 48.7135 152.182 48.8814 152.409 48.9518L153.026 49.2443L155.361 50.4034C155.518 50.5009 155.648 50.4359 155.502 50.5009C155.431 50.6417 155.523 50.3492 155.502 50.1976C155.502 49.8455 155.388 49.4881 155.209 49.1414C154.852 48.4427 154.267 47.8144 153.704 47.1428L152.019 45.1442L151.353 44.3534H152.382C153.373 44.3534 154.261 44.8084 154.955 45.3392C155.664 45.87 156.244 46.5199 156.823 47.0832C157.403 47.6519 158.009 48.1719 158.697 48.459C159.022 48.5944 159.418 48.6973 159.694 48.6702C160.019 48.5835 160.057 48.5781 159.976 48.3831C159.84 48.1557 159.461 47.809 159.206 47.5057L158.372 46.5633C157.825 45.9296 157.289 45.2796 156.78 44.6134C155.783 43.2594 154.825 41.8836 153.991 40.4375Z" fill="#153051"/>
<path d="M132.022 37.4098C134.389 35.5737 137.243 34.3172 140.255 33.873L141.024 33.7593L140.466 34.3172L136.659 38.1194L136.556 37.5452C137.639 37.9894 138.879 37.9785 140.152 38.1735C141.403 38.3848 142.844 38.8505 143.618 40.1504L143.889 40.6054L143.38 40.7787L140.964 41.5858L139.757 41.992C139.329 42.1328 138.966 42.2357 138.803 42.4199C138.717 42.539 138.771 42.4578 138.755 42.4524C138.722 42.4253 138.841 42.5228 139.047 42.604L140.217 43.1077C140.618 43.2919 141.029 43.5031 141.414 43.8118C141.799 44.1097 142.14 44.5701 142.281 45.0901L142.351 45.3555L142.161 45.5559C141.777 45.9621 141.23 46.0975 140.791 46.1246C140.342 46.1517 139.935 46.1029 139.551 46.0704C138.885 45.9946 138.126 46.1841 138.04 46.5741L137.78 46.0162C139.838 46.9099 141.728 48.1665 143.358 49.6993C143.553 49.8997 143.765 50.0568 143.987 50.3763C144.09 50.5226 144.176 50.7717 144.171 50.9667C144.171 51.2483 144.079 51.4379 143.954 51.6112C143.434 52.3099 142.508 52.1962 142.015 52.0283L138.868 51.075C138.619 50.9884 138.283 50.9125 138.3 50.9234L138.208 50.9667L138.224 50.9613C138.224 50.9613 138.213 50.9667 138.213 50.9884C138.202 51.0317 138.213 51.1292 138.251 51.2267C138.386 51.66 138.809 51.947 139.22 52.3749C140.006 53.1819 140.645 54.1244 141.1 55.148C141.208 55.4134 141.322 55.7167 141.235 56.0688C141.149 56.4371 140.753 56.6213 140.466 56.6267C139.876 56.6483 139.345 56.5563 138.798 56.4479C137.715 56.2096 136.686 55.7709 135.781 55.148C136.724 55.7113 137.763 56.085 138.836 56.2475C139.361 56.3288 139.93 56.3775 140.428 56.3288C140.981 56.2855 141.002 55.7709 140.737 55.3159C140.239 54.3681 139.594 53.5015 138.83 52.7595C138.489 52.4128 137.926 52.077 137.682 51.4433C137.623 51.2863 137.568 51.1075 137.601 50.88C137.617 50.7663 137.671 50.6417 137.758 50.5442C137.801 50.4955 137.872 50.4413 137.931 50.4034L138.023 50.3547C138.581 50.1976 138.776 50.4088 139.053 50.4413L142.216 51.2863C142.725 51.4271 143.126 51.3892 143.293 51.1292C143.467 51.0209 143.245 50.7067 142.784 50.3167C141.214 48.8652 139.388 47.6899 137.422 46.8612L137.048 46.7041L137.162 46.3033C137.325 45.7292 137.861 45.3771 138.3 45.2526C138.755 45.1117 139.199 45.0955 139.632 45.128C140.401 45.2038 141.154 45.2363 141.457 44.8843L141.338 45.3446C141.181 44.7434 140.553 44.3047 139.811 43.9689L138.652 43.4544C138.478 43.3569 138.17 43.2919 137.926 42.8802C137.688 42.4849 137.921 41.9324 138.143 41.7645C138.592 41.3366 139.101 41.2499 139.47 41.12L140.683 40.73L143.104 39.95L142.866 40.5729C142.351 39.6467 141.17 39.1755 140.017 38.9751C138.836 38.7531 137.52 38.726 136.279 38.1789L135.792 37.9623L136.176 37.6048L140.114 33.9326L140.325 34.3767C137.384 34.6855 134.497 35.7091 132.022 37.4098Z" fill="#153051"/>
<path d="M98.5282 39.7118C97.6995 38.4119 96.4429 37.4749 95.1051 36.7762C94.4335 36.4241 93.7348 36.1208 93.0307 35.8446L91.9637 35.4438C91.6116 35.33 91.2108 35.1296 90.9996 35.1946C90.7775 35.2596 90.8046 35.4817 90.9617 35.8012C91.1079 36.0937 91.3895 36.3104 91.6712 36.5866L93.334 38.1627L96.6595 41.3204L97.0224 41.667L96.5837 41.9053C95.3976 42.5445 94.1356 42.2574 93.0686 42.1328C92.5215 42.057 91.9853 41.9866 91.4979 42.0245C91.2541 42.0407 91.0267 42.0949 90.8208 42.1816C90.6204 42.2682 90.4525 42.4036 90.3009 42.5607L90.2196 41.9216L94.818 44.9601L95.9771 45.7238L94.5797 45.805L91.0754 45.9729C90.485 46.0054 89.8947 45.9946 89.483 46.1517C89.2772 46.2275 89.1418 46.3358 89.0768 46.4658C89.0931 46.4387 89.0172 46.6012 89.0281 46.6067C89.0335 46.6229 89.0226 46.6337 89.0226 46.6771C89.0172 46.7475 89.0389 46.8233 89.0714 46.9045C89.2176 47.2512 89.6455 47.6141 90.0896 47.8307C90.55 48.042 91.1241 48.2261 91.6549 48.3615C92.7436 48.6323 93.8756 48.7461 94.9968 48.6811L95.2784 48.6648L95.4355 48.9411C95.5546 49.1469 95.5601 49.526 95.403 49.7481C95.2622 49.9756 95.0888 50.0893 94.9318 50.176C94.6122 50.3439 94.3089 50.4143 93.9839 50.4468L93.1823 50.4901C92.9278 50.5118 92.6732 50.5443 92.4186 50.5822C91.9149 50.6634 91.4004 50.788 90.9346 50.9396C90.7071 51.0155 90.5067 51.113 90.3659 51.2375C90.3009 51.2863 90.2251 51.3838 90.2142 51.4054C90.133 51.5625 90.1492 51.5517 90.1276 51.6492C90.0788 51.9687 90.3117 52.3966 90.6367 52.6349C90.7992 52.7541 91.0104 52.8408 91.2216 52.8949C91.4437 52.9545 91.682 52.9816 91.9312 52.9978C92.9007 53.0737 94.1627 52.8299 95.2459 53.6044L95.8471 54.0377L95.1376 54.2436C93.5723 54.6931 92.1695 55.7493 91.3029 57.1521L91.1241 56.7242L96.145 58.0295L96.3292 58.0783L96.2858 58.257C96.1883 58.674 95.82 58.8961 95.5276 59.0153C95.2188 59.1507 94.9101 59.2048 94.6826 59.3673C94.4497 59.519 94.2331 59.7681 94.2818 60.001C94.3197 60.2502 94.6285 60.3693 94.9209 60.4668C96.1017 60.8839 97.3258 61.1872 98.5715 61.3713C97.3203 61.2576 96.0746 61.0139 94.8614 60.651C94.5851 60.5643 94.1681 60.4722 94.0489 60.0552C93.9623 59.6381 94.2602 59.3294 94.5147 59.1344C94.8018 58.9178 95.1268 58.8528 95.3867 58.7174C95.6575 58.5928 95.8742 58.4141 95.9067 58.1866L96.0475 58.4087L90.9833 57.2929L90.6042 57.2117L90.8046 56.865C91.7091 55.316 93.1932 54.1136 94.9209 53.5611L94.8126 54.1948C94.076 53.6694 93.009 53.8428 91.8933 53.8211C91.3408 53.8048 90.68 53.6965 90.1438 53.3174C89.6238 52.9274 89.2176 52.3154 89.2826 51.5571C89.2935 51.3892 89.3964 51.1238 89.4451 51.0426C89.5643 50.8313 89.6672 50.723 89.808 50.5984C90.0734 50.3655 90.3713 50.2355 90.6475 50.138C91.1946 49.9485 91.7254 49.8239 92.2778 49.7264C92.554 49.6777 92.8303 49.6397 93.1065 49.6181L93.9081 49.5693C94.1139 49.5477 94.3414 49.4881 94.4931 49.4014C94.5689 49.3635 94.6176 49.3039 94.6176 49.3039C94.6176 49.3039 94.6176 49.3798 94.6068 49.3419L95.0455 49.6018C93.8323 49.6831 92.6082 49.5748 91.422 49.2877C90.8208 49.136 90.2684 48.9735 89.6618 48.7082C89.0768 48.4048 88.5027 48.0257 88.1615 47.2891C88.0856 47.0995 88.0315 46.8883 88.0423 46.6608C88.0423 46.5579 88.064 46.4225 88.1019 46.2979C88.1452 46.1625 88.1398 46.1896 88.2102 46.0271C88.416 45.6317 88.8006 45.3826 89.1418 45.2688C89.8405 45.0305 90.4525 45.0847 91.0212 45.0468L94.531 44.9168L94.3035 45.7509L89.7213 42.6636L89.3043 42.382L89.6455 42.0299C89.8784 41.7862 90.1546 41.575 90.4688 41.4395C90.7829 41.315 91.1079 41.2446 91.4166 41.2229C92.0395 41.1796 92.619 41.2716 93.1715 41.3529C94.2602 41.5262 95.3705 41.7483 96.2154 41.2987L96.1396 41.8783L92.9061 38.6285L91.2866 37.0036C91.0375 36.7437 90.7017 36.4728 90.5067 36.0666C90.4092 35.8716 90.328 35.655 90.3442 35.3842C90.355 35.2434 90.4092 35.1025 90.5229 34.978C90.5934 34.9021 90.6367 34.8859 90.6692 34.8588C90.7558 34.8046 90.8046 34.7884 90.8804 34.7721C91.4491 34.7071 91.7416 34.978 92.1045 35.0917L93.1607 35.5521C93.8594 35.8662 94.5526 36.2075 95.2134 36.6028C96.5404 37.3557 97.7645 38.374 98.5282 39.7118Z" fill="#153051"/>
<path d="M93.7944 92.3794C93.4477 95.1254 93.1661 97.8769 92.7707 100.623C92.5595 101.993 92.2887 103.38 91.812 104.718C91.6929 105.053 91.5575 105.378 91.4112 105.709C91.3354 105.86 91.2217 106.153 90.8642 106.288C90.4905 106.413 90.1872 106.234 90.0138 106.104C89.3747 105.53 89.0877 104.804 88.8873 104.095C88.5189 102.654 88.5677 101.267 88.3402 99.935C88.2427 99.2634 88.1181 98.5918 87.9665 97.931C87.7986 97.319 87.674 96.4686 87.4194 96.1816C87.349 96.0949 87.3057 96.1112 87.3761 96.1166C87.4194 96.122 87.4303 96.0678 87.3707 96.1707C87.2678 96.3874 87.127 96.7882 87.0241 97.0644L86.3795 99.0251C85.9462 100.336 85.3613 101.782 84.148 102.757L83.5847 103.206L83.4331 102.508L82.3065 97.3352L83.0594 97.4381L82.144 99.0468L81.6836 99.8538C81.5212 100.125 81.4074 100.379 81.1745 100.693C80.9687 101.029 80.4 101.23 80.01 101.072C79.6146 100.953 79.3113 100.639 79.1597 100.303C78.878 99.6101 78.8943 99.0143 78.878 98.3589C78.9809 95.7699 80.2483 93.5276 81.4453 91.3882C80.3946 93.598 79.3384 95.9378 79.3926 98.3589C79.4196 98.9222 79.4684 99.6046 79.6905 100.049C79.8042 100.271 79.9775 100.428 80.1833 100.477C80.3892 100.52 80.5083 100.477 80.6546 100.292C80.7845 100.103 80.9308 99.7888 81.0716 99.5234L81.4995 98.7001L82.3498 97.0536L82.8481 96.0841L83.0973 97.1565L84.2997 102.307L83.5847 102.058C84.5543 101.262 85.0742 100.016 85.475 98.7272L86.0979 96.7394C86.2333 96.3657 86.32 96.1166 86.5149 95.7104C86.607 95.51 86.8995 95.1796 87.2949 95.1579C87.7228 95.1416 87.9827 95.3908 88.1344 95.5641C88.4485 95.9378 88.5406 96.3928 88.6164 96.7015L88.8548 97.7306C89.001 98.4185 89.1201 99.1118 89.2122 99.8105C89.4235 101.208 89.3747 102.627 89.6834 103.878C89.8351 104.496 90.1167 105.097 90.4905 105.476C90.5771 105.552 90.6313 105.546 90.5988 105.552C90.5825 105.573 90.6475 105.525 90.7179 105.378C90.8642 105.08 91.005 104.772 91.1296 104.463C91.6387 103.212 91.9529 101.879 92.2182 100.531L93.7944 92.3794Z" fill="#153051"/>
<path d="M73.1909 65.894C73.1909 65.894 73.023 66.1324 72.7305 66.5494C72.4326 66.961 72.0589 67.5785 71.6364 68.3205C71.2085 69.0625 70.8023 69.9725 70.4394 70.9636C70.3907 71.0828 70.3907 71.1695 70.3961 71.1153C70.4015 71.0666 70.2986 70.9907 70.3907 71.0395C70.5478 71.072 70.8998 71.1153 71.1381 71.1424C71.6798 71.1965 72.2322 71.2074 72.7847 71.164C73.0609 71.1478 73.3317 71.1207 73.6079 71.0828L74.025 71.0178C74.22 71.0016 74.545 70.9366 74.8591 71.2778C75.2436 71.8682 75.0107 72.2581 74.9241 72.5506C74.8049 72.8431 74.6695 73.1031 74.5179 73.3576C74.2254 73.8776 73.7596 74.273 73.6784 74.5492C73.5592 74.7659 73.8246 74.95 74.2741 75.0475C75.0541 75.2316 75.7853 75.2046 76.2673 75.0962C76.7548 74.9933 77.031 74.8796 77.031 74.8796C77.031 74.8796 76.8035 75.0692 76.3215 75.275C75.8449 75.4645 75.1028 75.7029 74.1604 75.5837C73.96 75.5566 73.6784 75.5241 73.4021 75.3616C73.1042 75.2154 72.8822 74.755 72.9797 74.3921C73.1638 73.688 73.5646 73.3739 73.7704 72.9297C74.0142 72.556 74.1821 71.7923 74.1441 71.8898C74.1496 71.9007 74.1712 71.9223 74.22 71.944L74.1766 71.9223L74.2308 71.944C74.2579 71.9494 74.2362 71.944 74.1821 71.9548L73.7488 72.0361C73.4509 72.0848 73.1476 72.1227 72.8442 72.139C72.2376 72.1715 71.6256 72.1498 71.0352 72.0794C70.7102 72.0361 70.499 72.0144 70.1145 71.9061C69.9466 71.8736 69.5728 71.6244 69.5349 71.2886C69.4916 70.9582 69.5999 70.7795 69.6487 70.6495C70.0928 69.6258 70.6669 68.7484 71.1815 68.028C72.2376 66.5982 73.1909 65.894 73.1909 65.894Z" fill="#153051"/>
<path d="M56.5414 99.334C56.2272 101.446 56.1081 103.569 56.146 105.682C56.1677 106.738 56.2543 107.789 56.3843 108.834C56.4276 109.354 56.6334 109.63 56.8826 109.609C57.213 109.619 57.668 109.37 58.0579 109.072L59.347 108.13L59.9915 107.659C60.089 107.588 60.2028 107.491 60.3923 107.399C60.5494 107.318 60.9015 107.198 61.2427 107.431C61.5406 107.664 61.5677 107.913 61.6056 108.065C61.6326 108.184 61.6597 108.336 61.676 108.515C61.7031 108.829 61.6814 109.127 61.6489 109.419C61.5731 109.999 61.4052 110.519 61.2806 111.022C61.2156 111.271 61.1614 111.515 61.1289 111.753C61.0802 111.986 61.1019 112.279 61.0964 112.203C60.9664 112.111 61.0477 112.208 61.3673 112.105C61.5677 112.051 61.7789 111.97 61.9847 111.856C62.8026 111.401 63.4417 110.567 63.9833 109.695L64.8012 108.379L64.7524 109.923C64.7253 110.746 64.8553 111.586 65.1803 112.36C65.3374 112.75 65.5378 113.118 65.7815 113.465C65.9007 113.638 66.0306 113.801 66.1715 113.963C66.334 114.093 66.2094 114.082 66.3502 114.017C66.4531 113.92 66.5831 113.698 66.7185 113.525C66.8647 113.34 67.011 113.167 67.1735 112.999C67.4876 112.669 67.8343 112.371 68.2026 112.105C68.9392 111.58 69.7733 111.201 70.6453 111.011C69.8112 111.32 69.0421 111.77 68.3867 112.338C68.0563 112.625 67.7584 112.94 67.493 113.275C67.3576 113.443 67.2385 113.622 67.1247 113.795C66.9947 113.98 66.9243 114.158 66.7239 114.386C66.6318 114.489 66.4423 114.619 66.2148 114.597C65.9711 114.57 65.8465 114.429 65.7598 114.348C65.5973 114.18 65.4403 114.007 65.2994 113.822C65.0124 113.454 64.7632 113.059 64.5628 112.636C64.162 111.791 63.9291 110.854 63.9346 109.901L64.7037 110.123C64.1404 111.055 63.4796 112.008 62.4343 112.631C62.1743 112.777 61.8926 112.902 61.5785 112.988C61.416 112.994 60.8527 113.302 60.3598 112.739C60.0511 112.198 60.2136 111.911 60.2136 111.629C60.2461 111.336 60.3057 111.06 60.3652 110.795C60.4898 110.259 60.6306 109.76 60.7065 109.278C60.7444 109.04 60.7552 108.807 60.7444 108.59C60.766 108.444 60.5981 107.984 60.7119 108.19C60.9773 108.255 60.7498 108.195 60.5331 108.412L59.8778 108.872L58.5671 109.787C58.1067 110.096 57.5975 110.459 56.8447 110.454C56.6497 110.443 56.4655 110.399 56.2597 110.275C56.1027 110.177 55.951 110.036 55.8535 109.863C55.6585 109.522 55.6369 109.197 55.6152 108.921C55.5448 107.843 55.5231 106.765 55.561 105.687C55.6206 103.526 55.9727 101.387 56.5414 99.334Z" fill="#153051"/>
<path d="M140.954 108.558C140.954 108.558 141.327 109.928 141.604 112.046C141.723 113.102 141.858 114.342 141.891 115.68C141.891 115.853 141.907 116.086 141.771 116.373C141.658 116.644 141.295 116.872 141.035 116.888C140.52 116.969 140.071 116.736 139.789 116.606C139.085 116.254 138.495 115.794 137.964 115.268C137.438 114.743 136.994 114.169 136.572 113.611L135.96 112.777L135.678 112.392C135.602 112.295 135.624 112.371 135.716 112.338C135.667 112.241 135.57 113.172 135.564 113.719C135.516 114.348 135.532 114.851 135.429 115.474C135.364 115.794 135.137 116.119 134.801 116.216C134.487 116.308 134.21 116.238 133.988 116.14C133.528 115.94 133.306 115.572 133.133 115.328C132.813 114.797 132.564 114.543 132.564 114.543C132.564 114.543 132.873 114.738 133.279 115.209C133.49 115.431 133.739 115.707 134.107 115.799C134.492 115.902 134.86 115.777 134.887 115.371C134.92 114.943 134.86 114.299 134.849 113.714C134.839 113.411 134.828 113.102 134.817 112.782C134.806 112.609 134.822 112.387 134.887 112.181C134.958 111.986 135.039 111.699 135.434 111.531C135.857 111.379 136.214 111.65 136.344 111.813L136.686 112.23L137.319 113.042C137.742 113.584 138.175 114.115 138.652 114.586C139.112 115.063 139.648 115.48 140.184 115.761C140.52 115.935 140.726 116.01 140.905 116C140.997 115.972 140.997 116.054 141.024 115.691C141.051 114.38 141.078 113.151 141.046 112.1C140.997 109.966 140.954 108.558 140.954 108.558Z" fill="#153051"/>
<path d="M127.976 130.288C128.328 131.664 128.583 133.061 128.794 134.464C128.902 135.168 128.989 135.872 129.049 136.582C129.108 137.302 129.173 137.974 129.19 138.732C129.184 139.111 129.081 139.609 128.707 139.934C128.377 140.308 127.608 140.303 127.272 139.929C126.633 139.241 126.481 138.634 126.108 138.001L125.138 136.116L124.651 135.173L124.423 134.74C124.385 134.659 124.358 134.724 124.456 134.713C124.494 134.648 124.239 134.973 124.25 135.157C124.207 135.526 124.196 135.813 124.19 136.17C124.185 136.852 124.245 137.562 124.223 138.304C124.174 139.068 124.12 139.766 123.665 140.617C123.578 140.79 123.215 140.974 122.988 140.904C122.755 140.855 122.668 140.79 122.528 140.693C122.387 140.573 122.262 140.487 122.1 140.313C121.791 140.005 121.585 139.685 121.401 139.344C120.691 137.99 120.502 136.549 119.744 135.509C119.652 135.368 119.559 135.271 119.527 135.255C119.505 135.282 119.673 135.206 119.608 135.233C119.532 135.347 119.44 135.829 119.348 136.132L118.817 138.185L118.747 138.45L118.482 138.434C118.205 138.418 117.951 138.25 117.81 138.06C117.664 137.876 117.583 137.681 117.523 137.492C117.409 137.096 117.382 136.76 117.323 136.403C117.214 135.693 117.149 134.984 117.106 134.269C117.025 132.844 117.025 131.42 117.155 130.006C117.198 131.425 117.29 132.839 117.49 134.231C117.593 134.93 117.713 135.623 117.843 136.311C117.913 136.652 117.972 137.02 118.075 137.302C118.178 137.6 118.362 137.811 118.514 137.79L118.184 138.039L118.612 135.959C118.715 135.585 118.682 135.341 118.91 134.816C119.002 134.518 119.603 134.296 119.895 134.513C120.177 134.664 120.307 134.865 120.415 135.006C121.341 136.278 121.553 137.768 122.192 138.9C122.343 139.176 122.538 139.452 122.733 139.636C122.809 139.729 122.972 139.848 123.107 139.956C123.107 139.956 123.178 139.989 123.123 139.967C123.069 139.934 122.89 140.032 122.901 140.053C123.102 139.642 123.243 138.894 123.248 138.255C123.28 137.584 123.237 136.88 123.248 136.148C123.253 135.796 123.28 135.379 123.329 135.043C123.454 134.561 123.524 134.106 124.261 133.825C124.721 133.727 125.041 134.031 125.171 134.258C125.301 134.48 125.344 134.599 125.431 134.767L125.902 135.72L126.839 137.622C127.164 138.212 127.435 139.014 127.76 139.371C128.025 139.701 128.529 139.344 128.54 138.694C128.561 138.039 128.534 137.302 128.507 136.609L128.399 134.496C128.318 133.094 128.155 131.691 127.976 130.288Z" fill="#153051"/>
<path d="M161.606 141.359C162.131 144.029 162.521 146.71 162.841 149.402C162.889 150.057 163.106 150.74 162.83 151.628C162.7 152.078 162.169 152.538 161.617 152.511C161.042 152.489 160.68 152.17 160.409 151.899C159.862 151.298 159.575 150.751 159.174 150.182L158.064 148.481L158.632 148.573C158.405 148.682 158.329 149.158 158.367 149.651C158.388 150.16 158.432 150.821 157.939 151.33C157.684 151.585 157.278 151.617 156.997 151.52C156.709 151.428 156.482 151.271 156.276 151.081C155.875 150.702 155.642 150.166 155.648 149.646C155.756 150.155 156.059 150.588 156.455 150.864C156.839 151.135 157.381 151.26 157.581 150.973C157.69 150.848 157.755 150.637 157.766 150.42C157.782 150.193 157.755 149.982 157.711 149.716C157.674 149.451 157.641 149.175 157.674 148.86C157.701 148.557 157.836 148.173 158.15 147.929L158.47 147.68L158.719 148.021L159.916 149.662C160.322 150.182 160.696 150.832 161.075 151.222C161.27 151.422 161.503 151.547 161.617 151.536C161.752 151.525 161.844 151.487 161.925 151.287C162.099 150.875 161.963 150.166 161.931 149.489C161.741 146.786 161.606 144.078 161.606 141.359Z" fill="#153051"/>
<path d="M87.1106 143.698C87.1106 143.698 87.376 145.951 87.6523 149.331C87.7173 150.176 87.7877 151.091 87.8635 152.061C87.9014 152.543 87.9393 153.041 87.9772 153.55C87.9827 153.67 88.0097 153.8 87.9881 154.016C87.9718 154.114 87.9502 154.227 87.8689 154.363C87.7985 154.504 87.5602 154.661 87.3598 154.644C86.8994 154.579 86.8669 154.385 86.7586 154.33L86.4607 154.054C85.6591 153.28 84.9712 152.353 84.4513 151.308C83.8826 150.295 83.7309 148.99 83.2109 148.28C83.0918 148.112 82.886 147.934 82.8264 147.928C82.8264 147.928 82.7831 147.923 82.8426 147.928C82.821 147.928 82.7397 147.923 82.7722 147.928C82.8155 147.923 82.7776 147.934 82.7776 147.934C82.756 147.939 82.7072 147.988 82.6639 148.053C82.4527 148.345 82.5881 148.779 82.5826 149.483C82.5393 149.835 82.5339 150.209 82.0573 150.582C81.9327 150.669 81.7269 150.707 81.5861 150.691C81.4398 150.674 81.364 150.647 81.2611 150.609C81.1419 150.566 80.9957 150.501 80.8386 150.414C80.2862 150.106 79.8745 149.678 79.5116 149.277C79.165 148.887 78.7859 148.432 78.5259 148.188C78.4663 148.134 78.423 148.145 78.4825 148.134C78.5584 148.107 78.5367 148.069 78.4988 148.156L78.2334 148.827C78.1467 149.055 78.0601 149.277 77.9734 149.499C77.8705 149.667 77.8813 150.057 77.356 150.252C76.7656 150.284 76.6735 149.884 76.5327 149.775C76.3973 149.613 76.2565 149.412 76.1319 149.234C75.1461 147.75 74.9512 146.249 74.9349 145.258C74.9349 144.251 75.1082 143.704 75.1082 143.704C75.1082 143.704 75.0216 144.272 75.1245 145.247C75.2166 146.211 75.6011 147.603 76.5814 148.914C76.706 149.077 76.8252 149.228 76.9768 149.391C77.1177 149.58 77.3072 149.678 77.2151 149.634C77.3289 149.299 77.4426 148.947 77.5618 148.589L77.7947 147.874C77.8434 147.739 77.9734 147.457 78.3092 147.376C78.6234 147.311 78.8346 147.441 78.9754 147.528C79.4954 147.939 79.7554 148.318 80.1291 148.703C80.4811 149.077 80.844 149.429 81.2503 149.64C81.3369 149.683 81.4344 149.732 81.5752 149.781C81.689 149.813 81.6294 149.786 81.5698 149.819C81.5427 149.857 81.6836 149.624 81.6619 149.439C81.6944 149.055 81.4236 148.291 81.8352 147.576C81.9381 147.403 82.0735 147.224 82.301 147.1C82.4202 147.035 82.5285 146.991 82.7072 146.975C82.8101 146.964 82.7939 146.975 82.848 146.97C82.9726 146.975 82.9943 146.986 83.0701 147.002C83.5576 147.165 83.7526 147.43 83.98 147.701C84.3863 148.27 84.5325 148.876 84.6896 149.407C84.8412 149.938 85.02 150.431 85.2529 150.907C85.7078 151.866 86.3253 152.733 87.0348 153.447L87.311 153.713C87.3977 153.821 87.5439 153.865 87.3544 153.816C87.1431 153.848 87.1485 153.995 87.1702 153.897C87.1865 153.859 87.1756 153.729 87.1756 153.594C87.1648 153.085 87.1594 152.586 87.1485 152.099C87.1323 151.129 87.1161 150.209 87.0998 149.358C87.0619 145.962 87.1106 143.698 87.1106 143.698Z" fill="#153051"/>
<path d="M111.738 161.962C111.955 162.753 112.123 163.549 112.291 164.34L112.513 165.537L112.627 166.132C112.627 166.311 112.832 166.701 112.312 167.097C112.096 167.243 111.7 167.151 111.587 167.037C111.435 166.929 111.348 166.815 111.267 166.696L110.942 166.149L110.341 165.092C110.146 164.751 109.94 164.356 109.761 164.069C109.577 163.766 109.355 163.614 109.274 163.646L109.675 163.213L109.507 164.984C109.474 165.293 109.458 165.547 109.399 165.9C109.388 166.062 109.22 166.479 108.824 166.533C108.462 166.56 108.299 166.398 108.158 166.295C107.232 165.488 106.441 164.573 105.802 163.554C106.69 164.356 107.611 165.103 108.559 165.759C108.651 165.824 108.765 165.835 108.705 165.818C108.624 165.824 108.608 165.905 108.629 165.786L108.651 164.925L108.732 163.148L108.749 162.78L109.133 162.715C109.48 162.655 109.848 162.796 110.059 162.969C110.287 163.143 110.438 163.343 110.574 163.538C110.823 163.944 110.975 164.275 111.175 164.643L111.733 165.721L111.993 166.241C112.069 166.398 112.15 166.327 111.917 166.371C111.776 166.539 111.917 166.419 111.868 166.224L111.836 165.618L111.765 164.405C111.749 163.592 111.722 162.78 111.738 161.962Z" fill="#153051"/>
<path d="M162.337 260.386C162.185 260.386 162.028 260.311 161.936 260.175C161.784 259.953 161.839 259.65 162.061 259.498C162.916 258.908 163.973 258.827 164.904 258.756L165.224 258.729C167 258.583 168.744 258.171 170.402 257.516C170.651 257.418 170.933 257.537 171.035 257.792C171.133 258.041 171.014 258.323 170.759 258.426C169.01 259.119 167.174 259.547 165.3 259.704L164.975 259.731C164.086 259.796 163.247 259.861 162.608 260.3C162.527 260.359 162.429 260.386 162.337 260.386Z" fill="#153051"/>
<path d="M170.201 263.967C170.163 263.967 170.12 263.961 170.082 263.95C168.631 263.577 167.136 263.387 165.641 263.382C165.37 263.382 165.153 263.16 165.153 262.894C165.153 262.623 165.37 262.407 165.641 262.407C167.217 262.412 168.793 262.613 170.321 263.003C170.581 263.068 170.738 263.333 170.673 263.593C170.618 263.82 170.423 263.967 170.201 263.967Z" fill="#153051"/>
<path d="M151.613 235.737C151.607 235.737 151.607 235.737 151.602 235.737C151.331 235.732 151.12 235.51 151.125 235.239C151.196 231.534 151.526 227.791 152.111 224.125C152.154 223.859 152.409 223.681 152.669 223.718C152.934 223.762 153.119 224.011 153.075 224.276C152.496 227.905 152.165 231.599 152.1 235.26C152.095 235.52 151.878 235.737 151.613 235.737Z" fill="#153051"/>
<path d="M154.381 238.359C154.37 238.359 154.359 238.359 154.348 238.359C154.077 238.342 153.877 238.11 153.893 237.839L154.126 234.139C154.148 233.777 154.158 233.462 154.034 233.251C153.904 233.013 153.991 232.72 154.223 232.585C154.462 232.455 154.754 232.542 154.89 232.775C155.16 233.257 155.123 233.804 155.095 234.204L154.863 237.904C154.852 238.164 154.635 238.359 154.381 238.359Z" fill="#153051"/>
<path d="M191.964 168.754C191.845 168.754 191.72 168.711 191.623 168.619C190.22 167.265 188.53 166.317 186.743 165.32C185.535 164.643 184.289 163.95 183.152 163.116C182.659 162.758 182.139 162.298 182.02 161.626C181.971 161.361 182.15 161.107 182.415 161.063C182.675 161.009 182.935 161.193 182.978 161.459C183.038 161.794 183.374 162.076 183.726 162.336C184.82 163.132 186.038 163.815 187.219 164.475C188.979 165.461 190.805 166.479 192.3 167.926C192.489 168.11 192.5 168.418 192.31 168.613C192.218 168.706 192.088 168.754 191.964 168.754Z" fill="#153051"/>
<path d="M196.893 165.071C196.801 165.071 196.714 165.044 196.633 164.995C193.318 162.921 189.808 161.101 186.217 159.579C185.968 159.476 185.854 159.189 185.957 158.94C186.06 158.691 186.342 158.577 186.596 158.68C190.236 160.218 193.789 162.065 197.153 164.167C197.38 164.307 197.451 164.611 197.304 164.838C197.218 164.99 197.055 165.071 196.893 165.071Z" fill="#153051"/>
<path d="M103.408 249.153C103.349 249.153 103.284 249.142 103.224 249.115C101.626 248.471 99.8659 248.157 98.1598 248.162H98.1544C97.889 248.162 97.6724 247.951 97.6669 247.68C97.6615 247.409 97.8782 247.192 98.149 247.187C99.9905 247.209 101.875 247.517 103.592 248.216C103.841 248.319 103.961 248.601 103.863 248.85C103.782 249.039 103.598 249.153 103.408 249.153Z" fill="#153051"/>
<path d="M99.2322 244.517C99.0372 244.517 98.8531 244.397 98.7773 244.202C98.6798 243.948 98.8043 243.666 99.0589 243.574C99.8551 243.271 100.743 243.2 101.567 243.379C101.832 243.433 102 243.693 101.94 243.953C101.886 244.213 101.642 244.387 101.366 244.327C100.722 244.192 100.023 244.246 99.4055 244.479C99.346 244.506 99.2918 244.517 99.2322 244.517Z" fill="#153051"/>
<path d="M176.62 108.211L171.588 98.0558C171.127 97.1296 170.651 96.1655 170.337 95.169C169.73 93.2299 169.73 91.1013 169.736 89.0432C169.741 87.8733 169.741 86.4217 170.429 85.4143C170.591 85.176 171.014 85.0135 171.555 84.9647C171.653 84.9539 171.756 84.9539 171.853 84.9539C172.655 84.9539 173.494 85.2085 173.846 85.5768L173.922 85.6472C174.881 86.4 175.596 87.4725 176.289 88.507L181.543 96.3659C182.182 97.3192 182.843 98.305 183.401 99.334C183.547 99.5994 183.666 99.8811 183.802 100.152C184.479 100.201 185.101 100.39 185.659 100.688C185.367 99.9948 185.053 99.307 184.69 98.6353C184.099 97.5413 183.417 96.5284 182.762 95.5481L177.508 87.6891C176.793 86.6221 175.986 85.4143 174.865 84.5206C174.041 83.6973 172.509 83.4211 171.436 83.5024C170.423 83.5836 169.638 83.9736 169.216 84.5856C168.279 85.9667 168.273 87.6674 168.273 89.0323C168.268 91.2043 168.268 93.4412 168.945 95.6022C169.291 96.7126 169.817 97.7687 170.283 98.7003L175.58 109.381C175.867 108.942 176.219 108.547 176.62 108.211Z" fill="#153051"/>
<path d="M191.189 117.576C190.848 118.009 190.447 118.388 190.003 118.697C191.46 123.604 192.657 128.869 192.029 134.041C191.931 134.864 191.503 135.737 191.097 135.715C190.87 135.709 190.588 135.504 190.258 135.108C189.478 134.155 188.904 133.007 188.357 131.896L181.218 117.5C180.758 117.652 180.281 117.765 179.788 117.787C179.766 117.787 179.75 117.782 179.729 117.782L187.046 132.546C187.636 133.733 188.243 134.962 189.131 136.04C189.359 136.316 190.046 137.156 191.059 137.183H191.113C192.338 137.183 193.264 136.029 193.48 134.22C194.168 128.517 192.787 122.819 191.189 117.576Z" fill="#153051"/>
<path d="M191.352 136.029C191.444 137.518 191.699 138.97 192.132 140.395C192.576 140.205 193.02 140.021 193.47 139.831C192.912 138.678 192.359 137.518 191.801 136.365C191.395 135.52 190.133 136.257 190.539 137.101C191.097 138.255 191.65 139.414 192.208 140.568C192.565 141.315 193.784 140.79 193.545 140.005C193.15 138.699 192.901 137.388 192.82 136.029C192.755 135.092 191.292 135.087 191.352 136.029Z" fill="#153051"/>
<path d="M170.196 113.79C170.256 113.654 171.144 112.192 170.472 113.356C170.147 113.92 170.797 113.346 171.333 112.961C172.173 110.096 172.996 107.22 173.868 104.365C174.237 103.163 172.352 102.648 171.989 103.845C171.03 106.987 170.126 110.15 169.21 113.302C169.514 113.768 170.061 113.248 170.196 113.79Z" fill="#153051"/>
<path d="M207.292 132.844C207.108 132.747 206.945 132.617 206.783 132.492C205.781 134.772 204.79 137.063 203.831 139.365C203.165 140.963 201.361 147.75 200.126 148.075C199.39 148.27 196.822 146.363 196.037 146.027C193.805 145.069 191.493 144.299 189.175 143.579C184.219 142.052 179.165 140.817 174.107 139.685C171.978 139.208 169.844 138.748 167.704 138.315C164.059 137.572 165.24 134.994 166.058 131.875C167.233 127.39 167.407 124.904 168.669 120.446C168.642 120.37 168.631 120.284 168.609 120.208C168.149 121.345 168.338 120.306 167.071 120.76C165.923 124.877 164.785 129.004 163.713 133.142C162.234 138.84 163.361 139.392 168.609 140.486C174.209 141.651 179.788 142.935 185.296 144.478C190.696 145.989 195.354 148.351 200.424 150.479C200.614 150.561 201.009 150.506 201.177 150.382C202.796 149.147 203.078 146.558 203.771 144.711C205.212 140.893 206.848 137.145 208.489 133.402C208.505 133.364 208.521 133.332 208.538 133.299C208.115 133.196 207.693 133.061 207.292 132.844Z" fill="#153051"/>
<path d="M219.554 98.554C213.098 96.6421 206.414 95.6834 199.904 94.0043C196.801 93.2027 193.73 92.2928 190.691 91.2746C188.102 90.408 184.993 88.5881 182.247 88.496C181.917 88.4852 181.565 88.6856 181.408 88.9781C180.709 90.2509 180.411 91.7512 179.972 93.1269C179.593 94.3239 181.473 94.8384 181.852 93.6469C183.303 89.081 188.53 92.6395 191.834 93.701C195.717 94.9468 199.655 96.0138 203.636 96.9075C207.119 97.6874 210.639 98.3048 214.111 99.1389C215.562 99.4856 217.756 99.6697 219.04 100.439C220.86 101.528 220.426 102.02 220.107 103.434C219.359 106.754 216.857 110.372 215.422 113.46C214.328 115.81 213.266 118.172 212.183 120.528C212.383 120.549 212.584 120.566 212.789 120.609C213.223 120.706 213.623 120.907 214.008 121.14C215.703 117.44 217.42 113.747 219.143 110.058C220.215 107.767 221.482 105.487 222.387 103.125C223.524 100.157 222.392 99.3935 219.554 98.554Z" fill="#153051"/>
<path d="M168.679 86.6223C165.153 85.8098 163.772 90.3486 164.552 93.1163C165.164 95.2991 166.925 97.3193 168.122 99.2042C169.178 100.862 170.023 103.126 172.081 103.624C173.3 103.916 173.819 102.042 172.601 101.744C170.954 101.349 169.161 97.211 168.349 95.9328C167.791 95.0608 167.12 94.1942 166.735 93.2247C166.497 92.6289 165.852 87.9655 168.165 88.5017C169.384 88.7833 169.904 86.9039 168.679 86.6223Z" fill="#153051"/>
<path d="M217.864 98.3102C217.843 97.3353 217.626 96.1383 216.678 95.64C215.736 95.1471 214.56 95.4287 213.781 96.0895C212.28 97.3515 211.614 100.536 213.813 101.392C214.983 101.847 215.487 99.9621 214.333 99.5126C213.894 99.3447 215.85 95.4667 215.915 98.3102C215.947 99.5667 217.897 99.5667 217.864 98.3102Z" fill="#153051"/>
<path d="M210.233 96.4959C210.357 95.3314 210.255 94.0694 208.89 93.7715C207.671 93.5061 206.734 94.4214 206.279 95.4505C205.84 96.4363 205.196 98.3915 205.987 99.3394C206.712 100.211 208.446 99.9839 208.895 98.944C209.388 97.8066 207.709 96.81 207.211 97.9582C207.341 97.8878 207.471 97.8932 207.611 97.9799C207.628 97.8337 207.644 97.6874 207.66 97.5412C207.725 97.135 207.839 96.7233 208.001 96.3442C208.077 96.16 208.37 95.6672 208.397 95.6617C208.288 95.6672 208.288 96.3496 208.278 96.4959C208.153 97.7416 210.103 97.7362 210.233 96.4959Z" fill="#153051"/>
<path d="M204.129 95.3638C204.394 94.4051 204.4 93.1864 203.381 92.6611C202.455 92.1844 201.421 92.7044 200.933 93.5439C200.104 94.9738 199.796 99.2364 202.558 98.4619C203.766 98.1261 203.251 96.2466 202.038 96.5824C202.428 96.4741 202.282 95.6671 202.347 95.3475C202.39 95.1309 202.45 94.9142 202.526 94.7084C202.336 94.4701 202.249 94.5188 202.249 94.8492C201.913 96.0571 203.793 96.5716 204.129 95.3638Z" fill="#153051"/>
<path d="M198.718 94.2482C198.902 93.1379 198.848 91.8434 197.635 91.3559C196.454 90.8793 195.36 91.7621 194.9 92.7912C194.401 93.9016 194.158 95.4994 194.434 96.7018C194.721 97.9692 196.221 97.8771 197.136 97.4113C198.252 96.8426 197.266 95.1581 196.151 95.7268C195.945 95.8677 195.864 95.8839 195.902 95.7756C196.053 95.9706 196.199 96.1656 196.351 96.3605C196.21 95.7431 196.308 94.9036 196.443 94.3024C196.514 93.9882 196.606 93.6795 196.768 93.4033C196.844 93.322 196.871 93.2245 196.855 93.1108C196.898 93.3166 196.893 93.5224 196.839 93.7282C196.638 94.9577 198.518 95.4831 198.718 94.2482Z" fill="#153051"/>
<path d="M192.505 92.2927C192.944 90.0721 190.095 88.5393 188.725 90.5433C187.745 91.9786 187.328 95.3908 189.651 95.7971C190.875 96.0137 191.406 94.1343 190.171 93.9176C189.732 93.8418 189.917 92.9644 189.976 92.6448C190.014 92.4336 190.068 92.2061 190.144 92.0057C189.987 92.4011 190.816 90.8195 190.626 91.7782C190.388 93.0023 192.262 93.5276 192.505 92.2927Z" fill="#153051"/>
<path d="M187.43 90.0938C187.468 89.0485 187.035 87.8677 185.876 87.6511C184.717 87.4344 183.91 88.3389 183.525 89.3193C183.157 90.2617 182.735 91.567 183.022 92.5853C183.33 93.6577 184.381 93.9502 185.361 94.026C186.613 94.1235 186.607 92.1736 185.361 92.0761C185.02 92.0491 184.971 92.0978 184.89 91.7999C184.836 91.6049 185.02 91.0633 185.069 90.8737C185.145 90.5758 185.215 90.2509 185.351 89.98C185.524 89.6172 185.497 89.6334 185.481 90.0992C185.437 91.3449 187.387 91.3449 187.43 90.0938Z" fill="#153051"/>
<path d="M210.607 109.582C209.269 108.861 207.92 108.222 206.49 107.718C204.161 106.901 202.233 105.644 199.985 104.68C197.055 103.418 193.822 103.093 190.859 101.988C189.684 101.549 189.175 103.434 190.339 103.868C193.562 105.07 197.12 105.325 200.218 106.944C203.3 108.553 206.55 109.614 209.621 111.261C210.726 111.862 211.712 110.177 210.607 109.582Z" fill="#153051"/>
<path d="M207.487 114.895C205.374 113.21 202.601 112.842 200.175 111.716C197.586 110.513 194.472 110.047 192.067 108.612C191.639 108.357 191.233 108.471 190.956 108.742C191.162 109.273 191.276 109.831 191.303 110.399C193.459 111.613 195.999 111.894 198.252 112.94C200.581 114.023 204.145 114.711 206.106 116.276C207.081 117.045 208.467 115.675 207.487 114.895Z" fill="#153051"/>
<path d="M203.452 119.937C200.256 118.746 197.218 117.229 194.179 115.696C193.063 115.133 192.072 116.812 193.193 117.381C196.383 118.995 199.579 120.571 202.932 121.822C204.112 122.256 204.622 120.376 203.452 119.937Z" fill="#153051"/>
<path d="M200.321 129.996C199.563 129.579 198.788 129.205 197.987 128.874C197.337 128.609 196.086 128.457 195.631 127.921C194.818 126.962 193.443 128.349 194.255 129.297C194.813 129.958 195.685 130.093 196.465 130.364C197.467 130.711 198.415 131.16 199.341 131.669C200.435 132.287 201.421 130.602 200.321 129.996Z" fill="#153051"/>
<path d="M208.901 133.375C207.411 137.074 206.041 140.812 204.93 144.635C204.389 146.499 204.161 148.432 203.766 150.328C203.43 151.947 203.755 151.936 202.601 151.974C202.168 151.991 200.527 150.918 200.137 150.729C196.606 149.05 192.928 147.663 189.261 146.32C181.364 143.422 173.272 141.05 165.43 138.017C164.845 137.789 164.59 138.732 165.17 138.954C177.768 143.823 191.839 146.564 203.473 153.61C203.728 153.762 204.129 153.626 204.188 153.318C205.494 146.439 207.736 139.88 210.282 133.424C209.827 133.472 209.361 133.456 208.901 133.375Z" fill="#153051"/>
<path d="M215.016 121.974C217.762 115.431 220.443 108.856 222.398 102.015C222.571 101.408 221.629 101.154 221.461 101.755C219.554 108.428 216.862 114.824 214.095 121.194C214.425 121.416 214.739 121.671 215.016 121.974Z" fill="#153051"/>
<path d="M208.061 123.09C208.673 125.608 212.183 126.941 214.468 127.32C216.749 127.699 219.056 126.258 217.783 123.718C216.7 121.557 213.721 119.84 211.392 119.526C209.361 119.249 206.794 120.474 208.007 122.851C208.575 123.967 210.26 122.981 209.691 121.866C209.242 120.983 212.746 121.92 212.99 122.044C213.938 122.526 214.853 123.193 215.579 123.972C216.31 124.758 215.812 125.592 214.717 125.392C214.181 125.294 213.65 125.142 213.141 124.958C212.074 124.568 210.227 123.767 209.935 122.564C209.642 121.351 207.763 121.866 208.061 123.09Z" fill="#153051"/>
<path d="M208.548 121.898C207.075 122.05 205.954 123.041 205.775 124.563C205.569 126.302 206.815 127.824 208.088 128.831C210.802 130.976 215.497 131.593 217.074 127.818C217.556 126.665 215.671 126.155 215.194 127.298C214.344 129.34 211.516 128.707 210.087 127.851C209.28 127.369 206.014 124.103 208.554 123.843C209.783 123.718 209.794 121.768 208.548 121.898Z" fill="#153051"/>
<path d="M205.716 125.311C204.4 126.34 203.522 128.544 203.988 130.196C204.524 132.086 206.339 133.034 208.039 133.679C209.854 134.361 211.934 135.32 213.786 134.226C215.34 133.31 215.817 131.583 215.465 129.898C215.21 128.669 213.331 129.189 213.586 130.418C214.322 133.939 210.168 132.411 208.559 131.799C207.552 131.415 206.182 130.868 205.867 129.681C205.591 128.647 206.295 127.315 207.091 126.692C208.077 125.917 206.691 124.547 205.716 125.311Z" fill="#153051"/>
<path d="M70.9216 94.4651C79.2951 111.624 95.8796 121.812 114.782 123.437C124.629 124.282 134.952 124.601 144.691 122.662C155.404 120.528 165.078 115.058 175.666 112.474C176.885 112.176 176.371 110.297 175.146 110.595C166.215 112.772 158.004 116.98 149.197 119.537C139.697 122.299 129.785 122.278 119.987 121.812C109.377 121.308 100.24 119.358 91.1188 113.747C82.5828 108.493 76.9932 102.476 72.6006 93.4794C72.0536 92.3582 70.3745 93.3439 70.9216 94.4651Z" fill="#153051"/>
<path d="M67.8343 102.503C76.4624 119.461 91.4654 129.812 110.384 132.357C132.483 135.336 154.045 127.818 174.231 119.689C175.379 119.228 174.876 117.338 173.711 117.809C155.036 125.332 135.359 132.346 114.896 130.873C94.9372 129.438 78.5964 119.375 69.5133 101.523C68.9446 100.401 67.2656 101.382 67.8343 102.503Z" fill="#153051"/>
<path d="M179.176 112.604C178.829 112.604 178.499 112.42 178.32 112.1C178.06 111.629 178.234 111.033 178.705 110.779L183.563 108.125C184.538 107.594 185.638 106.987 186.261 106.099C186.975 105.075 187.003 103.564 186.326 102.508C186.152 102.237 186.033 102.156 185.973 102.129C185.93 102.107 185.822 102.086 185.643 102.097C184.755 102.167 183.969 102.909 183.141 103.7L182.61 104.198C181.922 104.821 181.18 105.368 180.465 105.893C179.81 106.375 179.154 106.857 178.542 107.399C177.605 108.239 176.473 109.56 176.403 111.104C176.376 111.64 175.899 112.106 175.385 112.03C174.848 112.003 174.431 111.548 174.459 111.012C174.561 108.791 176.035 107.031 177.248 105.942C177.903 105.357 178.607 104.837 179.311 104.317C180.021 103.797 180.687 103.304 181.299 102.746L181.798 102.281C182.789 101.338 183.91 100.271 185.486 100.152C185.963 100.114 186.391 100.179 186.764 100.347C187.225 100.547 187.615 100.91 187.961 101.447C189.066 103.164 189.023 105.536 187.853 107.209C186.97 108.471 185.594 109.224 184.495 109.825L179.636 112.479C179.496 112.566 179.333 112.604 179.176 112.604Z" fill="#153051"/>
<path d="M189.629 120.225C189.012 120.225 188.443 120.133 188.021 120.062L182.735 119.196C179.636 118.692 176.901 118.367 174.626 119.521C174.155 119.764 173.559 119.575 173.316 119.093C173.072 118.611 173.262 118.026 173.744 117.782C176.771 116.244 180.4 116.84 183.049 117.273L188.335 118.14C189.348 118.307 190.35 118.394 190.87 117.917C191.081 117.668 191.303 116.488 191.2 116.108C191.027 115.735 189.673 114.549 189.218 114.408C188.719 114.245 188.405 113.72 188.541 113.216C188.676 112.712 189.137 112.398 189.662 112.512C190.658 112.734 192.798 114.559 193.08 115.605C193.329 116.525 193.031 118.567 192.191 119.353C191.449 120.041 190.496 120.225 189.629 120.225Z" fill="#153051"/>
<path d="M180.416 115.924C179.924 115.924 179.501 115.55 179.452 115.052C179.393 114.516 179.783 114.034 180.319 113.98C183.265 113.666 186.185 113.032 188.996 112.106C190.019 111.764 190.566 111.402 190.664 110.985C190.713 110.79 190.669 110.524 190.545 110.237C190.274 109.603 189.505 108.98 188.59 108.65C187.777 108.358 186.992 108.331 186.477 108.591C186.006 108.829 185.41 108.639 185.172 108.157C184.928 107.675 185.123 107.09 185.605 106.852C186.602 106.348 187.934 106.337 189.261 106.819C190.702 107.345 191.85 108.331 192.338 109.468C192.63 110.15 192.711 110.838 192.565 111.445C192.164 113.113 190.306 113.725 189.608 113.958C186.672 114.928 183.612 115.588 180.53 115.919C180.487 115.924 180.449 115.924 180.416 115.924Z" fill="#153051"/>
</g>
<defs>
<clipPath id="clip0_2382_4931">
<rect width="174.826" height="270" fill="white" transform="translate(48)"/>
</clipPath>
</defs>
</svg>
