<svg width="29" height="17" viewBox="0 0 29 17" fill="none" xmlns="http://www.w3.org/2000/svg">
<path d="M23.4981 6.63147C23.1322 6.63147 22.7671 6.66576 22.4086 6.73411C22.1382 5.46266 21.2641 4.37808 20.0369 3.79103C18.8099 3.20398 17.3648 3.17936 16.1158 3.72407C14.9856 0.790427 11.5454 -0.724258 8.43199 0.340762C5.3186 1.40578 3.7111 4.64756 4.84138 7.58097C2.1141 7.6622 -0.0402161 9.78925 0.000569667 12.36C0.0415997 14.9309 2.26284 16.9959 4.99158 17H23.4981C26.5365 17 29 14.679 29 11.8157C29 8.95251 26.5365 6.63147 23.4981 6.63147V6.63147Z" fill="#A3D4F7"/>
</svg>
