<svg width="29" height="24" viewBox="0 0 29 24" fill="none" xmlns="http://www.w3.org/2000/svg">
<path d="M6.45909 23.8702C4.48182 23.8702 2.9 23.1508 1.71364 21.7121C0.571212 20.2299 0 18.486 0 16.4805C0 14.8239 0.307576 13.2762 0.922727 11.8375C1.53788 10.3988 2.30682 9.09089 3.22955 7.91378C4.19621 6.73667 5.20682 5.71215 6.26136 4.84021C7.35985 3.92468 8.37045 3.16174 9.29318 2.55139C10.2159 1.89743 10.9629 1.41787 11.5341 1.11269C12.1492 0.807516 12.4348 0.654928 12.3909 0.654928L13.9068 2.68218C13.5114 2.85656 12.9841 3.20534 12.325 3.7285C11.6659 4.20806 11.0068 4.79662 10.3477 5.49416C9.73258 6.19171 9.18333 6.95466 8.7 7.78299C8.21667 8.56773 7.975 9.33068 7.975 10.0718C7.975 10.5078 8.23864 10.9438 8.76591 11.3797C9.29318 11.7721 9.86439 12.2517 10.4795 12.8184C11.0947 13.3416 11.6659 13.9955 12.1932 14.7803C12.7205 15.5214 12.9841 16.4369 12.9841 17.5269C12.9841 18.486 12.7864 19.3579 12.3909 20.1427C12.0394 20.9274 11.5561 21.6032 10.9409 22.1699C10.3697 22.6931 9.68864 23.1072 8.89773 23.4124C8.10682 23.7176 7.29394 23.8702 6.45909 23.8702ZM22.6727 24.001C21.6621 24.001 20.7394 23.783 19.9045 23.347C19.0697 22.9111 18.3447 22.3225 17.7295 21.5814C17.1144 20.8402 16.6311 19.9901 16.2795 19.0309C15.972 18.0282 15.8182 16.9601 15.8182 15.8266C15.8182 13.5596 16.3015 11.4669 17.2682 9.54866C18.2788 7.58681 19.3773 5.90833 20.5636 4.51324C21.9697 2.85656 23.5735 1.35248 25.375 0.000976562L27.2864 1.76664C26.8909 2.02822 26.4076 2.44239 25.8364 3.00915C25.3091 3.57591 24.8038 4.25166 24.3205 5.0364C23.8811 5.77754 23.4856 6.56228 23.1341 7.39062C22.8265 8.21896 22.6727 9.0255 22.6727 9.81024C22.6727 10.3334 23.0023 10.7694 23.6614 11.1181C24.3205 11.4669 25.0455 11.9029 25.8364 12.426C26.6273 12.9492 27.3523 13.625 28.0114 14.4533C28.6705 15.238 29 16.3498 29 17.7884C29 18.6604 28.8242 19.4669 28.4727 20.2081C28.1212 20.9492 27.6379 21.6032 27.0227 22.1699C26.4515 22.7367 25.7705 23.1944 24.9795 23.5432C24.2326 23.8484 23.4636 24.001 22.6727 24.001Z" fill="#2F74C8"/>
</svg>
