<svg width="61" height="78" viewBox="0 0 61 78" fill="none" xmlns="http://www.w3.org/2000/svg">
<g clip-path="url(#clip0_465_9650)">
<path d="M5.95892 58.1702L30.9331 71L54.9589 58.1702V8H5.95892V58.1702Z" fill="white"/>
<path d="M54.9589 8L4.95892 59.008L30.8755 72L54.9589 59.52V8Z" fill="#F2F3F2"/>
<path d="M3.95892 24.5005V59.2531L4.85506 59.7028L30.1389 72.6146L30.907 73L31.6751 72.6146L56.0628 59.7028L56.9589 59.2531V6H3.95892V24.5005ZM5.62317 58.2895V7.67018H55.2947V58.2895L30.907 71.2013L5.62317 58.2895Z" fill="#DCDEDC"/>
<path d="M29.9903 8.48529C30.2416 8.48529 30.493 8.48529 30.7443 8.54902L29.9903 10.0147C28.8594 9.95098 27.8542 10.8431 27.7914 11.9902C27.7286 13.1373 28.6081 14.1569 29.739 14.2206H29.9903C30.493 14.2206 30.9956 14.0294 31.3725 13.7108L32.1893 15.1127C31.561 15.5588 30.8071 15.8137 29.9903 15.8137C27.9799 15.8774 26.2835 14.348 26.2207 12.3088C26.1579 10.2696 27.6657 8.54902 29.6762 8.48529H29.9903ZM32.5663 11.6078L33.5087 13.201L32.5663 14.7304L31.6867 13.201H29.8647L30.8071 11.6078H32.5663ZM31.0584 11.0343C31.0584 10.7794 31.1212 10.5245 31.2469 10.3333C31.3725 10.1422 31.6238 9.95098 31.8123 9.82353L31.938 9.7598C32.1893 9.63235 32.2521 9.56863 32.2521 9.44118C32.2521 9.31373 32.0636 9.18627 31.938 9.18627C31.6867 9.18627 31.4982 9.31373 31.3725 9.56863L31.0584 9.25C31.1212 9.12255 31.2469 8.9951 31.3725 8.86765C31.561 8.7402 31.7495 8.7402 31.938 8.7402C32.1265 8.7402 32.3778 8.80392 32.5034 8.93137C32.6291 9.05882 32.7547 9.25 32.7547 9.44118C32.7547 9.7598 32.5663 10.0147 32.1893 10.1422L32.0008 10.2696C31.8123 10.3971 31.6867 10.4608 31.6238 10.652H32.7547V11.098L31.0584 11.0343ZM29.9903 19L35.9589 15.5588V6H23.9589V15.4951L29.9903 19Z" fill="#FF492C"/>
<path d="M57.9901 42H2.99122L0.958923 46.5L2.99122 51H57.9901L59.9589 46.5L57.9901 42Z" fill="#FF492C"/>
<path d="M11.738 32C12.1539 32 12.5194 32.0878 12.8344 32.2634C13.1495 32.439 13.3932 32.6914 13.5654 33.0207C13.7377 33.3456 13.8238 33.7187 13.8238 34.1402C13.8238 34.5572 13.7356 34.9238 13.5591 35.2399C13.3785 35.5516 13.1264 35.7952 12.8029 35.9708C12.4794 36.1464 12.1056 36.2342 11.6812 36.2342H10.339C10.3096 36.2342 10.2949 36.2518 10.2949 36.2869V38.8024C10.2949 38.8376 10.2823 38.8661 10.2571 38.8881C10.2361 38.91 10.2088 38.921 10.1751 38.921H9.07235C9.03874 38.921 9.01144 38.91 8.99043 38.8881C8.96943 38.8661 8.95892 38.8376 8.95892 38.8024V32.1185C8.95892 32.0834 8.96943 32.0549 8.99043 32.0329C9.01144 32.011 9.03874 32 9.07235 32H11.738ZM11.5363 35.1214C11.8304 35.1214 12.0635 35.0336 12.2358 34.8579C12.4122 34.6823 12.5005 34.4541 12.5005 34.1731C12.5005 33.879 12.4122 33.6441 12.2358 33.4685C12.0635 33.2885 11.8304 33.1985 11.5363 33.1985H10.339C10.3096 33.1985 10.2949 33.2161 10.2949 33.2512V35.0687C10.2949 35.1038 10.3096 35.1214 10.339 35.1214H11.5363ZM18.8651 35.8589C18.9029 36.1091 18.9155 36.3879 18.9029 36.6952C18.8987 36.7786 18.8588 36.8203 18.7832 36.8203H15.8592C15.8214 36.8203 15.8088 36.8357 15.8214 36.8664C15.8424 36.9981 15.876 37.1298 15.9223 37.2615C16.0903 37.6303 16.4243 37.8147 16.9242 37.8147C17.3317 37.8103 17.651 37.6391 17.8821 37.301C17.9073 37.2615 17.9346 37.2418 17.964 37.2418C17.985 37.2418 18.0081 37.2549 18.0333 37.2813L18.7139 37.9793C18.7433 38.0144 18.758 38.0452 18.758 38.0715C18.758 38.0847 18.7475 38.111 18.7265 38.1505C18.5164 38.4227 18.2476 38.6312 17.9199 38.7761C17.5922 38.9254 17.233 39 16.8423 39C16.3004 39 15.8424 38.8727 15.4685 38.6181C15.0946 38.359 14.8237 37.9991 14.6556 37.5381C14.5254 37.2088 14.4603 36.7786 14.4603 36.2474C14.4603 35.883 14.5065 35.5626 14.5989 35.286C14.7459 34.8206 15.0001 34.4497 15.3614 34.1731C15.7269 33.8965 16.1575 33.7582 16.6532 33.7582C17.2834 33.7582 17.7896 33.9492 18.1719 34.3311C18.5542 34.7131 18.7853 35.2223 18.8651 35.8589ZM16.6596 34.9633C16.2646 34.9633 16.0042 35.1565 15.8781 35.5428C15.8529 35.6306 15.8298 35.736 15.8088 35.8589C15.8088 35.8896 15.8256 35.905 15.8592 35.905H17.4914C17.5292 35.905 17.5439 35.8896 17.5355 35.8589C17.5019 35.6701 17.4851 35.5779 17.4851 35.5823C17.4263 35.3848 17.3275 35.2311 17.1889 35.1214C17.0461 35.016 16.8696 34.9633 16.6596 34.9633ZM22.1483 33.778C22.371 33.778 22.5495 33.8241 22.6839 33.9163C22.7344 33.9426 22.7533 33.9909 22.7407 34.0611L22.539 35.1872C22.5348 35.2662 22.4907 35.2904 22.4067 35.2596C22.3142 35.2245 22.205 35.207 22.079 35.207C22.0286 35.207 21.9592 35.2135 21.871 35.2267C21.6442 35.2487 21.4509 35.3365 21.2913 35.4901C21.1358 35.6438 21.0581 35.8501 21.0581 36.1091V38.8024C21.0581 38.8376 21.0476 38.8661 21.0266 38.8881C21.0014 38.91 20.9741 38.921 20.9447 38.921H19.8419C19.8083 38.921 19.781 38.91 19.76 38.8881C19.739 38.8661 19.7285 38.8376 19.7285 38.8024V33.9624C19.7285 33.9316 19.739 33.9031 19.76 33.8768C19.781 33.8548 19.8083 33.8438 19.8419 33.8438H20.9447C20.9741 33.8438 21.0014 33.8548 21.0266 33.8768C21.0476 33.9031 21.0581 33.9316 21.0581 33.9624V34.3377C21.0581 34.3553 21.0644 34.3685 21.077 34.3772C21.0896 34.386 21.098 34.3816 21.1022 34.3641C21.3627 33.9733 21.7114 33.778 22.1483 33.778ZM26.1183 33.8373C26.1477 33.8373 26.173 33.8482 26.194 33.8702C26.2192 33.8921 26.2318 33.9207 26.2318 33.9558V34.8909C26.2318 34.926 26.2192 34.9545 26.194 34.9765C26.173 34.9984 26.1477 35.0094 26.1183 35.0094H25.1983C25.1689 35.0094 25.1542 35.0248 25.1542 35.0555V38.8024C25.1542 38.8376 25.1416 38.8661 25.1164 38.8881C25.0954 38.91 25.0702 38.921 25.0408 38.921H23.9317C23.9023 38.921 23.8749 38.91 23.8497 38.8881C23.8287 38.8661 23.8182 38.8376 23.8182 38.8024V35.0555C23.8182 35.0248 23.8014 35.0094 23.7678 35.0094H23.2133C23.1839 35.0094 23.1566 34.9984 23.1314 34.9765C23.1103 34.9545 23.0998 34.926 23.0998 34.8909V33.9558C23.0998 33.9207 23.1103 33.8921 23.1314 33.8702C23.1566 33.8482 23.1839 33.8373 23.2133 33.8373H23.7678C23.8014 33.8373 23.8182 33.8197 23.8182 33.7846V33.5673C23.8182 33.159 23.8792 32.8407 24.001 32.6124C24.1186 32.3885 24.3119 32.2283 24.5807 32.1317C24.8496 32.0351 25.2193 31.9934 25.6898 32.0066H26.049C26.0826 32.0066 26.1099 32.0176 26.1309 32.0395C26.1519 32.0659 26.1625 32.0944 26.1625 32.1251V32.9219C26.1625 32.957 26.1519 32.9856 26.1309 33.0075C26.1099 33.0339 26.0826 33.047 26.049 33.047H25.7339C25.5155 33.0514 25.3642 33.0975 25.2802 33.1853C25.1962 33.2775 25.1542 33.4421 25.1542 33.6792V33.7846C25.1542 33.8197 25.1689 33.8373 25.1983 33.8373H26.1183ZM29.1494 39C28.6201 39 28.1664 38.8551 27.7883 38.5654C27.4102 38.2756 27.1518 37.8805 27.0132 37.3801C26.925 37.0728 26.8808 36.7369 26.8808 36.3725C26.8808 35.9862 26.925 35.6372 27.0132 35.3255C27.1602 34.8382 27.4207 34.4563 27.7946 34.1797C28.1769 33.9031 28.6327 33.7648 29.162 33.7648C29.6788 33.7648 30.1178 33.9009 30.4791 34.1731C30.8488 34.4497 31.1093 34.8316 31.2605 35.3189C31.3613 35.6482 31.4117 35.9928 31.4117 36.3528C31.4117 36.7084 31.3676 37.042 31.2794 37.3537C31.1366 37.8674 30.8782 38.269 30.5043 38.5588C30.1304 38.8529 29.6788 39 29.1494 39ZM29.1494 37.8081C29.3595 37.8081 29.5359 37.7422 29.6788 37.6105C29.8216 37.4788 29.9266 37.2966 29.9939 37.064C30.0443 36.8532 30.0695 36.6228 30.0695 36.3725C30.0695 36.096 30.0443 35.8633 29.9939 35.6745C29.9224 35.4506 29.8132 35.275 29.6662 35.1477C29.5233 35.0248 29.349 34.9633 29.1431 34.9633C28.9247 34.9633 28.7461 35.0248 28.6075 35.1477C28.4647 35.275 28.3617 35.4506 28.2987 35.6745C28.2483 35.8282 28.2231 36.0608 28.2231 36.3725C28.2231 36.6711 28.2462 36.9015 28.2924 37.064C28.3512 37.2966 28.4563 37.4788 28.6075 37.6105C28.7545 37.7422 28.9352 37.8081 29.1494 37.8081ZM34.6886 33.778C34.9155 33.778 35.094 33.8241 35.2242 33.9163C35.2747 33.9426 35.2936 33.9909 35.281 34.0611L35.0856 35.1872C35.0772 35.2662 35.0331 35.2904 34.9533 35.2596C34.8566 35.2245 34.7453 35.207 34.6193 35.207C34.5689 35.207 34.4995 35.2135 34.4113 35.2267C34.1887 35.2487 33.9975 35.3365 33.8379 35.4901C33.6824 35.6438 33.6047 35.8501 33.6047 36.1091V38.8024C33.6047 38.8376 33.5921 38.8661 33.5669 38.8881C33.5459 38.91 33.5207 38.921 33.4913 38.921H32.3822C32.3486 38.921 32.3213 38.91 32.3003 38.8881C32.2793 38.8661 32.2688 38.8376 32.2688 38.8024V33.9624C32.2688 33.9316 32.2793 33.9031 32.3003 33.8768C32.3213 33.8548 32.3486 33.8438 32.3822 33.8438H33.4913C33.5207 33.8438 33.5459 33.8548 33.5669 33.8768C33.5921 33.9031 33.6047 33.9316 33.6047 33.9624V34.3377C33.6047 34.3553 33.6089 34.3685 33.6173 34.3772C33.6299 34.386 33.6404 34.3816 33.6488 34.3641C33.9051 33.9733 34.2517 33.778 34.6886 33.778ZM41.2738 33.7648C41.7654 33.7648 42.1498 33.9185 42.427 34.2258C42.7043 34.5375 42.8429 34.9743 42.8429 35.5362V38.8024C42.8429 38.8376 42.8324 38.8661 42.8114 38.8881C42.7904 38.91 42.7631 38.921 42.7295 38.921H41.6267C41.5931 38.921 41.5658 38.91 41.5448 38.8881C41.5238 38.8661 41.5133 38.8376 41.5133 38.8024V35.8391C41.5133 35.5713 41.4461 35.3584 41.3116 35.2004C41.1814 35.0423 41.005 34.9633 40.7823 34.9633C40.5638 34.9633 40.3853 35.0423 40.2467 35.2004C40.108 35.3584 40.0387 35.5691 40.0387 35.8325V38.8024C40.0387 38.8376 40.0282 38.8661 40.0072 38.8881C39.982 38.91 39.9547 38.921 39.9253 38.921H38.8288C38.7952 38.921 38.7679 38.91 38.7469 38.8881C38.7259 38.8661 38.7154 38.8376 38.7154 38.8024V35.8391C38.7154 35.5757 38.646 35.3628 38.5074 35.2004C38.3688 35.0423 38.1881 34.9633 37.9655 34.9633C37.7638 34.9633 37.5958 35.0248 37.4613 35.1477C37.3269 35.275 37.2471 35.4506 37.2219 35.6745V38.8024C37.2219 38.8376 37.2114 38.8661 37.1904 38.8881C37.1651 38.91 37.1378 38.921 37.1084 38.921H35.9993C35.9699 38.921 35.9447 38.91 35.9237 38.8881C35.8985 38.8661 35.8859 38.8376 35.8859 38.8024V33.9624C35.8859 33.9316 35.8985 33.9031 35.9237 33.8768C35.9447 33.8548 35.9699 33.8438 35.9993 33.8438H37.1084C37.1378 33.8438 37.1651 33.8548 37.1904 33.8768C37.2114 33.9031 37.2219 33.9316 37.2219 33.9624V34.3509C37.2219 34.3685 37.2282 34.3816 37.2408 34.3904C37.2534 34.3948 37.266 34.386 37.2786 34.3641C37.5348 33.9646 37.934 33.7648 38.4759 33.7648C38.791 33.7648 39.0682 33.8351 39.3077 33.9755C39.543 34.1116 39.7236 34.3092 39.8497 34.5682C39.8665 34.6077 39.8875 34.6077 39.9127 34.5682C40.0513 34.296 40.2404 34.0941 40.4798 33.9624C40.7151 33.8307 40.9798 33.7648 41.2738 33.7648ZM48.0796 35.8589C48.1174 36.1091 48.13 36.3879 48.1174 36.6952C48.1132 36.7786 48.0733 36.8203 47.9977 36.8203H45.0737C45.0359 36.8203 45.0233 36.8357 45.0359 36.8664C45.0569 36.9981 45.0926 37.1298 45.143 37.2615C45.3069 37.6303 45.6409 37.8147 46.145 37.8147C46.5483 37.8103 46.8655 37.6391 47.0966 37.301C47.1218 37.2615 47.1512 37.2418 47.1848 37.2418C47.2016 37.2418 47.2226 37.2549 47.2478 37.2813L47.9284 37.9793C47.962 38.0144 47.9788 38.0452 47.9788 38.0715C47.9788 38.0847 47.9662 38.111 47.941 38.1505C47.7309 38.4227 47.4621 38.6312 47.1344 38.7761C46.8067 38.9254 46.4475 39 46.0568 39C45.5148 39 45.0569 38.8727 44.683 38.6181C44.3091 38.359 44.0403 37.9991 43.8764 37.5381C43.742 37.2088 43.6748 36.7786 43.6748 36.2474C43.6748 35.883 43.7231 35.5626 43.8197 35.286C43.9625 34.8206 44.2167 34.4497 44.5822 34.1731C44.9435 33.8965 45.372 33.7582 45.8677 33.7582C46.4979 33.7582 47.0041 33.9492 47.3864 34.3311C47.7687 34.7131 47.9998 35.2223 48.0796 35.8589ZM45.8803 34.9633C45.4812 34.9633 45.2187 35.1565 45.0926 35.5428C45.0674 35.6306 45.0464 35.736 45.0296 35.8589C45.0296 35.8896 45.0443 35.905 45.0737 35.905H46.7122C46.75 35.905 46.7626 35.8896 46.75 35.8589C46.7164 35.6701 46.6996 35.5779 46.6996 35.5823C46.6449 35.3848 46.5462 35.2311 46.4034 35.1214C46.2605 35.016 46.0862 34.9633 45.8803 34.9633ZM51.3628 33.778C51.5896 33.778 51.7682 33.8241 51.8984 33.9163C51.9488 33.9426 51.9677 33.9909 51.9551 34.0611L51.7598 35.1872C51.7514 35.2662 51.7073 35.2904 51.6275 35.2596C51.5308 35.2245 51.4195 35.207 51.2935 35.207C51.2431 35.207 51.1737 35.2135 51.0855 35.2267C50.8587 35.2487 50.6675 35.3365 50.5121 35.4901C50.3524 35.6438 50.2726 35.8501 50.2726 36.1091V38.8024C50.2726 38.8376 50.2621 38.8661 50.2411 38.8881C50.2201 38.91 50.1928 38.921 50.1592 38.921H49.0564C49.0228 38.921 48.9955 38.91 48.9745 38.8881C48.9534 38.8661 48.9429 38.8376 48.9429 38.8024V33.9624C48.9429 33.9316 48.9534 33.9031 48.9745 33.8768C48.9955 33.8548 49.0228 33.8438 49.0564 33.8438H50.1592C50.1928 33.8438 50.2201 33.8548 50.2411 33.8768C50.2621 33.9031 50.2726 33.9316 50.2726 33.9624V34.3377C50.2726 34.3553 50.2789 34.3685 50.2915 34.3772C50.3041 34.386 50.3146 34.3816 50.323 34.3641C50.5793 33.9733 50.9259 33.778 51.3628 33.778Z" fill="#252530"/>
<path d="M24.5346 22.4076C24.5346 22.3774 24.5453 22.3494 24.5666 22.3235C24.5879 22.3019 24.6135 22.2912 24.6434 22.2912H25.7692C25.799 22.2912 25.8267 22.3019 25.8523 22.3235C25.8736 22.3494 25.8843 22.3774 25.8843 22.4076V28.9684C25.8843 29.0029 25.8736 29.0309 25.8523 29.0525C25.8267 29.074 25.799 29.0848 25.7692 29.0848H24.6434C24.6135 29.0848 24.5879 29.074 24.5666 29.0525C24.5453 29.0309 24.5346 29.0029 24.5346 28.9684V26.2897C24.5346 26.2595 24.5176 26.2444 24.4834 26.2444H22.3598C22.3299 26.2444 22.315 26.2595 22.315 26.2897V28.9684C22.315 29.0029 22.3043 29.0309 22.283 29.0525C22.2574 29.074 22.2297 29.0848 22.1999 29.0848H21.0741C21.0442 29.0848 21.0186 29.074 20.9973 29.0525C20.9717 29.0309 20.9589 29.0029 20.9589 28.9684V22.4076C20.9589 22.3774 20.9717 22.3494 20.9973 22.3235C21.0186 22.3019 21.0442 22.2912 21.0741 22.2912H22.1999C22.2297 22.2912 22.2574 22.3019 22.283 22.3235C22.3043 22.3494 22.315 22.3774 22.315 22.4076V25.0151C22.315 25.0496 22.3299 25.0669 22.3598 25.0669H24.4834C24.5176 25.0669 24.5346 25.0496 24.5346 25.0151V22.4076ZM27.6306 23.5334C27.4131 23.5334 27.2318 23.4601 27.0869 23.3134C26.9419 23.1711 26.8694 22.9899 26.8694 22.7699C26.8694 22.5413 26.9397 22.3559 27.0805 22.2135C27.2212 22.0712 27.4046 22 27.6306 22C27.8566 22 28.0399 22.0712 28.1807 22.2135C28.3214 22.3559 28.3918 22.5413 28.3918 22.7699C28.3918 22.9899 28.3193 23.1711 28.1743 23.3134C28.0293 23.4601 27.848 23.5334 27.6306 23.5334ZM27.0549 29.0848C27.025 29.0848 26.9973 29.074 26.9717 29.0525C26.9504 29.0309 26.9397 29.0029 26.9397 28.9684V24.2063C26.9397 24.1718 26.9504 24.1438 26.9717 24.1222C26.9973 24.1006 27.025 24.0899 27.0549 24.0899H28.1807C28.2105 24.0899 28.2361 24.1006 28.2574 24.1222C28.283 24.1438 28.2958 24.1718 28.2958 24.2063V28.9684C28.2958 29.0029 28.283 29.0309 28.2574 29.0525C28.2361 29.074 28.2105 29.0848 28.1807 29.0848H27.0549ZM32.3576 24.2128C32.3576 24.1826 32.3704 24.1546 32.396 24.1287C32.4173 24.1071 32.4429 24.0963 32.4728 24.0963H33.5986C33.6284 24.0963 33.6562 24.1071 33.6817 24.1287C33.7031 24.1546 33.7137 24.1826 33.7137 24.2128V28.6384C33.7137 29.4838 33.4728 30.0877 32.9909 30.45C32.509 30.8167 31.8864 31 31.1231 31C30.8971 31 30.6476 30.9827 30.3747 30.9482C30.3107 30.9396 30.2788 30.8986 30.2788 30.8253L30.3171 29.8224C30.3171 29.7362 30.3619 29.6995 30.4515 29.7124C30.6817 29.7513 30.8928 29.7707 31.0847 29.7707C31.4941 29.7707 31.8097 29.6822 32.0314 29.5054C32.2489 29.3199 32.3576 29.0288 32.3576 28.6319C32.3576 28.6104 32.3512 28.5974 32.3385 28.5931C32.3257 28.5888 32.3129 28.5953 32.3001 28.6125C32.057 28.8756 31.7031 29.0072 31.2382 29.0072C30.8203 29.0072 30.4387 28.9058 30.0933 28.7031C29.7436 28.5004 29.4941 28.1725 29.3449 27.7196C29.251 27.422 29.2041 27.0359 29.2041 26.5615C29.2041 26.0568 29.2617 25.647 29.3768 25.3321C29.509 24.9353 29.735 24.6183 30.0549 24.381C30.3747 24.1395 30.7478 24.0187 31.1743 24.0187C31.6647 24.0187 32.0399 24.1675 32.3001 24.4651C32.3129 24.4781 32.3257 24.4824 32.3385 24.4781C32.3512 24.4738 32.3576 24.463 32.3576 24.4457V24.2128ZM32.2809 27.3444C32.3321 27.1546 32.3576 26.8893 32.3576 26.5485C32.3576 26.3501 32.3512 26.197 32.3385 26.0891C32.3257 25.977 32.3043 25.8713 32.2745 25.7721C32.2148 25.5996 32.1188 25.4594 31.9866 25.3515C31.8544 25.248 31.6881 25.1963 31.4877 25.1963C31.2958 25.1963 31.1338 25.248 31.0016 25.3515C30.8651 25.4594 30.7649 25.5996 30.7009 25.7721C30.6114 25.9662 30.5666 26.2293 30.5666 26.5615C30.5666 26.9238 30.605 27.1826 30.6817 27.3379C30.7372 27.5147 30.8374 27.6549 30.9824 27.7584C31.1274 27.8663 31.2979 27.9202 31.4941 27.9202C31.6988 27.9202 31.8694 27.8663 32.0058 27.7584C32.138 27.6549 32.2297 27.5169 32.2809 27.3444ZM37.2574 24.0187C37.7692 24.0187 38.1807 24.1783 38.492 24.4975C38.8033 24.8124 38.9589 25.2416 38.9589 25.785V28.9684C38.9589 29.0029 38.9483 29.0309 38.9269 29.0525C38.9056 29.074 38.88 29.0848 38.8502 29.0848H37.7244C37.6945 29.0848 37.6668 29.074 37.6412 29.0525C37.6199 29.0309 37.6092 29.0029 37.6092 28.9684V26.0633C37.6092 25.8088 37.5367 25.5996 37.3918 25.4357C37.251 25.2761 37.0613 25.1963 36.8225 25.1963C36.5879 25.1963 36.3982 25.2761 36.2532 25.4357C36.1082 25.5996 36.0357 25.8088 36.0357 26.0633V28.9684C36.0357 29.0029 36.025 29.0309 36.0037 29.0525C35.9824 29.074 35.9547 29.0848 35.9205 29.0848H34.8011C34.767 29.0848 34.7393 29.074 34.718 29.0525C34.6967 29.0309 34.686 29.0029 34.686 28.9684V22.4076C34.686 22.3774 34.6967 22.3494 34.718 22.3235C34.7393 22.3019 34.767 22.2912 34.8011 22.2912H35.9205C35.9547 22.2912 35.9824 22.3019 36.0037 22.3235C36.025 22.3494 36.0357 22.3774 36.0357 22.4076V24.5557C36.0357 24.573 36.0421 24.5859 36.0549 24.5945C36.0677 24.5988 36.0762 24.5945 36.0805 24.5816C36.3449 24.2063 36.7372 24.0187 37.2574 24.0187Z" fill="#252530"/>
<path d="M20.1874 48C20.1417 48 20.1126 47.981 20.1001 47.9429L18.9652 44.0743L18.9589 44.0514C18.9589 44.0171 18.9818 44 19.0275 44H19.6386C19.6844 44 19.7135 44.019 19.7259 44.0571L20.4368 46.6629C20.441 46.6743 20.4472 46.68 20.4555 46.68C20.4638 46.68 20.4701 46.6743 20.4742 46.6629L21.1539 44.0571C21.1664 44.019 21.1934 44 21.235 44H21.8336C21.8794 44 21.9085 44.019 21.9209 44.0571L22.6443 46.6686C22.6485 46.68 22.6547 46.6857 22.663 46.6857C22.6713 46.6857 22.6776 46.68 22.6817 46.6686L23.3801 44.0571C23.3926 44.019 23.4217 44 23.4674 44H24.0474C24.1056 44 24.1284 44.0248 24.116 44.0743L23.0372 47.9429C23.0247 47.981 22.9956 48 22.9499 48H22.3699C22.3242 48 22.2951 47.981 22.2826 47.9429L21.553 45.2171C21.5489 45.2057 21.5426 45.1981 21.5343 45.1943C21.526 45.1943 21.5198 45.2019 21.5156 45.2171L20.8172 47.9429C20.8047 47.981 20.7777 48 20.7361 48H20.1874ZM24.8081 48C24.7873 48 24.7686 47.9924 24.752 47.9771C24.7395 47.9657 24.7333 47.9505 24.7333 47.9314V44.0686C24.7333 44.0495 24.7395 44.0343 24.752 44.0229C24.7686 44.0076 24.7873 44 24.8081 44H25.3818C25.4026 44 25.4192 44.0076 25.4317 44.0229C25.4483 44.0343 25.4567 44.0495 25.4567 44.0686V47.9314C25.4567 47.9505 25.4483 47.9657 25.4317 47.9771C25.4192 47.9924 25.4026 48 25.3818 48H24.8081ZM28.9051 44.0686C28.9051 44.0495 28.9113 44.0343 28.9238 44.0229C28.9404 44.0076 28.9591 44 28.9799 44H29.5536C29.5744 44 29.591 44.0076 29.6035 44.0229C29.6201 44.0343 29.6284 44.0495 29.6284 44.0686V47.9314C29.6284 47.9505 29.6201 47.9657 29.6035 47.9771C29.591 47.9924 29.5744 48 29.5536 48H28.9986C28.957 48 28.9279 47.9848 28.9113 47.9543L27.1154 45.2571C27.1071 45.2457 27.0988 45.24 27.0904 45.24C27.0821 45.2438 27.078 45.2533 27.078 45.2686L27.0904 47.9314C27.0904 47.9505 27.0821 47.9657 27.0655 47.9771C27.053 47.9924 27.0364 48 27.0156 48H26.4419C26.4211 48 26.4024 47.9924 26.3858 47.9771C26.3733 47.9657 26.3671 47.9505 26.3671 47.9314V44.0686C26.3671 44.0495 26.3733 44.0343 26.3858 44.0229C26.4024 44.0076 26.4211 44 26.4419 44H26.9969C27.0385 44 27.0676 44.0152 27.0842 44.0457L28.8739 46.7429C28.8822 46.7543 28.8905 46.7581 28.8988 46.7543C28.9071 46.7543 28.9113 46.7467 28.9113 46.7314L28.9051 44.0686ZM33.4073 44C33.4281 44 33.4448 44.0076 33.4572 44.0229C33.4739 44.0343 33.4822 44.0495 33.4822 44.0686V44.5086C33.4822 44.5276 33.4739 44.5429 33.4572 44.5543C33.4448 44.5695 33.4281 44.5771 33.4073 44.5771H32.2599C32.2392 44.5771 32.2288 44.5867 32.2288 44.6057V47.9314C32.2288 47.9505 32.2225 47.9657 32.2101 47.9771C32.1934 47.9924 32.1747 48 32.1539 48H31.5802C31.5595 48 31.5428 47.9924 31.5304 47.9771C31.5137 47.9657 31.5054 47.9505 31.5054 47.9314V44.6057C31.5054 44.5867 31.495 44.5771 31.4742 44.5771H30.3705C30.3497 44.5771 30.331 44.5695 30.3144 44.5543C30.3019 44.5429 30.2957 44.5276 30.2957 44.5086V44.0686C30.2957 44.0495 30.3019 44.0343 30.3144 44.0229C30.331 44.0076 30.3497 44 30.3705 44H33.4073ZM37.1052 44.5029C37.1052 44.5219 37.0969 44.5371 37.0802 44.5486C37.0678 44.5638 37.0511 44.5714 37.0304 44.5714H34.9039C34.8831 44.5714 34.8728 44.581 34.8728 44.6V45.6686C34.8728 45.6876 34.8831 45.6971 34.9039 45.6971H36.3319C36.3527 45.6971 36.3714 45.7029 36.3881 45.7143C36.4005 45.7295 36.4068 45.7467 36.4068 45.7657V46.2C36.4068 46.219 36.4005 46.2362 36.3881 46.2514C36.3714 46.2629 36.3527 46.2686 36.3319 46.2686H34.9039C34.8831 46.2686 34.8728 46.2781 34.8728 46.2971V47.4C34.8728 47.419 34.8831 47.4286 34.9039 47.4286H37.0304C37.0511 47.4286 37.0678 47.4362 37.0802 47.4514C37.0969 47.4629 37.1052 47.4781 37.1052 47.4971V47.9314C37.1052 47.9505 37.0969 47.9657 37.0802 47.9771C37.0678 47.9924 37.0511 48 37.0304 48H34.2242C34.2034 48 34.1847 47.9924 34.1681 47.9771C34.1556 47.9657 34.1494 47.9505 34.1494 47.9314V44.0686C34.1494 44.0495 34.1556 44.0343 34.1681 44.0229C34.1847 44.0076 34.2034 44 34.2242 44H37.0304C37.0511 44 37.0678 44.0076 37.0802 44.0229C37.0969 44.0343 37.1052 44.0495 37.1052 44.0686V44.5029ZM40.2917 48C40.2501 48 40.221 47.9829 40.2044 47.9486L39.3813 46.3029C39.3729 46.2876 39.3605 46.28 39.3438 46.28H38.5955C38.5748 46.28 38.5644 46.2895 38.5644 46.3086V47.9314C38.5644 47.9505 38.5561 47.9657 38.5394 47.9771C38.527 47.9924 38.5103 48 38.4895 48H37.9158C37.8951 48 37.8763 47.9924 37.8597 47.9771C37.8472 47.9657 37.841 47.9505 37.841 47.9314V44.0686C37.841 44.0495 37.8472 44.0343 37.8597 44.0229C37.8763 44.0076 37.8951 44 37.9158 44H39.6307C39.8843 44 40.1088 44.0476 40.3042 44.1429C40.4996 44.2419 40.6513 44.379 40.7594 44.5543C40.8675 44.7333 40.9215 44.9371 40.9215 45.1657C40.9215 45.4286 40.8467 45.6514 40.697 45.8343C40.5515 46.021 40.3478 46.1505 40.0859 46.2229C40.0776 46.2229 40.0714 46.2267 40.0672 46.2343C40.063 46.2419 40.063 46.2495 40.0672 46.2571L40.9465 47.92C40.9548 47.9352 40.9589 47.9467 40.9589 47.9543C40.9589 47.9848 40.9361 48 40.8903 48H40.2917ZM38.5955 44.5714C38.5748 44.5714 38.5644 44.581 38.5644 44.6V45.7371C38.5644 45.7562 38.5748 45.7657 38.5955 45.7657H39.5309C39.7305 45.7657 39.8926 45.7105 40.0173 45.6C40.1379 45.4933 40.1982 45.3505 40.1982 45.1714C40.1982 44.9924 40.1379 44.8476 40.0173 44.7371C39.8926 44.6267 39.7305 44.5714 39.5309 44.5714H38.5955Z" fill="white"/>
<path d="M21.7304 60.6577C21.7177 60.6711 21.7134 60.6846 21.7177 60.698C21.7261 60.7114 21.7388 60.7181 21.7557 60.7181H24.251C24.2806 60.7181 24.306 60.7293 24.3272 60.7517C24.3526 60.774 24.3653 60.8009 24.3653 60.8322V61.7785C24.3653 61.8098 24.3526 61.8367 24.3272 61.8591C24.306 61.8814 24.2806 61.8926 24.251 61.8926H20.1113C20.0774 61.8926 20.0499 61.8814 20.0288 61.8591C20.0076 61.8367 19.997 61.8098 19.997 61.7785V60.8792C19.997 60.821 20.0161 60.7718 20.0542 60.7315C20.3547 60.4228 20.6616 60.085 20.9748 59.7181C21.288 59.3512 21.4848 59.123 21.5653 59.0336C21.7346 58.8188 21.9081 58.613 22.0859 58.4161C22.6446 57.7629 22.924 57.2774 22.924 56.9597C22.924 56.7315 22.8478 56.5436 22.6954 56.396C22.5431 56.2528 22.3441 56.1812 22.0986 56.1812C21.8531 56.1812 21.6542 56.2528 21.5018 56.396C21.3452 56.5436 21.2669 56.7383 21.2669 56.9799V57.2215C21.2669 57.2528 21.2563 57.2796 21.2351 57.302C21.2139 57.3244 21.1886 57.3356 21.1589 57.3356H20.0732C20.0436 57.3356 20.0182 57.3244 19.997 57.302C19.9716 57.2796 19.9589 57.2528 19.9589 57.2215V56.7651C19.9801 56.4161 20.0859 56.1051 20.2764 55.8322C20.4669 55.5638 20.7187 55.3579 21.0319 55.2148C21.3494 55.0716 21.705 55 22.0986 55C22.5346 55 22.9134 55.0872 23.2351 55.2617C23.5568 55.4318 23.8044 55.6622 23.978 55.953C24.1557 56.2483 24.2446 56.5727 24.2446 56.9262C24.2446 57.1991 24.179 57.4787 24.0478 57.7651C23.9208 58.0515 23.7282 58.3602 23.47 58.6913C23.2796 58.9418 23.0743 59.1924 22.8542 59.443C22.6341 59.689 22.306 60.0447 21.87 60.5101L21.7304 60.6577ZM27.3557 62C26.6785 62 26.1452 61.8009 25.7557 61.4027C25.3621 61.0045 25.1653 60.4609 25.1653 59.7718V57.2013C25.1653 56.5257 25.3621 55.9911 25.7557 55.5973C26.1452 55.1991 26.6785 55 27.3557 55C28.0288 55 28.5642 55.1991 28.9621 55.5973C29.3557 55.9911 29.5526 56.5257 29.5526 57.2013V59.7718C29.5526 60.4609 29.3557 61.0045 28.9621 61.4027C28.5642 61.8009 28.0288 62 27.3557 62ZM27.3557 60.8255C27.6309 60.8255 27.8489 60.736 28.0097 60.557C28.1748 60.3781 28.2573 60.1387 28.2573 59.8389V57.1611C28.2573 56.8658 28.1748 56.6286 28.0097 56.4497C27.8489 56.2707 27.6309 56.1812 27.3557 56.1812C27.0848 56.1812 26.869 56.2707 26.7081 56.4497C26.5431 56.6286 26.4605 56.8658 26.4605 57.1611V59.8389C26.4605 60.1387 26.5431 60.3781 26.7081 60.557C26.869 60.736 27.0848 60.8255 27.3557 60.8255ZM32.1304 60.6577C32.1177 60.6711 32.1155 60.6846 32.124 60.698C32.1282 60.7114 32.1409 60.7181 32.1621 60.7181H34.6573C34.687 60.7181 34.7124 60.7293 34.7335 60.7517C34.7547 60.774 34.7653 60.8009 34.7653 60.8322V61.7785C34.7653 61.8098 34.7547 61.8367 34.7335 61.8591C34.7124 61.8814 34.687 61.8926 34.6573 61.8926H30.5113C30.4817 61.8926 30.4563 61.8814 30.4351 61.8591C30.4139 61.8367 30.4034 61.8098 30.4034 61.7785V60.8792C30.4034 60.821 30.4203 60.7718 30.4542 60.7315C30.7589 60.4228 31.0658 60.085 31.3748 59.7181C31.688 59.3512 31.8848 59.123 31.9653 59.0336C32.1388 58.8188 32.3145 58.613 32.4923 58.4161C33.051 57.7629 33.3304 57.2774 33.3304 56.9597C33.3304 56.7315 33.2542 56.5436 33.1018 56.396C32.9452 56.2528 32.7441 56.1812 32.4986 56.1812C32.2531 56.1812 32.0542 56.2528 31.9018 56.396C31.7494 56.5436 31.6732 56.7383 31.6732 56.9799V57.2215C31.6732 57.2528 31.6626 57.2796 31.6415 57.302C31.6203 57.3244 31.5928 57.3356 31.5589 57.3356H30.4732C30.4436 57.3356 30.4182 57.3244 30.397 57.302C30.3759 57.2796 30.3653 57.2528 30.3653 57.2215V56.7651C30.3822 56.4161 30.4859 56.1051 30.6764 55.8322C30.8669 55.5638 31.1208 55.3579 31.4383 55.2148C31.7557 55.0716 32.1092 55 32.4986 55C32.9346 55 33.3134 55.0872 33.6351 55.2617C33.961 55.4318 34.2108 55.6622 34.3843 55.953C34.5579 56.2483 34.6446 56.5727 34.6446 56.9262C34.6446 57.1991 34.5811 57.4787 34.4542 57.7651C34.3229 58.0515 34.1282 58.3602 33.87 58.6913C33.6796 58.9418 33.4743 59.1924 33.2542 59.443C33.0341 59.689 32.706 60.0447 32.27 60.5101L32.1304 60.6577ZM37.7558 62C37.0827 62 36.5494 61.8009 36.1558 61.4027C35.7621 61.0045 35.5653 60.4609 35.5653 59.7718V57.2013C35.5653 56.5257 35.7621 55.9911 36.1558 55.5973C36.5494 55.1991 37.0827 55 37.7558 55C38.433 55 38.9684 55.1991 39.3621 55.5973C39.76 55.9911 39.9589 56.5257 39.9589 57.2013V59.7718C39.9589 60.4609 39.76 61.0045 39.3621 61.4027C38.9684 61.8009 38.433 62 37.7558 62ZM37.7558 60.8255C38.0351 60.8255 38.2552 60.736 38.4161 60.557C38.5769 60.3781 38.6573 60.1387 38.6573 59.8389V57.1611C38.6573 56.8658 38.5769 56.6286 38.4161 56.4497C38.2552 56.2707 38.0351 56.1812 37.7558 56.1812C37.4891 56.1812 37.2732 56.2707 37.1081 56.4497C36.9473 56.6286 36.8669 56.8658 36.8669 57.1611V59.8389C36.8669 60.1387 36.9473 60.3781 37.1081 60.557C37.2732 60.736 37.4891 60.8255 37.7558 60.8255Z" fill="#252530"/>
</g>
<defs>
<clipPath id="clip0_465_9650">
<rect width="60" height="78" fill="white" transform="translate(0.958923)"/>
</clipPath>
</defs>
</svg>
