<svg width="13" height="13" viewBox="0 0 13 13" fill="none" xmlns="http://www.w3.org/2000/svg">
<mask id="path-1-inside-1_2188_2380" fill="white">
<path d="M7 6H12.5C12.7761 6 13 6.22386 13 6.5C13 6.77614 12.7761 7 12.5 7H7V12.5C7 12.7761 6.77614 13 6.5 13C6.22386 13 6 12.7761 6 12.5V7H0.5C0.223858 7 0 6.77614 0 6.5C0 6.22386 0.223858 6 0.5 6H6V0.5C6 0.223858 6.22386 0 6.5 0C6.77614 0 7 0.223858 7 0.5V6Z"/>
</mask>
<path d="M7 6H6V7H7V6ZM7 7V6H6V7H7ZM6 7H7V6H6V7ZM6 6V7H7V6H6ZM7 7H12.5V5H7V7ZM12.5 7C12.2239 7 12 6.77614 12 6.5H14C14 5.67157 13.3284 5 12.5 5V7ZM12 6.5C12 6.22386 12.2239 6 12.5 6V8C13.3284 8 14 7.32843 14 6.5H12ZM12.5 6H7V8H12.5V6ZM6 7V12.5H8V7H6ZM6 12.5C6 12.2239 6.22386 12 6.5 12V14C7.32843 14 8 13.3284 8 12.5H6ZM6.5 12C6.77614 12 7 12.2239 7 12.5H5C5 13.3284 5.67157 14 6.5 14V12ZM7 12.5V7H5V12.5H7ZM6 6H0.5V8H6V6ZM0.5 6C0.776142 6 1 6.22386 1 6.5H-1C-1 7.32843 -0.328427 8 0.5 8V6ZM1 6.5C1 6.77614 0.776142 7 0.5 7V5C-0.328427 5 -1 5.67157 -1 6.5H1ZM0.5 7H6V5H0.5V7ZM7 6V0.5H5V6H7ZM7 0.5C7 0.776142 6.77614 1 6.5 1V-1C5.67157 -1 5 -0.328427 5 0.5H7ZM6.5 1C6.22386 1 6 0.776142 6 0.5H8C8 -0.328427 7.32843 -1 6.5 -1V1ZM6 0.5V6H8V0.5H6Z" fill="#2F74C8" mask="url(#path-1-inside-1_2188_2380)"/>
</svg>
