<svg width="210" height="230" viewBox="0 0 210 230" fill="none" xmlns="http://www.w3.org/2000/svg">
<g filter="url(#filter0_dddddd_465_9463)">
<path fill-rule="evenodd" clip-rule="evenodd" d="M105 0C91.25 0 80 11.25 80 25C80 38.75 91.25 50 105 50C118.75 50 130 38.75 130 25C130 11.25 118.75 0 105 0Z" fill="#FFDB21"/>
</g>
<path fill-rule="evenodd" clip-rule="evenodd" d="M105 6C94.55 6 86 14.55 86 25C86 35.45 94.55 44 105 44C115.45 44 124 35.45 124 25C124 14.55 115.45 6 105 6Z" fill="url(#paint0_linear_465_9463)"/>
<mask id="path-3-inside-1_465_9463" fill="white">
<path d="M110.12 21.8254C109.941 21.6157 109.965 21.3001 110.175 21.1204C110.384 20.9407 110.7 20.9649 110.88 21.1746L113.88 24.6746C114.04 24.8618 114.04 25.1381 113.88 25.3254L110.88 28.8254C110.7 29.035 110.384 29.0593 110.175 28.8796C109.965 28.6999 109.941 28.3843 110.12 28.1746L112.841 25L110.12 21.8254Z"/>
</mask>
<path d="M110.12 21.8254L110.88 21.1746L110.88 21.1746L110.12 21.8254ZM110.175 21.1204L110.825 21.8796L110.175 21.1204ZM110.88 21.1746L111.639 20.5238L111.639 20.5238L110.88 21.1746ZM113.88 24.6746L114.639 24.0238L114.639 24.0238L113.88 24.6746ZM113.88 25.3254L114.639 25.9762L114.639 25.9762L113.88 25.3254ZM110.88 28.8254L111.639 29.4762L111.639 29.4762L110.88 28.8254ZM110.175 28.8796L110.825 28.1204L110.175 28.8796ZM110.12 28.1746L110.88 28.8254V28.8254L110.12 28.1746ZM112.841 25L113.601 25.6508L114.159 25L113.601 24.3492L112.841 25ZM110.88 21.1746C111.059 21.3843 111.035 21.6999 110.825 21.8796L109.524 20.3611C108.895 20.9002 108.822 21.8472 109.361 22.4762L110.88 21.1746ZM110.825 21.8796C110.616 22.0593 110.3 22.035 110.12 21.8254L111.639 20.5238C111.1 19.8948 110.153 19.822 109.524 20.3611L110.825 21.8796ZM110.12 21.8254L113.12 25.3254L114.639 24.0238L111.639 20.5238L110.12 21.8254ZM113.12 25.3254C112.96 25.1381 112.96 24.8618 113.12 24.6746L114.639 25.9762C115.12 25.4144 115.12 24.5855 114.639 24.0238L113.12 25.3254ZM113.12 24.6746L110.12 28.1746L111.639 29.4762L114.639 25.9762L113.12 24.6746ZM110.12 28.1746C110.3 27.9649 110.616 27.9407 110.825 28.1204L109.524 29.6389C110.153 30.178 111.1 30.1052 111.639 29.4762L110.12 28.1746ZM110.825 28.1204C111.035 28.3001 111.059 28.6157 110.88 28.8254L109.361 27.5238C108.822 28.1528 108.895 29.0997 109.524 29.6389L110.825 28.1204ZM110.88 28.8254L113.601 25.6508L112.082 24.3492L109.361 27.5238L110.88 28.8254ZM113.601 24.3492L110.88 21.1746L109.361 22.4762L112.082 25.6508L113.601 24.3492Z" fill="#153051" mask="url(#path-3-inside-1_465_9463)"/>
<mask id="path-5-inside-2_465_9463" fill="white">
<path d="M99.8796 21.8254C100.059 21.6157 100.035 21.3001 99.8254 21.1204C99.6157 20.9407 99.3001 20.9649 99.1204 21.1746L96.1204 24.6746C95.9599 24.8618 95.9599 25.1381 96.1204 25.3254L99.1204 28.8254C99.3001 29.035 99.6157 29.0593 99.8254 28.8796C100.035 28.6999 100.059 28.3843 99.8796 28.1746L97.1585 25L99.8796 21.8254Z"/>
</mask>
<path d="M99.8796 21.8254L99.1204 21.1746L99.1204 21.1746L99.8796 21.8254ZM99.8254 21.1204L99.1746 21.8796L99.8254 21.1204ZM99.1204 21.1746L98.3611 20.5238L98.3611 20.5238L99.1204 21.1746ZM96.1204 24.6746L95.3611 24.0238L95.3611 24.0238L96.1204 24.6746ZM96.1204 25.3254L95.3611 25.9762L95.3611 25.9762L96.1204 25.3254ZM99.1204 28.8254L98.3611 29.4762L98.3611 29.4762L99.1204 28.8254ZM99.8254 28.8796L99.1746 28.1204L99.8254 28.8796ZM99.8796 28.1746L99.1204 28.8254V28.8254L99.8796 28.1746ZM97.1585 25L96.3993 25.6508L95.8415 25L96.3993 24.3492L97.1585 25ZM99.1204 21.1746C98.9407 21.3843 98.9649 21.6999 99.1746 21.8796L100.476 20.3611C101.105 20.9002 101.178 21.8472 100.639 22.4762L99.1204 21.1746ZM99.1746 21.8796C99.3843 22.0593 99.6999 22.035 99.8796 21.8254L98.3611 20.5238C98.9002 19.8948 99.8472 19.822 100.476 20.3611L99.1746 21.8796ZM99.8796 21.8254L96.8796 25.3254L95.3611 24.0238L98.3611 20.5238L99.8796 21.8254ZM96.8796 25.3254C97.0401 25.1381 97.0401 24.8618 96.8796 24.6746L95.3611 25.9762C94.8796 25.4144 94.8796 24.5855 95.3611 24.0238L96.8796 25.3254ZM96.8796 24.6746L99.8796 28.1746L98.3611 29.4762L95.3611 25.9762L96.8796 24.6746ZM99.8796 28.1746C99.6999 27.9649 99.3843 27.9407 99.1746 28.1204L100.476 29.6389C99.8472 30.178 98.9002 30.1052 98.3611 29.4762L99.8796 28.1746ZM99.1746 28.1204C98.9649 28.3001 98.9407 28.6157 99.1204 28.8254L100.639 27.5238C101.178 28.1528 101.105 29.0997 100.476 29.6389L99.1746 28.1204ZM99.1204 28.8254L96.3993 25.6508L97.9178 24.3492L100.639 27.5238L99.1204 28.8254ZM96.3993 24.3492L99.1204 21.1746L100.639 22.4762L97.9178 25.6508L96.3993 24.3492Z" fill="#153051" mask="url(#path-5-inside-2_465_9463)"/>
<defs>
<filter id="filter0_dddddd_465_9463" x="0" y="0" width="210" height="230" filterUnits="userSpaceOnUse" color-interpolation-filters="sRGB">
<feFlood flood-opacity="0" result="BackgroundImageFix"/>
<feColorMatrix in="SourceAlpha" type="matrix" values="0 0 0 0 0 0 0 0 0 0 0 0 0 0 0 0 0 0 127 0" result="hardAlpha"/>
<feOffset dy="2.76726"/>
<feGaussianBlur stdDeviation="1.1069"/>
<feColorMatrix type="matrix" values="0 0 0 0 0.611765 0 0 0 0 0.709804 0 0 0 0 0.792157 0 0 0 0.0196802 0"/>
<feBlend mode="normal" in2="BackgroundImageFix" result="effect1_dropShadow_465_9463"/>
<feColorMatrix in="SourceAlpha" type="matrix" values="0 0 0 0 0 0 0 0 0 0 0 0 0 0 0 0 0 0 127 0" result="hardAlpha"/>
<feOffset dy="6.6501"/>
<feGaussianBlur stdDeviation="2.66004"/>
<feColorMatrix type="matrix" values="0 0 0 0 0.611765 0 0 0 0 0.709804 0 0 0 0 0.792157 0 0 0 0.0282725 0"/>
<feBlend mode="normal" in2="effect1_dropShadow_465_9463" result="effect2_dropShadow_465_9463"/>
<feColorMatrix in="SourceAlpha" type="matrix" values="0 0 0 0 0 0 0 0 0 0 0 0 0 0 0 0 0 0 127 0" result="hardAlpha"/>
<feOffset dy="12.5216"/>
<feGaussianBlur stdDeviation="5.00862"/>
<feColorMatrix type="matrix" values="0 0 0 0 0.611765 0 0 0 0 0.709804 0 0 0 0 0.792157 0 0 0 0.035 0"/>
<feBlend mode="normal" in2="effect2_dropShadow_465_9463" result="effect3_dropShadow_465_9463"/>
<feColorMatrix in="SourceAlpha" type="matrix" values="0 0 0 0 0 0 0 0 0 0 0 0 0 0 0 0 0 0 127 0" result="hardAlpha"/>
<feOffset dy="22.3363"/>
<feGaussianBlur stdDeviation="8.93452"/>
<feColorMatrix type="matrix" values="0 0 0 0 0.611765 0 0 0 0 0.709804 0 0 0 0 0.792157 0 0 0 0.0417275 0"/>
<feBlend mode="normal" in2="effect3_dropShadow_465_9463" result="effect4_dropShadow_465_9463"/>
<feColorMatrix in="SourceAlpha" type="matrix" values="0 0 0 0 0 0 0 0 0 0 0 0 0 0 0 0 0 0 127 0" result="hardAlpha"/>
<feOffset dy="41.7776"/>
<feGaussianBlur stdDeviation="16.711"/>
<feColorMatrix type="matrix" values="0 0 0 0 0.611765 0 0 0 0 0.709804 0 0 0 0 0.792157 0 0 0 0.0503198 0"/>
<feBlend mode="normal" in2="effect4_dropShadow_465_9463" result="effect5_dropShadow_465_9463"/>
<feColorMatrix in="SourceAlpha" type="matrix" values="0 0 0 0 0 0 0 0 0 0 0 0 0 0 0 0 0 0 127 0" result="hardAlpha"/>
<feOffset dy="100"/>
<feGaussianBlur stdDeviation="40"/>
<feColorMatrix type="matrix" values="0 0 0 0 0.611765 0 0 0 0 0.709804 0 0 0 0 0.792157 0 0 0 0.07 0"/>
<feBlend mode="normal" in2="effect5_dropShadow_465_9463" result="effect6_dropShadow_465_9463"/>
<feBlend mode="normal" in="SourceGraphic" in2="effect6_dropShadow_465_9463" result="shape"/>
</filter>
<linearGradient id="paint0_linear_465_9463" x1="105" y1="6" x2="105" y2="44" gradientUnits="userSpaceOnUse">
<stop stop-color="#FFFBE3"/>
<stop offset="1" stop-color="white"/>
</linearGradient>
</defs>
</svg>
