<svg width="48" height="48" viewBox="0 0 48 48" fill="none" xmlns="http://www.w3.org/2000/svg">
<g clip-path="url(#clip0_586_45121)">
<path d="M44 0.000488281H4.00003C1.79091 0.000488281 0 1.79139 0 4.00052V34.0005C0 36.2096 1.79091 38.0006 4.00003 38.0006H29.0001V36.0005H4.00003C2.89547 36.0005 2.00006 35.1051 2.00006 34.0005V4.00052C2.00006 2.89596 2.89547 2.00055 4.00003 2.00055H44.0001C45.1046 2.00055 46 2.89596 46 4.00052V21.0005H48V4.00052C48 1.79139 46.2092 0.000488281 44 0.000488281Z" fill="#2F74C8"/>
<path d="M10 46.0005C9.44772 46.0005 8.99997 45.5528 8.99997 45.0005C8.99997 44.4482 9.44772 44.0005 10 44.0005H29V42.0005H10C8.34316 42.0005 7 43.3436 7 45.0005C7 46.6573 8.34316 48.0005 10 48.0005H30V46.0005H10V46.0005Z" fill="#2F74C8"/>
<path d="M29 36.0005H18C17.4478 36.0005 17 36.4482 17 37.0005V43.0005C17 43.5528 17.4478 44.0006 18 44.0006H29C29.5523 44.0006 30 43.5528 30 43.0005V37.0005C30 36.4482 29.5523 36.0005 29 36.0005ZM28.0001 42.0005H19.0001V38.0005H28.0001V42.0005Z" fill="#2F74C8"/>
<path d="M26 30.0005H0V32.0005H26V30.0005Z" fill="#2F74C8"/>
<path d="M23 33.0005H17V35.0005H23V33.0005Z" fill="#2F74C8"/>
<path d="M30 33.0005H25V35.0005H30V33.0005Z" fill="#2F74C8"/>
<path d="M36 8.00049C29.3726 8.00049 24 13.3731 24 20.0005C24 26.6279 29.3726 32.0005 36 32.0005C42.6245 31.9934 47.9929 26.625 48 20.0005C48 13.3731 42.6275 8.00049 36 8.00049ZM36 30.0005C30.4772 30.0005 26 25.5234 26 20.0005C26 14.4777 30.4771 10.0005 36 10.0005C41.5204 10.0066 45.9939 14.4801 46 20.0005C46 25.5234 41.5228 30.0005 36 30.0005Z" fill="#2F74C8"/>
<path d="M36 11.0005V13.0005C39.8642 13.0049 42.9956 16.1363 43 20.0005H45C44.9945 15.0322 40.9683 11.006 36 11.0005Z" fill="#2F74C8"/>
<path d="M29 20.0005H27C27.0055 24.9688 31.0317 28.995 36 29.0005V27.0005C32.1358 26.9961 29.0044 23.8647 29 20.0005Z" fill="#2F74C8"/>
<path d="M30 20.0005H32C32 17.7914 33.7908 16.0005 36 16.0005V14.0005C32.6876 14.0039 30.0033 16.6882 30 20.0005Z" fill="#2F74C8"/>
<path d="M40 20.0005C40 22.2096 38.2091 24.0005 36 24.0005V26.0005C39.3124 25.9972 41.9967 23.3129 42 20.0005H40V20.0005Z" fill="#2F74C8"/>
<path d="M39.9002 37.5536L39.0002 35.7645V31.0005C39.0002 30.4482 38.5524 30.0005 38.0002 30.0005H34.0001C33.4478 30.0005 33.0001 30.4482 33.0001 31.0005V35.7645L32.1001 37.5536C32.0326 37.6928 31.9984 37.8459 32.0001 38.0006V47.0006C32.0001 47.5529 32.4478 48.0006 33.0001 48.0006H39.0001C39.5524 48.0006 40.0001 47.5529 40.0001 47.0006V38.0006C40.0019 37.8459 39.9677 37.6929 39.9002 37.5536ZM38.0002 46.0006H34.0001V38.2366L34.9001 36.4476C34.9676 36.3084 35.0018 36.1553 35.0002 36.0006V32.0006H37.0001V36.0006C36.9984 36.1553 37.0327 36.3084 37.1002 36.4476L38.0002 38.2366V46.0006V46.0006Z" fill="#2F74C8"/>
<path d="M29 7.00055V5.00049H6.00003C5.44775 5.00049 5 5.44824 5 6.00052V11.0005C5 11.5528 5.44775 12.0005 6.00003 12.0005H24V10.0006H7.00006V7.00055H29Z" fill="#2F74C8"/>
<path d="M16 15.0005H5V17.0005H16V15.0005Z" fill="#2F74C8"/>
<path d="M22 15.0005H18V17.0005H22V15.0005Z" fill="#2F74C8"/>
<path d="M11 19.0005H5V21.0005H11V19.0005Z" fill="#2F74C8"/>
<path d="M19 19.0005H13V21.0005H19V19.0005Z" fill="#2F74C8"/>
<path d="M8 23.0005H5V25.0004H8V23.0005Z" fill="#2F74C8"/>
<path d="M16 23.0005H10V25.0004H16V23.0005Z" fill="#2F74C8"/>
</g>
<defs>
<clipPath id="clip0_586_45121">
<rect width="48" height="48" fill="white" transform="translate(0 0.000488281)"/>
</clipPath>
</defs>
</svg>
