<svg width="48" height="48" viewBox="0 0 48 48" fill="none" xmlns="http://www.w3.org/2000/svg">
<g clip-path="url(#clip0_586_45136)">
<path d="M38 33.0005V39.0005C38 39.5528 37.5522 40.0005 36.9999 40.0005H3C2.44772 40.0005 1.99997 39.5528 1.99997 39.0005V15.0005C1.99997 14.4482 2.44772 14.0005 3 14.0005H15V12.0005H3C1.34316 12.0005 0 13.3436 0 15.0005V39.0005C0 40.6573 1.34316 42.0005 3 42.0005H37C38.6569 42.0005 40 40.6573 40 39.0005V33.0005H38Z" fill="#2F74C8"/>
<path d="M25 41.0005V46.0005H15V41.0005H13V47.0005C13 47.5528 13.4477 48.0005 14 48.0005H26C26.5523 48.0005 27.0001 47.5528 27.0001 47.0005V41.0005H25Z" fill="#2F74C8"/>
<path d="M29 46.0005H11V48.0005H29V46.0005Z" fill="#2F74C8"/>
<path d="M45 0.000488281H17C15.3432 0.000488281 14 1.34364 14 3.00049V31.0005C14 32.6574 15.3432 34.0005 17 34.0005H45C46.6569 34.0005 48 32.6574 48 31.0005V3.00049C48 1.34364 46.6569 0.000488281 45 0.000488281ZM46.0001 31.0005C46.0001 31.5528 45.5523 32.0006 45 32.0006H17C16.4477 32.0006 16 31.5528 16 31.0005V3.00049C16 2.44821 16.4477 2.00046 17 2.00046H45C45.5523 2.00046 46.0001 2.44821 46.0001 3.00049V31.0005Z" fill="#2F74C8"/>
<path d="M20 4.00049H18V6.00046H20V4.00049Z" fill="#2F74C8"/>
<path d="M24 4.00049H22V6.00046H24V4.00049Z" fill="#2F74C8"/>
<path d="M28 4.00049H26V6.00046H28V4.00049Z" fill="#2F74C8"/>
<path d="M40 8.00049H15V10.0005H40V8.00049Z" fill="#2F74C8"/>
<path d="M13 34.0005H1V36.0005H13V34.0005Z" fill="#2F74C8"/>
<path d="M7 16.0005C5.34316 16.0005 4 17.3436 4 19.0005V21.0005H5.99997V19.0005C5.99997 18.4482 6.44772 18.0005 7 18.0005H8.99997V16.0005H7Z" fill="#2F74C8"/>
<path d="M5.99997 23.0005H4V25.0004H5.99997V23.0005Z" fill="#2F74C8"/>
<path d="M27 12.0005H21C19.3432 12.0005 18 13.3436 18 15.0005V17.0005C18 18.6573 19.3432 20.0005 21 20.0005H27C28.6568 20.0005 30 18.6573 30 17.0005V15.0005C30 13.3436 28.6568 12.0005 27 12.0005ZM28 17.0005C28 17.5527 27.5523 18.0005 27 18.0005H21C20.4477 18.0005 20 17.5527 20 17.0005V15.0005C20 14.4482 20.4477 14.0005 21 14.0005H27C27.5523 14.0005 28 14.4482 28 15.0005V17.0005Z" fill="#2F74C8"/>
<path d="M41 12.0005H35C33.3432 12.0005 32 13.3436 32 15.0005V17.0005C32 18.6573 33.3432 20.0005 35 20.0005H41C42.6568 20.0005 44 18.6573 44 17.0005V15.0005C44 13.3436 42.6568 12.0005 41 12.0005ZM42 17.0005C42 17.5527 41.5523 18.0005 41 18.0005H35C34.4477 18.0005 34 17.5527 34 17.0005V15.0005C34 14.4482 34.4477 14.0005 35 14.0005H41C41.5523 14.0005 42 14.4482 42 15.0005V17.0005Z" fill="#2F74C8"/>
<path d="M27 22.0005H21C19.3432 22.0005 18 23.3436 18 25.0005V27.0004C18 28.6573 19.3432 30.0004 21 30.0004H27C28.6568 30.0004 30 28.6573 30 27.0004V25.0005C30 23.3436 28.6568 22.0005 27 22.0005ZM28 27.0004C28 27.5527 27.5523 28.0005 27 28.0005H21C20.4477 28.0005 20 27.5527 20 27.0004V25.0005C20 24.4482 20.4477 24.0005 21 24.0005H27C27.5523 24.0005 28 24.4482 28 25.0005V27.0004Z" fill="#2F74C8"/>
<path d="M41 22.0005H35C33.3432 22.0005 32 23.3436 32 25.0005V27.0004C32 28.6573 33.3432 30.0004 35 30.0004H41C42.6568 30.0004 44 28.6573 44 27.0004V25.0005C44 23.3436 42.6568 22.0005 41 22.0005ZM42 27.0004C42 27.5527 41.5523 28.0005 41 28.0005H35C34.4477 28.0005 34 27.5527 34 27.0004V25.0005C34 24.4482 34.4477 24.0005 35 24.0005H41C41.5523 24.0005 42 24.4482 42 25.0005V27.0004Z" fill="#2F74C8"/>
<path d="M44 8.00049H42V10.0005H44V8.00049Z" fill="#2F74C8"/>
</g>
<defs>
<clipPath id="clip0_586_45136">
<rect width="48" height="48" fill="white" transform="translate(0 0.000488281)"/>
</clipPath>
</defs>
</svg>
