<svg width="48" height="48" viewBox="0 0 48 48" fill="none" xmlns="http://www.w3.org/2000/svg">
<g clip-path="url(#clip0_528_2883)">
<path d="M24 0.000976562C10.767 0.000976562 0 10.768 0 24.001C0 37.234 10.767 48.001 24 48.001C37.233 48.001 48 37.234 48 24.001C48 10.768 37.233 0.000976562 24 0.000976562ZM24 45.001C12.42 45.001 3 35.581 3 24.001C3 12.421 12.42 3.00098 24 3.00098C35.58 3.00098 45 12.421 45 24.001C45 35.581 35.58 45.001 24 45.001Z" fill="#2F74C8"/>
<path d="M24 9.00098C19.0365 9.00098 15 13.038 15 17.9991H18C18 14.6912 20.691 12.0014 24 12.0014C27.309 12.0014 30 14.6927 30 18.0021C30 21.3115 27.309 24.0029 24 24.0029C23.172 24.0029 22.5 24.6749 22.5 25.503V33.001H25.5V26.8772C29.751 26.1601 33 22.4532 33 18.0006C33 13.038 28.9635 9.00098 24 9.00098Z" fill="#2F74C8"/>
<path d="M26 36.001H23V39.001H26V36.001Z" fill="#2F74C8"/>
</g>
<defs>
<clipPath id="clip0_528_2883">
<rect width="48" height="48" fill="white" transform="translate(0 0.000976562)"/>
</clipPath>
</defs>
</svg>
