<svg width="38" height="24" viewBox="0 0 38 24" fill="none" xmlns="http://www.w3.org/2000/svg">
<mask id="path-1-inside-1_2363_1774" fill="white">
<path d="M24.1204 8.82539C23.9407 8.61572 23.965 8.30007 24.1746 8.12036C24.3843 7.94065 24.6999 7.96493 24.8796 8.1746L27.8796 11.6746C28.0401 11.8618 28.0401 12.1381 27.8796 12.3254L24.8796 15.8254C24.6999 16.035 24.3843 16.0593 24.1746 15.8796C23.965 15.6999 23.9407 15.3843 24.1204 15.1746L26.8415 12L24.1204 8.82539Z"/>
</mask>
<path d="M24.1204 8.82539L24.8796 8.1746L24.8796 8.17459L24.1204 8.82539ZM24.1746 8.12036L24.8254 8.87962L24.1746 8.12036ZM24.8796 8.1746L25.6389 7.5238L25.6389 7.5238L24.8796 8.1746ZM27.8796 11.6746L28.6389 11.0238L28.6389 11.0238L27.8796 11.6746ZM27.8796 12.3254L28.6389 12.9762L28.6389 12.9762L27.8796 12.3254ZM24.8796 15.8254L25.6389 16.4762L25.6389 16.4762L24.8796 15.8254ZM24.1746 15.8796L24.8254 15.1204L24.1746 15.8796ZM24.1204 15.1746L24.8796 15.8254V15.8254L24.1204 15.1746ZM26.8415 12L27.6007 12.6508L28.1585 12L27.6007 11.3492L26.8415 12ZM24.8796 8.17459C25.0593 8.38426 25.0351 8.69991 24.8254 8.87962L23.5238 7.36111C22.8948 7.90024 22.822 8.84719 23.3611 9.47618L24.8796 8.17459ZM24.8254 8.87962C24.6157 9.05933 24.3001 9.03505 24.1204 8.82539L25.6389 7.5238C25.0998 6.89482 24.1528 6.82197 23.5238 7.36111L24.8254 8.87962ZM24.1204 8.82539L27.1204 12.3254L28.6389 11.0238L25.6389 7.5238L24.1204 8.82539ZM27.1204 12.3254C26.9599 12.1381 26.9599 11.8618 27.1204 11.6746L28.6389 12.9762C29.1204 12.4144 29.1204 11.5855 28.6389 11.0238L27.1204 12.3254ZM27.1204 11.6746L24.1204 15.1746L25.6389 16.4762L28.6389 12.9762L27.1204 11.6746ZM24.1204 15.1746C24.3001 14.9649 24.6157 14.9407 24.8254 15.1204L23.5238 16.6389C24.1528 17.178 25.0998 17.1052 25.6389 16.4762L24.1204 15.1746ZM24.8254 15.1204C25.0351 15.3001 25.0593 15.6157 24.8796 15.8254L23.3611 14.5238C22.822 15.1528 22.8948 16.0997 23.5238 16.6389L24.8254 15.1204ZM24.8796 15.8254L27.6007 12.6508L26.0822 11.3492L23.3611 14.5238L24.8796 15.8254ZM27.6007 11.3492L24.8796 8.1746L23.3611 9.47618L26.0822 12.6508L27.6007 11.3492Z" fill="#153051" mask="url(#path-1-inside-1_2363_1774)"/>
<mask id="path-3-inside-2_2363_1774" fill="white">
<path d="M13.8796 8.82539C14.0593 8.61572 14.0351 8.30007 13.8254 8.12036C13.6157 7.94065 13.3001 7.96493 13.1204 8.1746L10.1204 11.6746C9.95987 11.8618 9.95987 12.1381 10.1204 12.3254L13.1204 15.8254C13.3001 16.035 13.6157 16.0593 13.8254 15.8796C14.0351 15.6999 14.0593 15.3843 13.8796 15.1746L11.1585 12L13.8796 8.82539Z"/>
</mask>
<path d="M13.8796 8.82539L13.1204 8.1746L13.1204 8.17459L13.8796 8.82539ZM13.8254 8.12036L13.1746 8.87962L13.8254 8.12036ZM13.1204 8.1746L12.3611 7.5238L12.3611 7.5238L13.1204 8.1746ZM10.1204 11.6746L9.36111 11.0238L9.36111 11.0238L10.1204 11.6746ZM10.1204 12.3254L9.36111 12.9762L9.36111 12.9762L10.1204 12.3254ZM13.1204 15.8254L12.3611 16.4762L12.3611 16.4762L13.1204 15.8254ZM13.8254 15.8796L13.1746 15.1204L13.8254 15.8796ZM13.8796 15.1746L13.1204 15.8254L13.1204 15.8254L13.8796 15.1746ZM11.1585 12L10.3993 12.6508L9.84145 12L10.3993 11.3492L11.1585 12ZM13.1204 8.17459C12.9407 8.38426 12.9649 8.69991 13.1746 8.87962L14.4762 7.36111C15.1052 7.90024 15.178 8.84719 14.6389 9.47618L13.1204 8.17459ZM13.1746 8.87962C13.3843 9.05933 13.6999 9.03505 13.8796 8.82539L12.3611 7.5238C12.9002 6.89482 13.8472 6.82197 14.4762 7.36111L13.1746 8.87962ZM13.8796 8.82539L10.8796 12.3254L9.36111 11.0238L12.3611 7.5238L13.8796 8.82539ZM10.8796 12.3254C11.0401 12.1381 11.0401 11.8618 10.8796 11.6746L9.36111 12.9762C8.87962 12.4144 8.87962 11.5855 9.36111 11.0238L10.8796 12.3254ZM10.8796 11.6746L13.8796 15.1746L12.3611 16.4762L9.36111 12.9762L10.8796 11.6746ZM13.8796 15.1746C13.6999 14.9649 13.3843 14.9407 13.1746 15.1204L14.4762 16.6389C13.8472 17.178 12.9002 17.1052 12.3611 16.4762L13.8796 15.1746ZM13.1746 15.1204C12.9649 15.3001 12.9407 15.6157 13.1204 15.8254L14.6389 14.5238C15.178 15.1528 15.1052 16.0997 14.4762 16.6389L13.1746 15.1204ZM13.1204 15.8254L10.3993 12.6508L11.9178 11.3492L14.6389 14.5238L13.1204 15.8254ZM10.3993 11.3492L13.1204 8.1746L14.6389 9.47618L11.9178 12.6508L10.3993 11.3492Z" fill="#153051" mask="url(#path-3-inside-2_2363_1774)"/>
</svg>
